<?xml version="1.0" encoding="UTF-8"?><svg xmlns="http://www.w3.org/2000/svg" xmlns:xlink="http://www.w3.org/1999/xlink" stroke-dasharray="none" shape-rendering="auto" font-family="'Dialog'" width="1570" text-rendering="auto" fill-opacity="1" contentScriptType="text/ecmascript" color-interpolation="auto" color-rendering="auto" preserveAspectRatio="xMidYMid meet" font-size="12" fill="black" stroke="black" image-rendering="auto" stroke-miterlimit="10" zoomAndPan="magnify" version="1.0" stroke-linecap="square" stroke-linejoin="miter" contentStyleType="text/css" font-style="normal" height="789" stroke-width="1" stroke-dashoffset="0" font-weight="normal" stroke-opacity="1">
    <!--Generated by the Batik Graphics2D SVG Generator-->
    <defs id="genericDefs"/>
    <g>
        <defs id="defs1">
            <clipPath clipPathUnits="userSpaceOnUse" id="clipPath1">
                <path d="M31 45 L1539 45 L1539 764 L31 764 L31 45 Z"/>
            </clipPath>
            <clipPath clipPathUnits="userSpaceOnUse" id="clipPath2">
                <path d="M-1 -1 L1571 -1 L1571 790 L-1 790 L-1 -1 Z"/>
            </clipPath>
            <clipPath clipPathUnits="userSpaceOnUse" id="clipPath3">
                <path d="M1410 50 L1535 50 L1535 79 L1410 79 L1410 50 Z"/>
            </clipPath>
        </defs>
        <g font-size="18" fill="white" text-rendering="optimizeLegibility" font-family="'Ubuntu'" stroke-linejoin="round" stroke="white" stroke-width="0" stroke-miterlimit="0">
            <rect x="32" y="46" clip-path="url(#clipPath1)" width="1506" height="717" stroke="none"/>
        </g>
        <g stroke-linecap="butt" font-size="18" fill="rgb(204,204,204)" text-rendering="optimizeLegibility" font-family="'Ubuntu'" stroke-dasharray="3,3" stroke="rgb(204,204,204)">
            <line clip-path="url(#clipPath1)" fill="none" x1="32" x2="32" y1="46" y2="763"/>
            <line clip-path="url(#clipPath1)" fill="none" x1="148" x2="148" y1="46" y2="763"/>
            <line clip-path="url(#clipPath1)" fill="none" x1="264" x2="264" y1="46" y2="763"/>
            <line clip-path="url(#clipPath1)" fill="none" x1="380" x2="380" y1="46" y2="763"/>
            <line clip-path="url(#clipPath1)" fill="none" x1="496" x2="496" y1="46" y2="763"/>
            <line clip-path="url(#clipPath1)" fill="none" x1="612" x2="612" y1="46" y2="763"/>
            <line clip-path="url(#clipPath1)" fill="none" x1="728" x2="728" y1="46" y2="763"/>
            <line clip-path="url(#clipPath1)" fill="none" x1="844" x2="844" y1="46" y2="763"/>
            <line clip-path="url(#clipPath1)" fill="none" x1="960" x2="960" y1="46" y2="763"/>
            <line clip-path="url(#clipPath1)" fill="none" x1="1076" x2="1076" y1="46" y2="763"/>
            <line clip-path="url(#clipPath1)" fill="none" x1="1192" x2="1192" y1="46" y2="763"/>
            <line clip-path="url(#clipPath1)" fill="none" x1="1308" x2="1308" y1="46" y2="763"/>
            <line clip-path="url(#clipPath1)" fill="none" x1="1424" x2="1424" y1="46" y2="763"/>
            <line clip-path="url(#clipPath1)" fill="none" x1="32" x2="1538" y1="763" y2="763"/>
            <line clip-path="url(#clipPath1)" fill="none" x1="32" x2="1538" y1="705" y2="705"/>
            <line clip-path="url(#clipPath1)" fill="none" x1="32" x2="1538" y1="648" y2="648"/>
            <line clip-path="url(#clipPath1)" fill="none" x1="32" x2="1538" y1="590" y2="590"/>
            <line clip-path="url(#clipPath1)" fill="none" x1="32" x2="1538" y1="533" y2="533"/>
            <line clip-path="url(#clipPath1)" fill="none" x1="32" x2="1538" y1="476" y2="476"/>
            <line clip-path="url(#clipPath1)" fill="none" x1="32" x2="1538" y1="418" y2="418"/>
            <line clip-path="url(#clipPath1)" fill="none" x1="32" x2="1538" y1="361" y2="361"/>
            <line clip-path="url(#clipPath1)" fill="none" x1="32" x2="1538" y1="304" y2="304"/>
            <line clip-path="url(#clipPath1)" fill="none" x1="32" x2="1538" y1="246" y2="246"/>
            <line clip-path="url(#clipPath1)" fill="none" x1="32" x2="1538" y1="189" y2="189"/>
            <line clip-path="url(#clipPath1)" fill="none" x1="32" x2="1538" y1="132" y2="132"/>
            <line clip-path="url(#clipPath1)" fill="none" x1="32" x2="1538" y1="74" y2="74"/>
        </g>
        <g stroke-linecap="butt" font-size="18" fill="rgb(31,119,180)" text-rendering="optimizeLegibility" font-family="'Ubuntu'" stroke="rgb(31,119,180)" stroke-width="1.5">
            <line clip-path="url(#clipPath1)" fill="none" x1="1029" x2="1034" y1="189" y2="189"/>
            <line clip-path="url(#clipPath1)" fill="none" x1="1034" x2="1038" y1="189" y2="189"/>
            <line clip-path="url(#clipPath1)" fill="none" x1="1038" x2="1043" y1="189" y2="189"/>
            <line clip-path="url(#clipPath1)" fill="none" x1="1043" x2="1048" y1="189" y2="189"/>
            <line clip-path="url(#clipPath1)" fill="none" x1="1048" x2="1052" y1="189" y2="189"/>
            <line clip-path="url(#clipPath1)" fill="none" x1="1052" x2="1057" y1="189" y2="189"/>
            <line clip-path="url(#clipPath1)" fill="none" x1="1057" x2="1061" y1="189" y2="189"/>
            <line clip-path="url(#clipPath1)" fill="none" x1="1061" x2="1066" y1="189" y2="189"/>
            <line clip-path="url(#clipPath1)" fill="none" x1="1066" x2="1071" y1="189" y2="189"/>
            <line clip-path="url(#clipPath1)" fill="none" x1="1071" x2="1075" y1="189" y2="189"/>
            <line clip-path="url(#clipPath1)" fill="none" x1="1075" x2="1080" y1="189" y2="189"/>
            <line clip-path="url(#clipPath1)" fill="none" x1="1080" x2="1085" y1="189" y2="189"/>
            <line clip-path="url(#clipPath1)" fill="none" x1="1085" x2="1089" y1="189" y2="189"/>
            <line clip-path="url(#clipPath1)" fill="none" x1="1089" x2="1094" y1="189" y2="189"/>
            <line clip-path="url(#clipPath1)" fill="none" x1="1094" x2="1099" y1="189" y2="189"/>
            <line clip-path="url(#clipPath1)" fill="none" x1="1099" x2="1103" y1="189" y2="189"/>
            <line clip-path="url(#clipPath1)" fill="none" x1="1103" x2="1108" y1="189" y2="189"/>
            <line clip-path="url(#clipPath1)" fill="none" x1="1108" x2="1112" y1="189" y2="189"/>
            <line clip-path="url(#clipPath1)" fill="none" x1="1112" x2="1117" y1="189" y2="189"/>
            <line clip-path="url(#clipPath1)" fill="none" x1="1117" x2="1122" y1="189" y2="189"/>
            <line clip-path="url(#clipPath1)" fill="none" x1="1122" x2="1127" y1="189" y2="189"/>
            <line clip-path="url(#clipPath1)" fill="none" x1="1127" x2="1132" y1="189" y2="189"/>
            <line clip-path="url(#clipPath1)" fill="none" x1="1132" x2="1141" y1="189" y2="189"/>
            <line clip-path="url(#clipPath1)" fill="none" x1="1141" x2="1145" y1="189" y2="189"/>
            <line clip-path="url(#clipPath1)" fill="none" x1="1145" x2="1150" y1="189" y2="189"/>
            <line clip-path="url(#clipPath1)" fill="none" x1="1150" x2="1155" y1="189" y2="189"/>
            <line clip-path="url(#clipPath1)" fill="none" x1="1155" x2="1159" y1="189" y2="189"/>
            <line clip-path="url(#clipPath1)" fill="none" x1="1159" x2="1164" y1="189" y2="189"/>
            <line clip-path="url(#clipPath1)" fill="none" x1="1164" x2="1169" y1="189" y2="189"/>
            <line clip-path="url(#clipPath1)" fill="none" x1="1169" x2="1173" y1="189" y2="189"/>
            <line clip-path="url(#clipPath1)" fill="none" x1="1173" x2="1178" y1="189" y2="189"/>
            <line clip-path="url(#clipPath1)" fill="none" x1="1178" x2="1183" y1="189" y2="189"/>
            <line clip-path="url(#clipPath1)" fill="none" x1="1183" x2="1187" y1="189" y2="189"/>
            <line clip-path="url(#clipPath1)" fill="none" x1="1187" x2="1192" y1="189" y2="189"/>
            <line clip-path="url(#clipPath1)" fill="none" x1="1192" x2="1196" y1="189" y2="189"/>
            <line clip-path="url(#clipPath1)" fill="none" x1="1196" x2="1201" y1="189" y2="189"/>
            <line clip-path="url(#clipPath1)" fill="none" x1="1201" x2="1206" y1="189" y2="189"/>
            <line clip-path="url(#clipPath1)" fill="none" x1="1206" x2="1210" y1="189" y2="189"/>
            <line clip-path="url(#clipPath1)" fill="none" x1="1210" x2="1215" y1="189" y2="189"/>
            <line clip-path="url(#clipPath1)" fill="none" x1="1215" x2="1220" y1="189" y2="189"/>
            <line clip-path="url(#clipPath1)" fill="none" x1="1220" x2="1224" y1="189" y2="189"/>
            <line clip-path="url(#clipPath1)" fill="none" x1="1224" x2="1229" y1="189" y2="189"/>
            <line clip-path="url(#clipPath1)" fill="none" x1="1229" x2="1234" y1="189" y2="189"/>
            <line clip-path="url(#clipPath1)" fill="none" x1="1234" x2="1238" y1="189" y2="189"/>
            <line clip-path="url(#clipPath1)" fill="none" x1="1238" x2="1243" y1="189" y2="189"/>
            <line clip-path="url(#clipPath1)" fill="none" x1="1243" x2="1248" y1="189" y2="189"/>
            <line clip-path="url(#clipPath1)" fill="none" x1="1248" x2="1252" y1="189" y2="189"/>
            <line clip-path="url(#clipPath1)" fill="none" x1="1252" x2="1257" y1="189" y2="189"/>
            <line clip-path="url(#clipPath1)" fill="none" x1="1257" x2="1261" y1="189" y2="189"/>
            <line clip-path="url(#clipPath1)" fill="none" x1="1261" x2="1266" y1="189" y2="189"/>
            <line clip-path="url(#clipPath1)" fill="none" x1="1266" x2="1271" y1="189" y2="189"/>
            <line clip-path="url(#clipPath1)" fill="none" x1="1271" x2="1275" y1="189" y2="189"/>
            <line clip-path="url(#clipPath1)" fill="none" x1="1275" x2="1280" y1="189" y2="189"/>
            <line clip-path="url(#clipPath1)" fill="none" x1="1280" x2="1285" y1="189" y2="189"/>
            <line clip-path="url(#clipPath1)" fill="none" x1="1285" x2="1289" y1="189" y2="189"/>
            <line clip-path="url(#clipPath1)" fill="none" x1="1289" x2="1294" y1="189" y2="189"/>
            <line clip-path="url(#clipPath1)" fill="none" x1="1294" x2="1299" y1="189" y2="189"/>
            <line clip-path="url(#clipPath1)" fill="none" x1="1299" x2="1303" y1="189" y2="189"/>
            <line clip-path="url(#clipPath1)" fill="none" x1="1303" x2="1308" y1="189" y2="189"/>
            <line clip-path="url(#clipPath1)" fill="none" x1="1308" x2="1313" y1="189" y2="189"/>
            <line clip-path="url(#clipPath1)" fill="none" x1="1313" x2="1317" y1="189" y2="189"/>
            <line clip-path="url(#clipPath1)" fill="none" x1="1317" x2="1322" y1="189" y2="189"/>
            <line clip-path="url(#clipPath1)" fill="none" x1="1322" x2="1326" y1="189" y2="189"/>
            <line clip-path="url(#clipPath1)" fill="none" x1="1326" x2="1331" y1="189" y2="189"/>
            <line clip-path="url(#clipPath1)" fill="none" x1="1331" x2="1336" y1="189" y2="189"/>
            <line clip-path="url(#clipPath1)" fill="none" x1="1336" x2="1340" y1="189" y2="189"/>
            <line clip-path="url(#clipPath1)" fill="none" x1="1340" x2="1345" y1="189" y2="189"/>
            <line clip-path="url(#clipPath1)" fill="none" x1="1345" x2="1350" y1="189" y2="189"/>
            <line clip-path="url(#clipPath1)" fill="none" x1="1350" x2="1354" y1="189" y2="189"/>
            <line clip-path="url(#clipPath1)" fill="none" x1="1354" x2="1359" y1="189" y2="189"/>
            <line clip-path="url(#clipPath1)" fill="none" x1="1359" x2="1364" y1="189" y2="189"/>
            <line clip-path="url(#clipPath1)" fill="none" x1="1364" x2="1368" y1="189" y2="189"/>
            <line clip-path="url(#clipPath1)" fill="none" x1="1368" x2="1373" y1="189" y2="189"/>
            <line clip-path="url(#clipPath1)" fill="none" x1="1373" x2="1377" y1="189" y2="189"/>
            <line clip-path="url(#clipPath1)" fill="none" x1="1377" x2="1382" y1="189" y2="189"/>
            <line clip-path="url(#clipPath1)" fill="none" x1="1382" x2="1387" y1="189" y2="189"/>
            <line clip-path="url(#clipPath1)" fill="none" x1="1387" x2="1392" y1="189" y2="189"/>
            <line clip-path="url(#clipPath1)" fill="none" x1="1392" x2="1396" y1="189" y2="189"/>
            <line clip-path="url(#clipPath1)" fill="none" x1="1396" x2="1429" y1="189" y2="189"/>
            <line clip-path="url(#clipPath1)" fill="none" x1="1429" x2="1433" y1="189" y2="189"/>
            <line clip-path="url(#clipPath1)" fill="none" x1="1433" x2="1438" y1="189" y2="189"/>
            <line clip-path="url(#clipPath1)" fill="none" x1="1438" x2="1443" y1="189" y2="189"/>
            <line clip-path="url(#clipPath1)" fill="none" x1="1443" x2="1447" y1="189" y2="189"/>
            <line clip-path="url(#clipPath1)" fill="none" x1="1447" x2="1452" y1="189" y2="189"/>
            <line clip-path="url(#clipPath1)" fill="none" x1="1452" x2="1456" y1="189" y2="189"/>
            <line clip-path="url(#clipPath1)" fill="none" x1="1456" x2="1461" y1="189" y2="189"/>
            <line clip-path="url(#clipPath1)" fill="none" x1="1461" x2="1466" y1="189" y2="189"/>
            <line clip-path="url(#clipPath1)" fill="none" x1="1466" x2="1470" y1="189" y2="189"/>
            <line clip-path="url(#clipPath1)" fill="none" x1="1470" x2="1475" y1="189" y2="189"/>
            <line clip-path="url(#clipPath1)" fill="none" x1="1475" x2="1485" y1="189" y2="189"/>
            <line clip-path="url(#clipPath1)" fill="none" x1="1485" x2="1489" y1="189" y2="189"/>
            <line clip-path="url(#clipPath1)" fill="none" x1="1489" x2="1494" y1="189" y2="189"/>
            <line clip-path="url(#clipPath1)" fill="none" x1="1494" x2="1499" y1="189" y2="189"/>
            <line clip-path="url(#clipPath1)" fill="none" x1="1499" x2="1503" y1="189" y2="189"/>
            <line clip-path="url(#clipPath1)" fill="none" x1="1503" x2="1508" y1="189" y2="189"/>
            <line clip-path="url(#clipPath1)" fill="none" x1="1508" x2="1513" y1="189" y2="189"/>
            <line clip-path="url(#clipPath1)" fill="none" x1="1513" x2="1517" y1="189" y2="189"/>
            <line clip-path="url(#clipPath1)" fill="none" x1="1517" x2="1522" y1="189" y2="189"/>
            <line clip-path="url(#clipPath1)" fill="none" x1="1522" x2="1527" y1="189" y2="189"/>
            <line clip-path="url(#clipPath1)" fill="none" x1="1527" x2="1531" y1="189" y2="189"/>
            <rect x="32" y="46" clip-path="url(#clipPath2)" fill="none" width="1506" height="717" stroke="black" stroke-width="1"/>
        </g>
        <g text-rendering="optimizeLegibility" font-size="16" stroke-linecap="butt">
            <text xml:space="preserve" x="725" y="15" clip-path="url(#clipPath2)" stroke="none">Network.queue1</text>
            <rect x="1411" y="51" clip-path="url(#clipPath3)" fill="white" width="122" opacity="0.7529" height="26" stroke="none"/>
            <line clip-path="url(#clipPath3)" fill="none" x1="1417" x2="1431" y1="64" y2="64" stroke="rgb(31,119,180)" stroke-width="2"/>
            <text x="1433" font-size="13" y="69" clip-path="url(#clipPath3)" stroke="none" stroke-width="2" xml:space="preserve">Network.queue1</text>
            <line clip-path="url(#clipPath2)" fill="none" x1="32" x2="1538" y1="44" y2="44"/>
            <line clip-path="url(#clipPath2)" fill="none" x1="32" x2="1538" y1="765" y2="765"/>
            <line clip-path="url(#clipPath2)" fill="none" x1="32" x2="32" y1="40" y2="44"/>
            <line clip-path="url(#clipPath2)" fill="none" x1="32" x2="32" y1="769" y2="765"/>
            <text x="29" font-size="13" y="36" clip-path="url(#clipPath2)" stroke="none" xml:space="preserve">0</text>
            <text x="29" font-size="13" y="783" clip-path="url(#clipPath2)" stroke="none" xml:space="preserve">0</text>
            <line clip-path="url(#clipPath2)" fill="none" x1="55" x2="55" y1="42" y2="44"/>
            <line clip-path="url(#clipPath2)" fill="none" x1="55" x2="55" y1="767" y2="765"/>
            <line clip-path="url(#clipPath2)" fill="none" x1="78" x2="78" y1="42" y2="44"/>
            <line clip-path="url(#clipPath2)" fill="none" x1="78" x2="78" y1="767" y2="765"/>
            <line clip-path="url(#clipPath2)" fill="none" x1="101" x2="101" y1="42" y2="44"/>
            <line clip-path="url(#clipPath2)" fill="none" x1="101" x2="101" y1="767" y2="765"/>
            <line clip-path="url(#clipPath2)" fill="none" x1="124" x2="124" y1="42" y2="44"/>
            <line clip-path="url(#clipPath2)" fill="none" x1="124" x2="124" y1="767" y2="765"/>
            <line clip-path="url(#clipPath2)" fill="none" x1="148" x2="148" y1="40" y2="44"/>
            <line clip-path="url(#clipPath2)" fill="none" x1="148" x2="148" y1="769" y2="765"/>
            <text x="145" font-size="13" y="36" clip-path="url(#clipPath2)" stroke="none" xml:space="preserve">5</text>
            <text x="145" font-size="13" y="783" clip-path="url(#clipPath2)" stroke="none" xml:space="preserve">5</text>
            <line clip-path="url(#clipPath2)" fill="none" x1="171" x2="171" y1="42" y2="44"/>
            <line clip-path="url(#clipPath2)" fill="none" x1="171" x2="171" y1="767" y2="765"/>
            <line clip-path="url(#clipPath2)" fill="none" x1="194" x2="194" y1="42" y2="44"/>
            <line clip-path="url(#clipPath2)" fill="none" x1="194" x2="194" y1="767" y2="765"/>
            <line clip-path="url(#clipPath2)" fill="none" x1="217" x2="217" y1="42" y2="44"/>
            <line clip-path="url(#clipPath2)" fill="none" x1="217" x2="217" y1="767" y2="765"/>
            <line clip-path="url(#clipPath2)" fill="none" x1="240" x2="240" y1="42" y2="44"/>
            <line clip-path="url(#clipPath2)" fill="none" x1="240" x2="240" y1="767" y2="765"/>
            <line clip-path="url(#clipPath2)" fill="none" x1="264" x2="264" y1="40" y2="44"/>
            <line clip-path="url(#clipPath2)" fill="none" x1="264" x2="264" y1="769" y2="765"/>
            <text x="257" font-size="13" y="36" clip-path="url(#clipPath2)" stroke="none" xml:space="preserve">10</text>
            <text x="257" font-size="13" y="783" clip-path="url(#clipPath2)" stroke="none" xml:space="preserve">10</text>
            <line clip-path="url(#clipPath2)" fill="none" x1="287" x2="287" y1="42" y2="44"/>
            <line clip-path="url(#clipPath2)" fill="none" x1="287" x2="287" y1="767" y2="765"/>
            <line clip-path="url(#clipPath2)" fill="none" x1="310" x2="310" y1="42" y2="44"/>
            <line clip-path="url(#clipPath2)" fill="none" x1="310" x2="310" y1="767" y2="765"/>
            <line clip-path="url(#clipPath2)" fill="none" x1="333" x2="333" y1="42" y2="44"/>
            <line clip-path="url(#clipPath2)" fill="none" x1="333" x2="333" y1="767" y2="765"/>
            <line clip-path="url(#clipPath2)" fill="none" x1="356" x2="356" y1="42" y2="44"/>
            <line clip-path="url(#clipPath2)" fill="none" x1="356" x2="356" y1="767" y2="765"/>
            <line clip-path="url(#clipPath2)" fill="none" x1="380" x2="380" y1="40" y2="44"/>
            <line clip-path="url(#clipPath2)" fill="none" x1="380" x2="380" y1="769" y2="765"/>
            <text x="373" font-size="13" y="36" clip-path="url(#clipPath2)" stroke="none" xml:space="preserve">15</text>
            <text x="373" font-size="13" y="783" clip-path="url(#clipPath2)" stroke="none" xml:space="preserve">15</text>
            <line clip-path="url(#clipPath2)" fill="none" x1="403" x2="403" y1="42" y2="44"/>
            <line clip-path="url(#clipPath2)" fill="none" x1="403" x2="403" y1="767" y2="765"/>
            <line clip-path="url(#clipPath2)" fill="none" x1="426" x2="426" y1="42" y2="44"/>
            <line clip-path="url(#clipPath2)" fill="none" x1="426" x2="426" y1="767" y2="765"/>
            <line clip-path="url(#clipPath2)" fill="none" x1="449" x2="449" y1="42" y2="44"/>
            <line clip-path="url(#clipPath2)" fill="none" x1="449" x2="449" y1="767" y2="765"/>
            <line clip-path="url(#clipPath2)" fill="none" x1="472" x2="472" y1="42" y2="44"/>
            <line clip-path="url(#clipPath2)" fill="none" x1="472" x2="472" y1="767" y2="765"/>
            <line clip-path="url(#clipPath2)" fill="none" x1="496" x2="496" y1="40" y2="44"/>
            <line clip-path="url(#clipPath2)" fill="none" x1="496" x2="496" y1="769" y2="765"/>
            <text x="489" font-size="13" y="36" clip-path="url(#clipPath2)" stroke="none" xml:space="preserve">20</text>
            <text x="489" font-size="13" y="783" clip-path="url(#clipPath2)" stroke="none" xml:space="preserve">20</text>
            <line clip-path="url(#clipPath2)" fill="none" x1="519" x2="519" y1="42" y2="44"/>
            <line clip-path="url(#clipPath2)" fill="none" x1="519" x2="519" y1="767" y2="765"/>
            <line clip-path="url(#clipPath2)" fill="none" x1="542" x2="542" y1="42" y2="44"/>
            <line clip-path="url(#clipPath2)" fill="none" x1="542" x2="542" y1="767" y2="765"/>
            <line clip-path="url(#clipPath2)" fill="none" x1="565" x2="565" y1="42" y2="44"/>
            <line clip-path="url(#clipPath2)" fill="none" x1="565" x2="565" y1="767" y2="765"/>
            <line clip-path="url(#clipPath2)" fill="none" x1="588" x2="588" y1="42" y2="44"/>
            <line clip-path="url(#clipPath2)" fill="none" x1="588" x2="588" y1="767" y2="765"/>
            <line clip-path="url(#clipPath2)" fill="none" x1="612" x2="612" y1="40" y2="44"/>
            <line clip-path="url(#clipPath2)" fill="none" x1="612" x2="612" y1="769" y2="765"/>
            <text x="605" font-size="13" y="36" clip-path="url(#clipPath2)" stroke="none" xml:space="preserve">25</text>
            <text x="605" font-size="13" y="783" clip-path="url(#clipPath2)" stroke="none" xml:space="preserve">25</text>
            <line clip-path="url(#clipPath2)" fill="none" x1="635" x2="635" y1="42" y2="44"/>
            <line clip-path="url(#clipPath2)" fill="none" x1="635" x2="635" y1="767" y2="765"/>
            <line clip-path="url(#clipPath2)" fill="none" x1="658" x2="658" y1="42" y2="44"/>
            <line clip-path="url(#clipPath2)" fill="none" x1="658" x2="658" y1="767" y2="765"/>
            <line clip-path="url(#clipPath2)" fill="none" x1="681" x2="681" y1="42" y2="44"/>
            <line clip-path="url(#clipPath2)" fill="none" x1="681" x2="681" y1="767" y2="765"/>
            <line clip-path="url(#clipPath2)" fill="none" x1="704" x2="704" y1="42" y2="44"/>
            <line clip-path="url(#clipPath2)" fill="none" x1="704" x2="704" y1="767" y2="765"/>
            <line clip-path="url(#clipPath2)" fill="none" x1="728" x2="728" y1="40" y2="44"/>
            <line clip-path="url(#clipPath2)" fill="none" x1="728" x2="728" y1="769" y2="765"/>
            <text x="721" font-size="13" y="36" clip-path="url(#clipPath2)" stroke="none" xml:space="preserve">30</text>
            <text x="721" font-size="13" y="783" clip-path="url(#clipPath2)" stroke="none" xml:space="preserve">30</text>
            <line clip-path="url(#clipPath2)" fill="none" x1="751" x2="751" y1="42" y2="44"/>
            <line clip-path="url(#clipPath2)" fill="none" x1="751" x2="751" y1="767" y2="765"/>
            <line clip-path="url(#clipPath2)" fill="none" x1="774" x2="774" y1="42" y2="44"/>
            <line clip-path="url(#clipPath2)" fill="none" x1="774" x2="774" y1="767" y2="765"/>
            <line clip-path="url(#clipPath2)" fill="none" x1="797" x2="797" y1="42" y2="44"/>
            <line clip-path="url(#clipPath2)" fill="none" x1="797" x2="797" y1="767" y2="765"/>
            <line clip-path="url(#clipPath2)" fill="none" x1="821" x2="821" y1="42" y2="44"/>
            <line clip-path="url(#clipPath2)" fill="none" x1="821" x2="821" y1="767" y2="765"/>
            <line clip-path="url(#clipPath2)" fill="none" x1="844" x2="844" y1="40" y2="44"/>
            <line clip-path="url(#clipPath2)" fill="none" x1="844" x2="844" y1="769" y2="765"/>
            <text x="837" font-size="13" y="36" clip-path="url(#clipPath2)" stroke="none" xml:space="preserve">35</text>
            <text x="837" font-size="13" y="783" clip-path="url(#clipPath2)" stroke="none" xml:space="preserve">35</text>
            <line clip-path="url(#clipPath2)" fill="none" x1="867" x2="867" y1="42" y2="44"/>
            <line clip-path="url(#clipPath2)" fill="none" x1="867" x2="867" y1="767" y2="765"/>
            <line clip-path="url(#clipPath2)" fill="none" x1="890" x2="890" y1="42" y2="44"/>
            <line clip-path="url(#clipPath2)" fill="none" x1="890" x2="890" y1="767" y2="765"/>
            <line clip-path="url(#clipPath2)" fill="none" x1="913" x2="913" y1="42" y2="44"/>
            <line clip-path="url(#clipPath2)" fill="none" x1="913" x2="913" y1="767" y2="765"/>
            <line clip-path="url(#clipPath2)" fill="none" x1="937" x2="937" y1="42" y2="44"/>
            <line clip-path="url(#clipPath2)" fill="none" x1="937" x2="937" y1="767" y2="765"/>
            <line clip-path="url(#clipPath2)" fill="none" x1="960" x2="960" y1="40" y2="44"/>
            <line clip-path="url(#clipPath2)" fill="none" x1="960" x2="960" y1="769" y2="765"/>
            <text x="953" font-size="13" y="36" clip-path="url(#clipPath2)" stroke="none" xml:space="preserve">40</text>
            <text x="953" font-size="13" y="783" clip-path="url(#clipPath2)" stroke="none" xml:space="preserve">40</text>
            <line clip-path="url(#clipPath2)" fill="none" x1="983" x2="983" y1="42" y2="44"/>
            <line clip-path="url(#clipPath2)" fill="none" x1="983" x2="983" y1="767" y2="765"/>
            <line clip-path="url(#clipPath2)" fill="none" x1="1006" x2="1006" y1="42" y2="44"/>
            <line clip-path="url(#clipPath2)" fill="none" x1="1006" x2="1006" y1="767" y2="765"/>
            <line clip-path="url(#clipPath2)" fill="none" x1="1029" x2="1029" y1="42" y2="44"/>
            <line clip-path="url(#clipPath2)" fill="none" x1="1029" x2="1029" y1="767" y2="765"/>
            <line clip-path="url(#clipPath2)" fill="none" x1="1053" x2="1053" y1="42" y2="44"/>
            <line clip-path="url(#clipPath2)" fill="none" x1="1053" x2="1053" y1="767" y2="765"/>
            <line clip-path="url(#clipPath2)" fill="none" x1="1076" x2="1076" y1="40" y2="44"/>
            <line clip-path="url(#clipPath2)" fill="none" x1="1076" x2="1076" y1="769" y2="765"/>
            <text x="1069" font-size="13" y="36" clip-path="url(#clipPath2)" stroke="none" xml:space="preserve">45</text>
            <text x="1069" font-size="13" y="783" clip-path="url(#clipPath2)" stroke="none" xml:space="preserve">45</text>
            <line clip-path="url(#clipPath2)" fill="none" x1="1099" x2="1099" y1="42" y2="44"/>
            <line clip-path="url(#clipPath2)" fill="none" x1="1099" x2="1099" y1="767" y2="765"/>
            <line clip-path="url(#clipPath2)" fill="none" x1="1122" x2="1122" y1="42" y2="44"/>
            <line clip-path="url(#clipPath2)" fill="none" x1="1122" x2="1122" y1="767" y2="765"/>
            <line clip-path="url(#clipPath2)" fill="none" x1="1145" x2="1145" y1="42" y2="44"/>
            <line clip-path="url(#clipPath2)" fill="none" x1="1145" x2="1145" y1="767" y2="765"/>
            <line clip-path="url(#clipPath2)" fill="none" x1="1169" x2="1169" y1="42" y2="44"/>
            <line clip-path="url(#clipPath2)" fill="none" x1="1169" x2="1169" y1="767" y2="765"/>
            <line clip-path="url(#clipPath2)" fill="none" x1="1192" x2="1192" y1="40" y2="44"/>
            <line clip-path="url(#clipPath2)" fill="none" x1="1192" x2="1192" y1="769" y2="765"/>
            <text x="1185" font-size="13" y="36" clip-path="url(#clipPath2)" stroke="none" xml:space="preserve">50</text>
            <text x="1185" font-size="13" y="783" clip-path="url(#clipPath2)" stroke="none" xml:space="preserve">50</text>
            <line clip-path="url(#clipPath2)" fill="none" x1="1215" x2="1215" y1="42" y2="44"/>
            <line clip-path="url(#clipPath2)" fill="none" x1="1215" x2="1215" y1="767" y2="765"/>
            <line clip-path="url(#clipPath2)" fill="none" x1="1238" x2="1238" y1="42" y2="44"/>
            <line clip-path="url(#clipPath2)" fill="none" x1="1238" x2="1238" y1="767" y2="765"/>
            <line clip-path="url(#clipPath2)" fill="none" x1="1261" x2="1261" y1="42" y2="44"/>
            <line clip-path="url(#clipPath2)" fill="none" x1="1261" x2="1261" y1="767" y2="765"/>
            <line clip-path="url(#clipPath2)" fill="none" x1="1285" x2="1285" y1="42" y2="44"/>
            <line clip-path="url(#clipPath2)" fill="none" x1="1285" x2="1285" y1="767" y2="765"/>
            <line clip-path="url(#clipPath2)" fill="none" x1="1308" x2="1308" y1="40" y2="44"/>
            <line clip-path="url(#clipPath2)" fill="none" x1="1308" x2="1308" y1="769" y2="765"/>
            <text x="1301" font-size="13" y="36" clip-path="url(#clipPath2)" stroke="none" xml:space="preserve">55</text>
            <text x="1301" font-size="13" y="783" clip-path="url(#clipPath2)" stroke="none" xml:space="preserve">55</text>
            <line clip-path="url(#clipPath2)" fill="none" x1="1331" x2="1331" y1="42" y2="44"/>
            <line clip-path="url(#clipPath2)" fill="none" x1="1331" x2="1331" y1="767" y2="765"/>
            <line clip-path="url(#clipPath2)" fill="none" x1="1354" x2="1354" y1="42" y2="44"/>
            <line clip-path="url(#clipPath2)" fill="none" x1="1354" x2="1354" y1="767" y2="765"/>
            <line clip-path="url(#clipPath2)" fill="none" x1="1377" x2="1377" y1="42" y2="44"/>
            <line clip-path="url(#clipPath2)" fill="none" x1="1377" x2="1377" y1="767" y2="765"/>
            <line clip-path="url(#clipPath2)" fill="none" x1="1401" x2="1401" y1="42" y2="44"/>
            <line clip-path="url(#clipPath2)" fill="none" x1="1401" x2="1401" y1="767" y2="765"/>
            <line clip-path="url(#clipPath2)" fill="none" x1="1424" x2="1424" y1="40" y2="44"/>
            <line clip-path="url(#clipPath2)" fill="none" x1="1424" x2="1424" y1="769" y2="765"/>
            <text x="1417" font-size="13" y="36" clip-path="url(#clipPath2)" stroke="none" xml:space="preserve">60</text>
            <text x="1417" font-size="13" y="783" clip-path="url(#clipPath2)" stroke="none" xml:space="preserve">60</text>
            <line clip-path="url(#clipPath2)" fill="none" x1="1447" x2="1447" y1="42" y2="44"/>
            <line clip-path="url(#clipPath2)" fill="none" x1="1447" x2="1447" y1="767" y2="765"/>
            <line clip-path="url(#clipPath2)" fill="none" x1="1470" x2="1470" y1="42" y2="44"/>
            <line clip-path="url(#clipPath2)" fill="none" x1="1470" x2="1470" y1="767" y2="765"/>
            <line clip-path="url(#clipPath2)" fill="none" x1="1493" x2="1493" y1="42" y2="44"/>
            <line clip-path="url(#clipPath2)" fill="none" x1="1493" x2="1493" y1="767" y2="765"/>
            <line clip-path="url(#clipPath2)" fill="none" x1="1517" x2="1517" y1="42" y2="44"/>
            <line clip-path="url(#clipPath2)" fill="none" x1="1517" x2="1517" y1="767" y2="765"/>
            <line clip-path="url(#clipPath2)" fill="none" x1="30" x2="30" y1="46" y2="763"/>
            <line clip-path="url(#clipPath2)" fill="none" x1="1540" x2="1540" y1="46" y2="763"/>
            <line clip-path="url(#clipPath2)" fill="none" x1="26" x2="30" y1="763" y2="763"/>
            <line clip-path="url(#clipPath2)" fill="none" x1="1544" x2="1540" y1="763" y2="763"/>
            <text x="16" font-size="13" y="768" clip-path="url(#clipPath2)" stroke="none" xml:space="preserve">0</text>
            <text x="1547" font-size="13" y="768" clip-path="url(#clipPath2)" stroke="none" xml:space="preserve">0</text>
            <line clip-path="url(#clipPath2)" fill="none" x1="28" x2="30" y1="751" y2="751"/>
            <line clip-path="url(#clipPath2)" fill="none" x1="1542" x2="1540" y1="751" y2="751"/>
            <line clip-path="url(#clipPath2)" fill="none" x1="28" x2="30" y1="740" y2="740"/>
            <line clip-path="url(#clipPath2)" fill="none" x1="1542" x2="1540" y1="740" y2="740"/>
            <line clip-path="url(#clipPath2)" fill="none" x1="28" x2="30" y1="728" y2="728"/>
            <line clip-path="url(#clipPath2)" fill="none" x1="1542" x2="1540" y1="728" y2="728"/>
            <line clip-path="url(#clipPath2)" fill="none" x1="28" x2="30" y1="717" y2="717"/>
            <line clip-path="url(#clipPath2)" fill="none" x1="1542" x2="1540" y1="717" y2="717"/>
            <line clip-path="url(#clipPath2)" fill="none" x1="26" x2="30" y1="705" y2="705"/>
            <line clip-path="url(#clipPath2)" fill="none" x1="1544" x2="1540" y1="705" y2="705"/>
            <text x="4" font-size="13" y="710" clip-path="url(#clipPath2)" stroke="none" xml:space="preserve">0.1</text>
            <text x="1547" font-size="13" y="710" clip-path="url(#clipPath2)" stroke="none" xml:space="preserve">0.1</text>
            <line clip-path="url(#clipPath2)" fill="none" x1="28" x2="30" y1="694" y2="694"/>
            <line clip-path="url(#clipPath2)" fill="none" x1="1542" x2="1540" y1="694" y2="694"/>
            <line clip-path="url(#clipPath2)" fill="none" x1="28" x2="30" y1="682" y2="682"/>
            <line clip-path="url(#clipPath2)" fill="none" x1="1542" x2="1540" y1="682" y2="682"/>
            <line clip-path="url(#clipPath2)" fill="none" x1="28" x2="30" y1="671" y2="671"/>
            <line clip-path="url(#clipPath2)" fill="none" x1="1542" x2="1540" y1="671" y2="671"/>
            <line clip-path="url(#clipPath2)" fill="none" x1="28" x2="30" y1="659" y2="659"/>
            <line clip-path="url(#clipPath2)" fill="none" x1="1542" x2="1540" y1="659" y2="659"/>
            <line clip-path="url(#clipPath2)" fill="none" x1="26" x2="30" y1="648" y2="648"/>
            <line clip-path="url(#clipPath2)" fill="none" x1="1544" x2="1540" y1="648" y2="648"/>
            <text x="4" font-size="13" y="653" clip-path="url(#clipPath2)" stroke="none" xml:space="preserve">0.2</text>
            <text x="1547" font-size="13" y="653" clip-path="url(#clipPath2)" stroke="none" xml:space="preserve">0.2</text>
            <line clip-path="url(#clipPath2)" fill="none" x1="28" x2="30" y1="636" y2="636"/>
            <line clip-path="url(#clipPath2)" fill="none" x1="1542" x2="1540" y1="636" y2="636"/>
            <line clip-path="url(#clipPath2)" fill="none" x1="28" x2="30" y1="625" y2="625"/>
            <line clip-path="url(#clipPath2)" fill="none" x1="1542" x2="1540" y1="625" y2="625"/>
            <line clip-path="url(#clipPath2)" fill="none" x1="28" x2="30" y1="613" y2="613"/>
            <line clip-path="url(#clipPath2)" fill="none" x1="1542" x2="1540" y1="613" y2="613"/>
            <line clip-path="url(#clipPath2)" fill="none" x1="28" x2="30" y1="602" y2="602"/>
            <line clip-path="url(#clipPath2)" fill="none" x1="1542" x2="1540" y1="602" y2="602"/>
            <line clip-path="url(#clipPath2)" fill="none" x1="26" x2="30" y1="590" y2="590"/>
            <line clip-path="url(#clipPath2)" fill="none" x1="1544" x2="1540" y1="590" y2="590"/>
            <text x="4" font-size="13" y="595" clip-path="url(#clipPath2)" stroke="none" xml:space="preserve">0.3</text>
            <text x="1547" font-size="13" y="595" clip-path="url(#clipPath2)" stroke="none" xml:space="preserve">0.3</text>
            <line clip-path="url(#clipPath2)" fill="none" x1="28" x2="30" y1="579" y2="579"/>
            <line clip-path="url(#clipPath2)" fill="none" x1="1542" x2="1540" y1="579" y2="579"/>
            <line clip-path="url(#clipPath2)" fill="none" x1="28" x2="30" y1="567" y2="567"/>
            <line clip-path="url(#clipPath2)" fill="none" x1="1542" x2="1540" y1="567" y2="567"/>
            <line clip-path="url(#clipPath2)" fill="none" x1="28" x2="30" y1="556" y2="556"/>
            <line clip-path="url(#clipPath2)" fill="none" x1="1542" x2="1540" y1="556" y2="556"/>
            <line clip-path="url(#clipPath2)" fill="none" x1="28" x2="30" y1="545" y2="545"/>
            <line clip-path="url(#clipPath2)" fill="none" x1="1542" x2="1540" y1="545" y2="545"/>
            <line clip-path="url(#clipPath2)" fill="none" x1="26" x2="30" y1="533" y2="533"/>
            <line clip-path="url(#clipPath2)" fill="none" x1="1544" x2="1540" y1="533" y2="533"/>
            <text x="4" font-size="13" y="538" clip-path="url(#clipPath2)" stroke="none" xml:space="preserve">0.4</text>
            <text x="1547" font-size="13" y="538" clip-path="url(#clipPath2)" stroke="none" xml:space="preserve">0.4</text>
            <line clip-path="url(#clipPath2)" fill="none" x1="28" x2="30" y1="522" y2="522"/>
            <line clip-path="url(#clipPath2)" fill="none" x1="1542" x2="1540" y1="522" y2="522"/>
            <line clip-path="url(#clipPath2)" fill="none" x1="28" x2="30" y1="510" y2="510"/>
            <line clip-path="url(#clipPath2)" fill="none" x1="1542" x2="1540" y1="510" y2="510"/>
            <line clip-path="url(#clipPath2)" fill="none" x1="28" x2="30" y1="499" y2="499"/>
            <line clip-path="url(#clipPath2)" fill="none" x1="1542" x2="1540" y1="499" y2="499"/>
            <line clip-path="url(#clipPath2)" fill="none" x1="28" x2="30" y1="487" y2="487"/>
            <line clip-path="url(#clipPath2)" fill="none" x1="1542" x2="1540" y1="487" y2="487"/>
            <line clip-path="url(#clipPath2)" fill="none" x1="26" x2="30" y1="476" y2="476"/>
            <line clip-path="url(#clipPath2)" fill="none" x1="1544" x2="1540" y1="476" y2="476"/>
            <text x="4" font-size="13" y="481" clip-path="url(#clipPath2)" stroke="none" xml:space="preserve">0.5</text>
            <text x="1547" font-size="13" y="481" clip-path="url(#clipPath2)" stroke="none" xml:space="preserve">0.5</text>
            <line clip-path="url(#clipPath2)" fill="none" x1="28" x2="30" y1="464" y2="464"/>
            <line clip-path="url(#clipPath2)" fill="none" x1="1542" x2="1540" y1="464" y2="464"/>
            <line clip-path="url(#clipPath2)" fill="none" x1="28" x2="30" y1="453" y2="453"/>
            <line clip-path="url(#clipPath2)" fill="none" x1="1542" x2="1540" y1="453" y2="453"/>
            <line clip-path="url(#clipPath2)" fill="none" x1="28" x2="30" y1="441" y2="441"/>
            <line clip-path="url(#clipPath2)" fill="none" x1="1542" x2="1540" y1="441" y2="441"/>
            <line clip-path="url(#clipPath2)" fill="none" x1="28" x2="30" y1="430" y2="430"/>
            <line clip-path="url(#clipPath2)" fill="none" x1="1542" x2="1540" y1="430" y2="430"/>
            <line clip-path="url(#clipPath2)" fill="none" x1="26" x2="30" y1="418" y2="418"/>
            <line clip-path="url(#clipPath2)" fill="none" x1="1544" x2="1540" y1="418" y2="418"/>
            <text x="4" font-size="13" y="423" clip-path="url(#clipPath2)" stroke="none" xml:space="preserve">0.6</text>
            <text x="1547" font-size="13" y="423" clip-path="url(#clipPath2)" stroke="none" xml:space="preserve">0.6</text>
            <line clip-path="url(#clipPath2)" fill="none" x1="28" x2="30" y1="407" y2="407"/>
            <line clip-path="url(#clipPath2)" fill="none" x1="1542" x2="1540" y1="407" y2="407"/>
            <line clip-path="url(#clipPath2)" fill="none" x1="28" x2="30" y1="395" y2="395"/>
            <line clip-path="url(#clipPath2)" fill="none" x1="1542" x2="1540" y1="395" y2="395"/>
            <line clip-path="url(#clipPath2)" fill="none" x1="28" x2="30" y1="384" y2="384"/>
            <line clip-path="url(#clipPath2)" fill="none" x1="1542" x2="1540" y1="384" y2="384"/>
            <line clip-path="url(#clipPath2)" fill="none" x1="28" x2="30" y1="372" y2="372"/>
            <line clip-path="url(#clipPath2)" fill="none" x1="1542" x2="1540" y1="372" y2="372"/>
            <line clip-path="url(#clipPath2)" fill="none" x1="26" x2="30" y1="361" y2="361"/>
            <line clip-path="url(#clipPath2)" fill="none" x1="1544" x2="1540" y1="361" y2="361"/>
            <text x="4" font-size="13" y="366" clip-path="url(#clipPath2)" stroke="none" xml:space="preserve">0.7</text>
            <text x="1547" font-size="13" y="366" clip-path="url(#clipPath2)" stroke="none" xml:space="preserve">0.7</text>
            <line clip-path="url(#clipPath2)" fill="none" x1="28" x2="30" y1="350" y2="350"/>
            <line clip-path="url(#clipPath2)" fill="none" x1="1542" x2="1540" y1="350" y2="350"/>
            <line clip-path="url(#clipPath2)" fill="none" x1="28" x2="30" y1="338" y2="338"/>
            <line clip-path="url(#clipPath2)" fill="none" x1="1542" x2="1540" y1="338" y2="338"/>
            <line clip-path="url(#clipPath2)" fill="none" x1="28" x2="30" y1="327" y2="327"/>
            <line clip-path="url(#clipPath2)" fill="none" x1="1542" x2="1540" y1="327" y2="327"/>
            <line clip-path="url(#clipPath2)" fill="none" x1="28" x2="30" y1="315" y2="315"/>
            <line clip-path="url(#clipPath2)" fill="none" x1="1542" x2="1540" y1="315" y2="315"/>
            <line clip-path="url(#clipPath2)" fill="none" x1="26" x2="30" y1="304" y2="304"/>
            <line clip-path="url(#clipPath2)" fill="none" x1="1544" x2="1540" y1="304" y2="304"/>
            <text x="4" font-size="13" y="309" clip-path="url(#clipPath2)" stroke="none" xml:space="preserve">0.8</text>
            <text x="1547" font-size="13" y="309" clip-path="url(#clipPath2)" stroke="none" xml:space="preserve">0.8</text>
            <line clip-path="url(#clipPath2)" fill="none" x1="28" x2="30" y1="292" y2="292"/>
            <line clip-path="url(#clipPath2)" fill="none" x1="1542" x2="1540" y1="292" y2="292"/>
            <line clip-path="url(#clipPath2)" fill="none" x1="28" x2="30" y1="281" y2="281"/>
            <line clip-path="url(#clipPath2)" fill="none" x1="1542" x2="1540" y1="281" y2="281"/>
            <line clip-path="url(#clipPath2)" fill="none" x1="28" x2="30" y1="269" y2="269"/>
            <line clip-path="url(#clipPath2)" fill="none" x1="1542" x2="1540" y1="269" y2="269"/>
            <line clip-path="url(#clipPath2)" fill="none" x1="28" x2="30" y1="258" y2="258"/>
            <line clip-path="url(#clipPath2)" fill="none" x1="1542" x2="1540" y1="258" y2="258"/>
            <line clip-path="url(#clipPath2)" fill="none" x1="26" x2="30" y1="246" y2="246"/>
            <line clip-path="url(#clipPath2)" fill="none" x1="1544" x2="1540" y1="246" y2="246"/>
            <text x="4" font-size="13" y="251" clip-path="url(#clipPath2)" stroke="none" xml:space="preserve">0.9</text>
            <text x="1547" font-size="13" y="251" clip-path="url(#clipPath2)" stroke="none" xml:space="preserve">0.9</text>
            <line clip-path="url(#clipPath2)" fill="none" x1="28" x2="30" y1="235" y2="235"/>
            <line clip-path="url(#clipPath2)" fill="none" x1="1542" x2="1540" y1="235" y2="235"/>
            <line clip-path="url(#clipPath2)" fill="none" x1="28" x2="30" y1="223" y2="223"/>
            <line clip-path="url(#clipPath2)" fill="none" x1="1542" x2="1540" y1="223" y2="223"/>
            <line clip-path="url(#clipPath2)" fill="none" x1="28" x2="30" y1="212" y2="212"/>
            <line clip-path="url(#clipPath2)" fill="none" x1="1542" x2="1540" y1="212" y2="212"/>
            <line clip-path="url(#clipPath2)" fill="none" x1="28" x2="30" y1="200" y2="200"/>
            <line clip-path="url(#clipPath2)" fill="none" x1="1542" x2="1540" y1="200" y2="200"/>
            <line clip-path="url(#clipPath2)" fill="none" x1="26" x2="30" y1="189" y2="189"/>
            <line clip-path="url(#clipPath2)" fill="none" x1="1544" x2="1540" y1="189" y2="189"/>
            <text x="16" font-size="13" y="194" clip-path="url(#clipPath2)" stroke="none" xml:space="preserve">1</text>
            <text x="1547" font-size="13" y="194" clip-path="url(#clipPath2)" stroke="none" xml:space="preserve">1</text>
            <line clip-path="url(#clipPath2)" fill="none" x1="28" x2="30" y1="177" y2="177"/>
            <line clip-path="url(#clipPath2)" fill="none" x1="1542" x2="1540" y1="177" y2="177"/>
            <line clip-path="url(#clipPath2)" fill="none" x1="28" x2="30" y1="166" y2="166"/>
            <line clip-path="url(#clipPath2)" fill="none" x1="1542" x2="1540" y1="166" y2="166"/>
            <line clip-path="url(#clipPath2)" fill="none" x1="28" x2="30" y1="154" y2="154"/>
            <line clip-path="url(#clipPath2)" fill="none" x1="1542" x2="1540" y1="154" y2="154"/>
            <line clip-path="url(#clipPath2)" fill="none" x1="28" x2="30" y1="143" y2="143"/>
            <line clip-path="url(#clipPath2)" fill="none" x1="1542" x2="1540" y1="143" y2="143"/>
            <line clip-path="url(#clipPath2)" fill="none" x1="26" x2="30" y1="132" y2="132"/>
            <line clip-path="url(#clipPath2)" fill="none" x1="1544" x2="1540" y1="132" y2="132"/>
            <text x="4" font-size="13" y="137" clip-path="url(#clipPath2)" stroke="none" xml:space="preserve">1.1</text>
            <text x="1547" font-size="13" y="137" clip-path="url(#clipPath2)" stroke="none" xml:space="preserve">1.1</text>
            <line clip-path="url(#clipPath2)" fill="none" x1="28" x2="30" y1="120" y2="120"/>
            <line clip-path="url(#clipPath2)" fill="none" x1="1542" x2="1540" y1="120" y2="120"/>
            <line clip-path="url(#clipPath2)" fill="none" x1="28" x2="30" y1="109" y2="109"/>
            <line clip-path="url(#clipPath2)" fill="none" x1="1542" x2="1540" y1="109" y2="109"/>
            <line clip-path="url(#clipPath2)" fill="none" x1="28" x2="30" y1="97" y2="97"/>
            <line clip-path="url(#clipPath2)" fill="none" x1="1542" x2="1540" y1="97" y2="97"/>
            <line clip-path="url(#clipPath2)" fill="none" x1="28" x2="30" y1="86" y2="86"/>
            <line clip-path="url(#clipPath2)" fill="none" x1="1542" x2="1540" y1="86" y2="86"/>
            <line clip-path="url(#clipPath2)" fill="none" x1="26" x2="30" y1="74" y2="74"/>
            <line clip-path="url(#clipPath2)" fill="none" x1="1544" x2="1540" y1="74" y2="74"/>
            <text x="4" font-size="13" y="79" clip-path="url(#clipPath2)" stroke="none" xml:space="preserve">1.2</text>
            <text x="1547" font-size="13" y="79" clip-path="url(#clipPath2)" stroke="none" xml:space="preserve">1.2</text>
            <line clip-path="url(#clipPath2)" fill="none" x1="28" x2="30" y1="63" y2="63"/>
            <line clip-path="url(#clipPath2)" fill="none" x1="1542" x2="1540" y1="63" y2="63"/>
            <line clip-path="url(#clipPath2)" fill="none" x1="28" x2="30" y1="51" y2="51"/>
            <line clip-path="url(#clipPath2)" fill="none" x1="1542" x2="1540" y1="51" y2="51"/>
        </g>
    </g>
</svg>
