<?xml version="1.0" encoding="utf-8" standalone="no"?>
<!DOCTYPE svg PUBLIC "-//W3C//DTD SVG 1.1//EN"
  "http://www.w3.org/Graphics/SVG/1.1/DTD/svg11.dtd">
<svg xmlns:xlink="http://www.w3.org/1999/xlink" width="934.56pt" height="366.48pt" viewBox="0 0 934.56 366.48" xmlns="http://www.w3.org/2000/svg" version="1.1">
 <metadata>
  <rdf:RDF xmlns:dc="http://purl.org/dc/elements/1.1/" xmlns:cc="http://creativecommons.org/ns#" xmlns:rdf="http://www.w3.org/1999/02/22-rdf-syntax-ns#">
   <cc:Work>
    <dc:type rdf:resource="http://purl.org/dc/dcmitype/StillImage"/>
    <dc:date>2023-05-27T20:29:23.144344</dc:date>
    <dc:format>image/svg+xml</dc:format>
    <dc:creator>
     <cc:Agent>
      <dc:title>Matplotlib v3.7.1, https://matplotlib.org/</dc:title>
     </cc:Agent>
    </dc:creator>
   </cc:Work>
  </rdf:RDF>
 </metadata>
 <defs>
  <style type="text/css">*{stroke-linejoin: round; stroke-linecap: butt}</style>
 </defs>
 <g id="figure_1">
  <g id="patch_1">
   <path d="M 0 366.48 
L 934.56 366.48 
L 934.56 0 
L 0 0 
z
" style="fill: #ffffff"/>
  </g>
  <g id="axes_1">
   <g id="patch_2">
    <path d="M 49.060344 336.915583 
L 912.65625 336.915583 
L 912.65625 28.504 
L 49.060344 28.504 
z
" style="fill: #ffffff"/>
   </g>
   <g id="matplotlib.axis_1">
    <g id="xtick_1">
     <g id="line2d_1">
      <path d="M 88.314703 336.915583 
L 88.314703 28.504 
" clip-path="url(#pf152d55a47)" style="fill: none; stroke: #b0b0b0; stroke-width: 0.8; stroke-linecap: square"/>
     </g>
     <g id="line2d_2">
      <defs>
       <path id="m64e85c742a" d="M 0 0 
L 0 3.5 
" style="stroke: #000000; stroke-width: 0.8"/>
      </defs>
      <g>
       <use xlink:href="#m64e85c742a" x="88.314703" y="336.915583" style="stroke: #000000; stroke-width: 0.8"/>
      </g>
     </g>
     <g id="text_1">
      <!-- 0 -->
      <g transform="translate(85.133453 351.514021) scale(0.1 -0.1)">
       <defs>
        <path id="DejaVuSans-30" d="M 2034 4250 
Q 1547 4250 1301 3770 
Q 1056 3291 1056 2328 
Q 1056 1369 1301 889 
Q 1547 409 2034 409 
Q 2525 409 2770 889 
Q 3016 1369 3016 2328 
Q 3016 3291 2770 3770 
Q 2525 4250 2034 4250 
z
M 2034 4750 
Q 2819 4750 3233 4129 
Q 3647 3509 3647 2328 
Q 3647 1150 3233 529 
Q 2819 -91 2034 -91 
Q 1250 -91 836 529 
Q 422 1150 422 2328 
Q 422 3509 836 4129 
Q 1250 4750 2034 4750 
z
" transform="scale(0.015625)"/>
       </defs>
       <use xlink:href="#DejaVuSans-30"/>
      </g>
     </g>
    </g>
    <g id="xtick_2">
     <g id="line2d_3">
      <path d="M 186.866792 336.915583 
L 186.866792 28.504 
" clip-path="url(#pf152d55a47)" style="fill: none; stroke: #b0b0b0; stroke-width: 0.8; stroke-linecap: square"/>
     </g>
     <g id="line2d_4">
      <g>
       <use xlink:href="#m64e85c742a" x="186.866792" y="336.915583" style="stroke: #000000; stroke-width: 0.8"/>
      </g>
     </g>
     <g id="text_2">
      <!-- 25 -->
      <g transform="translate(180.504292 351.514021) scale(0.1 -0.1)">
       <defs>
        <path id="DejaVuSans-32" d="M 1228 531 
L 3431 531 
L 3431 0 
L 469 0 
L 469 531 
Q 828 903 1448 1529 
Q 2069 2156 2228 2338 
Q 2531 2678 2651 2914 
Q 2772 3150 2772 3378 
Q 2772 3750 2511 3984 
Q 2250 4219 1831 4219 
Q 1534 4219 1204 4116 
Q 875 4013 500 3803 
L 500 4441 
Q 881 4594 1212 4672 
Q 1544 4750 1819 4750 
Q 2544 4750 2975 4387 
Q 3406 4025 3406 3419 
Q 3406 3131 3298 2873 
Q 3191 2616 2906 2266 
Q 2828 2175 2409 1742 
Q 1991 1309 1228 531 
z
" transform="scale(0.015625)"/>
        <path id="DejaVuSans-35" d="M 691 4666 
L 3169 4666 
L 3169 4134 
L 1269 4134 
L 1269 2991 
Q 1406 3038 1543 3061 
Q 1681 3084 1819 3084 
Q 2600 3084 3056 2656 
Q 3513 2228 3513 1497 
Q 3513 744 3044 326 
Q 2575 -91 1722 -91 
Q 1428 -91 1123 -41 
Q 819 9 494 109 
L 494 744 
Q 775 591 1075 516 
Q 1375 441 1709 441 
Q 2250 441 2565 725 
Q 2881 1009 2881 1497 
Q 2881 1984 2565 2268 
Q 2250 2553 1709 2553 
Q 1456 2553 1204 2497 
Q 953 2441 691 2322 
L 691 4666 
z
" transform="scale(0.015625)"/>
       </defs>
       <use xlink:href="#DejaVuSans-32"/>
       <use xlink:href="#DejaVuSans-35" x="63.623047"/>
      </g>
     </g>
    </g>
    <g id="xtick_3">
     <g id="line2d_5">
      <path d="M 285.418881 336.915583 
L 285.418881 28.504 
" clip-path="url(#pf152d55a47)" style="fill: none; stroke: #b0b0b0; stroke-width: 0.8; stroke-linecap: square"/>
     </g>
     <g id="line2d_6">
      <g>
       <use xlink:href="#m64e85c742a" x="285.418881" y="336.915583" style="stroke: #000000; stroke-width: 0.8"/>
      </g>
     </g>
     <g id="text_3">
      <!-- 50 -->
      <g transform="translate(279.056381 351.514021) scale(0.1 -0.1)">
       <use xlink:href="#DejaVuSans-35"/>
       <use xlink:href="#DejaVuSans-30" x="63.623047"/>
      </g>
     </g>
    </g>
    <g id="xtick_4">
     <g id="line2d_7">
      <path d="M 383.970969 336.915583 
L 383.970969 28.504 
" clip-path="url(#pf152d55a47)" style="fill: none; stroke: #b0b0b0; stroke-width: 0.8; stroke-linecap: square"/>
     </g>
     <g id="line2d_8">
      <g>
       <use xlink:href="#m64e85c742a" x="383.970969" y="336.915583" style="stroke: #000000; stroke-width: 0.8"/>
      </g>
     </g>
     <g id="text_4">
      <!-- 75 -->
      <g transform="translate(377.608469 351.514021) scale(0.1 -0.1)">
       <defs>
        <path id="DejaVuSans-37" d="M 525 4666 
L 3525 4666 
L 3525 4397 
L 1831 0 
L 1172 0 
L 2766 4134 
L 525 4134 
L 525 4666 
z
" transform="scale(0.015625)"/>
       </defs>
       <use xlink:href="#DejaVuSans-37"/>
       <use xlink:href="#DejaVuSans-35" x="63.623047"/>
      </g>
     </g>
    </g>
    <g id="xtick_5">
     <g id="line2d_9">
      <path d="M 482.523058 336.915583 
L 482.523058 28.504 
" clip-path="url(#pf152d55a47)" style="fill: none; stroke: #b0b0b0; stroke-width: 0.8; stroke-linecap: square"/>
     </g>
     <g id="line2d_10">
      <g>
       <use xlink:href="#m64e85c742a" x="482.523058" y="336.915583" style="stroke: #000000; stroke-width: 0.8"/>
      </g>
     </g>
     <g id="text_5">
      <!-- 100 -->
      <g transform="translate(472.979308 351.514021) scale(0.1 -0.1)">
       <defs>
        <path id="DejaVuSans-31" d="M 794 531 
L 1825 531 
L 1825 4091 
L 703 3866 
L 703 4441 
L 1819 4666 
L 2450 4666 
L 2450 531 
L 3481 531 
L 3481 0 
L 794 0 
L 794 531 
z
" transform="scale(0.015625)"/>
       </defs>
       <use xlink:href="#DejaVuSans-31"/>
       <use xlink:href="#DejaVuSans-30" x="63.623047"/>
       <use xlink:href="#DejaVuSans-30" x="127.246094"/>
      </g>
     </g>
    </g>
    <g id="xtick_6">
     <g id="line2d_11">
      <path d="M 581.075147 336.915583 
L 581.075147 28.504 
" clip-path="url(#pf152d55a47)" style="fill: none; stroke: #b0b0b0; stroke-width: 0.8; stroke-linecap: square"/>
     </g>
     <g id="line2d_12">
      <g>
       <use xlink:href="#m64e85c742a" x="581.075147" y="336.915583" style="stroke: #000000; stroke-width: 0.8"/>
      </g>
     </g>
     <g id="text_6">
      <!-- 125 -->
      <g transform="translate(571.531397 351.514021) scale(0.1 -0.1)">
       <use xlink:href="#DejaVuSans-31"/>
       <use xlink:href="#DejaVuSans-32" x="63.623047"/>
       <use xlink:href="#DejaVuSans-35" x="127.246094"/>
      </g>
     </g>
    </g>
    <g id="xtick_7">
     <g id="line2d_13">
      <path d="M 679.627236 336.915583 
L 679.627236 28.504 
" clip-path="url(#pf152d55a47)" style="fill: none; stroke: #b0b0b0; stroke-width: 0.8; stroke-linecap: square"/>
     </g>
     <g id="line2d_14">
      <g>
       <use xlink:href="#m64e85c742a" x="679.627236" y="336.915583" style="stroke: #000000; stroke-width: 0.8"/>
      </g>
     </g>
     <g id="text_7">
      <!-- 150 -->
      <g transform="translate(670.083486 351.514021) scale(0.1 -0.1)">
       <use xlink:href="#DejaVuSans-31"/>
       <use xlink:href="#DejaVuSans-35" x="63.623047"/>
       <use xlink:href="#DejaVuSans-30" x="127.246094"/>
      </g>
     </g>
    </g>
    <g id="xtick_8">
     <g id="line2d_15">
      <path d="M 778.179324 336.915583 
L 778.179324 28.504 
" clip-path="url(#pf152d55a47)" style="fill: none; stroke: #b0b0b0; stroke-width: 0.8; stroke-linecap: square"/>
     </g>
     <g id="line2d_16">
      <g>
       <use xlink:href="#m64e85c742a" x="778.179324" y="336.915583" style="stroke: #000000; stroke-width: 0.8"/>
      </g>
     </g>
     <g id="text_8">
      <!-- 175 -->
      <g transform="translate(768.635574 351.514021) scale(0.1 -0.1)">
       <use xlink:href="#DejaVuSans-31"/>
       <use xlink:href="#DejaVuSans-37" x="63.623047"/>
       <use xlink:href="#DejaVuSans-35" x="127.246094"/>
      </g>
     </g>
    </g>
    <g id="xtick_9">
     <g id="line2d_17">
      <path d="M 876.731413 336.915583 
L 876.731413 28.504 
" clip-path="url(#pf152d55a47)" style="fill: none; stroke: #b0b0b0; stroke-width: 0.8; stroke-linecap: square"/>
     </g>
     <g id="line2d_18">
      <g>
       <use xlink:href="#m64e85c742a" x="876.731413" y="336.915583" style="stroke: #000000; stroke-width: 0.8"/>
      </g>
     </g>
     <g id="text_9">
      <!-- 200 -->
      <g transform="translate(867.187663 351.514021) scale(0.1 -0.1)">
       <use xlink:href="#DejaVuSans-32"/>
       <use xlink:href="#DejaVuSans-30" x="63.623047"/>
       <use xlink:href="#DejaVuSans-30" x="127.246094"/>
      </g>
     </g>
    </g>
   </g>
   <g id="matplotlib.axis_2">
    <g id="ytick_1">
     <g id="line2d_19">
      <path d="M 49.060344 322.896875 
L 912.65625 322.896875 
" clip-path="url(#pf152d55a47)" style="fill: none; stroke: #b0b0b0; stroke-width: 0.8; stroke-linecap: square"/>
     </g>
     <g id="line2d_20">
      <defs>
       <path id="md64ad9d4a6" d="M 0 0 
L -3.5 0 
" style="stroke: #000000; stroke-width: 0.8"/>
      </defs>
      <g>
       <use xlink:href="#md64ad9d4a6" x="49.060344" y="322.896875" style="stroke: #000000; stroke-width: 0.8"/>
      </g>
     </g>
     <g id="text_10">
      <!-- 0 -->
      <g transform="translate(35.697844 326.696094) scale(0.1 -0.1)">
       <use xlink:href="#DejaVuSans-30"/>
      </g>
     </g>
    </g>
    <g id="ytick_2">
     <g id="line2d_21">
      <path d="M 49.060344 260.591505 
L 912.65625 260.591505 
" clip-path="url(#pf152d55a47)" style="fill: none; stroke: #b0b0b0; stroke-width: 0.8; stroke-linecap: square"/>
     </g>
     <g id="line2d_22">
      <g>
       <use xlink:href="#md64ad9d4a6" x="49.060344" y="260.591505" style="stroke: #000000; stroke-width: 0.8"/>
      </g>
     </g>
     <g id="text_11">
      <!-- 2 -->
      <g transform="translate(35.697844 264.390723) scale(0.1 -0.1)">
       <use xlink:href="#DejaVuSans-32"/>
      </g>
     </g>
    </g>
    <g id="ytick_3">
     <g id="line2d_23">
      <path d="M 49.060344 198.286134 
L 912.65625 198.286134 
" clip-path="url(#pf152d55a47)" style="fill: none; stroke: #b0b0b0; stroke-width: 0.8; stroke-linecap: square"/>
     </g>
     <g id="line2d_24">
      <g>
       <use xlink:href="#md64ad9d4a6" x="49.060344" y="198.286134" style="stroke: #000000; stroke-width: 0.8"/>
      </g>
     </g>
     <g id="text_12">
      <!-- 4 -->
      <g transform="translate(35.697844 202.085353) scale(0.1 -0.1)">
       <defs>
        <path id="DejaVuSans-34" d="M 2419 4116 
L 825 1625 
L 2419 1625 
L 2419 4116 
z
M 2253 4666 
L 3047 4666 
L 3047 1625 
L 3713 1625 
L 3713 1100 
L 3047 1100 
L 3047 0 
L 2419 0 
L 2419 1100 
L 313 1100 
L 313 1709 
L 2253 4666 
z
" transform="scale(0.015625)"/>
       </defs>
       <use xlink:href="#DejaVuSans-34"/>
      </g>
     </g>
    </g>
    <g id="ytick_4">
     <g id="line2d_25">
      <path d="M 49.060344 135.980764 
L 912.65625 135.980764 
" clip-path="url(#pf152d55a47)" style="fill: none; stroke: #b0b0b0; stroke-width: 0.8; stroke-linecap: square"/>
     </g>
     <g id="line2d_26">
      <g>
       <use xlink:href="#md64ad9d4a6" x="49.060344" y="135.980764" style="stroke: #000000; stroke-width: 0.8"/>
      </g>
     </g>
     <g id="text_13">
      <!-- 6 -->
      <g transform="translate(35.697844 139.779983) scale(0.1 -0.1)">
       <defs>
        <path id="DejaVuSans-36" d="M 2113 2584 
Q 1688 2584 1439 2293 
Q 1191 2003 1191 1497 
Q 1191 994 1439 701 
Q 1688 409 2113 409 
Q 2538 409 2786 701 
Q 3034 994 3034 1497 
Q 3034 2003 2786 2293 
Q 2538 2584 2113 2584 
z
M 3366 4563 
L 3366 3988 
Q 3128 4100 2886 4159 
Q 2644 4219 2406 4219 
Q 1781 4219 1451 3797 
Q 1122 3375 1075 2522 
Q 1259 2794 1537 2939 
Q 1816 3084 2150 3084 
Q 2853 3084 3261 2657 
Q 3669 2231 3669 1497 
Q 3669 778 3244 343 
Q 2819 -91 2113 -91 
Q 1303 -91 875 529 
Q 447 1150 447 2328 
Q 447 3434 972 4092 
Q 1497 4750 2381 4750 
Q 2619 4750 2861 4703 
Q 3103 4656 3366 4563 
z
" transform="scale(0.015625)"/>
       </defs>
       <use xlink:href="#DejaVuSans-36"/>
      </g>
     </g>
    </g>
    <g id="ytick_5">
     <g id="line2d_27">
      <path d="M 49.060344 73.675394 
L 912.65625 73.675394 
" clip-path="url(#pf152d55a47)" style="fill: none; stroke: #b0b0b0; stroke-width: 0.8; stroke-linecap: square"/>
     </g>
     <g id="line2d_28">
      <g>
       <use xlink:href="#md64ad9d4a6" x="49.060344" y="73.675394" style="stroke: #000000; stroke-width: 0.8"/>
      </g>
     </g>
     <g id="text_14">
      <!-- 8 -->
      <g transform="translate(35.697844 77.474612) scale(0.1 -0.1)">
       <defs>
        <path id="DejaVuSans-38" d="M 2034 2216 
Q 1584 2216 1326 1975 
Q 1069 1734 1069 1313 
Q 1069 891 1326 650 
Q 1584 409 2034 409 
Q 2484 409 2743 651 
Q 3003 894 3003 1313 
Q 3003 1734 2745 1975 
Q 2488 2216 2034 2216 
z
M 1403 2484 
Q 997 2584 770 2862 
Q 544 3141 544 3541 
Q 544 4100 942 4425 
Q 1341 4750 2034 4750 
Q 2731 4750 3128 4425 
Q 3525 4100 3525 3541 
Q 3525 3141 3298 2862 
Q 3072 2584 2669 2484 
Q 3125 2378 3379 2068 
Q 3634 1759 3634 1313 
Q 3634 634 3220 271 
Q 2806 -91 2034 -91 
Q 1263 -91 848 271 
Q 434 634 434 1313 
Q 434 1759 690 2068 
Q 947 2378 1403 2484 
z
M 1172 3481 
Q 1172 3119 1398 2916 
Q 1625 2713 2034 2713 
Q 2441 2713 2670 2916 
Q 2900 3119 2900 3481 
Q 2900 3844 2670 4047 
Q 2441 4250 2034 4250 
Q 1625 4250 1398 4047 
Q 1172 3844 1172 3481 
z
" transform="scale(0.015625)"/>
       </defs>
       <use xlink:href="#DejaVuSans-38"/>
      </g>
     </g>
    </g>
   </g>
   <g id="line2d_29">
    <path d="M 88.314703 291.74419 
L 88.315097 322.896875 
L 88.317463 322.896875 
L 91.856903 291.74419 
L 91.856903 322.896875 
L 95.496326 291.74419 
L 95.798987 322.896875 
L 103.189481 291.74419 
L 103.189481 322.896875 
L 105.36176 291.74419 
L 107.131564 322.896875 
L 109.213201 291.74419 
L 111.073648 322.896875 
L 111.125617 291.74419 
L 112.517799 260.591505 
L 112.747957 229.438819 
L 115.015731 260.591505 
L 122.899898 322.896875 
L 125.815618 291.74419 
L 126.841982 322.896875 
L 132.000337 291.74419 
L 132.000337 322.896875 
L 134.967442 291.74419 
L 135.942421 322.896875 
L 138.276556 291.74419 
L 139.884505 322.896875 
L 145.405299 291.74419 
L 145.405299 322.896875 
L 145.695773 291.74419 
L 147.318248 260.591505 
L 147.677612 229.438819 
L 149.347382 260.591505 
L 151.795562 229.438819 
L 153.289466 260.591505 
L 161.173633 322.896875 
L 164.213795 291.74419 
L 165.115717 322.896875 
L 172.259162 291.74419 
L 172.259162 322.896875 
L 174.788834 291.74419 
L 176.201246 322.896875 
L 181.116822 291.74419 
L 181.116822 322.896875 
L 187.479353 291.74419 
L 187.479353 322.896875 
L 190.376644 291.74419 
L 191.421437 322.896875 
L 194.85461 291.74419 
L 195.350818 260.591505 
L 195.36352 291.74419 
L 199.305604 322.896875 
L 200.377872 291.74419 
L 200.987829 260.591505 
L 203.247687 291.74419 
L 204.026524 260.591505 
L 207.189771 291.74419 
L 209.629662 260.591505 
L 211.131854 291.74419 
L 212.538239 260.591505 
L 212.97954 229.438819 
L 215.073938 260.591505 
L 215.090785 229.438819 
L 216.30211 198.286134 
L 217.11498 167.133449 
L 219.016021 198.286134 
L 222.378806 167.133449 
L 222.958105 198.286134 
L 224.77986 167.133449 
L 225.352558 135.980764 
L 225.427333 104.828079 
L 226.900189 135.980764 
L 226.971727 104.828079 
L 230.761571 73.675394 
L 230.842272 104.828079 
L 231.752776 73.675394 
L 233.678709 42.522708 
L 234.784356 73.675394 
L 242.668523 135.980764 
L 245.02369 104.828079 
L 246.610606 135.980764 
L 247.380055 104.828079 
L 249.136326 73.675394 
L 250.55269 104.828079 
L 251.401181 73.675394 
L 254.494773 104.828079 
L 258.436857 135.980764 
L 260.571851 104.828079 
L 262.37894 135.980764 
L 264.903856 104.828079 
L 266.321024 135.980764 
L 269.077868 104.828079 
L 270.263108 135.980764 
L 273.455936 104.828079 
L 274.000057 73.675394 
L 274.205191 104.828079 
L 278.147275 135.980764 
L 279.475779 104.828079 
L 281.258003 73.675394 
L 282.089358 104.828079 
L 284.586808 73.675394 
L 286.031442 104.828079 
L 301.799776 229.438819 
L 302.146807 198.286134 
L 303.070443 167.133449 
L 305.74186 198.286134 
L 307.044139 167.133449 
L 309.683943 198.286134 
L 311.217792 167.133449 
L 313.626027 198.286134 
L 314.654957 167.133449 
L 315.806363 135.980764 
L 317.56811 167.133449 
L 317.915632 135.980764 
L 320.39103 104.828079 
L 321.510194 135.980764 
L 322.928869 104.828079 
L 324.033744 73.675394 
L 325.452277 104.828079 
L 327.884624 73.675394 
L 329.394361 104.828079 
L 329.510738 73.675394 
L 333.336444 104.828079 
L 333.721168 73.675394 
L 334.307404 42.522708 
L 337.278528 73.675394 
L 340.246687 42.522708 
L 341.220611 73.675394 
L 342.0601 42.522708 
L 345.162695 73.675394 
L 346.342265 42.522708 
L 349.104779 73.675394 
L 353.046862 104.828079 
L 353.123956 73.675394 
L 356.988946 104.828079 
L 357.538358 73.675394 
L 357.936645 42.522708 
L 360.931029 73.675394 
L 368.815196 135.980764 
L 372.024029 104.828079 
L 372.75728 135.980764 
L 376.699363 167.133449 
L 380.323382 135.980764 
L 380.549369 104.828079 
L 380.641447 135.980764 
L 384.209509 104.828079 
L 384.58353 135.980764 
L 386.57455 104.828079 
L 388.525614 135.980764 
L 391.873677 104.828079 
L 392.110858 42.522708 
L 392.467698 73.675394 
L 394.408613 42.522708 
L 396.409781 73.675394 
L 408.236032 167.133449 
L 409.749508 135.980764 
L 411.858067 104.828079 
L 412.178115 135.980764 
L 420.062282 198.286134 
L 421.728696 167.133449 
L 424.004366 198.286134 
L 425.011835 167.133449 
L 427.94645 198.286134 
L 431.888533 229.438819 
L 432.908777 198.286134 
L 433.297664 167.133449 
L 435.830617 198.286134 
L 439.7727 229.438819 
L 443.311757 198.286134 
L 443.653813 167.133449 
L 443.714784 198.286134 
L 451.598951 260.591505 
L 454.097402 229.438819 
L 454.654539 198.286134 
L 455.541034 229.438819 
L 458.761326 198.286134 
L 459.483118 229.438819 
L 463.425201 260.591505 
L 463.72809 229.438819 
L 465.074919 198.286134 
L 466.28718 167.133449 
L 467.084862 135.980764 
L 467.367285 167.133449 
L 470.566231 135.980764 
L 470.646304 104.828079 
L 471.309369 135.980764 
L 471.356873 104.828079 
L 475.251452 135.980764 
L 478.317572 104.828079 
L 479.193536 135.980764 
L 481.641076 104.828079 
L 483.135619 135.980764 
L 486.87915 104.828079 
L 487.077703 135.980764 
L 489.117876 104.828079 
L 490.245395 73.675394 
L 491.019786 104.828079 
L 494.96187 135.980764 
L 495.807771 104.828079 
L 498.903953 135.980764 
L 499.191628 104.828079 
L 501.179793 73.675394 
L 502.846037 104.828079 
L 506.788121 135.980764 
L 510.10362 104.828079 
L 510.730204 135.980764 
L 511.098681 104.828079 
L 514.672288 135.980764 
L 522.556455 198.286134 
L 523.13103 167.133449 
L 525.467203 135.980764 
L 526.498538 167.133449 
L 530.440622 198.286134 
L 532.852539 167.133449 
L 534.382705 198.286134 
L 537.591864 167.133449 
L 538.078816 135.980764 
L 538.324789 167.133449 
L 539.470451 135.980764 
L 542.266872 167.133449 
L 545.213351 135.980764 
L 546.208956 167.133449 
L 547.305504 135.980764 
L 549.29633 104.828079 
L 550.15104 135.980764 
L 554.093123 167.133449 
L 557.690994 135.980764 
L 558.035207 167.133449 
L 565.919374 229.438819 
L 566.106674 198.286134 
L 569.861457 229.438819 
L 570.7559 198.286134 
L 573.803541 229.438819 
L 574.255924 198.286134 
L 577.745624 229.438819 
L 578.504839 198.286134 
L 581.508186 167.133449 
L 581.687708 198.286134 
L 582.541237 167.133449 
L 585.629792 198.286134 
L 586.612609 167.133449 
L 588.592761 135.980764 
L 589.571875 167.133449 
L 590.76641 135.980764 
L 593.513959 167.133449 
L 594.568366 135.980764 
L 597.107481 104.828079 
L 597.456042 135.980764 
L 598.522402 104.828079 
L 601.398126 135.980764 
L 604.127729 73.675394 
L 605.340209 104.828079 
L 607.921491 73.675394 
L 609.282293 104.828079 
L 610.128905 73.675394 
L 613.224376 104.828079 
L 617.16646 135.980764 
L 618.436639 104.828079 
L 621.108543 135.980764 
L 621.959794 104.828079 
L 625.050627 135.980764 
L 625.326648 104.828079 
L 628.992711 135.980764 
L 636.876878 198.286134 
L 639.015673 167.133449 
L 639.616027 135.980764 
L 640.818961 167.133449 
L 641.422183 135.980764 
L 641.825539 104.828079 
L 644.08223 73.675394 
L 644.761045 104.828079 
L 656.587295 198.286134 
L 660.393822 167.133449 
L 660.529379 198.286134 
L 663.429529 167.133449 
L 664.471463 198.286134 
L 665.771417 167.133449 
L 666.187751 135.980764 
L 668.413546 167.133449 
L 672.35563 198.286134 
L 676.118971 167.133449 
L 676.297713 198.286134 
L 680.239797 229.438819 
L 683.371352 198.286134 
L 684.009457 167.133449 
L 684.18188 198.286134 
L 692.066047 260.591505 
L 693.274052 229.438819 
L 696.008131 260.591505 
L 699.950214 291.74419 
L 701.260354 260.591505 
L 701.411269 229.438819 
L 702.110301 198.286134 
L 703.892298 229.438819 
L 705.8788 198.286134 
L 707.834382 229.438819 
L 711.776465 260.591505 
L 711.830651 229.438819 
L 719.660632 291.74419 
L 719.722649 260.591505 
L 721.811964 229.438819 
L 722.406395 198.286134 
L 723.602716 229.438819 
L 724.467592 198.286134 
L 727.544799 229.438819 
L 729.180111 198.286134 
L 731.022139 167.133449 
L 731.486883 198.286134 
L 733.404336 167.133449 
L 735.428966 198.286134 
L 735.552208 167.133449 
L 739.37105 198.286134 
L 740.599393 167.133449 
L 742.392693 135.980764 
L 743.313133 167.133449 
L 755.139384 260.591505 
L 757.017668 229.438819 
L 758.776834 198.286134 
L 759.081468 229.438819 
L 766.965635 291.74419 
L 770.148214 260.591505 
L 770.890489 229.438819 
L 770.907718 260.591505 
L 772.524926 229.438819 
L 774.849802 260.591505 
L 775.426816 229.438819 
L 775.647061 198.286134 
L 777.306555 135.980764 
L 778.791885 167.133449 
L 782.733969 198.286134 
L 783.528789 167.133449 
L 785.198881 135.980764 
L 786.676053 167.133449 
L 794.56022 229.438819 
L 796.569996 198.286134 
L 798.502303 229.438819 
L 800.264275 198.286134 
L 802.444387 229.438819 
L 803.843545 198.286134 
L 803.971098 167.133449 
L 806.38647 198.286134 
L 810.005763 167.133449 
L 810.209501 135.980764 
L 810.328554 167.133449 
L 813.603334 135.980764 
L 814.270637 167.133449 
L 814.674272 135.980764 
L 818.212721 167.133449 
L 830.038972 260.591505 
L 833.908222 229.438819 
L 833.981055 260.591505 
L 836.932114 229.438819 
L 837.923139 260.591505 
L 841.865222 291.74419 
L 844.805133 260.591505 
L 845.807306 291.74419 
L 849.749389 322.896875 
L 849.968416 291.74419 
L 851.442308 260.591505 
L 853.691473 291.74419 
L 854.627433 260.591505 
L 856.629479 229.438819 
L 857.570663 198.286134 
L 857.633556 229.438819 
L 858.499121 198.286134 
L 860.464083 135.980764 
L 861.57564 167.133449 
L 863.787176 135.980764 
L 865.517724 167.133449 
L 869.090648 135.980764 
L 869.459807 167.133449 
L 871.462517 135.980764 
L 873.401891 167.133449 
L 873.401891 167.133449 
" clip-path="url(#pf152d55a47)" style="fill: none; stroke: #1f77b4; stroke-width: 1.5; stroke-linecap: square"/>
   </g>
   <g id="patch_3">
    <path d="M 49.060344 336.915583 
L 49.060344 28.504 
" style="fill: none; stroke: #000000; stroke-width: 0.8; stroke-linejoin: miter; stroke-linecap: square"/>
   </g>
   <g id="patch_4">
    <path d="M 912.65625 336.915583 
L 912.65625 28.504 
" style="fill: none; stroke: #000000; stroke-width: 0.8; stroke-linejoin: miter; stroke-linecap: square"/>
   </g>
   <g id="patch_5">
    <path d="M 49.060344 336.915583 
L 912.65625 336.915583 
" style="fill: none; stroke: #000000; stroke-width: 0.8; stroke-linejoin: miter; stroke-linecap: square"/>
   </g>
   <g id="patch_6">
    <path d="M 49.060344 28.504 
L 912.65625 28.504 
" style="fill: none; stroke: #000000; stroke-width: 0.8; stroke-linejoin: miter; stroke-linecap: square"/>
   </g>
   <g id="text_15">
    <!-- Buffer Size in Network.node[0].lnk[0] -->
    <g transform="translate(369.266734 22.504) scale(0.12 -0.12)">
     <defs>
      <path id="DejaVuSans-42" d="M 1259 2228 
L 1259 519 
L 2272 519 
Q 2781 519 3026 730 
Q 3272 941 3272 1375 
Q 3272 1813 3026 2020 
Q 2781 2228 2272 2228 
L 1259 2228 
z
M 1259 4147 
L 1259 2741 
L 2194 2741 
Q 2656 2741 2882 2914 
Q 3109 3088 3109 3444 
Q 3109 3797 2882 3972 
Q 2656 4147 2194 4147 
L 1259 4147 
z
M 628 4666 
L 2241 4666 
Q 2963 4666 3353 4366 
Q 3744 4066 3744 3513 
Q 3744 3084 3544 2831 
Q 3344 2578 2956 2516 
Q 3422 2416 3680 2098 
Q 3938 1781 3938 1306 
Q 3938 681 3513 340 
Q 3088 0 2303 0 
L 628 0 
L 628 4666 
z
" transform="scale(0.015625)"/>
      <path id="DejaVuSans-75" d="M 544 1381 
L 544 3500 
L 1119 3500 
L 1119 1403 
Q 1119 906 1312 657 
Q 1506 409 1894 409 
Q 2359 409 2629 706 
Q 2900 1003 2900 1516 
L 2900 3500 
L 3475 3500 
L 3475 0 
L 2900 0 
L 2900 538 
Q 2691 219 2414 64 
Q 2138 -91 1772 -91 
Q 1169 -91 856 284 
Q 544 659 544 1381 
z
M 1991 3584 
L 1991 3584 
z
" transform="scale(0.015625)"/>
      <path id="DejaVuSans-66" d="M 2375 4863 
L 2375 4384 
L 1825 4384 
Q 1516 4384 1395 4259 
Q 1275 4134 1275 3809 
L 1275 3500 
L 2222 3500 
L 2222 3053 
L 1275 3053 
L 1275 0 
L 697 0 
L 697 3053 
L 147 3053 
L 147 3500 
L 697 3500 
L 697 3744 
Q 697 4328 969 4595 
Q 1241 4863 1831 4863 
L 2375 4863 
z
" transform="scale(0.015625)"/>
      <path id="DejaVuSans-65" d="M 3597 1894 
L 3597 1613 
L 953 1613 
Q 991 1019 1311 708 
Q 1631 397 2203 397 
Q 2534 397 2845 478 
Q 3156 559 3463 722 
L 3463 178 
Q 3153 47 2828 -22 
Q 2503 -91 2169 -91 
Q 1331 -91 842 396 
Q 353 884 353 1716 
Q 353 2575 817 3079 
Q 1281 3584 2069 3584 
Q 2775 3584 3186 3129 
Q 3597 2675 3597 1894 
z
M 3022 2063 
Q 3016 2534 2758 2815 
Q 2500 3097 2075 3097 
Q 1594 3097 1305 2825 
Q 1016 2553 972 2059 
L 3022 2063 
z
" transform="scale(0.015625)"/>
      <path id="DejaVuSans-72" d="M 2631 2963 
Q 2534 3019 2420 3045 
Q 2306 3072 2169 3072 
Q 1681 3072 1420 2755 
Q 1159 2438 1159 1844 
L 1159 0 
L 581 0 
L 581 3500 
L 1159 3500 
L 1159 2956 
Q 1341 3275 1631 3429 
Q 1922 3584 2338 3584 
Q 2397 3584 2469 3576 
Q 2541 3569 2628 3553 
L 2631 2963 
z
" transform="scale(0.015625)"/>
      <path id="DejaVuSans-20" transform="scale(0.015625)"/>
      <path id="DejaVuSans-53" d="M 3425 4513 
L 3425 3897 
Q 3066 4069 2747 4153 
Q 2428 4238 2131 4238 
Q 1616 4238 1336 4038 
Q 1056 3838 1056 3469 
Q 1056 3159 1242 3001 
Q 1428 2844 1947 2747 
L 2328 2669 
Q 3034 2534 3370 2195 
Q 3706 1856 3706 1288 
Q 3706 609 3251 259 
Q 2797 -91 1919 -91 
Q 1588 -91 1214 -16 
Q 841 59 441 206 
L 441 856 
Q 825 641 1194 531 
Q 1563 422 1919 422 
Q 2459 422 2753 634 
Q 3047 847 3047 1241 
Q 3047 1584 2836 1778 
Q 2625 1972 2144 2069 
L 1759 2144 
Q 1053 2284 737 2584 
Q 422 2884 422 3419 
Q 422 4038 858 4394 
Q 1294 4750 2059 4750 
Q 2388 4750 2728 4690 
Q 3069 4631 3425 4513 
z
" transform="scale(0.015625)"/>
      <path id="DejaVuSans-69" d="M 603 3500 
L 1178 3500 
L 1178 0 
L 603 0 
L 603 3500 
z
M 603 4863 
L 1178 4863 
L 1178 4134 
L 603 4134 
L 603 4863 
z
" transform="scale(0.015625)"/>
      <path id="DejaVuSans-7a" d="M 353 3500 
L 3084 3500 
L 3084 2975 
L 922 459 
L 3084 459 
L 3084 0 
L 275 0 
L 275 525 
L 2438 3041 
L 353 3041 
L 353 3500 
z
" transform="scale(0.015625)"/>
      <path id="DejaVuSans-6e" d="M 3513 2113 
L 3513 0 
L 2938 0 
L 2938 2094 
Q 2938 2591 2744 2837 
Q 2550 3084 2163 3084 
Q 1697 3084 1428 2787 
Q 1159 2491 1159 1978 
L 1159 0 
L 581 0 
L 581 3500 
L 1159 3500 
L 1159 2956 
Q 1366 3272 1645 3428 
Q 1925 3584 2291 3584 
Q 2894 3584 3203 3211 
Q 3513 2838 3513 2113 
z
" transform="scale(0.015625)"/>
      <path id="DejaVuSans-4e" d="M 628 4666 
L 1478 4666 
L 3547 763 
L 3547 4666 
L 4159 4666 
L 4159 0 
L 3309 0 
L 1241 3903 
L 1241 0 
L 628 0 
L 628 4666 
z
" transform="scale(0.015625)"/>
      <path id="DejaVuSans-74" d="M 1172 4494 
L 1172 3500 
L 2356 3500 
L 2356 3053 
L 1172 3053 
L 1172 1153 
Q 1172 725 1289 603 
Q 1406 481 1766 481 
L 2356 481 
L 2356 0 
L 1766 0 
Q 1100 0 847 248 
Q 594 497 594 1153 
L 594 3053 
L 172 3053 
L 172 3500 
L 594 3500 
L 594 4494 
L 1172 4494 
z
" transform="scale(0.015625)"/>
      <path id="DejaVuSans-77" d="M 269 3500 
L 844 3500 
L 1563 769 
L 2278 3500 
L 2956 3500 
L 3675 769 
L 4391 3500 
L 4966 3500 
L 4050 0 
L 3372 0 
L 2619 2869 
L 1863 0 
L 1184 0 
L 269 3500 
z
" transform="scale(0.015625)"/>
      <path id="DejaVuSans-6f" d="M 1959 3097 
Q 1497 3097 1228 2736 
Q 959 2375 959 1747 
Q 959 1119 1226 758 
Q 1494 397 1959 397 
Q 2419 397 2687 759 
Q 2956 1122 2956 1747 
Q 2956 2369 2687 2733 
Q 2419 3097 1959 3097 
z
M 1959 3584 
Q 2709 3584 3137 3096 
Q 3566 2609 3566 1747 
Q 3566 888 3137 398 
Q 2709 -91 1959 -91 
Q 1206 -91 779 398 
Q 353 888 353 1747 
Q 353 2609 779 3096 
Q 1206 3584 1959 3584 
z
" transform="scale(0.015625)"/>
      <path id="DejaVuSans-6b" d="M 581 4863 
L 1159 4863 
L 1159 1991 
L 2875 3500 
L 3609 3500 
L 1753 1863 
L 3688 0 
L 2938 0 
L 1159 1709 
L 1159 0 
L 581 0 
L 581 4863 
z
" transform="scale(0.015625)"/>
      <path id="DejaVuSans-2e" d="M 684 794 
L 1344 794 
L 1344 0 
L 684 0 
L 684 794 
z
" transform="scale(0.015625)"/>
      <path id="DejaVuSans-64" d="M 2906 2969 
L 2906 4863 
L 3481 4863 
L 3481 0 
L 2906 0 
L 2906 525 
Q 2725 213 2448 61 
Q 2172 -91 1784 -91 
Q 1150 -91 751 415 
Q 353 922 353 1747 
Q 353 2572 751 3078 
Q 1150 3584 1784 3584 
Q 2172 3584 2448 3432 
Q 2725 3281 2906 2969 
z
M 947 1747 
Q 947 1113 1208 752 
Q 1469 391 1925 391 
Q 2381 391 2643 752 
Q 2906 1113 2906 1747 
Q 2906 2381 2643 2742 
Q 2381 3103 1925 3103 
Q 1469 3103 1208 2742 
Q 947 2381 947 1747 
z
" transform="scale(0.015625)"/>
      <path id="DejaVuSans-5b" d="M 550 4863 
L 1875 4863 
L 1875 4416 
L 1125 4416 
L 1125 -397 
L 1875 -397 
L 1875 -844 
L 550 -844 
L 550 4863 
z
" transform="scale(0.015625)"/>
      <path id="DejaVuSans-5d" d="M 1947 4863 
L 1947 -844 
L 622 -844 
L 622 -397 
L 1369 -397 
L 1369 4416 
L 622 4416 
L 622 4863 
L 1947 4863 
z
" transform="scale(0.015625)"/>
      <path id="DejaVuSans-6c" d="M 603 4863 
L 1178 4863 
L 1178 0 
L 603 0 
L 603 4863 
z
" transform="scale(0.015625)"/>
     </defs>
     <use xlink:href="#DejaVuSans-42"/>
     <use xlink:href="#DejaVuSans-75" x="68.603516"/>
     <use xlink:href="#DejaVuSans-66" x="131.982422"/>
     <use xlink:href="#DejaVuSans-66" x="167.1875"/>
     <use xlink:href="#DejaVuSans-65" x="202.392578"/>
     <use xlink:href="#DejaVuSans-72" x="263.916016"/>
     <use xlink:href="#DejaVuSans-20" x="305.029297"/>
     <use xlink:href="#DejaVuSans-53" x="336.816406"/>
     <use xlink:href="#DejaVuSans-69" x="400.292969"/>
     <use xlink:href="#DejaVuSans-7a" x="428.076172"/>
     <use xlink:href="#DejaVuSans-65" x="480.566406"/>
     <use xlink:href="#DejaVuSans-20" x="542.089844"/>
     <use xlink:href="#DejaVuSans-69" x="573.876953"/>
     <use xlink:href="#DejaVuSans-6e" x="601.660156"/>
     <use xlink:href="#DejaVuSans-20" x="665.039062"/>
     <use xlink:href="#DejaVuSans-4e" x="696.826172"/>
     <use xlink:href="#DejaVuSans-65" x="771.630859"/>
     <use xlink:href="#DejaVuSans-74" x="833.154297"/>
     <use xlink:href="#DejaVuSans-77" x="872.363281"/>
     <use xlink:href="#DejaVuSans-6f" x="954.150391"/>
     <use xlink:href="#DejaVuSans-72" x="1015.332031"/>
     <use xlink:href="#DejaVuSans-6b" x="1056.445312"/>
     <use xlink:href="#DejaVuSans-2e" x="1114.355469"/>
     <use xlink:href="#DejaVuSans-6e" x="1146.142578"/>
     <use xlink:href="#DejaVuSans-6f" x="1209.521484"/>
     <use xlink:href="#DejaVuSans-64" x="1270.703125"/>
     <use xlink:href="#DejaVuSans-65" x="1334.179688"/>
     <use xlink:href="#DejaVuSans-5b" x="1395.703125"/>
     <use xlink:href="#DejaVuSans-30" x="1434.716797"/>
     <use xlink:href="#DejaVuSans-5d" x="1498.339844"/>
     <use xlink:href="#DejaVuSans-2e" x="1537.353516"/>
     <use xlink:href="#DejaVuSans-6c" x="1569.140625"/>
     <use xlink:href="#DejaVuSans-6e" x="1596.923828"/>
     <use xlink:href="#DejaVuSans-6b" x="1660.302734"/>
     <use xlink:href="#DejaVuSans-5b" x="1718.212891"/>
     <use xlink:href="#DejaVuSans-30" x="1757.226562"/>
     <use xlink:href="#DejaVuSans-5d" x="1820.849609"/>
    </g>
   </g>
   <g id="legend_1">
    <g id="patch_7">
     <path d="M 685.670313 51.182125 
L 907.65625 51.182125 
L 907.65625 33.504 
L 685.670313 33.504 
z
" style="fill: #ffffff; opacity: 0.8; stroke: #cccccc; stroke-linejoin: miter"/>
    </g>
    <g id="line2d_30">
     <path d="M 689.670313 41.602438 
L 699.670313 41.602438 
L 709.670313 41.602438 
" style="fill: none; stroke: #1f77b4; stroke-width: 1.5; stroke-linecap: square"/>
    </g>
    <g id="text_16">
     <!-- Buffer Size in Network.node[0].lnk[0] -->
     <g transform="translate(717.670313 45.102438) scale(0.1 -0.1)">
      <use xlink:href="#DejaVuSans-42"/>
      <use xlink:href="#DejaVuSans-75" x="68.603516"/>
      <use xlink:href="#DejaVuSans-66" x="131.982422"/>
      <use xlink:href="#DejaVuSans-66" x="167.1875"/>
      <use xlink:href="#DejaVuSans-65" x="202.392578"/>
      <use xlink:href="#DejaVuSans-72" x="263.916016"/>
      <use xlink:href="#DejaVuSans-20" x="305.029297"/>
      <use xlink:href="#DejaVuSans-53" x="336.816406"/>
      <use xlink:href="#DejaVuSans-69" x="400.292969"/>
      <use xlink:href="#DejaVuSans-7a" x="428.076172"/>
      <use xlink:href="#DejaVuSans-65" x="480.566406"/>
      <use xlink:href="#DejaVuSans-20" x="542.089844"/>
      <use xlink:href="#DejaVuSans-69" x="573.876953"/>
      <use xlink:href="#DejaVuSans-6e" x="601.660156"/>
      <use xlink:href="#DejaVuSans-20" x="665.039062"/>
      <use xlink:href="#DejaVuSans-4e" x="696.826172"/>
      <use xlink:href="#DejaVuSans-65" x="771.630859"/>
      <use xlink:href="#DejaVuSans-74" x="833.154297"/>
      <use xlink:href="#DejaVuSans-77" x="872.363281"/>
      <use xlink:href="#DejaVuSans-6f" x="954.150391"/>
      <use xlink:href="#DejaVuSans-72" x="1015.332031"/>
      <use xlink:href="#DejaVuSans-6b" x="1056.445312"/>
      <use xlink:href="#DejaVuSans-2e" x="1114.355469"/>
      <use xlink:href="#DejaVuSans-6e" x="1146.142578"/>
      <use xlink:href="#DejaVuSans-6f" x="1209.521484"/>
      <use xlink:href="#DejaVuSans-64" x="1270.703125"/>
      <use xlink:href="#DejaVuSans-65" x="1334.179688"/>
      <use xlink:href="#DejaVuSans-5b" x="1395.703125"/>
      <use xlink:href="#DejaVuSans-30" x="1434.716797"/>
      <use xlink:href="#DejaVuSans-5d" x="1498.339844"/>
      <use xlink:href="#DejaVuSans-2e" x="1537.353516"/>
      <use xlink:href="#DejaVuSans-6c" x="1569.140625"/>
      <use xlink:href="#DejaVuSans-6e" x="1596.923828"/>
      <use xlink:href="#DejaVuSans-6b" x="1660.302734"/>
      <use xlink:href="#DejaVuSans-5b" x="1718.212891"/>
      <use xlink:href="#DejaVuSans-30" x="1757.226562"/>
      <use xlink:href="#DejaVuSans-5d" x="1820.849609"/>
     </g>
    </g>
   </g>
  </g>
 </g>
 <defs>
  <clipPath id="pf152d55a47">
   <rect x="49.060344" y="28.504" width="863.595906" height="308.411583"/>
  </clipPath>
 </defs>
</svg>
