<?xml version="1.0" encoding="utf-8" standalone="no"?>
<!DOCTYPE svg PUBLIC "-//W3C//DTD SVG 1.1//EN"
  "http://www.w3.org/Graphics/SVG/1.1/DTD/svg11.dtd">
<svg xmlns:xlink="http://www.w3.org/1999/xlink" width="934.56pt" height="366.48pt" viewBox="0 0 934.56 366.48" xmlns="http://www.w3.org/2000/svg" version="1.1">
 <metadata>
  <rdf:RDF xmlns:dc="http://purl.org/dc/elements/1.1/" xmlns:cc="http://creativecommons.org/ns#" xmlns:rdf="http://www.w3.org/1999/02/22-rdf-syntax-ns#">
   <cc:Work>
    <dc:type rdf:resource="http://purl.org/dc/dcmitype/StillImage"/>
    <dc:date>2023-05-27T20:43:55.862407</dc:date>
    <dc:format>image/svg+xml</dc:format>
    <dc:creator>
     <cc:Agent>
      <dc:title>Matplotlib v3.7.1, https://matplotlib.org/</dc:title>
     </cc:Agent>
    </dc:creator>
   </cc:Work>
  </rdf:RDF>
 </metadata>
 <defs>
  <style type="text/css">*{stroke-linejoin: round; stroke-linecap: butt}</style>
 </defs>
 <g id="figure_1">
  <g id="patch_1">
   <path d="M 0 366.48 
L 934.56 366.48 
L 934.56 0 
L 0 0 
z
" style="fill: #ffffff"/>
  </g>
  <g id="axes_1">
   <g id="patch_2">
    <path d="M 61.837531 336.915583 
L 912.65625 336.915583 
L 912.65625 28.504 
L 61.837531 28.504 
z
" style="fill: #ffffff"/>
   </g>
   <g id="matplotlib.axis_1">
    <g id="xtick_1">
     <g id="line2d_1">
      <path d="M 85.10549 336.915583 
L 85.10549 28.504 
" clip-path="url(#pa181db231c)" style="fill: none; stroke: #b0b0b0; stroke-width: 0.8; stroke-linecap: square"/>
     </g>
     <g id="line2d_2">
      <defs>
       <path id="m32603a7ef5" d="M 0 0 
L 0 3.5 
" style="stroke: #000000; stroke-width: 0.8"/>
      </defs>
      <g>
       <use xlink:href="#m32603a7ef5" x="85.10549" y="336.915583" style="stroke: #000000; stroke-width: 0.8"/>
      </g>
     </g>
     <g id="text_1">
      <!-- 0 -->
      <g transform="translate(81.92424 351.514021) scale(0.1 -0.1)">
       <defs>
        <path id="DejaVuSans-30" d="M 2034 4250 
Q 1547 4250 1301 3770 
Q 1056 3291 1056 2328 
Q 1056 1369 1301 889 
Q 1547 409 2034 409 
Q 2525 409 2770 889 
Q 3016 1369 3016 2328 
Q 3016 3291 2770 3770 
Q 2525 4250 2034 4250 
z
M 2034 4750 
Q 2819 4750 3233 4129 
Q 3647 3509 3647 2328 
Q 3647 1150 3233 529 
Q 2819 -91 2034 -91 
Q 1250 -91 836 529 
Q 422 1150 422 2328 
Q 422 3509 836 4129 
Q 1250 4750 2034 4750 
z
" transform="scale(0.015625)"/>
       </defs>
       <use xlink:href="#DejaVuSans-30"/>
      </g>
     </g>
    </g>
    <g id="xtick_2">
     <g id="line2d_3">
      <path d="M 183.888327 336.915583 
L 183.888327 28.504 
" clip-path="url(#pa181db231c)" style="fill: none; stroke: #b0b0b0; stroke-width: 0.8; stroke-linecap: square"/>
     </g>
     <g id="line2d_4">
      <g>
       <use xlink:href="#m32603a7ef5" x="183.888327" y="336.915583" style="stroke: #000000; stroke-width: 0.8"/>
      </g>
     </g>
     <g id="text_2">
      <!-- 25 -->
      <g transform="translate(177.525827 351.514021) scale(0.1 -0.1)">
       <defs>
        <path id="DejaVuSans-32" d="M 1228 531 
L 3431 531 
L 3431 0 
L 469 0 
L 469 531 
Q 828 903 1448 1529 
Q 2069 2156 2228 2338 
Q 2531 2678 2651 2914 
Q 2772 3150 2772 3378 
Q 2772 3750 2511 3984 
Q 2250 4219 1831 4219 
Q 1534 4219 1204 4116 
Q 875 4013 500 3803 
L 500 4441 
Q 881 4594 1212 4672 
Q 1544 4750 1819 4750 
Q 2544 4750 2975 4387 
Q 3406 4025 3406 3419 
Q 3406 3131 3298 2873 
Q 3191 2616 2906 2266 
Q 2828 2175 2409 1742 
Q 1991 1309 1228 531 
z
" transform="scale(0.015625)"/>
        <path id="DejaVuSans-35" d="M 691 4666 
L 3169 4666 
L 3169 4134 
L 1269 4134 
L 1269 2991 
Q 1406 3038 1543 3061 
Q 1681 3084 1819 3084 
Q 2600 3084 3056 2656 
Q 3513 2228 3513 1497 
Q 3513 744 3044 326 
Q 2575 -91 1722 -91 
Q 1428 -91 1123 -41 
Q 819 9 494 109 
L 494 744 
Q 775 591 1075 516 
Q 1375 441 1709 441 
Q 2250 441 2565 725 
Q 2881 1009 2881 1497 
Q 2881 1984 2565 2268 
Q 2250 2553 1709 2553 
Q 1456 2553 1204 2497 
Q 953 2441 691 2322 
L 691 4666 
z
" transform="scale(0.015625)"/>
       </defs>
       <use xlink:href="#DejaVuSans-32"/>
       <use xlink:href="#DejaVuSans-35" x="63.623047"/>
      </g>
     </g>
    </g>
    <g id="xtick_3">
     <g id="line2d_5">
      <path d="M 282.671165 336.915583 
L 282.671165 28.504 
" clip-path="url(#pa181db231c)" style="fill: none; stroke: #b0b0b0; stroke-width: 0.8; stroke-linecap: square"/>
     </g>
     <g id="line2d_6">
      <g>
       <use xlink:href="#m32603a7ef5" x="282.671165" y="336.915583" style="stroke: #000000; stroke-width: 0.8"/>
      </g>
     </g>
     <g id="text_3">
      <!-- 50 -->
      <g transform="translate(276.308665 351.514021) scale(0.1 -0.1)">
       <use xlink:href="#DejaVuSans-35"/>
       <use xlink:href="#DejaVuSans-30" x="63.623047"/>
      </g>
     </g>
    </g>
    <g id="xtick_4">
     <g id="line2d_7">
      <path d="M 381.454002 336.915583 
L 381.454002 28.504 
" clip-path="url(#pa181db231c)" style="fill: none; stroke: #b0b0b0; stroke-width: 0.8; stroke-linecap: square"/>
     </g>
     <g id="line2d_8">
      <g>
       <use xlink:href="#m32603a7ef5" x="381.454002" y="336.915583" style="stroke: #000000; stroke-width: 0.8"/>
      </g>
     </g>
     <g id="text_4">
      <!-- 75 -->
      <g transform="translate(375.091502 351.514021) scale(0.1 -0.1)">
       <defs>
        <path id="DejaVuSans-37" d="M 525 4666 
L 3525 4666 
L 3525 4397 
L 1831 0 
L 1172 0 
L 2766 4134 
L 525 4134 
L 525 4666 
z
" transform="scale(0.015625)"/>
       </defs>
       <use xlink:href="#DejaVuSans-37"/>
       <use xlink:href="#DejaVuSans-35" x="63.623047"/>
      </g>
     </g>
    </g>
    <g id="xtick_5">
     <g id="line2d_9">
      <path d="M 480.23684 336.915583 
L 480.23684 28.504 
" clip-path="url(#pa181db231c)" style="fill: none; stroke: #b0b0b0; stroke-width: 0.8; stroke-linecap: square"/>
     </g>
     <g id="line2d_10">
      <g>
       <use xlink:href="#m32603a7ef5" x="480.23684" y="336.915583" style="stroke: #000000; stroke-width: 0.8"/>
      </g>
     </g>
     <g id="text_5">
      <!-- 100 -->
      <g transform="translate(470.69309 351.514021) scale(0.1 -0.1)">
       <defs>
        <path id="DejaVuSans-31" d="M 794 531 
L 1825 531 
L 1825 4091 
L 703 3866 
L 703 4441 
L 1819 4666 
L 2450 4666 
L 2450 531 
L 3481 531 
L 3481 0 
L 794 0 
L 794 531 
z
" transform="scale(0.015625)"/>
       </defs>
       <use xlink:href="#DejaVuSans-31"/>
       <use xlink:href="#DejaVuSans-30" x="63.623047"/>
       <use xlink:href="#DejaVuSans-30" x="127.246094"/>
      </g>
     </g>
    </g>
    <g id="xtick_6">
     <g id="line2d_11">
      <path d="M 579.019677 336.915583 
L 579.019677 28.504 
" clip-path="url(#pa181db231c)" style="fill: none; stroke: #b0b0b0; stroke-width: 0.8; stroke-linecap: square"/>
     </g>
     <g id="line2d_12">
      <g>
       <use xlink:href="#m32603a7ef5" x="579.019677" y="336.915583" style="stroke: #000000; stroke-width: 0.8"/>
      </g>
     </g>
     <g id="text_6">
      <!-- 125 -->
      <g transform="translate(569.475927 351.514021) scale(0.1 -0.1)">
       <use xlink:href="#DejaVuSans-31"/>
       <use xlink:href="#DejaVuSans-32" x="63.623047"/>
       <use xlink:href="#DejaVuSans-35" x="127.246094"/>
      </g>
     </g>
    </g>
    <g id="xtick_7">
     <g id="line2d_13">
      <path d="M 677.802515 336.915583 
L 677.802515 28.504 
" clip-path="url(#pa181db231c)" style="fill: none; stroke: #b0b0b0; stroke-width: 0.8; stroke-linecap: square"/>
     </g>
     <g id="line2d_14">
      <g>
       <use xlink:href="#m32603a7ef5" x="677.802515" y="336.915583" style="stroke: #000000; stroke-width: 0.8"/>
      </g>
     </g>
     <g id="text_7">
      <!-- 150 -->
      <g transform="translate(668.258765 351.514021) scale(0.1 -0.1)">
       <use xlink:href="#DejaVuSans-31"/>
       <use xlink:href="#DejaVuSans-35" x="63.623047"/>
       <use xlink:href="#DejaVuSans-30" x="127.246094"/>
      </g>
     </g>
    </g>
    <g id="xtick_8">
     <g id="line2d_15">
      <path d="M 776.585352 336.915583 
L 776.585352 28.504 
" clip-path="url(#pa181db231c)" style="fill: none; stroke: #b0b0b0; stroke-width: 0.8; stroke-linecap: square"/>
     </g>
     <g id="line2d_16">
      <g>
       <use xlink:href="#m32603a7ef5" x="776.585352" y="336.915583" style="stroke: #000000; stroke-width: 0.8"/>
      </g>
     </g>
     <g id="text_8">
      <!-- 175 -->
      <g transform="translate(767.041602 351.514021) scale(0.1 -0.1)">
       <use xlink:href="#DejaVuSans-31"/>
       <use xlink:href="#DejaVuSans-37" x="63.623047"/>
       <use xlink:href="#DejaVuSans-35" x="127.246094"/>
      </g>
     </g>
    </g>
    <g id="xtick_9">
     <g id="line2d_17">
      <path d="M 875.36819 336.915583 
L 875.36819 28.504 
" clip-path="url(#pa181db231c)" style="fill: none; stroke: #b0b0b0; stroke-width: 0.8; stroke-linecap: square"/>
     </g>
     <g id="line2d_18">
      <g>
       <use xlink:href="#m32603a7ef5" x="875.36819" y="336.915583" style="stroke: #000000; stroke-width: 0.8"/>
      </g>
     </g>
     <g id="text_9">
      <!-- 200 -->
      <g transform="translate(865.82444 351.514021) scale(0.1 -0.1)">
       <use xlink:href="#DejaVuSans-32"/>
       <use xlink:href="#DejaVuSans-30" x="63.623047"/>
       <use xlink:href="#DejaVuSans-30" x="127.246094"/>
      </g>
     </g>
    </g>
   </g>
   <g id="matplotlib.axis_2">
    <g id="ytick_1">
     <g id="line2d_19">
      <path d="M 61.837531 293.105616 
L 912.65625 293.105616 
" clip-path="url(#pa181db231c)" style="fill: none; stroke: #b0b0b0; stroke-width: 0.8; stroke-linecap: square"/>
     </g>
     <g id="line2d_20">
      <defs>
       <path id="mc4b136899e" d="M 0 0 
L -3.5 0 
" style="stroke: #000000; stroke-width: 0.8"/>
      </defs>
      <g>
       <use xlink:href="#mc4b136899e" x="61.837531" y="293.105616" style="stroke: #000000; stroke-width: 0.8"/>
      </g>
     </g>
     <g id="text_10">
      <!-- 4 -->
      <g transform="translate(48.475031 296.904834) scale(0.1 -0.1)">
       <defs>
        <path id="DejaVuSans-34" d="M 2419 4116 
L 825 1625 
L 2419 1625 
L 2419 4116 
z
M 2253 4666 
L 3047 4666 
L 3047 1625 
L 3713 1625 
L 3713 1100 
L 3047 1100 
L 3047 0 
L 2419 0 
L 2419 1100 
L 313 1100 
L 313 1709 
L 2253 4666 
z
" transform="scale(0.015625)"/>
       </defs>
       <use xlink:href="#DejaVuSans-34"/>
      </g>
     </g>
    </g>
    <g id="ytick_2">
     <g id="line2d_21">
      <path d="M 61.837531 233.505217 
L 912.65625 233.505217 
" clip-path="url(#pa181db231c)" style="fill: none; stroke: #b0b0b0; stroke-width: 0.8; stroke-linecap: square"/>
     </g>
     <g id="line2d_22">
      <g>
       <use xlink:href="#mc4b136899e" x="61.837531" y="233.505217" style="stroke: #000000; stroke-width: 0.8"/>
      </g>
     </g>
     <g id="text_11">
      <!-- 6 -->
      <g transform="translate(48.475031 237.304436) scale(0.1 -0.1)">
       <defs>
        <path id="DejaVuSans-36" d="M 2113 2584 
Q 1688 2584 1439 2293 
Q 1191 2003 1191 1497 
Q 1191 994 1439 701 
Q 1688 409 2113 409 
Q 2538 409 2786 701 
Q 3034 994 3034 1497 
Q 3034 2003 2786 2293 
Q 2538 2584 2113 2584 
z
M 3366 4563 
L 3366 3988 
Q 3128 4100 2886 4159 
Q 2644 4219 2406 4219 
Q 1781 4219 1451 3797 
Q 1122 3375 1075 2522 
Q 1259 2794 1537 2939 
Q 1816 3084 2150 3084 
Q 2853 3084 3261 2657 
Q 3669 2231 3669 1497 
Q 3669 778 3244 343 
Q 2819 -91 2113 -91 
Q 1303 -91 875 529 
Q 447 1150 447 2328 
Q 447 3434 972 4092 
Q 1497 4750 2381 4750 
Q 2619 4750 2861 4703 
Q 3103 4656 3366 4563 
z
" transform="scale(0.015625)"/>
       </defs>
       <use xlink:href="#DejaVuSans-36"/>
      </g>
     </g>
    </g>
    <g id="ytick_3">
     <g id="line2d_23">
      <path d="M 61.837531 173.904818 
L 912.65625 173.904818 
" clip-path="url(#pa181db231c)" style="fill: none; stroke: #b0b0b0; stroke-width: 0.8; stroke-linecap: square"/>
     </g>
     <g id="line2d_24">
      <g>
       <use xlink:href="#mc4b136899e" x="61.837531" y="173.904818" style="stroke: #000000; stroke-width: 0.8"/>
      </g>
     </g>
     <g id="text_12">
      <!-- 8 -->
      <g transform="translate(48.475031 177.704037) scale(0.1 -0.1)">
       <defs>
        <path id="DejaVuSans-38" d="M 2034 2216 
Q 1584 2216 1326 1975 
Q 1069 1734 1069 1313 
Q 1069 891 1326 650 
Q 1584 409 2034 409 
Q 2484 409 2743 651 
Q 3003 894 3003 1313 
Q 3003 1734 2745 1975 
Q 2488 2216 2034 2216 
z
M 1403 2484 
Q 997 2584 770 2862 
Q 544 3141 544 3541 
Q 544 4100 942 4425 
Q 1341 4750 2034 4750 
Q 2731 4750 3128 4425 
Q 3525 4100 3525 3541 
Q 3525 3141 3298 2862 
Q 3072 2584 2669 2484 
Q 3125 2378 3379 2068 
Q 3634 1759 3634 1313 
Q 3634 634 3220 271 
Q 2806 -91 2034 -91 
Q 1263 -91 848 271 
Q 434 634 434 1313 
Q 434 1759 690 2068 
Q 947 2378 1403 2484 
z
M 1172 3481 
Q 1172 3119 1398 2916 
Q 1625 2713 2034 2713 
Q 2441 2713 2670 2916 
Q 2900 3119 2900 3481 
Q 2900 3844 2670 4047 
Q 2441 4250 2034 4250 
Q 1625 4250 1398 4047 
Q 1172 3844 1172 3481 
z
" transform="scale(0.015625)"/>
       </defs>
       <use xlink:href="#DejaVuSans-38"/>
      </g>
     </g>
    </g>
    <g id="ytick_4">
     <g id="line2d_25">
      <path d="M 61.837531 114.30442 
L 912.65625 114.30442 
" clip-path="url(#pa181db231c)" style="fill: none; stroke: #b0b0b0; stroke-width: 0.8; stroke-linecap: square"/>
     </g>
     <g id="line2d_26">
      <g>
       <use xlink:href="#mc4b136899e" x="61.837531" y="114.30442" style="stroke: #000000; stroke-width: 0.8"/>
      </g>
     </g>
     <g id="text_13">
      <!-- 10 -->
      <g transform="translate(42.112531 118.103638) scale(0.1 -0.1)">
       <use xlink:href="#DejaVuSans-31"/>
       <use xlink:href="#DejaVuSans-30" x="63.623047"/>
      </g>
     </g>
    </g>
    <g id="ytick_5">
     <g id="line2d_27">
      <path d="M 61.837531 54.704021 
L 912.65625 54.704021 
" clip-path="url(#pa181db231c)" style="fill: none; stroke: #b0b0b0; stroke-width: 0.8; stroke-linecap: square"/>
     </g>
     <g id="line2d_28">
      <g>
       <use xlink:href="#mc4b136899e" x="61.837531" y="54.704021" style="stroke: #000000; stroke-width: 0.8"/>
      </g>
     </g>
     <g id="text_14">
      <!-- 12 -->
      <g transform="translate(42.112531 58.50324) scale(0.1 -0.1)">
       <use xlink:href="#DejaVuSans-31"/>
       <use xlink:href="#DejaVuSans-32" x="63.623047"/>
      </g>
     </g>
    </g>
   </g>
   <g id="line2d_29">
    <path d="M 100.511109 322.896875 
L 104.308495 322.896875 
L 104.462423 320.608909 
L 108.259808 316.555427 
L 111.870221 322.896875 
L 114.843349 322.896875 
L 115.821534 309.51803 
L 118.945442 322.896875 
L 119.772848 308.832817 
L 122.896756 310.247262 
L 123.724161 293.489534 
L 127.675475 274.213547 
L 130.005341 322.896875 
L 131.626788 246.153223 
L 133.956655 302.583752 
L 135.578102 315.13807 
L 137.907968 287.194992 
L 140.748535 322.896875 
L 141.859282 276.748423 
L 144.699848 315.526514 
L 145.810595 296.780451 
L 148.651162 310.741581 
L 149.761909 286.466082 
L 153.713222 271.532368 
L 154.184883 322.896875 
L 157.664536 319.160659 
L 158.136196 295.292514 
L 161.615849 289.969146 
L 162.08751 277.757421 
L 165.567163 273.854633 
L 166.038823 250.673838 
L 169.518476 297.321922 
L 169.990137 252.0033 
L 173.46979 312.394394 
L 173.94145 316.078792 
L 177.421103 287.100904 
L 181.101621 322.896875 
L 181.372417 318.102476 
L 185.052935 312.219737 
L 189.98002 322.896875 
L 196.357449 322.896875 
L 199.881701 311.540897 
L 200.308762 314.998762 
L 204.260076 319.049769 
L 204.368281 322.896875 
L 208.211389 293.000653 
L 208.404278 322.896875 
L 212.162703 301.202493 
L 212.355592 319.092021 
L 216.114016 276.013269 
L 220.06533 269.184096 
L 223.287856 322.896875 
L 224.016643 281.740848 
L 227.239169 312.219306 
L 227.967957 273.928049 
L 231.703954 322.896875 
L 231.91927 247.463867 
L 235.655267 300.369369 
L 235.870584 233.623633 
L 239.606581 295.611312 
L 239.821897 212.980449 
L 243.557894 270.642812 
L 243.773211 189.325149 
L 247.509208 269.063302 
L 247.724524 199.316863 
L 251.460521 267.857824 
L 251.675838 187.667442 
L 255.411835 307.459708 
L 255.627151 162.196556 
L 259.363148 311.784877 
L 259.578465 132.961624 
L 263.314462 310.279806 
L 263.529778 114.836273 
L 267.265775 316.123857 
L 267.481092 113.685417 
L 271.217089 289.439603 
L 271.432405 91.378238 
L 275.168402 261.490452 
L 275.383719 76.137136 
L 279.335032 132.099378 
L 280.85675 322.896875 
L 283.286346 120.112131 
L 284.808063 298.68201 
L 287.237659 103.588471 
L 288.759377 275.920817 
L 291.188973 90.909452 
L 292.71069 259.334146 
L 295.140286 130.434978 
L 296.662004 240.827089 
L 299.0916 133.38259 
L 300.613317 238.921711 
L 303.042913 135.135858 
L 304.564631 220.836344 
L 306.994227 138.431684 
L 308.515944 192.203811 
L 310.94554 112.744767 
L 312.467258 179.607991 
L 314.896854 124.338317 
L 316.418571 179.782948 
L 318.848167 108.010849 
L 320.369885 245.133195 
L 322.799481 103.374767 
L 324.321198 218.540543 
L 326.750794 206.319461 
L 328.272512 220.263782 
L 330.702108 183.501494 
L 332.223825 195.705841 
L 334.653421 183.740469 
L 336.538555 322.896875 
L 338.604735 185.491014 
L 340.489868 298.255908 
L 342.556048 181.67408 
L 344.441182 271.941004 
L 346.507362 160.577939 
L 348.392495 275.611443 
L 350.458675 146.722774 
L 352.343809 257.181684 
L 354.409989 135.635359 
L 356.295122 233.90417 
L 358.361302 125.019962 
L 360.246436 293.122825 
L 362.312616 103.572073 
L 364.197749 263.729833 
L 366.263929 102.882618 
L 368.149063 236.973572 
L 370.215243 85.375037 
L 372.100376 236.231604 
L 374.166556 87.403602 
L 376.05169 260.662371 
L 378.11787 62.035058 
L 382.069183 77.132892 
L 382.613396 322.896875 
L 386.020497 61.041201 
L 386.56471 311.940432 
L 389.97181 63.612045 
L 390.516023 303.375366 
L 393.923124 85.078072 
L 397.874437 88.648564 
L 401.825751 61.859221 
L 402.792152 322.896875 
L 405.777064 138.552668 
L 406.743465 303.002567 
L 409.728378 171.491463 
L 410.694779 277.018485 
L 413.679691 143.399618 
L 414.646092 260.491874 
L 417.631005 141.268263 
L 418.597406 241.156792 
L 421.582318 129.3466 
L 422.548719 230.894983 
L 425.533632 139.605178 
L 426.500033 204.86119 
L 429.484945 110.406648 
L 430.451346 209.834055 
L 433.436259 81.797751 
L 434.40266 191.43842 
L 437.387572 69.367443 
L 438.353973 224.940912 
L 441.338886 155.536809 
L 442.305287 197.116389 
L 445.290199 141.676271 
L 446.2566 174.599223 
L 449.241513 186.493142 
L 450.207914 179.939106 
L 453.192826 181.511846 
L 454.159227 175.05478 
L 457.14414 211.408613 
L 458.110541 154.445404 
L 461.095453 184.548213 
L 462.061854 145.840535 
L 465.046767 230.449594 
L 466.013168 138.1151 
L 468.99808 203.235172 
L 469.964481 182.385751 
L 472.949394 252.383328 
L 473.915795 178.151012 
L 476.900707 226.794812 
L 477.867108 158.046022 
L 480.852021 228.039884 
L 481.818422 139.675994 
L 484.803334 235.785963 
L 485.769735 110.155939 
L 488.754648 216.167126 
L 489.721049 113.161167 
L 492.705961 195.531016 
L 493.672362 138.4117 
L 496.657275 171.7609 
L 497.623676 163.482085 
L 500.608588 168.278122 
L 501.574989 148.796551 
L 504.559902 139.083238 
L 505.526303 142.979474 
L 508.511215 114.654592 
L 509.477616 126.938948 
L 512.462529 137.473829 
L 513.42893 97.279004 
L 516.413842 132.797672 
L 517.380243 72.197413 
L 520.365156 142.594722 
L 521.331557 76.149937 
L 524.316469 129.71818 
L 525.28287 55.728506 
L 528.267783 108.441462 
L 529.234184 62.180507 
L 532.219096 120.690071 
L 533.185497 42.522708 
L 536.17041 116.470154 
L 537.136811 110.322429 
L 540.121723 101.6995 
L 541.088124 107.240816 
L 544.073037 139.359013 
L 545.039438 102.747566 
L 548.02435 117.08098 
L 548.990751 103.3036 
L 551.975664 178.239382 
L 552.942065 139.704749 
L 555.926977 166.099497 
L 556.893378 143.865094 
L 559.878291 192.128775 
L 560.844692 131.83712 
L 563.829604 198.155525 
L 564.796005 216.559283 
L 567.780918 172.036444 
L 568.747319 236.8509 
L 571.732231 152.756315 
L 572.698632 240.584329 
L 575.683545 166.3696 
L 576.649946 219.349019 
L 579.634858 152.385036 
L 580.601259 215.490961 
L 583.586172 137.634496 
L 584.552573 196.887854 
L 587.537485 171.293804 
L 588.503886 267.346565 
L 591.488799 205.111977 
L 592.4552 276.045519 
L 595.440112 210.457624 
L 596.406513 266.980283 
L 599.391426 207.115872 
L 601.34204 322.896875 
L 603.342739 209.435367 
L 605.293354 320.882467 
L 607.294053 202.338979 
L 609.244667 291.659789 
L 611.245366 180.348138 
L 613.195981 280.786523 
L 615.19668 181.325495 
L 617.147294 288.506071 
L 619.147993 166.494258 
L 621.098608 268.827948 
L 623.099307 153.125769 
L 625.049921 253.440189 
L 627.05062 152.066478 
L 629.001235 264.853046 
L 631.001934 141.460728 
L 632.952548 239.39098 
L 634.953247 122.356631 
L 636.903862 212.825506 
L 638.904561 124.720389 
L 640.855175 193.581256 
L 642.855874 105.129726 
L 644.806489 166.669374 
L 646.807188 104.008495 
L 648.757802 162.017219 
L 650.758501 90.895248 
L 652.709116 145.240542 
L 654.709815 123.897407 
L 656.660429 139.356552 
L 658.661128 120.730512 
L 660.611743 110.575621 
L 662.612442 116.382059 
L 664.563056 112.334113 
L 666.563755 190.06411 
L 668.51437 113.998442 
L 670.515069 164.802291 
L 672.465683 95.734797 
L 674.466382 148.655735 
L 676.416997 82.760103 
L 678.417696 121.90471 
L 680.36831 60.412382 
L 682.369009 109.163979 
L 684.319624 98.217928 
L 686.320323 202.671335 
L 688.270937 134.720629 
L 690.271636 195.81958 
L 692.222251 113.907154 
L 694.22295 183.722889 
L 696.173564 133.006029 
L 698.174263 157.069968 
L 700.124878 139.473254 
L 702.125577 202.344878 
L 704.076191 112.798554 
L 706.07689 227.369082 
L 708.027505 95.941942 
L 710.028204 202.392644 
L 711.978818 103.469696 
L 713.979517 242.628196 
L 715.930132 92.546809 
L 717.930831 273.200484 
L 719.881445 264.356596 
L 721.882144 244.541123 
L 723.832759 255.712092 
L 725.833458 220.025261 
L 727.784072 231.35158 
L 729.784771 218.713051 
L 731.735386 205.490481 
L 733.736085 233.905892 
L 735.686699 231.831738 
L 737.687398 263.765289 
L 739.638013 251.104096 
L 741.638712 249.759281 
L 743.589326 246.392118 
L 745.590025 224.452684 
L 749.541339 210.234116 
L 751.491953 189.934513 
L 753.492652 216.058224 
L 755.443267 280.820556 
L 757.443966 200.182841 
L 759.39458 252.567361 
L 761.395279 188.390874 
L 763.345894 282.748191 
L 765.346593 174.827526 
L 767.297207 253.447674 
L 769.297906 183.181541 
L 771.248521 281.357863 
L 773.24922 166.937805 
L 775.199834 259.375129 
L 777.200533 247.695171 
L 779.151148 229.926072 
L 781.151847 231.193395 
L 783.102461 243.270425 
L 785.10316 287.355201 
L 787.053775 252.487578 
L 789.054474 263.166229 
L 791.005088 263.999137 
L 793.005787 245.721566 
L 794.956402 254.238396 
L 796.957101 237.85822 
L 798.907715 236.774851 
L 800.908414 209.72296 
L 802.859029 207.53178 
L 804.859728 186.572353 
L 806.810342 183.319683 
L 808.811041 162.667513 
L 810.761656 172.073008 
L 812.762355 179.904327 
L 814.712969 149.82733 
L 816.713668 162.729194 
L 818.664283 181.89327 
L 820.664982 218.888989 
L 822.615596 230.533717 
L 824.616295 217.015711 
L 826.56691 237.053906 
L 828.567609 214.27302 
L 830.518223 212.616471 
L 832.518922 185.43706 
L 834.469537 203.473763 
L 836.470236 201.255936 
L 838.42085 202.623925 
L 840.421549 172.995898 
L 842.372164 208.612899 
L 844.372863 168.851395 
L 846.323477 259.90942 
L 848.324176 147.146958 
L 850.274791 239.376123 
L 852.27549 262.745891 
L 854.226104 237.940639 
L 856.226803 255.804819 
L 858.177418 242.011241 
L 860.178117 285.520742 
L 862.128731 238.774301 
L 864.12943 294.752408 
L 866.080045 250.386756 
L 868.080744 276.094101 
L 870.031358 320.057665 
L 872.032057 270.371868 
L 873.982672 296.397262 
L 873.982672 296.397262 
" clip-path="url(#pa181db231c)" style="fill: none; stroke: #1f77b4; stroke-width: 1.5; stroke-linecap: square"/>
   </g>
   <g id="patch_3">
    <path d="M 61.837531 336.915583 
L 61.837531 28.504 
" style="fill: none; stroke: #000000; stroke-width: 0.8; stroke-linejoin: miter; stroke-linecap: square"/>
   </g>
   <g id="patch_4">
    <path d="M 912.65625 336.915583 
L 912.65625 28.504 
" style="fill: none; stroke: #000000; stroke-width: 0.8; stroke-linejoin: miter; stroke-linecap: square"/>
   </g>
   <g id="patch_5">
    <path d="M 61.837531 336.915583 
L 912.65625 336.915583 
" style="fill: none; stroke: #000000; stroke-width: 0.8; stroke-linejoin: miter; stroke-linecap: square"/>
   </g>
   <g id="patch_6">
    <path d="M 61.837531 28.504 
L 912.65625 28.504 
" style="fill: none; stroke: #000000; stroke-width: 0.8; stroke-linejoin: miter; stroke-linecap: square"/>
   </g>
   <g id="text_15">
    <!-- Delay in Network.node[5].app -->
    <g transform="translate(397.122203 22.504) scale(0.12 -0.12)">
     <defs>
      <path id="DejaVuSans-44" d="M 1259 4147 
L 1259 519 
L 2022 519 
Q 2988 519 3436 956 
Q 3884 1394 3884 2338 
Q 3884 3275 3436 3711 
Q 2988 4147 2022 4147 
L 1259 4147 
z
M 628 4666 
L 1925 4666 
Q 3281 4666 3915 4102 
Q 4550 3538 4550 2338 
Q 4550 1131 3912 565 
Q 3275 0 1925 0 
L 628 0 
L 628 4666 
z
" transform="scale(0.015625)"/>
      <path id="DejaVuSans-65" d="M 3597 1894 
L 3597 1613 
L 953 1613 
Q 991 1019 1311 708 
Q 1631 397 2203 397 
Q 2534 397 2845 478 
Q 3156 559 3463 722 
L 3463 178 
Q 3153 47 2828 -22 
Q 2503 -91 2169 -91 
Q 1331 -91 842 396 
Q 353 884 353 1716 
Q 353 2575 817 3079 
Q 1281 3584 2069 3584 
Q 2775 3584 3186 3129 
Q 3597 2675 3597 1894 
z
M 3022 2063 
Q 3016 2534 2758 2815 
Q 2500 3097 2075 3097 
Q 1594 3097 1305 2825 
Q 1016 2553 972 2059 
L 3022 2063 
z
" transform="scale(0.015625)"/>
      <path id="DejaVuSans-6c" d="M 603 4863 
L 1178 4863 
L 1178 0 
L 603 0 
L 603 4863 
z
" transform="scale(0.015625)"/>
      <path id="DejaVuSans-61" d="M 2194 1759 
Q 1497 1759 1228 1600 
Q 959 1441 959 1056 
Q 959 750 1161 570 
Q 1363 391 1709 391 
Q 2188 391 2477 730 
Q 2766 1069 2766 1631 
L 2766 1759 
L 2194 1759 
z
M 3341 1997 
L 3341 0 
L 2766 0 
L 2766 531 
Q 2569 213 2275 61 
Q 1981 -91 1556 -91 
Q 1019 -91 701 211 
Q 384 513 384 1019 
Q 384 1609 779 1909 
Q 1175 2209 1959 2209 
L 2766 2209 
L 2766 2266 
Q 2766 2663 2505 2880 
Q 2244 3097 1772 3097 
Q 1472 3097 1187 3025 
Q 903 2953 641 2809 
L 641 3341 
Q 956 3463 1253 3523 
Q 1550 3584 1831 3584 
Q 2591 3584 2966 3190 
Q 3341 2797 3341 1997 
z
" transform="scale(0.015625)"/>
      <path id="DejaVuSans-79" d="M 2059 -325 
Q 1816 -950 1584 -1140 
Q 1353 -1331 966 -1331 
L 506 -1331 
L 506 -850 
L 844 -850 
Q 1081 -850 1212 -737 
Q 1344 -625 1503 -206 
L 1606 56 
L 191 3500 
L 800 3500 
L 1894 763 
L 2988 3500 
L 3597 3500 
L 2059 -325 
z
" transform="scale(0.015625)"/>
      <path id="DejaVuSans-20" transform="scale(0.015625)"/>
      <path id="DejaVuSans-69" d="M 603 3500 
L 1178 3500 
L 1178 0 
L 603 0 
L 603 3500 
z
M 603 4863 
L 1178 4863 
L 1178 4134 
L 603 4134 
L 603 4863 
z
" transform="scale(0.015625)"/>
      <path id="DejaVuSans-6e" d="M 3513 2113 
L 3513 0 
L 2938 0 
L 2938 2094 
Q 2938 2591 2744 2837 
Q 2550 3084 2163 3084 
Q 1697 3084 1428 2787 
Q 1159 2491 1159 1978 
L 1159 0 
L 581 0 
L 581 3500 
L 1159 3500 
L 1159 2956 
Q 1366 3272 1645 3428 
Q 1925 3584 2291 3584 
Q 2894 3584 3203 3211 
Q 3513 2838 3513 2113 
z
" transform="scale(0.015625)"/>
      <path id="DejaVuSans-4e" d="M 628 4666 
L 1478 4666 
L 3547 763 
L 3547 4666 
L 4159 4666 
L 4159 0 
L 3309 0 
L 1241 3903 
L 1241 0 
L 628 0 
L 628 4666 
z
" transform="scale(0.015625)"/>
      <path id="DejaVuSans-74" d="M 1172 4494 
L 1172 3500 
L 2356 3500 
L 2356 3053 
L 1172 3053 
L 1172 1153 
Q 1172 725 1289 603 
Q 1406 481 1766 481 
L 2356 481 
L 2356 0 
L 1766 0 
Q 1100 0 847 248 
Q 594 497 594 1153 
L 594 3053 
L 172 3053 
L 172 3500 
L 594 3500 
L 594 4494 
L 1172 4494 
z
" transform="scale(0.015625)"/>
      <path id="DejaVuSans-77" d="M 269 3500 
L 844 3500 
L 1563 769 
L 2278 3500 
L 2956 3500 
L 3675 769 
L 4391 3500 
L 4966 3500 
L 4050 0 
L 3372 0 
L 2619 2869 
L 1863 0 
L 1184 0 
L 269 3500 
z
" transform="scale(0.015625)"/>
      <path id="DejaVuSans-6f" d="M 1959 3097 
Q 1497 3097 1228 2736 
Q 959 2375 959 1747 
Q 959 1119 1226 758 
Q 1494 397 1959 397 
Q 2419 397 2687 759 
Q 2956 1122 2956 1747 
Q 2956 2369 2687 2733 
Q 2419 3097 1959 3097 
z
M 1959 3584 
Q 2709 3584 3137 3096 
Q 3566 2609 3566 1747 
Q 3566 888 3137 398 
Q 2709 -91 1959 -91 
Q 1206 -91 779 398 
Q 353 888 353 1747 
Q 353 2609 779 3096 
Q 1206 3584 1959 3584 
z
" transform="scale(0.015625)"/>
      <path id="DejaVuSans-72" d="M 2631 2963 
Q 2534 3019 2420 3045 
Q 2306 3072 2169 3072 
Q 1681 3072 1420 2755 
Q 1159 2438 1159 1844 
L 1159 0 
L 581 0 
L 581 3500 
L 1159 3500 
L 1159 2956 
Q 1341 3275 1631 3429 
Q 1922 3584 2338 3584 
Q 2397 3584 2469 3576 
Q 2541 3569 2628 3553 
L 2631 2963 
z
" transform="scale(0.015625)"/>
      <path id="DejaVuSans-6b" d="M 581 4863 
L 1159 4863 
L 1159 1991 
L 2875 3500 
L 3609 3500 
L 1753 1863 
L 3688 0 
L 2938 0 
L 1159 1709 
L 1159 0 
L 581 0 
L 581 4863 
z
" transform="scale(0.015625)"/>
      <path id="DejaVuSans-2e" d="M 684 794 
L 1344 794 
L 1344 0 
L 684 0 
L 684 794 
z
" transform="scale(0.015625)"/>
      <path id="DejaVuSans-64" d="M 2906 2969 
L 2906 4863 
L 3481 4863 
L 3481 0 
L 2906 0 
L 2906 525 
Q 2725 213 2448 61 
Q 2172 -91 1784 -91 
Q 1150 -91 751 415 
Q 353 922 353 1747 
Q 353 2572 751 3078 
Q 1150 3584 1784 3584 
Q 2172 3584 2448 3432 
Q 2725 3281 2906 2969 
z
M 947 1747 
Q 947 1113 1208 752 
Q 1469 391 1925 391 
Q 2381 391 2643 752 
Q 2906 1113 2906 1747 
Q 2906 2381 2643 2742 
Q 2381 3103 1925 3103 
Q 1469 3103 1208 2742 
Q 947 2381 947 1747 
z
" transform="scale(0.015625)"/>
      <path id="DejaVuSans-5b" d="M 550 4863 
L 1875 4863 
L 1875 4416 
L 1125 4416 
L 1125 -397 
L 1875 -397 
L 1875 -844 
L 550 -844 
L 550 4863 
z
" transform="scale(0.015625)"/>
      <path id="DejaVuSans-5d" d="M 1947 4863 
L 1947 -844 
L 622 -844 
L 622 -397 
L 1369 -397 
L 1369 4416 
L 622 4416 
L 622 4863 
L 1947 4863 
z
" transform="scale(0.015625)"/>
      <path id="DejaVuSans-70" d="M 1159 525 
L 1159 -1331 
L 581 -1331 
L 581 3500 
L 1159 3500 
L 1159 2969 
Q 1341 3281 1617 3432 
Q 1894 3584 2278 3584 
Q 2916 3584 3314 3078 
Q 3713 2572 3713 1747 
Q 3713 922 3314 415 
Q 2916 -91 2278 -91 
Q 1894 -91 1617 61 
Q 1341 213 1159 525 
z
M 3116 1747 
Q 3116 2381 2855 2742 
Q 2594 3103 2138 3103 
Q 1681 3103 1420 2742 
Q 1159 2381 1159 1747 
Q 1159 1113 1420 752 
Q 1681 391 2138 391 
Q 2594 391 2855 752 
Q 3116 1113 3116 1747 
z
" transform="scale(0.015625)"/>
     </defs>
     <use xlink:href="#DejaVuSans-44"/>
     <use xlink:href="#DejaVuSans-65" x="77.001953"/>
     <use xlink:href="#DejaVuSans-6c" x="138.525391"/>
     <use xlink:href="#DejaVuSans-61" x="166.308594"/>
     <use xlink:href="#DejaVuSans-79" x="227.587891"/>
     <use xlink:href="#DejaVuSans-20" x="286.767578"/>
     <use xlink:href="#DejaVuSans-69" x="318.554688"/>
     <use xlink:href="#DejaVuSans-6e" x="346.337891"/>
     <use xlink:href="#DejaVuSans-20" x="409.716797"/>
     <use xlink:href="#DejaVuSans-4e" x="441.503906"/>
     <use xlink:href="#DejaVuSans-65" x="516.308594"/>
     <use xlink:href="#DejaVuSans-74" x="577.832031"/>
     <use xlink:href="#DejaVuSans-77" x="617.041016"/>
     <use xlink:href="#DejaVuSans-6f" x="698.828125"/>
     <use xlink:href="#DejaVuSans-72" x="760.009766"/>
     <use xlink:href="#DejaVuSans-6b" x="801.123047"/>
     <use xlink:href="#DejaVuSans-2e" x="859.033203"/>
     <use xlink:href="#DejaVuSans-6e" x="890.820312"/>
     <use xlink:href="#DejaVuSans-6f" x="954.199219"/>
     <use xlink:href="#DejaVuSans-64" x="1015.380859"/>
     <use xlink:href="#DejaVuSans-65" x="1078.857422"/>
     <use xlink:href="#DejaVuSans-5b" x="1140.380859"/>
     <use xlink:href="#DejaVuSans-35" x="1179.394531"/>
     <use xlink:href="#DejaVuSans-5d" x="1243.017578"/>
     <use xlink:href="#DejaVuSans-2e" x="1282.03125"/>
     <use xlink:href="#DejaVuSans-61" x="1313.818359"/>
     <use xlink:href="#DejaVuSans-70" x="1375.097656"/>
     <use xlink:href="#DejaVuSans-70" x="1438.574219"/>
    </g>
   </g>
   <g id="legend_1">
    <g id="patch_7">
     <path d="M 721.448438 51.182125 
L 907.65625 51.182125 
L 907.65625 33.504 
L 721.448438 33.504 
z
" style="fill: #ffffff; opacity: 0.8; stroke: #cccccc; stroke-linejoin: miter"/>
    </g>
    <g id="line2d_30">
     <path d="M 725.448438 41.602438 
L 735.448438 41.602438 
L 745.448438 41.602438 
" style="fill: none; stroke: #1f77b4; stroke-width: 1.5; stroke-linecap: square"/>
    </g>
    <g id="text_16">
     <!-- Delay in Network.node[5].app -->
     <g transform="translate(753.448438 45.102438) scale(0.1 -0.1)">
      <use xlink:href="#DejaVuSans-44"/>
      <use xlink:href="#DejaVuSans-65" x="77.001953"/>
      <use xlink:href="#DejaVuSans-6c" x="138.525391"/>
      <use xlink:href="#DejaVuSans-61" x="166.308594"/>
      <use xlink:href="#DejaVuSans-79" x="227.587891"/>
      <use xlink:href="#DejaVuSans-20" x="286.767578"/>
      <use xlink:href="#DejaVuSans-69" x="318.554688"/>
      <use xlink:href="#DejaVuSans-6e" x="346.337891"/>
      <use xlink:href="#DejaVuSans-20" x="409.716797"/>
      <use xlink:href="#DejaVuSans-4e" x="441.503906"/>
      <use xlink:href="#DejaVuSans-65" x="516.308594"/>
      <use xlink:href="#DejaVuSans-74" x="577.832031"/>
      <use xlink:href="#DejaVuSans-77" x="617.041016"/>
      <use xlink:href="#DejaVuSans-6f" x="698.828125"/>
      <use xlink:href="#DejaVuSans-72" x="760.009766"/>
      <use xlink:href="#DejaVuSans-6b" x="801.123047"/>
      <use xlink:href="#DejaVuSans-2e" x="859.033203"/>
      <use xlink:href="#DejaVuSans-6e" x="890.820312"/>
      <use xlink:href="#DejaVuSans-6f" x="954.199219"/>
      <use xlink:href="#DejaVuSans-64" x="1015.380859"/>
      <use xlink:href="#DejaVuSans-65" x="1078.857422"/>
      <use xlink:href="#DejaVuSans-5b" x="1140.380859"/>
      <use xlink:href="#DejaVuSans-35" x="1179.394531"/>
      <use xlink:href="#DejaVuSans-5d" x="1243.017578"/>
      <use xlink:href="#DejaVuSans-2e" x="1282.03125"/>
      <use xlink:href="#DejaVuSans-61" x="1313.818359"/>
      <use xlink:href="#DejaVuSans-70" x="1375.097656"/>
      <use xlink:href="#DejaVuSans-70" x="1438.574219"/>
     </g>
    </g>
   </g>
  </g>
 </g>
 <defs>
  <clipPath id="pa181db231c">
   <rect x="61.837531" y="28.504" width="850.818719" height="308.411583"/>
  </clipPath>
 </defs>
</svg>
