<?xml version="1.0" encoding="utf-8" standalone="no"?>
<!DOCTYPE svg PUBLIC "-//W3C//DTD SVG 1.1//EN"
  "http://www.w3.org/Graphics/SVG/1.1/DTD/svg11.dtd">
<svg xmlns:xlink="http://www.w3.org/1999/xlink" width="1101.6pt" height="568.08pt" viewBox="0 0 1101.6 568.08" xmlns="http://www.w3.org/2000/svg" version="1.1">
 <metadata>
  <rdf:RDF xmlns:dc="http://purl.org/dc/elements/1.1/" xmlns:cc="http://creativecommons.org/ns#" xmlns:rdf="http://www.w3.org/1999/02/22-rdf-syntax-ns#">
   <cc:Work>
    <dc:type rdf:resource="http://purl.org/dc/dcmitype/StillImage"/>
    <dc:date>2023-05-23T19:33:32.048388</dc:date>
    <dc:format>image/svg+xml</dc:format>
    <dc:creator>
     <cc:Agent>
      <dc:title>Matplotlib v3.5.2, https://matplotlib.org/</dc:title>
     </cc:Agent>
    </dc:creator>
   </cc:Work>
  </rdf:RDF>
 </metadata>
 <defs>
  <style type="text/css">*{stroke-linejoin: round; stroke-linecap: butt}</style>
 </defs>
 <g id="figure_1">
  <g id="patch_1">
   <path d="M 0 568.08 
L 1101.6 568.08 
L 1101.6 0 
L 0 0 
z
" style="fill: #ffffff"/>
  </g>
  <g id="axes_1">
   <g id="patch_2">
    <path d="M 87.951094 522.25225 
L 1075.78125 522.25225 
L 1075.78125 44.184 
L 87.951094 44.184 
z
" style="fill: #ffffff"/>
   </g>
   <g id="matplotlib.axis_1">
    <g id="xtick_1">
     <g id="line2d_1">
      <path d="M 128.798614 522.25225 
L 128.798614 44.184 
" clip-path="url(#pf2d78ba054)" style="fill: none; stroke: #b0b0b0; stroke-width: 0.8; stroke-linecap: square"/>
     </g>
     <g id="line2d_2">
      <defs>
       <path id="mcf0d655922" d="M 0 0 
L 0 3.5 
" style="stroke: #000000; stroke-width: 0.8"/>
      </defs>
      <g>
       <use xlink:href="#mcf0d655922" x="128.798614" y="522.25225" style="stroke: #000000; stroke-width: 0.8"/>
      </g>
     </g>
     <g id="text_1">
      <!-- 0 -->
      <g transform="translate(125.617364 536.850687)scale(0.1 -0.1)">
       <defs>
        <path id="DejaVuSans-30" d="M 2034 4250 
Q 1547 4250 1301 3770 
Q 1056 3291 1056 2328 
Q 1056 1369 1301 889 
Q 1547 409 2034 409 
Q 2525 409 2770 889 
Q 3016 1369 3016 2328 
Q 3016 3291 2770 3770 
Q 2525 4250 2034 4250 
z
M 2034 4750 
Q 2819 4750 3233 4129 
Q 3647 3509 3647 2328 
Q 3647 1150 3233 529 
Q 2819 -91 2034 -91 
Q 1250 -91 836 529 
Q 422 1150 422 2328 
Q 422 3509 836 4129 
Q 1250 4750 2034 4750 
z
" transform="scale(0.015625)"/>
       </defs>
       <use xlink:href="#DejaVuSans-30"/>
      </g>
     </g>
    </g>
    <g id="xtick_2">
     <g id="line2d_3">
      <path d="M 241.585985 522.25225 
L 241.585985 44.184 
" clip-path="url(#pf2d78ba054)" style="fill: none; stroke: #b0b0b0; stroke-width: 0.8; stroke-linecap: square"/>
     </g>
     <g id="line2d_4">
      <g>
       <use xlink:href="#mcf0d655922" x="241.585985" y="522.25225" style="stroke: #000000; stroke-width: 0.8"/>
      </g>
     </g>
     <g id="text_2">
      <!-- 25 -->
      <g transform="translate(235.223485 536.850687)scale(0.1 -0.1)">
       <defs>
        <path id="DejaVuSans-32" d="M 1228 531 
L 3431 531 
L 3431 0 
L 469 0 
L 469 531 
Q 828 903 1448 1529 
Q 2069 2156 2228 2338 
Q 2531 2678 2651 2914 
Q 2772 3150 2772 3378 
Q 2772 3750 2511 3984 
Q 2250 4219 1831 4219 
Q 1534 4219 1204 4116 
Q 875 4013 500 3803 
L 500 4441 
Q 881 4594 1212 4672 
Q 1544 4750 1819 4750 
Q 2544 4750 2975 4387 
Q 3406 4025 3406 3419 
Q 3406 3131 3298 2873 
Q 3191 2616 2906 2266 
Q 2828 2175 2409 1742 
Q 1991 1309 1228 531 
z
" transform="scale(0.015625)"/>
        <path id="DejaVuSans-35" d="M 691 4666 
L 3169 4666 
L 3169 4134 
L 1269 4134 
L 1269 2991 
Q 1406 3038 1543 3061 
Q 1681 3084 1819 3084 
Q 2600 3084 3056 2656 
Q 3513 2228 3513 1497 
Q 3513 744 3044 326 
Q 2575 -91 1722 -91 
Q 1428 -91 1123 -41 
Q 819 9 494 109 
L 494 744 
Q 775 591 1075 516 
Q 1375 441 1709 441 
Q 2250 441 2565 725 
Q 2881 1009 2881 1497 
Q 2881 1984 2565 2268 
Q 2250 2553 1709 2553 
Q 1456 2553 1204 2497 
Q 953 2441 691 2322 
L 691 4666 
z
" transform="scale(0.015625)"/>
       </defs>
       <use xlink:href="#DejaVuSans-32"/>
       <use xlink:href="#DejaVuSans-35" x="63.623047"/>
      </g>
     </g>
    </g>
    <g id="xtick_3">
     <g id="line2d_5">
      <path d="M 354.373355 522.25225 
L 354.373355 44.184 
" clip-path="url(#pf2d78ba054)" style="fill: none; stroke: #b0b0b0; stroke-width: 0.8; stroke-linecap: square"/>
     </g>
     <g id="line2d_6">
      <g>
       <use xlink:href="#mcf0d655922" x="354.373355" y="522.25225" style="stroke: #000000; stroke-width: 0.8"/>
      </g>
     </g>
     <g id="text_3">
      <!-- 50 -->
      <g transform="translate(348.010855 536.850687)scale(0.1 -0.1)">
       <use xlink:href="#DejaVuSans-35"/>
       <use xlink:href="#DejaVuSans-30" x="63.623047"/>
      </g>
     </g>
    </g>
    <g id="xtick_4">
     <g id="line2d_7">
      <path d="M 467.160726 522.25225 
L 467.160726 44.184 
" clip-path="url(#pf2d78ba054)" style="fill: none; stroke: #b0b0b0; stroke-width: 0.8; stroke-linecap: square"/>
     </g>
     <g id="line2d_8">
      <g>
       <use xlink:href="#mcf0d655922" x="467.160726" y="522.25225" style="stroke: #000000; stroke-width: 0.8"/>
      </g>
     </g>
     <g id="text_4">
      <!-- 75 -->
      <g transform="translate(460.798226 536.850687)scale(0.1 -0.1)">
       <defs>
        <path id="DejaVuSans-37" d="M 525 4666 
L 3525 4666 
L 3525 4397 
L 1831 0 
L 1172 0 
L 2766 4134 
L 525 4134 
L 525 4666 
z
" transform="scale(0.015625)"/>
       </defs>
       <use xlink:href="#DejaVuSans-37"/>
       <use xlink:href="#DejaVuSans-35" x="63.623047"/>
      </g>
     </g>
    </g>
    <g id="xtick_5">
     <g id="line2d_9">
      <path d="M 579.948097 522.25225 
L 579.948097 44.184 
" clip-path="url(#pf2d78ba054)" style="fill: none; stroke: #b0b0b0; stroke-width: 0.8; stroke-linecap: square"/>
     </g>
     <g id="line2d_10">
      <g>
       <use xlink:href="#mcf0d655922" x="579.948097" y="522.25225" style="stroke: #000000; stroke-width: 0.8"/>
      </g>
     </g>
     <g id="text_5">
      <!-- 100 -->
      <g transform="translate(570.404347 536.850687)scale(0.1 -0.1)">
       <defs>
        <path id="DejaVuSans-31" d="M 794 531 
L 1825 531 
L 1825 4091 
L 703 3866 
L 703 4441 
L 1819 4666 
L 2450 4666 
L 2450 531 
L 3481 531 
L 3481 0 
L 794 0 
L 794 531 
z
" transform="scale(0.015625)"/>
       </defs>
       <use xlink:href="#DejaVuSans-31"/>
       <use xlink:href="#DejaVuSans-30" x="63.623047"/>
       <use xlink:href="#DejaVuSans-30" x="127.246094"/>
      </g>
     </g>
    </g>
    <g id="xtick_6">
     <g id="line2d_11">
      <path d="M 692.735468 522.25225 
L 692.735468 44.184 
" clip-path="url(#pf2d78ba054)" style="fill: none; stroke: #b0b0b0; stroke-width: 0.8; stroke-linecap: square"/>
     </g>
     <g id="line2d_12">
      <g>
       <use xlink:href="#mcf0d655922" x="692.735468" y="522.25225" style="stroke: #000000; stroke-width: 0.8"/>
      </g>
     </g>
     <g id="text_6">
      <!-- 125 -->
      <g transform="translate(683.191718 536.850687)scale(0.1 -0.1)">
       <use xlink:href="#DejaVuSans-31"/>
       <use xlink:href="#DejaVuSans-32" x="63.623047"/>
       <use xlink:href="#DejaVuSans-35" x="127.246094"/>
      </g>
     </g>
    </g>
    <g id="xtick_7">
     <g id="line2d_13">
      <path d="M 805.522838 522.25225 
L 805.522838 44.184 
" clip-path="url(#pf2d78ba054)" style="fill: none; stroke: #b0b0b0; stroke-width: 0.8; stroke-linecap: square"/>
     </g>
     <g id="line2d_14">
      <g>
       <use xlink:href="#mcf0d655922" x="805.522838" y="522.25225" style="stroke: #000000; stroke-width: 0.8"/>
      </g>
     </g>
     <g id="text_7">
      <!-- 150 -->
      <g transform="translate(795.979088 536.850687)scale(0.1 -0.1)">
       <use xlink:href="#DejaVuSans-31"/>
       <use xlink:href="#DejaVuSans-35" x="63.623047"/>
       <use xlink:href="#DejaVuSans-30" x="127.246094"/>
      </g>
     </g>
    </g>
    <g id="xtick_8">
     <g id="line2d_15">
      <path d="M 918.310209 522.25225 
L 918.310209 44.184 
" clip-path="url(#pf2d78ba054)" style="fill: none; stroke: #b0b0b0; stroke-width: 0.8; stroke-linecap: square"/>
     </g>
     <g id="line2d_16">
      <g>
       <use xlink:href="#mcf0d655922" x="918.310209" y="522.25225" style="stroke: #000000; stroke-width: 0.8"/>
      </g>
     </g>
     <g id="text_8">
      <!-- 175 -->
      <g transform="translate(908.766459 536.850687)scale(0.1 -0.1)">
       <use xlink:href="#DejaVuSans-31"/>
       <use xlink:href="#DejaVuSans-37" x="63.623047"/>
       <use xlink:href="#DejaVuSans-35" x="127.246094"/>
      </g>
     </g>
    </g>
    <g id="xtick_9">
     <g id="line2d_17">
      <path d="M 1031.09758 522.25225 
L 1031.09758 44.184 
" clip-path="url(#pf2d78ba054)" style="fill: none; stroke: #b0b0b0; stroke-width: 0.8; stroke-linecap: square"/>
     </g>
     <g id="line2d_18">
      <g>
       <use xlink:href="#mcf0d655922" x="1031.09758" y="522.25225" style="stroke: #000000; stroke-width: 0.8"/>
      </g>
     </g>
     <g id="text_9">
      <!-- 200 -->
      <g transform="translate(1021.55383 536.850687)scale(0.1 -0.1)">
       <use xlink:href="#DejaVuSans-32"/>
       <use xlink:href="#DejaVuSans-30" x="63.623047"/>
       <use xlink:href="#DejaVuSans-30" x="127.246094"/>
      </g>
     </g>
    </g>
   </g>
   <g id="matplotlib.axis_2">
    <g id="ytick_1">
     <g id="line2d_19">
      <path d="M 87.951094 500.521875 
L 1075.78125 500.521875 
" clip-path="url(#pf2d78ba054)" style="fill: none; stroke: #b0b0b0; stroke-width: 0.8; stroke-linecap: square"/>
     </g>
     <g id="line2d_20">
      <defs>
       <path id="m4e7a21e18e" d="M 0 0 
L -3.5 0 
" style="stroke: #000000; stroke-width: 0.8"/>
      </defs>
      <g>
       <use xlink:href="#m4e7a21e18e" x="87.951094" y="500.521875" style="stroke: #000000; stroke-width: 0.8"/>
      </g>
     </g>
     <g id="text_10">
      <!-- 0 -->
      <g transform="translate(74.588594 504.321094)scale(0.1 -0.1)">
       <use xlink:href="#DejaVuSans-30"/>
      </g>
     </g>
    </g>
    <g id="ytick_2">
     <g id="line2d_21">
      <path d="M 87.951094 446.733818 
L 1075.78125 446.733818 
" clip-path="url(#pf2d78ba054)" style="fill: none; stroke: #b0b0b0; stroke-width: 0.8; stroke-linecap: square"/>
     </g>
     <g id="line2d_22">
      <g>
       <use xlink:href="#m4e7a21e18e" x="87.951094" y="446.733818" style="stroke: #000000; stroke-width: 0.8"/>
      </g>
     </g>
     <g id="text_11">
      <!-- 25 -->
      <g transform="translate(68.226094 450.533037)scale(0.1 -0.1)">
       <use xlink:href="#DejaVuSans-32"/>
       <use xlink:href="#DejaVuSans-35" x="63.623047"/>
      </g>
     </g>
    </g>
    <g id="ytick_3">
     <g id="line2d_23">
      <path d="M 87.951094 392.945761 
L 1075.78125 392.945761 
" clip-path="url(#pf2d78ba054)" style="fill: none; stroke: #b0b0b0; stroke-width: 0.8; stroke-linecap: square"/>
     </g>
     <g id="line2d_24">
      <g>
       <use xlink:href="#m4e7a21e18e" x="87.951094" y="392.945761" style="stroke: #000000; stroke-width: 0.8"/>
      </g>
     </g>
     <g id="text_12">
      <!-- 50 -->
      <g transform="translate(68.226094 396.74498)scale(0.1 -0.1)">
       <use xlink:href="#DejaVuSans-35"/>
       <use xlink:href="#DejaVuSans-30" x="63.623047"/>
      </g>
     </g>
    </g>
    <g id="ytick_4">
     <g id="line2d_25">
      <path d="M 87.951094 339.157704 
L 1075.78125 339.157704 
" clip-path="url(#pf2d78ba054)" style="fill: none; stroke: #b0b0b0; stroke-width: 0.8; stroke-linecap: square"/>
     </g>
     <g id="line2d_26">
      <g>
       <use xlink:href="#m4e7a21e18e" x="87.951094" y="339.157704" style="stroke: #000000; stroke-width: 0.8"/>
      </g>
     </g>
     <g id="text_13">
      <!-- 75 -->
      <g transform="translate(68.226094 342.956923)scale(0.1 -0.1)">
       <use xlink:href="#DejaVuSans-37"/>
       <use xlink:href="#DejaVuSans-35" x="63.623047"/>
      </g>
     </g>
    </g>
    <g id="ytick_5">
     <g id="line2d_27">
      <path d="M 87.951094 285.369647 
L 1075.78125 285.369647 
" clip-path="url(#pf2d78ba054)" style="fill: none; stroke: #b0b0b0; stroke-width: 0.8; stroke-linecap: square"/>
     </g>
     <g id="line2d_28">
      <g>
       <use xlink:href="#m4e7a21e18e" x="87.951094" y="285.369647" style="stroke: #000000; stroke-width: 0.8"/>
      </g>
     </g>
     <g id="text_14">
      <!-- 100 -->
      <g transform="translate(61.863594 289.168866)scale(0.1 -0.1)">
       <use xlink:href="#DejaVuSans-31"/>
       <use xlink:href="#DejaVuSans-30" x="63.623047"/>
       <use xlink:href="#DejaVuSans-30" x="127.246094"/>
      </g>
     </g>
    </g>
    <g id="ytick_6">
     <g id="line2d_29">
      <path d="M 87.951094 231.58159 
L 1075.78125 231.58159 
" clip-path="url(#pf2d78ba054)" style="fill: none; stroke: #b0b0b0; stroke-width: 0.8; stroke-linecap: square"/>
     </g>
     <g id="line2d_30">
      <g>
       <use xlink:href="#m4e7a21e18e" x="87.951094" y="231.58159" style="stroke: #000000; stroke-width: 0.8"/>
      </g>
     </g>
     <g id="text_15">
      <!-- 125 -->
      <g transform="translate(61.863594 235.380809)scale(0.1 -0.1)">
       <use xlink:href="#DejaVuSans-31"/>
       <use xlink:href="#DejaVuSans-32" x="63.623047"/>
       <use xlink:href="#DejaVuSans-35" x="127.246094"/>
      </g>
     </g>
    </g>
    <g id="ytick_7">
     <g id="line2d_31">
      <path d="M 87.951094 177.793533 
L 1075.78125 177.793533 
" clip-path="url(#pf2d78ba054)" style="fill: none; stroke: #b0b0b0; stroke-width: 0.8; stroke-linecap: square"/>
     </g>
     <g id="line2d_32">
      <g>
       <use xlink:href="#m4e7a21e18e" x="87.951094" y="177.793533" style="stroke: #000000; stroke-width: 0.8"/>
      </g>
     </g>
     <g id="text_16">
      <!-- 150 -->
      <g transform="translate(61.863594 181.592752)scale(0.1 -0.1)">
       <use xlink:href="#DejaVuSans-31"/>
       <use xlink:href="#DejaVuSans-35" x="63.623047"/>
       <use xlink:href="#DejaVuSans-30" x="127.246094"/>
      </g>
     </g>
    </g>
    <g id="ytick_8">
     <g id="line2d_33">
      <path d="M 87.951094 124.005476 
L 1075.78125 124.005476 
" clip-path="url(#pf2d78ba054)" style="fill: none; stroke: #b0b0b0; stroke-width: 0.8; stroke-linecap: square"/>
     </g>
     <g id="line2d_34">
      <g>
       <use xlink:href="#m4e7a21e18e" x="87.951094" y="124.005476" style="stroke: #000000; stroke-width: 0.8"/>
      </g>
     </g>
     <g id="text_17">
      <!-- 175 -->
      <g transform="translate(61.863594 127.804695)scale(0.1 -0.1)">
       <use xlink:href="#DejaVuSans-31"/>
       <use xlink:href="#DejaVuSans-37" x="63.623047"/>
       <use xlink:href="#DejaVuSans-35" x="127.246094"/>
      </g>
     </g>
    </g>
    <g id="ytick_9">
     <g id="line2d_35">
      <path d="M 87.951094 70.21742 
L 1075.78125 70.21742 
" clip-path="url(#pf2d78ba054)" style="fill: none; stroke: #b0b0b0; stroke-width: 0.8; stroke-linecap: square"/>
     </g>
     <g id="line2d_36">
      <g>
       <use xlink:href="#m4e7a21e18e" x="87.951094" y="70.21742" style="stroke: #000000; stroke-width: 0.8"/>
      </g>
     </g>
     <g id="text_18">
      <!-- 200 -->
      <g transform="translate(61.863594 74.016638)scale(0.1 -0.1)">
       <use xlink:href="#DejaVuSans-32"/>
       <use xlink:href="#DejaVuSans-30" x="63.623047"/>
       <use xlink:href="#DejaVuSans-30" x="127.246094"/>
      </g>
     </g>
    </g>
   </g>
   <g id="line2d_37">
    <path d="M 132.852464 498.370353 
L 132.852464 500.521875 
L 134.288727 498.370353 
L 137.2187 496.21883 
L 137.363959 498.370353 
L 140.614386 496.21883 
L 141.700155 494.067308 
L 141.875454 496.21883 
L 146.386949 498.370353 
L 146.626893 496.21883 
L 148.772834 494.067308 
L 150.898444 496.21883 
L 151.138387 494.067308 
L 155.409939 496.21883 
L 155.649882 494.067308 
L 159.921433 496.21883 
L 160.161377 494.067308 
L 164.432928 496.21883 
L 164.672872 494.067308 
L 166.120533 491.915786 
L 167.050818 489.764264 
L 168.151841 487.612741 
L 168.807263 485.461219 
L 168.892839 483.309697 
L 168.944423 485.461219 
L 169.184367 483.309697 
L 170.660311 481.158175 
L 171.79469 479.006652 
L 173.455918 481.158175 
L 173.998813 476.85513 
L 176.695541 474.703608 
L 177.967413 476.85513 
L 178.207356 474.703608 
L 182.091775 472.552085 
L 182.478908 474.703608 
L 182.718851 472.552085 
L 186.990402 474.703608 
L 187.230346 470.400563 
L 190.911861 468.249041 
L 191.501897 470.400563 
L 191.968912 466.097519 
L 192.762545 463.945996 
L 196.013392 466.097519 
L 196.253336 463.945996 
L 200.524887 466.097519 
L 200.764831 463.945996 
L 205.036382 466.097519 
L 205.276325 463.945996 
L 209.547877 466.097519 
L 209.78782 463.945996 
L 214.059371 466.097519 
L 214.299315 463.945996 
L 216.94461 461.794474 
L 218.570866 463.945996 
L 218.81081 461.794474 
L 223.082361 463.945996 
L 223.322305 461.794474 
L 227.593856 463.945996 
L 227.8338 461.794474 
L 232.105351 463.945996 
L 232.345294 461.794474 
L 233.916525 459.642952 
L 236.616846 461.794474 
L 236.856789 459.642952 
L 241.12834 461.794474 
L 241.368284 459.642952 
L 242.954134 457.491429 
L 245.639835 459.642952 
L 245.879779 457.491429 
L 248.638319 455.339907 
L 250.15133 457.491429 
L 250.391274 455.339907 
L 252.622551 453.188385 
L 254.662825 455.339907 
L 254.902769 453.188385 
L 258.617236 451.036863 
L 259.17432 453.188385 
L 259.414263 451.036863 
L 262.448491 448.88534 
L 263.685815 451.036863 
L 263.925758 448.88534 
L 265.122111 446.733818 
L 268.197309 448.88534 
L 268.437253 446.733818 
L 272.708804 448.88534 
L 272.948748 446.733818 
L 273.574216 444.582296 
L 277.220299 446.733818 
L 277.460243 444.582296 
L 278.65092 442.430774 
L 281.731794 444.582296 
L 281.971737 442.430774 
L 282.656502 440.279251 
L 286.243289 442.430774 
L 286.483232 440.279251 
L 287.519148 438.127729 
L 290.754784 440.279251 
L 290.994727 438.127729 
L 291.725679 435.976207 
L 293.258075 433.824684 
L 295.266278 435.976207 
L 295.506222 433.824684 
L 299.497378 431.673162 
L 299.777773 433.824684 
L 300.017717 431.673162 
L 304.289268 433.824684 
L 304.529212 431.673162 
L 308.800763 433.824684 
L 309.040706 431.673162 
L 313.312258 433.824684 
L 313.552201 431.673162 
L 315.163704 429.52164 
L 317.823753 431.673162 
L 318.063696 429.52164 
L 322.335247 431.673162 
L 322.575191 429.52164 
L 323.463649 427.370118 
L 324.059995 425.218595 
L 326.846742 427.370118 
L 327.086686 425.218595 
L 330.871556 423.067073 
L 331.023985 420.915551 
L 331.347348 418.764028 
L 331.358237 420.915551 
L 331.598181 418.764028 
L 335.869732 420.915551 
L 336.109675 418.764028 
L 340.381227 420.915551 
L 340.62117 418.764028 
L 344.892721 420.915551 
L 345.132665 418.764028 
L 349.404216 420.915551 
L 349.618211 418.764028 
L 349.64416 416.612506 
L 350.624903 414.460984 
L 353.433747 412.309462 
L 353.915711 414.460984 
L 354.155655 412.309462 
L 358.427206 414.460984 
L 359.16551 408.006417 
L 362.938701 410.157939 
L 363.178644 405.854895 
L 364.452492 403.703373 
L 367.450196 405.854895 
L 367.690139 403.703373 
L 369.580241 401.55185 
L 371.96169 403.703373 
L 372.201634 401.55185 
L 376.473185 403.703373 
L 376.713129 401.55185 
L 380.98468 403.703373 
L 381.224624 401.55185 
L 384.639315 399.400328 
L 385.496175 401.55185 
L 385.736119 399.400328 
L 386.325124 397.248806 
L 390.00767 399.400328 
L 390.247613 397.248806 
L 390.662654 395.097283 
L 394.519165 397.248806 
L 394.759108 395.097283 
L 396.807002 392.945761 
L 399.030659 395.097283 
L 399.270603 392.945761 
L 403.542154 395.097283 
L 403.782098 392.945761 
L 407.047373 390.794239 
L 408.053649 392.945761 
L 408.293593 390.794239 
L 411.729628 388.642717 
L 412.565144 390.794239 
L 412.805088 388.642717 
L 415.038213 386.491194 
L 417.076639 388.642717 
L 417.538352 384.339672 
L 421.588134 386.491194 
L 421.828077 384.339672 
L 422.677204 382.18815 
L 426.099628 384.339672 
L 426.339572 382.18815 
L 429.691058 380.036627 
L 430.611123 382.18815 
L 430.851067 380.036627 
L 432.570243 377.885105 
L 434.684674 375.733583 
L 435.122618 377.885105 
L 435.362562 375.733583 
L 435.776094 373.582061 
L 437.243304 371.430538 
L 439.634113 373.582061 
L 439.874057 371.430538 
L 444.145608 373.582061 
L 444.385551 371.430538 
L 446.239402 369.279016 
L 447.546907 364.975972 
L 448.657103 367.127494 
L 448.897046 364.975972 
L 453.168597 367.127494 
L 453.408541 364.975972 
L 457.680092 367.127494 
L 457.920036 364.975972 
L 460.272191 362.824449 
L 460.346929 360.672927 
L 462.191587 362.824449 
L 462.431531 360.672927 
L 466.703082 362.824449 
L 466.943026 360.672927 
L 471.214577 362.824449 
L 471.45452 360.672927 
L 472.313933 358.521405 
L 474.175962 356.369882 
L 475.287665 354.21836 
L 475.726072 356.369882 
L 475.966015 354.21836 
L 478.027403 352.066838 
L 480.237566 354.21836 
L 480.47751 352.066838 
L 481.085303 349.915316 
L 484.749061 352.066838 
L 484.989005 349.915316 
L 489.260556 352.066838 
L 489.5005 349.915316 
L 493.772051 352.066838 
L 494.011994 347.763793 
L 495.807105 345.612271 
L 498.283546 347.763793 
L 498.523489 345.612271 
L 502.795041 347.763793 
L 503.034984 345.612271 
L 504.752266 343.460749 
L 506.168866 341.309226 
L 507.306535 343.460749 
L 507.546479 341.309226 
L 508.553043 339.157704 
L 510.148292 337.006182 
L 510.728381 334.85466 
L 511.81803 337.006182 
L 512.057974 334.85466 
L 516.329525 337.006182 
L 516.569469 334.85466 
L 520.84102 337.006182 
L 521.080963 334.85466 
L 525.352515 337.006182 
L 525.592458 334.85466 
L 528.538108 332.703137 
L 529.86401 334.85466 
L 530.313393 330.551615 
L 530.428615 326.248571 
L 533.868286 324.097048 
L 534.375504 326.248571 
L 534.615448 324.097048 
L 535.16991 321.945526 
L 538.886999 324.097048 
L 539.126943 321.945526 
L 542.672371 319.794004 
L 543.398494 321.945526 
L 543.638438 319.794004 
L 544.822002 317.642481 
L 545.457978 315.490959 
L 547.07743 313.339437 
L 547.909989 315.490959 
L 548.448796 311.187915 
L 551.196587 309.036392 
L 552.421484 311.187915 
L 552.661427 309.036392 
L 553.759885 306.88487 
L 556.932979 309.036392 
L 557.172922 306.88487 
L 560.7696 304.733348 
L 561.444473 306.88487 
L 561.684417 304.733348 
L 562.88146 302.581825 
L 563.527745 300.430303 
L 564.517875 298.278781 
L 565.955968 300.430303 
L 566.195912 298.278781 
L 570.467463 300.430303 
L 570.707407 298.278781 
L 571.332314 296.127259 
L 574.356062 293.975736 
L 574.978958 296.127259 
L 575.218901 293.975736 
L 577.265563 291.824214 
L 579.490453 293.975736 
L 579.730396 291.824214 
L 580.483993 289.672692 
L 583.97969 287.52117 
L 584.001947 289.672692 
L 584.241891 287.52117 
L 584.914405 285.369647 
L 588.455193 283.218125 
L 588.513442 285.369647 
L 588.753386 283.218125 
L 593.024937 285.369647 
L 593.264881 283.218125 
L 595.724709 281.066603 
L 597.536432 283.218125 
L 597.776376 281.066603 
L 598.231561 278.91508 
L 600.02299 276.763558 
L 602.047927 278.91508 
L 602.28787 276.763558 
L 606.401266 274.612036 
L 606.559422 276.763558 
L 606.799365 274.612036 
L 609.165664 272.460514 
L 611.070916 274.612036 
L 611.31086 272.460514 
L 612.847128 270.308991 
L 615.582411 272.460514 
L 615.822355 270.308991 
L 620.093906 272.460514 
L 620.33385 270.308991 
L 621.815706 268.157469 
L 622.263344 266.005947 
L 624.605401 268.157469 
L 624.845345 266.005947 
L 626.735496 263.854425 
L 629.116896 266.005947 
L 629.356839 261.702902 
L 633.628391 263.854425 
L 633.868334 261.702902 
L 635.340821 259.55138 
L 637.988026 257.399858 
L 638.0623 255.248335 
L 638.139885 257.399858 
L 638.379829 255.248335 
L 641.486365 253.096813 
L 642.65138 255.248335 
L 642.891324 253.096813 
L 647.162875 255.248335 
L 647.402819 253.096813 
L 651.67437 255.248335 
L 651.914314 253.096813 
L 654.596407 250.945291 
L 655.230162 248.793769 
L 656.185865 250.945291 
L 656.425808 248.793769 
L 658.277027 246.642246 
L 658.487871 244.490724 
L 660.69736 246.642246 
L 660.937303 242.339202 
L 665.208854 244.490724 
L 665.448798 242.339202 
L 665.454739 240.187679 
L 669.720349 242.339202 
L 669.960293 240.187679 
L 674.231844 242.339202 
L 674.471788 240.187679 
L 678.743339 242.339202 
L 678.983283 240.187679 
L 683.254834 242.339202 
L 683.494777 240.187679 
L 685.972223 238.036157 
L 687.766329 240.187679 
L 688.006272 238.036157 
L 688.645994 235.884635 
L 692.277823 238.036157 
L 692.517767 235.884635 
L 696.604665 233.733113 
L 696.789318 235.884635 
L 697.029262 233.733113 
L 701.300813 235.884635 
L 701.540757 233.733113 
L 705.812308 235.884635 
L 706.052252 233.733113 
L 710.323803 235.884635 
L 710.563746 233.733113 
L 712.272436 231.58159 
L 714.835298 233.733113 
L 715.075241 231.58159 
L 717.55285 229.430068 
L 719.346792 231.58159 
L 719.586736 229.430068 
L 722.052159 227.278546 
L 723.821393 225.127024 
L 723.858287 227.278546 
L 724.098231 225.127024 
L 728.369782 227.278546 
L 728.609726 225.127024 
L 730.982747 222.975501 
L 731.998025 220.823979 
L 732.881277 222.975501 
L 733.12122 220.823979 
L 736.532599 218.672457 
L 737.392772 220.823979 
L 737.632715 218.672457 
L 741.904267 220.823979 
L 742.14421 218.672457 
L 742.800683 216.520934 
L 743.132306 214.369412 
L 746.415761 216.520934 
L 746.655705 214.369412 
L 748.146358 210.066368 
L 750.584382 207.914845 
L 750.927256 210.066368 
L 751.1672 205.763323 
L 753.237012 203.611801 
L 753.576239 201.460278 
L 753.664165 199.308756 
L 755.438751 201.460278 
L 755.678695 199.308756 
L 757.235505 197.157234 
L 758.586035 195.005712 
L 759.950246 197.157234 
L 760.190189 195.005712 
L 764.461741 197.157234 
L 764.701684 195.005712 
L 768.830332 192.854189 
L 768.973236 195.005712 
L 769.213179 192.854189 
L 770.118675 190.702667 
L 771.795217 188.551145 
L 773.48473 190.702667 
L 773.901473 186.399623 
L 774.022745 184.2481 
L 777.996225 186.399623 
L 778.236169 184.2481 
L 780.287755 182.096578 
L 781.120649 179.945056 
L 782.50772 182.096578 
L 782.747664 179.945056 
L 787.019215 182.096578 
L 787.259158 179.945056 
L 791.53071 182.096578 
L 791.576156 179.945056 
L 791.770653 177.793533 
L 796.042204 179.945056 
L 796.282148 177.793533 
L 800.553699 179.945056 
L 800.793643 177.793533 
L 804.637464 175.642011 
L 805.065194 177.793533 
L 805.305138 175.642011 
L 806.741161 173.490489 
L 808.762707 171.338967 
L 808.873751 169.187444 
L 809.576689 171.338967 
L 809.816633 169.187444 
L 811.374331 167.035922 
L 814.088184 169.187444 
L 814.328127 167.035922 
L 816.671142 164.8844 
L 818.599679 167.035922 
L 818.839622 164.8844 
L 822.481452 162.732877 
L 823.111173 164.8844 
L 823.351117 162.732877 
L 826.490045 160.581355 
L 826.566811 158.429833 
L 827.622668 160.581355 
L 827.862612 158.429833 
L 831.531569 156.278311 
L 832.134163 158.429833 
L 832.374107 156.278311 
L 836.645658 158.429833 
L 836.885602 154.126788 
L 841.157153 156.278311 
L 841.397096 154.126788 
L 845.668648 156.278311 
L 845.908591 154.126788 
L 848.112952 151.975266 
L 850.180142 154.126788 
L 850.420086 151.975266 
L 854.691637 154.126788 
L 854.931581 151.975266 
L 857.948103 149.823744 
L 859.203132 151.975266 
L 859.443076 149.823744 
L 860.681511 145.520699 
L 863.714627 147.672222 
L 863.954571 145.520699 
L 865.831904 143.369177 
L 866.388665 141.217655 
L 866.554233 139.066132 
L 867.061911 136.91461 
L 867.928549 134.763088 
L 868.226122 136.91461 
L 868.466065 134.763088 
L 870.922302 130.460043 
L 872.737617 132.611566 
L 872.97756 130.460043 
L 874.654779 128.308521 
L 877.249111 130.460043 
L 877.489055 128.308521 
L 878.765408 126.156999 
L 881.760606 128.308521 
L 882.00055 126.156999 
L 882.688674 124.005476 
L 884.711309 121.853954 
L 886.272101 124.005476 
L 886.512045 121.853954 
L 890.783596 124.005476 
L 891.02354 121.853954 
L 894.220549 119.702432 
L 895.295091 121.853954 
L 895.535034 119.702432 
L 897.616665 117.55091 
L 899.806586 119.702432 
L 900.046529 117.55091 
L 903.285357 113.247865 
L 903.579929 111.096343 
L 904.31808 113.247865 
L 904.558024 111.096343 
L 908.829575 113.247865 
L 909.069519 111.096343 
L 913.34107 113.247865 
L 913.581014 111.096343 
L 915.308341 108.944821 
L 917.852565 111.096343 
L 918.092509 108.944821 
L 922.36406 111.096343 
L 922.604003 108.944821 
L 926.875555 111.096343 
L 927.115498 108.944821 
L 927.192211 106.793298 
L 931.387049 108.944821 
L 931.626993 106.793298 
L 935.898544 108.944821 
L 936.138488 106.793298 
L 940.410039 108.944821 
L 940.649983 106.793298 
L 944.921534 108.944821 
L 945.161477 106.793298 
L 946.029703 104.641776 
L 947.463318 102.490254 
L 947.849596 100.338731 
L 948.570532 98.187209 
L 949.433029 100.338731 
L 949.672972 98.187209 
L 951.124622 96.035687 
L 953.944524 98.187209 
L 954.184467 96.035687 
L 957.815951 93.884165 
L 958.456018 96.035687 
L 958.695962 93.884165 
L 962.967513 96.035687 
L 963.207457 93.884165 
L 963.98792 91.732642 
L 967.479008 93.884165 
L 967.718952 91.732642 
L 971.990503 93.884165 
L 972.230446 91.732642 
L 974.020505 89.58112 
L 976.501998 91.732642 
L 976.741941 89.58112 
L 981.013493 91.732642 
L 981.253436 89.58112 
L 982.957574 87.429598 
L 983.512987 85.278075 
L 985.524987 87.429598 
L 985.764931 85.278075 
L 986.268401 83.126553 
L 988.754857 80.975031 
L 990.036482 83.126553 
L 990.276426 80.975031 
L 994.547977 83.126553 
L 994.787921 80.975031 
L 997.533254 78.823509 
L 999.059472 80.975031 
L 999.299415 78.823509 
L 999.835341 76.671986 
L 1002.133625 74.520464 
L 1003.570967 76.671986 
L 1003.81091 74.520464 
L 1006.434369 72.368942 
L 1008.082461 74.520464 
L 1008.322405 72.368942 
L 1012.280715 70.21742 
L 1012.593956 72.368942 
L 1012.8339 70.21742 
L 1017.105451 72.368942 
L 1017.345395 70.21742 
L 1017.926892 68.065897 
L 1018.06261 65.914375 
L 1021.616946 68.065897 
L 1021.85689 65.914375 
L 1026.128441 68.065897 
L 1026.368384 65.914375 
L 1030.639936 68.065897 
L 1030.879879 65.914375 
L 1030.879879 65.914375 
" clip-path="url(#pf2d78ba054)" style="fill: none; stroke: #1f77b4; stroke-width: 1.5; stroke-linecap: square"/>
   </g>
   <g id="patch_3">
    <path d="M 87.951094 522.25225 
L 87.951094 44.184 
" style="fill: none; stroke: #000000; stroke-width: 0.8; stroke-linejoin: miter; stroke-linecap: square"/>
   </g>
   <g id="patch_4">
    <path d="M 1075.78125 522.25225 
L 1075.78125 44.184 
" style="fill: none; stroke: #000000; stroke-width: 0.8; stroke-linejoin: miter; stroke-linecap: square"/>
   </g>
   <g id="patch_5">
    <path d="M 87.951094 522.25225 
L 1075.78125 522.25225 
" style="fill: none; stroke: #000000; stroke-width: 0.8; stroke-linejoin: miter; stroke-linecap: square"/>
   </g>
   <g id="patch_6">
    <path d="M 87.951094 44.184 
L 1075.78125 44.184 
" style="fill: none; stroke: #000000; stroke-width: 0.8; stroke-linejoin: miter; stroke-linecap: square"/>
   </g>
   <g id="text_19">
    <!-- Buffer Size in Network.node[0].lnk[0] -->
    <g transform="translate(470.274609 38.184)scale(0.12 -0.12)">
     <defs>
      <path id="DejaVuSans-42" d="M 1259 2228 
L 1259 519 
L 2272 519 
Q 2781 519 3026 730 
Q 3272 941 3272 1375 
Q 3272 1813 3026 2020 
Q 2781 2228 2272 2228 
L 1259 2228 
z
M 1259 4147 
L 1259 2741 
L 2194 2741 
Q 2656 2741 2882 2914 
Q 3109 3088 3109 3444 
Q 3109 3797 2882 3972 
Q 2656 4147 2194 4147 
L 1259 4147 
z
M 628 4666 
L 2241 4666 
Q 2963 4666 3353 4366 
Q 3744 4066 3744 3513 
Q 3744 3084 3544 2831 
Q 3344 2578 2956 2516 
Q 3422 2416 3680 2098 
Q 3938 1781 3938 1306 
Q 3938 681 3513 340 
Q 3088 0 2303 0 
L 628 0 
L 628 4666 
z
" transform="scale(0.015625)"/>
      <path id="DejaVuSans-75" d="M 544 1381 
L 544 3500 
L 1119 3500 
L 1119 1403 
Q 1119 906 1312 657 
Q 1506 409 1894 409 
Q 2359 409 2629 706 
Q 2900 1003 2900 1516 
L 2900 3500 
L 3475 3500 
L 3475 0 
L 2900 0 
L 2900 538 
Q 2691 219 2414 64 
Q 2138 -91 1772 -91 
Q 1169 -91 856 284 
Q 544 659 544 1381 
z
M 1991 3584 
L 1991 3584 
z
" transform="scale(0.015625)"/>
      <path id="DejaVuSans-66" d="M 2375 4863 
L 2375 4384 
L 1825 4384 
Q 1516 4384 1395 4259 
Q 1275 4134 1275 3809 
L 1275 3500 
L 2222 3500 
L 2222 3053 
L 1275 3053 
L 1275 0 
L 697 0 
L 697 3053 
L 147 3053 
L 147 3500 
L 697 3500 
L 697 3744 
Q 697 4328 969 4595 
Q 1241 4863 1831 4863 
L 2375 4863 
z
" transform="scale(0.015625)"/>
      <path id="DejaVuSans-65" d="M 3597 1894 
L 3597 1613 
L 953 1613 
Q 991 1019 1311 708 
Q 1631 397 2203 397 
Q 2534 397 2845 478 
Q 3156 559 3463 722 
L 3463 178 
Q 3153 47 2828 -22 
Q 2503 -91 2169 -91 
Q 1331 -91 842 396 
Q 353 884 353 1716 
Q 353 2575 817 3079 
Q 1281 3584 2069 3584 
Q 2775 3584 3186 3129 
Q 3597 2675 3597 1894 
z
M 3022 2063 
Q 3016 2534 2758 2815 
Q 2500 3097 2075 3097 
Q 1594 3097 1305 2825 
Q 1016 2553 972 2059 
L 3022 2063 
z
" transform="scale(0.015625)"/>
      <path id="DejaVuSans-72" d="M 2631 2963 
Q 2534 3019 2420 3045 
Q 2306 3072 2169 3072 
Q 1681 3072 1420 2755 
Q 1159 2438 1159 1844 
L 1159 0 
L 581 0 
L 581 3500 
L 1159 3500 
L 1159 2956 
Q 1341 3275 1631 3429 
Q 1922 3584 2338 3584 
Q 2397 3584 2469 3576 
Q 2541 3569 2628 3553 
L 2631 2963 
z
" transform="scale(0.015625)"/>
      <path id="DejaVuSans-20" transform="scale(0.015625)"/>
      <path id="DejaVuSans-53" d="M 3425 4513 
L 3425 3897 
Q 3066 4069 2747 4153 
Q 2428 4238 2131 4238 
Q 1616 4238 1336 4038 
Q 1056 3838 1056 3469 
Q 1056 3159 1242 3001 
Q 1428 2844 1947 2747 
L 2328 2669 
Q 3034 2534 3370 2195 
Q 3706 1856 3706 1288 
Q 3706 609 3251 259 
Q 2797 -91 1919 -91 
Q 1588 -91 1214 -16 
Q 841 59 441 206 
L 441 856 
Q 825 641 1194 531 
Q 1563 422 1919 422 
Q 2459 422 2753 634 
Q 3047 847 3047 1241 
Q 3047 1584 2836 1778 
Q 2625 1972 2144 2069 
L 1759 2144 
Q 1053 2284 737 2584 
Q 422 2884 422 3419 
Q 422 4038 858 4394 
Q 1294 4750 2059 4750 
Q 2388 4750 2728 4690 
Q 3069 4631 3425 4513 
z
" transform="scale(0.015625)"/>
      <path id="DejaVuSans-69" d="M 603 3500 
L 1178 3500 
L 1178 0 
L 603 0 
L 603 3500 
z
M 603 4863 
L 1178 4863 
L 1178 4134 
L 603 4134 
L 603 4863 
z
" transform="scale(0.015625)"/>
      <path id="DejaVuSans-7a" d="M 353 3500 
L 3084 3500 
L 3084 2975 
L 922 459 
L 3084 459 
L 3084 0 
L 275 0 
L 275 525 
L 2438 3041 
L 353 3041 
L 353 3500 
z
" transform="scale(0.015625)"/>
      <path id="DejaVuSans-6e" d="M 3513 2113 
L 3513 0 
L 2938 0 
L 2938 2094 
Q 2938 2591 2744 2837 
Q 2550 3084 2163 3084 
Q 1697 3084 1428 2787 
Q 1159 2491 1159 1978 
L 1159 0 
L 581 0 
L 581 3500 
L 1159 3500 
L 1159 2956 
Q 1366 3272 1645 3428 
Q 1925 3584 2291 3584 
Q 2894 3584 3203 3211 
Q 3513 2838 3513 2113 
z
" transform="scale(0.015625)"/>
      <path id="DejaVuSans-4e" d="M 628 4666 
L 1478 4666 
L 3547 763 
L 3547 4666 
L 4159 4666 
L 4159 0 
L 3309 0 
L 1241 3903 
L 1241 0 
L 628 0 
L 628 4666 
z
" transform="scale(0.015625)"/>
      <path id="DejaVuSans-74" d="M 1172 4494 
L 1172 3500 
L 2356 3500 
L 2356 3053 
L 1172 3053 
L 1172 1153 
Q 1172 725 1289 603 
Q 1406 481 1766 481 
L 2356 481 
L 2356 0 
L 1766 0 
Q 1100 0 847 248 
Q 594 497 594 1153 
L 594 3053 
L 172 3053 
L 172 3500 
L 594 3500 
L 594 4494 
L 1172 4494 
z
" transform="scale(0.015625)"/>
      <path id="DejaVuSans-77" d="M 269 3500 
L 844 3500 
L 1563 769 
L 2278 3500 
L 2956 3500 
L 3675 769 
L 4391 3500 
L 4966 3500 
L 4050 0 
L 3372 0 
L 2619 2869 
L 1863 0 
L 1184 0 
L 269 3500 
z
" transform="scale(0.015625)"/>
      <path id="DejaVuSans-6f" d="M 1959 3097 
Q 1497 3097 1228 2736 
Q 959 2375 959 1747 
Q 959 1119 1226 758 
Q 1494 397 1959 397 
Q 2419 397 2687 759 
Q 2956 1122 2956 1747 
Q 2956 2369 2687 2733 
Q 2419 3097 1959 3097 
z
M 1959 3584 
Q 2709 3584 3137 3096 
Q 3566 2609 3566 1747 
Q 3566 888 3137 398 
Q 2709 -91 1959 -91 
Q 1206 -91 779 398 
Q 353 888 353 1747 
Q 353 2609 779 3096 
Q 1206 3584 1959 3584 
z
" transform="scale(0.015625)"/>
      <path id="DejaVuSans-6b" d="M 581 4863 
L 1159 4863 
L 1159 1991 
L 2875 3500 
L 3609 3500 
L 1753 1863 
L 3688 0 
L 2938 0 
L 1159 1709 
L 1159 0 
L 581 0 
L 581 4863 
z
" transform="scale(0.015625)"/>
      <path id="DejaVuSans-2e" d="M 684 794 
L 1344 794 
L 1344 0 
L 684 0 
L 684 794 
z
" transform="scale(0.015625)"/>
      <path id="DejaVuSans-64" d="M 2906 2969 
L 2906 4863 
L 3481 4863 
L 3481 0 
L 2906 0 
L 2906 525 
Q 2725 213 2448 61 
Q 2172 -91 1784 -91 
Q 1150 -91 751 415 
Q 353 922 353 1747 
Q 353 2572 751 3078 
Q 1150 3584 1784 3584 
Q 2172 3584 2448 3432 
Q 2725 3281 2906 2969 
z
M 947 1747 
Q 947 1113 1208 752 
Q 1469 391 1925 391 
Q 2381 391 2643 752 
Q 2906 1113 2906 1747 
Q 2906 2381 2643 2742 
Q 2381 3103 1925 3103 
Q 1469 3103 1208 2742 
Q 947 2381 947 1747 
z
" transform="scale(0.015625)"/>
      <path id="DejaVuSans-5b" d="M 550 4863 
L 1875 4863 
L 1875 4416 
L 1125 4416 
L 1125 -397 
L 1875 -397 
L 1875 -844 
L 550 -844 
L 550 4863 
z
" transform="scale(0.015625)"/>
      <path id="DejaVuSans-5d" d="M 1947 4863 
L 1947 -844 
L 622 -844 
L 622 -397 
L 1369 -397 
L 1369 4416 
L 622 4416 
L 622 4863 
L 1947 4863 
z
" transform="scale(0.015625)"/>
      <path id="DejaVuSans-6c" d="M 603 4863 
L 1178 4863 
L 1178 0 
L 603 0 
L 603 4863 
z
" transform="scale(0.015625)"/>
     </defs>
     <use xlink:href="#DejaVuSans-42"/>
     <use xlink:href="#DejaVuSans-75" x="68.603516"/>
     <use xlink:href="#DejaVuSans-66" x="131.982422"/>
     <use xlink:href="#DejaVuSans-66" x="167.1875"/>
     <use xlink:href="#DejaVuSans-65" x="202.392578"/>
     <use xlink:href="#DejaVuSans-72" x="263.916016"/>
     <use xlink:href="#DejaVuSans-20" x="305.029297"/>
     <use xlink:href="#DejaVuSans-53" x="336.816406"/>
     <use xlink:href="#DejaVuSans-69" x="400.292969"/>
     <use xlink:href="#DejaVuSans-7a" x="428.076172"/>
     <use xlink:href="#DejaVuSans-65" x="480.566406"/>
     <use xlink:href="#DejaVuSans-20" x="542.089844"/>
     <use xlink:href="#DejaVuSans-69" x="573.876953"/>
     <use xlink:href="#DejaVuSans-6e" x="601.660156"/>
     <use xlink:href="#DejaVuSans-20" x="665.039062"/>
     <use xlink:href="#DejaVuSans-4e" x="696.826172"/>
     <use xlink:href="#DejaVuSans-65" x="771.630859"/>
     <use xlink:href="#DejaVuSans-74" x="833.154297"/>
     <use xlink:href="#DejaVuSans-77" x="872.363281"/>
     <use xlink:href="#DejaVuSans-6f" x="954.150391"/>
     <use xlink:href="#DejaVuSans-72" x="1015.332031"/>
     <use xlink:href="#DejaVuSans-6b" x="1056.445312"/>
     <use xlink:href="#DejaVuSans-2e" x="1114.355469"/>
     <use xlink:href="#DejaVuSans-6e" x="1146.142578"/>
     <use xlink:href="#DejaVuSans-6f" x="1209.521484"/>
     <use xlink:href="#DejaVuSans-64" x="1270.703125"/>
     <use xlink:href="#DejaVuSans-65" x="1334.179688"/>
     <use xlink:href="#DejaVuSans-5b" x="1395.703125"/>
     <use xlink:href="#DejaVuSans-30" x="1434.716797"/>
     <use xlink:href="#DejaVuSans-5d" x="1498.339844"/>
     <use xlink:href="#DejaVuSans-2e" x="1537.353516"/>
     <use xlink:href="#DejaVuSans-6c" x="1569.140625"/>
     <use xlink:href="#DejaVuSans-6e" x="1596.923828"/>
     <use xlink:href="#DejaVuSans-6b" x="1660.302734"/>
     <use xlink:href="#DejaVuSans-5b" x="1718.212891"/>
     <use xlink:href="#DejaVuSans-30" x="1757.226562"/>
     <use xlink:href="#DejaVuSans-5d" x="1820.849609"/>
    </g>
   </g>
   <g id="legend_1">
    <g id="patch_7">
     <path d="M 848.795313 66.862125 
L 1070.78125 66.862125 
L 1070.78125 49.184 
L 848.795313 49.184 
z
" style="fill: #ffffff; opacity: 0.8; stroke: #cccccc; stroke-linejoin: miter"/>
    </g>
    <g id="line2d_38">
     <path d="M 852.795313 57.282438 
L 862.795313 57.282438 
L 872.795313 57.282438 
" style="fill: none; stroke: #1f77b4; stroke-width: 1.5; stroke-linecap: square"/>
    </g>
    <g id="text_20">
     <!-- Buffer Size in Network.node[0].lnk[0] -->
     <g transform="translate(880.795313 60.782438)scale(0.1 -0.1)">
      <use xlink:href="#DejaVuSans-42"/>
      <use xlink:href="#DejaVuSans-75" x="68.603516"/>
      <use xlink:href="#DejaVuSans-66" x="131.982422"/>
      <use xlink:href="#DejaVuSans-66" x="167.1875"/>
      <use xlink:href="#DejaVuSans-65" x="202.392578"/>
      <use xlink:href="#DejaVuSans-72" x="263.916016"/>
      <use xlink:href="#DejaVuSans-20" x="305.029297"/>
      <use xlink:href="#DejaVuSans-53" x="336.816406"/>
      <use xlink:href="#DejaVuSans-69" x="400.292969"/>
      <use xlink:href="#DejaVuSans-7a" x="428.076172"/>
      <use xlink:href="#DejaVuSans-65" x="480.566406"/>
      <use xlink:href="#DejaVuSans-20" x="542.089844"/>
      <use xlink:href="#DejaVuSans-69" x="573.876953"/>
      <use xlink:href="#DejaVuSans-6e" x="601.660156"/>
      <use xlink:href="#DejaVuSans-20" x="665.039062"/>
      <use xlink:href="#DejaVuSans-4e" x="696.826172"/>
      <use xlink:href="#DejaVuSans-65" x="771.630859"/>
      <use xlink:href="#DejaVuSans-74" x="833.154297"/>
      <use xlink:href="#DejaVuSans-77" x="872.363281"/>
      <use xlink:href="#DejaVuSans-6f" x="954.150391"/>
      <use xlink:href="#DejaVuSans-72" x="1015.332031"/>
      <use xlink:href="#DejaVuSans-6b" x="1056.445312"/>
      <use xlink:href="#DejaVuSans-2e" x="1114.355469"/>
      <use xlink:href="#DejaVuSans-6e" x="1146.142578"/>
      <use xlink:href="#DejaVuSans-6f" x="1209.521484"/>
      <use xlink:href="#DejaVuSans-64" x="1270.703125"/>
      <use xlink:href="#DejaVuSans-65" x="1334.179688"/>
      <use xlink:href="#DejaVuSans-5b" x="1395.703125"/>
      <use xlink:href="#DejaVuSans-30" x="1434.716797"/>
      <use xlink:href="#DejaVuSans-5d" x="1498.339844"/>
      <use xlink:href="#DejaVuSans-2e" x="1537.353516"/>
      <use xlink:href="#DejaVuSans-6c" x="1569.140625"/>
      <use xlink:href="#DejaVuSans-6e" x="1596.923828"/>
      <use xlink:href="#DejaVuSans-6b" x="1660.302734"/>
      <use xlink:href="#DejaVuSans-5b" x="1718.212891"/>
      <use xlink:href="#DejaVuSans-30" x="1757.226562"/>
      <use xlink:href="#DejaVuSans-5d" x="1820.849609"/>
     </g>
    </g>
   </g>
  </g>
 </g>
 <defs>
  <clipPath id="pf2d78ba054">
   <rect x="87.951094" y="44.184" width="987.830156" height="478.06825"/>
  </clipPath>
 </defs>
</svg>
