<?xml version="1.0" encoding="utf-8" standalone="no"?>
<!DOCTYPE svg PUBLIC "-//W3C//DTD SVG 1.1//EN"
  "http://www.w3.org/Graphics/SVG/1.1/DTD/svg11.dtd">
<svg xmlns:xlink="http://www.w3.org/1999/xlink" width="1101.6pt" height="568.08pt" viewBox="0 0 1101.6 568.08" xmlns="http://www.w3.org/2000/svg" version="1.1">
 <metadata>
  <rdf:RDF xmlns:dc="http://purl.org/dc/elements/1.1/" xmlns:cc="http://creativecommons.org/ns#" xmlns:rdf="http://www.w3.org/1999/02/22-rdf-syntax-ns#">
   <cc:Work>
    <dc:type rdf:resource="http://purl.org/dc/dcmitype/StillImage"/>
    <dc:date>2023-05-23T19:34:37.189969</dc:date>
    <dc:format>image/svg+xml</dc:format>
    <dc:creator>
     <cc:Agent>
      <dc:title>Matplotlib v3.5.2, https://matplotlib.org/</dc:title>
     </cc:Agent>
    </dc:creator>
   </cc:Work>
  </rdf:RDF>
 </metadata>
 <defs>
  <style type="text/css">*{stroke-linejoin: round; stroke-linecap: butt}</style>
 </defs>
 <g id="figure_1">
  <g id="patch_1">
   <path d="M 0 568.08 
L 1101.6 568.08 
L 1101.6 0 
L 0 0 
z
" style="fill: #ffffff"/>
  </g>
  <g id="axes_1">
   <g id="patch_2">
    <path d="M 87.951094 522.25225 
L 1075.78125 522.25225 
L 1075.78125 44.184 
L 87.951094 44.184 
z
" style="fill: #ffffff"/>
   </g>
   <g id="matplotlib.axis_1">
    <g id="xtick_1">
     <g id="line2d_1">
      <path d="M 124.424161 522.25225 
L 124.424161 44.184 
" clip-path="url(#pdeb2b6ca47)" style="fill: none; stroke: #b0b0b0; stroke-width: 0.8; stroke-linecap: square"/>
     </g>
     <g id="line2d_2">
      <defs>
       <path id="ma3dd521b8e" d="M 0 0 
L 0 3.5 
" style="stroke: #000000; stroke-width: 0.8"/>
      </defs>
      <g>
       <use xlink:href="#ma3dd521b8e" x="124.424161" y="522.25225" style="stroke: #000000; stroke-width: 0.8"/>
      </g>
     </g>
     <g id="text_1">
      <!-- 0 -->
      <g transform="translate(121.242911 536.850687)scale(0.1 -0.1)">
       <defs>
        <path id="DejaVuSans-30" d="M 2034 4250 
Q 1547 4250 1301 3770 
Q 1056 3291 1056 2328 
Q 1056 1369 1301 889 
Q 1547 409 2034 409 
Q 2525 409 2770 889 
Q 3016 1369 3016 2328 
Q 3016 3291 2770 3770 
Q 2525 4250 2034 4250 
z
M 2034 4750 
Q 2819 4750 3233 4129 
Q 3647 3509 3647 2328 
Q 3647 1150 3233 529 
Q 2819 -91 2034 -91 
Q 1250 -91 836 529 
Q 422 1150 422 2328 
Q 422 3509 836 4129 
Q 1250 4750 2034 4750 
z
" transform="scale(0.015625)"/>
       </defs>
       <use xlink:href="#DejaVuSans-30"/>
      </g>
     </g>
    </g>
    <g id="xtick_2">
     <g id="line2d_3">
      <path d="M 237.731921 522.25225 
L 237.731921 44.184 
" clip-path="url(#pdeb2b6ca47)" style="fill: none; stroke: #b0b0b0; stroke-width: 0.8; stroke-linecap: square"/>
     </g>
     <g id="line2d_4">
      <g>
       <use xlink:href="#ma3dd521b8e" x="237.731921" y="522.25225" style="stroke: #000000; stroke-width: 0.8"/>
      </g>
     </g>
     <g id="text_2">
      <!-- 25 -->
      <g transform="translate(231.369421 536.850687)scale(0.1 -0.1)">
       <defs>
        <path id="DejaVuSans-32" d="M 1228 531 
L 3431 531 
L 3431 0 
L 469 0 
L 469 531 
Q 828 903 1448 1529 
Q 2069 2156 2228 2338 
Q 2531 2678 2651 2914 
Q 2772 3150 2772 3378 
Q 2772 3750 2511 3984 
Q 2250 4219 1831 4219 
Q 1534 4219 1204 4116 
Q 875 4013 500 3803 
L 500 4441 
Q 881 4594 1212 4672 
Q 1544 4750 1819 4750 
Q 2544 4750 2975 4387 
Q 3406 4025 3406 3419 
Q 3406 3131 3298 2873 
Q 3191 2616 2906 2266 
Q 2828 2175 2409 1742 
Q 1991 1309 1228 531 
z
" transform="scale(0.015625)"/>
        <path id="DejaVuSans-35" d="M 691 4666 
L 3169 4666 
L 3169 4134 
L 1269 4134 
L 1269 2991 
Q 1406 3038 1543 3061 
Q 1681 3084 1819 3084 
Q 2600 3084 3056 2656 
Q 3513 2228 3513 1497 
Q 3513 744 3044 326 
Q 2575 -91 1722 -91 
Q 1428 -91 1123 -41 
Q 819 9 494 109 
L 494 744 
Q 775 591 1075 516 
Q 1375 441 1709 441 
Q 2250 441 2565 725 
Q 2881 1009 2881 1497 
Q 2881 1984 2565 2268 
Q 2250 2553 1709 2553 
Q 1456 2553 1204 2497 
Q 953 2441 691 2322 
L 691 4666 
z
" transform="scale(0.015625)"/>
       </defs>
       <use xlink:href="#DejaVuSans-32"/>
       <use xlink:href="#DejaVuSans-35" x="63.623047"/>
      </g>
     </g>
    </g>
    <g id="xtick_3">
     <g id="line2d_5">
      <path d="M 351.03968 522.25225 
L 351.03968 44.184 
" clip-path="url(#pdeb2b6ca47)" style="fill: none; stroke: #b0b0b0; stroke-width: 0.8; stroke-linecap: square"/>
     </g>
     <g id="line2d_6">
      <g>
       <use xlink:href="#ma3dd521b8e" x="351.03968" y="522.25225" style="stroke: #000000; stroke-width: 0.8"/>
      </g>
     </g>
     <g id="text_3">
      <!-- 50 -->
      <g transform="translate(344.67718 536.850687)scale(0.1 -0.1)">
       <use xlink:href="#DejaVuSans-35"/>
       <use xlink:href="#DejaVuSans-30" x="63.623047"/>
      </g>
     </g>
    </g>
    <g id="xtick_4">
     <g id="line2d_7">
      <path d="M 464.34744 522.25225 
L 464.34744 44.184 
" clip-path="url(#pdeb2b6ca47)" style="fill: none; stroke: #b0b0b0; stroke-width: 0.8; stroke-linecap: square"/>
     </g>
     <g id="line2d_8">
      <g>
       <use xlink:href="#ma3dd521b8e" x="464.34744" y="522.25225" style="stroke: #000000; stroke-width: 0.8"/>
      </g>
     </g>
     <g id="text_4">
      <!-- 75 -->
      <g transform="translate(457.98494 536.850687)scale(0.1 -0.1)">
       <defs>
        <path id="DejaVuSans-37" d="M 525 4666 
L 3525 4666 
L 3525 4397 
L 1831 0 
L 1172 0 
L 2766 4134 
L 525 4134 
L 525 4666 
z
" transform="scale(0.015625)"/>
       </defs>
       <use xlink:href="#DejaVuSans-37"/>
       <use xlink:href="#DejaVuSans-35" x="63.623047"/>
      </g>
     </g>
    </g>
    <g id="xtick_5">
     <g id="line2d_9">
      <path d="M 577.6552 522.25225 
L 577.6552 44.184 
" clip-path="url(#pdeb2b6ca47)" style="fill: none; stroke: #b0b0b0; stroke-width: 0.8; stroke-linecap: square"/>
     </g>
     <g id="line2d_10">
      <g>
       <use xlink:href="#ma3dd521b8e" x="577.6552" y="522.25225" style="stroke: #000000; stroke-width: 0.8"/>
      </g>
     </g>
     <g id="text_5">
      <!-- 100 -->
      <g transform="translate(568.11145 536.850687)scale(0.1 -0.1)">
       <defs>
        <path id="DejaVuSans-31" d="M 794 531 
L 1825 531 
L 1825 4091 
L 703 3866 
L 703 4441 
L 1819 4666 
L 2450 4666 
L 2450 531 
L 3481 531 
L 3481 0 
L 794 0 
L 794 531 
z
" transform="scale(0.015625)"/>
       </defs>
       <use xlink:href="#DejaVuSans-31"/>
       <use xlink:href="#DejaVuSans-30" x="63.623047"/>
       <use xlink:href="#DejaVuSans-30" x="127.246094"/>
      </g>
     </g>
    </g>
    <g id="xtick_6">
     <g id="line2d_11">
      <path d="M 690.962959 522.25225 
L 690.962959 44.184 
" clip-path="url(#pdeb2b6ca47)" style="fill: none; stroke: #b0b0b0; stroke-width: 0.8; stroke-linecap: square"/>
     </g>
     <g id="line2d_12">
      <g>
       <use xlink:href="#ma3dd521b8e" x="690.962959" y="522.25225" style="stroke: #000000; stroke-width: 0.8"/>
      </g>
     </g>
     <g id="text_6">
      <!-- 125 -->
      <g transform="translate(681.419209 536.850687)scale(0.1 -0.1)">
       <use xlink:href="#DejaVuSans-31"/>
       <use xlink:href="#DejaVuSans-32" x="63.623047"/>
       <use xlink:href="#DejaVuSans-35" x="127.246094"/>
      </g>
     </g>
    </g>
    <g id="xtick_7">
     <g id="line2d_13">
      <path d="M 804.270719 522.25225 
L 804.270719 44.184 
" clip-path="url(#pdeb2b6ca47)" style="fill: none; stroke: #b0b0b0; stroke-width: 0.8; stroke-linecap: square"/>
     </g>
     <g id="line2d_14">
      <g>
       <use xlink:href="#ma3dd521b8e" x="804.270719" y="522.25225" style="stroke: #000000; stroke-width: 0.8"/>
      </g>
     </g>
     <g id="text_7">
      <!-- 150 -->
      <g transform="translate(794.726969 536.850687)scale(0.1 -0.1)">
       <use xlink:href="#DejaVuSans-31"/>
       <use xlink:href="#DejaVuSans-35" x="63.623047"/>
       <use xlink:href="#DejaVuSans-30" x="127.246094"/>
      </g>
     </g>
    </g>
    <g id="xtick_8">
     <g id="line2d_15">
      <path d="M 917.578479 522.25225 
L 917.578479 44.184 
" clip-path="url(#pdeb2b6ca47)" style="fill: none; stroke: #b0b0b0; stroke-width: 0.8; stroke-linecap: square"/>
     </g>
     <g id="line2d_16">
      <g>
       <use xlink:href="#ma3dd521b8e" x="917.578479" y="522.25225" style="stroke: #000000; stroke-width: 0.8"/>
      </g>
     </g>
     <g id="text_8">
      <!-- 175 -->
      <g transform="translate(908.034729 536.850687)scale(0.1 -0.1)">
       <use xlink:href="#DejaVuSans-31"/>
       <use xlink:href="#DejaVuSans-37" x="63.623047"/>
       <use xlink:href="#DejaVuSans-35" x="127.246094"/>
      </g>
     </g>
    </g>
    <g id="xtick_9">
     <g id="line2d_17">
      <path d="M 1030.886238 522.25225 
L 1030.886238 44.184 
" clip-path="url(#pdeb2b6ca47)" style="fill: none; stroke: #b0b0b0; stroke-width: 0.8; stroke-linecap: square"/>
     </g>
     <g id="line2d_18">
      <g>
       <use xlink:href="#ma3dd521b8e" x="1030.886238" y="522.25225" style="stroke: #000000; stroke-width: 0.8"/>
      </g>
     </g>
     <g id="text_9">
      <!-- 200 -->
      <g transform="translate(1021.342488 536.850687)scale(0.1 -0.1)">
       <use xlink:href="#DejaVuSans-32"/>
       <use xlink:href="#DejaVuSans-30" x="63.623047"/>
       <use xlink:href="#DejaVuSans-30" x="127.246094"/>
      </g>
     </g>
    </g>
   </g>
   <g id="matplotlib.axis_2">
    <g id="ytick_1">
     <g id="line2d_19">
      <path d="M 87.951094 500.521875 
L 1075.78125 500.521875 
" clip-path="url(#pdeb2b6ca47)" style="fill: none; stroke: #b0b0b0; stroke-width: 0.8; stroke-linecap: square"/>
     </g>
     <g id="line2d_20">
      <defs>
       <path id="m7c7bfab399" d="M 0 0 
L -3.5 0 
" style="stroke: #000000; stroke-width: 0.8"/>
      </defs>
      <g>
       <use xlink:href="#m7c7bfab399" x="87.951094" y="500.521875" style="stroke: #000000; stroke-width: 0.8"/>
      </g>
     </g>
     <g id="text_10">
      <!-- 0 -->
      <g transform="translate(74.588594 504.321094)scale(0.1 -0.1)">
       <use xlink:href="#DejaVuSans-30"/>
      </g>
     </g>
    </g>
    <g id="ytick_2">
     <g id="line2d_21">
      <path d="M 87.951094 444.802965 
L 1075.78125 444.802965 
" clip-path="url(#pdeb2b6ca47)" style="fill: none; stroke: #b0b0b0; stroke-width: 0.8; stroke-linecap: square"/>
     </g>
     <g id="line2d_22">
      <g>
       <use xlink:href="#m7c7bfab399" x="87.951094" y="444.802965" style="stroke: #000000; stroke-width: 0.8"/>
      </g>
     </g>
     <g id="text_11">
      <!-- 25 -->
      <g transform="translate(68.226094 448.602183)scale(0.1 -0.1)">
       <use xlink:href="#DejaVuSans-32"/>
       <use xlink:href="#DejaVuSans-35" x="63.623047"/>
      </g>
     </g>
    </g>
    <g id="ytick_3">
     <g id="line2d_23">
      <path d="M 87.951094 389.084054 
L 1075.78125 389.084054 
" clip-path="url(#pdeb2b6ca47)" style="fill: none; stroke: #b0b0b0; stroke-width: 0.8; stroke-linecap: square"/>
     </g>
     <g id="line2d_24">
      <g>
       <use xlink:href="#m7c7bfab399" x="87.951094" y="389.084054" style="stroke: #000000; stroke-width: 0.8"/>
      </g>
     </g>
     <g id="text_12">
      <!-- 50 -->
      <g transform="translate(68.226094 392.883273)scale(0.1 -0.1)">
       <use xlink:href="#DejaVuSans-35"/>
       <use xlink:href="#DejaVuSans-30" x="63.623047"/>
      </g>
     </g>
    </g>
    <g id="ytick_4">
     <g id="line2d_25">
      <path d="M 87.951094 333.365144 
L 1075.78125 333.365144 
" clip-path="url(#pdeb2b6ca47)" style="fill: none; stroke: #b0b0b0; stroke-width: 0.8; stroke-linecap: square"/>
     </g>
     <g id="line2d_26">
      <g>
       <use xlink:href="#m7c7bfab399" x="87.951094" y="333.365144" style="stroke: #000000; stroke-width: 0.8"/>
      </g>
     </g>
     <g id="text_13">
      <!-- 75 -->
      <g transform="translate(68.226094 337.164363)scale(0.1 -0.1)">
       <use xlink:href="#DejaVuSans-37"/>
       <use xlink:href="#DejaVuSans-35" x="63.623047"/>
      </g>
     </g>
    </g>
    <g id="ytick_5">
     <g id="line2d_27">
      <path d="M 87.951094 277.646234 
L 1075.78125 277.646234 
" clip-path="url(#pdeb2b6ca47)" style="fill: none; stroke: #b0b0b0; stroke-width: 0.8; stroke-linecap: square"/>
     </g>
     <g id="line2d_28">
      <g>
       <use xlink:href="#m7c7bfab399" x="87.951094" y="277.646234" style="stroke: #000000; stroke-width: 0.8"/>
      </g>
     </g>
     <g id="text_14">
      <!-- 100 -->
      <g transform="translate(61.863594 281.445453)scale(0.1 -0.1)">
       <use xlink:href="#DejaVuSans-31"/>
       <use xlink:href="#DejaVuSans-30" x="63.623047"/>
       <use xlink:href="#DejaVuSans-30" x="127.246094"/>
      </g>
     </g>
    </g>
    <g id="ytick_6">
     <g id="line2d_29">
      <path d="M 87.951094 221.927324 
L 1075.78125 221.927324 
" clip-path="url(#pdeb2b6ca47)" style="fill: none; stroke: #b0b0b0; stroke-width: 0.8; stroke-linecap: square"/>
     </g>
     <g id="line2d_30">
      <g>
       <use xlink:href="#m7c7bfab399" x="87.951094" y="221.927324" style="stroke: #000000; stroke-width: 0.8"/>
      </g>
     </g>
     <g id="text_15">
      <!-- 125 -->
      <g transform="translate(61.863594 225.726542)scale(0.1 -0.1)">
       <use xlink:href="#DejaVuSans-31"/>
       <use xlink:href="#DejaVuSans-32" x="63.623047"/>
       <use xlink:href="#DejaVuSans-35" x="127.246094"/>
      </g>
     </g>
    </g>
    <g id="ytick_7">
     <g id="line2d_31">
      <path d="M 87.951094 166.208413 
L 1075.78125 166.208413 
" clip-path="url(#pdeb2b6ca47)" style="fill: none; stroke: #b0b0b0; stroke-width: 0.8; stroke-linecap: square"/>
     </g>
     <g id="line2d_32">
      <g>
       <use xlink:href="#m7c7bfab399" x="87.951094" y="166.208413" style="stroke: #000000; stroke-width: 0.8"/>
      </g>
     </g>
     <g id="text_16">
      <!-- 150 -->
      <g transform="translate(61.863594 170.007632)scale(0.1 -0.1)">
       <use xlink:href="#DejaVuSans-31"/>
       <use xlink:href="#DejaVuSans-35" x="63.623047"/>
       <use xlink:href="#DejaVuSans-30" x="127.246094"/>
      </g>
     </g>
    </g>
    <g id="ytick_8">
     <g id="line2d_33">
      <path d="M 87.951094 110.489503 
L 1075.78125 110.489503 
" clip-path="url(#pdeb2b6ca47)" style="fill: none; stroke: #b0b0b0; stroke-width: 0.8; stroke-linecap: square"/>
     </g>
     <g id="line2d_34">
      <g>
       <use xlink:href="#m7c7bfab399" x="87.951094" y="110.489503" style="stroke: #000000; stroke-width: 0.8"/>
      </g>
     </g>
     <g id="text_17">
      <!-- 175 -->
      <g transform="translate(61.863594 114.288722)scale(0.1 -0.1)">
       <use xlink:href="#DejaVuSans-31"/>
       <use xlink:href="#DejaVuSans-37" x="63.623047"/>
       <use xlink:href="#DejaVuSans-35" x="127.246094"/>
      </g>
     </g>
    </g>
    <g id="ytick_9">
     <g id="line2d_35">
      <path d="M 87.951094 54.770593 
L 1075.78125 54.770593 
" clip-path="url(#pdeb2b6ca47)" style="fill: none; stroke: #b0b0b0; stroke-width: 0.8; stroke-linecap: square"/>
     </g>
     <g id="line2d_36">
      <g>
       <use xlink:href="#m7c7bfab399" x="87.951094" y="54.770593" style="stroke: #000000; stroke-width: 0.8"/>
      </g>
     </g>
     <g id="text_18">
      <!-- 200 -->
      <g transform="translate(61.863594 58.569812)scale(0.1 -0.1)">
       <use xlink:href="#DejaVuSans-32"/>
       <use xlink:href="#DejaVuSans-30" x="63.623047"/>
       <use xlink:href="#DejaVuSans-30" x="127.246094"/>
      </g>
     </g>
    </g>
   </g>
   <g id="line2d_37">
    <path d="M 132.852464 498.293119 
L 132.852464 500.521875 
L 137.801934 498.293119 
L 137.801934 500.521875 
L 140.431445 498.293119 
L 142.334244 500.521875 
L 142.334244 498.293119 
L 146.866555 500.521875 
L 146.866555 498.293119 
L 151.398865 500.521875 
L 151.398865 498.293119 
L 154.708993 496.064362 
L 155.279494 493.835606 
L 155.931175 496.064362 
L 155.980777 491.606849 
L 159.474439 489.378093 
L 159.981814 487.149337 
L 160.463486 489.378093 
L 160.463486 487.149337 
L 162.890174 484.92058 
L 164.995796 487.149337 
L 164.995796 484.92058 
L 166.698831 482.691824 
L 169.528107 484.92058 
L 169.528107 482.691824 
L 171.047801 480.463067 
L 174.060417 482.691824 
L 174.060417 480.463067 
L 175.351205 478.234311 
L 178.592727 480.463067 
L 178.592727 478.234311 
L 180.15017 476.005554 
L 182.159814 473.776798 
L 183.125038 476.005554 
L 183.125038 473.776798 
L 184.208881 471.548042 
L 187.657348 473.776798 
L 187.657348 471.548042 
L 188.767801 469.319285 
L 192.189658 471.548042 
L 192.189658 469.319285 
L 193.566351 467.090529 
L 196.484167 464.861772 
L 196.721969 467.090529 
L 196.721969 464.861772 
L 201.254279 467.090529 
L 201.254279 464.861772 
L 201.574714 462.633016 
L 205.78659 464.861772 
L 205.78659 462.633016 
L 209.371791 460.40426 
L 210.3189 462.633016 
L 210.3189 460.40426 
L 214.85121 462.633016 
L 214.85121 460.40426 
L 218.913761 458.175503 
L 219.383521 460.40426 
L 219.383521 458.175503 
L 223.915831 460.40426 
L 223.915831 458.175503 
L 228.448142 460.40426 
L 228.448142 458.175503 
L 232.980452 460.40426 
L 232.980452 458.175503 
L 236.551564 455.946747 
L 237.512762 458.175503 
L 237.512762 455.946747 
L 238.289978 453.71799 
L 242.045073 455.946747 
L 242.045073 453.71799 
L 246.577383 455.946747 
L 246.662641 451.489234 
L 248.755348 449.260478 
L 251.109693 451.489234 
L 251.109693 449.260478 
L 254.268943 447.031721 
L 255.642004 449.260478 
L 255.642004 447.031721 
L 260.174314 449.260478 
L 260.174314 447.031721 
L 264.528886 444.802965 
L 264.706625 447.031721 
L 264.706625 444.802965 
L 265.088748 442.574208 
L 266.688744 440.345452 
L 269.238935 442.574208 
L 269.238935 440.345452 
L 273.771245 442.574208 
L 273.771245 440.345452 
L 274.307206 438.116696 
L 278.303556 440.345452 
L 278.303556 438.116696 
L 279.652535 435.887939 
L 282.806114 433.659183 
L 282.835866 435.887939 
L 282.835866 433.659183 
L 285.082743 431.430426 
L 287.368177 433.659183 
L 287.368177 431.430426 
L 288.002025 429.20167 
L 291.900487 431.430426 
L 291.900487 429.20167 
L 292.893839 426.972913 
L 293.825092 422.515401 
L 296.432797 424.744157 
L 296.432797 422.515401 
L 297.87575 420.286644 
L 299.630344 418.057888 
L 300.965108 420.286644 
L 300.965108 418.057888 
L 305.497418 420.286644 
L 305.497418 418.057888 
L 309.912497 415.829131 
L 310.029728 418.057888 
L 310.029728 415.829131 
L 311.881086 413.600375 
L 312.614732 411.371619 
L 314.562039 413.600375 
L 314.562039 411.371619 
L 319.094349 413.600375 
L 319.094349 411.371619 
L 323.266465 409.142862 
L 323.62666 411.371619 
L 323.62666 409.142862 
L 325.668602 406.914106 
L 326.352034 404.685349 
L 328.15897 406.914106 
L 328.15897 404.685349 
L 328.721843 402.456593 
L 330.839668 400.227837 
L 331.074951 397.99908 
L 332.69128 400.227837 
L 332.69128 397.99908 
L 337.223591 400.227837 
L 337.223591 397.99908 
L 340.197462 395.770324 
L 341.755901 397.99908 
L 341.755901 395.770324 
L 346.131609 393.541567 
L 346.288212 395.770324 
L 346.288212 393.541567 
L 348.00789 391.312811 
L 349.156856 389.084054 
L 350.820522 391.312811 
L 350.820522 389.084054 
L 355.352832 391.312811 
L 355.352832 389.084054 
L 359.885143 391.312811 
L 359.885143 389.084054 
L 361.086889 386.855298 
L 364.417453 389.084054 
L 364.417453 386.855298 
L 365.400877 384.626542 
L 368.949764 386.855298 
L 368.949764 384.626542 
L 371.337231 382.397785 
L 372.404701 380.169029 
L 373.482074 382.397785 
L 373.482074 380.169029 
L 378.014384 382.397785 
L 378.014384 380.169029 
L 382.546695 382.397785 
L 382.546695 380.169029 
L 385.498888 377.940272 
L 387.079005 380.169029 
L 387.079005 377.940272 
L 389.043045 375.711516 
L 391.611315 377.940272 
L 391.611315 375.711516 
L 391.994625 373.48276 
L 395.480515 371.254003 
L 396.143626 373.48276 
L 396.143626 371.254003 
L 398.353682 369.025247 
L 400.675936 371.254003 
L 400.675936 369.025247 
L 405.208247 371.254003 
L 405.208247 369.025247 
L 409.090355 366.79649 
L 409.740557 369.025247 
L 409.740557 366.79649 
L 413.58416 364.567734 
L 414.272867 366.79649 
L 414.272867 364.567734 
L 418.805178 366.79649 
L 418.805178 364.567734 
L 423.337488 366.79649 
L 423.400073 362.338978 
L 424.487481 360.110221 
L 427.869799 362.338978 
L 427.869799 360.110221 
L 432.402109 362.338978 
L 432.402109 360.110221 
L 436.934419 362.338978 
L 436.934419 360.110221 
L 438.796418 357.881465 
L 439.667806 355.652708 
L 441.46673 357.881465 
L 441.46673 355.652708 
L 441.95336 353.423952 
L 442.870966 351.195196 
L 443.909972 348.966439 
L 445.99904 351.195196 
L 445.99904 348.966439 
L 446.944538 346.737683 
L 447.384932 344.508926 
L 450.53135 346.737683 
L 450.53135 344.508926 
L 455.063661 346.737683 
L 455.063661 344.508926 
L 457.992768 342.28017 
L 459.595971 344.508926 
L 459.595971 342.28017 
L 464.128282 344.508926 
L 464.128282 342.28017 
L 466.105556 340.051413 
L 466.405106 337.822657 
L 468.660592 340.051413 
L 468.660592 337.822657 
L 469.418221 335.593901 
L 473.192902 337.822657 
L 473.192902 335.593901 
L 477.725213 337.822657 
L 477.725213 335.593901 
L 478.897804 333.365144 
L 482.257523 335.593901 
L 482.257523 333.365144 
L 484.595993 331.136388 
L 486.789834 333.365144 
L 486.789834 331.136388 
L 489.107743 328.907631 
L 490.087158 326.678875 
L 491.322144 328.907631 
L 491.322144 326.678875 
L 494.447295 324.450119 
L 495.173979 322.221362 
L 495.854454 324.450119 
L 495.854454 322.221362 
L 500.386765 324.450119 
L 500.386765 322.221362 
L 502.045274 319.992606 
L 502.063658 317.763849 
L 504.919075 319.992606 
L 504.919075 317.763849 
L 506.687463 315.535093 
L 507.641665 313.306337 
L 508.792923 311.07758 
L 509.259608 308.848824 
L 509.451385 311.07758 
L 509.451385 308.848824 
L 511.621299 306.620067 
L 513.983696 308.848824 
L 513.983696 306.620067 
L 518.516006 308.848824 
L 518.516006 306.620067 
L 523.048317 308.848824 
L 523.048317 306.620067 
L 527.580627 308.848824 
L 527.580627 306.620067 
L 527.97814 304.391311 
L 532.112937 306.620067 
L 532.112937 304.391311 
L 534.650626 302.162554 
L 535.92658 299.933798 
L 536.645248 302.162554 
L 536.645248 299.933798 
L 538.49139 297.705042 
L 541.177558 299.933798 
L 541.177558 297.705042 
L 545.709869 299.933798 
L 545.709869 297.705042 
L 546.511856 295.476285 
L 550.242179 297.705042 
L 550.242179 295.476285 
L 551.722841 293.247529 
L 551.988107 291.018772 
L 554.774489 293.247529 
L 554.774489 291.018772 
L 557.399747 288.790016 
L 558.760913 286.56126 
L 559.3068 288.790016 
L 559.3068 286.56126 
L 562.775455 284.332503 
L 563.83911 286.56126 
L 563.83911 284.332503 
L 568.37142 286.56126 
L 568.467554 282.103747 
L 570.128425 279.87499 
L 572.555044 277.646234 
L 572.71822 275.417478 
L 572.903731 277.646234 
L 572.903731 275.417478 
L 577.436041 277.646234 
L 577.436041 275.417478 
L 579.6565 273.188721 
L 581.442492 270.959965 
L 581.968352 273.188721 
L 581.968352 270.959965 
L 582.232014 268.731208 
L 586.500662 270.959965 
L 586.500662 268.731208 
L 591.032972 270.959965 
L 591.032972 268.731208 
L 592.852305 266.502452 
L 593.297013 264.273696 
L 595.565283 266.502452 
L 595.565283 264.273696 
L 600.097593 266.502452 
L 600.097593 264.273696 
L 603.920158 262.044939 
L 604.629904 264.273696 
L 604.629904 262.044939 
L 605.121642 259.816183 
L 609.162214 262.044939 
L 609.162214 259.816183 
L 613.694524 262.044939 
L 613.694524 259.816183 
L 618.226835 262.044939 
L 618.226835 259.816183 
L 619.049773 257.587426 
L 619.452389 255.35867 
L 620.239454 253.129913 
L 622.759145 255.35867 
L 622.759145 253.129913 
L 624.790126 250.901157 
L 627.291455 253.129913 
L 627.291455 250.901157 
L 627.631673 246.443644 
L 629.293695 244.214888 
L 631.823766 246.443644 
L 631.823766 244.214888 
L 636.356076 246.443644 
L 636.356076 244.214888 
L 640.888387 246.443644 
L 640.888387 244.214888 
L 643.768815 241.986131 
L 645.420697 244.214888 
L 645.420697 241.986131 
L 645.561641 239.757375 
L 649.953007 241.986131 
L 649.953007 239.757375 
L 653.853694 237.528619 
L 654.485318 239.757375 
L 654.485318 237.528619 
L 659.017628 239.757375 
L 659.017628 237.528619 
L 663.549939 239.757375 
L 663.549939 237.528619 
L 668.082249 239.757375 
L 668.082249 237.528619 
L 671.971892 235.299862 
L 672.614559 237.528619 
L 672.614559 235.299862 
L 674.143833 233.071106 
L 677.14687 235.299862 
L 677.14687 233.071106 
L 678.698503 230.842349 
L 681.67918 233.071106 
L 681.67918 230.842349 
L 681.819061 228.613593 
L 686.211491 230.842349 
L 686.211491 228.613593 
L 687.376273 226.384837 
L 690.743801 228.613593 
L 690.743801 226.384837 
L 695.276111 228.613593 
L 695.276111 226.384837 
L 699.114169 224.15608 
L 699.808422 226.384837 
L 699.808422 224.15608 
L 704.340732 226.384837 
L 704.340732 224.15608 
L 708.873042 226.384837 
L 708.873042 224.15608 
L 709.780213 221.927324 
L 710.984976 219.698567 
L 713.190032 217.469811 
L 713.405353 219.698567 
L 713.405353 217.469811 
L 713.737677 215.241054 
L 717.937663 217.469811 
L 717.937663 215.241054 
L 722.469974 217.469811 
L 722.469974 215.241054 
L 723.412811 213.012298 
L 726.11656 210.783542 
L 727.002284 213.012298 
L 727.002284 210.783542 
L 731.534594 213.012298 
L 731.534594 210.783542 
L 734.399476 208.554785 
L 736.066905 210.783542 
L 736.066905 208.554785 
L 736.343438 206.326029 
L 740.599215 208.554785 
L 740.599215 206.326029 
L 745.131526 208.554785 
L 745.131526 206.326029 
L 749.663836 208.554785 
L 749.663836 206.326029 
L 751.938864 204.097272 
L 754.196146 206.326029 
L 754.196146 204.097272 
L 758.728457 206.326029 
L 758.728457 204.097272 
L 763.260767 206.326029 
L 763.260767 204.097272 
L 767.510176 201.868516 
L 767.793077 204.097272 
L 767.793077 201.868516 
L 770.705225 199.63976 
L 772.325388 201.868516 
L 772.325388 199.63976 
L 776.857698 201.868516 
L 776.857698 199.63976 
L 780.914222 197.411003 
L 781.390009 199.63976 
L 781.390009 197.411003 
L 782.728875 195.182247 
L 783.229768 192.95349 
L 785.922319 195.182247 
L 785.922319 192.95349 
L 786.485625 190.724734 
L 790.454629 192.95349 
L 790.454629 190.724734 
L 792.592681 188.495978 
L 793.632017 186.267221 
L 794.98694 188.495978 
L 794.98694 186.267221 
L 798.7556 184.038465 
L 799.51925 186.267221 
L 799.51925 184.038465 
L 802.311455 181.809708 
L 803.925709 179.580952 
L 804.03826 177.352196 
L 804.051561 179.580952 
L 804.051561 177.352196 
L 807.465441 175.123439 
L 808.221411 172.894683 
L 808.583871 175.123439 
L 808.583871 172.894683 
L 810.122621 170.665926 
L 811.189554 168.43717 
L 811.664142 166.208413 
L 813.116181 168.43717 
L 813.214984 163.979657 
L 816.725335 161.750901 
L 817.648492 163.979657 
L 817.648492 161.750901 
L 822.180802 163.979657 
L 822.180802 161.750901 
L 826.713112 163.979657 
L 826.713112 161.750901 
L 830.200838 159.522144 
L 831.245423 161.750901 
L 831.245423 159.522144 
L 835.777733 161.750901 
L 835.777733 159.522144 
L 837.816399 157.293388 
L 840.310044 159.522144 
L 840.310044 157.293388 
L 841.142526 155.064631 
L 843.943731 152.835875 
L 844.842354 155.064631 
L 844.842354 152.835875 
L 847.454521 150.607119 
L 849.374664 152.835875 
L 849.374664 150.607119 
L 853.906975 152.835875 
L 853.906975 150.607119 
L 857.068251 148.378362 
L 858.439285 150.607119 
L 858.439285 148.378362 
L 862.971596 150.607119 
L 862.971596 148.378362 
L 867.503906 150.607119 
L 867.503906 148.378362 
L 868.65065 146.149606 
L 870.88453 143.920849 
L 871.677278 141.692093 
L 872.036216 143.920849 
L 872.036216 141.692093 
L 875.610213 139.463337 
L 876.568527 141.692093 
L 876.568527 139.463337 
L 878.290181 137.23458 
L 879.0048 135.005824 
L 880.858141 132.777067 
L 881.100837 135.005824 
L 881.100837 132.777067 
L 883.488193 130.548311 
L 884.776365 128.319554 
L 885.056535 126.090798 
L 885.633147 128.319554 
L 885.633147 126.090798 
L 888.36062 123.862042 
L 890.165458 126.090798 
L 890.165458 123.862042 
L 894.697768 126.090798 
L 894.697768 123.862042 
L 898.709671 121.633285 
L 899.230079 123.862042 
L 899.230079 121.633285 
L 903.762389 123.862042 
L 903.762389 121.633285 
L 908.294699 123.862042 
L 908.294699 121.633285 
L 912.82701 123.862042 
L 912.82701 121.633285 
L 914.636113 119.404529 
L 917.35932 121.633285 
L 917.399745 117.175772 
L 921.891631 119.404529 
L 921.891631 117.175772 
L 926.423941 119.404529 
L 926.423941 117.175772 
L 930.956251 119.404529 
L 930.956251 117.175772 
L 933.36776 114.947016 
L 935.488562 117.175772 
L 935.488562 114.947016 
L 940.020872 117.175772 
L 940.020872 114.947016 
L 940.968149 112.71826 
L 944.553183 114.947016 
L 944.553183 112.71826 
L 947.523264 110.489503 
L 949.085493 112.71826 
L 949.085493 110.489503 
L 953.617803 112.71826 
L 953.617803 110.489503 
L 954.09204 108.260747 
L 955.874223 106.03199 
L 958.150114 108.260747 
L 958.150114 106.03199 
L 962.682424 108.260747 
L 962.682424 106.03199 
L 967.214734 108.260747 
L 967.214734 106.03199 
L 968.366236 103.803234 
L 970.535294 101.574478 
L 971.747045 103.803234 
L 971.747045 101.574478 
L 976.279355 103.803234 
L 976.279355 101.574478 
L 977.098742 99.345721 
L 979.283221 97.116965 
L 979.743472 94.888208 
L 980.582656 92.659452 
L 980.811666 94.888208 
L 980.856036 90.430696 
L 982.289321 88.201939 
L 985.194149 85.973183 
L 985.343976 88.201939 
L 985.343976 85.973183 
L 989.876286 88.201939 
L 989.876286 85.973183 
L 994.408597 88.201939 
L 994.408597 85.973183 
L 998.940907 88.201939 
L 998.940907 85.973183 
L 1002.91612 83.744426 
L 1003.245239 81.51567 
L 1003.473218 83.744426 
L 1003.473218 81.51567 
L 1008.005528 83.744426 
L 1008.005528 81.51567 
L 1011.078247 79.286913 
L 1012.537838 81.51567 
L 1012.537838 79.286913 
L 1013.434241 77.058157 
L 1015.746894 74.829401 
L 1017.070149 77.058157 
L 1017.070149 74.829401 
L 1019.971854 72.600644 
L 1021.602459 74.829401 
L 1021.602459 72.600644 
L 1025.166235 70.371888 
L 1026.134769 72.600644 
L 1026.134769 70.371888 
L 1027.513625 68.143131 
L 1030.66708 70.371888 
L 1030.66708 68.143131 
L 1030.879879 65.914375 
L 1030.879879 65.914375 
" clip-path="url(#pdeb2b6ca47)" style="fill: none; stroke: #1f77b4; stroke-width: 1.5; stroke-linecap: square"/>
   </g>
   <g id="patch_3">
    <path d="M 87.951094 522.25225 
L 87.951094 44.184 
" style="fill: none; stroke: #000000; stroke-width: 0.8; stroke-linejoin: miter; stroke-linecap: square"/>
   </g>
   <g id="patch_4">
    <path d="M 1075.78125 522.25225 
L 1075.78125 44.184 
" style="fill: none; stroke: #000000; stroke-width: 0.8; stroke-linejoin: miter; stroke-linecap: square"/>
   </g>
   <g id="patch_5">
    <path d="M 87.951094 522.25225 
L 1075.78125 522.25225 
" style="fill: none; stroke: #000000; stroke-width: 0.8; stroke-linejoin: miter; stroke-linecap: square"/>
   </g>
   <g id="patch_6">
    <path d="M 87.951094 44.184 
L 1075.78125 44.184 
" style="fill: none; stroke: #000000; stroke-width: 0.8; stroke-linejoin: miter; stroke-linecap: square"/>
   </g>
   <g id="text_19">
    <!-- Buffer Size in Network.node[1].lnk[0] -->
    <g transform="translate(470.274609 38.184)scale(0.12 -0.12)">
     <defs>
      <path id="DejaVuSans-42" d="M 1259 2228 
L 1259 519 
L 2272 519 
Q 2781 519 3026 730 
Q 3272 941 3272 1375 
Q 3272 1813 3026 2020 
Q 2781 2228 2272 2228 
L 1259 2228 
z
M 1259 4147 
L 1259 2741 
L 2194 2741 
Q 2656 2741 2882 2914 
Q 3109 3088 3109 3444 
Q 3109 3797 2882 3972 
Q 2656 4147 2194 4147 
L 1259 4147 
z
M 628 4666 
L 2241 4666 
Q 2963 4666 3353 4366 
Q 3744 4066 3744 3513 
Q 3744 3084 3544 2831 
Q 3344 2578 2956 2516 
Q 3422 2416 3680 2098 
Q 3938 1781 3938 1306 
Q 3938 681 3513 340 
Q 3088 0 2303 0 
L 628 0 
L 628 4666 
z
" transform="scale(0.015625)"/>
      <path id="DejaVuSans-75" d="M 544 1381 
L 544 3500 
L 1119 3500 
L 1119 1403 
Q 1119 906 1312 657 
Q 1506 409 1894 409 
Q 2359 409 2629 706 
Q 2900 1003 2900 1516 
L 2900 3500 
L 3475 3500 
L 3475 0 
L 2900 0 
L 2900 538 
Q 2691 219 2414 64 
Q 2138 -91 1772 -91 
Q 1169 -91 856 284 
Q 544 659 544 1381 
z
M 1991 3584 
L 1991 3584 
z
" transform="scale(0.015625)"/>
      <path id="DejaVuSans-66" d="M 2375 4863 
L 2375 4384 
L 1825 4384 
Q 1516 4384 1395 4259 
Q 1275 4134 1275 3809 
L 1275 3500 
L 2222 3500 
L 2222 3053 
L 1275 3053 
L 1275 0 
L 697 0 
L 697 3053 
L 147 3053 
L 147 3500 
L 697 3500 
L 697 3744 
Q 697 4328 969 4595 
Q 1241 4863 1831 4863 
L 2375 4863 
z
" transform="scale(0.015625)"/>
      <path id="DejaVuSans-65" d="M 3597 1894 
L 3597 1613 
L 953 1613 
Q 991 1019 1311 708 
Q 1631 397 2203 397 
Q 2534 397 2845 478 
Q 3156 559 3463 722 
L 3463 178 
Q 3153 47 2828 -22 
Q 2503 -91 2169 -91 
Q 1331 -91 842 396 
Q 353 884 353 1716 
Q 353 2575 817 3079 
Q 1281 3584 2069 3584 
Q 2775 3584 3186 3129 
Q 3597 2675 3597 1894 
z
M 3022 2063 
Q 3016 2534 2758 2815 
Q 2500 3097 2075 3097 
Q 1594 3097 1305 2825 
Q 1016 2553 972 2059 
L 3022 2063 
z
" transform="scale(0.015625)"/>
      <path id="DejaVuSans-72" d="M 2631 2963 
Q 2534 3019 2420 3045 
Q 2306 3072 2169 3072 
Q 1681 3072 1420 2755 
Q 1159 2438 1159 1844 
L 1159 0 
L 581 0 
L 581 3500 
L 1159 3500 
L 1159 2956 
Q 1341 3275 1631 3429 
Q 1922 3584 2338 3584 
Q 2397 3584 2469 3576 
Q 2541 3569 2628 3553 
L 2631 2963 
z
" transform="scale(0.015625)"/>
      <path id="DejaVuSans-20" transform="scale(0.015625)"/>
      <path id="DejaVuSans-53" d="M 3425 4513 
L 3425 3897 
Q 3066 4069 2747 4153 
Q 2428 4238 2131 4238 
Q 1616 4238 1336 4038 
Q 1056 3838 1056 3469 
Q 1056 3159 1242 3001 
Q 1428 2844 1947 2747 
L 2328 2669 
Q 3034 2534 3370 2195 
Q 3706 1856 3706 1288 
Q 3706 609 3251 259 
Q 2797 -91 1919 -91 
Q 1588 -91 1214 -16 
Q 841 59 441 206 
L 441 856 
Q 825 641 1194 531 
Q 1563 422 1919 422 
Q 2459 422 2753 634 
Q 3047 847 3047 1241 
Q 3047 1584 2836 1778 
Q 2625 1972 2144 2069 
L 1759 2144 
Q 1053 2284 737 2584 
Q 422 2884 422 3419 
Q 422 4038 858 4394 
Q 1294 4750 2059 4750 
Q 2388 4750 2728 4690 
Q 3069 4631 3425 4513 
z
" transform="scale(0.015625)"/>
      <path id="DejaVuSans-69" d="M 603 3500 
L 1178 3500 
L 1178 0 
L 603 0 
L 603 3500 
z
M 603 4863 
L 1178 4863 
L 1178 4134 
L 603 4134 
L 603 4863 
z
" transform="scale(0.015625)"/>
      <path id="DejaVuSans-7a" d="M 353 3500 
L 3084 3500 
L 3084 2975 
L 922 459 
L 3084 459 
L 3084 0 
L 275 0 
L 275 525 
L 2438 3041 
L 353 3041 
L 353 3500 
z
" transform="scale(0.015625)"/>
      <path id="DejaVuSans-6e" d="M 3513 2113 
L 3513 0 
L 2938 0 
L 2938 2094 
Q 2938 2591 2744 2837 
Q 2550 3084 2163 3084 
Q 1697 3084 1428 2787 
Q 1159 2491 1159 1978 
L 1159 0 
L 581 0 
L 581 3500 
L 1159 3500 
L 1159 2956 
Q 1366 3272 1645 3428 
Q 1925 3584 2291 3584 
Q 2894 3584 3203 3211 
Q 3513 2838 3513 2113 
z
" transform="scale(0.015625)"/>
      <path id="DejaVuSans-4e" d="M 628 4666 
L 1478 4666 
L 3547 763 
L 3547 4666 
L 4159 4666 
L 4159 0 
L 3309 0 
L 1241 3903 
L 1241 0 
L 628 0 
L 628 4666 
z
" transform="scale(0.015625)"/>
      <path id="DejaVuSans-74" d="M 1172 4494 
L 1172 3500 
L 2356 3500 
L 2356 3053 
L 1172 3053 
L 1172 1153 
Q 1172 725 1289 603 
Q 1406 481 1766 481 
L 2356 481 
L 2356 0 
L 1766 0 
Q 1100 0 847 248 
Q 594 497 594 1153 
L 594 3053 
L 172 3053 
L 172 3500 
L 594 3500 
L 594 4494 
L 1172 4494 
z
" transform="scale(0.015625)"/>
      <path id="DejaVuSans-77" d="M 269 3500 
L 844 3500 
L 1563 769 
L 2278 3500 
L 2956 3500 
L 3675 769 
L 4391 3500 
L 4966 3500 
L 4050 0 
L 3372 0 
L 2619 2869 
L 1863 0 
L 1184 0 
L 269 3500 
z
" transform="scale(0.015625)"/>
      <path id="DejaVuSans-6f" d="M 1959 3097 
Q 1497 3097 1228 2736 
Q 959 2375 959 1747 
Q 959 1119 1226 758 
Q 1494 397 1959 397 
Q 2419 397 2687 759 
Q 2956 1122 2956 1747 
Q 2956 2369 2687 2733 
Q 2419 3097 1959 3097 
z
M 1959 3584 
Q 2709 3584 3137 3096 
Q 3566 2609 3566 1747 
Q 3566 888 3137 398 
Q 2709 -91 1959 -91 
Q 1206 -91 779 398 
Q 353 888 353 1747 
Q 353 2609 779 3096 
Q 1206 3584 1959 3584 
z
" transform="scale(0.015625)"/>
      <path id="DejaVuSans-6b" d="M 581 4863 
L 1159 4863 
L 1159 1991 
L 2875 3500 
L 3609 3500 
L 1753 1863 
L 3688 0 
L 2938 0 
L 1159 1709 
L 1159 0 
L 581 0 
L 581 4863 
z
" transform="scale(0.015625)"/>
      <path id="DejaVuSans-2e" d="M 684 794 
L 1344 794 
L 1344 0 
L 684 0 
L 684 794 
z
" transform="scale(0.015625)"/>
      <path id="DejaVuSans-64" d="M 2906 2969 
L 2906 4863 
L 3481 4863 
L 3481 0 
L 2906 0 
L 2906 525 
Q 2725 213 2448 61 
Q 2172 -91 1784 -91 
Q 1150 -91 751 415 
Q 353 922 353 1747 
Q 353 2572 751 3078 
Q 1150 3584 1784 3584 
Q 2172 3584 2448 3432 
Q 2725 3281 2906 2969 
z
M 947 1747 
Q 947 1113 1208 752 
Q 1469 391 1925 391 
Q 2381 391 2643 752 
Q 2906 1113 2906 1747 
Q 2906 2381 2643 2742 
Q 2381 3103 1925 3103 
Q 1469 3103 1208 2742 
Q 947 2381 947 1747 
z
" transform="scale(0.015625)"/>
      <path id="DejaVuSans-5b" d="M 550 4863 
L 1875 4863 
L 1875 4416 
L 1125 4416 
L 1125 -397 
L 1875 -397 
L 1875 -844 
L 550 -844 
L 550 4863 
z
" transform="scale(0.015625)"/>
      <path id="DejaVuSans-5d" d="M 1947 4863 
L 1947 -844 
L 622 -844 
L 622 -397 
L 1369 -397 
L 1369 4416 
L 622 4416 
L 622 4863 
L 1947 4863 
z
" transform="scale(0.015625)"/>
      <path id="DejaVuSans-6c" d="M 603 4863 
L 1178 4863 
L 1178 0 
L 603 0 
L 603 4863 
z
" transform="scale(0.015625)"/>
     </defs>
     <use xlink:href="#DejaVuSans-42"/>
     <use xlink:href="#DejaVuSans-75" x="68.603516"/>
     <use xlink:href="#DejaVuSans-66" x="131.982422"/>
     <use xlink:href="#DejaVuSans-66" x="167.1875"/>
     <use xlink:href="#DejaVuSans-65" x="202.392578"/>
     <use xlink:href="#DejaVuSans-72" x="263.916016"/>
     <use xlink:href="#DejaVuSans-20" x="305.029297"/>
     <use xlink:href="#DejaVuSans-53" x="336.816406"/>
     <use xlink:href="#DejaVuSans-69" x="400.292969"/>
     <use xlink:href="#DejaVuSans-7a" x="428.076172"/>
     <use xlink:href="#DejaVuSans-65" x="480.566406"/>
     <use xlink:href="#DejaVuSans-20" x="542.089844"/>
     <use xlink:href="#DejaVuSans-69" x="573.876953"/>
     <use xlink:href="#DejaVuSans-6e" x="601.660156"/>
     <use xlink:href="#DejaVuSans-20" x="665.039062"/>
     <use xlink:href="#DejaVuSans-4e" x="696.826172"/>
     <use xlink:href="#DejaVuSans-65" x="771.630859"/>
     <use xlink:href="#DejaVuSans-74" x="833.154297"/>
     <use xlink:href="#DejaVuSans-77" x="872.363281"/>
     <use xlink:href="#DejaVuSans-6f" x="954.150391"/>
     <use xlink:href="#DejaVuSans-72" x="1015.332031"/>
     <use xlink:href="#DejaVuSans-6b" x="1056.445312"/>
     <use xlink:href="#DejaVuSans-2e" x="1114.355469"/>
     <use xlink:href="#DejaVuSans-6e" x="1146.142578"/>
     <use xlink:href="#DejaVuSans-6f" x="1209.521484"/>
     <use xlink:href="#DejaVuSans-64" x="1270.703125"/>
     <use xlink:href="#DejaVuSans-65" x="1334.179688"/>
     <use xlink:href="#DejaVuSans-5b" x="1395.703125"/>
     <use xlink:href="#DejaVuSans-31" x="1434.716797"/>
     <use xlink:href="#DejaVuSans-5d" x="1498.339844"/>
     <use xlink:href="#DejaVuSans-2e" x="1537.353516"/>
     <use xlink:href="#DejaVuSans-6c" x="1569.140625"/>
     <use xlink:href="#DejaVuSans-6e" x="1596.923828"/>
     <use xlink:href="#DejaVuSans-6b" x="1660.302734"/>
     <use xlink:href="#DejaVuSans-5b" x="1718.212891"/>
     <use xlink:href="#DejaVuSans-30" x="1757.226562"/>
     <use xlink:href="#DejaVuSans-5d" x="1820.849609"/>
    </g>
   </g>
   <g id="legend_1">
    <g id="patch_7">
     <path d="M 848.795313 66.862125 
L 1070.78125 66.862125 
L 1070.78125 49.184 
L 848.795313 49.184 
z
" style="fill: #ffffff; opacity: 0.8; stroke: #cccccc; stroke-linejoin: miter"/>
    </g>
    <g id="line2d_38">
     <path d="M 852.795313 57.282438 
L 862.795313 57.282438 
L 872.795313 57.282438 
" style="fill: none; stroke: #1f77b4; stroke-width: 1.5; stroke-linecap: square"/>
    </g>
    <g id="text_20">
     <!-- Buffer Size in Network.node[1].lnk[0] -->
     <g transform="translate(880.795313 60.782438)scale(0.1 -0.1)">
      <use xlink:href="#DejaVuSans-42"/>
      <use xlink:href="#DejaVuSans-75" x="68.603516"/>
      <use xlink:href="#DejaVuSans-66" x="131.982422"/>
      <use xlink:href="#DejaVuSans-66" x="167.1875"/>
      <use xlink:href="#DejaVuSans-65" x="202.392578"/>
      <use xlink:href="#DejaVuSans-72" x="263.916016"/>
      <use xlink:href="#DejaVuSans-20" x="305.029297"/>
      <use xlink:href="#DejaVuSans-53" x="336.816406"/>
      <use xlink:href="#DejaVuSans-69" x="400.292969"/>
      <use xlink:href="#DejaVuSans-7a" x="428.076172"/>
      <use xlink:href="#DejaVuSans-65" x="480.566406"/>
      <use xlink:href="#DejaVuSans-20" x="542.089844"/>
      <use xlink:href="#DejaVuSans-69" x="573.876953"/>
      <use xlink:href="#DejaVuSans-6e" x="601.660156"/>
      <use xlink:href="#DejaVuSans-20" x="665.039062"/>
      <use xlink:href="#DejaVuSans-4e" x="696.826172"/>
      <use xlink:href="#DejaVuSans-65" x="771.630859"/>
      <use xlink:href="#DejaVuSans-74" x="833.154297"/>
      <use xlink:href="#DejaVuSans-77" x="872.363281"/>
      <use xlink:href="#DejaVuSans-6f" x="954.150391"/>
      <use xlink:href="#DejaVuSans-72" x="1015.332031"/>
      <use xlink:href="#DejaVuSans-6b" x="1056.445312"/>
      <use xlink:href="#DejaVuSans-2e" x="1114.355469"/>
      <use xlink:href="#DejaVuSans-6e" x="1146.142578"/>
      <use xlink:href="#DejaVuSans-6f" x="1209.521484"/>
      <use xlink:href="#DejaVuSans-64" x="1270.703125"/>
      <use xlink:href="#DejaVuSans-65" x="1334.179688"/>
      <use xlink:href="#DejaVuSans-5b" x="1395.703125"/>
      <use xlink:href="#DejaVuSans-31" x="1434.716797"/>
      <use xlink:href="#DejaVuSans-5d" x="1498.339844"/>
      <use xlink:href="#DejaVuSans-2e" x="1537.353516"/>
      <use xlink:href="#DejaVuSans-6c" x="1569.140625"/>
      <use xlink:href="#DejaVuSans-6e" x="1596.923828"/>
      <use xlink:href="#DejaVuSans-6b" x="1660.302734"/>
      <use xlink:href="#DejaVuSans-5b" x="1718.212891"/>
      <use xlink:href="#DejaVuSans-30" x="1757.226562"/>
      <use xlink:href="#DejaVuSans-5d" x="1820.849609"/>
     </g>
    </g>
   </g>
  </g>
 </g>
 <defs>
  <clipPath id="pdeb2b6ca47">
   <rect x="87.951094" y="44.184" width="987.830156" height="478.06825"/>
  </clipPath>
 </defs>
</svg>
