<?xml version="1.0" encoding="utf-8" standalone="no"?>
<!DOCTYPE svg PUBLIC "-//W3C//DTD SVG 1.1//EN"
  "http://www.w3.org/Graphics/SVG/1.1/DTD/svg11.dtd">
<svg xmlns:xlink="http://www.w3.org/1999/xlink" width="1101.6pt" height="568.08pt" viewBox="0 0 1101.6 568.08" xmlns="http://www.w3.org/2000/svg" version="1.1">
 <metadata>
  <rdf:RDF xmlns:dc="http://purl.org/dc/elements/1.1/" xmlns:cc="http://creativecommons.org/ns#" xmlns:rdf="http://www.w3.org/1999/02/22-rdf-syntax-ns#">
   <cc:Work>
    <dc:type rdf:resource="http://purl.org/dc/dcmitype/StillImage"/>
    <dc:date>2023-05-23T19:41:47.259750</dc:date>
    <dc:format>image/svg+xml</dc:format>
    <dc:creator>
     <cc:Agent>
      <dc:title>Matplotlib v3.5.2, https://matplotlib.org/</dc:title>
     </cc:Agent>
    </dc:creator>
   </cc:Work>
  </rdf:RDF>
 </metadata>
 <defs>
  <style type="text/css">*{stroke-linejoin: round; stroke-linecap: butt}</style>
 </defs>
 <g id="figure_1">
  <g id="patch_1">
   <path d="M 0 568.08 
L 1101.6 568.08 
L 1101.6 0 
L 0 0 
z
" style="fill: #ffffff"/>
  </g>
  <g id="axes_1">
   <g id="patch_2">
    <path d="M 87.951094 522.25225 
L 1075.78125 522.25225 
L 1075.78125 44.184 
L 87.951094 44.184 
z
" style="fill: #ffffff"/>
   </g>
   <g id="matplotlib.axis_1">
    <g id="xtick_1">
     <g id="line2d_1">
      <path d="M 130.667767 522.25225 
L 130.667767 44.184 
" clip-path="url(#p1598f8030b)" style="fill: none; stroke: #b0b0b0; stroke-width: 0.8; stroke-linecap: square"/>
     </g>
     <g id="line2d_2">
      <defs>
       <path id="m5c295c6bdb" d="M 0 0 
L 0 3.5 
" style="stroke: #000000; stroke-width: 0.8"/>
      </defs>
      <g>
       <use xlink:href="#m5c295c6bdb" x="130.667767" y="522.25225" style="stroke: #000000; stroke-width: 0.8"/>
      </g>
     </g>
     <g id="text_1">
      <!-- 0 -->
      <g transform="translate(127.486517 536.850687)scale(0.1 -0.1)">
       <defs>
        <path id="DejaVuSans-30" d="M 2034 4250 
Q 1547 4250 1301 3770 
Q 1056 3291 1056 2328 
Q 1056 1369 1301 889 
Q 1547 409 2034 409 
Q 2525 409 2770 889 
Q 3016 1369 3016 2328 
Q 3016 3291 2770 3770 
Q 2525 4250 2034 4250 
z
M 2034 4750 
Q 2819 4750 3233 4129 
Q 3647 3509 3647 2328 
Q 3647 1150 3233 529 
Q 2819 -91 2034 -91 
Q 1250 -91 836 529 
Q 422 1150 422 2328 
Q 422 3509 836 4129 
Q 1250 4750 2034 4750 
z
" transform="scale(0.015625)"/>
       </defs>
       <use xlink:href="#DejaVuSans-30"/>
      </g>
     </g>
    </g>
    <g id="xtick_2">
     <g id="line2d_3">
      <path d="M 243.251271 522.25225 
L 243.251271 44.184 
" clip-path="url(#p1598f8030b)" style="fill: none; stroke: #b0b0b0; stroke-width: 0.8; stroke-linecap: square"/>
     </g>
     <g id="line2d_4">
      <g>
       <use xlink:href="#m5c295c6bdb" x="243.251271" y="522.25225" style="stroke: #000000; stroke-width: 0.8"/>
      </g>
     </g>
     <g id="text_2">
      <!-- 25 -->
      <g transform="translate(236.888771 536.850687)scale(0.1 -0.1)">
       <defs>
        <path id="DejaVuSans-32" d="M 1228 531 
L 3431 531 
L 3431 0 
L 469 0 
L 469 531 
Q 828 903 1448 1529 
Q 2069 2156 2228 2338 
Q 2531 2678 2651 2914 
Q 2772 3150 2772 3378 
Q 2772 3750 2511 3984 
Q 2250 4219 1831 4219 
Q 1534 4219 1204 4116 
Q 875 4013 500 3803 
L 500 4441 
Q 881 4594 1212 4672 
Q 1544 4750 1819 4750 
Q 2544 4750 2975 4387 
Q 3406 4025 3406 3419 
Q 3406 3131 3298 2873 
Q 3191 2616 2906 2266 
Q 2828 2175 2409 1742 
Q 1991 1309 1228 531 
z
" transform="scale(0.015625)"/>
        <path id="DejaVuSans-35" d="M 691 4666 
L 3169 4666 
L 3169 4134 
L 1269 4134 
L 1269 2991 
Q 1406 3038 1543 3061 
Q 1681 3084 1819 3084 
Q 2600 3084 3056 2656 
Q 3513 2228 3513 1497 
Q 3513 744 3044 326 
Q 2575 -91 1722 -91 
Q 1428 -91 1123 -41 
Q 819 9 494 109 
L 494 744 
Q 775 591 1075 516 
Q 1375 441 1709 441 
Q 2250 441 2565 725 
Q 2881 1009 2881 1497 
Q 2881 1984 2565 2268 
Q 2250 2553 1709 2553 
Q 1456 2553 1204 2497 
Q 953 2441 691 2322 
L 691 4666 
z
" transform="scale(0.015625)"/>
       </defs>
       <use xlink:href="#DejaVuSans-32"/>
       <use xlink:href="#DejaVuSans-35" x="63.623047"/>
      </g>
     </g>
    </g>
    <g id="xtick_3">
     <g id="line2d_5">
      <path d="M 355.834774 522.25225 
L 355.834774 44.184 
" clip-path="url(#p1598f8030b)" style="fill: none; stroke: #b0b0b0; stroke-width: 0.8; stroke-linecap: square"/>
     </g>
     <g id="line2d_6">
      <g>
       <use xlink:href="#m5c295c6bdb" x="355.834774" y="522.25225" style="stroke: #000000; stroke-width: 0.8"/>
      </g>
     </g>
     <g id="text_3">
      <!-- 50 -->
      <g transform="translate(349.472274 536.850687)scale(0.1 -0.1)">
       <use xlink:href="#DejaVuSans-35"/>
       <use xlink:href="#DejaVuSans-30" x="63.623047"/>
      </g>
     </g>
    </g>
    <g id="xtick_4">
     <g id="line2d_7">
      <path d="M 468.418278 522.25225 
L 468.418278 44.184 
" clip-path="url(#p1598f8030b)" style="fill: none; stroke: #b0b0b0; stroke-width: 0.8; stroke-linecap: square"/>
     </g>
     <g id="line2d_8">
      <g>
       <use xlink:href="#m5c295c6bdb" x="468.418278" y="522.25225" style="stroke: #000000; stroke-width: 0.8"/>
      </g>
     </g>
     <g id="text_4">
      <!-- 75 -->
      <g transform="translate(462.055778 536.850687)scale(0.1 -0.1)">
       <defs>
        <path id="DejaVuSans-37" d="M 525 4666 
L 3525 4666 
L 3525 4397 
L 1831 0 
L 1172 0 
L 2766 4134 
L 525 4134 
L 525 4666 
z
" transform="scale(0.015625)"/>
       </defs>
       <use xlink:href="#DejaVuSans-37"/>
       <use xlink:href="#DejaVuSans-35" x="63.623047"/>
      </g>
     </g>
    </g>
    <g id="xtick_5">
     <g id="line2d_9">
      <path d="M 581.001782 522.25225 
L 581.001782 44.184 
" clip-path="url(#p1598f8030b)" style="fill: none; stroke: #b0b0b0; stroke-width: 0.8; stroke-linecap: square"/>
     </g>
     <g id="line2d_10">
      <g>
       <use xlink:href="#m5c295c6bdb" x="581.001782" y="522.25225" style="stroke: #000000; stroke-width: 0.8"/>
      </g>
     </g>
     <g id="text_5">
      <!-- 100 -->
      <g transform="translate(571.458032 536.850687)scale(0.1 -0.1)">
       <defs>
        <path id="DejaVuSans-31" d="M 794 531 
L 1825 531 
L 1825 4091 
L 703 3866 
L 703 4441 
L 1819 4666 
L 2450 4666 
L 2450 531 
L 3481 531 
L 3481 0 
L 794 0 
L 794 531 
z
" transform="scale(0.015625)"/>
       </defs>
       <use xlink:href="#DejaVuSans-31"/>
       <use xlink:href="#DejaVuSans-30" x="63.623047"/>
       <use xlink:href="#DejaVuSans-30" x="127.246094"/>
      </g>
     </g>
    </g>
    <g id="xtick_6">
     <g id="line2d_11">
      <path d="M 693.585285 522.25225 
L 693.585285 44.184 
" clip-path="url(#p1598f8030b)" style="fill: none; stroke: #b0b0b0; stroke-width: 0.8; stroke-linecap: square"/>
     </g>
     <g id="line2d_12">
      <g>
       <use xlink:href="#m5c295c6bdb" x="693.585285" y="522.25225" style="stroke: #000000; stroke-width: 0.8"/>
      </g>
     </g>
     <g id="text_6">
      <!-- 125 -->
      <g transform="translate(684.041535 536.850687)scale(0.1 -0.1)">
       <use xlink:href="#DejaVuSans-31"/>
       <use xlink:href="#DejaVuSans-32" x="63.623047"/>
       <use xlink:href="#DejaVuSans-35" x="127.246094"/>
      </g>
     </g>
    </g>
    <g id="xtick_7">
     <g id="line2d_13">
      <path d="M 806.168789 522.25225 
L 806.168789 44.184 
" clip-path="url(#p1598f8030b)" style="fill: none; stroke: #b0b0b0; stroke-width: 0.8; stroke-linecap: square"/>
     </g>
     <g id="line2d_14">
      <g>
       <use xlink:href="#m5c295c6bdb" x="806.168789" y="522.25225" style="stroke: #000000; stroke-width: 0.8"/>
      </g>
     </g>
     <g id="text_7">
      <!-- 150 -->
      <g transform="translate(796.625039 536.850687)scale(0.1 -0.1)">
       <use xlink:href="#DejaVuSans-31"/>
       <use xlink:href="#DejaVuSans-35" x="63.623047"/>
       <use xlink:href="#DejaVuSans-30" x="127.246094"/>
      </g>
     </g>
    </g>
    <g id="xtick_8">
     <g id="line2d_15">
      <path d="M 918.752292 522.25225 
L 918.752292 44.184 
" clip-path="url(#p1598f8030b)" style="fill: none; stroke: #b0b0b0; stroke-width: 0.8; stroke-linecap: square"/>
     </g>
     <g id="line2d_16">
      <g>
       <use xlink:href="#m5c295c6bdb" x="918.752292" y="522.25225" style="stroke: #000000; stroke-width: 0.8"/>
      </g>
     </g>
     <g id="text_8">
      <!-- 175 -->
      <g transform="translate(909.208542 536.850687)scale(0.1 -0.1)">
       <use xlink:href="#DejaVuSans-31"/>
       <use xlink:href="#DejaVuSans-37" x="63.623047"/>
       <use xlink:href="#DejaVuSans-35" x="127.246094"/>
      </g>
     </g>
    </g>
    <g id="xtick_9">
     <g id="line2d_17">
      <path d="M 1031.335796 522.25225 
L 1031.335796 44.184 
" clip-path="url(#p1598f8030b)" style="fill: none; stroke: #b0b0b0; stroke-width: 0.8; stroke-linecap: square"/>
     </g>
     <g id="line2d_18">
      <g>
       <use xlink:href="#m5c295c6bdb" x="1031.335796" y="522.25225" style="stroke: #000000; stroke-width: 0.8"/>
      </g>
     </g>
     <g id="text_9">
      <!-- 200 -->
      <g transform="translate(1021.792046 536.850687)scale(0.1 -0.1)">
       <use xlink:href="#DejaVuSans-32"/>
       <use xlink:href="#DejaVuSans-30" x="63.623047"/>
       <use xlink:href="#DejaVuSans-30" x="127.246094"/>
      </g>
     </g>
    </g>
   </g>
   <g id="matplotlib.axis_2">
    <g id="ytick_1">
     <g id="line2d_19">
      <path d="M 87.951094 500.521875 
L 1075.78125 500.521875 
" clip-path="url(#p1598f8030b)" style="fill: none; stroke: #b0b0b0; stroke-width: 0.8; stroke-linecap: square"/>
     </g>
     <g id="line2d_20">
      <defs>
       <path id="m107c198c6c" d="M 0 0 
L -3.5 0 
" style="stroke: #000000; stroke-width: 0.8"/>
      </defs>
      <g>
       <use xlink:href="#m107c198c6c" x="87.951094" y="500.521875" style="stroke: #000000; stroke-width: 0.8"/>
      </g>
     </g>
     <g id="text_10">
      <!-- 0 -->
      <g transform="translate(74.588594 504.321094)scale(0.1 -0.1)">
       <use xlink:href="#DejaVuSans-30"/>
      </g>
     </g>
    </g>
    <g id="ytick_2">
     <g id="line2d_21">
      <path d="M 87.951094 434.270732 
L 1075.78125 434.270732 
" clip-path="url(#p1598f8030b)" style="fill: none; stroke: #b0b0b0; stroke-width: 0.8; stroke-linecap: square"/>
     </g>
     <g id="line2d_22">
      <g>
       <use xlink:href="#m107c198c6c" x="87.951094" y="434.270732" style="stroke: #000000; stroke-width: 0.8"/>
      </g>
     </g>
     <g id="text_11">
      <!-- 25 -->
      <g transform="translate(68.226094 438.06995)scale(0.1 -0.1)">
       <use xlink:href="#DejaVuSans-32"/>
       <use xlink:href="#DejaVuSans-35" x="63.623047"/>
      </g>
     </g>
    </g>
    <g id="ytick_3">
     <g id="line2d_23">
      <path d="M 87.951094 368.019588 
L 1075.78125 368.019588 
" clip-path="url(#p1598f8030b)" style="fill: none; stroke: #b0b0b0; stroke-width: 0.8; stroke-linecap: square"/>
     </g>
     <g id="line2d_24">
      <g>
       <use xlink:href="#m107c198c6c" x="87.951094" y="368.019588" style="stroke: #000000; stroke-width: 0.8"/>
      </g>
     </g>
     <g id="text_12">
      <!-- 50 -->
      <g transform="translate(68.226094 371.818807)scale(0.1 -0.1)">
       <use xlink:href="#DejaVuSans-35"/>
       <use xlink:href="#DejaVuSans-30" x="63.623047"/>
      </g>
     </g>
    </g>
    <g id="ytick_4">
     <g id="line2d_25">
      <path d="M 87.951094 301.768445 
L 1075.78125 301.768445 
" clip-path="url(#p1598f8030b)" style="fill: none; stroke: #b0b0b0; stroke-width: 0.8; stroke-linecap: square"/>
     </g>
     <g id="line2d_26">
      <g>
       <use xlink:href="#m107c198c6c" x="87.951094" y="301.768445" style="stroke: #000000; stroke-width: 0.8"/>
      </g>
     </g>
     <g id="text_13">
      <!-- 75 -->
      <g transform="translate(68.226094 305.567664)scale(0.1 -0.1)">
       <use xlink:href="#DejaVuSans-37"/>
       <use xlink:href="#DejaVuSans-35" x="63.623047"/>
      </g>
     </g>
    </g>
    <g id="ytick_5">
     <g id="line2d_27">
      <path d="M 87.951094 235.517302 
L 1075.78125 235.517302 
" clip-path="url(#p1598f8030b)" style="fill: none; stroke: #b0b0b0; stroke-width: 0.8; stroke-linecap: square"/>
     </g>
     <g id="line2d_28">
      <g>
       <use xlink:href="#m107c198c6c" x="87.951094" y="235.517302" style="stroke: #000000; stroke-width: 0.8"/>
      </g>
     </g>
     <g id="text_14">
      <!-- 100 -->
      <g transform="translate(61.863594 239.316521)scale(0.1 -0.1)">
       <use xlink:href="#DejaVuSans-31"/>
       <use xlink:href="#DejaVuSans-30" x="63.623047"/>
       <use xlink:href="#DejaVuSans-30" x="127.246094"/>
      </g>
     </g>
    </g>
    <g id="ytick_6">
     <g id="line2d_29">
      <path d="M 87.951094 169.266159 
L 1075.78125 169.266159 
" clip-path="url(#p1598f8030b)" style="fill: none; stroke: #b0b0b0; stroke-width: 0.8; stroke-linecap: square"/>
     </g>
     <g id="line2d_30">
      <g>
       <use xlink:href="#m107c198c6c" x="87.951094" y="169.266159" style="stroke: #000000; stroke-width: 0.8"/>
      </g>
     </g>
     <g id="text_15">
      <!-- 125 -->
      <g transform="translate(61.863594 173.065377)scale(0.1 -0.1)">
       <use xlink:href="#DejaVuSans-31"/>
       <use xlink:href="#DejaVuSans-32" x="63.623047"/>
       <use xlink:href="#DejaVuSans-35" x="127.246094"/>
      </g>
     </g>
    </g>
    <g id="ytick_7">
     <g id="line2d_31">
      <path d="M 87.951094 103.015015 
L 1075.78125 103.015015 
" clip-path="url(#p1598f8030b)" style="fill: none; stroke: #b0b0b0; stroke-width: 0.8; stroke-linecap: square"/>
     </g>
     <g id="line2d_32">
      <g>
       <use xlink:href="#m107c198c6c" x="87.951094" y="103.015015" style="stroke: #000000; stroke-width: 0.8"/>
      </g>
     </g>
     <g id="text_16">
      <!-- 150 -->
      <g transform="translate(61.863594 106.814234)scale(0.1 -0.1)">
       <use xlink:href="#DejaVuSans-31"/>
       <use xlink:href="#DejaVuSans-35" x="63.623047"/>
       <use xlink:href="#DejaVuSans-30" x="127.246094"/>
      </g>
     </g>
    </g>
   </g>
   <g id="line2d_33">
    <path d="M 132.852464 497.871829 
L 132.852464 500.521875 
L 133.115391 497.871829 
L 136.761954 495.221784 
L 137.355805 497.871829 
L 141.859145 500.521875 
L 143.721871 497.871829 
L 146.362485 500.521875 
L 148.043568 497.871829 
L 148.225212 495.221784 
L 148.724612 492.571738 
L 150.865825 495.221784 
L 152.728552 492.571738 
L 155.369165 495.221784 
L 157.231892 492.571738 
L 157.912841 489.921692 
L 159.872505 492.571738 
L 161.222636 489.921692 
L 161.735232 487.271646 
L 164.375845 489.921692 
L 165.822491 487.271646 
L 166.238572 484.621601 
L 168.234326 481.971555 
L 168.879186 484.621601 
L 170.741912 481.971555 
L 173.382526 484.621601 
L 174.247592 481.971555 
L 175.245252 479.321509 
L 177.885866 481.971555 
L 179.748593 479.321509 
L 182.389206 481.971555 
L 184.251933 479.321509 
L 186.892546 481.971555 
L 187.207822 479.321509 
L 188.755273 476.671463 
L 191.395886 479.321509 
L 191.423225 476.671463 
L 193.258613 474.021418 
L 195.899226 476.671463 
L 197.761953 474.021418 
L 200.402567 476.671463 
L 202.265293 474.021418 
L 204.905907 476.671463 
L 206.768633 471.371372 
L 209.409247 474.021418 
L 211.271973 471.371372 
L 213.912587 474.021418 
L 215.775314 471.371372 
L 218.415927 474.021418 
L 219.254482 471.371372 
L 219.512645 468.721326 
L 220.278654 466.07128 
L 222.21441 463.421235 
L 222.48536 458.121143 
L 222.919267 460.771189 
L 224.781994 458.121143 
L 225.110259 455.471098 
L 227.116135 452.821052 
L 227.422607 455.471098 
L 229.285334 452.821052 
L 230.068733 450.171006 
L 231.925948 452.821052 
L 233.788674 450.171006 
L 236.429288 452.821052 
L 238.292014 450.171006 
L 240.932628 452.821052 
L 241.344699 450.171006 
L 242.795354 447.52096 
L 242.852153 442.220869 
L 245.435968 444.870915 
L 247.298695 442.220869 
L 247.809636 439.570823 
L 249.939308 442.220869 
L 251.802035 439.570823 
L 254.442648 442.220869 
L 256.101558 439.570823 
L 256.305375 436.920777 
L 258.945988 439.570823 
L 260.808715 436.920777 
L 263.449329 439.570823 
L 265.312055 436.920777 
L 267.952669 439.570823 
L 269.815395 436.920777 
L 270.850641 434.270732 
L 272.456009 436.920777 
L 274.318735 434.270732 
L 276.959349 436.920777 
L 277.411191 434.270732 
L 278.822076 431.620686 
L 279.103271 428.97064 
L 281.462689 431.620686 
L 283.325416 428.97064 
L 285.966029 431.620686 
L 287.828756 428.97064 
L 290.469369 431.620686 
L 294.254175 426.320595 
L 294.97271 428.97064 
L 298.588077 423.670549 
L 299.47605 426.320595 
L 301.338776 423.670549 
L 302.388394 421.020503 
L 303.97939 423.670549 
L 305.842116 421.020503 
L 307.143244 418.370457 
L 308.48273 421.020503 
L 308.501298 418.370457 
L 310.345457 415.720412 
L 311.969216 413.070366 
L 312.98607 415.720412 
L 314.644531 413.070366 
L 314.848797 410.42032 
L 317.48941 413.070366 
L 319.352137 410.42032 
L 321.99275 413.070366 
L 323.855477 410.42032 
L 325.989715 407.770274 
L 326.496091 410.42032 
L 328.358817 407.770274 
L 330.999431 410.42032 
L 332.862157 407.770274 
L 335.005342 405.120229 
L 335.502771 407.770274 
L 337.365497 405.120229 
L 340.006111 407.770274 
L 340.771122 405.120229 
L 341.868838 402.470183 
L 342.78075 399.820137 
L 344.509451 402.470183 
L 346.372178 399.820137 
L 349.012791 402.470183 
L 350.875518 399.820137 
L 353.516131 402.470183 
L 355.378858 399.820137 
L 355.771138 397.170091 
L 358.019472 399.820137 
L 359.860009 397.170091 
L 359.882198 394.520046 
L 362.522812 397.170091 
L 362.981723 394.520046 
L 364.205137 391.87 
L 364.385538 389.219954 
L 367.026152 391.87 
L 368.888878 389.219954 
L 371.529492 391.87 
L 373.392219 389.219954 
L 376.032832 391.87 
L 377.895559 389.219954 
L 380.536172 391.87 
L 382.398899 389.219954 
L 385.039512 391.87 
L 386.177532 389.219954 
L 386.902239 386.569909 
L 389.542853 389.219954 
L 391.405579 386.569909 
L 394.046193 389.219954 
L 395.763658 386.569909 
L 395.908919 383.919863 
L 398.486292 381.269817 
L 398.549533 383.919863 
L 400.412259 381.269817 
L 403.052873 383.919863 
L 404.134396 381.269817 
L 404.799071 378.619771 
L 404.9156 375.969726 
L 407.556213 378.619771 
L 411.195541 373.31968 
L 412.059553 375.969726 
L 413.92228 370.669634 
L 416.562893 373.31968 
L 418.42562 370.669634 
L 420.971015 368.019588 
L 421.066234 370.669634 
L 422.92896 368.019588 
L 425.569574 370.669634 
L 426.20891 368.019588 
L 427.4323 365.369543 
L 427.52817 362.719497 
L 429.22336 360.069451 
L 430.072914 362.719497 
L 431.93564 360.069451 
L 432.511823 357.419405 
L 433.558962 354.76936 
L 434.576254 357.419405 
L 436.438981 354.76936 
L 439.079594 357.419405 
L 439.462717 354.76936 
L 440.025781 352.119314 
L 440.942321 349.469268 
L 443.582934 352.119314 
L 445.085106 349.469268 
L 445.445661 346.819223 
L 448.086274 349.469268 
L 448.838092 346.819223 
L 449.949001 344.169177 
L 452.589615 346.819223 
L 454.452341 344.169177 
L 454.604278 341.519131 
L 454.996558 338.869085 
L 457.092955 341.519131 
L 458.955681 338.869085 
L 461.226102 336.21904 
L 461.596295 338.869085 
L 463.459021 336.21904 
L 466.099635 338.869085 
L 466.319013 336.21904 
L 467.809213 333.568994 
L 467.962362 330.918948 
L 470.602975 333.568994 
L 471.785124 330.918948 
L 472.465702 328.268902 
L 475.106315 330.918948 
L 476.969042 328.268902 
L 479.609655 330.918948 
L 481.472382 328.268902 
L 484.112996 330.918948 
L 485.975722 328.268902 
L 488.616336 330.918948 
L 488.870904 328.268902 
L 490.479062 325.618857 
L 493.119676 328.268902 
L 494.422984 325.618857 
L 494.482992 322.968811 
L 494.982402 320.318765 
L 497.623016 322.968811 
L 499.485743 320.318765 
L 502.126356 322.968811 
L 503.989083 320.318765 
L 506.629696 322.968811 
L 508.492423 320.318765 
L 510.963674 317.66872 
L 511.133036 320.318765 
L 512.995763 317.66872 
L 513.272602 315.018674 
L 515.636377 317.66872 
L 517.499103 315.018674 
L 520.139717 317.66872 
L 522.002443 315.018674 
L 522.197728 312.368628 
L 524.643057 315.018674 
L 526.505783 312.368628 
L 528.89613 309.718582 
L 529.146397 312.368628 
L 530.08623 309.718582 
L 530.333497 307.068537 
L 531.009124 304.418491 
L 533.649737 307.068537 
L 535.512464 304.418491 
L 536.156981 301.768445 
L 538.153077 304.418491 
L 540.015804 301.768445 
L 541.177699 299.118399 
L 542.656417 301.768445 
L 544.519144 299.118399 
L 547.159758 301.768445 
L 547.459269 299.118399 
L 550.473367 293.818308 
L 551.663098 296.468354 
L 553.525824 293.818308 
L 555.830073 291.168262 
L 556.166438 293.818308 
L 556.872241 291.168262 
L 558.029164 288.518216 
L 560.669778 291.168262 
L 562.532505 288.518216 
L 563.664247 285.868171 
L 565.173118 288.518216 
L 567.035845 285.868171 
L 569.676458 288.518216 
L 571.539185 285.868171 
L 573.68906 283.218125 
L 574.179798 285.868171 
L 574.550531 283.218125 
L 576.042525 280.568079 
L 578.683139 283.218125 
L 579.221599 280.568079 
L 580.006059 277.918034 
L 580.545865 275.267988 
L 580.705363 272.617942 
L 583.186479 275.267988 
L 585.049205 272.617942 
L 585.856262 269.967896 
L 587.689819 272.617942 
L 589.552545 269.967896 
L 589.751373 267.317851 
L 592.193159 269.967896 
L 594.055886 267.317851 
L 595.551504 264.667805 
L 596.696499 267.317851 
L 597.844616 264.667805 
L 598.559226 262.017759 
L 601.199839 264.667805 
L 603.062566 262.017759 
L 603.260845 259.367713 
L 605.703179 262.017759 
L 607.565906 259.367713 
L 609.820231 256.717668 
L 610.206519 259.367713 
L 612.069246 256.717668 
L 614.70986 259.367713 
L 616.572586 256.717668 
L 618.60164 254.067622 
L 619.2132 256.717668 
L 621.075926 254.067622 
L 623.71654 256.717668 
L 625.579267 254.067622 
L 628.21988 256.717668 
L 630.082607 254.067622 
L 632.72322 256.717668 
L 634.585947 254.067622 
L 637.22656 256.717668 
L 639.089287 254.067622 
L 640.593697 251.417576 
L 641.7299 254.067622 
L 643.592627 251.417576 
L 645.728761 248.76753 
L 646.163519 246.117485 
L 646.233241 248.76753 
L 648.095967 246.117485 
L 648.889994 243.467439 
L 649.112292 238.167348 
L 650.736581 240.817393 
L 652.353098 238.167348 
L 652.599307 235.517302 
L 652.670592 232.867256 
L 653.977792 230.21721 
L 655.239921 232.867256 
L 657.102648 230.21721 
L 657.886069 227.567165 
L 659.743261 230.21721 
L 661.605988 227.567165 
L 664.246601 230.21721 
L 666.109328 227.567165 
L 668.749941 230.21721 
L 670.612668 227.567165 
L 673.253281 230.21721 
L 674.366322 227.567165 
L 675.116008 224.917119 
L 677.756622 227.567165 
L 679.548147 224.917119 
L 679.619348 222.267073 
L 682.0331 219.617027 
L 682.259962 222.267073 
L 684.122688 219.617027 
L 685.676211 216.966982 
L 686.763302 219.617027 
L 688.089545 216.966982 
L 688.626029 214.316936 
L 691.266642 216.966982 
L 693.129369 214.316936 
L 695.769982 216.966982 
L 697.632709 214.316936 
L 700.273322 216.966982 
L 702.136049 214.316936 
L 703.719041 211.66689 
L 704.776662 214.316936 
L 705.303169 211.66689 
L 706.639389 209.016845 
L 709.280003 211.66689 
L 711.142729 209.016845 
L 713.783343 211.66689 
L 715.646069 209.016845 
L 718.286683 211.66689 
L 720.149409 209.016845 
L 722.790023 211.66689 
L 724.65275 209.016845 
L 727.053042 206.366799 
L 727.293363 209.016845 
L 728.688109 206.366799 
L 729.15609 203.716753 
L 730.64105 201.066707 
L 731.796703 203.716753 
L 733.65943 201.066707 
L 736.300043 203.716753 
L 738.16277 201.066707 
L 740.803384 203.716753 
L 742.66611 201.066707 
L 743.509008 198.416662 
L 745.306724 201.066707 
L 749.069191 195.766616 
L 749.810064 198.416662 
L 751.67279 195.766616 
L 754.313404 198.416662 
L 754.432586 195.766616 
L 756.176131 193.11657 
L 758.816744 195.766616 
L 760.679471 193.11657 
L 763.320084 195.766616 
L 765.182811 193.11657 
L 767.823424 195.766616 
L 769.686151 193.11657 
L 771.954678 190.466524 
L 772.326765 193.11657 
L 773.42014 190.466524 
L 774.189491 187.816479 
L 776.772328 185.166433 
L 776.830105 187.816479 
L 778.599452 185.166433 
L 778.692831 182.516387 
L 780.399866 179.866341 
L 781.333445 182.516387 
L 783.196171 179.866341 
L 785.836785 182.516387 
L 787.699512 179.866341 
L 789.329146 177.216296 
L 790.340125 179.866341 
L 791.531767 177.216296 
L 792.202852 174.56625 
L 794.843465 177.216296 
L 795.917474 174.56625 
L 796.706192 171.916204 
L 799.346805 174.56625 
L 800.506166 171.916204 
L 801.939999 166.616113 
L 802.078259 163.966067 
L 803.850146 166.616113 
L 805.712872 163.966067 
L 806.617687 161.316021 
L 808.353486 163.966067 
L 810.216212 161.316021 
L 810.295082 158.665976 
L 812.856826 161.316021 
L 814.719552 158.665976 
L 817.360166 161.316021 
L 820.951291 156.01593 
L 821.863506 158.665976 
L 825.643071 153.365884 
L 826.366846 156.01593 
L 828.229573 153.365884 
L 830.870186 156.01593 
L 832.732913 153.365884 
L 835.373527 156.01593 
L 836.733196 153.365884 
L 836.866188 150.715838 
L 837.236253 148.065793 
L 839.876867 150.715838 
L 841.739593 148.065793 
L 843.912369 145.415747 
L 844.380207 148.065793 
L 846.242933 145.415747 
L 848.883547 148.065793 
L 850.746274 145.415747 
L 851.808742 142.765701 
L 852.45384 140.115655 
L 853.386887 142.765701 
L 855.249614 140.115655 
L 857.890227 142.765701 
L 859.752954 140.115655 
L 862.393567 142.765701 
L 864.256294 140.115655 
L 866.896908 142.765701 
L 868.759634 140.115655 
L 870.203569 137.46561 
L 871.400248 140.115655 
L 873.262974 137.46561 
L 875.903588 140.115655 
L 877.766314 137.46561 
L 880.406928 140.115655 
L 882.269655 137.46561 
L 883.891613 134.815564 
L 884.910268 137.46561 
L 886.772995 134.815564 
L 889.413608 137.46561 
L 891.276335 134.815564 
L 893.916948 137.46561 
L 894.785425 134.815564 
L 895.779675 132.165518 
L 898.119032 129.515473 
L 898.420289 132.165518 
L 900.283015 129.515473 
L 900.983622 126.865427 
L 902.923629 129.515473 
L 904.786355 126.865427 
L 905.893369 124.215381 
L 907.426969 126.865427 
L 907.559511 124.215381 
L 909.289695 121.565335 
L 910.484028 118.91529 
L 911.930309 121.565335 
L 913.793036 118.91529 
L 916.433649 121.565335 
L 918.296376 118.91529 
L 920.450943 116.265244 
L 920.936989 118.91529 
L 922.422233 116.265244 
L 922.799716 113.615198 
L 925.440329 116.265244 
L 927.179746 113.615198 
L 927.352174 108.315107 
L 929.94367 110.965152 
L 931.806396 108.315107 
L 934.44701 110.965152 
L 936.309736 108.315107 
L 938.95035 110.965152 
L 940.813076 108.315107 
L 943.45369 110.965152 
L 945.316417 108.315107 
L 947.95703 110.965152 
L 949.819757 108.315107 
L 952.46037 110.965152 
L 954.323097 108.315107 
L 956.96371 110.965152 
L 958.826437 108.315107 
L 959.926943 105.665061 
L 961.467051 108.315107 
L 963.329777 105.665061 
L 965.970391 108.315107 
L 967.833117 105.665061 
L 968.415129 103.015015 
L 970.473731 105.665061 
L 972.336457 103.015015 
L 974.977071 105.665061 
L 975.252862 103.015015 
L 975.293263 100.36497 
L 976.179904 95.064878 
L 976.839798 92.414832 
L 979.281403 89.764787 
L 979.480411 92.414832 
L 980.526521 89.764787 
L 981.343138 87.114741 
L 983.983751 89.764787 
L 985.846478 87.114741 
L 988.487091 89.764787 
L 990.349818 87.114741 
L 992.990432 89.764787 
L 994.853158 87.114741 
L 997.493772 89.764787 
L 999.356498 87.114741 
L 999.419243 84.464695 
L 1001.58216 81.814649 
L 1001.682219 79.164604 
L 1001.997112 81.814649 
L 1003.859838 79.164604 
L 1004.227559 76.514558 
L 1006.500452 79.164604 
L 1008.363179 76.514558 
L 1008.9995 73.864512 
L 1010.711306 71.214466 
L 1011.003792 73.864512 
L 1012.866519 71.214466 
L 1015.507132 73.864512 
L 1017.369859 71.214466 
L 1017.44484 68.564421 
L 1020.010472 71.214466 
L 1021.873199 68.564421 
L 1022.915298 65.914375 
L 1024.513813 68.564421 
L 1026.376539 65.914375 
L 1029.017153 68.564421 
L 1030.879879 65.914375 
L 1030.879879 65.914375 
" clip-path="url(#p1598f8030b)" style="fill: none; stroke: #1f77b4; stroke-width: 1.5; stroke-linecap: square"/>
   </g>
   <g id="patch_3">
    <path d="M 87.951094 522.25225 
L 87.951094 44.184 
" style="fill: none; stroke: #000000; stroke-width: 0.8; stroke-linejoin: miter; stroke-linecap: square"/>
   </g>
   <g id="patch_4">
    <path d="M 1075.78125 522.25225 
L 1075.78125 44.184 
" style="fill: none; stroke: #000000; stroke-width: 0.8; stroke-linejoin: miter; stroke-linecap: square"/>
   </g>
   <g id="patch_5">
    <path d="M 87.951094 522.25225 
L 1075.78125 522.25225 
" style="fill: none; stroke: #000000; stroke-width: 0.8; stroke-linejoin: miter; stroke-linecap: square"/>
   </g>
   <g id="patch_6">
    <path d="M 87.951094 44.184 
L 1075.78125 44.184 
" style="fill: none; stroke: #000000; stroke-width: 0.8; stroke-linejoin: miter; stroke-linecap: square"/>
   </g>
   <g id="text_17">
    <!-- Buffer Size in Network.node[6].lnk[0] -->
    <g transform="translate(470.274609 38.184)scale(0.12 -0.12)">
     <defs>
      <path id="DejaVuSans-42" d="M 1259 2228 
L 1259 519 
L 2272 519 
Q 2781 519 3026 730 
Q 3272 941 3272 1375 
Q 3272 1813 3026 2020 
Q 2781 2228 2272 2228 
L 1259 2228 
z
M 1259 4147 
L 1259 2741 
L 2194 2741 
Q 2656 2741 2882 2914 
Q 3109 3088 3109 3444 
Q 3109 3797 2882 3972 
Q 2656 4147 2194 4147 
L 1259 4147 
z
M 628 4666 
L 2241 4666 
Q 2963 4666 3353 4366 
Q 3744 4066 3744 3513 
Q 3744 3084 3544 2831 
Q 3344 2578 2956 2516 
Q 3422 2416 3680 2098 
Q 3938 1781 3938 1306 
Q 3938 681 3513 340 
Q 3088 0 2303 0 
L 628 0 
L 628 4666 
z
" transform="scale(0.015625)"/>
      <path id="DejaVuSans-75" d="M 544 1381 
L 544 3500 
L 1119 3500 
L 1119 1403 
Q 1119 906 1312 657 
Q 1506 409 1894 409 
Q 2359 409 2629 706 
Q 2900 1003 2900 1516 
L 2900 3500 
L 3475 3500 
L 3475 0 
L 2900 0 
L 2900 538 
Q 2691 219 2414 64 
Q 2138 -91 1772 -91 
Q 1169 -91 856 284 
Q 544 659 544 1381 
z
M 1991 3584 
L 1991 3584 
z
" transform="scale(0.015625)"/>
      <path id="DejaVuSans-66" d="M 2375 4863 
L 2375 4384 
L 1825 4384 
Q 1516 4384 1395 4259 
Q 1275 4134 1275 3809 
L 1275 3500 
L 2222 3500 
L 2222 3053 
L 1275 3053 
L 1275 0 
L 697 0 
L 697 3053 
L 147 3053 
L 147 3500 
L 697 3500 
L 697 3744 
Q 697 4328 969 4595 
Q 1241 4863 1831 4863 
L 2375 4863 
z
" transform="scale(0.015625)"/>
      <path id="DejaVuSans-65" d="M 3597 1894 
L 3597 1613 
L 953 1613 
Q 991 1019 1311 708 
Q 1631 397 2203 397 
Q 2534 397 2845 478 
Q 3156 559 3463 722 
L 3463 178 
Q 3153 47 2828 -22 
Q 2503 -91 2169 -91 
Q 1331 -91 842 396 
Q 353 884 353 1716 
Q 353 2575 817 3079 
Q 1281 3584 2069 3584 
Q 2775 3584 3186 3129 
Q 3597 2675 3597 1894 
z
M 3022 2063 
Q 3016 2534 2758 2815 
Q 2500 3097 2075 3097 
Q 1594 3097 1305 2825 
Q 1016 2553 972 2059 
L 3022 2063 
z
" transform="scale(0.015625)"/>
      <path id="DejaVuSans-72" d="M 2631 2963 
Q 2534 3019 2420 3045 
Q 2306 3072 2169 3072 
Q 1681 3072 1420 2755 
Q 1159 2438 1159 1844 
L 1159 0 
L 581 0 
L 581 3500 
L 1159 3500 
L 1159 2956 
Q 1341 3275 1631 3429 
Q 1922 3584 2338 3584 
Q 2397 3584 2469 3576 
Q 2541 3569 2628 3553 
L 2631 2963 
z
" transform="scale(0.015625)"/>
      <path id="DejaVuSans-20" transform="scale(0.015625)"/>
      <path id="DejaVuSans-53" d="M 3425 4513 
L 3425 3897 
Q 3066 4069 2747 4153 
Q 2428 4238 2131 4238 
Q 1616 4238 1336 4038 
Q 1056 3838 1056 3469 
Q 1056 3159 1242 3001 
Q 1428 2844 1947 2747 
L 2328 2669 
Q 3034 2534 3370 2195 
Q 3706 1856 3706 1288 
Q 3706 609 3251 259 
Q 2797 -91 1919 -91 
Q 1588 -91 1214 -16 
Q 841 59 441 206 
L 441 856 
Q 825 641 1194 531 
Q 1563 422 1919 422 
Q 2459 422 2753 634 
Q 3047 847 3047 1241 
Q 3047 1584 2836 1778 
Q 2625 1972 2144 2069 
L 1759 2144 
Q 1053 2284 737 2584 
Q 422 2884 422 3419 
Q 422 4038 858 4394 
Q 1294 4750 2059 4750 
Q 2388 4750 2728 4690 
Q 3069 4631 3425 4513 
z
" transform="scale(0.015625)"/>
      <path id="DejaVuSans-69" d="M 603 3500 
L 1178 3500 
L 1178 0 
L 603 0 
L 603 3500 
z
M 603 4863 
L 1178 4863 
L 1178 4134 
L 603 4134 
L 603 4863 
z
" transform="scale(0.015625)"/>
      <path id="DejaVuSans-7a" d="M 353 3500 
L 3084 3500 
L 3084 2975 
L 922 459 
L 3084 459 
L 3084 0 
L 275 0 
L 275 525 
L 2438 3041 
L 353 3041 
L 353 3500 
z
" transform="scale(0.015625)"/>
      <path id="DejaVuSans-6e" d="M 3513 2113 
L 3513 0 
L 2938 0 
L 2938 2094 
Q 2938 2591 2744 2837 
Q 2550 3084 2163 3084 
Q 1697 3084 1428 2787 
Q 1159 2491 1159 1978 
L 1159 0 
L 581 0 
L 581 3500 
L 1159 3500 
L 1159 2956 
Q 1366 3272 1645 3428 
Q 1925 3584 2291 3584 
Q 2894 3584 3203 3211 
Q 3513 2838 3513 2113 
z
" transform="scale(0.015625)"/>
      <path id="DejaVuSans-4e" d="M 628 4666 
L 1478 4666 
L 3547 763 
L 3547 4666 
L 4159 4666 
L 4159 0 
L 3309 0 
L 1241 3903 
L 1241 0 
L 628 0 
L 628 4666 
z
" transform="scale(0.015625)"/>
      <path id="DejaVuSans-74" d="M 1172 4494 
L 1172 3500 
L 2356 3500 
L 2356 3053 
L 1172 3053 
L 1172 1153 
Q 1172 725 1289 603 
Q 1406 481 1766 481 
L 2356 481 
L 2356 0 
L 1766 0 
Q 1100 0 847 248 
Q 594 497 594 1153 
L 594 3053 
L 172 3053 
L 172 3500 
L 594 3500 
L 594 4494 
L 1172 4494 
z
" transform="scale(0.015625)"/>
      <path id="DejaVuSans-77" d="M 269 3500 
L 844 3500 
L 1563 769 
L 2278 3500 
L 2956 3500 
L 3675 769 
L 4391 3500 
L 4966 3500 
L 4050 0 
L 3372 0 
L 2619 2869 
L 1863 0 
L 1184 0 
L 269 3500 
z
" transform="scale(0.015625)"/>
      <path id="DejaVuSans-6f" d="M 1959 3097 
Q 1497 3097 1228 2736 
Q 959 2375 959 1747 
Q 959 1119 1226 758 
Q 1494 397 1959 397 
Q 2419 397 2687 759 
Q 2956 1122 2956 1747 
Q 2956 2369 2687 2733 
Q 2419 3097 1959 3097 
z
M 1959 3584 
Q 2709 3584 3137 3096 
Q 3566 2609 3566 1747 
Q 3566 888 3137 398 
Q 2709 -91 1959 -91 
Q 1206 -91 779 398 
Q 353 888 353 1747 
Q 353 2609 779 3096 
Q 1206 3584 1959 3584 
z
" transform="scale(0.015625)"/>
      <path id="DejaVuSans-6b" d="M 581 4863 
L 1159 4863 
L 1159 1991 
L 2875 3500 
L 3609 3500 
L 1753 1863 
L 3688 0 
L 2938 0 
L 1159 1709 
L 1159 0 
L 581 0 
L 581 4863 
z
" transform="scale(0.015625)"/>
      <path id="DejaVuSans-2e" d="M 684 794 
L 1344 794 
L 1344 0 
L 684 0 
L 684 794 
z
" transform="scale(0.015625)"/>
      <path id="DejaVuSans-64" d="M 2906 2969 
L 2906 4863 
L 3481 4863 
L 3481 0 
L 2906 0 
L 2906 525 
Q 2725 213 2448 61 
Q 2172 -91 1784 -91 
Q 1150 -91 751 415 
Q 353 922 353 1747 
Q 353 2572 751 3078 
Q 1150 3584 1784 3584 
Q 2172 3584 2448 3432 
Q 2725 3281 2906 2969 
z
M 947 1747 
Q 947 1113 1208 752 
Q 1469 391 1925 391 
Q 2381 391 2643 752 
Q 2906 1113 2906 1747 
Q 2906 2381 2643 2742 
Q 2381 3103 1925 3103 
Q 1469 3103 1208 2742 
Q 947 2381 947 1747 
z
" transform="scale(0.015625)"/>
      <path id="DejaVuSans-5b" d="M 550 4863 
L 1875 4863 
L 1875 4416 
L 1125 4416 
L 1125 -397 
L 1875 -397 
L 1875 -844 
L 550 -844 
L 550 4863 
z
" transform="scale(0.015625)"/>
      <path id="DejaVuSans-36" d="M 2113 2584 
Q 1688 2584 1439 2293 
Q 1191 2003 1191 1497 
Q 1191 994 1439 701 
Q 1688 409 2113 409 
Q 2538 409 2786 701 
Q 3034 994 3034 1497 
Q 3034 2003 2786 2293 
Q 2538 2584 2113 2584 
z
M 3366 4563 
L 3366 3988 
Q 3128 4100 2886 4159 
Q 2644 4219 2406 4219 
Q 1781 4219 1451 3797 
Q 1122 3375 1075 2522 
Q 1259 2794 1537 2939 
Q 1816 3084 2150 3084 
Q 2853 3084 3261 2657 
Q 3669 2231 3669 1497 
Q 3669 778 3244 343 
Q 2819 -91 2113 -91 
Q 1303 -91 875 529 
Q 447 1150 447 2328 
Q 447 3434 972 4092 
Q 1497 4750 2381 4750 
Q 2619 4750 2861 4703 
Q 3103 4656 3366 4563 
z
" transform="scale(0.015625)"/>
      <path id="DejaVuSans-5d" d="M 1947 4863 
L 1947 -844 
L 622 -844 
L 622 -397 
L 1369 -397 
L 1369 4416 
L 622 4416 
L 622 4863 
L 1947 4863 
z
" transform="scale(0.015625)"/>
      <path id="DejaVuSans-6c" d="M 603 4863 
L 1178 4863 
L 1178 0 
L 603 0 
L 603 4863 
z
" transform="scale(0.015625)"/>
     </defs>
     <use xlink:href="#DejaVuSans-42"/>
     <use xlink:href="#DejaVuSans-75" x="68.603516"/>
     <use xlink:href="#DejaVuSans-66" x="131.982422"/>
     <use xlink:href="#DejaVuSans-66" x="167.1875"/>
     <use xlink:href="#DejaVuSans-65" x="202.392578"/>
     <use xlink:href="#DejaVuSans-72" x="263.916016"/>
     <use xlink:href="#DejaVuSans-20" x="305.029297"/>
     <use xlink:href="#DejaVuSans-53" x="336.816406"/>
     <use xlink:href="#DejaVuSans-69" x="400.292969"/>
     <use xlink:href="#DejaVuSans-7a" x="428.076172"/>
     <use xlink:href="#DejaVuSans-65" x="480.566406"/>
     <use xlink:href="#DejaVuSans-20" x="542.089844"/>
     <use xlink:href="#DejaVuSans-69" x="573.876953"/>
     <use xlink:href="#DejaVuSans-6e" x="601.660156"/>
     <use xlink:href="#DejaVuSans-20" x="665.039062"/>
     <use xlink:href="#DejaVuSans-4e" x="696.826172"/>
     <use xlink:href="#DejaVuSans-65" x="771.630859"/>
     <use xlink:href="#DejaVuSans-74" x="833.154297"/>
     <use xlink:href="#DejaVuSans-77" x="872.363281"/>
     <use xlink:href="#DejaVuSans-6f" x="954.150391"/>
     <use xlink:href="#DejaVuSans-72" x="1015.332031"/>
     <use xlink:href="#DejaVuSans-6b" x="1056.445312"/>
     <use xlink:href="#DejaVuSans-2e" x="1114.355469"/>
     <use xlink:href="#DejaVuSans-6e" x="1146.142578"/>
     <use xlink:href="#DejaVuSans-6f" x="1209.521484"/>
     <use xlink:href="#DejaVuSans-64" x="1270.703125"/>
     <use xlink:href="#DejaVuSans-65" x="1334.179688"/>
     <use xlink:href="#DejaVuSans-5b" x="1395.703125"/>
     <use xlink:href="#DejaVuSans-36" x="1434.716797"/>
     <use xlink:href="#DejaVuSans-5d" x="1498.339844"/>
     <use xlink:href="#DejaVuSans-2e" x="1537.353516"/>
     <use xlink:href="#DejaVuSans-6c" x="1569.140625"/>
     <use xlink:href="#DejaVuSans-6e" x="1596.923828"/>
     <use xlink:href="#DejaVuSans-6b" x="1660.302734"/>
     <use xlink:href="#DejaVuSans-5b" x="1718.212891"/>
     <use xlink:href="#DejaVuSans-30" x="1757.226562"/>
     <use xlink:href="#DejaVuSans-5d" x="1820.849609"/>
    </g>
   </g>
   <g id="legend_1">
    <g id="patch_7">
     <path d="M 848.795313 66.862125 
L 1070.78125 66.862125 
L 1070.78125 49.184 
L 848.795313 49.184 
z
" style="fill: #ffffff; opacity: 0.8; stroke: #cccccc; stroke-linejoin: miter"/>
    </g>
    <g id="line2d_34">
     <path d="M 852.795313 57.282438 
L 862.795313 57.282438 
L 872.795313 57.282438 
" style="fill: none; stroke: #1f77b4; stroke-width: 1.5; stroke-linecap: square"/>
    </g>
    <g id="text_18">
     <!-- Buffer Size in Network.node[6].lnk[0] -->
     <g transform="translate(880.795313 60.782438)scale(0.1 -0.1)">
      <use xlink:href="#DejaVuSans-42"/>
      <use xlink:href="#DejaVuSans-75" x="68.603516"/>
      <use xlink:href="#DejaVuSans-66" x="131.982422"/>
      <use xlink:href="#DejaVuSans-66" x="167.1875"/>
      <use xlink:href="#DejaVuSans-65" x="202.392578"/>
      <use xlink:href="#DejaVuSans-72" x="263.916016"/>
      <use xlink:href="#DejaVuSans-20" x="305.029297"/>
      <use xlink:href="#DejaVuSans-53" x="336.816406"/>
      <use xlink:href="#DejaVuSans-69" x="400.292969"/>
      <use xlink:href="#DejaVuSans-7a" x="428.076172"/>
      <use xlink:href="#DejaVuSans-65" x="480.566406"/>
      <use xlink:href="#DejaVuSans-20" x="542.089844"/>
      <use xlink:href="#DejaVuSans-69" x="573.876953"/>
      <use xlink:href="#DejaVuSans-6e" x="601.660156"/>
      <use xlink:href="#DejaVuSans-20" x="665.039062"/>
      <use xlink:href="#DejaVuSans-4e" x="696.826172"/>
      <use xlink:href="#DejaVuSans-65" x="771.630859"/>
      <use xlink:href="#DejaVuSans-74" x="833.154297"/>
      <use xlink:href="#DejaVuSans-77" x="872.363281"/>
      <use xlink:href="#DejaVuSans-6f" x="954.150391"/>
      <use xlink:href="#DejaVuSans-72" x="1015.332031"/>
      <use xlink:href="#DejaVuSans-6b" x="1056.445312"/>
      <use xlink:href="#DejaVuSans-2e" x="1114.355469"/>
      <use xlink:href="#DejaVuSans-6e" x="1146.142578"/>
      <use xlink:href="#DejaVuSans-6f" x="1209.521484"/>
      <use xlink:href="#DejaVuSans-64" x="1270.703125"/>
      <use xlink:href="#DejaVuSans-65" x="1334.179688"/>
      <use xlink:href="#DejaVuSans-5b" x="1395.703125"/>
      <use xlink:href="#DejaVuSans-36" x="1434.716797"/>
      <use xlink:href="#DejaVuSans-5d" x="1498.339844"/>
      <use xlink:href="#DejaVuSans-2e" x="1537.353516"/>
      <use xlink:href="#DejaVuSans-6c" x="1569.140625"/>
      <use xlink:href="#DejaVuSans-6e" x="1596.923828"/>
      <use xlink:href="#DejaVuSans-6b" x="1660.302734"/>
      <use xlink:href="#DejaVuSans-5b" x="1718.212891"/>
      <use xlink:href="#DejaVuSans-30" x="1757.226562"/>
      <use xlink:href="#DejaVuSans-5d" x="1820.849609"/>
     </g>
    </g>
   </g>
  </g>
 </g>
 <defs>
  <clipPath id="p1598f8030b">
   <rect x="87.951094" y="44.184" width="987.830156" height="478.06825"/>
  </clipPath>
 </defs>
</svg>
