<?xml version="1.0" encoding="utf-8" standalone="no"?>
<!DOCTYPE svg PUBLIC "-//W3C//DTD SVG 1.1//EN"
  "http://www.w3.org/Graphics/SVG/1.1/DTD/svg11.dtd">
<svg xmlns:xlink="http://www.w3.org/1999/xlink" width="1101.6pt" height="568.08pt" viewBox="0 0 1101.6 568.08" xmlns="http://www.w3.org/2000/svg" version="1.1">
 <metadata>
  <rdf:RDF xmlns:dc="http://purl.org/dc/elements/1.1/" xmlns:cc="http://creativecommons.org/ns#" xmlns:rdf="http://www.w3.org/1999/02/22-rdf-syntax-ns#">
   <cc:Work>
    <dc:type rdf:resource="http://purl.org/dc/dcmitype/StillImage"/>
    <dc:date>2023-05-23T19:42:48.300507</dc:date>
    <dc:format>image/svg+xml</dc:format>
    <dc:creator>
     <cc:Agent>
      <dc:title>Matplotlib v3.5.2, https://matplotlib.org/</dc:title>
     </cc:Agent>
    </dc:creator>
   </cc:Work>
  </rdf:RDF>
 </metadata>
 <defs>
  <style type="text/css">*{stroke-linejoin: round; stroke-linecap: butt}</style>
 </defs>
 <g id="figure_1">
  <g id="patch_1">
   <path d="M 0 568.08 
L 1101.6 568.08 
L 1101.6 0 
L 0 0 
z
" style="fill: #ffffff"/>
  </g>
  <g id="axes_1">
   <g id="patch_2">
    <path d="M 87.951094 522.25225 
L 1075.78125 522.25225 
L 1075.78125 44.184 
L 87.951094 44.184 
z
" style="fill: #ffffff"/>
   </g>
   <g id="matplotlib.axis_1">
    <g id="xtick_1">
     <g id="line2d_1">
      <path d="M 131.26312 522.25225 
L 131.26312 44.184 
" clip-path="url(#p4e7341db1d)" style="fill: none; stroke: #b0b0b0; stroke-width: 0.8; stroke-linecap: square"/>
     </g>
     <g id="line2d_2">
      <defs>
       <path id="m43bb86ca62" d="M 0 0 
L 0 3.5 
" style="stroke: #000000; stroke-width: 0.8"/>
      </defs>
      <g>
       <use xlink:href="#m43bb86ca62" x="131.26312" y="522.25225" style="stroke: #000000; stroke-width: 0.8"/>
      </g>
     </g>
     <g id="text_1">
      <!-- 0 -->
      <g transform="translate(128.08187 536.850687)scale(0.1 -0.1)">
       <defs>
        <path id="DejaVuSans-30" d="M 2034 4250 
Q 1547 4250 1301 3770 
Q 1056 3291 1056 2328 
Q 1056 1369 1301 889 
Q 1547 409 2034 409 
Q 2525 409 2770 889 
Q 3016 1369 3016 2328 
Q 3016 3291 2770 3770 
Q 2525 4250 2034 4250 
z
M 2034 4750 
Q 2819 4750 3233 4129 
Q 3647 3509 3647 2328 
Q 3647 1150 3233 529 
Q 2819 -91 2034 -91 
Q 1250 -91 836 529 
Q 422 1150 422 2328 
Q 422 3509 836 4129 
Q 1250 4750 2034 4750 
z
" transform="scale(0.015625)"/>
       </defs>
       <use xlink:href="#DejaVuSans-30"/>
      </g>
     </g>
    </g>
    <g id="xtick_2">
     <g id="line2d_3">
      <path d="M 243.772223 522.25225 
L 243.772223 44.184 
" clip-path="url(#p4e7341db1d)" style="fill: none; stroke: #b0b0b0; stroke-width: 0.8; stroke-linecap: square"/>
     </g>
     <g id="line2d_4">
      <g>
       <use xlink:href="#m43bb86ca62" x="243.772223" y="522.25225" style="stroke: #000000; stroke-width: 0.8"/>
      </g>
     </g>
     <g id="text_2">
      <!-- 25 -->
      <g transform="translate(237.409723 536.850687)scale(0.1 -0.1)">
       <defs>
        <path id="DejaVuSans-32" d="M 1228 531 
L 3431 531 
L 3431 0 
L 469 0 
L 469 531 
Q 828 903 1448 1529 
Q 2069 2156 2228 2338 
Q 2531 2678 2651 2914 
Q 2772 3150 2772 3378 
Q 2772 3750 2511 3984 
Q 2250 4219 1831 4219 
Q 1534 4219 1204 4116 
Q 875 4013 500 3803 
L 500 4441 
Q 881 4594 1212 4672 
Q 1544 4750 1819 4750 
Q 2544 4750 2975 4387 
Q 3406 4025 3406 3419 
Q 3406 3131 3298 2873 
Q 3191 2616 2906 2266 
Q 2828 2175 2409 1742 
Q 1991 1309 1228 531 
z
" transform="scale(0.015625)"/>
        <path id="DejaVuSans-35" d="M 691 4666 
L 3169 4666 
L 3169 4134 
L 1269 4134 
L 1269 2991 
Q 1406 3038 1543 3061 
Q 1681 3084 1819 3084 
Q 2600 3084 3056 2656 
Q 3513 2228 3513 1497 
Q 3513 744 3044 326 
Q 2575 -91 1722 -91 
Q 1428 -91 1123 -41 
Q 819 9 494 109 
L 494 744 
Q 775 591 1075 516 
Q 1375 441 1709 441 
Q 2250 441 2565 725 
Q 2881 1009 2881 1497 
Q 2881 1984 2565 2268 
Q 2250 2553 1709 2553 
Q 1456 2553 1204 2497 
Q 953 2441 691 2322 
L 691 4666 
z
" transform="scale(0.015625)"/>
       </defs>
       <use xlink:href="#DejaVuSans-32"/>
       <use xlink:href="#DejaVuSans-35" x="63.623047"/>
      </g>
     </g>
    </g>
    <g id="xtick_3">
     <g id="line2d_5">
      <path d="M 356.281326 522.25225 
L 356.281326 44.184 
" clip-path="url(#p4e7341db1d)" style="fill: none; stroke: #b0b0b0; stroke-width: 0.8; stroke-linecap: square"/>
     </g>
     <g id="line2d_6">
      <g>
       <use xlink:href="#m43bb86ca62" x="356.281326" y="522.25225" style="stroke: #000000; stroke-width: 0.8"/>
      </g>
     </g>
     <g id="text_3">
      <!-- 50 -->
      <g transform="translate(349.918826 536.850687)scale(0.1 -0.1)">
       <use xlink:href="#DejaVuSans-35"/>
       <use xlink:href="#DejaVuSans-30" x="63.623047"/>
      </g>
     </g>
    </g>
    <g id="xtick_4">
     <g id="line2d_7">
      <path d="M 468.790429 522.25225 
L 468.790429 44.184 
" clip-path="url(#p4e7341db1d)" style="fill: none; stroke: #b0b0b0; stroke-width: 0.8; stroke-linecap: square"/>
     </g>
     <g id="line2d_8">
      <g>
       <use xlink:href="#m43bb86ca62" x="468.790429" y="522.25225" style="stroke: #000000; stroke-width: 0.8"/>
      </g>
     </g>
     <g id="text_4">
      <!-- 75 -->
      <g transform="translate(462.427929 536.850687)scale(0.1 -0.1)">
       <defs>
        <path id="DejaVuSans-37" d="M 525 4666 
L 3525 4666 
L 3525 4397 
L 1831 0 
L 1172 0 
L 2766 4134 
L 525 4134 
L 525 4666 
z
" transform="scale(0.015625)"/>
       </defs>
       <use xlink:href="#DejaVuSans-37"/>
       <use xlink:href="#DejaVuSans-35" x="63.623047"/>
      </g>
     </g>
    </g>
    <g id="xtick_5">
     <g id="line2d_9">
      <path d="M 581.299532 522.25225 
L 581.299532 44.184 
" clip-path="url(#p4e7341db1d)" style="fill: none; stroke: #b0b0b0; stroke-width: 0.8; stroke-linecap: square"/>
     </g>
     <g id="line2d_10">
      <g>
       <use xlink:href="#m43bb86ca62" x="581.299532" y="522.25225" style="stroke: #000000; stroke-width: 0.8"/>
      </g>
     </g>
     <g id="text_5">
      <!-- 100 -->
      <g transform="translate(571.755782 536.850687)scale(0.1 -0.1)">
       <defs>
        <path id="DejaVuSans-31" d="M 794 531 
L 1825 531 
L 1825 4091 
L 703 3866 
L 703 4441 
L 1819 4666 
L 2450 4666 
L 2450 531 
L 3481 531 
L 3481 0 
L 794 0 
L 794 531 
z
" transform="scale(0.015625)"/>
       </defs>
       <use xlink:href="#DejaVuSans-31"/>
       <use xlink:href="#DejaVuSans-30" x="63.623047"/>
       <use xlink:href="#DejaVuSans-30" x="127.246094"/>
      </g>
     </g>
    </g>
    <g id="xtick_6">
     <g id="line2d_11">
      <path d="M 693.808635 522.25225 
L 693.808635 44.184 
" clip-path="url(#p4e7341db1d)" style="fill: none; stroke: #b0b0b0; stroke-width: 0.8; stroke-linecap: square"/>
     </g>
     <g id="line2d_12">
      <g>
       <use xlink:href="#m43bb86ca62" x="693.808635" y="522.25225" style="stroke: #000000; stroke-width: 0.8"/>
      </g>
     </g>
     <g id="text_6">
      <!-- 125 -->
      <g transform="translate(684.264885 536.850687)scale(0.1 -0.1)">
       <use xlink:href="#DejaVuSans-31"/>
       <use xlink:href="#DejaVuSans-32" x="63.623047"/>
       <use xlink:href="#DejaVuSans-35" x="127.246094"/>
      </g>
     </g>
    </g>
    <g id="xtick_7">
     <g id="line2d_13">
      <path d="M 806.317738 522.25225 
L 806.317738 44.184 
" clip-path="url(#p4e7341db1d)" style="fill: none; stroke: #b0b0b0; stroke-width: 0.8; stroke-linecap: square"/>
     </g>
     <g id="line2d_14">
      <g>
       <use xlink:href="#m43bb86ca62" x="806.317738" y="522.25225" style="stroke: #000000; stroke-width: 0.8"/>
      </g>
     </g>
     <g id="text_7">
      <!-- 150 -->
      <g transform="translate(796.773988 536.850687)scale(0.1 -0.1)">
       <use xlink:href="#DejaVuSans-31"/>
       <use xlink:href="#DejaVuSans-35" x="63.623047"/>
       <use xlink:href="#DejaVuSans-30" x="127.246094"/>
      </g>
     </g>
    </g>
    <g id="xtick_8">
     <g id="line2d_15">
      <path d="M 918.826841 522.25225 
L 918.826841 44.184 
" clip-path="url(#p4e7341db1d)" style="fill: none; stroke: #b0b0b0; stroke-width: 0.8; stroke-linecap: square"/>
     </g>
     <g id="line2d_16">
      <g>
       <use xlink:href="#m43bb86ca62" x="918.826841" y="522.25225" style="stroke: #000000; stroke-width: 0.8"/>
      </g>
     </g>
     <g id="text_8">
      <!-- 175 -->
      <g transform="translate(909.283091 536.850687)scale(0.1 -0.1)">
       <use xlink:href="#DejaVuSans-31"/>
       <use xlink:href="#DejaVuSans-37" x="63.623047"/>
       <use xlink:href="#DejaVuSans-35" x="127.246094"/>
      </g>
     </g>
    </g>
    <g id="xtick_9">
     <g id="line2d_17">
      <path d="M 1031.335944 522.25225 
L 1031.335944 44.184 
" clip-path="url(#p4e7341db1d)" style="fill: none; stroke: #b0b0b0; stroke-width: 0.8; stroke-linecap: square"/>
     </g>
     <g id="line2d_18">
      <g>
       <use xlink:href="#m43bb86ca62" x="1031.335944" y="522.25225" style="stroke: #000000; stroke-width: 0.8"/>
      </g>
     </g>
     <g id="text_9">
      <!-- 200 -->
      <g transform="translate(1021.792194 536.850687)scale(0.1 -0.1)">
       <use xlink:href="#DejaVuSans-32"/>
       <use xlink:href="#DejaVuSans-30" x="63.623047"/>
       <use xlink:href="#DejaVuSans-30" x="127.246094"/>
      </g>
     </g>
    </g>
   </g>
   <g id="matplotlib.axis_2">
    <g id="ytick_1">
     <g id="line2d_19">
      <path d="M 87.951094 500.521875 
L 1075.78125 500.521875 
" clip-path="url(#p4e7341db1d)" style="fill: none; stroke: #b0b0b0; stroke-width: 0.8; stroke-linecap: square"/>
     </g>
     <g id="line2d_20">
      <defs>
       <path id="mb5f3523fc7" d="M 0 0 
L -3.5 0 
" style="stroke: #000000; stroke-width: 0.8"/>
      </defs>
      <g>
       <use xlink:href="#mb5f3523fc7" x="87.951094" y="500.521875" style="stroke: #000000; stroke-width: 0.8"/>
      </g>
     </g>
     <g id="text_10">
      <!-- 0 -->
      <g transform="translate(74.588594 504.321094)scale(0.1 -0.1)">
       <use xlink:href="#DejaVuSans-30"/>
      </g>
     </g>
    </g>
    <g id="ytick_2">
     <g id="line2d_21">
      <path d="M 87.951094 394.520046 
L 1075.78125 394.520046 
" clip-path="url(#p4e7341db1d)" style="fill: none; stroke: #b0b0b0; stroke-width: 0.8; stroke-linecap: square"/>
     </g>
     <g id="line2d_22">
      <g>
       <use xlink:href="#mb5f3523fc7" x="87.951094" y="394.520046" style="stroke: #000000; stroke-width: 0.8"/>
      </g>
     </g>
     <g id="text_11">
      <!-- 50 -->
      <g transform="translate(68.226094 398.319264)scale(0.1 -0.1)">
       <use xlink:href="#DejaVuSans-35"/>
       <use xlink:href="#DejaVuSans-30" x="63.623047"/>
      </g>
     </g>
    </g>
    <g id="ytick_3">
     <g id="line2d_23">
      <path d="M 87.951094 288.518216 
L 1075.78125 288.518216 
" clip-path="url(#p4e7341db1d)" style="fill: none; stroke: #b0b0b0; stroke-width: 0.8; stroke-linecap: square"/>
     </g>
     <g id="line2d_24">
      <g>
       <use xlink:href="#mb5f3523fc7" x="87.951094" y="288.518216" style="stroke: #000000; stroke-width: 0.8"/>
      </g>
     </g>
     <g id="text_12">
      <!-- 100 -->
      <g transform="translate(61.863594 292.317435)scale(0.1 -0.1)">
       <use xlink:href="#DejaVuSans-31"/>
       <use xlink:href="#DejaVuSans-30" x="63.623047"/>
       <use xlink:href="#DejaVuSans-30" x="127.246094"/>
      </g>
     </g>
    </g>
    <g id="ytick_4">
     <g id="line2d_25">
      <path d="M 87.951094 182.516387 
L 1075.78125 182.516387 
" clip-path="url(#p4e7341db1d)" style="fill: none; stroke: #b0b0b0; stroke-width: 0.8; stroke-linecap: square"/>
     </g>
     <g id="line2d_26">
      <g>
       <use xlink:href="#mb5f3523fc7" x="87.951094" y="182.516387" style="stroke: #000000; stroke-width: 0.8"/>
      </g>
     </g>
     <g id="text_13">
      <!-- 150 -->
      <g transform="translate(61.863594 186.315606)scale(0.1 -0.1)">
       <use xlink:href="#DejaVuSans-31"/>
       <use xlink:href="#DejaVuSans-35" x="63.623047"/>
       <use xlink:href="#DejaVuSans-30" x="127.246094"/>
      </g>
     </g>
    </g>
    <g id="ytick_5">
     <g id="line2d_27">
      <path d="M 87.951094 76.514558 
L 1075.78125 76.514558 
" clip-path="url(#p4e7341db1d)" style="fill: none; stroke: #b0b0b0; stroke-width: 0.8; stroke-linecap: square"/>
     </g>
     <g id="line2d_28">
      <g>
       <use xlink:href="#mb5f3523fc7" x="87.951094" y="76.514558" style="stroke: #000000; stroke-width: 0.8"/>
      </g>
     </g>
     <g id="text_14">
      <!-- 200 -->
      <g transform="translate(61.863594 80.313777)scale(0.1 -0.1)">
       <use xlink:href="#DejaVuSans-32"/>
       <use xlink:href="#DejaVuSans-30" x="63.623047"/>
       <use xlink:href="#DejaVuSans-30" x="127.246094"/>
      </g>
     </g>
    </g>
   </g>
   <g id="line2d_29">
    <path d="M 132.852464 498.401838 
L 132.852464 500.521875 
L 139.807783 498.401838 
L 139.807783 500.521875 
L 142.859134 498.401838 
L 144.308147 500.521875 
L 144.308147 498.401838 
L 148.808511 500.521875 
L 148.808511 498.401838 
L 153.308875 500.521875 
L 153.308875 498.401838 
L 154.552223 496.281802 
L 157.809239 498.401838 
L 157.809239 496.281802 
L 161.815821 494.161765 
L 162.309603 496.281802 
L 162.309603 494.161765 
L 165.741584 492.041729 
L 166.809968 494.161765 
L 166.809968 492.041729 
L 169.062075 489.921692 
L 171.310332 492.041729 
L 171.310332 489.921692 
L 171.803168 487.801655 
L 175.810696 489.921692 
L 175.810696 487.801655 
L 176.129732 485.681619 
L 180.31106 487.801655 
L 180.31106 485.681619 
L 181.283274 483.561582 
L 184.811424 485.681619 
L 184.811424 483.561582 
L 186.22878 481.441546 
L 187.291797 479.321509 
L 188.997264 477.201473 
L 189.311788 479.321509 
L 189.311788 477.201473 
L 190.766413 475.081436 
L 193.812152 477.201473 
L 193.812152 475.081436 
L 198.312516 477.201473 
L 198.312516 475.081436 
L 202.812881 477.201473 
L 202.812881 475.081436 
L 207.313245 477.201473 
L 207.313245 475.081436 
L 210.813271 472.961399 
L 211.813609 475.081436 
L 211.813609 472.961399 
L 216.313973 475.081436 
L 216.313973 472.961399 
L 219.003119 470.841363 
L 220.814337 472.961399 
L 220.814337 470.841363 
L 222.210004 468.721326 
L 225.314701 470.841363 
L 225.314701 468.721326 
L 228.259598 466.60129 
L 229.815065 468.721326 
L 229.815065 466.60129 
L 233.510953 464.481253 
L 234.315429 466.60129 
L 234.315429 464.481253 
L 237.273697 462.361216 
L 238.815794 464.481253 
L 238.815794 462.361216 
L 240.474571 460.24118 
L 243.316158 462.361216 
L 243.316158 460.24118 
L 244.335414 458.121143 
L 244.971454 456.001107 
L 247.816522 458.121143 
L 247.816522 456.001107 
L 249.659846 453.88107 
L 251.043788 451.761034 
L 252.316886 453.88107 
L 252.316886 451.761034 
L 254.665669 449.640997 
L 256.082031 447.52096 
L 256.81725 449.640997 
L 256.81725 447.52096 
L 257.613715 445.400924 
L 258.900914 443.280887 
L 261.317614 445.400924 
L 261.317614 443.280887 
L 262.763995 441.160851 
L 263.899977 439.040814 
L 265.817978 441.160851 
L 265.817978 439.040814 
L 270.318342 441.160851 
L 270.318342 439.040814 
L 273.897567 436.920777 
L 274.818707 439.040814 
L 274.818707 436.920777 
L 276.286011 434.800741 
L 279.319071 436.920777 
L 279.319071 434.800741 
L 283.819435 436.920777 
L 283.819435 434.800741 
L 285.869534 432.680704 
L 288.319799 434.800741 
L 288.319799 432.680704 
L 289.298216 430.560668 
L 292.820163 432.680704 
L 292.820163 430.560668 
L 293.638609 428.440631 
L 297.320527 430.560668 
L 297.320527 428.440631 
L 301.271548 424.200558 
L 301.425476 422.080521 
L 301.820891 424.200558 
L 301.820891 422.080521 
L 306.191404 419.960485 
L 306.321255 422.080521 
L 306.321255 419.960485 
L 308.253348 417.840448 
L 310.82162 419.960485 
L 310.82162 417.840448 
L 315.321984 419.960485 
L 315.321984 417.840448 
L 315.637985 415.720412 
L 318.488797 413.600375 
L 319.822348 415.720412 
L 319.822348 413.600375 
L 324.322712 415.720412 
L 324.322712 413.600375 
L 327.606125 411.480338 
L 328.823076 413.600375 
L 328.823076 411.480338 
L 333.32344 413.600375 
L 333.32344 411.480338 
L 335.01696 409.360302 
L 337.469016 407.240265 
L 337.823804 409.360302 
L 337.823804 407.240265 
L 342.324168 409.360302 
L 342.324168 407.240265 
L 346.824533 409.360302 
L 346.824533 407.240265 
L 351.324897 409.360302 
L 351.324897 407.240265 
L 354.165189 405.120229 
L 355.825261 407.240265 
L 355.825261 405.120229 
L 360.325625 407.240265 
L 360.325625 405.120229 
L 364.825989 407.240265 
L 364.825989 405.120229 
L 367.146689 403.000192 
L 369.326353 405.120229 
L 369.326353 403.000192 
L 373.826717 405.120229 
L 373.826717 403.000192 
L 376.13469 400.880155 
L 378.327081 403.000192 
L 378.420268 398.760119 
L 381.128043 396.640082 
L 382.827446 398.760119 
L 382.827446 396.640082 
L 387.32781 398.760119 
L 387.32781 396.640082 
L 391.828174 398.760119 
L 391.828174 396.640082 
L 396.328538 398.760119 
L 396.328538 396.640082 
L 396.944476 394.520046 
L 400.828902 396.640082 
L 400.828902 394.520046 
L 403.131787 390.279973 
L 405.329266 392.400009 
L 405.329266 390.279973 
L 408.027753 388.159936 
L 409.82963 390.279973 
L 409.82963 388.159936 
L 410.204301 386.039899 
L 414.198383 383.919863 
L 414.198632 381.799826 
L 414.329994 383.919863 
L 414.329994 381.799826 
L 418.830359 383.919863 
L 418.830359 381.799826 
L 423.330723 383.919863 
L 423.330723 381.799826 
L 423.473078 379.67979 
L 424.5654 377.559753 
L 427.831087 379.67979 
L 427.831087 377.559753 
L 432.331451 379.67979 
L 432.331451 377.559753 
L 436.831815 379.67979 
L 436.831815 377.559753 
L 437.816633 375.439716 
L 441.332179 377.559753 
L 441.332179 375.439716 
L 441.793991 373.31968 
L 443.253005 371.199643 
L 443.890445 369.079607 
L 445.832543 371.199643 
L 445.832543 369.079607 
L 449.569062 366.95957 
L 450.332907 369.079607 
L 450.332907 366.95957 
L 454.833271 369.079607 
L 454.833271 366.95957 
L 456.092586 364.839534 
L 459.333636 366.95957 
L 459.333636 364.839534 
L 460.044874 362.719497 
L 461.599838 360.59946 
L 462.839814 358.479424 
L 463.834 360.59946 
L 463.834 358.479424 
L 468.334364 360.59946 
L 468.334364 358.479424 
L 469.760603 356.359387 
L 470.662666 354.239351 
L 472.834728 356.359387 
L 472.834728 354.239351 
L 473.895037 352.119314 
L 477.335092 354.239351 
L 477.335092 352.119314 
L 478.09213 349.999277 
L 479.278323 347.879241 
L 481.835456 349.999277 
L 481.835456 347.879241 
L 486.33582 349.999277 
L 486.33582 347.879241 
L 488.778091 345.759204 
L 490.836184 347.879241 
L 490.836184 345.759204 
L 491.774624 343.639168 
L 493.33514 341.519131 
L 495.336549 343.639168 
L 495.336549 341.519131 
L 499.836913 343.639168 
L 499.836913 341.519131 
L 501.841286 339.399095 
L 504.337277 341.519131 
L 504.337277 339.399095 
L 508.144837 337.279058 
L 508.807403 335.159021 
L 508.837641 337.279058 
L 508.837641 335.159021 
L 511.323141 333.038985 
L 513.338005 335.159021 
L 513.338005 333.038985 
L 514.545606 330.918948 
L 517.838369 333.038985 
L 517.838369 330.918948 
L 518.335526 328.798912 
L 522.338733 330.918948 
L 522.338733 328.798912 
L 525.334917 326.678875 
L 526.839097 328.798912 
L 526.839097 326.678875 
L 527.630061 324.558838 
L 529.983606 322.438802 
L 530.623223 320.318765 
L 531.339462 322.438802 
L 531.339462 320.318765 
L 535.839826 322.438802 
L 535.839826 320.318765 
L 540.34019 322.438802 
L 540.34019 320.318765 
L 544.371204 318.198729 
L 544.840554 320.318765 
L 544.840554 318.198729 
L 549.340918 320.318765 
L 549.340918 318.198729 
L 550.214682 316.078692 
L 553.561077 313.958655 
L 553.841282 316.078692 
L 553.841282 313.958655 
L 558.341646 316.078692 
L 558.341646 313.958655 
L 561.453432 311.838619 
L 562.337582 309.718582 
L 562.663494 307.598546 
L 562.707307 305.478509 
L 562.84201 307.598546 
L 562.84201 305.478509 
L 564.14105 303.358473 
L 566.226474 301.238436 
L 567.342375 303.358473 
L 567.342375 301.238436 
L 571.842739 303.358473 
L 571.842739 301.238436 
L 576.343103 303.358473 
L 576.343103 301.238436 
L 577.893437 299.118399 
L 580.843467 301.238436 
L 580.843467 299.118399 
L 581.551776 296.998363 
L 585.343831 299.118399 
L 585.343831 296.998363 
L 586.269458 294.878326 
L 586.705082 292.75829 
L 589.844195 294.878326 
L 589.844195 292.75829 
L 594.344559 294.878326 
L 594.344559 292.75829 
L 597.569035 290.638253 
L 598.844923 292.75829 
L 598.844923 290.638253 
L 602.840148 288.518216 
L 603.345288 290.638253 
L 603.345288 288.518216 
L 604.862875 284.278143 
L 604.907044 282.158107 
L 607.845652 284.278143 
L 607.845652 282.158107 
L 612.069626 280.03807 
L 612.346016 282.158107 
L 612.346016 280.03807 
L 612.531147 277.918034 
L 616.84638 280.03807 
L 616.84638 277.918034 
L 621.346744 280.03807 
L 621.346744 277.918034 
L 625.847108 280.03807 
L 625.847108 277.918034 
L 626.184993 275.797997 
L 630.347472 277.918034 
L 630.347472 275.797997 
L 634.847836 277.918034 
L 634.847836 275.797997 
L 639.348201 277.918034 
L 639.348201 275.797997 
L 639.604087 273.67796 
L 640.525997 271.557924 
L 643.848565 273.67796 
L 643.848565 271.557924 
L 643.984359 269.437887 
L 644.450915 267.317851 
L 648.348929 269.437887 
L 648.348929 267.317851 
L 652.849293 269.437887 
L 652.849293 267.317851 
L 653.61498 265.197814 
L 653.76351 263.077777 
L 654.88838 260.957741 
L 656.202244 258.837704 
L 657.349657 260.957741 
L 657.349657 258.837704 
L 658.326272 256.717668 
L 660.436589 254.597631 
L 661.850021 256.717668 
L 661.850021 254.597631 
L 662.106952 252.477595 
L 666.350385 254.597631 
L 666.350385 252.477595 
L 669.510876 250.357558 
L 670.850749 252.477595 
L 670.850749 250.357558 
L 671.576669 248.237521 
L 673.10786 246.117485 
L 673.436619 243.997448 
L 674.680093 241.877412 
L 675.351114 243.997448 
L 675.351114 241.877412 
L 679.568404 239.757375 
L 679.851478 241.877412 
L 679.851478 239.757375 
L 684.351842 241.877412 
L 684.351842 239.757375 
L 688.225928 237.637338 
L 688.852206 239.757375 
L 688.852206 237.637338 
L 690.23822 235.517302 
L 692.268959 233.397265 
L 693.35257 235.517302 
L 693.460576 231.277229 
L 697.852934 233.397265 
L 697.852934 231.277229 
L 702.353298 233.397265 
L 702.353298 231.277229 
L 705.922734 229.157192 
L 706.853662 231.277229 
L 706.853662 229.157192 
L 707.21393 227.037155 
L 707.717721 224.917119 
L 710.743689 222.797082 
L 711.354027 224.917119 
L 711.354027 222.797082 
L 715.854391 224.917119 
L 715.854391 222.797082 
L 720.354755 224.917119 
L 720.354755 222.797082 
L 720.739961 220.677046 
L 722.171322 218.557009 
L 724.281445 216.436973 
L 724.855119 218.557009 
L 724.855119 216.436973 
L 725.503545 214.316936 
L 726.352155 212.196899 
L 727.933228 210.076863 
L 729.355483 212.196899 
L 729.355483 210.076863 
L 733.855847 212.196899 
L 733.855847 210.076863 
L 737.704536 207.956826 
L 737.816721 205.83679 
L 738.356211 207.956826 
L 738.356211 205.83679 
L 742.856575 207.956826 
L 742.856575 205.83679 
L 743.228667 203.716753 
L 745.934082 201.596716 
L 747.356939 203.716753 
L 747.356939 201.596716 
L 747.493158 199.47668 
L 751.857304 201.596716 
L 751.857304 199.47668 
L 752.508626 197.356643 
L 756.357668 199.47668 
L 756.357668 197.356643 
L 760.858032 199.47668 
L 760.858032 197.356643 
L 762.668093 195.236607 
L 765.017784 193.11657 
L 765.358396 195.236607 
L 765.358396 193.11657 
L 769.85876 195.236607 
L 769.85876 193.11657 
L 774.359124 195.236607 
L 774.359124 193.11657 
L 778.859488 195.236607 
L 778.859488 193.11657 
L 781.756476 190.996534 
L 781.981114 188.876497 
L 783.297699 186.75646 
L 783.359852 188.876497 
L 783.359852 186.75646 
L 785.956672 184.636424 
L 787.860217 186.75646 
L 787.884813 182.516387 
L 791.100927 180.396351 
L 792.360581 182.516387 
L 792.360581 180.396351 
L 796.236037 178.276314 
L 796.860945 180.396351 
L 796.860945 178.276314 
L 801.31137 176.156277 
L 801.361309 178.276314 
L 801.361309 176.156277 
L 802.806664 174.036241 
L 805.861673 176.156277 
L 805.861673 174.036241 
L 808.382779 171.916204 
L 808.804713 169.796168 
L 810.362037 171.916204 
L 810.362037 169.796168 
L 811.948582 167.676131 
L 814.862401 169.796168 
L 814.862401 167.676131 
L 819.362765 169.796168 
L 819.362765 167.676131 
L 823.86313 169.796168 
L 823.86313 167.676131 
L 827.562117 165.556095 
L 828.363494 167.676131 
L 828.363494 165.556095 
L 832.863858 167.676131 
L 832.927972 163.436058 
L 836.136536 161.316021 
L 837.364222 163.436058 
L 837.364222 161.316021 
L 837.965542 159.195985 
L 838.425937 157.075948 
L 841.05172 154.955912 
L 841.864586 157.075948 
L 841.864586 154.955912 
L 846.36495 157.075948 
L 846.380276 152.835875 
L 850.773946 150.715838 
L 850.865314 152.835875 
L 850.865314 150.715838 
L 852.564859 148.595802 
L 854.897073 146.475765 
L 855.365678 148.595802 
L 855.365678 146.475765 
L 859.866043 148.595802 
L 859.866043 146.475765 
L 864.141057 144.355729 
L 864.366407 146.475765 
L 864.366407 144.355729 
L 868.866771 146.475765 
L 868.866771 144.355729 
L 873.367135 146.475765 
L 873.367135 144.355729 
L 877.867499 146.475765 
L 877.867499 144.355729 
L 879.671859 142.235692 
L 880.457748 140.115655 
L 882.367863 142.235692 
L 882.367863 140.115655 
L 885.3276 137.995619 
L 885.509512 135.875582 
L 886.868227 137.995619 
L 886.868227 135.875582 
L 888.072182 133.755546 
L 891.368591 135.875582 
L 891.368591 133.755546 
L 895.868956 135.875582 
L 895.868956 133.755546 
L 898.796857 131.635509 
L 900.36932 133.755546 
L 900.36932 131.635509 
L 900.935472 129.515473 
L 901.799353 127.395436 
L 903.588153 125.275399 
L 904.59443 123.155363 
L 904.869684 125.275399 
L 904.869684 123.155363 
L 908.800383 121.035326 
L 909.370048 123.155363 
L 909.370048 121.035326 
L 910.303842 118.91529 
L 913.870412 121.035326 
L 913.870412 118.91529 
L 914.815738 116.795253 
L 917.366103 114.675216 
L 918.370776 116.795253 
L 918.370776 114.675216 
L 919.218906 112.55518 
L 922.87114 114.675216 
L 922.87114 112.55518 
L 923.262043 110.435143 
L 927.371504 112.55518 
L 927.371504 110.435143 
L 931.022435 108.315107 
L 931.871869 110.435143 
L 931.871869 108.315107 
L 935.59012 106.19507 
L 936.372233 108.315107 
L 936.372233 106.19507 
L 940.872597 108.315107 
L 940.872597 106.19507 
L 945.372961 108.315107 
L 945.372961 106.19507 
L 949.873325 108.315107 
L 949.873325 106.19507 
L 952.417649 104.075034 
L 953.307514 101.954997 
L 954.373689 104.075034 
L 954.373689 101.954997 
L 958.874053 104.075034 
L 958.874053 101.954997 
L 963.374417 104.075034 
L 963.374417 101.954997 
L 967.654154 99.83496 
L 967.874782 101.954997 
L 967.874782 99.83496 
L 969.951568 97.714924 
L 971.021151 95.594887 
L 971.740958 93.474851 
L 972.375146 95.594887 
L 972.375146 93.474851 
L 976.87551 95.594887 
L 976.938764 91.354814 
L 981.283577 89.234777 
L 981.375874 91.354814 
L 981.375874 89.234777 
L 985.876238 91.354814 
L 985.876238 89.234777 
L 990.376602 91.354814 
L 990.376602 89.234777 
L 991.494764 87.114741 
L 994.25334 84.994704 
L 994.526396 82.874668 
L 994.876966 84.994704 
L 994.876966 82.874668 
L 995.121397 80.754631 
L 997.023654 78.634595 
L 999.37733 80.754631 
L 999.37733 78.634595 
L 1002.653379 76.514558 
L 1003.877695 78.634595 
L 1003.877695 76.514558 
L 1007.52974 74.394521 
L 1008.378059 76.514558 
L 1008.378059 74.394521 
L 1009.292463 72.274485 
L 1009.819321 70.154448 
L 1012.878423 72.274485 
L 1012.878423 70.154448 
L 1017.378787 72.274485 
L 1017.378787 70.154448 
L 1017.882418 68.034412 
L 1021.879151 70.154448 
L 1021.879151 68.034412 
L 1022.415512 65.914375 
L 1026.379515 68.034412 
L 1026.379515 65.914375 
L 1030.879879 68.034412 
L 1030.879879 65.914375 
L 1030.879879 65.914375 
" clip-path="url(#p4e7341db1d)" style="fill: none; stroke: #1f77b4; stroke-width: 1.5; stroke-linecap: square"/>
   </g>
   <g id="patch_3">
    <path d="M 87.951094 522.25225 
L 87.951094 44.184 
" style="fill: none; stroke: #000000; stroke-width: 0.8; stroke-linejoin: miter; stroke-linecap: square"/>
   </g>
   <g id="patch_4">
    <path d="M 1075.78125 522.25225 
L 1075.78125 44.184 
" style="fill: none; stroke: #000000; stroke-width: 0.8; stroke-linejoin: miter; stroke-linecap: square"/>
   </g>
   <g id="patch_5">
    <path d="M 87.951094 522.25225 
L 1075.78125 522.25225 
" style="fill: none; stroke: #000000; stroke-width: 0.8; stroke-linejoin: miter; stroke-linecap: square"/>
   </g>
   <g id="patch_6">
    <path d="M 87.951094 44.184 
L 1075.78125 44.184 
" style="fill: none; stroke: #000000; stroke-width: 0.8; stroke-linejoin: miter; stroke-linecap: square"/>
   </g>
   <g id="text_15">
    <!-- Buffer Size in Network.node[7].lnk[0] -->
    <g transform="translate(470.274609 38.184)scale(0.12 -0.12)">
     <defs>
      <path id="DejaVuSans-42" d="M 1259 2228 
L 1259 519 
L 2272 519 
Q 2781 519 3026 730 
Q 3272 941 3272 1375 
Q 3272 1813 3026 2020 
Q 2781 2228 2272 2228 
L 1259 2228 
z
M 1259 4147 
L 1259 2741 
L 2194 2741 
Q 2656 2741 2882 2914 
Q 3109 3088 3109 3444 
Q 3109 3797 2882 3972 
Q 2656 4147 2194 4147 
L 1259 4147 
z
M 628 4666 
L 2241 4666 
Q 2963 4666 3353 4366 
Q 3744 4066 3744 3513 
Q 3744 3084 3544 2831 
Q 3344 2578 2956 2516 
Q 3422 2416 3680 2098 
Q 3938 1781 3938 1306 
Q 3938 681 3513 340 
Q 3088 0 2303 0 
L 628 0 
L 628 4666 
z
" transform="scale(0.015625)"/>
      <path id="DejaVuSans-75" d="M 544 1381 
L 544 3500 
L 1119 3500 
L 1119 1403 
Q 1119 906 1312 657 
Q 1506 409 1894 409 
Q 2359 409 2629 706 
Q 2900 1003 2900 1516 
L 2900 3500 
L 3475 3500 
L 3475 0 
L 2900 0 
L 2900 538 
Q 2691 219 2414 64 
Q 2138 -91 1772 -91 
Q 1169 -91 856 284 
Q 544 659 544 1381 
z
M 1991 3584 
L 1991 3584 
z
" transform="scale(0.015625)"/>
      <path id="DejaVuSans-66" d="M 2375 4863 
L 2375 4384 
L 1825 4384 
Q 1516 4384 1395 4259 
Q 1275 4134 1275 3809 
L 1275 3500 
L 2222 3500 
L 2222 3053 
L 1275 3053 
L 1275 0 
L 697 0 
L 697 3053 
L 147 3053 
L 147 3500 
L 697 3500 
L 697 3744 
Q 697 4328 969 4595 
Q 1241 4863 1831 4863 
L 2375 4863 
z
" transform="scale(0.015625)"/>
      <path id="DejaVuSans-65" d="M 3597 1894 
L 3597 1613 
L 953 1613 
Q 991 1019 1311 708 
Q 1631 397 2203 397 
Q 2534 397 2845 478 
Q 3156 559 3463 722 
L 3463 178 
Q 3153 47 2828 -22 
Q 2503 -91 2169 -91 
Q 1331 -91 842 396 
Q 353 884 353 1716 
Q 353 2575 817 3079 
Q 1281 3584 2069 3584 
Q 2775 3584 3186 3129 
Q 3597 2675 3597 1894 
z
M 3022 2063 
Q 3016 2534 2758 2815 
Q 2500 3097 2075 3097 
Q 1594 3097 1305 2825 
Q 1016 2553 972 2059 
L 3022 2063 
z
" transform="scale(0.015625)"/>
      <path id="DejaVuSans-72" d="M 2631 2963 
Q 2534 3019 2420 3045 
Q 2306 3072 2169 3072 
Q 1681 3072 1420 2755 
Q 1159 2438 1159 1844 
L 1159 0 
L 581 0 
L 581 3500 
L 1159 3500 
L 1159 2956 
Q 1341 3275 1631 3429 
Q 1922 3584 2338 3584 
Q 2397 3584 2469 3576 
Q 2541 3569 2628 3553 
L 2631 2963 
z
" transform="scale(0.015625)"/>
      <path id="DejaVuSans-20" transform="scale(0.015625)"/>
      <path id="DejaVuSans-53" d="M 3425 4513 
L 3425 3897 
Q 3066 4069 2747 4153 
Q 2428 4238 2131 4238 
Q 1616 4238 1336 4038 
Q 1056 3838 1056 3469 
Q 1056 3159 1242 3001 
Q 1428 2844 1947 2747 
L 2328 2669 
Q 3034 2534 3370 2195 
Q 3706 1856 3706 1288 
Q 3706 609 3251 259 
Q 2797 -91 1919 -91 
Q 1588 -91 1214 -16 
Q 841 59 441 206 
L 441 856 
Q 825 641 1194 531 
Q 1563 422 1919 422 
Q 2459 422 2753 634 
Q 3047 847 3047 1241 
Q 3047 1584 2836 1778 
Q 2625 1972 2144 2069 
L 1759 2144 
Q 1053 2284 737 2584 
Q 422 2884 422 3419 
Q 422 4038 858 4394 
Q 1294 4750 2059 4750 
Q 2388 4750 2728 4690 
Q 3069 4631 3425 4513 
z
" transform="scale(0.015625)"/>
      <path id="DejaVuSans-69" d="M 603 3500 
L 1178 3500 
L 1178 0 
L 603 0 
L 603 3500 
z
M 603 4863 
L 1178 4863 
L 1178 4134 
L 603 4134 
L 603 4863 
z
" transform="scale(0.015625)"/>
      <path id="DejaVuSans-7a" d="M 353 3500 
L 3084 3500 
L 3084 2975 
L 922 459 
L 3084 459 
L 3084 0 
L 275 0 
L 275 525 
L 2438 3041 
L 353 3041 
L 353 3500 
z
" transform="scale(0.015625)"/>
      <path id="DejaVuSans-6e" d="M 3513 2113 
L 3513 0 
L 2938 0 
L 2938 2094 
Q 2938 2591 2744 2837 
Q 2550 3084 2163 3084 
Q 1697 3084 1428 2787 
Q 1159 2491 1159 1978 
L 1159 0 
L 581 0 
L 581 3500 
L 1159 3500 
L 1159 2956 
Q 1366 3272 1645 3428 
Q 1925 3584 2291 3584 
Q 2894 3584 3203 3211 
Q 3513 2838 3513 2113 
z
" transform="scale(0.015625)"/>
      <path id="DejaVuSans-4e" d="M 628 4666 
L 1478 4666 
L 3547 763 
L 3547 4666 
L 4159 4666 
L 4159 0 
L 3309 0 
L 1241 3903 
L 1241 0 
L 628 0 
L 628 4666 
z
" transform="scale(0.015625)"/>
      <path id="DejaVuSans-74" d="M 1172 4494 
L 1172 3500 
L 2356 3500 
L 2356 3053 
L 1172 3053 
L 1172 1153 
Q 1172 725 1289 603 
Q 1406 481 1766 481 
L 2356 481 
L 2356 0 
L 1766 0 
Q 1100 0 847 248 
Q 594 497 594 1153 
L 594 3053 
L 172 3053 
L 172 3500 
L 594 3500 
L 594 4494 
L 1172 4494 
z
" transform="scale(0.015625)"/>
      <path id="DejaVuSans-77" d="M 269 3500 
L 844 3500 
L 1563 769 
L 2278 3500 
L 2956 3500 
L 3675 769 
L 4391 3500 
L 4966 3500 
L 4050 0 
L 3372 0 
L 2619 2869 
L 1863 0 
L 1184 0 
L 269 3500 
z
" transform="scale(0.015625)"/>
      <path id="DejaVuSans-6f" d="M 1959 3097 
Q 1497 3097 1228 2736 
Q 959 2375 959 1747 
Q 959 1119 1226 758 
Q 1494 397 1959 397 
Q 2419 397 2687 759 
Q 2956 1122 2956 1747 
Q 2956 2369 2687 2733 
Q 2419 3097 1959 3097 
z
M 1959 3584 
Q 2709 3584 3137 3096 
Q 3566 2609 3566 1747 
Q 3566 888 3137 398 
Q 2709 -91 1959 -91 
Q 1206 -91 779 398 
Q 353 888 353 1747 
Q 353 2609 779 3096 
Q 1206 3584 1959 3584 
z
" transform="scale(0.015625)"/>
      <path id="DejaVuSans-6b" d="M 581 4863 
L 1159 4863 
L 1159 1991 
L 2875 3500 
L 3609 3500 
L 1753 1863 
L 3688 0 
L 2938 0 
L 1159 1709 
L 1159 0 
L 581 0 
L 581 4863 
z
" transform="scale(0.015625)"/>
      <path id="DejaVuSans-2e" d="M 684 794 
L 1344 794 
L 1344 0 
L 684 0 
L 684 794 
z
" transform="scale(0.015625)"/>
      <path id="DejaVuSans-64" d="M 2906 2969 
L 2906 4863 
L 3481 4863 
L 3481 0 
L 2906 0 
L 2906 525 
Q 2725 213 2448 61 
Q 2172 -91 1784 -91 
Q 1150 -91 751 415 
Q 353 922 353 1747 
Q 353 2572 751 3078 
Q 1150 3584 1784 3584 
Q 2172 3584 2448 3432 
Q 2725 3281 2906 2969 
z
M 947 1747 
Q 947 1113 1208 752 
Q 1469 391 1925 391 
Q 2381 391 2643 752 
Q 2906 1113 2906 1747 
Q 2906 2381 2643 2742 
Q 2381 3103 1925 3103 
Q 1469 3103 1208 2742 
Q 947 2381 947 1747 
z
" transform="scale(0.015625)"/>
      <path id="DejaVuSans-5b" d="M 550 4863 
L 1875 4863 
L 1875 4416 
L 1125 4416 
L 1125 -397 
L 1875 -397 
L 1875 -844 
L 550 -844 
L 550 4863 
z
" transform="scale(0.015625)"/>
      <path id="DejaVuSans-5d" d="M 1947 4863 
L 1947 -844 
L 622 -844 
L 622 -397 
L 1369 -397 
L 1369 4416 
L 622 4416 
L 622 4863 
L 1947 4863 
z
" transform="scale(0.015625)"/>
      <path id="DejaVuSans-6c" d="M 603 4863 
L 1178 4863 
L 1178 0 
L 603 0 
L 603 4863 
z
" transform="scale(0.015625)"/>
     </defs>
     <use xlink:href="#DejaVuSans-42"/>
     <use xlink:href="#DejaVuSans-75" x="68.603516"/>
     <use xlink:href="#DejaVuSans-66" x="131.982422"/>
     <use xlink:href="#DejaVuSans-66" x="167.1875"/>
     <use xlink:href="#DejaVuSans-65" x="202.392578"/>
     <use xlink:href="#DejaVuSans-72" x="263.916016"/>
     <use xlink:href="#DejaVuSans-20" x="305.029297"/>
     <use xlink:href="#DejaVuSans-53" x="336.816406"/>
     <use xlink:href="#DejaVuSans-69" x="400.292969"/>
     <use xlink:href="#DejaVuSans-7a" x="428.076172"/>
     <use xlink:href="#DejaVuSans-65" x="480.566406"/>
     <use xlink:href="#DejaVuSans-20" x="542.089844"/>
     <use xlink:href="#DejaVuSans-69" x="573.876953"/>
     <use xlink:href="#DejaVuSans-6e" x="601.660156"/>
     <use xlink:href="#DejaVuSans-20" x="665.039062"/>
     <use xlink:href="#DejaVuSans-4e" x="696.826172"/>
     <use xlink:href="#DejaVuSans-65" x="771.630859"/>
     <use xlink:href="#DejaVuSans-74" x="833.154297"/>
     <use xlink:href="#DejaVuSans-77" x="872.363281"/>
     <use xlink:href="#DejaVuSans-6f" x="954.150391"/>
     <use xlink:href="#DejaVuSans-72" x="1015.332031"/>
     <use xlink:href="#DejaVuSans-6b" x="1056.445312"/>
     <use xlink:href="#DejaVuSans-2e" x="1114.355469"/>
     <use xlink:href="#DejaVuSans-6e" x="1146.142578"/>
     <use xlink:href="#DejaVuSans-6f" x="1209.521484"/>
     <use xlink:href="#DejaVuSans-64" x="1270.703125"/>
     <use xlink:href="#DejaVuSans-65" x="1334.179688"/>
     <use xlink:href="#DejaVuSans-5b" x="1395.703125"/>
     <use xlink:href="#DejaVuSans-37" x="1434.716797"/>
     <use xlink:href="#DejaVuSans-5d" x="1498.339844"/>
     <use xlink:href="#DejaVuSans-2e" x="1537.353516"/>
     <use xlink:href="#DejaVuSans-6c" x="1569.140625"/>
     <use xlink:href="#DejaVuSans-6e" x="1596.923828"/>
     <use xlink:href="#DejaVuSans-6b" x="1660.302734"/>
     <use xlink:href="#DejaVuSans-5b" x="1718.212891"/>
     <use xlink:href="#DejaVuSans-30" x="1757.226562"/>
     <use xlink:href="#DejaVuSans-5d" x="1820.849609"/>
    </g>
   </g>
   <g id="legend_1">
    <g id="patch_7">
     <path d="M 848.795313 66.862125 
L 1070.78125 66.862125 
L 1070.78125 49.184 
L 848.795313 49.184 
z
" style="fill: #ffffff; opacity: 0.8; stroke: #cccccc; stroke-linejoin: miter"/>
    </g>
    <g id="line2d_30">
     <path d="M 852.795313 57.282438 
L 862.795313 57.282438 
L 872.795313 57.282438 
" style="fill: none; stroke: #1f77b4; stroke-width: 1.5; stroke-linecap: square"/>
    </g>
    <g id="text_16">
     <!-- Buffer Size in Network.node[7].lnk[0] -->
     <g transform="translate(880.795313 60.782438)scale(0.1 -0.1)">
      <use xlink:href="#DejaVuSans-42"/>
      <use xlink:href="#DejaVuSans-75" x="68.603516"/>
      <use xlink:href="#DejaVuSans-66" x="131.982422"/>
      <use xlink:href="#DejaVuSans-66" x="167.1875"/>
      <use xlink:href="#DejaVuSans-65" x="202.392578"/>
      <use xlink:href="#DejaVuSans-72" x="263.916016"/>
      <use xlink:href="#DejaVuSans-20" x="305.029297"/>
      <use xlink:href="#DejaVuSans-53" x="336.816406"/>
      <use xlink:href="#DejaVuSans-69" x="400.292969"/>
      <use xlink:href="#DejaVuSans-7a" x="428.076172"/>
      <use xlink:href="#DejaVuSans-65" x="480.566406"/>
      <use xlink:href="#DejaVuSans-20" x="542.089844"/>
      <use xlink:href="#DejaVuSans-69" x="573.876953"/>
      <use xlink:href="#DejaVuSans-6e" x="601.660156"/>
      <use xlink:href="#DejaVuSans-20" x="665.039062"/>
      <use xlink:href="#DejaVuSans-4e" x="696.826172"/>
      <use xlink:href="#DejaVuSans-65" x="771.630859"/>
      <use xlink:href="#DejaVuSans-74" x="833.154297"/>
      <use xlink:href="#DejaVuSans-77" x="872.363281"/>
      <use xlink:href="#DejaVuSans-6f" x="954.150391"/>
      <use xlink:href="#DejaVuSans-72" x="1015.332031"/>
      <use xlink:href="#DejaVuSans-6b" x="1056.445312"/>
      <use xlink:href="#DejaVuSans-2e" x="1114.355469"/>
      <use xlink:href="#DejaVuSans-6e" x="1146.142578"/>
      <use xlink:href="#DejaVuSans-6f" x="1209.521484"/>
      <use xlink:href="#DejaVuSans-64" x="1270.703125"/>
      <use xlink:href="#DejaVuSans-65" x="1334.179688"/>
      <use xlink:href="#DejaVuSans-5b" x="1395.703125"/>
      <use xlink:href="#DejaVuSans-37" x="1434.716797"/>
      <use xlink:href="#DejaVuSans-5d" x="1498.339844"/>
      <use xlink:href="#DejaVuSans-2e" x="1537.353516"/>
      <use xlink:href="#DejaVuSans-6c" x="1569.140625"/>
      <use xlink:href="#DejaVuSans-6e" x="1596.923828"/>
      <use xlink:href="#DejaVuSans-6b" x="1660.302734"/>
      <use xlink:href="#DejaVuSans-5b" x="1718.212891"/>
      <use xlink:href="#DejaVuSans-30" x="1757.226562"/>
      <use xlink:href="#DejaVuSans-5d" x="1820.849609"/>
     </g>
    </g>
   </g>
  </g>
 </g>
 <defs>
  <clipPath id="p4e7341db1d">
   <rect x="87.951094" y="44.184" width="987.830156" height="478.06825"/>
  </clipPath>
 </defs>
</svg>
