<?xml version="1.0" encoding="utf-8" standalone="no"?>
<!DOCTYPE svg PUBLIC "-//W3C//DTD SVG 1.1//EN"
  "http://www.w3.org/Graphics/SVG/1.1/DTD/svg11.dtd">
<svg xmlns:xlink="http://www.w3.org/1999/xlink" width="1323.36pt" height="568.08pt" viewBox="0 0 1323.36 568.08" xmlns="http://www.w3.org/2000/svg" version="1.1">
 <metadata>
  <rdf:RDF xmlns:dc="http://purl.org/dc/elements/1.1/" xmlns:cc="http://creativecommons.org/ns#" xmlns:rdf="http://www.w3.org/1999/02/22-rdf-syntax-ns#">
   <cc:Work>
    <dc:type rdf:resource="http://purl.org/dc/dcmitype/StillImage"/>
    <dc:date>2023-05-28T22:01:47.524670</dc:date>
    <dc:format>image/svg+xml</dc:format>
    <dc:creator>
     <cc:Agent>
      <dc:title>Matplotlib v3.5.2, https://matplotlib.org/</dc:title>
     </cc:Agent>
    </dc:creator>
   </cc:Work>
  </rdf:RDF>
 </metadata>
 <defs>
  <style type="text/css">*{stroke-linejoin: round; stroke-linecap: butt}</style>
 </defs>
 <g id="figure_1">
  <g id="patch_1">
   <path d="M 0 568.08 
L 1323.36 568.08 
L 1323.36 0 
L 0 0 
z
" style="fill: #ffffff"/>
  </g>
  <g id="axes_1">
   <g id="patch_2">
    <path d="M 105.656281 522.25225 
L 1292.34375 522.25225 
L 1292.34375 44.184 
L 105.656281 44.184 
z
" style="fill: #ffffff"/>
   </g>
   <g id="matplotlib.axis_1">
    <g id="xtick_1">
     <g id="line2d_1">
      <path d="M 159.596081 522.25225 
L 159.596081 44.184 
" clip-path="url(#p64abcbfe4d)" style="fill: none; stroke: #b0b0b0; stroke-width: 0.8; stroke-linecap: square"/>
     </g>
     <g id="line2d_2">
      <defs>
       <path id="mf11044cbb8" d="M 0 0 
L 0 3.5 
" style="stroke: #000000; stroke-width: 0.8"/>
      </defs>
      <g>
       <use xlink:href="#mf11044cbb8" x="159.596081" y="522.25225" style="stroke: #000000; stroke-width: 0.8"/>
      </g>
     </g>
     <g id="text_1">
      <!-- 0 -->
      <g transform="translate(156.414831 536.850687)scale(0.1 -0.1)">
       <defs>
        <path id="DejaVuSans-30" d="M 2034 4250 
Q 1547 4250 1301 3770 
Q 1056 3291 1056 2328 
Q 1056 1369 1301 889 
Q 1547 409 2034 409 
Q 2525 409 2770 889 
Q 3016 1369 3016 2328 
Q 3016 3291 2770 3770 
Q 2525 4250 2034 4250 
z
M 2034 4750 
Q 2819 4750 3233 4129 
Q 3647 3509 3647 2328 
Q 3647 1150 3233 529 
Q 2819 -91 2034 -91 
Q 1250 -91 836 529 
Q 422 1150 422 2328 
Q 422 3509 836 4129 
Q 1250 4750 2034 4750 
z
" transform="scale(0.015625)"/>
       </defs>
       <use xlink:href="#DejaVuSans-30"/>
      </g>
     </g>
    </g>
    <g id="xtick_2">
     <g id="line2d_3">
      <path d="M 294.462503 522.25225 
L 294.462503 44.184 
" clip-path="url(#p64abcbfe4d)" style="fill: none; stroke: #b0b0b0; stroke-width: 0.8; stroke-linecap: square"/>
     </g>
     <g id="line2d_4">
      <g>
       <use xlink:href="#mf11044cbb8" x="294.462503" y="522.25225" style="stroke: #000000; stroke-width: 0.8"/>
      </g>
     </g>
     <g id="text_2">
      <!-- 25 -->
      <g transform="translate(288.100003 536.850687)scale(0.1 -0.1)">
       <defs>
        <path id="DejaVuSans-32" d="M 1228 531 
L 3431 531 
L 3431 0 
L 469 0 
L 469 531 
Q 828 903 1448 1529 
Q 2069 2156 2228 2338 
Q 2531 2678 2651 2914 
Q 2772 3150 2772 3378 
Q 2772 3750 2511 3984 
Q 2250 4219 1831 4219 
Q 1534 4219 1204 4116 
Q 875 4013 500 3803 
L 500 4441 
Q 881 4594 1212 4672 
Q 1544 4750 1819 4750 
Q 2544 4750 2975 4387 
Q 3406 4025 3406 3419 
Q 3406 3131 3298 2873 
Q 3191 2616 2906 2266 
Q 2828 2175 2409 1742 
Q 1991 1309 1228 531 
z
" transform="scale(0.015625)"/>
        <path id="DejaVuSans-35" d="M 691 4666 
L 3169 4666 
L 3169 4134 
L 1269 4134 
L 1269 2991 
Q 1406 3038 1543 3061 
Q 1681 3084 1819 3084 
Q 2600 3084 3056 2656 
Q 3513 2228 3513 1497 
Q 3513 744 3044 326 
Q 2575 -91 1722 -91 
Q 1428 -91 1123 -41 
Q 819 9 494 109 
L 494 744 
Q 775 591 1075 516 
Q 1375 441 1709 441 
Q 2250 441 2565 725 
Q 2881 1009 2881 1497 
Q 2881 1984 2565 2268 
Q 2250 2553 1709 2553 
Q 1456 2553 1204 2497 
Q 953 2441 691 2322 
L 691 4666 
z
" transform="scale(0.015625)"/>
       </defs>
       <use xlink:href="#DejaVuSans-32"/>
       <use xlink:href="#DejaVuSans-35" x="63.623047"/>
      </g>
     </g>
    </g>
    <g id="xtick_3">
     <g id="line2d_5">
      <path d="M 429.328924 522.25225 
L 429.328924 44.184 
" clip-path="url(#p64abcbfe4d)" style="fill: none; stroke: #b0b0b0; stroke-width: 0.8; stroke-linecap: square"/>
     </g>
     <g id="line2d_6">
      <g>
       <use xlink:href="#mf11044cbb8" x="429.328924" y="522.25225" style="stroke: #000000; stroke-width: 0.8"/>
      </g>
     </g>
     <g id="text_3">
      <!-- 50 -->
      <g transform="translate(422.966424 536.850687)scale(0.1 -0.1)">
       <use xlink:href="#DejaVuSans-35"/>
       <use xlink:href="#DejaVuSans-30" x="63.623047"/>
      </g>
     </g>
    </g>
    <g id="xtick_4">
     <g id="line2d_7">
      <path d="M 564.195346 522.25225 
L 564.195346 44.184 
" clip-path="url(#p64abcbfe4d)" style="fill: none; stroke: #b0b0b0; stroke-width: 0.8; stroke-linecap: square"/>
     </g>
     <g id="line2d_8">
      <g>
       <use xlink:href="#mf11044cbb8" x="564.195346" y="522.25225" style="stroke: #000000; stroke-width: 0.8"/>
      </g>
     </g>
     <g id="text_4">
      <!-- 75 -->
      <g transform="translate(557.832846 536.850687)scale(0.1 -0.1)">
       <defs>
        <path id="DejaVuSans-37" d="M 525 4666 
L 3525 4666 
L 3525 4397 
L 1831 0 
L 1172 0 
L 2766 4134 
L 525 4134 
L 525 4666 
z
" transform="scale(0.015625)"/>
       </defs>
       <use xlink:href="#DejaVuSans-37"/>
       <use xlink:href="#DejaVuSans-35" x="63.623047"/>
      </g>
     </g>
    </g>
    <g id="xtick_5">
     <g id="line2d_9">
      <path d="M 699.061767 522.25225 
L 699.061767 44.184 
" clip-path="url(#p64abcbfe4d)" style="fill: none; stroke: #b0b0b0; stroke-width: 0.8; stroke-linecap: square"/>
     </g>
     <g id="line2d_10">
      <g>
       <use xlink:href="#mf11044cbb8" x="699.061767" y="522.25225" style="stroke: #000000; stroke-width: 0.8"/>
      </g>
     </g>
     <g id="text_5">
      <!-- 100 -->
      <g transform="translate(689.518017 536.850687)scale(0.1 -0.1)">
       <defs>
        <path id="DejaVuSans-31" d="M 794 531 
L 1825 531 
L 1825 4091 
L 703 3866 
L 703 4441 
L 1819 4666 
L 2450 4666 
L 2450 531 
L 3481 531 
L 3481 0 
L 794 0 
L 794 531 
z
" transform="scale(0.015625)"/>
       </defs>
       <use xlink:href="#DejaVuSans-31"/>
       <use xlink:href="#DejaVuSans-30" x="63.623047"/>
       <use xlink:href="#DejaVuSans-30" x="127.246094"/>
      </g>
     </g>
    </g>
    <g id="xtick_6">
     <g id="line2d_11">
      <path d="M 833.928189 522.25225 
L 833.928189 44.184 
" clip-path="url(#p64abcbfe4d)" style="fill: none; stroke: #b0b0b0; stroke-width: 0.8; stroke-linecap: square"/>
     </g>
     <g id="line2d_12">
      <g>
       <use xlink:href="#mf11044cbb8" x="833.928189" y="522.25225" style="stroke: #000000; stroke-width: 0.8"/>
      </g>
     </g>
     <g id="text_6">
      <!-- 125 -->
      <g transform="translate(824.384439 536.850687)scale(0.1 -0.1)">
       <use xlink:href="#DejaVuSans-31"/>
       <use xlink:href="#DejaVuSans-32" x="63.623047"/>
       <use xlink:href="#DejaVuSans-35" x="127.246094"/>
      </g>
     </g>
    </g>
    <g id="xtick_7">
     <g id="line2d_13">
      <path d="M 968.79461 522.25225 
L 968.79461 44.184 
" clip-path="url(#p64abcbfe4d)" style="fill: none; stroke: #b0b0b0; stroke-width: 0.8; stroke-linecap: square"/>
     </g>
     <g id="line2d_14">
      <g>
       <use xlink:href="#mf11044cbb8" x="968.79461" y="522.25225" style="stroke: #000000; stroke-width: 0.8"/>
      </g>
     </g>
     <g id="text_7">
      <!-- 150 -->
      <g transform="translate(959.25086 536.850687)scale(0.1 -0.1)">
       <use xlink:href="#DejaVuSans-31"/>
       <use xlink:href="#DejaVuSans-35" x="63.623047"/>
       <use xlink:href="#DejaVuSans-30" x="127.246094"/>
      </g>
     </g>
    </g>
    <g id="xtick_8">
     <g id="line2d_15">
      <path d="M 1103.661031 522.25225 
L 1103.661031 44.184 
" clip-path="url(#p64abcbfe4d)" style="fill: none; stroke: #b0b0b0; stroke-width: 0.8; stroke-linecap: square"/>
     </g>
     <g id="line2d_16">
      <g>
       <use xlink:href="#mf11044cbb8" x="1103.661031" y="522.25225" style="stroke: #000000; stroke-width: 0.8"/>
      </g>
     </g>
     <g id="text_8">
      <!-- 175 -->
      <g transform="translate(1094.117281 536.850687)scale(0.1 -0.1)">
       <use xlink:href="#DejaVuSans-31"/>
       <use xlink:href="#DejaVuSans-37" x="63.623047"/>
       <use xlink:href="#DejaVuSans-35" x="127.246094"/>
      </g>
     </g>
    </g>
    <g id="xtick_9">
     <g id="line2d_17">
      <path d="M 1238.527453 522.25225 
L 1238.527453 44.184 
" clip-path="url(#p64abcbfe4d)" style="fill: none; stroke: #b0b0b0; stroke-width: 0.8; stroke-linecap: square"/>
     </g>
     <g id="line2d_18">
      <g>
       <use xlink:href="#mf11044cbb8" x="1238.527453" y="522.25225" style="stroke: #000000; stroke-width: 0.8"/>
      </g>
     </g>
     <g id="text_9">
      <!-- 200 -->
      <g transform="translate(1228.983703 536.850687)scale(0.1 -0.1)">
       <use xlink:href="#DejaVuSans-32"/>
       <use xlink:href="#DejaVuSans-30" x="63.623047"/>
       <use xlink:href="#DejaVuSans-30" x="127.246094"/>
      </g>
     </g>
    </g>
   </g>
   <g id="matplotlib.axis_2">
    <g id="ytick_1">
     <g id="line2d_19">
      <path d="M 105.656281 500.521875 
L 1292.34375 500.521875 
" clip-path="url(#p64abcbfe4d)" style="fill: none; stroke: #b0b0b0; stroke-width: 0.8; stroke-linecap: square"/>
     </g>
     <g id="line2d_20">
      <defs>
       <path id="mfbc8372d2a" d="M 0 0 
L -3.5 0 
" style="stroke: #000000; stroke-width: 0.8"/>
      </defs>
      <g>
       <use xlink:href="#mfbc8372d2a" x="105.656281" y="500.521875" style="stroke: #000000; stroke-width: 0.8"/>
      </g>
     </g>
     <g id="text_10">
      <!-- 0 -->
      <g transform="translate(92.293781 504.321094)scale(0.1 -0.1)">
       <use xlink:href="#DejaVuSans-30"/>
      </g>
     </g>
    </g>
    <g id="ytick_2">
     <g id="line2d_21">
      <path d="M 105.656281 444.515754 
L 1292.34375 444.515754 
" clip-path="url(#p64abcbfe4d)" style="fill: none; stroke: #b0b0b0; stroke-width: 0.8; stroke-linecap: square"/>
     </g>
     <g id="line2d_22">
      <g>
       <use xlink:href="#mfbc8372d2a" x="105.656281" y="444.515754" style="stroke: #000000; stroke-width: 0.8"/>
      </g>
     </g>
     <g id="text_11">
      <!-- 25 -->
      <g transform="translate(85.931281 448.314973)scale(0.1 -0.1)">
       <use xlink:href="#DejaVuSans-32"/>
       <use xlink:href="#DejaVuSans-35" x="63.623047"/>
      </g>
     </g>
    </g>
    <g id="ytick_3">
     <g id="line2d_23">
      <path d="M 105.656281 388.509633 
L 1292.34375 388.509633 
" clip-path="url(#p64abcbfe4d)" style="fill: none; stroke: #b0b0b0; stroke-width: 0.8; stroke-linecap: square"/>
     </g>
     <g id="line2d_24">
      <g>
       <use xlink:href="#mfbc8372d2a" x="105.656281" y="388.509633" style="stroke: #000000; stroke-width: 0.8"/>
      </g>
     </g>
     <g id="text_12">
      <!-- 50 -->
      <g transform="translate(85.931281 392.308851)scale(0.1 -0.1)">
       <use xlink:href="#DejaVuSans-35"/>
       <use xlink:href="#DejaVuSans-30" x="63.623047"/>
      </g>
     </g>
    </g>
    <g id="ytick_4">
     <g id="line2d_25">
      <path d="M 105.656281 332.503512 
L 1292.34375 332.503512 
" clip-path="url(#p64abcbfe4d)" style="fill: none; stroke: #b0b0b0; stroke-width: 0.8; stroke-linecap: square"/>
     </g>
     <g id="line2d_26">
      <g>
       <use xlink:href="#mfbc8372d2a" x="105.656281" y="332.503512" style="stroke: #000000; stroke-width: 0.8"/>
      </g>
     </g>
     <g id="text_13">
      <!-- 75 -->
      <g transform="translate(85.931281 336.30273)scale(0.1 -0.1)">
       <use xlink:href="#DejaVuSans-37"/>
       <use xlink:href="#DejaVuSans-35" x="63.623047"/>
      </g>
     </g>
    </g>
    <g id="ytick_5">
     <g id="line2d_27">
      <path d="M 105.656281 276.49739 
L 1292.34375 276.49739 
" clip-path="url(#p64abcbfe4d)" style="fill: none; stroke: #b0b0b0; stroke-width: 0.8; stroke-linecap: square"/>
     </g>
     <g id="line2d_28">
      <g>
       <use xlink:href="#mfbc8372d2a" x="105.656281" y="276.49739" style="stroke: #000000; stroke-width: 0.8"/>
      </g>
     </g>
     <g id="text_14">
      <!-- 100 -->
      <g transform="translate(79.568781 280.296609)scale(0.1 -0.1)">
       <use xlink:href="#DejaVuSans-31"/>
       <use xlink:href="#DejaVuSans-30" x="63.623047"/>
       <use xlink:href="#DejaVuSans-30" x="127.246094"/>
      </g>
     </g>
    </g>
    <g id="ytick_6">
     <g id="line2d_29">
      <path d="M 105.656281 220.491269 
L 1292.34375 220.491269 
" clip-path="url(#p64abcbfe4d)" style="fill: none; stroke: #b0b0b0; stroke-width: 0.8; stroke-linecap: square"/>
     </g>
     <g id="line2d_30">
      <g>
       <use xlink:href="#mfbc8372d2a" x="105.656281" y="220.491269" style="stroke: #000000; stroke-width: 0.8"/>
      </g>
     </g>
     <g id="text_15">
      <!-- 125 -->
      <g transform="translate(79.568781 224.290488)scale(0.1 -0.1)">
       <use xlink:href="#DejaVuSans-31"/>
       <use xlink:href="#DejaVuSans-32" x="63.623047"/>
       <use xlink:href="#DejaVuSans-35" x="127.246094"/>
      </g>
     </g>
    </g>
    <g id="ytick_7">
     <g id="line2d_31">
      <path d="M 105.656281 164.485148 
L 1292.34375 164.485148 
" clip-path="url(#p64abcbfe4d)" style="fill: none; stroke: #b0b0b0; stroke-width: 0.8; stroke-linecap: square"/>
     </g>
     <g id="line2d_32">
      <g>
       <use xlink:href="#mfbc8372d2a" x="105.656281" y="164.485148" style="stroke: #000000; stroke-width: 0.8"/>
      </g>
     </g>
     <g id="text_16">
      <!-- 150 -->
      <g transform="translate(79.568781 168.284367)scale(0.1 -0.1)">
       <use xlink:href="#DejaVuSans-31"/>
       <use xlink:href="#DejaVuSans-35" x="63.623047"/>
       <use xlink:href="#DejaVuSans-30" x="127.246094"/>
      </g>
     </g>
    </g>
    <g id="ytick_8">
     <g id="line2d_33">
      <path d="M 105.656281 108.479027 
L 1292.34375 108.479027 
" clip-path="url(#p64abcbfe4d)" style="fill: none; stroke: #b0b0b0; stroke-width: 0.8; stroke-linecap: square"/>
     </g>
     <g id="line2d_34">
      <g>
       <use xlink:href="#mfbc8372d2a" x="105.656281" y="108.479027" style="stroke: #000000; stroke-width: 0.8"/>
      </g>
     </g>
     <g id="text_17">
      <!-- 175 -->
      <g transform="translate(79.568781 112.278246)scale(0.1 -0.1)">
       <use xlink:href="#DejaVuSans-31"/>
       <use xlink:href="#DejaVuSans-37" x="63.623047"/>
       <use xlink:href="#DejaVuSans-35" x="127.246094"/>
      </g>
     </g>
    </g>
    <g id="ytick_9">
     <g id="line2d_35">
      <path d="M 105.656281 52.472906 
L 1292.34375 52.472906 
" clip-path="url(#p64abcbfe4d)" style="fill: none; stroke: #b0b0b0; stroke-width: 0.8; stroke-linecap: square"/>
     </g>
     <g id="line2d_36">
      <g>
       <use xlink:href="#mfbc8372d2a" x="105.656281" y="52.472906" style="stroke: #000000; stroke-width: 0.8"/>
      </g>
     </g>
     <g id="text_18">
      <!-- 200 -->
      <g transform="translate(79.568781 56.272125)scale(0.1 -0.1)">
       <use xlink:href="#DejaVuSans-32"/>
       <use xlink:href="#DejaVuSans-30" x="63.623047"/>
       <use xlink:href="#DejaVuSans-30" x="127.246094"/>
      </g>
     </g>
    </g>
   </g>
   <g id="line2d_37">
    <path d="M 159.596621 498.28163 
L 159.596621 500.521875 
L 159.59716 498.28163 
L 159.59716 500.521875 
L 159.5977 498.28163 
L 159.5977 496.041385 
L 159.5977 498.28163 
L 159.5977 500.521875 
L 159.598239 498.28163 
L 159.598239 496.041385 
L 159.598239 498.28163 
L 159.598239 500.521875 
L 159.598779 498.28163 
L 159.598779 496.041385 
L 159.598779 493.80114 
L 159.598779 496.041385 
L 159.598779 498.28163 
L 159.598779 500.521875 
L 159.599318 498.28163 
L 159.599318 496.041385 
L 159.599318 493.80114 
L 159.599318 496.041385 
L 159.599318 498.28163 
L 159.599318 500.521875 
L 159.599858 498.28163 
L 159.599858 496.041385 
L 159.599858 493.80114 
L 159.599858 491.560896 
L 159.599858 493.80114 
L 159.599858 496.041385 
L 159.599858 498.28163 
L 159.599858 500.521875 
L 159.600397 498.28163 
L 159.600397 496.041385 
L 159.600397 493.80114 
L 159.600397 496.041385 
L 159.600397 498.28163 
L 159.600397 500.521875 
L 159.600936 498.28163 
L 159.600936 496.041385 
L 159.600936 493.80114 
L 159.600936 496.041385 
L 159.600936 498.28163 
L 159.600936 500.521875 
L 159.601476 498.28163 
L 159.601476 496.041385 
L 159.601476 498.28163 
L 159.601476 500.521875 
L 159.602015 498.28163 
L 159.602015 496.041385 
L 159.602015 498.28163 
L 159.602015 500.521875 
L 159.602555 498.28163 
L 159.602555 500.521875 
L 159.603094 498.28163 
L 159.603094 500.521875 
" clip-path="url(#p64abcbfe4d)" style="fill: none; stroke: #1f77b4; stroke-width: 1.5; stroke-linecap: square"/>
   </g>
   <g id="line2d_38">
    <path d="M 159.596621 498.28163 
L 159.596621 500.521875 
L 159.59716 498.28163 
L 159.59716 500.521875 
L 159.5977 498.28163 
L 159.5977 496.041385 
L 159.5977 498.28163 
L 159.5977 500.521875 
L 159.598239 498.28163 
L 159.598239 496.041385 
L 159.598239 498.28163 
L 159.598239 500.521875 
L 159.598779 498.28163 
L 159.598779 496.041385 
L 159.598779 493.80114 
L 159.598779 496.041385 
L 159.598779 498.28163 
L 159.598779 500.521875 
L 159.599318 498.28163 
L 159.599318 496.041385 
L 159.599318 493.80114 
L 159.599318 496.041385 
L 159.599318 498.28163 
L 159.599318 500.521875 
L 159.599858 498.28163 
L 159.599858 496.041385 
L 159.599858 493.80114 
L 159.599858 491.560896 
L 159.599858 493.80114 
L 159.599858 496.041385 
L 159.599858 498.28163 
L 159.599858 500.521875 
L 159.600397 498.28163 
L 159.600397 496.041385 
L 159.600397 493.80114 
L 159.600397 496.041385 
L 159.600397 498.28163 
L 159.600397 500.521875 
L 159.600936 498.28163 
L 159.600936 496.041385 
L 159.600936 493.80114 
L 159.600936 496.041385 
L 159.600936 498.28163 
L 159.600936 500.521875 
L 159.601476 498.28163 
L 159.601476 496.041385 
L 159.601476 498.28163 
L 159.601476 500.521875 
L 159.602015 498.28163 
L 159.602015 496.041385 
L 159.602015 498.28163 
L 159.602015 500.521875 
L 159.602555 498.28163 
L 159.602555 500.521875 
L 159.603094 498.28163 
L 159.603094 500.521875 
" clip-path="url(#p64abcbfe4d)" style="fill: none; stroke: #ff7f0e; stroke-width: 1.5; stroke-linecap: square"/>
   </g>
   <g id="line2d_39">
    <path d="M 159.596621 498.28163 
L 159.596621 500.521875 
L 159.599858 491.560896 
L 159.603094 500.521875 
L 170.123999 498.28163 
L 170.123999 500.521875 
L 174.652451 498.28163 
L 175.049958 496.041385 
L 175.518656 498.28163 
L 177.27028 496.041385 
L 180.913312 498.28163 
L 186.307969 500.521875 
L 186.913163 498.28163 
L 190.374964 496.041385 
L 191.702626 498.28163 
L 193.713876 496.041385 
L 197.097283 498.28163 
L 199.841876 496.041385 
L 202.49194 498.28163 
L 207.886597 500.521875 
L 215.456282 498.28163 
L 215.456282 500.521875 
L 218.555687 498.28163 
L 219.119759 496.041385 
L 219.454849 493.80114 
L 220.850939 496.041385 
L 231.640252 500.521875 
L 238.337301 498.28163 
L 238.337301 500.521875 
L 243.040988 498.28163 
L 243.731958 500.521875 
L 248.310835 498.28163 
L 249.126615 500.521875 
L 256.438615 498.28163 
L 256.438615 500.521875 
L 262.479629 498.28163 
L 262.479629 500.521875 
L 265.890868 498.28163 
L 267.874286 500.521875 
L 270.899691 498.28163 
L 272.69293 496.041385 
L 273.268943 498.28163 
L 273.383753 496.041385 
L 275.278227 493.80114 
L 275.960051 491.560896 
L 278.024591 489.320651 
L 278.6636 491.560896 
L 280.910109 489.320651 
L 284.058257 491.560896 
L 285.403014 489.320651 
L 287.066806 487.080406 
L 289.452914 489.320651 
L 300.242227 493.80114 
L 300.47567 491.560896 
L 302.318777 489.320651 
L 303.410388 487.080406 
L 303.519967 484.840161 
L 304.492366 482.599916 
L 305.636884 484.840161 
L 311.031541 487.080406 
L 314.017933 484.840161 
L 316.426198 487.080406 
L 318.854733 484.840161 
L 321.820855 487.080406 
L 332.610169 491.560896 
L 335.320745 489.320651 
L 338.004825 491.560896 
L 340.016987 489.320651 
L 343.399482 491.560896 
L 346.986394 489.320651 
L 348.400103 487.080406 
L 348.794139 489.320651 
L 351.374695 487.080406 
L 351.479243 484.840161 
L 354.188796 487.080406 
L 354.905539 484.840161 
L 356.753746 482.599916 
L 359.583453 484.840161 
L 359.774544 482.599916 
L 360.559866 480.359671 
L 362.470783 478.119427 
L 364.97811 480.359671 
L 366.800276 478.119427 
L 369.846156 475.879182 
L 370.372767 478.119427 
L 391.951394 487.080406 
L 392.16822 484.840161 
L 397.32533 482.599916 
L 397.346051 484.840161 
L 401.866989 482.599916 
L 402.740708 484.840161 
L 408.135365 487.080406 
L 408.406427 482.599916 
L 413.530021 484.840161 
L 418.853596 482.599916 
L 418.924678 484.840161 
L 421.090289 482.599916 
L 424.319335 484.840161 
L 424.717982 482.599916 
L 424.818838 480.359671 
L 429.713992 482.599916 
L 433.333833 480.359671 
L 435.108649 482.599916 
L 440.503306 484.840161 
L 441.592142 482.599916 
L 445.730274 480.359671 
L 445.897963 482.599916 
L 451.292619 484.840161 
L 453.227105 482.599916 
L 454.515094 480.359671 
L 455.626567 478.119427 
L 456.687276 480.359671 
L 462.081933 482.599916 
L 462.884254 480.359671 
L 463.206752 478.119427 
L 466.281154 475.879182 
L 467.47659 478.119427 
L 472.71082 475.879182 
L 472.871247 478.119427 
L 473.086383 475.879182 
L 478.265904 478.119427 
L 479.223013 475.879182 
L 483.660561 478.119427 
L 484.261948 475.879182 
L 487.546392 473.638937 
L 487.658964 471.398692 
L 489.055217 473.638937 
L 489.06347 471.398692 
L 491.144123 469.158447 
L 494.449874 471.398692 
L 499.844531 473.638937 
L 503.809935 471.398692 
L 504.917715 469.158447 
L 505.239188 471.398692 
L 516.028502 475.879182 
L 521.388599 473.638937 
L 521.423159 475.879182 
L 522.288831 473.638937 
L 525.271204 471.398692 
L 526.817815 473.638937 
L 528.631154 471.398692 
L 532.212472 473.638937 
L 536.047081 471.398692 
L 537.607129 473.638937 
L 539.402757 471.398692 
L 540.375275 469.158447 
L 542.745986 466.918202 
L 543.001786 469.158447 
L 548.396443 471.398692 
L 550.195808 469.158447 
L 550.447672 466.918202 
L 553.7911 469.158447 
L 564.580414 473.638937 
L 568.080089 471.398692 
L 569.97507 473.638937 
L 572.765703 471.398692 
L 575.369727 473.638937 
L 586.159041 478.119427 
L 590.346463 475.879182 
L 591.553698 478.119427 
L 596.948355 480.359671 
L 601.533695 478.119427 
L 602.343012 480.359671 
L 618.526982 487.080406 
L 623.155208 484.840161 
L 623.921639 487.080406 
L 640.10561 493.80114 
L 640.633696 491.560896 
L 642.593263 489.320651 
L 643.450653 487.080406 
L 645.500266 489.320651 
L 650.894923 491.560896 
L 655.018877 489.320651 
L 655.566618 487.080406 
L 656.28958 489.320651 
L 657.266799 487.080406 
L 661.684237 489.320651 
L 662.102187 487.080406 
L 665.249558 484.840161 
L 667.078894 487.080406 
L 667.827762 484.840161 
L 668.3151 482.599916 
L 672.473551 484.840161 
L 674.135541 482.599916 
L 677.868208 484.840161 
L 682.240542 482.599916 
L 683.262864 484.840161 
L 685.881671 482.599916 
L 688.657521 484.840161 
L 689.828107 482.599916 
L 694.052178 484.840161 
L 694.476508 482.599916 
L 697.512756 480.359671 
L 699.446835 482.599916 
L 701.65722 480.359671 
L 704.347494 478.119427 
L 704.841492 480.359671 
L 705.095122 478.119427 
L 708.388467 475.879182 
L 708.855736 473.638937 
L 710.236149 475.879182 
L 712.16592 473.638937 
L 715.630806 475.879182 
L 721.025462 478.119427 
L 723.476554 475.879182 
L 723.624594 473.638937 
L 726.420119 475.879182 
L 729.077347 473.638937 
L 731.065726 471.398692 
L 731.814776 473.638937 
L 734.842124 471.398692 
L 737.209433 473.638937 
L 738.13857 471.398692 
L 742.60409 473.638937 
L 742.764138 471.398692 
L 743.68953 469.158447 
L 747.998747 471.398692 
L 753.393404 473.638937 
L 756.610703 471.398692 
L 758.78806 473.638937 
L 763.628274 471.398692 
L 764.182717 473.638937 
L 764.31649 471.398692 
L 769.065039 466.918202 
L 769.577374 469.158447 
L 771.832104 466.918202 
L 772.39818 464.677957 
L 774.972031 466.918202 
L 777.466471 464.677957 
L 777.777165 462.437713 
L 778.265422 460.197468 
L 779.694655 457.957223 
L 780.366688 460.197468 
L 784.836424 457.957223 
L 785.761345 460.197468 
L 789.07964 457.957223 
L 789.144965 455.716978 
L 789.806971 453.476733 
L 791.156002 455.716978 
L 795.005223 453.476733 
L 795.964807 451.236488 
L 796.550658 453.476733 
L 799.6005 451.236488 
L 801.945315 453.476733 
L 805.11232 451.236488 
L 807.135651 448.996244 
L 807.339972 451.236488 
L 812.734629 453.476733 
L 815.867772 451.236488 
L 818.129286 453.476733 
L 828.9186 457.957223 
L 829.978257 455.716978 
L 832.711855 453.476733 
L 834.313256 455.716978 
L 835.023506 453.476733 
L 839.707913 455.716978 
L 844.12547 453.476733 
L 845.10257 455.716978 
L 855.891884 460.197468 
L 856.39134 457.957223 
L 858.782977 455.716978 
L 859.107349 453.476733 
L 861.286541 455.716978 
L 872.075854 460.197468 
L 872.516476 457.957223 
L 876.298376 455.716978 
L 877.470511 457.957223 
L 877.762863 455.716978 
L 882.135195 453.476733 
L 882.865168 455.716978 
L 888.259825 457.957223 
L 893.030161 455.716978 
L 893.654482 457.957223 
L 899.049139 460.197468 
L 899.669467 457.957223 
L 902.870281 455.716978 
L 904.443796 457.957223 
L 907.869179 455.716978 
L 909.602699 453.476733 
L 909.838452 455.716978 
L 910.469783 453.476733 
L 915.233109 455.716978 
L 915.309076 453.476733 
L 916.618604 451.236488 
L 920.627766 453.476733 
L 921.297347 451.236488 
L 923.017385 448.996244 
L 925.788543 446.755999 
L 926.022423 448.996244 
L 931.41708 451.236488 
L 932.440633 448.996244 
L 936.811737 451.236488 
L 937.741037 448.996244 
L 942.206394 451.236488 
L 952.995707 455.716978 
L 956.163385 453.476733 
L 958.390364 455.716978 
L 958.418846 453.476733 
L 962.706912 451.236488 
L 963.572669 448.996244 
L 963.785021 451.236488 
L 969.179678 453.476733 
L 974.038563 451.236488 
L 974.574335 453.476733 
L 979.290113 451.236488 
L 979.968992 453.476733 
L 985.363648 455.716978 
L 985.700741 453.476733 
L 985.715344 451.236488 
L 987.104926 448.996244 
L 990.758305 451.236488 
L 992.053293 448.996244 
L 996.152962 451.236488 
L 1006.942276 455.716978 
L 1009.805214 453.476733 
L 1012.336933 455.716978 
L 1012.411119 453.476733 
L 1012.925146 451.236488 
L 1014.319445 448.996244 
L 1017.168601 446.755999 
L 1017.73159 448.996244 
L 1028.520903 453.476733 
L 1028.943593 451.236488 
L 1033.91556 453.476733 
L 1034.187464 451.236488 
L 1044.704874 455.716978 
L 1048.040579 453.476733 
L 1050.099531 455.716978 
L 1055.494188 457.957223 
L 1060.8164 455.716978 
L 1060.888844 457.957223 
L 1066.115238 455.716978 
L 1066.283501 457.957223 
L 1066.455228 455.716978 
L 1069.927902 453.476733 
L 1071.04839 451.236488 
L 1071.678158 453.476733 
L 1077.071625 451.236488 
L 1077.072815 453.476733 
L 1079.156628 451.236488 
L 1082.467472 453.476733 
L 1084.805871 451.236488 
L 1087.862129 453.476733 
L 1090.958609 451.236488 
L 1093.256786 453.476733 
L 1093.74335 451.236488 
L 1095.212591 448.996244 
L 1098.651442 451.236488 
L 1099.110783 448.996244 
L 1101.585588 446.755999 
L 1104.046099 448.996244 
L 1106.422901 446.755999 
L 1109.440756 448.996244 
L 1112.195629 446.755999 
L 1114.835413 448.996244 
L 1114.976291 446.755999 
L 1117.315951 444.515754 
L 1120.23007 446.755999 
L 1131.019384 451.236488 
L 1132.2848 448.996244 
L 1132.934631 446.755999 
L 1136.41404 448.996244 
L 1139.398247 446.755999 
L 1139.747193 444.515754 
L 1140.543616 442.275509 
L 1141.808697 444.515754 
L 1142.17256 442.275509 
L 1147.203354 444.515754 
L 1152.598011 446.755999 
L 1153.223963 444.515754 
L 1157.992668 446.755999 
L 1163.387325 448.996244 
L 1168.039049 446.755999 
L 1168.781982 448.996244 
L 1173.807723 446.755999 
L 1174.176639 448.996244 
L 1178.501506 446.755999 
L 1179.571295 448.996244 
L 1184.965952 451.236488 
L 1189.091882 448.996244 
L 1190.360609 451.236488 
L 1192.658181 448.996244 
L 1194.105153 446.755999 
L 1195.755266 448.996244 
L 1200.108671 446.755999 
L 1201.149923 448.996244 
L 1205.607958 446.755999 
L 1206.54458 448.996244 
L 1210.904351 446.755999 
L 1211.939237 448.996244 
L 1215.057492 446.755999 
L 1216.838304 444.515754 
L 1217.002345 442.275509 
L 1217.333893 444.515754 
L 1221.450627 442.275509 
L 1221.931215 440.035264 
L 1222.72855 442.275509 
L 1227.84187 440.035264 
L 1228.001685 437.795019 
L 1228.008204 435.554774 
L 1228.123207 437.795019 
L 1232.138024 435.554774 
L 1233.517864 437.795019 
L 1233.517864 437.795019 
" clip-path="url(#p64abcbfe4d)" style="fill: none; stroke: #2ca02c; stroke-width: 1.5; stroke-linecap: square"/>
   </g>
   <g id="line2d_40">
    <path d="M 159.596621 498.28163 
L 159.596621 500.521875 
L 159.599858 491.560896 
L 159.603094 500.521875 
L 169.732448 498.28163 
L 169.732448 500.521875 
L 173.25992 498.28163 
L 175.127104 500.521875 
L 175.951163 496.041385 
L 180.521761 498.28163 
L 180.913852 496.041385 
L 181.586489 493.80114 
L 185.916418 496.041385 
L 186.308509 493.80114 
L 191.311075 496.041385 
L 191.703166 493.80114 
L 192.596402 491.560896 
L 196.705732 493.80114 
L 197.097822 491.560896 
L 200.777593 489.320651 
L 202.100389 491.560896 
L 202.492479 489.320651 
L 207.495046 491.560896 
L 207.887136 489.320651 
L 208.445368 487.080406 
L 209.320039 484.840161 
L 212.889702 487.080406 
L 213.281793 484.840161 
L 214.428761 482.599916 
L 216.83218 480.359671 
L 218.284359 482.599916 
L 220.851478 480.359671 
L 223.679016 482.599916 
L 226.246135 480.359671 
L 229.073673 482.599916 
L 229.593426 478.119427 
L 231.640792 475.879182 
L 232.707892 473.638937 
L 233.288547 471.398692 
L 234.46833 473.638937 
L 237.035449 471.398692 
L 238.995157 469.158447 
L 239.862987 471.398692 
L 240.570832 469.158447 
L 243.732498 466.918202 
L 243.958361 464.677957 
L 244.892324 462.437713 
L 245.257644 464.677957 
L 245.523258 462.437713 
L 249.127154 460.197468 
L 250.6523 462.437713 
L 251.285141 460.197468 
L 254.521811 457.957223 
L 256.046957 460.197468 
L 257.145192 457.957223 
L 257.69024 455.716978 
L 261.441614 457.957223 
L 261.833812 455.716978 
L 266.836271 457.957223 
L 267.874826 455.716978 
L 272.230928 457.957223 
L 273.269483 455.716978 
L 276.968523 453.476733 
L 277.625585 455.716978 
L 278.664139 453.476733 
L 283.020242 455.716978 
L 284.058796 453.476733 
L 288.414898 455.716978 
L 288.428054 453.476733 
L 289.453453 448.996244 
L 293.809555 451.236488 
L 294.84811 448.996244 
L 299.204212 451.236488 
L 300.242767 448.996244 
L 302.664309 446.755999 
L 304.598869 448.996244 
L 305.40048 446.755999 
L 305.42587 444.515754 
L 305.637424 442.275509 
L 306.280068 440.035264 
L 309.993526 442.275509 
L 310.828212 440.035264 
L 311.032081 437.795019 
L 313.89186 435.554774 
L 315.388183 437.795019 
L 316.426737 435.554774 
L 316.612622 433.31453 
L 320.78284 435.554774 
L 321.821394 433.31453 
L 322.107936 431.074285 
L 325.325198 428.83404 
L 326.177496 431.074285 
L 327.216051 428.83404 
L 331.572153 431.074285 
L 332.610708 428.83404 
L 336.96681 431.074285 
L 338.005365 428.83404 
L 342.361467 431.074285 
L 343.400022 428.83404 
L 346.0569 426.593795 
L 347.756124 428.83404 
L 348.794679 426.593795 
L 353.150781 428.83404 
L 354.189335 426.593795 
L 358.545438 428.83404 
L 359.583992 426.593795 
L 362.917729 424.35355 
L 363.940094 426.593795 
L 364.978649 424.35355 
L 367.525197 422.113305 
L 368.8743 419.873061 
L 369.334751 422.113305 
L 369.695872 419.873061 
L 370.373306 417.632816 
L 372.784106 415.392571 
L 374.729408 417.632816 
L 375.767963 415.392571 
L 379.349508 413.152326 
L 379.919252 410.912081 
L 380.124065 413.152326 
L 380.485054 410.912081 
L 381.16262 408.671836 
L 385.518722 410.912081 
L 386.557277 408.671836 
L 387.242442 406.431591 
L 387.448965 404.191347 
L 388.405575 401.951102 
L 390.913379 404.191347 
L 391.951934 401.951102 
L 392.235339 399.710857 
L 393.220072 397.470612 
L 396.308036 399.710857 
L 397.34659 397.470612 
L 401.702693 399.710857 
L 402.741247 397.470612 
L 403.383222 395.230367 
L 406.643208 392.990122 
L 407.097349 395.230367 
L 409.097302 390.749878 
L 410.512478 388.509633 
L 410.576045 386.269388 
L 412.492006 388.509633 
L 413.530561 386.269388 
L 417.886663 388.509633 
L 419.402184 381.788898 
L 423.28132 384.029143 
L 423.373358 381.788898 
L 423.674758 379.548653 
L 424.319875 377.308409 
L 424.74198 375.068164 
L 425.753581 372.827919 
L 428.675977 375.068164 
L 429.714532 372.827919 
L 434.070634 375.068164 
L 435.109188 372.827919 
L 436.953056 370.587674 
L 439.465291 372.827919 
L 440.503845 370.587674 
L 443.431882 368.347429 
L 444.859947 370.587674 
L 445.898502 368.347429 
L 448.240564 366.107184 
L 450.254604 368.347429 
L 450.257553 366.107184 
L 451.293159 363.866939 
L 454.616328 361.626695 
L 455.649261 363.866939 
L 455.948049 361.626695 
L 456.687816 359.38645 
L 459.585367 357.146205 
L 460.977257 354.90596 
L 461.043918 357.146205 
L 462.082473 354.90596 
L 463.041587 350.42547 
L 463.354868 348.185226 
L 466.438575 350.42547 
L 467.47713 345.944981 
L 469.52382 343.704736 
L 470.591788 341.464491 
L 470.726591 339.224246 
L 471.833232 341.464491 
L 472.871786 339.224246 
L 477.227889 341.464491 
L 478.266443 339.224246 
L 481.129433 336.984001 
L 482.622545 339.224246 
L 483.6611 336.984001 
L 488.017202 339.224246 
L 489.055757 336.984001 
L 493.411859 339.224246 
L 494.450414 336.984001 
L 498.806516 339.224246 
L 499.845071 336.984001 
L 504.201173 339.224246 
L 506.158766 334.743756 
L 509.444353 332.503512 
L 509.59583 334.743756 
L 510.634384 332.503512 
L 513.00754 330.263267 
L 514.990487 332.503512 
L 516.029041 330.263267 
L 520.08807 328.023022 
L 520.228319 325.782777 
L 520.385143 328.023022 
L 521.423698 325.782777 
L 525.7798 328.023022 
L 526.818355 325.782777 
L 526.93577 323.542532 
L 528.049001 321.302287 
L 531.174457 323.542532 
L 532.213012 321.302287 
L 536.569114 323.542532 
L 536.939806 321.302287 
L 537.607669 319.062043 
L 541.963771 321.302287 
L 543.002326 319.062043 
L 546.840422 316.821798 
L 547.358428 319.062043 
L 548.163182 316.821798 
L 548.396982 314.581553 
L 552.497205 312.341308 
L 552.753085 314.581553 
L 553.763093 312.341308 
L 553.791639 310.101063 
L 555.587321 307.860818 
L 556.157467 305.620573 
L 556.207546 303.380329 
L 558.147741 305.620573 
L 559.186296 303.380329 
L 562.187036 301.140084 
L 563.542398 303.380329 
L 564.580953 301.140084 
L 568.745269 298.899839 
L 568.937055 301.140084 
L 569.97561 298.899839 
L 574.331712 301.140084 
L 575.370267 298.899839 
L 577.101656 296.659594 
L 579.726369 298.899839 
L 580.764924 296.659594 
L 585.121026 298.899839 
L 586.15958 296.659594 
L 590.515683 298.899839 
L 591.554237 296.659594 
L 593.189605 294.419349 
L 595.910339 296.659594 
L 596.948894 294.419349 
L 601.304996 296.659594 
L 602.343551 294.419349 
L 603.23139 292.179104 
L 606.699653 294.419349 
L 606.742218 292.179104 
L 607.738208 289.93886 
L 610.453437 287.698615 
L 612.09431 289.93886 
L 612.933854 287.698615 
L 613.132865 285.45837 
L 617.488967 287.698615 
L 618.527522 285.45837 
L 622.248448 283.218125 
L 622.883624 285.45837 
L 623.922178 283.218125 
L 624.519563 280.97788 
L 628.278281 283.218125 
L 629.316835 280.97788 
L 633.672937 283.218125 
L 634.711492 280.97788 
L 637.30699 278.737635 
L 639.067594 280.97788 
L 640.106149 278.737635 
L 644.462251 280.97788 
L 645.500806 278.737635 
L 649.856908 280.97788 
L 650.895463 278.737635 
L 651.368551 276.49739 
L 655.251565 278.737635 
L 656.29012 274.257146 
L 657.361584 272.016901 
L 657.668899 269.776656 
L 660.646222 272.016901 
L 661.684776 267.536411 
L 664.469478 265.296166 
L 666.040879 267.536411 
L 666.268075 265.296166 
L 667.079433 263.055921 
L 667.346227 260.815677 
L 671.187266 258.575432 
L 671.435535 260.815677 
L 672.47409 258.575432 
L 676.830192 260.815677 
L 677.868747 258.575432 
L 681.324465 256.335187 
L 681.570667 254.094942 
L 682.224849 256.335187 
L 683.263404 254.094942 
L 687.619506 256.335187 
L 688.658061 254.094942 
L 690.247529 251.854697 
L 693.014163 254.094942 
L 694.052718 251.854697 
L 698.40882 254.094942 
L 699.447374 251.854697 
L 703.803477 254.094942 
L 704.842031 251.854697 
L 707.536373 249.614452 
L 709.198133 251.854697 
L 710.236688 249.614452 
L 714.59279 251.854697 
L 715.631345 249.614452 
L 719.067029 247.374207 
L 719.987447 249.614452 
L 721.026002 247.374207 
L 722.524862 245.133963 
L 725.382104 247.374207 
L 726.420659 245.133963 
L 729.320194 242.893718 
L 730.776761 245.133963 
L 731.815316 242.893718 
L 736.171418 245.133963 
L 737.209972 242.893718 
L 741.566075 245.133963 
L 742.604629 242.893718 
L 746.573682 240.653473 
L 746.960731 242.893718 
L 747.999286 240.653473 
L 752.355388 242.893718 
L 753.393943 240.653473 
L 755.691919 238.413228 
L 757.306693 236.172983 
L 757.750045 238.413228 
L 758.7886 236.172983 
L 763.144702 238.413228 
L 764.183257 236.172983 
L 767.506528 233.932738 
L 768.539359 236.172983 
L 769.577914 233.932738 
L 770.188802 231.692494 
L 773.934016 233.932738 
L 774.97257 231.692494 
L 779.328673 233.932738 
L 780.367227 231.692494 
L 784.480263 229.452249 
L 784.723329 231.692494 
L 785.761884 229.452249 
L 787.501316 227.212004 
L 790.117986 229.452249 
L 791.156541 227.212004 
L 795.455318 224.971759 
L 795.512643 227.212004 
L 796.551198 224.971759 
L 800.9073 227.212004 
L 801.945855 224.971759 
L 805.06285 222.731514 
L 805.427173 220.491269 
L 806.301957 222.731514 
L 807.340512 220.491269 
L 811.696614 222.731514 
L 813.675274 218.251024 
L 815.198977 216.01078 
L 817.091271 218.251024 
L 818.129825 216.01078 
L 821.11256 213.770535 
L 822.485927 216.01078 
L 822.937821 213.770535 
L 823.524482 211.53029 
L 827.880584 213.770535 
L 828.919139 211.53029 
L 832.265828 209.290045 
L 833.275241 211.53029 
L 834.313796 209.290045 
L 835.481971 207.0498 
L 837.086199 204.809555 
L 838.669898 207.0498 
L 839.708453 204.809555 
L 844.064555 207.0498 
L 845.10311 204.809555 
L 849.459212 207.0498 
L 850.497766 204.809555 
L 854.853869 207.0498 
L 855.892423 204.809555 
L 859.921867 202.569311 
L 860.248525 204.809555 
L 861.28708 202.569311 
L 865.643182 204.809555 
L 866.681737 202.569311 
L 866.999457 200.329066 
L 867.768212 198.088821 
L 870.297204 195.848576 
L 871.037839 198.088821 
L 872.076394 195.848576 
L 876.432496 198.088821 
L 876.446009 195.848576 
L 877.471051 193.608331 
L 881.827153 195.848576 
L 882.865708 193.608331 
L 883.679714 191.368086 
L 887.22181 193.608331 
L 887.635213 191.368086 
L 888.260364 189.127841 
L 888.504522 186.887597 
L 889.267289 184.647352 
L 892.616467 186.887597 
L 893.655021 184.647352 
L 898.011123 186.887597 
L 899.049678 184.647352 
L 903.40578 186.887597 
L 904.444335 184.647352 
L 908.800437 186.887597 
L 909.838992 184.647352 
L 914.195094 186.887597 
L 915.233649 184.647352 
L 917.239283 182.407107 
L 919.589751 184.647352 
L 921.57193 180.166862 
L 924.850721 177.926617 
L 924.984408 180.166862 
L 924.990054 177.926617 
L 926.022962 175.686372 
L 930.379065 177.926617 
L 931.417619 175.686372 
L 935.773721 177.926617 
L 936.802447 175.686372 
L 936.812276 173.446128 
L 941.168378 175.686372 
L 942.206933 173.446128 
L 946.563035 175.686372 
L 947.60159 173.446128 
L 950.715877 171.205883 
L 951.957692 173.446128 
L 952.996247 171.205883 
L 954.789986 168.965638 
L 957.352349 171.205883 
L 958.390904 168.965638 
L 962.747006 171.205883 
L 963.78556 168.965638 
L 966.839706 166.725393 
L 966.882407 164.485148 
L 968.141663 166.725393 
L 970.208715 162.244903 
L 973.536319 164.485148 
L 974.574874 162.244903 
L 978.930976 164.485148 
L 979.969531 162.244903 
L 983.97845 160.004659 
L 984.325633 162.244903 
L 985.364188 160.004659 
L 986.635002 157.764414 
L 989.72029 160.004659 
L 989.908007 157.764414 
L 990.758845 155.524169 
L 995.114947 157.764414 
L 996.153502 155.524169 
L 999.589653 153.283924 
L 1000.509604 155.524169 
L 1001.548159 153.283924 
L 1002.723995 151.043679 
L 1005.904261 153.283924 
L 1006.942815 151.043679 
L 1008.365864 148.803434 
L 1011.298918 151.043679 
L 1012.337472 148.803434 
L 1016.693574 151.043679 
L 1017.732129 148.803434 
L 1022.088231 151.043679 
L 1023.126786 148.803434 
L 1027.482888 151.043679 
L 1028.521443 148.803434 
L 1032.877545 151.043679 
L 1033.863144 148.803434 
L 1033.9161 146.563189 
L 1038.068468 144.322945 
L 1038.272202 146.563189 
L 1039.310757 144.322945 
L 1039.894242 142.0827 
L 1040.131214 139.842455 
L 1043.666859 142.0827 
L 1044.705413 139.842455 
L 1049.061516 142.0827 
L 1050.10007 139.842455 
L 1053.742028 137.60221 
L 1054.456172 139.842455 
L 1055.20865 137.60221 
L 1055.494727 135.361965 
L 1059.850829 137.60221 
L 1060.889384 135.361965 
L 1065.245486 137.60221 
L 1066.284041 135.361965 
L 1068.072832 133.12172 
L 1070.640143 135.361965 
L 1071.678698 133.12172 
L 1075.337424 130.881476 
L 1076.0348 133.12172 
L 1077.073355 130.881476 
L 1077.295939 128.641231 
L 1081.429457 130.881476 
L 1082.468011 128.641231 
L 1086.824114 130.881476 
L 1087.862668 128.641231 
L 1092.21877 130.881476 
L 1093.257325 128.641231 
L 1097.613427 130.881476 
L 1098.651982 128.641231 
L 1103.008084 130.881476 
L 1104.046639 128.641231 
L 1108.402741 130.881476 
L 1109.441296 128.641231 
L 1110.720748 126.400986 
L 1113.797398 128.641231 
L 1114.835953 126.400986 
L 1116.527505 124.160741 
L 1119.192055 126.400986 
L 1120.230609 124.160741 
L 1123.421888 121.920496 
L 1124.586712 124.160741 
L 1125.625266 119.680251 
L 1129.574261 117.440006 
L 1129.981368 119.680251 
L 1131.019923 117.440006 
L 1135.376025 119.680251 
L 1136.41458 117.440006 
L 1140.770682 119.680251 
L 1141.809237 117.440006 
L 1146.165339 119.680251 
L 1146.540444 117.440006 
L 1147.203894 115.199762 
L 1147.21366 112.959517 
L 1147.824191 110.719272 
L 1151.559996 112.959517 
L 1152.547962 110.719272 
L 1152.598551 108.479027 
L 1156.954653 110.719272 
L 1157.993207 108.479027 
L 1162.34931 110.719272 
L 1163.387864 108.479027 
L 1167.743966 110.719272 
L 1167.796089 108.479027 
L 1168.782521 106.238782 
L 1168.926617 103.998537 
L 1173.138623 106.238782 
L 1174.177178 103.998537 
L 1178.53328 106.238782 
L 1179.571835 103.998537 
L 1181.281769 101.758293 
L 1183.927937 103.998537 
L 1184.806925 101.758293 
L 1184.966492 99.518048 
L 1189.322594 101.758293 
L 1190.361149 99.518048 
L 1194.717251 101.758293 
L 1195.755805 99.518048 
L 1200.111908 101.758293 
L 1201.150462 99.518048 
L 1203.251993 97.277803 
L 1205.506564 99.518048 
L 1205.785367 97.277803 
L 1206.545119 95.037558 
L 1210.901221 97.277803 
L 1211.939776 95.037558 
L 1216.295878 97.277803 
L 1217.334433 95.037558 
L 1219.020111 92.797313 
L 1219.647464 90.557068 
L 1221.690535 92.797313 
L 1223.730434 88.316823 
L 1227.085192 90.557068 
L 1228.123747 88.316823 
L 1232.479849 90.557068 
L 1233.518403 88.316823 
L 1235.603085 86.076579 
L 1237.874506 88.316823 
L 1237.874506 88.316823 
" clip-path="url(#p64abcbfe4d)" style="fill: none; stroke: #d62728; stroke-width: 1.5; stroke-linecap: square"/>
   </g>
   <g id="line2d_41">
    <path d="M 159.596621 498.28163 
L 159.596621 500.521875 
L 159.599858 491.560896 
L 159.603094 500.521875 
L 164.866696 498.28163 
L 164.866696 500.521875 
L 167.475563 498.28163 
L 170.261353 500.521875 
L 175.127644 498.28163 
L 175.656009 500.521875 
L 175.939219 498.28163 
L 176.431002 496.041385 
L 176.541191 493.80114 
L 179.018677 491.560896 
L 180.522301 489.320651 
L 181.050666 491.560896 
L 185.916958 489.320651 
L 186.445323 491.560896 
L 187.141866 489.320651 
L 191.311614 487.080406 
L 191.83998 489.320651 
L 195.801583 487.080406 
L 196.706271 484.840161 
L 197.234637 487.080406 
L 202.100928 484.840161 
L 202.629294 487.080406 
L 202.680999 484.840161 
L 204.338671 482.599916 
L 207.495585 480.359671 
L 208.023951 482.599916 
L 212.367295 480.359671 
L 212.890242 478.119427 
L 213.418607 480.359671 
L 218.284899 478.119427 
L 218.813264 480.359671 
L 223.679556 478.119427 
L 224.207921 480.359671 
L 224.930983 478.119427 
L 225.942083 475.879182 
L 226.6867 473.638937 
L 229.074213 471.398692 
L 229.602578 473.638937 
L 234.180109 471.398692 
L 234.468869 469.158447 
L 234.997235 471.398692 
L 239.618027 469.158447 
L 239.863526 466.918202 
L 240.391892 469.158447 
L 242.504517 466.918202 
L 244.016515 464.677957 
L 245.258183 462.437713 
L 245.786549 464.677957 
L 246.241818 462.437713 
L 248.300181 460.197468 
L 249.102432 457.957223 
L 250.283218 455.716978 
L 250.65284 453.476733 
L 251.181205 455.716978 
L 252.764836 453.476733 
L 252.838551 451.236488 
L 253.389588 448.996244 
L 256.047497 446.755999 
L 256.575862 448.996244 
L 258.649928 446.755999 
L 261.442154 444.515754 
L 261.970519 446.755999 
L 266.836811 444.515754 
L 267.365176 446.755999 
L 272.231467 444.515754 
L 272.759833 446.755999 
L 277.626124 444.515754 
L 278.15449 446.755999 
L 278.874667 444.515754 
L 279.232318 442.275509 
L 280.550748 440.035264 
L 283.020781 437.795019 
L 283.549147 440.035264 
L 286.912071 437.795019 
L 288.415438 435.554774 
L 288.943803 437.795019 
L 290.908211 435.554774 
L 291.376308 433.31453 
L 293.810095 431.074285 
L 294.33846 433.31453 
L 299.204752 431.074285 
L 299.733117 433.31453 
L 304.599409 431.074285 
L 305.127774 433.31453 
L 305.668135 431.074285 
L 309.994065 428.83404 
L 310.522431 431.074285 
L 311.778307 428.83404 
L 315.388722 426.593795 
L 315.917088 428.83404 
L 319.3903 426.593795 
L 320.783379 424.35355 
L 321.311745 426.593795 
L 325.538094 424.35355 
L 326.178036 422.113305 
L 326.706401 424.35355 
L 331.572693 422.113305 
L 332.023758 419.873061 
L 332.101058 422.113305 
L 334.748161 419.873061 
L 336.298642 417.632816 
L 336.96735 415.392571 
L 337.495715 417.632816 
L 342.362007 415.392571 
L 342.890372 417.632816 
L 347.756663 415.392571 
L 347.81532 413.152326 
L 348.285029 415.392571 
L 353.15132 413.152326 
L 353.386905 410.912081 
L 353.679686 413.152326 
L 355.323194 410.912081 
L 357.932243 408.671836 
L 358.545977 406.431591 
L 359.074343 408.671836 
L 363.940634 406.431591 
L 364.468999 408.671836 
L 369.3012 406.431591 
L 369.335291 404.191347 
L 369.853184 401.951102 
L 369.863656 404.191347 
L 374.729948 401.951102 
L 375.258313 404.191347 
L 380.124605 401.951102 
L 380.65297 404.191347 
L 381.855835 401.951102 
L 385.519261 399.710857 
L 386.047627 401.951102 
L 390.913918 399.710857 
L 391.442284 401.951102 
L 396.308575 399.710857 
L 396.836941 401.951102 
L 401.703232 399.710857 
L 402.231597 401.951102 
L 407.097889 399.710857 
L 407.626254 401.951102 
L 412.492546 399.710857 
L 413.020911 401.951102 
L 417.887203 399.710857 
L 418.352796 397.470612 
L 418.415568 399.710857 
L 423.281859 397.470612 
L 423.810225 399.710857 
L 425.831362 397.470612 
L 428.116847 395.230367 
L 428.676516 392.990122 
L 429.204882 395.230367 
L 433.172388 392.990122 
L 433.346942 390.749878 
L 434.071173 388.509633 
L 434.31775 386.269388 
L 434.599539 388.509633 
L 439.46583 386.269388 
L 439.558563 384.029143 
L 439.994195 386.269388 
L 444.860487 384.029143 
L 445.388852 386.269388 
L 450.255144 384.029143 
L 450.783509 386.269388 
L 454.239303 384.029143 
L 455.596591 381.788898 
L 455.649801 379.548653 
L 456.178166 381.788898 
L 460.144173 379.548653 
L 461.044457 377.308409 
L 461.572823 379.548653 
L 466.30022 377.308409 
L 466.439114 375.068164 
L 466.96748 377.308409 
L 471.833771 375.068164 
L 472.362137 377.308409 
L 477.228428 375.068164 
L 477.756793 377.308409 
L 482.623085 375.068164 
L 483.15145 377.308409 
L 486.512352 375.068164 
L 488.017742 372.827919 
L 488.160985 370.587674 
L 488.546107 372.827919 
L 493.412399 370.587674 
L 493.940764 372.827919 
L 498.807055 370.587674 
L 499.335421 372.827919 
L 499.670827 370.587674 
L 501.687152 368.347429 
L 503.411148 366.107184 
L 504.201712 363.866939 
L 504.730078 366.107184 
L 509.596369 363.866939 
L 510.124735 366.107184 
L 512.041085 363.866939 
L 513.447149 361.626695 
L 514.991026 359.38645 
L 515.519391 361.626695 
L 520.385683 359.38645 
L 520.914048 361.626695 
L 524.898639 359.38645 
L 525.78034 357.146205 
L 526.308705 359.38645 
L 530.504797 357.146205 
L 531.174997 354.90596 
L 531.703362 357.146205 
L 534.434933 354.90596 
L 536.569653 352.665715 
L 537.098019 354.90596 
L 541.011016 352.665715 
L 541.177853 350.42547 
L 541.96431 348.185226 
L 542.492676 350.42547 
L 547.358967 348.185226 
L 547.887333 350.42547 
L 548.591962 348.185226 
L 552.753624 345.944981 
L 553.281989 348.185226 
L 555.689314 345.944981 
L 556.040575 343.704736 
L 558.148281 341.464491 
L 558.676646 343.704736 
L 560.416403 341.464491 
L 563.542938 339.224246 
L 564.071303 341.464491 
L 568.937595 339.224246 
L 569.46596 341.464491 
L 574.332251 339.224246 
L 574.860617 341.464491 
L 579.726908 339.224246 
L 580.255274 341.464491 
L 582.836441 339.224246 
L 585.121565 336.984001 
L 585.649931 339.224246 
L 590.516222 336.984001 
L 591.044588 339.224246 
L 591.49734 336.984001 
L 595.216603 334.743756 
L 595.910879 332.503512 
L 596.439244 334.743756 
L 601.305536 332.503512 
L 601.833901 334.743756 
L 603.223582 332.503512 
L 606.700193 330.263267 
L 607.228558 332.503512 
L 612.094849 330.263267 
L 612.623215 332.503512 
L 617.489506 330.263267 
L 618.017872 332.503512 
L 622.884163 330.263267 
L 623.412529 332.503512 
L 628.27882 328.023022 
L 628.750132 325.782777 
L 628.807186 328.023022 
L 633.337383 323.542532 
L 633.673477 321.302287 
L 633.79366 319.062043 
L 634.201842 321.302287 
L 635.731928 319.062043 
L 639.068134 316.821798 
L 639.596499 319.062043 
L 643.784166 316.821798 
L 644.231179 314.581553 
L 644.7376 310.101063 
L 644.991156 312.341308 
L 649.857447 310.101063 
L 650.385813 312.341308 
L 650.841001 310.101063 
L 653.784637 307.860818 
L 655.252104 305.620573 
L 655.78047 307.860818 
L 660.646761 305.620573 
L 661.175127 307.860818 
L 664.412421 305.620573 
L 666.041418 303.380329 
L 666.569784 305.620573 
L 671.436075 303.380329 
L 671.96444 305.620573 
L 674.742338 303.380329 
L 676.830732 301.140084 
L 677.359097 303.380329 
L 680.912157 301.140084 
L 682.225389 298.899839 
L 682.753754 301.140084 
L 684.23483 298.899839 
L 684.666828 296.659594 
L 687.620045 294.419349 
L 688.086674 292.179104 
L 688.148411 294.419349 
L 693.014702 292.179104 
L 693.543068 294.419349 
L 698.409359 292.179104 
L 698.937725 294.419349 
L 699.647962 292.179104 
L 701.402147 289.93886 
L 703.004173 285.45837 
L 703.804016 283.218125 
L 704.332382 285.45837 
L 709.198673 283.218125 
L 709.727038 285.45837 
L 714.59333 283.218125 
L 715.121695 285.45837 
L 719.904713 283.218125 
L 719.987987 280.97788 
L 720.516352 283.218125 
L 724.587113 280.97788 
L 725.382643 278.737635 
L 725.911009 280.97788 
L 730.7773 278.737635 
L 731.305666 280.97788 
L 731.678508 278.737635 
L 736.171957 276.49739 
L 736.501339 274.257146 
L 736.700323 276.49739 
L 741.566614 274.257146 
L 741.745004 272.016901 
L 742.09498 274.257146 
L 746.961271 272.016901 
L 747.489636 274.257146 
L 751.018794 272.016901 
L 752.355928 269.776656 
L 752.884293 272.016901 
L 753.760463 269.776656 
L 754.109852 267.536411 
L 757.750585 265.296166 
L 758.27895 267.536411 
L 763.145241 265.296166 
L 763.673607 267.536411 
L 768.539898 265.296166 
L 769.002366 263.055921 
L 769.068264 265.296166 
L 773.934555 263.055921 
L 774.462921 265.296166 
L 779.07225 263.055921 
L 779.329212 260.815677 
L 779.857578 263.055921 
L 780.532716 260.815677 
L 784.518936 258.575432 
L 784.723869 256.335187 
L 785.252234 258.575432 
L 790.118526 256.335187 
L 790.179776 254.094942 
L 790.646891 256.335187 
L 791.693387 254.094942 
L 795.513183 251.854697 
L 796.041548 254.094942 
L 800.907839 251.854697 
L 801.436205 254.094942 
L 806.302496 251.854697 
L 806.830862 254.094942 
L 811.697153 251.854697 
L 812.225519 254.094942 
L 816.726106 251.854697 
L 817.09181 249.614452 
L 817.620176 251.854697 
L 820.655453 249.614452 
L 822.486467 247.374207 
L 823.014832 249.614452 
L 823.667434 247.374207 
L 827.881124 245.133963 
L 828.409489 247.374207 
L 830.897763 245.133963 
L 831.151847 242.893718 
L 833.275781 240.653473 
L 833.804146 242.893718 
L 838.391583 240.653473 
L 838.670438 238.413228 
L 839.198803 240.653473 
L 840.985756 238.413228 
L 844.065094 236.172983 
L 844.59346 238.413228 
L 847.42962 236.172983 
L 848.125738 233.932738 
L 849.459751 231.692494 
L 849.617214 229.452249 
L 849.988117 231.692494 
L 851.015035 229.452249 
L 854.854408 227.212004 
L 855.382774 229.452249 
L 860.249065 227.212004 
L 860.77743 229.452249 
L 865.643722 227.212004 
L 866.172087 229.452249 
L 867.279755 227.212004 
L 869.850394 224.971759 
L 871.038379 222.731514 
L 871.566744 224.971759 
L 876.433036 222.731514 
L 876.961401 224.971759 
L 877.302892 222.731514 
L 881.068025 220.491269 
L 881.827692 218.251024 
L 882.356058 220.491269 
L 885.357976 218.251024 
L 887.222349 216.01078 
L 887.750715 218.251024 
L 892.617006 216.01078 
L 893.145372 218.251024 
L 898.011663 216.01078 
L 898.540028 218.251024 
L 900.554248 216.01078 
L 901.31352 213.770535 
L 903.40632 211.53029 
L 903.877815 209.290045 
L 903.934685 211.53029 
L 908.800977 209.290045 
L 909.329342 211.53029 
L 914.195634 209.290045 
L 914.723999 211.53029 
L 919.59029 209.290045 
L 920.118656 211.53029 
L 921.277288 209.290045 
L 922.987272 207.0498 
L 924.984947 204.809555 
L 925.513313 207.0498 
L 930.379604 204.809555 
L 930.90797 207.0498 
L 935.774261 204.809555 
L 936.302626 207.0498 
L 941.168918 204.809555 
L 941.697283 207.0498 
L 941.917466 204.809555 
L 946.563575 202.569311 
L 947.09194 204.809555 
L 951.958232 202.569311 
L 952.486597 204.809555 
L 953.787488 202.569311 
L 957.352888 200.329066 
L 957.881254 202.569311 
L 960.475233 200.329066 
L 962.747545 198.088821 
L 963.275911 200.329066 
L 968.142202 198.088821 
L 968.670568 200.329066 
L 971.879035 198.088821 
L 973.536859 195.848576 
L 974.065224 198.088821 
L 974.688459 195.848576 
L 974.734572 193.608331 
L 976.49976 191.368086 
L 977.163101 189.127841 
L 978.931516 186.887597 
L 979.459881 189.127841 
L 981.806361 186.887597 
L 984.326173 184.647352 
L 984.854538 186.887597 
L 987.819305 184.647352 
L 989.72083 182.407107 
L 990.249195 184.647352 
L 995.115486 182.407107 
L 995.643852 184.647352 
L 1000.510143 182.407107 
L 1001.038509 184.647352 
L 1005.9048 182.407107 
L 1006.433166 184.647352 
L 1007.124094 182.407107 
L 1011.299457 180.166862 
L 1011.342092 177.926617 
L 1011.827822 180.166862 
L 1016.694114 177.926617 
L 1017.222479 180.166862 
L 1020.207419 177.926617 
L 1022.088771 175.686372 
L 1022.617136 177.926617 
L 1025.410564 175.686372 
L 1027.483428 173.446128 
L 1028.011793 175.686372 
L 1029.65445 173.446128 
L 1032.878084 171.205883 
L 1033.40645 173.446128 
L 1033.423176 171.205883 
L 1037.637314 168.965638 
L 1038.272741 166.725393 
L 1038.801107 168.965638 
L 1043.667398 166.725393 
L 1044.195764 168.965638 
L 1047.193157 166.725393 
L 1049.062055 164.485148 
L 1049.117519 162.244903 
L 1049.59042 164.485148 
L 1054.456712 162.244903 
L 1054.985077 164.485148 
L 1059.851369 162.244903 
L 1060.379734 164.485148 
L 1061.276013 160.004659 
L 1065.246026 157.764414 
L 1065.774391 160.004659 
L 1067.707805 157.764414 
L 1068.807157 155.524169 
L 1070.640682 153.283924 
L 1071.169048 155.524169 
L 1071.884841 153.283924 
L 1076.035339 151.043679 
L 1076.563705 153.283924 
L 1078.660506 151.043679 
L 1078.677253 148.803434 
L 1081.103303 146.563189 
L 1081.131372 144.322945 
L 1081.429996 142.0827 
L 1081.958362 144.322945 
L 1086.824653 142.0827 
L 1087.353018 144.322945 
L 1092.21931 142.0827 
L 1092.747675 144.322945 
L 1097.613967 142.0827 
L 1098.142332 144.322945 
L 1102.109276 142.0827 
L 1103.008624 139.842455 
L 1103.536989 142.0827 
L 1105.158634 139.842455 
L 1105.931274 137.60221 
L 1106.480535 135.361965 
L 1108.40328 133.12172 
L 1108.749893 130.881476 
L 1108.931646 133.12172 
L 1113.573287 130.881476 
L 1113.797937 128.641231 
L 1114.326303 130.881476 
L 1116.304407 128.641231 
L 1119.192594 126.400986 
L 1119.511348 124.160741 
L 1119.72096 126.400986 
L 1124.587251 124.160741 
L 1125.115616 126.400986 
L 1125.525672 124.160741 
L 1129.981908 121.920496 
L 1130.510273 124.160741 
L 1135.376565 121.920496 
L 1135.90493 124.160741 
L 1137.423052 121.920496 
L 1139.627944 119.680251 
L 1139.746234 117.440006 
L 1140.771222 115.199762 
L 1141.240243 112.959517 
L 1141.299587 115.199762 
L 1145.222237 112.959517 
L 1146.165878 110.719272 
L 1146.694244 112.959517 
L 1148.285796 110.719272 
L 1151.560535 108.479027 
L 1152.088901 110.719272 
L 1153.091647 108.479027 
L 1153.382618 106.238782 
L 1156.955192 103.998537 
L 1157.483558 106.238782 
L 1158.274834 103.998537 
L 1162.349849 101.758293 
L 1162.878214 103.998537 
L 1167.744506 101.758293 
L 1168.272871 103.998537 
L 1173.139163 101.758293 
L 1173.667528 103.998537 
L 1178.53382 101.758293 
L 1179.062185 103.998537 
L 1180.392572 101.758293 
L 1183.823846 99.518048 
L 1183.928476 97.277803 
L 1184.456842 99.518048 
L 1187.654432 97.277803 
L 1188.222567 95.037558 
L 1188.440824 92.797313 
L 1189.11401 90.557068 
L 1189.323133 88.316823 
L 1189.851499 90.557068 
L 1190.821027 88.316823 
L 1193.610965 86.076579 
L 1194.71779 83.836334 
L 1195.246156 86.076579 
L 1196.365005 83.836334 
L 1200.112447 81.596089 
L 1200.640813 83.836334 
L 1205.507104 81.596089 
L 1206.035469 83.836334 
L 1206.847906 81.596089 
L 1210.901761 79.355844 
L 1211.430126 81.596089 
L 1212.858172 79.355844 
L 1215.659368 77.115599 
L 1216.296418 74.875354 
L 1216.824783 77.115599 
L 1217.748166 74.875354 
L 1221.691074 72.63511 
L 1222.21944 74.875354 
L 1224.958494 72.63511 
L 1225.546683 70.394865 
L 1227.085731 68.15462 
L 1227.614097 70.394865 
L 1232.480388 68.15462 
L 1233.008754 70.394865 
L 1236.436681 68.15462 
L 1237.875045 65.914375 
L 1238.403411 68.15462 
L 1238.403411 68.15462 
" clip-path="url(#p64abcbfe4d)" style="fill: none; stroke: #9467bd; stroke-width: 1.5; stroke-linecap: square"/>
   </g>
   <g id="line2d_42">
    <path d="M 159.596621 498.28163 
L 159.596621 500.521875 
L 159.59716 498.28163 
L 159.59716 500.521875 
L 159.5977 498.28163 
L 159.5977 496.041385 
L 159.5977 498.28163 
L 159.5977 500.521875 
L 159.598239 498.28163 
L 159.598239 496.041385 
L 159.598239 498.28163 
L 159.598239 500.521875 
L 159.598779 498.28163 
L 159.598779 496.041385 
L 159.598779 493.80114 
L 159.598779 496.041385 
L 159.598779 498.28163 
L 159.598779 500.521875 
L 159.599318 498.28163 
L 159.599318 496.041385 
L 159.599318 493.80114 
L 159.599318 496.041385 
L 159.599318 498.28163 
L 159.599318 500.521875 
L 159.599858 498.28163 
L 159.599858 496.041385 
L 159.599858 493.80114 
L 159.599858 491.560896 
L 159.599858 493.80114 
L 159.599858 496.041385 
L 159.599858 498.28163 
L 159.599858 500.521875 
L 159.600397 498.28163 
L 159.600397 496.041385 
L 159.600397 493.80114 
L 159.600397 496.041385 
L 159.600397 498.28163 
L 159.600397 500.521875 
L 159.600936 498.28163 
L 159.600936 496.041385 
L 159.600936 493.80114 
L 159.600936 496.041385 
L 159.600936 498.28163 
L 159.600936 500.521875 
L 159.601476 498.28163 
L 159.601476 496.041385 
L 159.601476 498.28163 
L 159.601476 500.521875 
L 159.602015 498.28163 
L 159.602015 496.041385 
L 159.602015 498.28163 
L 159.602015 500.521875 
L 159.602555 498.28163 
L 159.602555 500.521875 
L 159.603094 498.28163 
L 159.603094 500.521875 
" clip-path="url(#p64abcbfe4d)" style="fill: none; stroke: #8c564b; stroke-width: 1.5; stroke-linecap: square"/>
   </g>
   <g id="line2d_43">
    <path d="M 159.596621 498.28163 
L 159.596621 500.521875 
L 159.59716 498.28163 
L 159.59716 500.521875 
L 159.5977 498.28163 
L 159.5977 496.041385 
L 159.5977 498.28163 
L 159.5977 500.521875 
L 159.598239 498.28163 
L 159.598239 496.041385 
L 159.598239 498.28163 
L 159.598239 500.521875 
L 159.598779 498.28163 
L 159.598779 496.041385 
L 159.598779 493.80114 
L 159.598779 496.041385 
L 159.598779 498.28163 
L 159.598779 500.521875 
L 159.599318 498.28163 
L 159.599318 496.041385 
L 159.599318 493.80114 
L 159.599318 496.041385 
L 159.599318 498.28163 
L 159.599318 500.521875 
L 159.599858 498.28163 
L 159.599858 496.041385 
L 159.599858 493.80114 
L 159.599858 491.560896 
L 159.599858 493.80114 
L 159.599858 496.041385 
L 159.599858 498.28163 
L 159.599858 500.521875 
L 159.600397 498.28163 
L 159.600397 496.041385 
L 159.600397 493.80114 
L 159.600397 496.041385 
L 159.600397 498.28163 
L 159.600397 500.521875 
L 159.600936 498.28163 
L 159.600936 496.041385 
L 159.600936 493.80114 
L 159.600936 496.041385 
L 159.600936 498.28163 
L 159.600936 500.521875 
L 159.601476 498.28163 
L 159.601476 496.041385 
L 159.601476 498.28163 
L 159.601476 500.521875 
L 159.602015 498.28163 
L 159.602015 496.041385 
L 159.602015 498.28163 
L 159.602015 500.521875 
L 159.602555 498.28163 
L 159.602555 500.521875 
L 159.603094 498.28163 
L 159.603094 500.521875 
" clip-path="url(#p64abcbfe4d)" style="fill: none; stroke: #e377c2; stroke-width: 1.5; stroke-linecap: square"/>
   </g>
   <g id="patch_3">
    <path d="M 105.656281 522.25225 
L 105.656281 44.184 
" style="fill: none; stroke: #000000; stroke-width: 0.8; stroke-linejoin: miter; stroke-linecap: square"/>
   </g>
   <g id="patch_4">
    <path d="M 1292.34375 522.25225 
L 1292.34375 44.184 
" style="fill: none; stroke: #000000; stroke-width: 0.8; stroke-linejoin: miter; stroke-linecap: square"/>
   </g>
   <g id="patch_5">
    <path d="M 105.656281 522.25225 
L 1292.34375 522.25225 
" style="fill: none; stroke: #000000; stroke-width: 0.8; stroke-linejoin: miter; stroke-linecap: square"/>
   </g>
   <g id="patch_6">
    <path d="M 105.656281 44.184 
L 1292.34375 44.184 
" style="fill: none; stroke: #000000; stroke-width: 0.8; stroke-linejoin: miter; stroke-linecap: square"/>
   </g>
   <g id="text_19">
    <!-- Buffer Size -->
    <g transform="translate(666.474391 38.184)scale(0.12 -0.12)">
     <defs>
      <path id="DejaVuSans-42" d="M 1259 2228 
L 1259 519 
L 2272 519 
Q 2781 519 3026 730 
Q 3272 941 3272 1375 
Q 3272 1813 3026 2020 
Q 2781 2228 2272 2228 
L 1259 2228 
z
M 1259 4147 
L 1259 2741 
L 2194 2741 
Q 2656 2741 2882 2914 
Q 3109 3088 3109 3444 
Q 3109 3797 2882 3972 
Q 2656 4147 2194 4147 
L 1259 4147 
z
M 628 4666 
L 2241 4666 
Q 2963 4666 3353 4366 
Q 3744 4066 3744 3513 
Q 3744 3084 3544 2831 
Q 3344 2578 2956 2516 
Q 3422 2416 3680 2098 
Q 3938 1781 3938 1306 
Q 3938 681 3513 340 
Q 3088 0 2303 0 
L 628 0 
L 628 4666 
z
" transform="scale(0.015625)"/>
      <path id="DejaVuSans-75" d="M 544 1381 
L 544 3500 
L 1119 3500 
L 1119 1403 
Q 1119 906 1312 657 
Q 1506 409 1894 409 
Q 2359 409 2629 706 
Q 2900 1003 2900 1516 
L 2900 3500 
L 3475 3500 
L 3475 0 
L 2900 0 
L 2900 538 
Q 2691 219 2414 64 
Q 2138 -91 1772 -91 
Q 1169 -91 856 284 
Q 544 659 544 1381 
z
M 1991 3584 
L 1991 3584 
z
" transform="scale(0.015625)"/>
      <path id="DejaVuSans-66" d="M 2375 4863 
L 2375 4384 
L 1825 4384 
Q 1516 4384 1395 4259 
Q 1275 4134 1275 3809 
L 1275 3500 
L 2222 3500 
L 2222 3053 
L 1275 3053 
L 1275 0 
L 697 0 
L 697 3053 
L 147 3053 
L 147 3500 
L 697 3500 
L 697 3744 
Q 697 4328 969 4595 
Q 1241 4863 1831 4863 
L 2375 4863 
z
" transform="scale(0.015625)"/>
      <path id="DejaVuSans-65" d="M 3597 1894 
L 3597 1613 
L 953 1613 
Q 991 1019 1311 708 
Q 1631 397 2203 397 
Q 2534 397 2845 478 
Q 3156 559 3463 722 
L 3463 178 
Q 3153 47 2828 -22 
Q 2503 -91 2169 -91 
Q 1331 -91 842 396 
Q 353 884 353 1716 
Q 353 2575 817 3079 
Q 1281 3584 2069 3584 
Q 2775 3584 3186 3129 
Q 3597 2675 3597 1894 
z
M 3022 2063 
Q 3016 2534 2758 2815 
Q 2500 3097 2075 3097 
Q 1594 3097 1305 2825 
Q 1016 2553 972 2059 
L 3022 2063 
z
" transform="scale(0.015625)"/>
      <path id="DejaVuSans-72" d="M 2631 2963 
Q 2534 3019 2420 3045 
Q 2306 3072 2169 3072 
Q 1681 3072 1420 2755 
Q 1159 2438 1159 1844 
L 1159 0 
L 581 0 
L 581 3500 
L 1159 3500 
L 1159 2956 
Q 1341 3275 1631 3429 
Q 1922 3584 2338 3584 
Q 2397 3584 2469 3576 
Q 2541 3569 2628 3553 
L 2631 2963 
z
" transform="scale(0.015625)"/>
      <path id="DejaVuSans-20" transform="scale(0.015625)"/>
      <path id="DejaVuSans-53" d="M 3425 4513 
L 3425 3897 
Q 3066 4069 2747 4153 
Q 2428 4238 2131 4238 
Q 1616 4238 1336 4038 
Q 1056 3838 1056 3469 
Q 1056 3159 1242 3001 
Q 1428 2844 1947 2747 
L 2328 2669 
Q 3034 2534 3370 2195 
Q 3706 1856 3706 1288 
Q 3706 609 3251 259 
Q 2797 -91 1919 -91 
Q 1588 -91 1214 -16 
Q 841 59 441 206 
L 441 856 
Q 825 641 1194 531 
Q 1563 422 1919 422 
Q 2459 422 2753 634 
Q 3047 847 3047 1241 
Q 3047 1584 2836 1778 
Q 2625 1972 2144 2069 
L 1759 2144 
Q 1053 2284 737 2584 
Q 422 2884 422 3419 
Q 422 4038 858 4394 
Q 1294 4750 2059 4750 
Q 2388 4750 2728 4690 
Q 3069 4631 3425 4513 
z
" transform="scale(0.015625)"/>
      <path id="DejaVuSans-69" d="M 603 3500 
L 1178 3500 
L 1178 0 
L 603 0 
L 603 3500 
z
M 603 4863 
L 1178 4863 
L 1178 4134 
L 603 4134 
L 603 4863 
z
" transform="scale(0.015625)"/>
      <path id="DejaVuSans-7a" d="M 353 3500 
L 3084 3500 
L 3084 2975 
L 922 459 
L 3084 459 
L 3084 0 
L 275 0 
L 275 525 
L 2438 3041 
L 353 3041 
L 353 3500 
z
" transform="scale(0.015625)"/>
     </defs>
     <use xlink:href="#DejaVuSans-42"/>
     <use xlink:href="#DejaVuSans-75" x="68.603516"/>
     <use xlink:href="#DejaVuSans-66" x="131.982422"/>
     <use xlink:href="#DejaVuSans-66" x="167.1875"/>
     <use xlink:href="#DejaVuSans-65" x="202.392578"/>
     <use xlink:href="#DejaVuSans-72" x="263.916016"/>
     <use xlink:href="#DejaVuSans-20" x="305.029297"/>
     <use xlink:href="#DejaVuSans-53" x="336.816406"/>
     <use xlink:href="#DejaVuSans-69" x="400.292969"/>
     <use xlink:href="#DejaVuSans-7a" x="428.076172"/>
     <use xlink:href="#DejaVuSans-65" x="480.566406"/>
    </g>
   </g>
   <g id="legend_1">
    <g id="patch_7">
     <path d="M 1135.039062 154.930875 
L 1287.34375 154.930875 
L 1287.34375 49.184 
L 1135.039062 49.184 
z
" style="fill: #ffffff; opacity: 0.8; stroke: #cccccc; stroke-linejoin: miter"/>
    </g>
    <g id="line2d_44">
     <path d="M 1139.039062 57.282438 
L 1149.039062 57.282438 
L 1159.039062 57.282438 
" style="fill: none; stroke: #1f77b4; stroke-width: 1.5; stroke-linecap: square"/>
    </g>
    <g id="text_20">
     <!-- Network.node[0].lnk[1] -->
     <g transform="translate(1167.039062 60.782438)scale(0.1 -0.1)">
      <defs>
       <path id="DejaVuSans-4e" d="M 628 4666 
L 1478 4666 
L 3547 763 
L 3547 4666 
L 4159 4666 
L 4159 0 
L 3309 0 
L 1241 3903 
L 1241 0 
L 628 0 
L 628 4666 
z
" transform="scale(0.015625)"/>
       <path id="DejaVuSans-74" d="M 1172 4494 
L 1172 3500 
L 2356 3500 
L 2356 3053 
L 1172 3053 
L 1172 1153 
Q 1172 725 1289 603 
Q 1406 481 1766 481 
L 2356 481 
L 2356 0 
L 1766 0 
Q 1100 0 847 248 
Q 594 497 594 1153 
L 594 3053 
L 172 3053 
L 172 3500 
L 594 3500 
L 594 4494 
L 1172 4494 
z
" transform="scale(0.015625)"/>
       <path id="DejaVuSans-77" d="M 269 3500 
L 844 3500 
L 1563 769 
L 2278 3500 
L 2956 3500 
L 3675 769 
L 4391 3500 
L 4966 3500 
L 4050 0 
L 3372 0 
L 2619 2869 
L 1863 0 
L 1184 0 
L 269 3500 
z
" transform="scale(0.015625)"/>
       <path id="DejaVuSans-6f" d="M 1959 3097 
Q 1497 3097 1228 2736 
Q 959 2375 959 1747 
Q 959 1119 1226 758 
Q 1494 397 1959 397 
Q 2419 397 2687 759 
Q 2956 1122 2956 1747 
Q 2956 2369 2687 2733 
Q 2419 3097 1959 3097 
z
M 1959 3584 
Q 2709 3584 3137 3096 
Q 3566 2609 3566 1747 
Q 3566 888 3137 398 
Q 2709 -91 1959 -91 
Q 1206 -91 779 398 
Q 353 888 353 1747 
Q 353 2609 779 3096 
Q 1206 3584 1959 3584 
z
" transform="scale(0.015625)"/>
       <path id="DejaVuSans-6b" d="M 581 4863 
L 1159 4863 
L 1159 1991 
L 2875 3500 
L 3609 3500 
L 1753 1863 
L 3688 0 
L 2938 0 
L 1159 1709 
L 1159 0 
L 581 0 
L 581 4863 
z
" transform="scale(0.015625)"/>
       <path id="DejaVuSans-2e" d="M 684 794 
L 1344 794 
L 1344 0 
L 684 0 
L 684 794 
z
" transform="scale(0.015625)"/>
       <path id="DejaVuSans-6e" d="M 3513 2113 
L 3513 0 
L 2938 0 
L 2938 2094 
Q 2938 2591 2744 2837 
Q 2550 3084 2163 3084 
Q 1697 3084 1428 2787 
Q 1159 2491 1159 1978 
L 1159 0 
L 581 0 
L 581 3500 
L 1159 3500 
L 1159 2956 
Q 1366 3272 1645 3428 
Q 1925 3584 2291 3584 
Q 2894 3584 3203 3211 
Q 3513 2838 3513 2113 
z
" transform="scale(0.015625)"/>
       <path id="DejaVuSans-64" d="M 2906 2969 
L 2906 4863 
L 3481 4863 
L 3481 0 
L 2906 0 
L 2906 525 
Q 2725 213 2448 61 
Q 2172 -91 1784 -91 
Q 1150 -91 751 415 
Q 353 922 353 1747 
Q 353 2572 751 3078 
Q 1150 3584 1784 3584 
Q 2172 3584 2448 3432 
Q 2725 3281 2906 2969 
z
M 947 1747 
Q 947 1113 1208 752 
Q 1469 391 1925 391 
Q 2381 391 2643 752 
Q 2906 1113 2906 1747 
Q 2906 2381 2643 2742 
Q 2381 3103 1925 3103 
Q 1469 3103 1208 2742 
Q 947 2381 947 1747 
z
" transform="scale(0.015625)"/>
       <path id="DejaVuSans-5b" d="M 550 4863 
L 1875 4863 
L 1875 4416 
L 1125 4416 
L 1125 -397 
L 1875 -397 
L 1875 -844 
L 550 -844 
L 550 4863 
z
" transform="scale(0.015625)"/>
       <path id="DejaVuSans-5d" d="M 1947 4863 
L 1947 -844 
L 622 -844 
L 622 -397 
L 1369 -397 
L 1369 4416 
L 622 4416 
L 622 4863 
L 1947 4863 
z
" transform="scale(0.015625)"/>
       <path id="DejaVuSans-6c" d="M 603 4863 
L 1178 4863 
L 1178 0 
L 603 0 
L 603 4863 
z
" transform="scale(0.015625)"/>
      </defs>
      <use xlink:href="#DejaVuSans-4e"/>
      <use xlink:href="#DejaVuSans-65" x="74.804688"/>
      <use xlink:href="#DejaVuSans-74" x="136.328125"/>
      <use xlink:href="#DejaVuSans-77" x="175.537109"/>
      <use xlink:href="#DejaVuSans-6f" x="257.324219"/>
      <use xlink:href="#DejaVuSans-72" x="318.505859"/>
      <use xlink:href="#DejaVuSans-6b" x="359.619141"/>
      <use xlink:href="#DejaVuSans-2e" x="417.529297"/>
      <use xlink:href="#DejaVuSans-6e" x="449.316406"/>
      <use xlink:href="#DejaVuSans-6f" x="512.695312"/>
      <use xlink:href="#DejaVuSans-64" x="573.876953"/>
      <use xlink:href="#DejaVuSans-65" x="637.353516"/>
      <use xlink:href="#DejaVuSans-5b" x="698.876953"/>
      <use xlink:href="#DejaVuSans-30" x="737.890625"/>
      <use xlink:href="#DejaVuSans-5d" x="801.513672"/>
      <use xlink:href="#DejaVuSans-2e" x="840.527344"/>
      <use xlink:href="#DejaVuSans-6c" x="872.314453"/>
      <use xlink:href="#DejaVuSans-6e" x="900.097656"/>
      <use xlink:href="#DejaVuSans-6b" x="963.476562"/>
      <use xlink:href="#DejaVuSans-5b" x="1021.386719"/>
      <use xlink:href="#DejaVuSans-31" x="1060.400391"/>
      <use xlink:href="#DejaVuSans-5d" x="1124.023438"/>
     </g>
    </g>
    <g id="line2d_45">
     <path d="M 1139.039062 71.960563 
L 1149.039062 71.960563 
L 1159.039062 71.960563 
" style="fill: none; stroke: #ff7f0e; stroke-width: 1.5; stroke-linecap: square"/>
    </g>
    <g id="text_21">
     <!-- Network.node[1].lnk[1] -->
     <g transform="translate(1167.039062 75.460563)scale(0.1 -0.1)">
      <use xlink:href="#DejaVuSans-4e"/>
      <use xlink:href="#DejaVuSans-65" x="74.804688"/>
      <use xlink:href="#DejaVuSans-74" x="136.328125"/>
      <use xlink:href="#DejaVuSans-77" x="175.537109"/>
      <use xlink:href="#DejaVuSans-6f" x="257.324219"/>
      <use xlink:href="#DejaVuSans-72" x="318.505859"/>
      <use xlink:href="#DejaVuSans-6b" x="359.619141"/>
      <use xlink:href="#DejaVuSans-2e" x="417.529297"/>
      <use xlink:href="#DejaVuSans-6e" x="449.316406"/>
      <use xlink:href="#DejaVuSans-6f" x="512.695312"/>
      <use xlink:href="#DejaVuSans-64" x="573.876953"/>
      <use xlink:href="#DejaVuSans-65" x="637.353516"/>
      <use xlink:href="#DejaVuSans-5b" x="698.876953"/>
      <use xlink:href="#DejaVuSans-31" x="737.890625"/>
      <use xlink:href="#DejaVuSans-5d" x="801.513672"/>
      <use xlink:href="#DejaVuSans-2e" x="840.527344"/>
      <use xlink:href="#DejaVuSans-6c" x="872.314453"/>
      <use xlink:href="#DejaVuSans-6e" x="900.097656"/>
      <use xlink:href="#DejaVuSans-6b" x="963.476562"/>
      <use xlink:href="#DejaVuSans-5b" x="1021.386719"/>
      <use xlink:href="#DejaVuSans-31" x="1060.400391"/>
      <use xlink:href="#DejaVuSans-5d" x="1124.023438"/>
     </g>
    </g>
    <g id="line2d_46">
     <path d="M 1139.039062 86.638688 
L 1149.039062 86.638688 
L 1159.039062 86.638688 
" style="fill: none; stroke: #2ca02c; stroke-width: 1.5; stroke-linecap: square"/>
    </g>
    <g id="text_22">
     <!-- Network.node[2].lnk[1] -->
     <g transform="translate(1167.039062 90.138688)scale(0.1 -0.1)">
      <use xlink:href="#DejaVuSans-4e"/>
      <use xlink:href="#DejaVuSans-65" x="74.804688"/>
      <use xlink:href="#DejaVuSans-74" x="136.328125"/>
      <use xlink:href="#DejaVuSans-77" x="175.537109"/>
      <use xlink:href="#DejaVuSans-6f" x="257.324219"/>
      <use xlink:href="#DejaVuSans-72" x="318.505859"/>
      <use xlink:href="#DejaVuSans-6b" x="359.619141"/>
      <use xlink:href="#DejaVuSans-2e" x="417.529297"/>
      <use xlink:href="#DejaVuSans-6e" x="449.316406"/>
      <use xlink:href="#DejaVuSans-6f" x="512.695312"/>
      <use xlink:href="#DejaVuSans-64" x="573.876953"/>
      <use xlink:href="#DejaVuSans-65" x="637.353516"/>
      <use xlink:href="#DejaVuSans-5b" x="698.876953"/>
      <use xlink:href="#DejaVuSans-32" x="737.890625"/>
      <use xlink:href="#DejaVuSans-5d" x="801.513672"/>
      <use xlink:href="#DejaVuSans-2e" x="840.527344"/>
      <use xlink:href="#DejaVuSans-6c" x="872.314453"/>
      <use xlink:href="#DejaVuSans-6e" x="900.097656"/>
      <use xlink:href="#DejaVuSans-6b" x="963.476562"/>
      <use xlink:href="#DejaVuSans-5b" x="1021.386719"/>
      <use xlink:href="#DejaVuSans-31" x="1060.400391"/>
      <use xlink:href="#DejaVuSans-5d" x="1124.023438"/>
     </g>
    </g>
    <g id="line2d_47">
     <path d="M 1139.039062 101.316813 
L 1149.039062 101.316813 
L 1159.039062 101.316813 
" style="fill: none; stroke: #d62728; stroke-width: 1.5; stroke-linecap: square"/>
    </g>
    <g id="text_23">
     <!-- Network.node[3].lnk[1] -->
     <g transform="translate(1167.039062 104.816813)scale(0.1 -0.1)">
      <defs>
       <path id="DejaVuSans-33" d="M 2597 2516 
Q 3050 2419 3304 2112 
Q 3559 1806 3559 1356 
Q 3559 666 3084 287 
Q 2609 -91 1734 -91 
Q 1441 -91 1130 -33 
Q 819 25 488 141 
L 488 750 
Q 750 597 1062 519 
Q 1375 441 1716 441 
Q 2309 441 2620 675 
Q 2931 909 2931 1356 
Q 2931 1769 2642 2001 
Q 2353 2234 1838 2234 
L 1294 2234 
L 1294 2753 
L 1863 2753 
Q 2328 2753 2575 2939 
Q 2822 3125 2822 3475 
Q 2822 3834 2567 4026 
Q 2313 4219 1838 4219 
Q 1578 4219 1281 4162 
Q 984 4106 628 3988 
L 628 4550 
Q 988 4650 1302 4700 
Q 1616 4750 1894 4750 
Q 2613 4750 3031 4423 
Q 3450 4097 3450 3541 
Q 3450 3153 3228 2886 
Q 3006 2619 2597 2516 
z
" transform="scale(0.015625)"/>
      </defs>
      <use xlink:href="#DejaVuSans-4e"/>
      <use xlink:href="#DejaVuSans-65" x="74.804688"/>
      <use xlink:href="#DejaVuSans-74" x="136.328125"/>
      <use xlink:href="#DejaVuSans-77" x="175.537109"/>
      <use xlink:href="#DejaVuSans-6f" x="257.324219"/>
      <use xlink:href="#DejaVuSans-72" x="318.505859"/>
      <use xlink:href="#DejaVuSans-6b" x="359.619141"/>
      <use xlink:href="#DejaVuSans-2e" x="417.529297"/>
      <use xlink:href="#DejaVuSans-6e" x="449.316406"/>
      <use xlink:href="#DejaVuSans-6f" x="512.695312"/>
      <use xlink:href="#DejaVuSans-64" x="573.876953"/>
      <use xlink:href="#DejaVuSans-65" x="637.353516"/>
      <use xlink:href="#DejaVuSans-5b" x="698.876953"/>
      <use xlink:href="#DejaVuSans-33" x="737.890625"/>
      <use xlink:href="#DejaVuSans-5d" x="801.513672"/>
      <use xlink:href="#DejaVuSans-2e" x="840.527344"/>
      <use xlink:href="#DejaVuSans-6c" x="872.314453"/>
      <use xlink:href="#DejaVuSans-6e" x="900.097656"/>
      <use xlink:href="#DejaVuSans-6b" x="963.476562"/>
      <use xlink:href="#DejaVuSans-5b" x="1021.386719"/>
      <use xlink:href="#DejaVuSans-31" x="1060.400391"/>
      <use xlink:href="#DejaVuSans-5d" x="1124.023438"/>
     </g>
    </g>
    <g id="line2d_48">
     <path d="M 1139.039062 115.994937 
L 1149.039062 115.994937 
L 1159.039062 115.994937 
" style="fill: none; stroke: #9467bd; stroke-width: 1.5; stroke-linecap: square"/>
    </g>
    <g id="text_24">
     <!-- Network.node[4].lnk[1] -->
     <g transform="translate(1167.039062 119.494937)scale(0.1 -0.1)">
      <defs>
       <path id="DejaVuSans-34" d="M 2419 4116 
L 825 1625 
L 2419 1625 
L 2419 4116 
z
M 2253 4666 
L 3047 4666 
L 3047 1625 
L 3713 1625 
L 3713 1100 
L 3047 1100 
L 3047 0 
L 2419 0 
L 2419 1100 
L 313 1100 
L 313 1709 
L 2253 4666 
z
" transform="scale(0.015625)"/>
      </defs>
      <use xlink:href="#DejaVuSans-4e"/>
      <use xlink:href="#DejaVuSans-65" x="74.804688"/>
      <use xlink:href="#DejaVuSans-74" x="136.328125"/>
      <use xlink:href="#DejaVuSans-77" x="175.537109"/>
      <use xlink:href="#DejaVuSans-6f" x="257.324219"/>
      <use xlink:href="#DejaVuSans-72" x="318.505859"/>
      <use xlink:href="#DejaVuSans-6b" x="359.619141"/>
      <use xlink:href="#DejaVuSans-2e" x="417.529297"/>
      <use xlink:href="#DejaVuSans-6e" x="449.316406"/>
      <use xlink:href="#DejaVuSans-6f" x="512.695312"/>
      <use xlink:href="#DejaVuSans-64" x="573.876953"/>
      <use xlink:href="#DejaVuSans-65" x="637.353516"/>
      <use xlink:href="#DejaVuSans-5b" x="698.876953"/>
      <use xlink:href="#DejaVuSans-34" x="737.890625"/>
      <use xlink:href="#DejaVuSans-5d" x="801.513672"/>
      <use xlink:href="#DejaVuSans-2e" x="840.527344"/>
      <use xlink:href="#DejaVuSans-6c" x="872.314453"/>
      <use xlink:href="#DejaVuSans-6e" x="900.097656"/>
      <use xlink:href="#DejaVuSans-6b" x="963.476562"/>
      <use xlink:href="#DejaVuSans-5b" x="1021.386719"/>
      <use xlink:href="#DejaVuSans-31" x="1060.400391"/>
      <use xlink:href="#DejaVuSans-5d" x="1124.023438"/>
     </g>
    </g>
    <g id="line2d_49">
     <path d="M 1139.039062 130.673063 
L 1149.039062 130.673063 
L 1159.039062 130.673063 
" style="fill: none; stroke: #8c564b; stroke-width: 1.5; stroke-linecap: square"/>
    </g>
    <g id="text_25">
     <!-- Network.node[6].lnk[1] -->
     <g transform="translate(1167.039062 134.173063)scale(0.1 -0.1)">
      <defs>
       <path id="DejaVuSans-36" d="M 2113 2584 
Q 1688 2584 1439 2293 
Q 1191 2003 1191 1497 
Q 1191 994 1439 701 
Q 1688 409 2113 409 
Q 2538 409 2786 701 
Q 3034 994 3034 1497 
Q 3034 2003 2786 2293 
Q 2538 2584 2113 2584 
z
M 3366 4563 
L 3366 3988 
Q 3128 4100 2886 4159 
Q 2644 4219 2406 4219 
Q 1781 4219 1451 3797 
Q 1122 3375 1075 2522 
Q 1259 2794 1537 2939 
Q 1816 3084 2150 3084 
Q 2853 3084 3261 2657 
Q 3669 2231 3669 1497 
Q 3669 778 3244 343 
Q 2819 -91 2113 -91 
Q 1303 -91 875 529 
Q 447 1150 447 2328 
Q 447 3434 972 4092 
Q 1497 4750 2381 4750 
Q 2619 4750 2861 4703 
Q 3103 4656 3366 4563 
z
" transform="scale(0.015625)"/>
      </defs>
      <use xlink:href="#DejaVuSans-4e"/>
      <use xlink:href="#DejaVuSans-65" x="74.804688"/>
      <use xlink:href="#DejaVuSans-74" x="136.328125"/>
      <use xlink:href="#DejaVuSans-77" x="175.537109"/>
      <use xlink:href="#DejaVuSans-6f" x="257.324219"/>
      <use xlink:href="#DejaVuSans-72" x="318.505859"/>
      <use xlink:href="#DejaVuSans-6b" x="359.619141"/>
      <use xlink:href="#DejaVuSans-2e" x="417.529297"/>
      <use xlink:href="#DejaVuSans-6e" x="449.316406"/>
      <use xlink:href="#DejaVuSans-6f" x="512.695312"/>
      <use xlink:href="#DejaVuSans-64" x="573.876953"/>
      <use xlink:href="#DejaVuSans-65" x="637.353516"/>
      <use xlink:href="#DejaVuSans-5b" x="698.876953"/>
      <use xlink:href="#DejaVuSans-36" x="737.890625"/>
      <use xlink:href="#DejaVuSans-5d" x="801.513672"/>
      <use xlink:href="#DejaVuSans-2e" x="840.527344"/>
      <use xlink:href="#DejaVuSans-6c" x="872.314453"/>
      <use xlink:href="#DejaVuSans-6e" x="900.097656"/>
      <use xlink:href="#DejaVuSans-6b" x="963.476562"/>
      <use xlink:href="#DejaVuSans-5b" x="1021.386719"/>
      <use xlink:href="#DejaVuSans-31" x="1060.400391"/>
      <use xlink:href="#DejaVuSans-5d" x="1124.023438"/>
     </g>
    </g>
    <g id="line2d_50">
     <path d="M 1139.039062 145.351188 
L 1149.039062 145.351188 
L 1159.039062 145.351188 
" style="fill: none; stroke: #e377c2; stroke-width: 1.5; stroke-linecap: square"/>
    </g>
    <g id="text_26">
     <!-- Network.node[7].lnk[1] -->
     <g transform="translate(1167.039062 148.851188)scale(0.1 -0.1)">
      <use xlink:href="#DejaVuSans-4e"/>
      <use xlink:href="#DejaVuSans-65" x="74.804688"/>
      <use xlink:href="#DejaVuSans-74" x="136.328125"/>
      <use xlink:href="#DejaVuSans-77" x="175.537109"/>
      <use xlink:href="#DejaVuSans-6f" x="257.324219"/>
      <use xlink:href="#DejaVuSans-72" x="318.505859"/>
      <use xlink:href="#DejaVuSans-6b" x="359.619141"/>
      <use xlink:href="#DejaVuSans-2e" x="417.529297"/>
      <use xlink:href="#DejaVuSans-6e" x="449.316406"/>
      <use xlink:href="#DejaVuSans-6f" x="512.695312"/>
      <use xlink:href="#DejaVuSans-64" x="573.876953"/>
      <use xlink:href="#DejaVuSans-65" x="637.353516"/>
      <use xlink:href="#DejaVuSans-5b" x="698.876953"/>
      <use xlink:href="#DejaVuSans-37" x="737.890625"/>
      <use xlink:href="#DejaVuSans-5d" x="801.513672"/>
      <use xlink:href="#DejaVuSans-2e" x="840.527344"/>
      <use xlink:href="#DejaVuSans-6c" x="872.314453"/>
      <use xlink:href="#DejaVuSans-6e" x="900.097656"/>
      <use xlink:href="#DejaVuSans-6b" x="963.476562"/>
      <use xlink:href="#DejaVuSans-5b" x="1021.386719"/>
      <use xlink:href="#DejaVuSans-31" x="1060.400391"/>
      <use xlink:href="#DejaVuSans-5d" x="1124.023438"/>
     </g>
    </g>
   </g>
  </g>
 </g>
 <defs>
  <clipPath id="p64abcbfe4d">
   <rect x="105.656281" y="44.184" width="1186.687469" height="478.06825"/>
  </clipPath>
 </defs>
</svg>
