<?xml version="1.0" encoding="utf-8" standalone="no"?>
<!DOCTYPE svg PUBLIC "-//W3C//DTD SVG 1.1//EN"
  "http://www.w3.org/Graphics/SVG/1.1/DTD/svg11.dtd">
<svg xmlns:xlink="http://www.w3.org/1999/xlink" width="1209.6pt" height="568.08pt" viewBox="0 0 1209.6 568.08" xmlns="http://www.w3.org/2000/svg" version="1.1">
 <metadata>
  <rdf:RDF xmlns:dc="http://purl.org/dc/elements/1.1/" xmlns:cc="http://creativecommons.org/ns#" xmlns:rdf="http://www.w3.org/1999/02/22-rdf-syntax-ns#">
   <cc:Work>
    <dc:type rdf:resource="http://purl.org/dc/dcmitype/StillImage"/>
    <dc:date>2023-05-23T17:57:06.173393</dc:date>
    <dc:format>image/svg+xml</dc:format>
    <dc:creator>
     <cc:Agent>
      <dc:title>Matplotlib v3.5.2, https://matplotlib.org/</dc:title>
     </cc:Agent>
    </dc:creator>
   </cc:Work>
  </rdf:RDF>
 </metadata>
 <defs>
  <style type="text/css">*{stroke-linejoin: round; stroke-linecap: butt}</style>
 </defs>
 <g id="figure_1">
  <g id="patch_1">
   <path d="M 0 568.08 
L 1209.6 568.08 
L 1209.6 0 
L 0 0 
z
" style="fill: #ffffff"/>
  </g>
  <g id="axes_1">
   <g id="patch_2">
    <path d="M 80.03625 522.25225 
L 1181.25 522.25225 
L 1181.25 44.184 
L 80.03625 44.184 
z
" style="fill: #ffffff"/>
   </g>
   <g id="matplotlib.axis_1">
    <g id="xtick_1">
     <g id="line2d_1">
      <path d="M 120.6791 522.25225 
L 120.6791 44.184 
" clip-path="url(#p1369fa8eff)" style="fill: none; stroke: #b0b0b0; stroke-width: 0.8; stroke-linecap: square"/>
     </g>
     <g id="line2d_2">
      <defs>
       <path id="mb646e66f33" d="M 0 0 
L 0 3.5 
" style="stroke: #000000; stroke-width: 0.8"/>
      </defs>
      <g>
       <use xlink:href="#mb646e66f33" x="120.6791" y="522.25225" style="stroke: #000000; stroke-width: 0.8"/>
      </g>
     </g>
     <g id="text_1">
      <!-- 0 -->
      <g transform="translate(117.49785 536.850687)scale(0.1 -0.1)">
       <defs>
        <path id="DejaVuSans-30" d="M 2034 4250 
Q 1547 4250 1301 3770 
Q 1056 3291 1056 2328 
Q 1056 1369 1301 889 
Q 1547 409 2034 409 
Q 2525 409 2770 889 
Q 3016 1369 3016 2328 
Q 3016 3291 2770 3770 
Q 2525 4250 2034 4250 
z
M 2034 4750 
Q 2819 4750 3233 4129 
Q 3647 3509 3647 2328 
Q 3647 1150 3233 529 
Q 2819 -91 2034 -91 
Q 1250 -91 836 529 
Q 422 1150 422 2328 
Q 422 3509 836 4129 
Q 1250 4750 2034 4750 
z
" transform="scale(0.015625)"/>
       </defs>
       <use xlink:href="#DejaVuSans-30"/>
      </g>
     </g>
    </g>
    <g id="xtick_2">
     <g id="line2d_3">
      <path d="M 247.21571 522.25225 
L 247.21571 44.184 
" clip-path="url(#p1369fa8eff)" style="fill: none; stroke: #b0b0b0; stroke-width: 0.8; stroke-linecap: square"/>
     </g>
     <g id="line2d_4">
      <g>
       <use xlink:href="#mb646e66f33" x="247.21571" y="522.25225" style="stroke: #000000; stroke-width: 0.8"/>
      </g>
     </g>
     <g id="text_2">
      <!-- 25 -->
      <g transform="translate(240.85321 536.850687)scale(0.1 -0.1)">
       <defs>
        <path id="DejaVuSans-32" d="M 1228 531 
L 3431 531 
L 3431 0 
L 469 0 
L 469 531 
Q 828 903 1448 1529 
Q 2069 2156 2228 2338 
Q 2531 2678 2651 2914 
Q 2772 3150 2772 3378 
Q 2772 3750 2511 3984 
Q 2250 4219 1831 4219 
Q 1534 4219 1204 4116 
Q 875 4013 500 3803 
L 500 4441 
Q 881 4594 1212 4672 
Q 1544 4750 1819 4750 
Q 2544 4750 2975 4387 
Q 3406 4025 3406 3419 
Q 3406 3131 3298 2873 
Q 3191 2616 2906 2266 
Q 2828 2175 2409 1742 
Q 1991 1309 1228 531 
z
" transform="scale(0.015625)"/>
        <path id="DejaVuSans-35" d="M 691 4666 
L 3169 4666 
L 3169 4134 
L 1269 4134 
L 1269 2991 
Q 1406 3038 1543 3061 
Q 1681 3084 1819 3084 
Q 2600 3084 3056 2656 
Q 3513 2228 3513 1497 
Q 3513 744 3044 326 
Q 2575 -91 1722 -91 
Q 1428 -91 1123 -41 
Q 819 9 494 109 
L 494 744 
Q 775 591 1075 516 
Q 1375 441 1709 441 
Q 2250 441 2565 725 
Q 2881 1009 2881 1497 
Q 2881 1984 2565 2268 
Q 2250 2553 1709 2553 
Q 1456 2553 1204 2497 
Q 953 2441 691 2322 
L 691 4666 
z
" transform="scale(0.015625)"/>
       </defs>
       <use xlink:href="#DejaVuSans-32"/>
       <use xlink:href="#DejaVuSans-35" x="63.623047"/>
      </g>
     </g>
    </g>
    <g id="xtick_3">
     <g id="line2d_5">
      <path d="M 373.752321 522.25225 
L 373.752321 44.184 
" clip-path="url(#p1369fa8eff)" style="fill: none; stroke: #b0b0b0; stroke-width: 0.8; stroke-linecap: square"/>
     </g>
     <g id="line2d_6">
      <g>
       <use xlink:href="#mb646e66f33" x="373.752321" y="522.25225" style="stroke: #000000; stroke-width: 0.8"/>
      </g>
     </g>
     <g id="text_3">
      <!-- 50 -->
      <g transform="translate(367.389821 536.850687)scale(0.1 -0.1)">
       <use xlink:href="#DejaVuSans-35"/>
       <use xlink:href="#DejaVuSans-30" x="63.623047"/>
      </g>
     </g>
    </g>
    <g id="xtick_4">
     <g id="line2d_7">
      <path d="M 500.288931 522.25225 
L 500.288931 44.184 
" clip-path="url(#p1369fa8eff)" style="fill: none; stroke: #b0b0b0; stroke-width: 0.8; stroke-linecap: square"/>
     </g>
     <g id="line2d_8">
      <g>
       <use xlink:href="#mb646e66f33" x="500.288931" y="522.25225" style="stroke: #000000; stroke-width: 0.8"/>
      </g>
     </g>
     <g id="text_4">
      <!-- 75 -->
      <g transform="translate(493.926431 536.850687)scale(0.1 -0.1)">
       <defs>
        <path id="DejaVuSans-37" d="M 525 4666 
L 3525 4666 
L 3525 4397 
L 1831 0 
L 1172 0 
L 2766 4134 
L 525 4134 
L 525 4666 
z
" transform="scale(0.015625)"/>
       </defs>
       <use xlink:href="#DejaVuSans-37"/>
       <use xlink:href="#DejaVuSans-35" x="63.623047"/>
      </g>
     </g>
    </g>
    <g id="xtick_5">
     <g id="line2d_9">
      <path d="M 626.825542 522.25225 
L 626.825542 44.184 
" clip-path="url(#p1369fa8eff)" style="fill: none; stroke: #b0b0b0; stroke-width: 0.8; stroke-linecap: square"/>
     </g>
     <g id="line2d_10">
      <g>
       <use xlink:href="#mb646e66f33" x="626.825542" y="522.25225" style="stroke: #000000; stroke-width: 0.8"/>
      </g>
     </g>
     <g id="text_5">
      <!-- 100 -->
      <g transform="translate(617.281792 536.850687)scale(0.1 -0.1)">
       <defs>
        <path id="DejaVuSans-31" d="M 794 531 
L 1825 531 
L 1825 4091 
L 703 3866 
L 703 4441 
L 1819 4666 
L 2450 4666 
L 2450 531 
L 3481 531 
L 3481 0 
L 794 0 
L 794 531 
z
" transform="scale(0.015625)"/>
       </defs>
       <use xlink:href="#DejaVuSans-31"/>
       <use xlink:href="#DejaVuSans-30" x="63.623047"/>
       <use xlink:href="#DejaVuSans-30" x="127.246094"/>
      </g>
     </g>
    </g>
    <g id="xtick_6">
     <g id="line2d_11">
      <path d="M 753.362153 522.25225 
L 753.362153 44.184 
" clip-path="url(#p1369fa8eff)" style="fill: none; stroke: #b0b0b0; stroke-width: 0.8; stroke-linecap: square"/>
     </g>
     <g id="line2d_12">
      <g>
       <use xlink:href="#mb646e66f33" x="753.362153" y="522.25225" style="stroke: #000000; stroke-width: 0.8"/>
      </g>
     </g>
     <g id="text_6">
      <!-- 125 -->
      <g transform="translate(743.818403 536.850687)scale(0.1 -0.1)">
       <use xlink:href="#DejaVuSans-31"/>
       <use xlink:href="#DejaVuSans-32" x="63.623047"/>
       <use xlink:href="#DejaVuSans-35" x="127.246094"/>
      </g>
     </g>
    </g>
    <g id="xtick_7">
     <g id="line2d_13">
      <path d="M 879.898763 522.25225 
L 879.898763 44.184 
" clip-path="url(#p1369fa8eff)" style="fill: none; stroke: #b0b0b0; stroke-width: 0.8; stroke-linecap: square"/>
     </g>
     <g id="line2d_14">
      <g>
       <use xlink:href="#mb646e66f33" x="879.898763" y="522.25225" style="stroke: #000000; stroke-width: 0.8"/>
      </g>
     </g>
     <g id="text_7">
      <!-- 150 -->
      <g transform="translate(870.355013 536.850687)scale(0.1 -0.1)">
       <use xlink:href="#DejaVuSans-31"/>
       <use xlink:href="#DejaVuSans-35" x="63.623047"/>
       <use xlink:href="#DejaVuSans-30" x="127.246094"/>
      </g>
     </g>
    </g>
    <g id="xtick_8">
     <g id="line2d_15">
      <path d="M 1006.435374 522.25225 
L 1006.435374 44.184 
" clip-path="url(#p1369fa8eff)" style="fill: none; stroke: #b0b0b0; stroke-width: 0.8; stroke-linecap: square"/>
     </g>
     <g id="line2d_16">
      <g>
       <use xlink:href="#mb646e66f33" x="1006.435374" y="522.25225" style="stroke: #000000; stroke-width: 0.8"/>
      </g>
     </g>
     <g id="text_8">
      <!-- 175 -->
      <g transform="translate(996.891624 536.850687)scale(0.1 -0.1)">
       <use xlink:href="#DejaVuSans-31"/>
       <use xlink:href="#DejaVuSans-37" x="63.623047"/>
       <use xlink:href="#DejaVuSans-35" x="127.246094"/>
      </g>
     </g>
    </g>
    <g id="xtick_9">
     <g id="line2d_17">
      <path d="M 1132.971984 522.25225 
L 1132.971984 44.184 
" clip-path="url(#p1369fa8eff)" style="fill: none; stroke: #b0b0b0; stroke-width: 0.8; stroke-linecap: square"/>
     </g>
     <g id="line2d_18">
      <g>
       <use xlink:href="#mb646e66f33" x="1132.971984" y="522.25225" style="stroke: #000000; stroke-width: 0.8"/>
      </g>
     </g>
     <g id="text_9">
      <!-- 200 -->
      <g transform="translate(1123.428234 536.850687)scale(0.1 -0.1)">
       <use xlink:href="#DejaVuSans-32"/>
       <use xlink:href="#DejaVuSans-30" x="63.623047"/>
       <use xlink:href="#DejaVuSans-30" x="127.246094"/>
      </g>
     </g>
    </g>
   </g>
   <g id="matplotlib.axis_2">
    <g id="ytick_1">
     <g id="line2d_19">
      <path d="M 80.03625 500.521875 
L 1181.25 500.521875 
" clip-path="url(#p1369fa8eff)" style="fill: none; stroke: #b0b0b0; stroke-width: 0.8; stroke-linecap: square"/>
     </g>
     <g id="line2d_20">
      <defs>
       <path id="m0db4ee2f95" d="M 0 0 
L -3.5 0 
" style="stroke: #000000; stroke-width: 0.8"/>
      </defs>
      <g>
       <use xlink:href="#m0db4ee2f95" x="80.03625" y="500.521875" style="stroke: #000000; stroke-width: 0.8"/>
      </g>
     </g>
     <g id="text_10">
      <!-- 0 -->
      <g transform="translate(66.67375 504.321094)scale(0.1 -0.1)">
       <use xlink:href="#DejaVuSans-30"/>
      </g>
     </g>
    </g>
    <g id="ytick_2">
     <g id="line2d_21">
      <path d="M 80.03625 413.600375 
L 1181.25 413.600375 
" clip-path="url(#p1369fa8eff)" style="fill: none; stroke: #b0b0b0; stroke-width: 0.8; stroke-linecap: square"/>
     </g>
     <g id="line2d_22">
      <g>
       <use xlink:href="#m0db4ee2f95" x="80.03625" y="413.600375" style="stroke: #000000; stroke-width: 0.8"/>
      </g>
     </g>
     <g id="text_11">
      <!-- 2 -->
      <g transform="translate(66.67375 417.399594)scale(0.1 -0.1)">
       <use xlink:href="#DejaVuSans-32"/>
      </g>
     </g>
    </g>
    <g id="ytick_3">
     <g id="line2d_23">
      <path d="M 80.03625 326.678875 
L 1181.25 326.678875 
" clip-path="url(#p1369fa8eff)" style="fill: none; stroke: #b0b0b0; stroke-width: 0.8; stroke-linecap: square"/>
     </g>
     <g id="line2d_24">
      <g>
       <use xlink:href="#m0db4ee2f95" x="80.03625" y="326.678875" style="stroke: #000000; stroke-width: 0.8"/>
      </g>
     </g>
     <g id="text_12">
      <!-- 4 -->
      <g transform="translate(66.67375 330.478094)scale(0.1 -0.1)">
       <defs>
        <path id="DejaVuSans-34" d="M 2419 4116 
L 825 1625 
L 2419 1625 
L 2419 4116 
z
M 2253 4666 
L 3047 4666 
L 3047 1625 
L 3713 1625 
L 3713 1100 
L 3047 1100 
L 3047 0 
L 2419 0 
L 2419 1100 
L 313 1100 
L 313 1709 
L 2253 4666 
z
" transform="scale(0.015625)"/>
       </defs>
       <use xlink:href="#DejaVuSans-34"/>
      </g>
     </g>
    </g>
    <g id="ytick_4">
     <g id="line2d_25">
      <path d="M 80.03625 239.757375 
L 1181.25 239.757375 
" clip-path="url(#p1369fa8eff)" style="fill: none; stroke: #b0b0b0; stroke-width: 0.8; stroke-linecap: square"/>
     </g>
     <g id="line2d_26">
      <g>
       <use xlink:href="#m0db4ee2f95" x="80.03625" y="239.757375" style="stroke: #000000; stroke-width: 0.8"/>
      </g>
     </g>
     <g id="text_13">
      <!-- 6 -->
      <g transform="translate(66.67375 243.556594)scale(0.1 -0.1)">
       <defs>
        <path id="DejaVuSans-36" d="M 2113 2584 
Q 1688 2584 1439 2293 
Q 1191 2003 1191 1497 
Q 1191 994 1439 701 
Q 1688 409 2113 409 
Q 2538 409 2786 701 
Q 3034 994 3034 1497 
Q 3034 2003 2786 2293 
Q 2538 2584 2113 2584 
z
M 3366 4563 
L 3366 3988 
Q 3128 4100 2886 4159 
Q 2644 4219 2406 4219 
Q 1781 4219 1451 3797 
Q 1122 3375 1075 2522 
Q 1259 2794 1537 2939 
Q 1816 3084 2150 3084 
Q 2853 3084 3261 2657 
Q 3669 2231 3669 1497 
Q 3669 778 3244 343 
Q 2819 -91 2113 -91 
Q 1303 -91 875 529 
Q 447 1150 447 2328 
Q 447 3434 972 4092 
Q 1497 4750 2381 4750 
Q 2619 4750 2861 4703 
Q 3103 4656 3366 4563 
z
" transform="scale(0.015625)"/>
       </defs>
       <use xlink:href="#DejaVuSans-36"/>
      </g>
     </g>
    </g>
    <g id="ytick_5">
     <g id="line2d_27">
      <path d="M 80.03625 152.835875 
L 1181.25 152.835875 
" clip-path="url(#p1369fa8eff)" style="fill: none; stroke: #b0b0b0; stroke-width: 0.8; stroke-linecap: square"/>
     </g>
     <g id="line2d_28">
      <g>
       <use xlink:href="#m0db4ee2f95" x="80.03625" y="152.835875" style="stroke: #000000; stroke-width: 0.8"/>
      </g>
     </g>
     <g id="text_14">
      <!-- 8 -->
      <g transform="translate(66.67375 156.635094)scale(0.1 -0.1)">
       <defs>
        <path id="DejaVuSans-38" d="M 2034 2216 
Q 1584 2216 1326 1975 
Q 1069 1734 1069 1313 
Q 1069 891 1326 650 
Q 1584 409 2034 409 
Q 2484 409 2743 651 
Q 3003 894 3003 1313 
Q 3003 1734 2745 1975 
Q 2488 2216 2034 2216 
z
M 1403 2484 
Q 997 2584 770 2862 
Q 544 3141 544 3541 
Q 544 4100 942 4425 
Q 1341 4750 2034 4750 
Q 2731 4750 3128 4425 
Q 3525 4100 3525 3541 
Q 3525 3141 3298 2862 
Q 3072 2584 2669 2484 
Q 3125 2378 3379 2068 
Q 3634 1759 3634 1313 
Q 3634 634 3220 271 
Q 2806 -91 2034 -91 
Q 1263 -91 848 271 
Q 434 634 434 1313 
Q 434 1759 690 2068 
Q 947 2378 1403 2484 
z
M 1172 3481 
Q 1172 3119 1398 2916 
Q 1625 2713 2034 2713 
Q 2441 2713 2670 2916 
Q 2900 3119 2900 3481 
Q 2900 3844 2670 4047 
Q 2441 4250 2034 4250 
Q 1625 4250 1398 4047 
Q 1172 3844 1172 3481 
z
" transform="scale(0.015625)"/>
       </defs>
       <use xlink:href="#DejaVuSans-38"/>
      </g>
     </g>
    </g>
    <g id="ytick_6">
     <g id="line2d_29">
      <path d="M 80.03625 65.914375 
L 1181.25 65.914375 
" clip-path="url(#p1369fa8eff)" style="fill: none; stroke: #b0b0b0; stroke-width: 0.8; stroke-linecap: square"/>
     </g>
     <g id="line2d_30">
      <g>
       <use xlink:href="#m0db4ee2f95" x="80.03625" y="65.914375" style="stroke: #000000; stroke-width: 0.8"/>
      </g>
     </g>
     <g id="text_15">
      <!-- 10 -->
      <g transform="translate(60.31125 69.713594)scale(0.1 -0.1)">
       <use xlink:href="#DejaVuSans-31"/>
       <use xlink:href="#DejaVuSans-30" x="63.623047"/>
      </g>
     </g>
    </g>
   </g>
   <g id="line2d_31">
    <path d="M 130.09142 457.061125 
L 130.09142 500.521875 
L 134.075811 457.061125 
L 135.152885 500.521875 
L 143.586121 457.061125 
L 143.586121 500.521875 
L 148.840727 457.061125 
L 148.840727 500.521875 
L 151.753697 457.061125 
L 153.902192 500.521875 
L 163.007987 457.061125 
L 163.007987 500.521875 
L 164.619335 457.061125 
L 167.06707 413.600375 
L 168.069451 457.061125 
L 170.354219 413.600375 
L 173.130916 457.061125 
L 178.19238 500.521875 
L 178.818057 457.061125 
L 182.12766 413.600375 
L 183.253844 457.061125 
L 184.652683 413.600375 
L 188.315309 457.061125 
L 193.376773 500.521875 
L 197.803654 457.061125 
L 197.907037 413.600375 
L 198.438238 457.061125 
L 200.231505 413.600375 
L 203.499702 457.061125 
L 208.561167 500.521875 
L 209.278811 457.061125 
L 213.622631 500.521875 
L 216.900284 457.061125 
L 217.665734 413.600375 
L 218.684095 457.061125 
L 223.74556 500.521875 
L 227.992712 457.061125 
L 228.807024 500.521875 
L 247.455165 457.061125 
L 247.455165 500.521875 
L 250.587855 457.061125 
L 252.51663 500.521875 
L 258.263748 457.061125 
L 258.263748 500.521875 
L 263.433689 457.061125 
L 263.433689 500.521875 
L 267.848911 457.061125 
L 268.495153 500.521875 
L 282.498918 457.061125 
L 282.498918 500.521875 
L 285.746833 457.061125 
L 287.560382 500.521875 
L 293.279581 457.061125 
L 293.279581 500.521875 
L 294.514824 457.061125 
L 298.341046 500.521875 
L 298.768148 457.061125 
L 299.588796 413.600375 
L 303.40251 457.061125 
L 304.381986 413.600375 
L 308.463975 457.061125 
L 309.238704 413.600375 
L 313.525439 457.061125 
L 318.586904 500.521875 
L 321.026417 457.061125 
L 323.648368 500.521875 
L 326.822497 457.061125 
L 328.709832 500.521875 
L 331.62833 457.061125 
L 333.771297 500.521875 
L 337.682387 457.061125 
L 338.21162 413.600375 
L 338.526014 370.139625 
L 338.832761 413.600375 
L 348.95569 500.521875 
L 356.242221 457.061125 
L 356.242221 500.521875 
L 357.190871 457.061125 
L 358.386423 413.600375 
L 360.630697 370.139625 
L 361.303686 413.600375 
L 362.5488 370.139625 
L 366.36515 413.600375 
L 367.286642 370.139625 
L 369.276367 326.678875 
L 369.474691 283.218125 
L 371.426614 326.678875 
L 372.396798 283.218125 
L 376.488079 326.678875 
L 377.487978 283.218125 
L 381.549543 326.678875 
L 391.672472 413.600375 
L 393.648964 370.139625 
L 394.193755 326.678875 
L 396.733936 370.139625 
L 399.547906 326.678875 
L 400.438286 283.218125 
L 401.795401 326.678875 
L 422.041259 500.521875 
L 427.568243 457.061125 
L 427.568243 500.521875 
L 428.444522 457.061125 
L 429.036487 413.600375 
L 432.629708 457.061125 
L 434.721364 413.600375 
L 436.652595 370.139625 
L 437.691172 413.600375 
L 437.760451 370.139625 
L 447.814101 457.061125 
L 452.875565 500.521875 
L 452.949169 413.600375 
L 453.466172 370.139625 
L 457.93703 413.600375 
L 458.401616 370.139625 
L 462.998494 413.600375 
L 467.612565 370.139625 
L 468.059959 413.600375 
L 478.182887 500.521875 
L 486.588154 457.061125 
L 486.588154 500.521875 
L 489.788703 457.061125 
L 491.649618 500.521875 
L 493.39542 457.061125 
L 496.711083 500.521875 
L 512.436281 457.061125 
L 512.436281 500.521875 
L 514.118763 457.061125 
L 514.766918 413.600375 
L 517.021393 370.139625 
L 517.497745 413.600375 
L 518.798858 370.139625 
L 522.117389 326.678875 
L 522.55921 370.139625 
L 522.7571 326.678875 
L 527.620674 370.139625 
L 528.663189 326.678875 
L 530.600216 283.218125 
L 532.682138 326.678875 
L 537.743603 370.139625 
L 541.351967 326.678875 
L 541.687529 283.218125 
L 542.805067 326.678875 
L 542.924528 283.218125 
L 547.866532 326.678875 
L 548.892954 283.218125 
L 552.927996 326.678875 
L 553.124832 283.218125 
L 554.685862 239.757375 
L 557.989461 283.218125 
L 558.285819 239.757375 
L 562.035144 196.296625 
L 563.050925 239.757375 
L 573.173854 326.678875 
L 574.61583 283.218125 
L 578.235318 326.678875 
L 578.958039 283.218125 
L 580.604738 239.757375 
L 582.546114 196.296625 
L 582.593695 152.835875 
L 583.296783 196.296625 
L 588.165588 152.835875 
L 588.358247 196.296625 
L 593.419711 239.757375 
L 597.515771 196.296625 
L 598.481176 239.757375 
L 603.54264 283.218125 
L 606.835357 239.757375 
L 608.604105 283.218125 
L 609.402532 239.757375 
L 613.475986 196.296625 
L 613.665569 239.757375 
L 615.81302 196.296625 
L 615.836842 152.835875 
L 616.638282 109.375125 
L 618.727034 152.835875 
L 622.371069 109.375125 
L 623.788498 152.835875 
L 623.964022 109.375125 
L 628.849962 152.835875 
L 630.121337 109.375125 
L 631.84399 65.914375 
L 633.911427 109.375125 
L 644.034356 196.296625 
L 648.421011 152.835875 
L 649.09582 196.296625 
L 652.959073 152.835875 
L 654.157285 196.296625 
L 657.257374 152.835875 
L 659.218749 196.296625 
L 662.413279 152.835875 
L 664.280213 196.296625 
L 669.341678 239.757375 
L 673.657357 196.296625 
L 674.403142 239.757375 
L 679.425443 196.296625 
L 679.464607 239.757375 
L 682.443996 196.296625 
L 684.526071 239.757375 
L 699.710464 370.139625 
L 701.895237 326.678875 
L 704.771929 370.139625 
L 709.833393 413.600375 
L 710.403165 370.139625 
L 714.894858 413.600375 
L 716.09874 370.139625 
L 717.553458 326.678875 
L 719.956322 370.139625 
L 723.861432 283.218125 
L 725.017786 326.678875 
L 740.20218 457.061125 
L 740.890074 413.600375 
L 745.263644 457.061125 
L 747.429027 413.600375 
L 750.325109 457.061125 
L 750.950791 413.600375 
L 755.386573 457.061125 
L 760.448037 500.521875 
L 766.770238 457.061125 
L 766.770238 500.521875 
L 771.489562 457.061125 
L 771.587652 413.600375 
L 771.831702 457.061125 
L 774.802328 413.600375 
L 776.893167 457.061125 
L 781.174932 413.600375 
L 781.954631 457.061125 
L 782.894133 413.600375 
L 785.342038 370.139625 
L 787.016095 413.600375 
L 792.07756 457.061125 
L 792.341938 413.600375 
L 793.078755 370.139625 
L 793.628163 326.678875 
L 795.421056 283.218125 
L 795.911627 239.757375 
L 797.139024 283.218125 
L 800.182938 239.757375 
L 802.200489 283.218125 
L 802.39494 239.757375 
L 806.457028 196.296625 
L 806.630148 152.835875 
L 807.261953 196.296625 
L 811.990286 152.835875 
L 812.323417 196.296625 
L 817.334431 152.835875 
L 817.384882 196.296625 
L 819.293876 152.835875 
L 822.151632 109.375125 
L 822.446346 152.835875 
L 823.417411 109.375125 
L 827.507811 152.835875 
L 832.569275 196.296625 
L 834.900021 152.835875 
L 837.63074 196.296625 
L 842.692204 239.757375 
L 846.161347 196.296625 
L 847.687713 152.835875 
L 847.753668 196.296625 
L 852.815133 239.757375 
L 855.993057 196.296625 
L 857.876597 239.757375 
L 862.152958 196.296625 
L 862.683814 152.835875 
L 862.938062 196.296625 
L 864.882239 152.835875 
L 867.999526 196.296625 
L 871.222267 152.835875 
L 873.060991 196.296625 
L 874.428516 152.835875 
L 878.122455 196.296625 
L 908.491241 457.061125 
L 908.671299 413.600375 
L 912.264524 370.139625 
L 913.188436 326.678875 
L 913.552706 370.139625 
L 913.857479 326.678875 
L 918.61417 370.139625 
L 923.392918 326.678875 
L 923.675635 370.139625 
L 928.737099 413.600375 
L 931.727729 370.139625 
L 933.798564 413.600375 
L 935.988879 370.139625 
L 936.15989 326.678875 
L 936.522672 283.218125 
L 938.860028 326.678875 
L 954.044421 457.061125 
L 957.020828 413.600375 
L 957.283581 370.139625 
L 959.105886 413.600375 
L 964.16735 457.061125 
L 967.471159 413.600375 
L 967.556028 370.139625 
L 969.228815 413.600375 
L 974.290279 457.061125 
L 977.357945 413.600375 
L 978.685716 370.139625 
L 978.745356 326.678875 
L 979.351743 370.139625 
L 984.413208 413.600375 
L 986.073314 370.139625 
L 989.474672 413.600375 
L 992.700281 370.139625 
L 994.536137 413.600375 
L 999.597601 457.061125 
L 999.716946 413.600375 
L 1003.120581 370.139625 
L 1004.659065 413.600375 
L 1005.21592 370.139625 
L 1005.310547 326.678875 
L 1006.259667 283.218125 
L 1009.410922 239.757375 
L 1009.72053 283.218125 
L 1010.694032 239.757375 
L 1014.781994 283.218125 
L 1019.843459 326.678875 
L 1021.201789 283.218125 
L 1024.904923 326.678875 
L 1029.966388 370.139625 
L 1034.524671 326.678875 
L 1035.027852 370.139625 
L 1040.089316 413.600375 
L 1040.693568 370.139625 
L 1041.604415 326.678875 
L 1045.113021 283.218125 
L 1045.150781 326.678875 
L 1050.030144 283.218125 
L 1050.212245 326.678875 
L 1055.27371 370.139625 
L 1056.108815 326.678875 
L 1060.335174 370.139625 
L 1065.396639 413.600375 
L 1069.882823 370.139625 
L 1070.458103 413.600375 
L 1071.456775 370.139625 
L 1075.519567 413.600375 
L 1076.274427 370.139625 
L 1080.581032 413.600375 
L 1082.02727 370.139625 
L 1085.642496 413.600375 
L 1086.538951 370.139625 
L 1090.703961 413.600375 
L 1093.572752 370.139625 
L 1095.765425 413.600375 
L 1105.888354 500.521875 
L 1110.467588 457.061125 
L 1110.949818 500.521875 
L 1111.510412 457.061125 
L 1116.011283 500.521875 
L 1126.133365 457.061125 
L 1126.133365 500.521875 
L 1129.54603 457.061125 
L 1130.851952 413.600375 
L 1131.19483 457.061125 
L 1131.19483 457.061125 
" clip-path="url(#p1369fa8eff)" style="fill: none; stroke: #1f77b4; stroke-width: 1.5; stroke-linecap: square"/>
   </g>
   <g id="patch_3">
    <path d="M 80.03625 522.25225 
L 80.03625 44.184 
" style="fill: none; stroke: #000000; stroke-width: 0.8; stroke-linejoin: miter; stroke-linecap: square"/>
   </g>
   <g id="patch_4">
    <path d="M 1181.25 522.25225 
L 1181.25 44.184 
" style="fill: none; stroke: #000000; stroke-width: 0.8; stroke-linejoin: miter; stroke-linecap: square"/>
   </g>
   <g id="patch_5">
    <path d="M 80.03625 522.25225 
L 1181.25 522.25225 
" style="fill: none; stroke: #000000; stroke-width: 0.8; stroke-linejoin: miter; stroke-linecap: square"/>
   </g>
   <g id="patch_6">
    <path d="M 80.03625 44.184 
L 1181.25 44.184 
" style="fill: none; stroke: #000000; stroke-width: 0.8; stroke-linejoin: miter; stroke-linecap: square"/>
   </g>
   <g id="text_16">
    <!-- Buffer Size in Network.node[2].lnk[0] -->
    <g transform="translate(519.051563 38.184)scale(0.12 -0.12)">
     <defs>
      <path id="DejaVuSans-42" d="M 1259 2228 
L 1259 519 
L 2272 519 
Q 2781 519 3026 730 
Q 3272 941 3272 1375 
Q 3272 1813 3026 2020 
Q 2781 2228 2272 2228 
L 1259 2228 
z
M 1259 4147 
L 1259 2741 
L 2194 2741 
Q 2656 2741 2882 2914 
Q 3109 3088 3109 3444 
Q 3109 3797 2882 3972 
Q 2656 4147 2194 4147 
L 1259 4147 
z
M 628 4666 
L 2241 4666 
Q 2963 4666 3353 4366 
Q 3744 4066 3744 3513 
Q 3744 3084 3544 2831 
Q 3344 2578 2956 2516 
Q 3422 2416 3680 2098 
Q 3938 1781 3938 1306 
Q 3938 681 3513 340 
Q 3088 0 2303 0 
L 628 0 
L 628 4666 
z
" transform="scale(0.015625)"/>
      <path id="DejaVuSans-75" d="M 544 1381 
L 544 3500 
L 1119 3500 
L 1119 1403 
Q 1119 906 1312 657 
Q 1506 409 1894 409 
Q 2359 409 2629 706 
Q 2900 1003 2900 1516 
L 2900 3500 
L 3475 3500 
L 3475 0 
L 2900 0 
L 2900 538 
Q 2691 219 2414 64 
Q 2138 -91 1772 -91 
Q 1169 -91 856 284 
Q 544 659 544 1381 
z
M 1991 3584 
L 1991 3584 
z
" transform="scale(0.015625)"/>
      <path id="DejaVuSans-66" d="M 2375 4863 
L 2375 4384 
L 1825 4384 
Q 1516 4384 1395 4259 
Q 1275 4134 1275 3809 
L 1275 3500 
L 2222 3500 
L 2222 3053 
L 1275 3053 
L 1275 0 
L 697 0 
L 697 3053 
L 147 3053 
L 147 3500 
L 697 3500 
L 697 3744 
Q 697 4328 969 4595 
Q 1241 4863 1831 4863 
L 2375 4863 
z
" transform="scale(0.015625)"/>
      <path id="DejaVuSans-65" d="M 3597 1894 
L 3597 1613 
L 953 1613 
Q 991 1019 1311 708 
Q 1631 397 2203 397 
Q 2534 397 2845 478 
Q 3156 559 3463 722 
L 3463 178 
Q 3153 47 2828 -22 
Q 2503 -91 2169 -91 
Q 1331 -91 842 396 
Q 353 884 353 1716 
Q 353 2575 817 3079 
Q 1281 3584 2069 3584 
Q 2775 3584 3186 3129 
Q 3597 2675 3597 1894 
z
M 3022 2063 
Q 3016 2534 2758 2815 
Q 2500 3097 2075 3097 
Q 1594 3097 1305 2825 
Q 1016 2553 972 2059 
L 3022 2063 
z
" transform="scale(0.015625)"/>
      <path id="DejaVuSans-72" d="M 2631 2963 
Q 2534 3019 2420 3045 
Q 2306 3072 2169 3072 
Q 1681 3072 1420 2755 
Q 1159 2438 1159 1844 
L 1159 0 
L 581 0 
L 581 3500 
L 1159 3500 
L 1159 2956 
Q 1341 3275 1631 3429 
Q 1922 3584 2338 3584 
Q 2397 3584 2469 3576 
Q 2541 3569 2628 3553 
L 2631 2963 
z
" transform="scale(0.015625)"/>
      <path id="DejaVuSans-20" transform="scale(0.015625)"/>
      <path id="DejaVuSans-53" d="M 3425 4513 
L 3425 3897 
Q 3066 4069 2747 4153 
Q 2428 4238 2131 4238 
Q 1616 4238 1336 4038 
Q 1056 3838 1056 3469 
Q 1056 3159 1242 3001 
Q 1428 2844 1947 2747 
L 2328 2669 
Q 3034 2534 3370 2195 
Q 3706 1856 3706 1288 
Q 3706 609 3251 259 
Q 2797 -91 1919 -91 
Q 1588 -91 1214 -16 
Q 841 59 441 206 
L 441 856 
Q 825 641 1194 531 
Q 1563 422 1919 422 
Q 2459 422 2753 634 
Q 3047 847 3047 1241 
Q 3047 1584 2836 1778 
Q 2625 1972 2144 2069 
L 1759 2144 
Q 1053 2284 737 2584 
Q 422 2884 422 3419 
Q 422 4038 858 4394 
Q 1294 4750 2059 4750 
Q 2388 4750 2728 4690 
Q 3069 4631 3425 4513 
z
" transform="scale(0.015625)"/>
      <path id="DejaVuSans-69" d="M 603 3500 
L 1178 3500 
L 1178 0 
L 603 0 
L 603 3500 
z
M 603 4863 
L 1178 4863 
L 1178 4134 
L 603 4134 
L 603 4863 
z
" transform="scale(0.015625)"/>
      <path id="DejaVuSans-7a" d="M 353 3500 
L 3084 3500 
L 3084 2975 
L 922 459 
L 3084 459 
L 3084 0 
L 275 0 
L 275 525 
L 2438 3041 
L 353 3041 
L 353 3500 
z
" transform="scale(0.015625)"/>
      <path id="DejaVuSans-6e" d="M 3513 2113 
L 3513 0 
L 2938 0 
L 2938 2094 
Q 2938 2591 2744 2837 
Q 2550 3084 2163 3084 
Q 1697 3084 1428 2787 
Q 1159 2491 1159 1978 
L 1159 0 
L 581 0 
L 581 3500 
L 1159 3500 
L 1159 2956 
Q 1366 3272 1645 3428 
Q 1925 3584 2291 3584 
Q 2894 3584 3203 3211 
Q 3513 2838 3513 2113 
z
" transform="scale(0.015625)"/>
      <path id="DejaVuSans-4e" d="M 628 4666 
L 1478 4666 
L 3547 763 
L 3547 4666 
L 4159 4666 
L 4159 0 
L 3309 0 
L 1241 3903 
L 1241 0 
L 628 0 
L 628 4666 
z
" transform="scale(0.015625)"/>
      <path id="DejaVuSans-74" d="M 1172 4494 
L 1172 3500 
L 2356 3500 
L 2356 3053 
L 1172 3053 
L 1172 1153 
Q 1172 725 1289 603 
Q 1406 481 1766 481 
L 2356 481 
L 2356 0 
L 1766 0 
Q 1100 0 847 248 
Q 594 497 594 1153 
L 594 3053 
L 172 3053 
L 172 3500 
L 594 3500 
L 594 4494 
L 1172 4494 
z
" transform="scale(0.015625)"/>
      <path id="DejaVuSans-77" d="M 269 3500 
L 844 3500 
L 1563 769 
L 2278 3500 
L 2956 3500 
L 3675 769 
L 4391 3500 
L 4966 3500 
L 4050 0 
L 3372 0 
L 2619 2869 
L 1863 0 
L 1184 0 
L 269 3500 
z
" transform="scale(0.015625)"/>
      <path id="DejaVuSans-6f" d="M 1959 3097 
Q 1497 3097 1228 2736 
Q 959 2375 959 1747 
Q 959 1119 1226 758 
Q 1494 397 1959 397 
Q 2419 397 2687 759 
Q 2956 1122 2956 1747 
Q 2956 2369 2687 2733 
Q 2419 3097 1959 3097 
z
M 1959 3584 
Q 2709 3584 3137 3096 
Q 3566 2609 3566 1747 
Q 3566 888 3137 398 
Q 2709 -91 1959 -91 
Q 1206 -91 779 398 
Q 353 888 353 1747 
Q 353 2609 779 3096 
Q 1206 3584 1959 3584 
z
" transform="scale(0.015625)"/>
      <path id="DejaVuSans-6b" d="M 581 4863 
L 1159 4863 
L 1159 1991 
L 2875 3500 
L 3609 3500 
L 1753 1863 
L 3688 0 
L 2938 0 
L 1159 1709 
L 1159 0 
L 581 0 
L 581 4863 
z
" transform="scale(0.015625)"/>
      <path id="DejaVuSans-2e" d="M 684 794 
L 1344 794 
L 1344 0 
L 684 0 
L 684 794 
z
" transform="scale(0.015625)"/>
      <path id="DejaVuSans-64" d="M 2906 2969 
L 2906 4863 
L 3481 4863 
L 3481 0 
L 2906 0 
L 2906 525 
Q 2725 213 2448 61 
Q 2172 -91 1784 -91 
Q 1150 -91 751 415 
Q 353 922 353 1747 
Q 353 2572 751 3078 
Q 1150 3584 1784 3584 
Q 2172 3584 2448 3432 
Q 2725 3281 2906 2969 
z
M 947 1747 
Q 947 1113 1208 752 
Q 1469 391 1925 391 
Q 2381 391 2643 752 
Q 2906 1113 2906 1747 
Q 2906 2381 2643 2742 
Q 2381 3103 1925 3103 
Q 1469 3103 1208 2742 
Q 947 2381 947 1747 
z
" transform="scale(0.015625)"/>
      <path id="DejaVuSans-5b" d="M 550 4863 
L 1875 4863 
L 1875 4416 
L 1125 4416 
L 1125 -397 
L 1875 -397 
L 1875 -844 
L 550 -844 
L 550 4863 
z
" transform="scale(0.015625)"/>
      <path id="DejaVuSans-5d" d="M 1947 4863 
L 1947 -844 
L 622 -844 
L 622 -397 
L 1369 -397 
L 1369 4416 
L 622 4416 
L 622 4863 
L 1947 4863 
z
" transform="scale(0.015625)"/>
      <path id="DejaVuSans-6c" d="M 603 4863 
L 1178 4863 
L 1178 0 
L 603 0 
L 603 4863 
z
" transform="scale(0.015625)"/>
     </defs>
     <use xlink:href="#DejaVuSans-42"/>
     <use xlink:href="#DejaVuSans-75" x="68.603516"/>
     <use xlink:href="#DejaVuSans-66" x="131.982422"/>
     <use xlink:href="#DejaVuSans-66" x="167.1875"/>
     <use xlink:href="#DejaVuSans-65" x="202.392578"/>
     <use xlink:href="#DejaVuSans-72" x="263.916016"/>
     <use xlink:href="#DejaVuSans-20" x="305.029297"/>
     <use xlink:href="#DejaVuSans-53" x="336.816406"/>
     <use xlink:href="#DejaVuSans-69" x="400.292969"/>
     <use xlink:href="#DejaVuSans-7a" x="428.076172"/>
     <use xlink:href="#DejaVuSans-65" x="480.566406"/>
     <use xlink:href="#DejaVuSans-20" x="542.089844"/>
     <use xlink:href="#DejaVuSans-69" x="573.876953"/>
     <use xlink:href="#DejaVuSans-6e" x="601.660156"/>
     <use xlink:href="#DejaVuSans-20" x="665.039062"/>
     <use xlink:href="#DejaVuSans-4e" x="696.826172"/>
     <use xlink:href="#DejaVuSans-65" x="771.630859"/>
     <use xlink:href="#DejaVuSans-74" x="833.154297"/>
     <use xlink:href="#DejaVuSans-77" x="872.363281"/>
     <use xlink:href="#DejaVuSans-6f" x="954.150391"/>
     <use xlink:href="#DejaVuSans-72" x="1015.332031"/>
     <use xlink:href="#DejaVuSans-6b" x="1056.445312"/>
     <use xlink:href="#DejaVuSans-2e" x="1114.355469"/>
     <use xlink:href="#DejaVuSans-6e" x="1146.142578"/>
     <use xlink:href="#DejaVuSans-6f" x="1209.521484"/>
     <use xlink:href="#DejaVuSans-64" x="1270.703125"/>
     <use xlink:href="#DejaVuSans-65" x="1334.179688"/>
     <use xlink:href="#DejaVuSans-5b" x="1395.703125"/>
     <use xlink:href="#DejaVuSans-32" x="1434.716797"/>
     <use xlink:href="#DejaVuSans-5d" x="1498.339844"/>
     <use xlink:href="#DejaVuSans-2e" x="1537.353516"/>
     <use xlink:href="#DejaVuSans-6c" x="1569.140625"/>
     <use xlink:href="#DejaVuSans-6e" x="1596.923828"/>
     <use xlink:href="#DejaVuSans-6b" x="1660.302734"/>
     <use xlink:href="#DejaVuSans-5b" x="1718.212891"/>
     <use xlink:href="#DejaVuSans-30" x="1757.226562"/>
     <use xlink:href="#DejaVuSans-5d" x="1820.849609"/>
    </g>
   </g>
   <g id="legend_1">
    <g id="patch_7">
     <path d="M 954.264063 66.862125 
L 1176.25 66.862125 
L 1176.25 49.184 
L 954.264063 49.184 
z
" style="fill: #ffffff; opacity: 0.8; stroke: #cccccc; stroke-linejoin: miter"/>
    </g>
    <g id="line2d_32">
     <path d="M 958.264063 57.282438 
L 968.264063 57.282438 
L 978.264063 57.282438 
" style="fill: none; stroke: #1f77b4; stroke-width: 1.5; stroke-linecap: square"/>
    </g>
    <g id="text_17">
     <!-- Buffer Size in Network.node[2].lnk[0] -->
     <g transform="translate(986.264063 60.782438)scale(0.1 -0.1)">
      <use xlink:href="#DejaVuSans-42"/>
      <use xlink:href="#DejaVuSans-75" x="68.603516"/>
      <use xlink:href="#DejaVuSans-66" x="131.982422"/>
      <use xlink:href="#DejaVuSans-66" x="167.1875"/>
      <use xlink:href="#DejaVuSans-65" x="202.392578"/>
      <use xlink:href="#DejaVuSans-72" x="263.916016"/>
      <use xlink:href="#DejaVuSans-20" x="305.029297"/>
      <use xlink:href="#DejaVuSans-53" x="336.816406"/>
      <use xlink:href="#DejaVuSans-69" x="400.292969"/>
      <use xlink:href="#DejaVuSans-7a" x="428.076172"/>
      <use xlink:href="#DejaVuSans-65" x="480.566406"/>
      <use xlink:href="#DejaVuSans-20" x="542.089844"/>
      <use xlink:href="#DejaVuSans-69" x="573.876953"/>
      <use xlink:href="#DejaVuSans-6e" x="601.660156"/>
      <use xlink:href="#DejaVuSans-20" x="665.039062"/>
      <use xlink:href="#DejaVuSans-4e" x="696.826172"/>
      <use xlink:href="#DejaVuSans-65" x="771.630859"/>
      <use xlink:href="#DejaVuSans-74" x="833.154297"/>
      <use xlink:href="#DejaVuSans-77" x="872.363281"/>
      <use xlink:href="#DejaVuSans-6f" x="954.150391"/>
      <use xlink:href="#DejaVuSans-72" x="1015.332031"/>
      <use xlink:href="#DejaVuSans-6b" x="1056.445312"/>
      <use xlink:href="#DejaVuSans-2e" x="1114.355469"/>
      <use xlink:href="#DejaVuSans-6e" x="1146.142578"/>
      <use xlink:href="#DejaVuSans-6f" x="1209.521484"/>
      <use xlink:href="#DejaVuSans-64" x="1270.703125"/>
      <use xlink:href="#DejaVuSans-65" x="1334.179688"/>
      <use xlink:href="#DejaVuSans-5b" x="1395.703125"/>
      <use xlink:href="#DejaVuSans-32" x="1434.716797"/>
      <use xlink:href="#DejaVuSans-5d" x="1498.339844"/>
      <use xlink:href="#DejaVuSans-2e" x="1537.353516"/>
      <use xlink:href="#DejaVuSans-6c" x="1569.140625"/>
      <use xlink:href="#DejaVuSans-6e" x="1596.923828"/>
      <use xlink:href="#DejaVuSans-6b" x="1660.302734"/>
      <use xlink:href="#DejaVuSans-5b" x="1718.212891"/>
      <use xlink:href="#DejaVuSans-30" x="1757.226562"/>
      <use xlink:href="#DejaVuSans-5d" x="1820.849609"/>
     </g>
    </g>
   </g>
  </g>
 </g>
 <defs>
  <clipPath id="p1369fa8eff">
   <rect x="80.03625" y="44.184" width="1101.21375" height="478.06825"/>
  </clipPath>
 </defs>
</svg>
