<?xml version="1.0" encoding="UTF-8"?><svg xmlns="http://www.w3.org/2000/svg" xmlns:xlink="http://www.w3.org/1999/xlink" stroke-dasharray="none" shape-rendering="auto" font-family="'Dialog'" width="1022" text-rendering="auto" fill-opacity="1" contentScriptType="text/ecmascript" color-interpolation="auto" color-rendering="auto" preserveAspectRatio="xMidYMid meet" font-size="12" fill="black" stroke="black" image-rendering="auto" stroke-miterlimit="10" zoomAndPan="magnify" version="1.0" stroke-linecap="square" stroke-linejoin="miter" contentStyleType="text/css" font-style="normal" height="580" stroke-width="1" stroke-dashoffset="0" font-weight="normal" stroke-opacity="1">
    <!--Generated by the Batik Graphics2D SVG Generator-->
    <defs id="genericDefs"/>
    <g>
        <defs id="defs1">
            <clipPath clipPathUnits="userSpaceOnUse" id="clipPath1">
                <path d="M28 38 L994 38 L994 558 L28 558 L28 38 Z"/>
            </clipPath>
            <clipPath clipPathUnits="userSpaceOnUse" id="clipPath2">
                <path d="M-1 -1 L1023 -1 L1023 581 L-1 581 L-1 -1 Z"/>
            </clipPath>
            <clipPath clipPathUnits="userSpaceOnUse" id="clipPath3">
                <path d="M848 43 L990 43 L990 69 L848 69 L848 43 Z"/>
            </clipPath>
        </defs>
        <g font-size="14" fill="white" text-rendering="optimizeLegibility" font-family="'Ubuntu'" stroke-linejoin="round" stroke="white" stroke-width="0" stroke-miterlimit="0">
            <rect x="29" y="39" clip-path="url(#clipPath1)" width="964" height="518" stroke="none"/>
        </g>
        <g stroke-linecap="butt" font-size="14" fill="rgb(204,204,204)" text-rendering="optimizeLegibility" font-family="'Ubuntu'" stroke-dasharray="3,3" stroke="rgb(204,204,204)">
            <line clip-path="url(#clipPath1)" fill="none" x1="29" x2="29" y1="39" y2="557"/>
            <line clip-path="url(#clipPath1)" fill="none" x1="124" x2="124" y1="39" y2="557"/>
            <line clip-path="url(#clipPath1)" fill="none" x1="219" x2="219" y1="39" y2="557"/>
            <line clip-path="url(#clipPath1)" fill="none" x1="315" x2="315" y1="39" y2="557"/>
            <line clip-path="url(#clipPath1)" fill="none" x1="410" x2="410" y1="39" y2="557"/>
            <line clip-path="url(#clipPath1)" fill="none" x1="505" x2="505" y1="39" y2="557"/>
            <line clip-path="url(#clipPath1)" fill="none" x1="601" x2="601" y1="39" y2="557"/>
            <line clip-path="url(#clipPath1)" fill="none" x1="696" x2="696" y1="39" y2="557"/>
            <line clip-path="url(#clipPath1)" fill="none" x1="791" x2="791" y1="39" y2="557"/>
            <line clip-path="url(#clipPath1)" fill="none" x1="887" x2="887" y1="39" y2="557"/>
            <line clip-path="url(#clipPath1)" fill="none" x1="982" x2="982" y1="39" y2="557"/>
            <line clip-path="url(#clipPath1)" fill="none" x1="29" x2="993" y1="557" y2="557"/>
            <line clip-path="url(#clipPath1)" fill="none" x1="29" x2="993" y1="446" y2="446"/>
            <line clip-path="url(#clipPath1)" fill="none" x1="29" x2="993" y1="335" y2="335"/>
            <line clip-path="url(#clipPath1)" fill="none" x1="29" x2="993" y1="224" y2="224"/>
            <line clip-path="url(#clipPath1)" fill="none" x1="29" x2="993" y1="113" y2="113"/>
        </g>
        <g stroke-linecap="butt" font-size="14" fill="rgb(31,119,180)" text-rendering="optimizeLegibility" font-family="'Ubuntu'" stroke="rgb(31,119,180)" stroke-width="1.5">
            <line clip-path="url(#clipPath1)" fill="none" x1="31" x2="33" y1="335" y2="335"/>
            <line clip-path="url(#clipPath1)" fill="none" x1="33" x2="37" y1="335" y2="335"/>
            <line clip-path="url(#clipPath1)" fill="none" x1="37" x2="42" y1="335" y2="335"/>
            <line clip-path="url(#clipPath1)" fill="none" x1="42" x2="45" y1="335" y2="335"/>
            <line clip-path="url(#clipPath1)" fill="none" x1="45" x2="50" y1="335" y2="335"/>
            <line clip-path="url(#clipPath1)" fill="none" x1="50" x2="53" y1="335" y2="335"/>
            <line clip-path="url(#clipPath1)" fill="none" x1="53" x2="58" y1="335" y2="335"/>
            <line clip-path="url(#clipPath1)" fill="none" x1="58" x2="60" y1="335" y2="335"/>
            <line clip-path="url(#clipPath1)" fill="none" x1="60" x2="62" y1="335" y2="335"/>
            <line clip-path="url(#clipPath1)" fill="none" x1="62" x2="65" y1="335" y2="335"/>
            <line clip-path="url(#clipPath1)" fill="none" x1="65" x2="67" y1="335" y2="335"/>
            <line clip-path="url(#clipPath1)" fill="none" x1="67" x2="68" y1="335" y2="335"/>
            <line clip-path="url(#clipPath1)" fill="none" x1="68" x2="69" y1="335" y2="335"/>
            <line clip-path="url(#clipPath1)" fill="none" x1="69" x2="76" y1="335" y2="335"/>
            <line clip-path="url(#clipPath1)" fill="none" x1="76" x2="86" y1="335" y2="335"/>
            <line clip-path="url(#clipPath1)" fill="none" x1="86" x2="88" y1="335" y2="335"/>
            <line clip-path="url(#clipPath1)" fill="none" x1="88" x2="90" y1="335" y2="335"/>
            <line clip-path="url(#clipPath1)" fill="none" x1="90" x2="94" y1="335" y2="335"/>
            <line clip-path="url(#clipPath1)" fill="none" x1="94" x2="99" y1="335" y2="335"/>
            <line clip-path="url(#clipPath1)" fill="none" x1="99" x2="101" y1="335" y2="335"/>
            <line clip-path="url(#clipPath1)" fill="none" x1="101" x2="103" y1="335" y2="335"/>
            <line clip-path="url(#clipPath1)" fill="none" x1="103" x2="105" y1="335" y2="335"/>
            <line clip-path="url(#clipPath1)" fill="none" x1="105" x2="107" y1="335" y2="335"/>
            <line clip-path="url(#clipPath1)" fill="none" x1="107" x2="114" y1="335" y2="335"/>
            <line clip-path="url(#clipPath1)" fill="none" x1="114" x2="119" y1="335" y2="335"/>
            <line clip-path="url(#clipPath1)" fill="none" x1="119" x2="120" y1="335" y2="335"/>
            <line clip-path="url(#clipPath1)" fill="none" x1="120" x2="121" y1="335" y2="335"/>
            <line clip-path="url(#clipPath1)" fill="none" x1="121" x2="124" y1="335" y2="335"/>
            <line clip-path="url(#clipPath1)" fill="none" x1="124" x2="125" y1="335" y2="335"/>
            <line clip-path="url(#clipPath1)" fill="none" x1="125" x2="131" y1="335" y2="335"/>
            <line clip-path="url(#clipPath1)" fill="none" x1="131" x2="140" y1="335" y2="335"/>
            <line clip-path="url(#clipPath1)" fill="none" x1="140" x2="144" y1="335" y2="335"/>
            <line clip-path="url(#clipPath1)" fill="none" x1="144" x2="150" y1="335" y2="335"/>
            <line clip-path="url(#clipPath1)" fill="none" x1="150" x2="156" y1="335" y2="335"/>
            <line clip-path="url(#clipPath1)" fill="none" x1="156" x2="167" y1="335" y2="335"/>
            <line clip-path="url(#clipPath1)" fill="none" x1="167" x2="169" y1="335" y2="335"/>
            <line clip-path="url(#clipPath1)" fill="none" x1="169" x2="173" y1="335" y2="335"/>
            <line clip-path="url(#clipPath1)" fill="none" x1="173" x2="178" y1="335" y2="335"/>
            <line clip-path="url(#clipPath1)" fill="none" x1="178" x2="180" y1="335" y2="335"/>
            <line clip-path="url(#clipPath1)" fill="none" x1="180" x2="182" y1="335" y2="335"/>
            <line clip-path="url(#clipPath1)" fill="none" x1="182" x2="186" y1="335" y2="335"/>
            <line clip-path="url(#clipPath1)" fill="none" x1="186" x2="189" y1="335" y2="335"/>
            <line clip-path="url(#clipPath1)" fill="none" x1="189" x2="190" y1="335" y2="335"/>
            <line clip-path="url(#clipPath1)" fill="none" x1="190" x2="193" y1="335" y2="335"/>
            <line clip-path="url(#clipPath1)" fill="none" x1="193" x2="196" y1="335" y2="335"/>
            <line clip-path="url(#clipPath1)" fill="none" x1="196" x2="199" y1="335" y2="335"/>
            <line clip-path="url(#clipPath1)" fill="none" x1="199" x2="202" y1="335" y2="335"/>
            <line clip-path="url(#clipPath1)" fill="none" x1="202" x2="210" y1="335" y2="335"/>
            <line clip-path="url(#clipPath1)" fill="none" x1="210" x2="214" y1="335" y2="335"/>
            <line clip-path="url(#clipPath1)" fill="none" x1="214" x2="216" y1="335" y2="335"/>
            <line clip-path="url(#clipPath1)" fill="none" x1="216" x2="218" y1="335" y2="335"/>
            <line clip-path="url(#clipPath1)" fill="none" x1="218" x2="220" y1="335" y2="335"/>
            <line clip-path="url(#clipPath1)" fill="none" x1="220" x2="221" y1="335" y2="335"/>
            <line clip-path="url(#clipPath1)" fill="none" x1="221" x2="225" y1="335" y2="335"/>
            <line clip-path="url(#clipPath1)" fill="none" x1="225" x2="229" y1="335" y2="335"/>
            <line clip-path="url(#clipPath1)" fill="none" x1="229" x2="231" y1="335" y2="335"/>
            <line clip-path="url(#clipPath1)" fill="none" x1="231" x2="232" y1="335" y2="335"/>
            <line clip-path="url(#clipPath1)" fill="none" x1="232" x2="234" y1="335" y2="335"/>
            <line clip-path="url(#clipPath1)" fill="none" x1="234" x2="235" y1="335" y2="113"/>
            <line clip-path="url(#clipPath1)" fill="none" x1="235" x2="236" y1="113" y2="335"/>
            <line clip-path="url(#clipPath1)" fill="none" x1="236" x2="238" y1="335" y2="335"/>
            <line clip-path="url(#clipPath1)" fill="none" x1="238" x2="239" y1="335" y2="335"/>
            <line clip-path="url(#clipPath1)" fill="none" x1="239" x2="242" y1="335" y2="335"/>
            <line clip-path="url(#clipPath1)" fill="none" x1="242" x2="245" y1="335" y2="335"/>
            <line clip-path="url(#clipPath1)" fill="none" x1="245" x2="246" y1="335" y2="335"/>
            <line clip-path="url(#clipPath1)" fill="none" x1="246" x2="255" y1="335" y2="335"/>
            <line clip-path="url(#clipPath1)" fill="none" x1="255" x2="261" y1="335" y2="335"/>
            <line clip-path="url(#clipPath1)" fill="none" x1="261" x2="265" y1="335" y2="335"/>
            <line clip-path="url(#clipPath1)" fill="none" x1="265" x2="266" y1="335" y2="335"/>
            <line clip-path="url(#clipPath1)" fill="none" x1="266" x2="268" y1="335" y2="335"/>
            <line clip-path="url(#clipPath1)" fill="none" x1="268" x2="270" y1="335" y2="335"/>
            <line clip-path="url(#clipPath1)" fill="none" x1="270" x2="272" y1="335" y2="335"/>
            <line clip-path="url(#clipPath1)" fill="none" x1="272" x2="279" y1="335" y2="335"/>
            <line clip-path="url(#clipPath1)" fill="none" x1="279" x2="282" y1="335" y2="335"/>
            <line clip-path="url(#clipPath1)" fill="none" x1="282" x2="283" y1="335" y2="335"/>
            <line clip-path="url(#clipPath1)" fill="none" x1="283" x2="293" y1="335" y2="335"/>
            <line clip-path="url(#clipPath1)" fill="none" x1="293" x2="296" y1="335" y2="335"/>
            <line clip-path="url(#clipPath1)" fill="none" x1="296" x2="299" y1="335" y2="335"/>
            <line clip-path="url(#clipPath1)" fill="none" x1="299" x2="302" y1="335" y2="335"/>
            <line clip-path="url(#clipPath1)" fill="none" x1="302" x2="303" y1="335" y2="335"/>
            <line clip-path="url(#clipPath1)" fill="none" x1="303" x2="304" y1="335" y2="335"/>
            <line clip-path="url(#clipPath1)" fill="none" x1="304" x2="305" y1="335" y2="335"/>
            <line clip-path="url(#clipPath1)" fill="none" x1="305" x2="309" y1="335" y2="335"/>
            <line clip-path="url(#clipPath1)" fill="none" x1="309" x2="310" y1="335" y2="335"/>
            <line clip-path="url(#clipPath1)" fill="none" x1="310" x2="312" y1="335" y2="335"/>
            <line clip-path="url(#clipPath1)" fill="none" x1="312" x2="314" y1="335" y2="335"/>
            <line clip-path="url(#clipPath1)" fill="none" x1="314" x2="315" y1="335" y2="335"/>
            <line clip-path="url(#clipPath1)" fill="none" x1="315" x2="317" y1="335" y2="335"/>
            <line clip-path="url(#clipPath1)" fill="none" x1="317" x2="319" y1="335" y2="335"/>
            <line clip-path="url(#clipPath1)" fill="none" x1="319" x2="322" y1="335" y2="335"/>
            <line clip-path="url(#clipPath1)" fill="none" x1="322" x2="335" y1="335" y2="335"/>
            <line clip-path="url(#clipPath1)" fill="none" x1="335" x2="344" y1="335" y2="335"/>
            <line clip-path="url(#clipPath1)" fill="none" x1="344" x2="347" y1="335" y2="335"/>
            <line clip-path="url(#clipPath1)" fill="none" x1="347" x2="348" y1="335" y2="335"/>
            <line clip-path="url(#clipPath1)" fill="none" x1="348" x2="351" y1="335" y2="335"/>
            <line clip-path="url(#clipPath1)" fill="none" x1="351" x2="367" y1="335" y2="335"/>
            <line clip-path="url(#clipPath1)" fill="none" x1="367" x2="370" y1="335" y2="335"/>
            <line clip-path="url(#clipPath1)" fill="none" x1="370" x2="372" y1="335" y2="335"/>
            <line clip-path="url(#clipPath1)" fill="none" x1="372" x2="373" y1="335" y2="335"/>
            <line clip-path="url(#clipPath1)" fill="none" x1="373" x2="374" y1="335" y2="335"/>
            <line clip-path="url(#clipPath1)" fill="none" x1="374" x2="376" y1="335" y2="335"/>
            <line clip-path="url(#clipPath1)" fill="none" x1="376" x2="378" y1="335" y2="335"/>
            <line clip-path="url(#clipPath1)" fill="none" x1="378" x2="379" y1="335" y2="335"/>
            <line clip-path="url(#clipPath1)" fill="none" x1="379" x2="382" y1="335" y2="335"/>
            <line clip-path="url(#clipPath1)" fill="none" x1="382" x2="383" y1="335" y2="335"/>
            <line clip-path="url(#clipPath1)" fill="none" x1="383" x2="384" y1="335" y2="335"/>
            <line clip-path="url(#clipPath1)" fill="none" x1="384" x2="387" y1="335" y2="335"/>
            <line clip-path="url(#clipPath1)" fill="none" x1="387" x2="390" y1="335" y2="335"/>
            <line clip-path="url(#clipPath1)" fill="none" x1="390" x2="391" y1="335" y2="335"/>
            <line clip-path="url(#clipPath1)" fill="none" x1="391" x2="396" y1="335" y2="335"/>
            <line clip-path="url(#clipPath1)" fill="none" x1="396" x2="405" y1="335" y2="335"/>
            <line clip-path="url(#clipPath1)" fill="none" x1="405" x2="406" y1="335" y2="335"/>
            <line clip-path="url(#clipPath1)" fill="none" x1="406" x2="409" y1="335" y2="335"/>
            <line clip-path="url(#clipPath1)" fill="none" x1="409" x2="414" y1="335" y2="335"/>
            <line clip-path="url(#clipPath1)" fill="none" x1="414" x2="415" y1="335" y2="113"/>
            <line clip-path="url(#clipPath1)" fill="none" x1="415" x2="417" y1="113" y2="335"/>
            <line clip-path="url(#clipPath1)" fill="none" x1="417" x2="423" y1="335" y2="335"/>
            <line clip-path="url(#clipPath1)" fill="none" x1="423" x2="426" y1="335" y2="335"/>
            <line clip-path="url(#clipPath1)" fill="none" x1="426" x2="436" y1="335" y2="335"/>
            <line clip-path="url(#clipPath1)" fill="none" x1="436" x2="447" y1="335" y2="335"/>
            <line clip-path="url(#clipPath1)" fill="none" x1="447" x2="453" y1="335" y2="335"/>
            <line clip-path="url(#clipPath1)" fill="none" x1="453" x2="455" y1="335" y2="335"/>
            <line clip-path="url(#clipPath1)" fill="none" x1="455" x2="457" y1="335" y2="335"/>
            <line clip-path="url(#clipPath1)" fill="none" x1="457" x2="468" y1="335" y2="335"/>
            <line clip-path="url(#clipPath1)" fill="none" x1="468" x2="471" y1="335" y2="335"/>
            <line clip-path="url(#clipPath1)" fill="none" x1="471" x2="472" y1="335" y2="335"/>
            <line clip-path="url(#clipPath1)" fill="none" x1="472" x2="476" y1="335" y2="335"/>
            <line clip-path="url(#clipPath1)" fill="none" text-rendering="geometricPrecision" x1="476" x2="476" y1="335" y2="113" shape-rendering="crispEdges"/>
            <line clip-path="url(#clipPath1)" fill="none" x1="476" x2="478" y1="113" y2="335"/>
            <line clip-path="url(#clipPath1)" fill="none" x1="478" x2="479" y1="335" y2="335"/>
            <line clip-path="url(#clipPath1)" fill="none" x1="479" x2="490" y1="335" y2="335"/>
            <line clip-path="url(#clipPath1)" fill="none" x1="490" x2="492" y1="335" y2="335"/>
            <line clip-path="url(#clipPath1)" fill="none" x1="492" x2="493" y1="335" y2="335"/>
            <line clip-path="url(#clipPath1)" fill="none" x1="493" x2="495" y1="335" y2="335"/>
            <line clip-path="url(#clipPath1)" fill="none" x1="495" x2="498" y1="335" y2="335"/>
            <line clip-path="url(#clipPath1)" fill="none" x1="498" x2="499" y1="335" y2="335"/>
            <line clip-path="url(#clipPath1)" fill="none" x1="499" x2="505" y1="335" y2="335"/>
            <line clip-path="url(#clipPath1)" fill="none" x1="505" x2="507" y1="335" y2="335"/>
            <line clip-path="url(#clipPath1)" fill="none" x1="507" x2="514" y1="335" y2="335"/>
            <line clip-path="url(#clipPath1)" fill="none" x1="514" x2="515" y1="335" y2="335"/>
            <line clip-path="url(#clipPath1)" fill="none" x1="515" x2="518" y1="335" y2="335"/>
            <line clip-path="url(#clipPath1)" fill="none" x1="518" x2="521" y1="335" y2="335"/>
            <line clip-path="url(#clipPath1)" fill="none" x1="521" x2="523" y1="335" y2="335"/>
            <line clip-path="url(#clipPath1)" fill="none" x1="523" x2="529" y1="335" y2="335"/>
            <line clip-path="url(#clipPath1)" fill="none" x1="529" x2="530" y1="335" y2="335"/>
            <line clip-path="url(#clipPath1)" fill="none" x1="530" x2="532" y1="335" y2="335"/>
            <line clip-path="url(#clipPath1)" fill="none" x1="532" x2="534" y1="335" y2="335"/>
            <line clip-path="url(#clipPath1)" fill="none" x1="534" x2="541" y1="335" y2="335"/>
            <line clip-path="url(#clipPath1)" fill="none" x1="541" x2="549" y1="335" y2="335"/>
            <line clip-path="url(#clipPath1)" fill="none" x1="549" x2="551" y1="335" y2="335"/>
            <line clip-path="url(#clipPath1)" fill="none" x1="551" x2="559" y1="335" y2="335"/>
            <line clip-path="url(#clipPath1)" fill="none" x1="559" x2="560" y1="335" y2="335"/>
            <line clip-path="url(#clipPath1)" fill="none" x1="560" x2="561" y1="335" y2="335"/>
            <line clip-path="url(#clipPath1)" fill="none" x1="561" x2="564" y1="335" y2="335"/>
            <line clip-path="url(#clipPath1)" fill="none" x1="564" x2="569" y1="335" y2="335"/>
            <line clip-path="url(#clipPath1)" fill="none" x1="569" x2="570" y1="335" y2="335"/>
            <line clip-path="url(#clipPath1)" fill="none" x1="570" x2="573" y1="335" y2="335"/>
            <line clip-path="url(#clipPath1)" fill="none" x1="573" x2="576" y1="335" y2="335"/>
            <line clip-path="url(#clipPath1)" fill="none" x1="576" x2="582" y1="335" y2="335"/>
            <line clip-path="url(#clipPath1)" fill="none" x1="582" x2="583" y1="335" y2="335"/>
            <line clip-path="url(#clipPath1)" fill="none" x1="583" x2="584" y1="335" y2="335"/>
            <line clip-path="url(#clipPath1)" fill="none" x1="584" x2="585" y1="335" y2="335"/>
            <line clip-path="url(#clipPath1)" fill="none" x1="585" x2="588" y1="335" y2="335"/>
            <line clip-path="url(#clipPath1)" fill="none" x1="588" x2="590" y1="335" y2="335"/>
            <line clip-path="url(#clipPath1)" fill="none" x1="590" x2="591" y1="335" y2="335"/>
            <line clip-path="url(#clipPath1)" fill="none" x1="591" x2="596" y1="335" y2="335"/>
            <line clip-path="url(#clipPath1)" fill="none" x1="596" x2="597" y1="335" y2="335"/>
            <line clip-path="url(#clipPath1)" fill="none" x1="597" x2="598" y1="335" y2="113"/>
            <line clip-path="url(#clipPath1)" fill="none" x1="598" x2="601" y1="113" y2="335"/>
            <line clip-path="url(#clipPath1)" fill="none" x1="601" x2="603" y1="335" y2="335"/>
            <line clip-path="url(#clipPath1)" fill="none" x1="603" x2="604" y1="335" y2="335"/>
            <line clip-path="url(#clipPath1)" fill="none" x1="604" x2="608" y1="335" y2="335"/>
            <line clip-path="url(#clipPath1)" fill="none" x1="608" x2="612" y1="335" y2="335"/>
            <line clip-path="url(#clipPath1)" fill="none" x1="612" x2="613" y1="335" y2="335"/>
            <line clip-path="url(#clipPath1)" fill="none" x1="613" x2="622" y1="335" y2="335"/>
            <line clip-path="url(#clipPath1)" fill="none" x1="622" x2="624" y1="335" y2="335"/>
            <line clip-path="url(#clipPath1)" fill="none" x1="624" x2="628" y1="335" y2="335"/>
            <line clip-path="url(#clipPath1)" fill="none" x1="628" x2="631" y1="335" y2="335"/>
            <line clip-path="url(#clipPath1)" fill="none" x1="631" x2="632" y1="335" y2="335"/>
            <line clip-path="url(#clipPath1)" fill="none" x1="632" x2="635" y1="335" y2="335"/>
            <line clip-path="url(#clipPath1)" fill="none" x1="635" x2="641" y1="335" y2="335"/>
            <line clip-path="url(#clipPath1)" fill="none" x1="641" x2="644" y1="335" y2="335"/>
            <line clip-path="url(#clipPath1)" fill="none" x1="644" x2="647" y1="335" y2="335"/>
            <line clip-path="url(#clipPath1)" fill="none" x1="647" x2="654" y1="335" y2="335"/>
            <line clip-path="url(#clipPath1)" fill="none" x1="654" x2="662" y1="335" y2="335"/>
            <line clip-path="url(#clipPath1)" fill="none" x1="662" x2="666" y1="335" y2="335"/>
            <line clip-path="url(#clipPath1)" fill="none" x1="666" x2="667" y1="335" y2="335"/>
            <line clip-path="url(#clipPath1)" fill="none" x1="667" x2="669" y1="335" y2="335"/>
            <line clip-path="url(#clipPath1)" fill="none" x1="669" x2="675" y1="335" y2="335"/>
            <line clip-path="url(#clipPath1)" fill="none" x1="675" x2="686" y1="335" y2="335"/>
            <line clip-path="url(#clipPath1)" fill="none" x1="686" x2="689" y1="335" y2="335"/>
            <line clip-path="url(#clipPath1)" fill="none" x1="689" x2="690" y1="335" y2="335"/>
            <line clip-path="url(#clipPath1)" fill="none" x1="690" x2="694" y1="335" y2="335"/>
            <line clip-path="url(#clipPath1)" fill="none" x1="694" x2="699" y1="335" y2="335"/>
            <line clip-path="url(#clipPath1)" fill="none" x1="699" x2="701" y1="335" y2="335"/>
            <line clip-path="url(#clipPath1)" fill="none" x1="701" x2="702" y1="335" y2="335"/>
            <line clip-path="url(#clipPath1)" fill="none" x1="702" x2="705" y1="335" y2="335"/>
            <line clip-path="url(#clipPath1)" fill="none" x1="705" x2="712" y1="335" y2="335"/>
            <line clip-path="url(#clipPath1)" fill="none" x1="712" x2="715" y1="335" y2="335"/>
            <line clip-path="url(#clipPath1)" fill="none" x1="715" x2="716" y1="335" y2="335"/>
            <line clip-path="url(#clipPath1)" fill="none" x1="716" x2="722" y1="335" y2="335"/>
            <line clip-path="url(#clipPath1)" fill="none" x1="722" x2="732" y1="335" y2="335"/>
            <line clip-path="url(#clipPath1)" fill="none" x1="732" x2="735" y1="335" y2="335"/>
            <line clip-path="url(#clipPath1)" fill="none" x1="735" x2="738" y1="335" y2="335"/>
            <line clip-path="url(#clipPath1)" fill="none" x1="738" x2="741" y1="335" y2="335"/>
            <line clip-path="url(#clipPath1)" fill="none" x1="741" x2="744" y1="335" y2="335"/>
            <line clip-path="url(#clipPath1)" fill="none" x1="744" x2="746" y1="335" y2="335"/>
            <line clip-path="url(#clipPath1)" fill="none" x1="746" x2="749" y1="335" y2="335"/>
            <line clip-path="url(#clipPath1)" fill="none" x1="749" x2="757" y1="335" y2="335"/>
            <line clip-path="url(#clipPath1)" fill="none" x1="757" x2="758" y1="335" y2="335"/>
            <line clip-path="url(#clipPath1)" fill="none" x1="758" x2="761" y1="335" y2="335"/>
            <line clip-path="url(#clipPath1)" fill="none" x1="761" x2="763" y1="335" y2="335"/>
            <line clip-path="url(#clipPath1)" fill="none" x1="763" x2="764" y1="335" y2="335"/>
            <line clip-path="url(#clipPath1)" fill="none" x1="764" x2="767" y1="335" y2="335"/>
            <line clip-path="url(#clipPath1)" fill="none" x1="767" x2="770" y1="335" y2="335"/>
            <line clip-path="url(#clipPath1)" fill="none" x1="770" x2="771" y1="335" y2="335"/>
            <line clip-path="url(#clipPath1)" fill="none" x1="771" x2="772" y1="335" y2="335"/>
            <line clip-path="url(#clipPath1)" fill="none" x1="772" x2="773" y1="335" y2="335"/>
            <line clip-path="url(#clipPath1)" fill="none" x1="773" x2="774" y1="335" y2="335"/>
            <line clip-path="url(#clipPath1)" fill="none" x1="774" x2="778" y1="335" y2="335"/>
            <line clip-path="url(#clipPath1)" fill="none" x1="778" x2="781" y1="335" y2="335"/>
            <line clip-path="url(#clipPath1)" fill="none" x1="781" x2="782" y1="335" y2="335"/>
            <line clip-path="url(#clipPath1)" fill="none" x1="782" x2="783" y1="335" y2="335"/>
            <line clip-path="url(#clipPath1)" fill="none" x1="783" x2="784" y1="335" y2="335"/>
            <line clip-path="url(#clipPath1)" fill="none" x1="784" x2="787" y1="335" y2="335"/>
            <line clip-path="url(#clipPath1)" fill="none" x1="787" x2="791" y1="335" y2="335"/>
            <line clip-path="url(#clipPath1)" fill="none" x1="791" x2="793" y1="335" y2="335"/>
            <line clip-path="url(#clipPath1)" fill="none" x1="793" x2="799" y1="335" y2="335"/>
            <line clip-path="url(#clipPath1)" fill="none" x1="799" x2="800" y1="335" y2="335"/>
            <line clip-path="url(#clipPath1)" fill="none" x1="800" x2="801" y1="335" y2="335"/>
            <line clip-path="url(#clipPath1)" fill="none" x1="801" x2="803" y1="335" y2="335"/>
            <line clip-path="url(#clipPath1)" fill="none" x1="803" x2="804" y1="335" y2="335"/>
            <line clip-path="url(#clipPath1)" fill="none" x1="804" x2="807" y1="335" y2="335"/>
            <line clip-path="url(#clipPath1)" fill="none" x1="807" x2="809" y1="335" y2="335"/>
            <line clip-path="url(#clipPath1)" fill="none" x1="809" x2="812" y1="335" y2="335"/>
            <line clip-path="url(#clipPath1)" fill="none" x1="812" x2="815" y1="335" y2="335"/>
            <line clip-path="url(#clipPath1)" fill="none" x1="815" x2="825" y1="335" y2="335"/>
            <line clip-path="url(#clipPath1)" fill="none" x1="825" x2="828" y1="335" y2="335"/>
            <line clip-path="url(#clipPath1)" fill="none" x1="828" x2="829" y1="335" y2="335"/>
            <line clip-path="url(#clipPath1)" fill="none" x1="829" x2="831" y1="335" y2="335"/>
            <line clip-path="url(#clipPath1)" fill="none" x1="831" x2="838" y1="335" y2="335"/>
            <line clip-path="url(#clipPath1)" fill="none" x1="838" x2="839" y1="335" y2="335"/>
            <line clip-path="url(#clipPath1)" fill="none" x1="839" x2="840" y1="335" y2="335"/>
            <line clip-path="url(#clipPath1)" fill="none" x1="840" x2="841" y1="335" y2="335"/>
            <line clip-path="url(#clipPath1)" fill="none" x1="841" x2="853" y1="335" y2="335"/>
            <line clip-path="url(#clipPath1)" fill="none" x1="853" x2="860" y1="335" y2="335"/>
            <line clip-path="url(#clipPath1)" fill="none" x1="860" x2="865" y1="335" y2="335"/>
            <line clip-path="url(#clipPath1)" fill="none" x1="865" x2="867" y1="335" y2="335"/>
            <line clip-path="url(#clipPath1)" fill="none" x1="867" x2="871" y1="335" y2="335"/>
            <line clip-path="url(#clipPath1)" fill="none" x1="871" x2="873" y1="335" y2="335"/>
            <line clip-path="url(#clipPath1)" fill="none" x1="873" x2="880" y1="335" y2="335"/>
            <line clip-path="url(#clipPath1)" fill="none" x1="880" x2="882" y1="335" y2="335"/>
            <line clip-path="url(#clipPath1)" fill="none" x1="882" x2="885" y1="335" y2="335"/>
            <line clip-path="url(#clipPath1)" fill="none" x1="885" x2="887" y1="335" y2="335"/>
            <line clip-path="url(#clipPath1)" fill="none" x1="887" x2="906" y1="335" y2="335"/>
            <line clip-path="url(#clipPath1)" fill="none" x1="906" x2="912" y1="335" y2="335"/>
            <line clip-path="url(#clipPath1)" fill="none" x1="912" x2="919" y1="335" y2="335"/>
            <line clip-path="url(#clipPath1)" fill="none" x1="919" x2="925" y1="335" y2="335"/>
            <line clip-path="url(#clipPath1)" fill="none" x1="925" x2="927" y1="335" y2="335"/>
            <line clip-path="url(#clipPath1)" fill="none" x1="927" x2="930" y1="335" y2="335"/>
            <line clip-path="url(#clipPath1)" fill="none" x1="930" x2="931" y1="335" y2="335"/>
            <line clip-path="url(#clipPath1)" fill="none" x1="931" x2="935" y1="335" y2="335"/>
            <line clip-path="url(#clipPath1)" fill="none" x1="935" x2="941" y1="335" y2="335"/>
            <line clip-path="url(#clipPath1)" fill="none" x1="941" x2="946" y1="335" y2="335"/>
            <line clip-path="url(#clipPath1)" fill="none" x1="946" x2="951" y1="335" y2="335"/>
            <line clip-path="url(#clipPath1)" fill="none" x1="951" x2="953" y1="335" y2="335"/>
            <line clip-path="url(#clipPath1)" fill="none" x1="953" x2="955" y1="335" y2="335"/>
            <line clip-path="url(#clipPath1)" fill="none" x1="955" x2="957" y1="335" y2="335"/>
            <line clip-path="url(#clipPath1)" fill="none" text-rendering="geometricPrecision" x1="957" x2="957" y1="335" y2="113" shape-rendering="crispEdges"/>
            <line clip-path="url(#clipPath1)" fill="none" x1="957" x2="969" y1="113" y2="335"/>
            <line clip-path="url(#clipPath1)" fill="none" x1="969" x2="972" y1="335" y2="335"/>
            <line clip-path="url(#clipPath1)" fill="none" x1="972" x2="974" y1="335" y2="335"/>
            <line clip-path="url(#clipPath1)" fill="none" x1="974" x2="975" y1="335" y2="335"/>
            <line clip-path="url(#clipPath1)" fill="none" x1="975" x2="977" y1="335" y2="335"/>
            <line clip-path="url(#clipPath1)" fill="none" x1="977" x2="980" y1="335" y2="335"/>
            <line clip-path="url(#clipPath1)" fill="none" x1="980" x2="981" y1="335" y2="335"/>
            <rect x="29" y="39" clip-path="url(#clipPath2)" fill="none" width="964" height="518" stroke="black" stroke-width="1"/>
        </g>
        <g text-rendering="optimizeLegibility" font-size="13" font-family="'Arial'" stroke-linecap="butt">
            <text xml:space="preserve" x="444" y="12" clip-path="url(#clipPath2)" stroke="none">Network.nodeTx.queue</text>
            <rect x="849" y="44" clip-path="url(#clipPath3)" fill="white" width="139" opacity="0.7529" height="23" stroke="none"/>
            <line clip-path="url(#clipPath3)" fill="none" x1="855" x2="869" y1="55" y2="55" stroke="rgb(31,119,180)" stroke-width="2"/>
            <text x="871" font-size="10" y="59" clip-path="url(#clipPath3)" stroke="none" stroke-width="2" xml:space="preserve">Network.nodeTx.queue</text>
            <line clip-path="url(#clipPath2)" fill="none" x1="29" x2="993" y1="37" y2="37"/>
            <line clip-path="url(#clipPath2)" fill="none" x1="29" x2="993" y1="559" y2="559"/>
            <line clip-path="url(#clipPath2)" fill="none" x1="29" x2="29" y1="33" y2="37"/>
            <line clip-path="url(#clipPath2)" fill="none" x1="29" x2="29" y1="563" y2="559"/>
            <text x="27" font-size="10" y="30" clip-path="url(#clipPath2)" stroke="none" xml:space="preserve">0</text>
            <text x="27" font-size="10" y="574" clip-path="url(#clipPath2)" stroke="none" xml:space="preserve">0</text>
            <line clip-path="url(#clipPath2)" fill="none" x1="76" x2="76" y1="35" y2="37"/>
            <line clip-path="url(#clipPath2)" fill="none" x1="76" x2="76" y1="561" y2="559"/>
            <line clip-path="url(#clipPath2)" fill="none" x1="124" x2="124" y1="33" y2="37"/>
            <line clip-path="url(#clipPath2)" fill="none" x1="124" x2="124" y1="563" y2="559"/>
            <text x="119" font-size="10" y="30" clip-path="url(#clipPath2)" stroke="none" xml:space="preserve">20</text>
            <text x="119" font-size="10" y="574" clip-path="url(#clipPath2)" stroke="none" xml:space="preserve">20</text>
            <line clip-path="url(#clipPath2)" fill="none" x1="172" x2="172" y1="35" y2="37"/>
            <line clip-path="url(#clipPath2)" fill="none" x1="172" x2="172" y1="561" y2="559"/>
            <line clip-path="url(#clipPath2)" fill="none" x1="219" x2="219" y1="33" y2="37"/>
            <line clip-path="url(#clipPath2)" fill="none" x1="219" x2="219" y1="563" y2="559"/>
            <text x="214" font-size="10" y="30" clip-path="url(#clipPath2)" stroke="none" xml:space="preserve">40</text>
            <text x="214" font-size="10" y="574" clip-path="url(#clipPath2)" stroke="none" xml:space="preserve">40</text>
            <line clip-path="url(#clipPath2)" fill="none" x1="267" x2="267" y1="35" y2="37"/>
            <line clip-path="url(#clipPath2)" fill="none" x1="267" x2="267" y1="561" y2="559"/>
            <line clip-path="url(#clipPath2)" fill="none" x1="315" x2="315" y1="33" y2="37"/>
            <line clip-path="url(#clipPath2)" fill="none" x1="315" x2="315" y1="563" y2="559"/>
            <text x="310" font-size="10" y="30" clip-path="url(#clipPath2)" stroke="none" xml:space="preserve">60</text>
            <text x="310" font-size="10" y="574" clip-path="url(#clipPath2)" stroke="none" xml:space="preserve">60</text>
            <line clip-path="url(#clipPath2)" fill="none" x1="362" x2="362" y1="35" y2="37"/>
            <line clip-path="url(#clipPath2)" fill="none" x1="362" x2="362" y1="561" y2="559"/>
            <line clip-path="url(#clipPath2)" fill="none" x1="410" x2="410" y1="33" y2="37"/>
            <line clip-path="url(#clipPath2)" fill="none" x1="410" x2="410" y1="563" y2="559"/>
            <text x="405" font-size="10" y="30" clip-path="url(#clipPath2)" stroke="none" xml:space="preserve">80</text>
            <text x="405" font-size="10" y="574" clip-path="url(#clipPath2)" stroke="none" xml:space="preserve">80</text>
            <line clip-path="url(#clipPath2)" fill="none" x1="458" x2="458" y1="35" y2="37"/>
            <line clip-path="url(#clipPath2)" fill="none" x1="458" x2="458" y1="561" y2="559"/>
            <line clip-path="url(#clipPath2)" fill="none" x1="505" x2="505" y1="33" y2="37"/>
            <line clip-path="url(#clipPath2)" fill="none" x1="505" x2="505" y1="563" y2="559"/>
            <text x="498" font-size="10" y="30" clip-path="url(#clipPath2)" stroke="none" xml:space="preserve">100</text>
            <text x="498" font-size="10" y="574" clip-path="url(#clipPath2)" stroke="none" xml:space="preserve">100</text>
            <line clip-path="url(#clipPath2)" fill="none" x1="553" x2="553" y1="35" y2="37"/>
            <line clip-path="url(#clipPath2)" fill="none" x1="553" x2="553" y1="561" y2="559"/>
            <line clip-path="url(#clipPath2)" fill="none" x1="601" x2="601" y1="33" y2="37"/>
            <line clip-path="url(#clipPath2)" fill="none" x1="601" x2="601" y1="563" y2="559"/>
            <text x="594" font-size="10" y="30" clip-path="url(#clipPath2)" stroke="none" xml:space="preserve">120</text>
            <text x="594" font-size="10" y="574" clip-path="url(#clipPath2)" stroke="none" xml:space="preserve">120</text>
            <line clip-path="url(#clipPath2)" fill="none" x1="648" x2="648" y1="35" y2="37"/>
            <line clip-path="url(#clipPath2)" fill="none" x1="648" x2="648" y1="561" y2="559"/>
            <line clip-path="url(#clipPath2)" fill="none" x1="696" x2="696" y1="33" y2="37"/>
            <line clip-path="url(#clipPath2)" fill="none" x1="696" x2="696" y1="563" y2="559"/>
            <text x="689" font-size="10" y="30" clip-path="url(#clipPath2)" stroke="none" xml:space="preserve">140</text>
            <text x="689" font-size="10" y="574" clip-path="url(#clipPath2)" stroke="none" xml:space="preserve">140</text>
            <line clip-path="url(#clipPath2)" fill="none" x1="744" x2="744" y1="35" y2="37"/>
            <line clip-path="url(#clipPath2)" fill="none" x1="744" x2="744" y1="561" y2="559"/>
            <line clip-path="url(#clipPath2)" fill="none" x1="791" x2="791" y1="33" y2="37"/>
            <line clip-path="url(#clipPath2)" fill="none" x1="791" x2="791" y1="563" y2="559"/>
            <text x="784" font-size="10" y="30" clip-path="url(#clipPath2)" stroke="none" xml:space="preserve">160</text>
            <text x="784" font-size="10" y="574" clip-path="url(#clipPath2)" stroke="none" xml:space="preserve">160</text>
            <line clip-path="url(#clipPath2)" fill="none" x1="839" x2="839" y1="35" y2="37"/>
            <line clip-path="url(#clipPath2)" fill="none" x1="839" x2="839" y1="561" y2="559"/>
            <line clip-path="url(#clipPath2)" fill="none" x1="887" x2="887" y1="33" y2="37"/>
            <line clip-path="url(#clipPath2)" fill="none" x1="887" x2="887" y1="563" y2="559"/>
            <text x="880" font-size="10" y="30" clip-path="url(#clipPath2)" stroke="none" xml:space="preserve">180</text>
            <text x="880" font-size="10" y="574" clip-path="url(#clipPath2)" stroke="none" xml:space="preserve">180</text>
            <line clip-path="url(#clipPath2)" fill="none" x1="934" x2="934" y1="35" y2="37"/>
            <line clip-path="url(#clipPath2)" fill="none" x1="934" x2="934" y1="561" y2="559"/>
            <line clip-path="url(#clipPath2)" fill="none" x1="982" x2="982" y1="33" y2="37"/>
            <line clip-path="url(#clipPath2)" fill="none" x1="982" x2="982" y1="563" y2="559"/>
            <text x="975" font-size="10" y="30" clip-path="url(#clipPath2)" stroke="none" xml:space="preserve">200</text>
            <text x="975" font-size="10" y="574" clip-path="url(#clipPath2)" stroke="none" xml:space="preserve">200</text>
            <line clip-path="url(#clipPath2)" fill="none" x1="27" x2="27" y1="39" y2="557"/>
            <line clip-path="url(#clipPath2)" fill="none" x1="995" x2="995" y1="39" y2="557"/>
            <line clip-path="url(#clipPath2)" fill="none" x1="23" x2="27" y1="557" y2="557"/>
            <line clip-path="url(#clipPath2)" fill="none" x1="999" x2="995" y1="557" y2="557"/>
            <text x="16" font-size="10" y="561" clip-path="url(#clipPath2)" stroke="none" xml:space="preserve">0</text>
            <text x="1002" font-size="10" y="561" clip-path="url(#clipPath2)" stroke="none" xml:space="preserve">0</text>
            <line clip-path="url(#clipPath2)" fill="none" x1="25" x2="27" y1="534" y2="534"/>
            <line clip-path="url(#clipPath2)" fill="none" x1="997" x2="995" y1="534" y2="534"/>
            <line clip-path="url(#clipPath2)" fill="none" x1="25" x2="27" y1="512" y2="512"/>
            <line clip-path="url(#clipPath2)" fill="none" x1="997" x2="995" y1="512" y2="512"/>
            <line clip-path="url(#clipPath2)" fill="none" x1="25" x2="27" y1="490" y2="490"/>
            <line clip-path="url(#clipPath2)" fill="none" x1="997" x2="995" y1="490" y2="490"/>
            <line clip-path="url(#clipPath2)" fill="none" x1="25" x2="27" y1="468" y2="468"/>
            <line clip-path="url(#clipPath2)" fill="none" x1="997" x2="995" y1="468" y2="468"/>
            <line clip-path="url(#clipPath2)" fill="none" x1="23" x2="27" y1="446" y2="446"/>
            <line clip-path="url(#clipPath2)" fill="none" x1="999" x2="995" y1="446" y2="446"/>
            <text x="8" font-size="10" y="450" clip-path="url(#clipPath2)" stroke="none" xml:space="preserve">0.5</text>
            <text x="1002" font-size="10" y="450" clip-path="url(#clipPath2)" stroke="none" xml:space="preserve">0.5</text>
            <line clip-path="url(#clipPath2)" fill="none" x1="25" x2="27" y1="423" y2="423"/>
            <line clip-path="url(#clipPath2)" fill="none" x1="997" x2="995" y1="423" y2="423"/>
            <line clip-path="url(#clipPath2)" fill="none" x1="25" x2="27" y1="401" y2="401"/>
            <line clip-path="url(#clipPath2)" fill="none" x1="997" x2="995" y1="401" y2="401"/>
            <line clip-path="url(#clipPath2)" fill="none" x1="25" x2="27" y1="379" y2="379"/>
            <line clip-path="url(#clipPath2)" fill="none" x1="997" x2="995" y1="379" y2="379"/>
            <line clip-path="url(#clipPath2)" fill="none" x1="25" x2="27" y1="357" y2="357"/>
            <line clip-path="url(#clipPath2)" fill="none" x1="997" x2="995" y1="357" y2="357"/>
            <line clip-path="url(#clipPath2)" fill="none" x1="23" x2="27" y1="335" y2="335"/>
            <line clip-path="url(#clipPath2)" fill="none" x1="999" x2="995" y1="335" y2="335"/>
            <text x="16" font-size="10" y="339" clip-path="url(#clipPath2)" stroke="none" xml:space="preserve">1</text>
            <text x="1002" font-size="10" y="339" clip-path="url(#clipPath2)" stroke="none" xml:space="preserve">1</text>
            <line clip-path="url(#clipPath2)" fill="none" x1="25" x2="27" y1="312" y2="312"/>
            <line clip-path="url(#clipPath2)" fill="none" x1="997" x2="995" y1="312" y2="312"/>
            <line clip-path="url(#clipPath2)" fill="none" x1="25" x2="27" y1="290" y2="290"/>
            <line clip-path="url(#clipPath2)" fill="none" x1="997" x2="995" y1="290" y2="290"/>
            <line clip-path="url(#clipPath2)" fill="none" x1="25" x2="27" y1="268" y2="268"/>
            <line clip-path="url(#clipPath2)" fill="none" x1="997" x2="995" y1="268" y2="268"/>
            <line clip-path="url(#clipPath2)" fill="none" x1="25" x2="27" y1="246" y2="246"/>
            <line clip-path="url(#clipPath2)" fill="none" x1="997" x2="995" y1="246" y2="246"/>
            <line clip-path="url(#clipPath2)" fill="none" x1="23" x2="27" y1="224" y2="224"/>
            <line clip-path="url(#clipPath2)" fill="none" x1="999" x2="995" y1="224" y2="224"/>
            <text x="8" font-size="10" y="228" clip-path="url(#clipPath2)" stroke="none" xml:space="preserve">1.5</text>
            <text x="1002" font-size="10" y="228" clip-path="url(#clipPath2)" stroke="none" xml:space="preserve">1.5</text>
            <line clip-path="url(#clipPath2)" fill="none" x1="25" x2="27" y1="201" y2="201"/>
            <line clip-path="url(#clipPath2)" fill="none" x1="997" x2="995" y1="201" y2="201"/>
            <line clip-path="url(#clipPath2)" fill="none" x1="25" x2="27" y1="179" y2="179"/>
            <line clip-path="url(#clipPath2)" fill="none" x1="997" x2="995" y1="179" y2="179"/>
            <line clip-path="url(#clipPath2)" fill="none" x1="25" x2="27" y1="157" y2="157"/>
            <line clip-path="url(#clipPath2)" fill="none" x1="997" x2="995" y1="157" y2="157"/>
            <line clip-path="url(#clipPath2)" fill="none" x1="25" x2="27" y1="135" y2="135"/>
            <line clip-path="url(#clipPath2)" fill="none" x1="997" x2="995" y1="135" y2="135"/>
            <line clip-path="url(#clipPath2)" fill="none" x1="23" x2="27" y1="113" y2="113"/>
            <line clip-path="url(#clipPath2)" fill="none" x1="999" x2="995" y1="113" y2="113"/>
            <text x="16" font-size="10" y="117" clip-path="url(#clipPath2)" stroke="none" xml:space="preserve">2</text>
            <text x="1002" font-size="10" y="117" clip-path="url(#clipPath2)" stroke="none" xml:space="preserve">2</text>
            <line clip-path="url(#clipPath2)" fill="none" x1="25" x2="27" y1="90" y2="90"/>
            <line clip-path="url(#clipPath2)" fill="none" x1="997" x2="995" y1="90" y2="90"/>
            <line clip-path="url(#clipPath2)" fill="none" x1="25" x2="27" y1="68" y2="68"/>
            <line clip-path="url(#clipPath2)" fill="none" x1="997" x2="995" y1="68" y2="68"/>
            <line clip-path="url(#clipPath2)" fill="none" x1="25" x2="27" y1="46" y2="46"/>
            <line clip-path="url(#clipPath2)" fill="none" x1="997" x2="995" y1="46" y2="46"/>
        </g>
    </g>
</svg>
