<?xml version="1.0" encoding="utf-8" standalone="no"?>
<!DOCTYPE svg PUBLIC "-//W3C//DTD SVG 1.1//EN"
  "http://www.w3.org/Graphics/SVG/1.1/DTD/svg11.dtd">
<svg xmlns:xlink="http://www.w3.org/1999/xlink" width="1209.6pt" height="568.08pt" viewBox="0 0 1209.6 568.08" xmlns="http://www.w3.org/2000/svg" version="1.1">
 <metadata>
  <rdf:RDF xmlns:dc="http://purl.org/dc/elements/1.1/" xmlns:cc="http://creativecommons.org/ns#" xmlns:rdf="http://www.w3.org/1999/02/22-rdf-syntax-ns#">
   <cc:Work>
    <dc:type rdf:resource="http://purl.org/dc/dcmitype/StillImage"/>
    <dc:date>2023-05-23T17:53:36.518284</dc:date>
    <dc:format>image/svg+xml</dc:format>
    <dc:creator>
     <cc:Agent>
      <dc:title>Matplotlib v3.5.2, https://matplotlib.org/</dc:title>
     </cc:Agent>
    </dc:creator>
   </cc:Work>
  </rdf:RDF>
 </metadata>
 <defs>
  <style type="text/css">*{stroke-linejoin: round; stroke-linecap: butt}</style>
 </defs>
 <g id="figure_1">
  <g id="patch_1">
   <path d="M 0 568.08 
L 1209.6 568.08 
L 1209.6 0 
L 0 0 
z
" style="fill: #ffffff"/>
  </g>
  <g id="axes_1">
   <g id="patch_2">
    <path d="M 96.57375 522.25225 
L 1181.25 522.25225 
L 1181.25 44.184 
L 96.57375 44.184 
z
" style="fill: #ffffff"/>
   </g>
   <g id="matplotlib.axis_1">
    <g id="xtick_1">
     <g id="line2d_1">
      <path d="M 141.421936 522.25225 
L 141.421936 44.184 
" clip-path="url(#pdc860a3320)" style="fill: none; stroke: #b0b0b0; stroke-width: 0.8; stroke-linecap: square"/>
     </g>
     <g id="line2d_2">
      <defs>
       <path id="m555af7e392" d="M 0 0 
L 0 3.5 
" style="stroke: #000000; stroke-width: 0.8"/>
      </defs>
      <g>
       <use xlink:href="#m555af7e392" x="141.421936" y="522.25225" style="stroke: #000000; stroke-width: 0.8"/>
      </g>
     </g>
     <g id="text_1">
      <!-- 0 -->
      <g transform="translate(138.240686 536.850687)scale(0.1 -0.1)">
       <defs>
        <path id="DejaVuSans-30" d="M 2034 4250 
Q 1547 4250 1301 3770 
Q 1056 3291 1056 2328 
Q 1056 1369 1301 889 
Q 1547 409 2034 409 
Q 2525 409 2770 889 
Q 3016 1369 3016 2328 
Q 3016 3291 2770 3770 
Q 2525 4250 2034 4250 
z
M 2034 4750 
Q 2819 4750 3233 4129 
Q 3647 3509 3647 2328 
Q 3647 1150 3233 529 
Q 2819 -91 2034 -91 
Q 1250 -91 836 529 
Q 422 1150 422 2328 
Q 422 3509 836 4129 
Q 1250 4750 2034 4750 
z
" transform="scale(0.015625)"/>
       </defs>
       <use xlink:href="#DejaVuSans-30"/>
      </g>
     </g>
    </g>
    <g id="xtick_2">
     <g id="line2d_3">
      <path d="M 265.377997 522.25225 
L 265.377997 44.184 
" clip-path="url(#pdc860a3320)" style="fill: none; stroke: #b0b0b0; stroke-width: 0.8; stroke-linecap: square"/>
     </g>
     <g id="line2d_4">
      <g>
       <use xlink:href="#m555af7e392" x="265.377997" y="522.25225" style="stroke: #000000; stroke-width: 0.8"/>
      </g>
     </g>
     <g id="text_2">
      <!-- 25 -->
      <g transform="translate(259.015497 536.850687)scale(0.1 -0.1)">
       <defs>
        <path id="DejaVuSans-32" d="M 1228 531 
L 3431 531 
L 3431 0 
L 469 0 
L 469 531 
Q 828 903 1448 1529 
Q 2069 2156 2228 2338 
Q 2531 2678 2651 2914 
Q 2772 3150 2772 3378 
Q 2772 3750 2511 3984 
Q 2250 4219 1831 4219 
Q 1534 4219 1204 4116 
Q 875 4013 500 3803 
L 500 4441 
Q 881 4594 1212 4672 
Q 1544 4750 1819 4750 
Q 2544 4750 2975 4387 
Q 3406 4025 3406 3419 
Q 3406 3131 3298 2873 
Q 3191 2616 2906 2266 
Q 2828 2175 2409 1742 
Q 1991 1309 1228 531 
z
" transform="scale(0.015625)"/>
        <path id="DejaVuSans-35" d="M 691 4666 
L 3169 4666 
L 3169 4134 
L 1269 4134 
L 1269 2991 
Q 1406 3038 1543 3061 
Q 1681 3084 1819 3084 
Q 2600 3084 3056 2656 
Q 3513 2228 3513 1497 
Q 3513 744 3044 326 
Q 2575 -91 1722 -91 
Q 1428 -91 1123 -41 
Q 819 9 494 109 
L 494 744 
Q 775 591 1075 516 
Q 1375 441 1709 441 
Q 2250 441 2565 725 
Q 2881 1009 2881 1497 
Q 2881 1984 2565 2268 
Q 2250 2553 1709 2553 
Q 1456 2553 1204 2497 
Q 953 2441 691 2322 
L 691 4666 
z
" transform="scale(0.015625)"/>
       </defs>
       <use xlink:href="#DejaVuSans-32"/>
       <use xlink:href="#DejaVuSans-35" x="63.623047"/>
      </g>
     </g>
    </g>
    <g id="xtick_3">
     <g id="line2d_5">
      <path d="M 389.334058 522.25225 
L 389.334058 44.184 
" clip-path="url(#pdc860a3320)" style="fill: none; stroke: #b0b0b0; stroke-width: 0.8; stroke-linecap: square"/>
     </g>
     <g id="line2d_6">
      <g>
       <use xlink:href="#m555af7e392" x="389.334058" y="522.25225" style="stroke: #000000; stroke-width: 0.8"/>
      </g>
     </g>
     <g id="text_3">
      <!-- 50 -->
      <g transform="translate(382.971558 536.850687)scale(0.1 -0.1)">
       <use xlink:href="#DejaVuSans-35"/>
       <use xlink:href="#DejaVuSans-30" x="63.623047"/>
      </g>
     </g>
    </g>
    <g id="xtick_4">
     <g id="line2d_7">
      <path d="M 513.290119 522.25225 
L 513.290119 44.184 
" clip-path="url(#pdc860a3320)" style="fill: none; stroke: #b0b0b0; stroke-width: 0.8; stroke-linecap: square"/>
     </g>
     <g id="line2d_8">
      <g>
       <use xlink:href="#m555af7e392" x="513.290119" y="522.25225" style="stroke: #000000; stroke-width: 0.8"/>
      </g>
     </g>
     <g id="text_4">
      <!-- 75 -->
      <g transform="translate(506.927619 536.850687)scale(0.1 -0.1)">
       <defs>
        <path id="DejaVuSans-37" d="M 525 4666 
L 3525 4666 
L 3525 4397 
L 1831 0 
L 1172 0 
L 2766 4134 
L 525 4134 
L 525 4666 
z
" transform="scale(0.015625)"/>
       </defs>
       <use xlink:href="#DejaVuSans-37"/>
       <use xlink:href="#DejaVuSans-35" x="63.623047"/>
      </g>
     </g>
    </g>
    <g id="xtick_5">
     <g id="line2d_9">
      <path d="M 637.24618 522.25225 
L 637.24618 44.184 
" clip-path="url(#pdc860a3320)" style="fill: none; stroke: #b0b0b0; stroke-width: 0.8; stroke-linecap: square"/>
     </g>
     <g id="line2d_10">
      <g>
       <use xlink:href="#m555af7e392" x="637.24618" y="522.25225" style="stroke: #000000; stroke-width: 0.8"/>
      </g>
     </g>
     <g id="text_5">
      <!-- 100 -->
      <g transform="translate(627.70243 536.850687)scale(0.1 -0.1)">
       <defs>
        <path id="DejaVuSans-31" d="M 794 531 
L 1825 531 
L 1825 4091 
L 703 3866 
L 703 4441 
L 1819 4666 
L 2450 4666 
L 2450 531 
L 3481 531 
L 3481 0 
L 794 0 
L 794 531 
z
" transform="scale(0.015625)"/>
       </defs>
       <use xlink:href="#DejaVuSans-31"/>
       <use xlink:href="#DejaVuSans-30" x="63.623047"/>
       <use xlink:href="#DejaVuSans-30" x="127.246094"/>
      </g>
     </g>
    </g>
    <g id="xtick_6">
     <g id="line2d_11">
      <path d="M 761.202241 522.25225 
L 761.202241 44.184 
" clip-path="url(#pdc860a3320)" style="fill: none; stroke: #b0b0b0; stroke-width: 0.8; stroke-linecap: square"/>
     </g>
     <g id="line2d_12">
      <g>
       <use xlink:href="#m555af7e392" x="761.202241" y="522.25225" style="stroke: #000000; stroke-width: 0.8"/>
      </g>
     </g>
     <g id="text_6">
      <!-- 125 -->
      <g transform="translate(751.658491 536.850687)scale(0.1 -0.1)">
       <use xlink:href="#DejaVuSans-31"/>
       <use xlink:href="#DejaVuSans-32" x="63.623047"/>
       <use xlink:href="#DejaVuSans-35" x="127.246094"/>
      </g>
     </g>
    </g>
    <g id="xtick_7">
     <g id="line2d_13">
      <path d="M 885.158302 522.25225 
L 885.158302 44.184 
" clip-path="url(#pdc860a3320)" style="fill: none; stroke: #b0b0b0; stroke-width: 0.8; stroke-linecap: square"/>
     </g>
     <g id="line2d_14">
      <g>
       <use xlink:href="#m555af7e392" x="885.158302" y="522.25225" style="stroke: #000000; stroke-width: 0.8"/>
      </g>
     </g>
     <g id="text_7">
      <!-- 150 -->
      <g transform="translate(875.614552 536.850687)scale(0.1 -0.1)">
       <use xlink:href="#DejaVuSans-31"/>
       <use xlink:href="#DejaVuSans-35" x="63.623047"/>
       <use xlink:href="#DejaVuSans-30" x="127.246094"/>
      </g>
     </g>
    </g>
    <g id="xtick_8">
     <g id="line2d_15">
      <path d="M 1009.114363 522.25225 
L 1009.114363 44.184 
" clip-path="url(#pdc860a3320)" style="fill: none; stroke: #b0b0b0; stroke-width: 0.8; stroke-linecap: square"/>
     </g>
     <g id="line2d_16">
      <g>
       <use xlink:href="#m555af7e392" x="1009.114363" y="522.25225" style="stroke: #000000; stroke-width: 0.8"/>
      </g>
     </g>
     <g id="text_8">
      <!-- 175 -->
      <g transform="translate(999.570613 536.850687)scale(0.1 -0.1)">
       <use xlink:href="#DejaVuSans-31"/>
       <use xlink:href="#DejaVuSans-37" x="63.623047"/>
       <use xlink:href="#DejaVuSans-35" x="127.246094"/>
      </g>
     </g>
    </g>
    <g id="xtick_9">
     <g id="line2d_17">
      <path d="M 1133.070425 522.25225 
L 1133.070425 44.184 
" clip-path="url(#pdc860a3320)" style="fill: none; stroke: #b0b0b0; stroke-width: 0.8; stroke-linecap: square"/>
     </g>
     <g id="line2d_18">
      <g>
       <use xlink:href="#m555af7e392" x="1133.070425" y="522.25225" style="stroke: #000000; stroke-width: 0.8"/>
      </g>
     </g>
     <g id="text_9">
      <!-- 200 -->
      <g transform="translate(1123.526675 536.850687)scale(0.1 -0.1)">
       <use xlink:href="#DejaVuSans-32"/>
       <use xlink:href="#DejaVuSans-30" x="63.623047"/>
       <use xlink:href="#DejaVuSans-30" x="127.246094"/>
      </g>
     </g>
    </g>
   </g>
   <g id="matplotlib.axis_2">
    <g id="ytick_1">
     <g id="line2d_19">
      <path d="M 96.57375 500.521875 
L 1181.25 500.521875 
" clip-path="url(#pdc860a3320)" style="fill: none; stroke: #b0b0b0; stroke-width: 0.8; stroke-linecap: square"/>
     </g>
     <g id="line2d_20">
      <defs>
       <path id="m8af39bc8c0" d="M 0 0 
L -3.5 0 
" style="stroke: #000000; stroke-width: 0.8"/>
      </defs>
      <g>
       <use xlink:href="#m8af39bc8c0" x="96.57375" y="500.521875" style="stroke: #000000; stroke-width: 0.8"/>
      </g>
     </g>
     <g id="text_10">
      <!-- 0 -->
      <g transform="translate(83.21125 504.321094)scale(0.1 -0.1)">
       <use xlink:href="#DejaVuSans-30"/>
      </g>
     </g>
    </g>
    <g id="ytick_2">
     <g id="line2d_21">
      <path d="M 96.57375 443.336678 
L 1181.25 443.336678 
" clip-path="url(#pdc860a3320)" style="fill: none; stroke: #b0b0b0; stroke-width: 0.8; stroke-linecap: square"/>
     </g>
     <g id="line2d_22">
      <g>
       <use xlink:href="#m8af39bc8c0" x="96.57375" y="443.336678" style="stroke: #000000; stroke-width: 0.8"/>
      </g>
     </g>
     <g id="text_11">
      <!-- 25 -->
      <g transform="translate(76.84875 447.135896)scale(0.1 -0.1)">
       <use xlink:href="#DejaVuSans-32"/>
       <use xlink:href="#DejaVuSans-35" x="63.623047"/>
      </g>
     </g>
    </g>
    <g id="ytick_3">
     <g id="line2d_23">
      <path d="M 96.57375 386.15148 
L 1181.25 386.15148 
" clip-path="url(#pdc860a3320)" style="fill: none; stroke: #b0b0b0; stroke-width: 0.8; stroke-linecap: square"/>
     </g>
     <g id="line2d_24">
      <g>
       <use xlink:href="#m8af39bc8c0" x="96.57375" y="386.15148" style="stroke: #000000; stroke-width: 0.8"/>
      </g>
     </g>
     <g id="text_12">
      <!-- 50 -->
      <g transform="translate(76.84875 389.950699)scale(0.1 -0.1)">
       <use xlink:href="#DejaVuSans-35"/>
       <use xlink:href="#DejaVuSans-30" x="63.623047"/>
      </g>
     </g>
    </g>
    <g id="ytick_4">
     <g id="line2d_25">
      <path d="M 96.57375 328.966283 
L 1181.25 328.966283 
" clip-path="url(#pdc860a3320)" style="fill: none; stroke: #b0b0b0; stroke-width: 0.8; stroke-linecap: square"/>
     </g>
     <g id="line2d_26">
      <g>
       <use xlink:href="#m8af39bc8c0" x="96.57375" y="328.966283" style="stroke: #000000; stroke-width: 0.8"/>
      </g>
     </g>
     <g id="text_13">
      <!-- 75 -->
      <g transform="translate(76.84875 332.765502)scale(0.1 -0.1)">
       <use xlink:href="#DejaVuSans-37"/>
       <use xlink:href="#DejaVuSans-35" x="63.623047"/>
      </g>
     </g>
    </g>
    <g id="ytick_5">
     <g id="line2d_27">
      <path d="M 96.57375 271.781086 
L 1181.25 271.781086 
" clip-path="url(#pdc860a3320)" style="fill: none; stroke: #b0b0b0; stroke-width: 0.8; stroke-linecap: square"/>
     </g>
     <g id="line2d_28">
      <g>
       <use xlink:href="#m8af39bc8c0" x="96.57375" y="271.781086" style="stroke: #000000; stroke-width: 0.8"/>
      </g>
     </g>
     <g id="text_14">
      <!-- 100 -->
      <g transform="translate(70.48625 275.580304)scale(0.1 -0.1)">
       <use xlink:href="#DejaVuSans-31"/>
       <use xlink:href="#DejaVuSans-30" x="63.623047"/>
       <use xlink:href="#DejaVuSans-30" x="127.246094"/>
      </g>
     </g>
    </g>
    <g id="ytick_6">
     <g id="line2d_29">
      <path d="M 96.57375 214.595888 
L 1181.25 214.595888 
" clip-path="url(#pdc860a3320)" style="fill: none; stroke: #b0b0b0; stroke-width: 0.8; stroke-linecap: square"/>
     </g>
     <g id="line2d_30">
      <g>
       <use xlink:href="#m8af39bc8c0" x="96.57375" y="214.595888" style="stroke: #000000; stroke-width: 0.8"/>
      </g>
     </g>
     <g id="text_15">
      <!-- 125 -->
      <g transform="translate(70.48625 218.395107)scale(0.1 -0.1)">
       <use xlink:href="#DejaVuSans-31"/>
       <use xlink:href="#DejaVuSans-32" x="63.623047"/>
       <use xlink:href="#DejaVuSans-35" x="127.246094"/>
      </g>
     </g>
    </g>
    <g id="ytick_7">
     <g id="line2d_31">
      <path d="M 96.57375 157.410691 
L 1181.25 157.410691 
" clip-path="url(#pdc860a3320)" style="fill: none; stroke: #b0b0b0; stroke-width: 0.8; stroke-linecap: square"/>
     </g>
     <g id="line2d_32">
      <g>
       <use xlink:href="#m8af39bc8c0" x="96.57375" y="157.410691" style="stroke: #000000; stroke-width: 0.8"/>
      </g>
     </g>
     <g id="text_16">
      <!-- 150 -->
      <g transform="translate(70.48625 161.20991)scale(0.1 -0.1)">
       <use xlink:href="#DejaVuSans-31"/>
       <use xlink:href="#DejaVuSans-35" x="63.623047"/>
       <use xlink:href="#DejaVuSans-30" x="127.246094"/>
      </g>
     </g>
    </g>
    <g id="ytick_8">
     <g id="line2d_33">
      <path d="M 96.57375 100.225493 
L 1181.25 100.225493 
" clip-path="url(#pdc860a3320)" style="fill: none; stroke: #b0b0b0; stroke-width: 0.8; stroke-linecap: square"/>
     </g>
     <g id="line2d_34">
      <g>
       <use xlink:href="#m8af39bc8c0" x="96.57375" y="100.225493" style="stroke: #000000; stroke-width: 0.8"/>
      </g>
     </g>
     <g id="text_17">
      <!-- 175 -->
      <g transform="translate(70.48625 104.024712)scale(0.1 -0.1)">
       <use xlink:href="#DejaVuSans-31"/>
       <use xlink:href="#DejaVuSans-37" x="63.623047"/>
       <use xlink:href="#DejaVuSans-35" x="127.246094"/>
      </g>
     </g>
    </g>
   </g>
   <g id="line2d_35">
    <path d="M 145.877216 498.234467 
L 145.877216 500.521875 
L 150.45478 498.234467 
L 150.835458 500.521875 
L 160.131015 498.234467 
L 160.131015 500.521875 
L 160.559781 498.234467 
L 162.863247 495.947059 
L 165.089257 498.234467 
L 165.518023 495.947059 
L 167.707482 493.659651 
L 170.0475 495.947059 
L 170.112865 493.659651 
L 171.863913 491.372243 
L 172.153399 489.084836 
L 173.779274 486.797428 
L 175.005742 489.084836 
L 178.92672 486.797428 
L 179.963985 489.084836 
L 183.884962 486.797428 
L 184.922227 489.084836 
L 188.589537 486.797428 
L 189.88047 489.084836 
L 192.805057 486.797428 
L 194.838712 489.084836 
L 196.368505 486.797428 
L 197.763299 484.51002 
L 199.796954 486.797428 
L 200.100446 484.51002 
L 202.721541 482.222612 
L 204.262557 479.935204 
L 204.755197 482.222612 
L 207.679784 479.935204 
L 209.713439 482.222612 
L 212.638026 479.935204 
L 213.22889 477.647796 
L 213.59424 475.360388 
L 214.671682 477.647796 
L 215.634944 475.360388 
L 216.086942 473.07298 
L 217.596269 470.785572 
L 219.629924 473.07298 
L 221.266384 470.785572 
L 222.554511 468.498164 
L 224.588167 470.785572 
L 227.512754 468.498164 
L 229.546409 470.785572 
L 232.470996 468.498164 
L 234.504652 470.785572 
L 236.885691 468.498164 
L 237.429239 466.210757 
L 239.462894 468.498164 
L 242.387481 466.210757 
L 244.421137 468.498164 
L 247.004929 466.210757 
L 247.345723 463.923349 
L 249.379379 466.210757 
L 250.186679 463.923349 
L 252.303966 461.635941 
L 254.337621 463.923349 
L 257.262208 461.635941 
L 258.145845 459.348533 
L 259.295864 461.635941 
L 264.254106 463.923349 
L 266.148459 461.635941 
L 269.212349 463.923349 
L 269.792591 461.635941 
L 274.170591 463.923349 
L 275.424852 461.635941 
L 275.530045 459.348533 
L 276.048967 457.061125 
L 279.128834 459.348533 
L 280.488287 457.061125 
L 282.371855 454.773717 
L 283.139043 452.486309 
L 284.087076 454.773717 
L 286.1182 452.486309 
L 286.961028 450.198901 
L 289.045319 452.486309 
L 291.182707 450.198901 
L 294.003561 452.486309 
L 294.008499 450.198901 
L 296.14095 447.911493 
L 297.666825 445.624086 
L 298.221881 443.336678 
L 298.961803 445.624086 
L 300.877346 443.336678 
L 302.400917 441.04927 
L 303.423322 438.761862 
L 303.920046 441.04927 
L 308.878288 443.336678 
L 309.859126 441.04927 
L 310.044015 438.761862 
L 313.063993 436.474454 
L 313.784317 434.187046 
L 313.836531 436.474454 
L 313.878368 434.187046 
L 315.820862 429.61223 
L 318.794773 431.899638 
L 320.419932 429.61223 
L 320.587622 427.324822 
L 321.834332 425.037414 
L 323.753016 427.324822 
L 324.256716 425.037414 
L 325.378174 422.750007 
L 328.711258 425.037414 
L 330.336417 422.750007 
L 333.669501 425.037414 
L 335.294659 422.750007 
L 338.526117 420.462599 
L 338.627743 422.750007 
L 340.252901 420.462599 
L 341.489887 418.175191 
L 343.585985 420.462599 
L 343.698876 418.175191 
L 345.211144 415.887783 
L 346.547547 413.600375 
L 348.544228 415.887783 
L 350.169386 413.600375 
L 353.50247 415.887783 
L 355.127629 413.600375 
L 358.082159 411.312967 
L 358.460713 413.600375 
L 360.085871 411.312967 
L 363.418955 413.600375 
L 363.530834 411.312967 
L 365.044114 409.025559 
L 368.377198 411.312967 
L 368.78079 409.025559 
L 370.002356 406.738151 
L 373.33544 409.025559 
L 374.287401 406.738151 
L 374.960599 404.450743 
L 374.971781 402.163336 
L 378.293683 404.450743 
L 381.858991 402.163336 
L 382.09853 399.875928 
L 383.251925 402.163336 
L 384.100623 399.875928 
L 387.056773 397.58852 
L 388.210167 399.875928 
L 388.287501 397.58852 
L 392.015015 395.301112 
L 393.16841 397.58852 
L 396.973258 395.301112 
L 398.126652 397.58852 
L 401.9315 395.301112 
L 403.084895 397.58852 
L 406.889742 395.301112 
L 408.043137 397.58852 
L 410.373976 395.301112 
L 411.5357 393.013704 
L 411.847985 390.726296 
L 413.00138 393.013704 
L 416.533704 390.726296 
L 416.806227 388.438888 
L 417.959622 390.726296 
L 421.76447 388.438888 
L 421.783207 386.15148 
L 422.917865 388.438888 
L 426.106377 386.15148 
L 426.722712 383.864072 
L 427.554583 381.576664 
L 427.876107 383.864072 
L 430.207563 381.576664 
L 431.680955 379.289257 
L 432.834349 381.576664 
L 433.32105 379.289257 
L 436.513072 377.001849 
L 436.639197 374.714441 
L 437.792592 377.001849 
L 437.902754 374.714441 
L 441.59744 372.427033 
L 442.746283 370.139625 
L 442.750834 372.427033 
L 444.791564 370.139625 
L 446.555682 367.852217 
L 447.709077 370.139625 
L 450.087325 367.852217 
L 450.824676 365.564809 
L 451.969951 363.277401 
L 452.667319 365.564809 
L 456.928193 363.277401 
L 457.625562 365.564809 
L 458.294939 363.277401 
L 460.5758 360.989993 
L 461.886436 358.702586 
L 462.583804 360.989993 
L 465.961787 358.702586 
L 466.844678 356.415178 
L 467.542047 358.702586 
L 471.802921 356.415178 
L 472.500289 358.702586 
L 474.491608 356.415178 
L 476.761163 354.12777 
L 477.458531 356.415178 
L 480.04392 354.12777 
L 480.544874 351.840362 
L 481.719406 349.552954 
L 482.416774 351.840362 
L 486.677648 349.552954 
L 487.375016 351.840362 
L 491.635891 349.552954 
L 492.333259 351.840362 
L 496.594133 349.552954 
L 497.291501 351.840362 
L 498.263592 349.552954 
L 501.552375 347.265546 
L 502.249744 349.552954 
L 507.207986 351.840362 
L 508.702285 349.552954 
L 508.986526 347.265546 
L 509.786228 344.978138 
L 512.166229 347.265546 
L 513.590148 344.978138 
L 514.74447 342.69073 
L 516.56483 340.403322 
L 517.124471 342.69073 
L 519.702712 340.403322 
L 522.082713 342.69073 
L 523.229924 340.403322 
L 523.528244 335.828507 
L 526.418296 333.541099 
L 527.040956 335.828507 
L 531.999198 338.115914 
L 535.107215 335.828507 
L 536.957441 338.115914 
L 540.065458 335.828507 
L 541.915683 338.115914 
L 545.0237 335.828507 
L 545.713644 333.541099 
L 546.873926 335.828507 
L 549.981943 331.253691 
L 551.832168 333.541099 
L 554.940185 331.253691 
L 556.790411 333.541099 
L 559.898428 331.253691 
L 560.780732 328.966283 
L 561.748653 331.253691 
L 564.85667 328.966283 
L 564.910172 326.678875 
L 566.706895 328.966283 
L 569.814913 326.678875 
L 571.665138 328.966283 
L 574.773155 326.678875 
L 574.842724 324.391467 
L 575.331857 322.104059 
L 576.62338 324.391467 
L 579.731397 322.104059 
L 581.581623 324.391467 
L 584.68964 322.104059 
L 586.539865 324.391467 
L 587.927302 322.104059 
L 588.357531 319.816651 
L 589.647882 317.529243 
L 591.498108 319.816651 
L 594.606125 317.529243 
L 596.45635 319.816651 
L 599.564367 317.529243 
L 601.414593 319.816651 
L 601.493184 317.529243 
L 602.193936 315.241836 
L 604.52261 312.954428 
L 606.372835 315.241836 
L 607.359337 312.954428 
L 609.480852 310.66702 
L 611.331077 312.954428 
L 613.606395 310.66702 
L 615.300399 306.092204 
L 616.28932 308.379612 
L 616.825146 306.092204 
L 617.828449 303.804796 
L 619.397337 301.517388 
L 621.247562 303.804796 
L 622.207217 301.517388 
L 622.307931 299.22998 
L 623.201665 296.942572 
L 624.355579 294.655164 
L 626.205805 296.942572 
L 629.313822 294.655164 
L 631.164047 296.942572 
L 631.956638 294.655164 
L 634.272064 292.367757 
L 636.12229 294.655164 
L 636.136848 292.367757 
L 639.230307 290.080349 
L 641.080532 292.367757 
L 642.725151 290.080349 
L 645.540958 285.505533 
L 646.038775 287.792941 
L 646.959119 285.505533 
L 649.146792 283.218125 
L 650.997017 285.505533 
L 653.95532 283.218125 
L 654.105034 280.930717 
L 655.955259 283.218125 
L 658.211441 280.930717 
L 659.063277 278.643309 
L 660.7121 276.355901 
L 660.913502 278.643309 
L 664.021519 276.355901 
L 665.871744 278.643309 
L 668.979761 276.355901 
L 670.829987 278.643309 
L 671.936239 276.355901 
L 673.187799 274.068493 
L 673.938004 271.781086 
L 675.788229 274.068493 
L 678.896246 271.781086 
L 680.746472 274.068493 
L 683.854489 271.781086 
L 685.704714 274.068493 
L 688.321751 271.781086 
L 688.812731 269.493678 
L 690.662957 271.781086 
L 691.260125 269.493678 
L 693.770974 267.20627 
L 695.621199 269.493678 
L 698.729216 267.20627 
L 700.549193 264.918862 
L 700.579441 267.20627 
L 703.687459 264.918862 
L 705.537684 267.20627 
L 706.510184 264.918862 
L 707.122659 262.631454 
L 708.645701 260.344046 
L 708.873018 258.056638 
L 710.495926 260.344046 
L 713.603943 258.056638 
L 715.454169 260.344046 
L 716.096278 258.056638 
L 718.562186 255.76923 
L 718.727729 253.481822 
L 720.412411 255.76923 
L 721.231734 253.481822 
L 723.520428 251.194414 
L 725.370654 253.481822 
L 728.478671 251.194414 
L 730.328896 253.481822 
L 731.790308 251.194414 
L 733.436913 248.907007 
L 735.287139 251.194414 
L 738.395156 248.907007 
L 740.245381 251.194414 
L 742.375315 248.907007 
L 743.353398 246.619599 
L 745.203623 248.907007 
L 748.222982 246.619599 
L 748.311641 244.332191 
L 750.161866 246.619599 
L 752.625214 244.332191 
L 753.269883 242.044783 
L 755.120108 244.332191 
L 757.969381 242.044783 
L 758.228125 239.757375 
L 760.078351 242.044783 
L 761.746906 239.757375 
L 763.046249 237.469967 
L 763.186368 235.182559 
L 765.036593 237.469967 
L 768.14461 235.182559 
L 768.167107 232.895151 
L 769.994836 235.182559 
L 770.657686 232.895151 
L 773.102853 230.607743 
L 773.391641 228.320336 
L 774.953078 230.607743 
L 778.061095 228.320336 
L 778.173635 226.032928 
L 779.911321 228.320336 
L 781.367263 226.032928 
L 783.146911 223.74552 
L 784.254362 221.458112 
L 784.869563 223.74552 
L 788.498442 221.458112 
L 789.212605 219.170704 
L 789.827805 221.458112 
L 790.197134 219.170704 
L 794.170847 216.883296 
L 794.786048 219.170704 
L 794.968823 216.883296 
L 797.745246 214.595888 
L 799.12909 212.30848 
L 799.74429 214.595888 
L 804.087332 212.30848 
L 804.702533 214.595888 
L 808.194482 212.30848 
L 809.045575 210.021072 
L 809.660775 212.30848 
L 812.625807 210.021072 
L 814.003817 207.733664 
L 814.619018 210.021072 
L 818.96206 205.446257 
L 819.57726 207.733664 
L 823.920302 205.446257 
L 824.535503 207.733664 
L 828.878544 205.446257 
L 829.493745 207.733664 
L 833.836787 205.446257 
L 834.078214 203.158849 
L 834.451987 205.446257 
L 834.833323 203.158849 
L 837.105055 200.871441 
L 837.612386 198.584033 
L 838.795029 196.296625 
L 839.41023 198.584033 
L 840.450789 196.296625 
L 843.753272 194.009217 
L 844.368472 196.296625 
L 848.711514 194.009217 
L 849.326715 196.296625 
L 853.669757 194.009217 
L 854.284957 196.296625 
L 858.627999 194.009217 
L 859.2432 196.296625 
L 860.967053 194.009217 
L 863.586242 191.721809 
L 864.201442 194.009217 
L 864.785281 191.721809 
L 867.730841 189.434401 
L 868.254494 187.146993 
L 868.544484 184.859586 
L 869.159685 187.146993 
L 873.502726 184.859586 
L 874.117927 187.146993 
L 878.460969 184.859586 
L 879.076169 187.146993 
L 880.745706 184.859586 
L 883.419211 182.572178 
L 884.034412 184.859586 
L 888.377454 182.572178 
L 888.992654 184.859586 
L 890.670138 180.28477 
L 893.335696 177.997362 
L 893.950897 180.28477 
L 898.293939 177.997362 
L 898.909139 180.28477 
L 902.322887 177.997362 
L 903.252181 175.709954 
L 903.867382 177.997362 
L 908.210424 175.709954 
L 908.825624 177.997362 
L 912.367834 175.709954 
L 912.55765 173.422546 
L 913.168666 171.135138 
L 913.436873 168.84773 
L 913.783867 171.135138 
L 918.126908 168.84773 
L 918.176786 166.560322 
L 918.742109 168.84773 
L 923.085151 166.560322 
L 923.700351 168.84773 
L 925.662857 166.560322 
L 928.043393 164.272914 
L 928.658594 166.560322 
L 933.001636 164.272914 
L 933.616836 166.560322 
L 935.589192 164.272914 
L 937.959878 161.985507 
L 938.217074 159.698099 
L 938.575079 161.985507 
L 938.964733 159.698099 
L 941.557249 157.410691 
L 942.918121 155.123283 
L 943.533321 157.410691 
L 947.484523 155.123283 
L 947.876363 152.835875 
L 948.491564 155.123283 
L 949.801374 152.835875 
L 952.797635 150.548467 
L 952.834606 148.261059 
L 953.449806 150.548467 
L 955.499169 148.261059 
L 957.792848 145.973651 
L 958.408049 148.261059 
L 961.847376 145.973651 
L 962.75109 143.686243 
L 963.366291 145.973651 
L 964.10294 143.686243 
L 967.709333 141.398836 
L 968.324533 143.686243 
L 972.667575 141.398836 
L 973.282776 143.686243 
L 977.625818 141.398836 
L 978.241018 143.686243 
L 982.497824 141.398836 
L 982.58406 139.111428 
L 983.199261 141.398836 
L 984.710453 139.111428 
L 987.542303 136.82402 
L 988.157503 139.111428 
L 992.500545 136.82402 
L 993.115746 139.111428 
L 997.458788 136.82402 
L 998.073988 139.111428 
L 999.94667 134.536612 
L 1002.002419 132.249204 
L 1002.41703 129.961796 
L 1003.032231 132.249204 
L 1005.652336 129.961796 
L 1005.929353 127.674388 
L 1007.035732 125.38698 
L 1007.375272 123.099572 
L 1007.990473 125.38698 
L 1008.016618 123.099572 
L 1012.333515 120.812164 
L 1012.948715 123.099572 
L 1015.842771 120.812164 
L 1017.291757 118.524757 
L 1017.906958 120.812164 
L 1017.943366 118.524757 
L 1022.25 116.237349 
L 1022.8652 118.524757 
L 1027.208242 116.237349 
L 1027.823443 118.524757 
L 1032.166485 116.237349 
L 1032.245636 113.949941 
L 1032.781685 116.237349 
L 1036.892197 113.949941 
L 1037.124727 111.662533 
L 1037.739928 113.949941 
L 1041.394102 111.662533 
L 1041.554535 109.375125 
L 1042.08297 107.087717 
L 1042.69817 109.375125 
L 1047.041212 107.087717 
L 1047.656413 109.375125 
L 1049.144768 107.087717 
L 1049.401024 104.800309 
L 1051.999454 102.512901 
L 1052.614655 104.800309 
L 1053.669692 102.512901 
L 1055.016688 100.225493 
L 1056.957697 97.938086 
L 1057.572897 100.225493 
L 1061.915939 97.938086 
L 1062.53114 100.225493 
L 1066.874182 97.938086 
L 1067.489382 100.225493 
L 1071.832424 97.938086 
L 1072.447625 100.225493 
L 1076.790667 97.938086 
L 1077.405867 100.225493 
L 1079.208612 97.938086 
L 1081.748909 95.650678 
L 1082.36411 97.938086 
L 1083.011979 95.650678 
L 1086.707152 93.36327 
L 1087.322352 95.650678 
L 1091.665394 93.36327 
L 1092.280595 95.650678 
L 1092.914442 93.36327 
L 1096.623636 91.075862 
L 1097.238837 93.36327 
L 1099.408675 91.075862 
L 1101.262495 88.788454 
L 1101.581879 86.501046 
L 1102.197079 88.788454 
L 1105.268656 86.501046 
L 1106.540121 84.213638 
L 1107.155322 86.501046 
L 1107.786775 84.213638 
L 1111.385844 77.351414 
L 1111.498364 75.064007 
L 1112.113564 77.351414 
L 1112.609832 75.064007 
L 1116.456606 72.776599 
L 1116.789525 70.489191 
L 1117.071807 72.776599 
L 1121.414849 70.489191 
L 1122.030049 72.776599 
L 1123.460084 70.489191 
L 1126.373091 68.201783 
L 1126.443354 65.914375 
L 1126.988292 68.201783 
L 1131.946534 70.489191 
L 1131.946534 70.489191 
" clip-path="url(#pdc860a3320)" style="fill: none; stroke: #1f77b4; stroke-width: 1.5; stroke-linecap: square"/>
   </g>
   <g id="patch_3">
    <path d="M 96.57375 522.25225 
L 96.57375 44.184 
" style="fill: none; stroke: #000000; stroke-width: 0.8; stroke-linejoin: miter; stroke-linecap: square"/>
   </g>
   <g id="patch_4">
    <path d="M 1181.25 522.25225 
L 1181.25 44.184 
" style="fill: none; stroke: #000000; stroke-width: 0.8; stroke-linejoin: miter; stroke-linecap: square"/>
   </g>
   <g id="patch_5">
    <path d="M 96.57375 522.25225 
L 1181.25 522.25225 
" style="fill: none; stroke: #000000; stroke-width: 0.8; stroke-linejoin: miter; stroke-linecap: square"/>
   </g>
   <g id="patch_6">
    <path d="M 96.57375 44.184 
L 1181.25 44.184 
" style="fill: none; stroke: #000000; stroke-width: 0.8; stroke-linejoin: miter; stroke-linecap: square"/>
   </g>
   <g id="text_18">
    <!-- Buffer Size in Network.node[0].lnk[0] -->
    <g transform="translate(527.320312 38.184)scale(0.12 -0.12)">
     <defs>
      <path id="DejaVuSans-42" d="M 1259 2228 
L 1259 519 
L 2272 519 
Q 2781 519 3026 730 
Q 3272 941 3272 1375 
Q 3272 1813 3026 2020 
Q 2781 2228 2272 2228 
L 1259 2228 
z
M 1259 4147 
L 1259 2741 
L 2194 2741 
Q 2656 2741 2882 2914 
Q 3109 3088 3109 3444 
Q 3109 3797 2882 3972 
Q 2656 4147 2194 4147 
L 1259 4147 
z
M 628 4666 
L 2241 4666 
Q 2963 4666 3353 4366 
Q 3744 4066 3744 3513 
Q 3744 3084 3544 2831 
Q 3344 2578 2956 2516 
Q 3422 2416 3680 2098 
Q 3938 1781 3938 1306 
Q 3938 681 3513 340 
Q 3088 0 2303 0 
L 628 0 
L 628 4666 
z
" transform="scale(0.015625)"/>
      <path id="DejaVuSans-75" d="M 544 1381 
L 544 3500 
L 1119 3500 
L 1119 1403 
Q 1119 906 1312 657 
Q 1506 409 1894 409 
Q 2359 409 2629 706 
Q 2900 1003 2900 1516 
L 2900 3500 
L 3475 3500 
L 3475 0 
L 2900 0 
L 2900 538 
Q 2691 219 2414 64 
Q 2138 -91 1772 -91 
Q 1169 -91 856 284 
Q 544 659 544 1381 
z
M 1991 3584 
L 1991 3584 
z
" transform="scale(0.015625)"/>
      <path id="DejaVuSans-66" d="M 2375 4863 
L 2375 4384 
L 1825 4384 
Q 1516 4384 1395 4259 
Q 1275 4134 1275 3809 
L 1275 3500 
L 2222 3500 
L 2222 3053 
L 1275 3053 
L 1275 0 
L 697 0 
L 697 3053 
L 147 3053 
L 147 3500 
L 697 3500 
L 697 3744 
Q 697 4328 969 4595 
Q 1241 4863 1831 4863 
L 2375 4863 
z
" transform="scale(0.015625)"/>
      <path id="DejaVuSans-65" d="M 3597 1894 
L 3597 1613 
L 953 1613 
Q 991 1019 1311 708 
Q 1631 397 2203 397 
Q 2534 397 2845 478 
Q 3156 559 3463 722 
L 3463 178 
Q 3153 47 2828 -22 
Q 2503 -91 2169 -91 
Q 1331 -91 842 396 
Q 353 884 353 1716 
Q 353 2575 817 3079 
Q 1281 3584 2069 3584 
Q 2775 3584 3186 3129 
Q 3597 2675 3597 1894 
z
M 3022 2063 
Q 3016 2534 2758 2815 
Q 2500 3097 2075 3097 
Q 1594 3097 1305 2825 
Q 1016 2553 972 2059 
L 3022 2063 
z
" transform="scale(0.015625)"/>
      <path id="DejaVuSans-72" d="M 2631 2963 
Q 2534 3019 2420 3045 
Q 2306 3072 2169 3072 
Q 1681 3072 1420 2755 
Q 1159 2438 1159 1844 
L 1159 0 
L 581 0 
L 581 3500 
L 1159 3500 
L 1159 2956 
Q 1341 3275 1631 3429 
Q 1922 3584 2338 3584 
Q 2397 3584 2469 3576 
Q 2541 3569 2628 3553 
L 2631 2963 
z
" transform="scale(0.015625)"/>
      <path id="DejaVuSans-20" transform="scale(0.015625)"/>
      <path id="DejaVuSans-53" d="M 3425 4513 
L 3425 3897 
Q 3066 4069 2747 4153 
Q 2428 4238 2131 4238 
Q 1616 4238 1336 4038 
Q 1056 3838 1056 3469 
Q 1056 3159 1242 3001 
Q 1428 2844 1947 2747 
L 2328 2669 
Q 3034 2534 3370 2195 
Q 3706 1856 3706 1288 
Q 3706 609 3251 259 
Q 2797 -91 1919 -91 
Q 1588 -91 1214 -16 
Q 841 59 441 206 
L 441 856 
Q 825 641 1194 531 
Q 1563 422 1919 422 
Q 2459 422 2753 634 
Q 3047 847 3047 1241 
Q 3047 1584 2836 1778 
Q 2625 1972 2144 2069 
L 1759 2144 
Q 1053 2284 737 2584 
Q 422 2884 422 3419 
Q 422 4038 858 4394 
Q 1294 4750 2059 4750 
Q 2388 4750 2728 4690 
Q 3069 4631 3425 4513 
z
" transform="scale(0.015625)"/>
      <path id="DejaVuSans-69" d="M 603 3500 
L 1178 3500 
L 1178 0 
L 603 0 
L 603 3500 
z
M 603 4863 
L 1178 4863 
L 1178 4134 
L 603 4134 
L 603 4863 
z
" transform="scale(0.015625)"/>
      <path id="DejaVuSans-7a" d="M 353 3500 
L 3084 3500 
L 3084 2975 
L 922 459 
L 3084 459 
L 3084 0 
L 275 0 
L 275 525 
L 2438 3041 
L 353 3041 
L 353 3500 
z
" transform="scale(0.015625)"/>
      <path id="DejaVuSans-6e" d="M 3513 2113 
L 3513 0 
L 2938 0 
L 2938 2094 
Q 2938 2591 2744 2837 
Q 2550 3084 2163 3084 
Q 1697 3084 1428 2787 
Q 1159 2491 1159 1978 
L 1159 0 
L 581 0 
L 581 3500 
L 1159 3500 
L 1159 2956 
Q 1366 3272 1645 3428 
Q 1925 3584 2291 3584 
Q 2894 3584 3203 3211 
Q 3513 2838 3513 2113 
z
" transform="scale(0.015625)"/>
      <path id="DejaVuSans-4e" d="M 628 4666 
L 1478 4666 
L 3547 763 
L 3547 4666 
L 4159 4666 
L 4159 0 
L 3309 0 
L 1241 3903 
L 1241 0 
L 628 0 
L 628 4666 
z
" transform="scale(0.015625)"/>
      <path id="DejaVuSans-74" d="M 1172 4494 
L 1172 3500 
L 2356 3500 
L 2356 3053 
L 1172 3053 
L 1172 1153 
Q 1172 725 1289 603 
Q 1406 481 1766 481 
L 2356 481 
L 2356 0 
L 1766 0 
Q 1100 0 847 248 
Q 594 497 594 1153 
L 594 3053 
L 172 3053 
L 172 3500 
L 594 3500 
L 594 4494 
L 1172 4494 
z
" transform="scale(0.015625)"/>
      <path id="DejaVuSans-77" d="M 269 3500 
L 844 3500 
L 1563 769 
L 2278 3500 
L 2956 3500 
L 3675 769 
L 4391 3500 
L 4966 3500 
L 4050 0 
L 3372 0 
L 2619 2869 
L 1863 0 
L 1184 0 
L 269 3500 
z
" transform="scale(0.015625)"/>
      <path id="DejaVuSans-6f" d="M 1959 3097 
Q 1497 3097 1228 2736 
Q 959 2375 959 1747 
Q 959 1119 1226 758 
Q 1494 397 1959 397 
Q 2419 397 2687 759 
Q 2956 1122 2956 1747 
Q 2956 2369 2687 2733 
Q 2419 3097 1959 3097 
z
M 1959 3584 
Q 2709 3584 3137 3096 
Q 3566 2609 3566 1747 
Q 3566 888 3137 398 
Q 2709 -91 1959 -91 
Q 1206 -91 779 398 
Q 353 888 353 1747 
Q 353 2609 779 3096 
Q 1206 3584 1959 3584 
z
" transform="scale(0.015625)"/>
      <path id="DejaVuSans-6b" d="M 581 4863 
L 1159 4863 
L 1159 1991 
L 2875 3500 
L 3609 3500 
L 1753 1863 
L 3688 0 
L 2938 0 
L 1159 1709 
L 1159 0 
L 581 0 
L 581 4863 
z
" transform="scale(0.015625)"/>
      <path id="DejaVuSans-2e" d="M 684 794 
L 1344 794 
L 1344 0 
L 684 0 
L 684 794 
z
" transform="scale(0.015625)"/>
      <path id="DejaVuSans-64" d="M 2906 2969 
L 2906 4863 
L 3481 4863 
L 3481 0 
L 2906 0 
L 2906 525 
Q 2725 213 2448 61 
Q 2172 -91 1784 -91 
Q 1150 -91 751 415 
Q 353 922 353 1747 
Q 353 2572 751 3078 
Q 1150 3584 1784 3584 
Q 2172 3584 2448 3432 
Q 2725 3281 2906 2969 
z
M 947 1747 
Q 947 1113 1208 752 
Q 1469 391 1925 391 
Q 2381 391 2643 752 
Q 2906 1113 2906 1747 
Q 2906 2381 2643 2742 
Q 2381 3103 1925 3103 
Q 1469 3103 1208 2742 
Q 947 2381 947 1747 
z
" transform="scale(0.015625)"/>
      <path id="DejaVuSans-5b" d="M 550 4863 
L 1875 4863 
L 1875 4416 
L 1125 4416 
L 1125 -397 
L 1875 -397 
L 1875 -844 
L 550 -844 
L 550 4863 
z
" transform="scale(0.015625)"/>
      <path id="DejaVuSans-5d" d="M 1947 4863 
L 1947 -844 
L 622 -844 
L 622 -397 
L 1369 -397 
L 1369 4416 
L 622 4416 
L 622 4863 
L 1947 4863 
z
" transform="scale(0.015625)"/>
      <path id="DejaVuSans-6c" d="M 603 4863 
L 1178 4863 
L 1178 0 
L 603 0 
L 603 4863 
z
" transform="scale(0.015625)"/>
     </defs>
     <use xlink:href="#DejaVuSans-42"/>
     <use xlink:href="#DejaVuSans-75" x="68.603516"/>
     <use xlink:href="#DejaVuSans-66" x="131.982422"/>
     <use xlink:href="#DejaVuSans-66" x="167.1875"/>
     <use xlink:href="#DejaVuSans-65" x="202.392578"/>
     <use xlink:href="#DejaVuSans-72" x="263.916016"/>
     <use xlink:href="#DejaVuSans-20" x="305.029297"/>
     <use xlink:href="#DejaVuSans-53" x="336.816406"/>
     <use xlink:href="#DejaVuSans-69" x="400.292969"/>
     <use xlink:href="#DejaVuSans-7a" x="428.076172"/>
     <use xlink:href="#DejaVuSans-65" x="480.566406"/>
     <use xlink:href="#DejaVuSans-20" x="542.089844"/>
     <use xlink:href="#DejaVuSans-69" x="573.876953"/>
     <use xlink:href="#DejaVuSans-6e" x="601.660156"/>
     <use xlink:href="#DejaVuSans-20" x="665.039062"/>
     <use xlink:href="#DejaVuSans-4e" x="696.826172"/>
     <use xlink:href="#DejaVuSans-65" x="771.630859"/>
     <use xlink:href="#DejaVuSans-74" x="833.154297"/>
     <use xlink:href="#DejaVuSans-77" x="872.363281"/>
     <use xlink:href="#DejaVuSans-6f" x="954.150391"/>
     <use xlink:href="#DejaVuSans-72" x="1015.332031"/>
     <use xlink:href="#DejaVuSans-6b" x="1056.445312"/>
     <use xlink:href="#DejaVuSans-2e" x="1114.355469"/>
     <use xlink:href="#DejaVuSans-6e" x="1146.142578"/>
     <use xlink:href="#DejaVuSans-6f" x="1209.521484"/>
     <use xlink:href="#DejaVuSans-64" x="1270.703125"/>
     <use xlink:href="#DejaVuSans-65" x="1334.179688"/>
     <use xlink:href="#DejaVuSans-5b" x="1395.703125"/>
     <use xlink:href="#DejaVuSans-30" x="1434.716797"/>
     <use xlink:href="#DejaVuSans-5d" x="1498.339844"/>
     <use xlink:href="#DejaVuSans-2e" x="1537.353516"/>
     <use xlink:href="#DejaVuSans-6c" x="1569.140625"/>
     <use xlink:href="#DejaVuSans-6e" x="1596.923828"/>
     <use xlink:href="#DejaVuSans-6b" x="1660.302734"/>
     <use xlink:href="#DejaVuSans-5b" x="1718.212891"/>
     <use xlink:href="#DejaVuSans-30" x="1757.226562"/>
     <use xlink:href="#DejaVuSans-5d" x="1820.849609"/>
    </g>
   </g>
   <g id="legend_1">
    <g id="patch_7">
     <path d="M 954.264062 66.862125 
L 1176.25 66.862125 
L 1176.25 49.184 
L 954.264062 49.184 
z
" style="fill: #ffffff; opacity: 0.8; stroke: #cccccc; stroke-linejoin: miter"/>
    </g>
    <g id="line2d_36">
     <path d="M 958.264062 57.282438 
L 968.264062 57.282438 
L 978.264062 57.282438 
" style="fill: none; stroke: #1f77b4; stroke-width: 1.5; stroke-linecap: square"/>
    </g>
    <g id="text_19">
     <!-- Buffer Size in Network.node[0].lnk[0] -->
     <g transform="translate(986.264062 60.782438)scale(0.1 -0.1)">
      <use xlink:href="#DejaVuSans-42"/>
      <use xlink:href="#DejaVuSans-75" x="68.603516"/>
      <use xlink:href="#DejaVuSans-66" x="131.982422"/>
      <use xlink:href="#DejaVuSans-66" x="167.1875"/>
      <use xlink:href="#DejaVuSans-65" x="202.392578"/>
      <use xlink:href="#DejaVuSans-72" x="263.916016"/>
      <use xlink:href="#DejaVuSans-20" x="305.029297"/>
      <use xlink:href="#DejaVuSans-53" x="336.816406"/>
      <use xlink:href="#DejaVuSans-69" x="400.292969"/>
      <use xlink:href="#DejaVuSans-7a" x="428.076172"/>
      <use xlink:href="#DejaVuSans-65" x="480.566406"/>
      <use xlink:href="#DejaVuSans-20" x="542.089844"/>
      <use xlink:href="#DejaVuSans-69" x="573.876953"/>
      <use xlink:href="#DejaVuSans-6e" x="601.660156"/>
      <use xlink:href="#DejaVuSans-20" x="665.039062"/>
      <use xlink:href="#DejaVuSans-4e" x="696.826172"/>
      <use xlink:href="#DejaVuSans-65" x="771.630859"/>
      <use xlink:href="#DejaVuSans-74" x="833.154297"/>
      <use xlink:href="#DejaVuSans-77" x="872.363281"/>
      <use xlink:href="#DejaVuSans-6f" x="954.150391"/>
      <use xlink:href="#DejaVuSans-72" x="1015.332031"/>
      <use xlink:href="#DejaVuSans-6b" x="1056.445312"/>
      <use xlink:href="#DejaVuSans-2e" x="1114.355469"/>
      <use xlink:href="#DejaVuSans-6e" x="1146.142578"/>
      <use xlink:href="#DejaVuSans-6f" x="1209.521484"/>
      <use xlink:href="#DejaVuSans-64" x="1270.703125"/>
      <use xlink:href="#DejaVuSans-65" x="1334.179688"/>
      <use xlink:href="#DejaVuSans-5b" x="1395.703125"/>
      <use xlink:href="#DejaVuSans-30" x="1434.716797"/>
      <use xlink:href="#DejaVuSans-5d" x="1498.339844"/>
      <use xlink:href="#DejaVuSans-2e" x="1537.353516"/>
      <use xlink:href="#DejaVuSans-6c" x="1569.140625"/>
      <use xlink:href="#DejaVuSans-6e" x="1596.923828"/>
      <use xlink:href="#DejaVuSans-6b" x="1660.302734"/>
      <use xlink:href="#DejaVuSans-5b" x="1718.212891"/>
      <use xlink:href="#DejaVuSans-30" x="1757.226562"/>
      <use xlink:href="#DejaVuSans-5d" x="1820.849609"/>
     </g>
    </g>
   </g>
  </g>
 </g>
 <defs>
  <clipPath id="pdc860a3320">
   <rect x="96.57375" y="44.184" width="1084.67625" height="478.06825"/>
  </clipPath>
 </defs>
</svg>
