<?xml version="1.0" encoding="utf-8" standalone="no"?>
<!DOCTYPE svg PUBLIC "-//W3C//DTD SVG 1.1//EN"
  "http://www.w3.org/Graphics/SVG/1.1/DTD/svg11.dtd">
<svg xmlns:xlink="http://www.w3.org/1999/xlink" width="1323.36pt" height="568.08pt" viewBox="0 0 1323.36 568.08" xmlns="http://www.w3.org/2000/svg" version="1.1">
 <metadata>
  <rdf:RDF xmlns:dc="http://purl.org/dc/elements/1.1/" xmlns:cc="http://creativecommons.org/ns#" xmlns:rdf="http://www.w3.org/1999/02/22-rdf-syntax-ns#">
   <cc:Work>
    <dc:type rdf:resource="http://purl.org/dc/dcmitype/StillImage"/>
    <dc:date>2023-05-28T19:19:22.437562</dc:date>
    <dc:format>image/svg+xml</dc:format>
    <dc:creator>
     <cc:Agent>
      <dc:title>Matplotlib v3.5.2, https://matplotlib.org/</dc:title>
     </cc:Agent>
    </dc:creator>
   </cc:Work>
  </rdf:RDF>
 </metadata>
 <defs>
  <style type="text/css">*{stroke-linejoin: round; stroke-linecap: butt}</style>
 </defs>
 <g id="figure_1">
  <g id="patch_1">
   <path d="M 0 568.08 
L 1323.36 568.08 
L 1323.36 0 
L 0 0 
z
" style="fill: #ffffff"/>
  </g>
  <g id="axes_1">
   <g id="patch_2">
    <path d="M 105.656281 522.25225 
L 1292.34375 522.25225 
L 1292.34375 44.184 
L 105.656281 44.184 
z
" style="fill: #ffffff"/>
   </g>
   <g id="matplotlib.axis_1">
    <g id="xtick_1">
     <g id="line2d_1">
      <path d="M 159.596621 522.25225 
L 159.596621 44.184 
" clip-path="url(#pe3ee58bf90)" style="fill: none; stroke: #b0b0b0; stroke-width: 0.8; stroke-linecap: square"/>
     </g>
     <g id="line2d_2">
      <defs>
       <path id="mb2a55ff1f8" d="M 0 0 
L 0 3.5 
" style="stroke: #000000; stroke-width: 0.8"/>
      </defs>
      <g>
       <use xlink:href="#mb2a55ff1f8" x="159.596621" y="522.25225" style="stroke: #000000; stroke-width: 0.8"/>
      </g>
     </g>
     <g id="text_1">
      <!-- 0 -->
      <g transform="translate(156.415371 536.850687)scale(0.1 -0.1)">
       <defs>
        <path id="DejaVuSans-30" d="M 2034 4250 
Q 1547 4250 1301 3770 
Q 1056 3291 1056 2328 
Q 1056 1369 1301 889 
Q 1547 409 2034 409 
Q 2525 409 2770 889 
Q 3016 1369 3016 2328 
Q 3016 3291 2770 3770 
Q 2525 4250 2034 4250 
z
M 2034 4750 
Q 2819 4750 3233 4129 
Q 3647 3509 3647 2328 
Q 3647 1150 3233 529 
Q 2819 -91 2034 -91 
Q 1250 -91 836 529 
Q 422 1150 422 2328 
Q 422 3509 836 4129 
Q 1250 4750 2034 4750 
z
" transform="scale(0.015625)"/>
       </defs>
       <use xlink:href="#DejaVuSans-30"/>
      </g>
     </g>
    </g>
    <g id="xtick_2">
     <g id="line2d_3">
      <path d="M 294.448415 522.25225 
L 294.448415 44.184 
" clip-path="url(#pe3ee58bf90)" style="fill: none; stroke: #b0b0b0; stroke-width: 0.8; stroke-linecap: square"/>
     </g>
     <g id="line2d_4">
      <g>
       <use xlink:href="#mb2a55ff1f8" x="294.448415" y="522.25225" style="stroke: #000000; stroke-width: 0.8"/>
      </g>
     </g>
     <g id="text_2">
      <!-- 25 -->
      <g transform="translate(288.085915 536.850687)scale(0.1 -0.1)">
       <defs>
        <path id="DejaVuSans-32" d="M 1228 531 
L 3431 531 
L 3431 0 
L 469 0 
L 469 531 
Q 828 903 1448 1529 
Q 2069 2156 2228 2338 
Q 2531 2678 2651 2914 
Q 2772 3150 2772 3378 
Q 2772 3750 2511 3984 
Q 2250 4219 1831 4219 
Q 1534 4219 1204 4116 
Q 875 4013 500 3803 
L 500 4441 
Q 881 4594 1212 4672 
Q 1544 4750 1819 4750 
Q 2544 4750 2975 4387 
Q 3406 4025 3406 3419 
Q 3406 3131 3298 2873 
Q 3191 2616 2906 2266 
Q 2828 2175 2409 1742 
Q 1991 1309 1228 531 
z
" transform="scale(0.015625)"/>
        <path id="DejaVuSans-35" d="M 691 4666 
L 3169 4666 
L 3169 4134 
L 1269 4134 
L 1269 2991 
Q 1406 3038 1543 3061 
Q 1681 3084 1819 3084 
Q 2600 3084 3056 2656 
Q 3513 2228 3513 1497 
Q 3513 744 3044 326 
Q 2575 -91 1722 -91 
Q 1428 -91 1123 -41 
Q 819 9 494 109 
L 494 744 
Q 775 591 1075 516 
Q 1375 441 1709 441 
Q 2250 441 2565 725 
Q 2881 1009 2881 1497 
Q 2881 1984 2565 2268 
Q 2250 2553 1709 2553 
Q 1456 2553 1204 2497 
Q 953 2441 691 2322 
L 691 4666 
z
" transform="scale(0.015625)"/>
       </defs>
       <use xlink:href="#DejaVuSans-32"/>
       <use xlink:href="#DejaVuSans-35" x="63.623047"/>
      </g>
     </g>
    </g>
    <g id="xtick_3">
     <g id="line2d_5">
      <path d="M 429.30021 522.25225 
L 429.30021 44.184 
" clip-path="url(#pe3ee58bf90)" style="fill: none; stroke: #b0b0b0; stroke-width: 0.8; stroke-linecap: square"/>
     </g>
     <g id="line2d_6">
      <g>
       <use xlink:href="#mb2a55ff1f8" x="429.30021" y="522.25225" style="stroke: #000000; stroke-width: 0.8"/>
      </g>
     </g>
     <g id="text_3">
      <!-- 50 -->
      <g transform="translate(422.93771 536.850687)scale(0.1 -0.1)">
       <use xlink:href="#DejaVuSans-35"/>
       <use xlink:href="#DejaVuSans-30" x="63.623047"/>
      </g>
     </g>
    </g>
    <g id="xtick_4">
     <g id="line2d_7">
      <path d="M 564.152005 522.25225 
L 564.152005 44.184 
" clip-path="url(#pe3ee58bf90)" style="fill: none; stroke: #b0b0b0; stroke-width: 0.8; stroke-linecap: square"/>
     </g>
     <g id="line2d_8">
      <g>
       <use xlink:href="#mb2a55ff1f8" x="564.152005" y="522.25225" style="stroke: #000000; stroke-width: 0.8"/>
      </g>
     </g>
     <g id="text_4">
      <!-- 75 -->
      <g transform="translate(557.789505 536.850687)scale(0.1 -0.1)">
       <defs>
        <path id="DejaVuSans-37" d="M 525 4666 
L 3525 4666 
L 3525 4397 
L 1831 0 
L 1172 0 
L 2766 4134 
L 525 4134 
L 525 4666 
z
" transform="scale(0.015625)"/>
       </defs>
       <use xlink:href="#DejaVuSans-37"/>
       <use xlink:href="#DejaVuSans-35" x="63.623047"/>
      </g>
     </g>
    </g>
    <g id="xtick_5">
     <g id="line2d_9">
      <path d="M 699.0038 522.25225 
L 699.0038 44.184 
" clip-path="url(#pe3ee58bf90)" style="fill: none; stroke: #b0b0b0; stroke-width: 0.8; stroke-linecap: square"/>
     </g>
     <g id="line2d_10">
      <g>
       <use xlink:href="#mb2a55ff1f8" x="699.0038" y="522.25225" style="stroke: #000000; stroke-width: 0.8"/>
      </g>
     </g>
     <g id="text_5">
      <!-- 100 -->
      <g transform="translate(689.46005 536.850687)scale(0.1 -0.1)">
       <defs>
        <path id="DejaVuSans-31" d="M 794 531 
L 1825 531 
L 1825 4091 
L 703 3866 
L 703 4441 
L 1819 4666 
L 2450 4666 
L 2450 531 
L 3481 531 
L 3481 0 
L 794 0 
L 794 531 
z
" transform="scale(0.015625)"/>
       </defs>
       <use xlink:href="#DejaVuSans-31"/>
       <use xlink:href="#DejaVuSans-30" x="63.623047"/>
       <use xlink:href="#DejaVuSans-30" x="127.246094"/>
      </g>
     </g>
    </g>
    <g id="xtick_6">
     <g id="line2d_11">
      <path d="M 833.855594 522.25225 
L 833.855594 44.184 
" clip-path="url(#pe3ee58bf90)" style="fill: none; stroke: #b0b0b0; stroke-width: 0.8; stroke-linecap: square"/>
     </g>
     <g id="line2d_12">
      <g>
       <use xlink:href="#mb2a55ff1f8" x="833.855594" y="522.25225" style="stroke: #000000; stroke-width: 0.8"/>
      </g>
     </g>
     <g id="text_6">
      <!-- 125 -->
      <g transform="translate(824.311844 536.850687)scale(0.1 -0.1)">
       <use xlink:href="#DejaVuSans-31"/>
       <use xlink:href="#DejaVuSans-32" x="63.623047"/>
       <use xlink:href="#DejaVuSans-35" x="127.246094"/>
      </g>
     </g>
    </g>
    <g id="xtick_7">
     <g id="line2d_13">
      <path d="M 968.707389 522.25225 
L 968.707389 44.184 
" clip-path="url(#pe3ee58bf90)" style="fill: none; stroke: #b0b0b0; stroke-width: 0.8; stroke-linecap: square"/>
     </g>
     <g id="line2d_14">
      <g>
       <use xlink:href="#mb2a55ff1f8" x="968.707389" y="522.25225" style="stroke: #000000; stroke-width: 0.8"/>
      </g>
     </g>
     <g id="text_7">
      <!-- 150 -->
      <g transform="translate(959.163639 536.850687)scale(0.1 -0.1)">
       <use xlink:href="#DejaVuSans-31"/>
       <use xlink:href="#DejaVuSans-35" x="63.623047"/>
       <use xlink:href="#DejaVuSans-30" x="127.246094"/>
      </g>
     </g>
    </g>
    <g id="xtick_8">
     <g id="line2d_15">
      <path d="M 1103.559184 522.25225 
L 1103.559184 44.184 
" clip-path="url(#pe3ee58bf90)" style="fill: none; stroke: #b0b0b0; stroke-width: 0.8; stroke-linecap: square"/>
     </g>
     <g id="line2d_16">
      <g>
       <use xlink:href="#mb2a55ff1f8" x="1103.559184" y="522.25225" style="stroke: #000000; stroke-width: 0.8"/>
      </g>
     </g>
     <g id="text_8">
      <!-- 175 -->
      <g transform="translate(1094.015434 536.850687)scale(0.1 -0.1)">
       <use xlink:href="#DejaVuSans-31"/>
       <use xlink:href="#DejaVuSans-37" x="63.623047"/>
       <use xlink:href="#DejaVuSans-35" x="127.246094"/>
      </g>
     </g>
    </g>
    <g id="xtick_9">
     <g id="line2d_17">
      <path d="M 1238.410979 522.25225 
L 1238.410979 44.184 
" clip-path="url(#pe3ee58bf90)" style="fill: none; stroke: #b0b0b0; stroke-width: 0.8; stroke-linecap: square"/>
     </g>
     <g id="line2d_18">
      <g>
       <use xlink:href="#mb2a55ff1f8" x="1238.410979" y="522.25225" style="stroke: #000000; stroke-width: 0.8"/>
      </g>
     </g>
     <g id="text_9">
      <!-- 200 -->
      <g transform="translate(1228.867229 536.850687)scale(0.1 -0.1)">
       <use xlink:href="#DejaVuSans-32"/>
       <use xlink:href="#DejaVuSans-30" x="63.623047"/>
       <use xlink:href="#DejaVuSans-30" x="127.246094"/>
      </g>
     </g>
    </g>
   </g>
   <g id="matplotlib.axis_2">
    <g id="ytick_1">
     <g id="line2d_19">
      <path d="M 105.656281 500.521875 
L 1292.34375 500.521875 
" clip-path="url(#pe3ee58bf90)" style="fill: none; stroke: #b0b0b0; stroke-width: 0.8; stroke-linecap: square"/>
     </g>
     <g id="line2d_20">
      <defs>
       <path id="m2f558b2b92" d="M 0 0 
L -3.5 0 
" style="stroke: #000000; stroke-width: 0.8"/>
      </defs>
      <g>
       <use xlink:href="#m2f558b2b92" x="105.656281" y="500.521875" style="stroke: #000000; stroke-width: 0.8"/>
      </g>
     </g>
     <g id="text_10">
      <!-- 0 -->
      <g transform="translate(92.293781 504.321094)scale(0.1 -0.1)">
       <use xlink:href="#DejaVuSans-30"/>
      </g>
     </g>
    </g>
    <g id="ytick_2">
     <g id="line2d_21">
      <path d="M 105.656281 394.520046 
L 1292.34375 394.520046 
" clip-path="url(#pe3ee58bf90)" style="fill: none; stroke: #b0b0b0; stroke-width: 0.8; stroke-linecap: square"/>
     </g>
     <g id="line2d_22">
      <g>
       <use xlink:href="#m2f558b2b92" x="105.656281" y="394.520046" style="stroke: #000000; stroke-width: 0.8"/>
      </g>
     </g>
     <g id="text_11">
      <!-- 50 -->
      <g transform="translate(85.931281 398.319264)scale(0.1 -0.1)">
       <use xlink:href="#DejaVuSans-35"/>
       <use xlink:href="#DejaVuSans-30" x="63.623047"/>
      </g>
     </g>
    </g>
    <g id="ytick_3">
     <g id="line2d_23">
      <path d="M 105.656281 288.518216 
L 1292.34375 288.518216 
" clip-path="url(#pe3ee58bf90)" style="fill: none; stroke: #b0b0b0; stroke-width: 0.8; stroke-linecap: square"/>
     </g>
     <g id="line2d_24">
      <g>
       <use xlink:href="#m2f558b2b92" x="105.656281" y="288.518216" style="stroke: #000000; stroke-width: 0.8"/>
      </g>
     </g>
     <g id="text_12">
      <!-- 100 -->
      <g transform="translate(79.568781 292.317435)scale(0.1 -0.1)">
       <use xlink:href="#DejaVuSans-31"/>
       <use xlink:href="#DejaVuSans-30" x="63.623047"/>
       <use xlink:href="#DejaVuSans-30" x="127.246094"/>
      </g>
     </g>
    </g>
    <g id="ytick_4">
     <g id="line2d_25">
      <path d="M 105.656281 182.516387 
L 1292.34375 182.516387 
" clip-path="url(#pe3ee58bf90)" style="fill: none; stroke: #b0b0b0; stroke-width: 0.8; stroke-linecap: square"/>
     </g>
     <g id="line2d_26">
      <g>
       <use xlink:href="#m2f558b2b92" x="105.656281" y="182.516387" style="stroke: #000000; stroke-width: 0.8"/>
      </g>
     </g>
     <g id="text_13">
      <!-- 150 -->
      <g transform="translate(79.568781 186.315606)scale(0.1 -0.1)">
       <use xlink:href="#DejaVuSans-31"/>
       <use xlink:href="#DejaVuSans-35" x="63.623047"/>
       <use xlink:href="#DejaVuSans-30" x="127.246094"/>
      </g>
     </g>
    </g>
    <g id="ytick_5">
     <g id="line2d_27">
      <path d="M 105.656281 76.514558 
L 1292.34375 76.514558 
" clip-path="url(#pe3ee58bf90)" style="fill: none; stroke: #b0b0b0; stroke-width: 0.8; stroke-linecap: square"/>
     </g>
     <g id="line2d_28">
      <g>
       <use xlink:href="#m2f558b2b92" x="105.656281" y="76.514558" style="stroke: #000000; stroke-width: 0.8"/>
      </g>
     </g>
     <g id="text_14">
      <!-- 200 -->
      <g transform="translate(79.568781 80.313777)scale(0.1 -0.1)">
       <use xlink:href="#DejaVuSans-32"/>
       <use xlink:href="#DejaVuSans-30" x="63.623047"/>
       <use xlink:href="#DejaVuSans-30" x="127.246094"/>
      </g>
     </g>
    </g>
   </g>
   <g id="line2d_29">
    <path d="M 159.596621 498.401838 
L 159.596621 500.521875 
L 159.600397 500.521875 
L 164.44352 498.401838 
L 164.44352 500.521875 
L 166.160756 498.401838 
L 169.663916 496.281802 
L 169.837592 498.401838 
L 173.723894 496.281802 
L 175.022071 494.161765 
L 175.231664 496.281802 
L 180.625735 498.401838 
L 183.478368 496.281802 
L 184.042098 494.161765 
L 186.019807 496.281802 
L 196.807951 500.521875 
L 201.034341 498.401838 
L 202.202023 500.521875 
L 204.219771 498.401838 
L 206.428412 494.161765 
L 206.648461 492.041729 
L 207.432101 489.921692 
L 207.534419 487.801655 
L 207.596094 489.921692 
L 209.647659 487.801655 
L 211.003955 485.681619 
L 211.822484 483.561582 
L 212.990166 485.681619 
L 213.639267 483.561582 
L 216.863552 481.441546 
L 217.216556 479.321509 
L 218.384238 481.441546 
L 222.610628 479.321509 
L 223.315443 477.201473 
L 223.77831 479.321509 
L 228.0047 477.201473 
L 229.172381 479.321509 
L 229.306085 477.201473 
L 233.398771 475.081436 
L 233.86099 472.961399 
L 234.566453 475.081436 
L 235.124829 472.961399 
L 236.073719 470.841363 
L 238.792843 468.721326 
L 239.960525 470.841363 
L 244.186915 468.721326 
L 245.354597 470.841363 
L 249.580987 468.721326 
L 250.748669 470.841363 
L 254.975058 468.721326 
L 256.14274 470.841363 
L 260.36913 468.721326 
L 261.536812 470.841363 
L 264.986485 468.721326 
L 265.763202 466.60129 
L 266.930884 468.721326 
L 271.157274 466.60129 
L 272.324956 468.721326 
L 276.551346 466.60129 
L 277.719028 468.721326 
L 281.945417 466.60129 
L 283.113099 468.721326 
L 287.339489 464.481253 
L 288.507171 466.60129 
L 292.733561 464.481253 
L 293.901243 466.60129 
L 296.084214 464.481253 
L 298.438241 462.361216 
L 299.295315 464.481253 
L 302.880388 462.361216 
L 303.832312 460.24118 
L 304.689386 462.361216 
L 307.644049 460.24118 
L 310.083458 462.361216 
L 310.47181 460.24118 
L 314.811464 458.121143 
L 315.47753 460.24118 
L 315.865882 458.121143 
L 319.392222 456.001107 
L 320.871602 458.121143 
L 321.259954 456.001107 
L 322.588879 453.88107 
L 326.265674 456.001107 
L 331.659745 458.121143 
L 331.735096 456.001107 
L 332.694456 453.88107 
L 337.053817 456.001107 
L 337.129168 453.88107 
L 338.764308 451.761034 
L 342.447889 453.88107 
L 342.52324 451.761034 
L 343.553496 449.640997 
L 347.841961 451.761034 
L 347.917311 449.640997 
L 349.367415 447.52096 
L 353.236033 449.640997 
L 353.311383 447.52096 
L 354.396863 445.400924 
L 356.229039 443.280887 
L 358.630104 445.400924 
L 358.705455 443.280887 
L 363.688928 441.160851 
L 364.024176 443.280887 
L 364.099527 441.160851 
L 369.418248 443.280887 
L 369.493599 441.160851 
L 374.81232 443.280887 
L 374.88767 441.160851 
L 380.206392 443.280887 
L 380.281742 441.160851 
L 382.420034 439.040814 
L 385.600463 441.160851 
L 385.675814 439.040814 
L 390.994535 441.160851 
L 391.069886 439.040814 
L 392.343685 436.920777 
L 393.056693 434.800741 
L 396.388607 436.920777 
L 396.463957 434.800741 
L 401.200789 432.680704 
L 401.383037 430.560668 
L 401.76966 428.440631 
L 401.782679 430.560668 
L 401.858029 428.440631 
L 407.17675 430.560668 
L 407.252101 428.440631 
L 412.570822 430.560668 
L 412.646173 428.440631 
L 417.964894 430.560668 
L 418.040245 428.440631 
L 423.358966 430.560668 
L 423.614824 426.320595 
L 424.818453 424.200558 
L 428.176788 422.080521 
L 428.753038 424.200558 
L 428.828388 422.080521 
L 434.147109 424.200558 
L 434.22246 422.080521 
L 434.751065 419.960485 
L 435.029847 417.840448 
L 439.541181 419.960485 
L 439.673731 415.720412 
L 441.351113 413.600375 
L 444.935253 415.720412 
L 445.010604 413.600375 
L 447.481996 411.480338 
L 450.329325 413.600375 
L 450.404675 411.480338 
L 455.723397 413.600375 
L 455.798747 411.480338 
L 461.117468 413.600375 
L 461.192819 411.480338 
L 465.487054 409.360302 
L 466.51154 411.480338 
L 466.586891 409.360302 
L 467.502655 407.240265 
L 471.905612 409.360302 
L 471.980963 407.240265 
L 472.688729 405.120229 
L 477.299684 407.240265 
L 477.375034 405.120229 
L 480.035087 403.000192 
L 482.693756 405.120229 
L 482.769106 403.000192 
L 488.087827 405.120229 
L 488.163178 403.000192 
L 492.278767 400.880155 
L 493.481899 403.000192 
L 493.55725 400.880155 
L 497.877005 398.760119 
L 498.875971 400.880155 
L 498.951321 398.760119 
L 501.832843 396.640082 
L 504.270043 398.760119 
L 504.345393 396.640082 
L 504.82208 394.520046 
L 509.664114 396.640082 
L 509.739465 394.520046 
L 510.966239 392.400009 
L 515.058186 394.520046 
L 515.133537 392.400009 
L 519.352202 390.279973 
L 520.452258 392.400009 
L 520.527609 390.279973 
L 522.794637 388.159936 
L 525.322712 386.039899 
L 525.84633 388.159936 
L 525.92168 386.039899 
L 526.627644 383.919863 
L 528.381882 381.799826 
L 531.240402 383.919863 
L 531.315752 381.799826 
L 536.634473 383.919863 
L 536.709824 381.799826 
L 539.137873 379.67979 
L 539.981914 377.559753 
L 540.701163 375.439716 
L 542.028545 377.559753 
L 542.103896 375.439716 
L 547.422617 377.559753 
L 547.497968 375.439716 
L 552.816689 377.559753 
L 552.892039 375.439716 
L 555.915876 373.31968 
L 556.005235 371.199643 
L 558.210761 373.31968 
L 558.286111 371.199643 
L 563.604832 373.31968 
L 563.680183 371.199643 
L 568.998904 373.31968 
L 569.074255 371.199643 
L 570.313326 369.079607 
L 572.53962 366.95957 
L 573.868805 364.839534 
L 574.392976 366.95957 
L 574.468327 364.839534 
L 577.144513 362.719497 
L 579.787048 364.839534 
L 579.862398 362.719497 
L 580.800626 360.59946 
L 585.18112 362.719497 
L 585.25647 360.59946 
L 590.575191 362.719497 
L 590.650542 360.59946 
L 595.969263 362.719497 
L 596.101667 358.479424 
L 598.402431 356.359387 
L 601.363335 358.479424 
L 601.438685 356.359387 
L 606.757407 358.479424 
L 606.832757 356.359387 
L 609.097521 354.239351 
L 610.791249 352.119314 
L 612.151478 354.239351 
L 612.226829 352.119314 
L 613.641839 349.999277 
L 615.549164 347.879241 
L 616.242735 345.759204 
L 617.54555 347.879241 
L 617.620901 345.759204 
L 622.939622 347.879241 
L 623.014973 345.759204 
L 628.333694 347.879241 
L 628.409044 345.759204 
L 633.727766 347.879241 
L 633.803116 345.759204 
L 637.536552 343.639168 
L 639.121837 345.759204 
L 639.197188 343.639168 
L 639.659133 341.519131 
L 639.796896 337.279058 
L 643.909464 335.159021 
L 644.515909 337.279058 
L 644.59126 335.159021 
L 645.465723 333.038985 
L 649.909981 335.159021 
L 649.985332 333.038985 
L 654.435879 330.918948 
L 655.304053 333.038985 
L 655.379403 330.918948 
L 657.006039 328.798912 
L 657.76643 326.678875 
L 659.702693 324.558838 
L 660.698125 326.678875 
L 660.773475 324.558838 
L 661.342338 322.438802 
L 664.627675 320.318765 
L 666.092196 322.438802 
L 666.167547 320.318765 
L 667.692427 318.198729 
L 671.486268 320.318765 
L 671.561619 318.198729 
L 676.073442 316.078692 
L 676.88034 318.198729 
L 676.955691 316.078692 
L 678.598442 313.958655 
L 679.371159 311.838619 
L 680.554986 309.718582 
L 682.274412 311.838619 
L 682.349762 309.718582 
L 687.668484 311.838619 
L 687.743834 309.718582 
L 688.702524 307.598546 
L 692.317803 305.478509 
L 693.062555 307.598546 
L 693.137906 305.478509 
L 695.796486 303.358473 
L 698.456627 305.478509 
L 698.531978 303.358473 
L 699.644532 301.238436 
L 703.824087 299.118399 
L 703.850699 301.238436 
L 703.926049 299.118399 
L 704.941659 296.998363 
L 709.175126 294.878326 
L 709.244771 296.998363 
L 709.320121 294.878326 
L 714.638842 296.998363 
L 714.714193 294.878326 
L 717.866767 292.75829 
L 720.032914 294.878326 
L 720.108265 292.75829 
L 720.864031 290.638253 
L 723.005914 288.518216 
L 725.426986 290.638253 
L 725.502337 288.518216 
L 730.631963 286.39818 
L 730.821058 288.518216 
L 730.896408 286.39818 
L 733.937156 284.278143 
L 736.21513 286.39818 
L 736.29048 284.278143 
L 738.338818 282.158107 
L 741.609201 284.278143 
L 741.684552 282.158107 
L 747.003273 284.278143 
L 747.078624 282.158107 
L 749.061907 280.03807 
L 749.597115 277.918034 
L 752.397345 280.03807 
L 752.472696 277.918034 
L 754.944147 275.797997 
L 757.791417 277.918034 
L 757.920076 273.67796 
L 763.185489 275.797997 
L 763.260839 273.67796 
L 765.232919 271.557924 
L 768.397992 269.437887 
L 768.486797 267.317851 
L 768.57956 269.437887 
L 768.654911 267.317851 
L 772.580707 265.197814 
L 773.973632 267.317851 
L 774.048983 265.197814 
L 779.367704 267.317851 
L 779.443054 265.197814 
L 784.761776 267.317851 
L 784.837126 265.197814 
L 788.255446 263.077777 
L 789.013182 260.957741 
L 790.155847 263.077777 
L 790.231198 260.957741 
L 792.6561 258.837704 
L 792.908192 256.717668 
L 795.549919 258.837704 
L 795.745639 254.597631 
L 800.943991 256.717668 
L 801.019342 254.597631 
L 801.237978 252.477595 
L 806.338063 254.597631 
L 806.413413 252.477595 
L 811.732135 254.597631 
L 811.807485 252.477595 
L 817.126206 254.597631 
L 817.201557 252.477595 
L 822.520278 254.597631 
L 822.595629 252.477595 
L 825.769266 250.357558 
L 827.91435 252.477595 
L 827.989701 250.357558 
L 828.966103 248.237521 
L 833.308422 250.357558 
L 833.383772 248.237521 
L 838.481717 246.117485 
L 838.702494 248.237521 
L 838.777844 246.117485 
L 844.096565 248.237521 
L 844.171916 246.117485 
L 849.490637 248.237521 
L 849.565988 246.117485 
L 854.884709 248.237521 
L 854.96006 246.117485 
L 857.21455 243.997448 
L 860.278781 246.117485 
L 860.354131 243.997448 
L 863.527964 241.877412 
L 865.672853 243.997448 
L 865.748203 241.877412 
L 868.907466 239.757375 
L 871.022813 237.637338 
L 871.066924 239.757375 
L 871.142275 237.637338 
L 876.460996 239.757375 
L 876.536347 237.637338 
L 879.585131 235.517302 
L 880.799027 233.397265 
L 881.855068 235.517302 
L 881.930418 233.397265 
L 886.220693 231.277229 
L 887.24914 233.397265 
L 887.32449 231.277229 
L 892.643211 233.397265 
L 892.718562 231.277229 
L 893.714992 229.157192 
L 894.111491 227.037155 
L 898.037283 229.157192 
L 898.112634 227.037155 
L 899.214832 224.917119 
L 900.106434 222.797082 
L 903.021405 220.677046 
L 903.431355 222.797082 
L 903.589919 218.557009 
L 906.192965 216.436973 
L 906.598555 214.316936 
L 906.703681 212.196899 
L 908.825427 214.316936 
L 908.900777 212.196899 
L 910.973678 210.076863 
L 912.588409 207.956826 
L 914.219499 210.076863 
L 914.294849 207.956826 
L 919.61357 210.076863 
L 924.836783 207.956826 
L 925.007642 210.076863 
L 926.377162 207.956826 
L 930.351906 203.716753 
L 930.401714 205.83679 
L 930.899984 203.716753 
L 931.04498 201.596716 
L 935.745978 199.47668 
L 935.795786 201.596716 
L 938.535605 199.47668 
L 939.531436 197.356643 
L 941.189858 199.47668 
L 946.304561 197.356643 
L 946.583929 199.47668 
L 951.698633 197.356643 
L 951.978001 199.47668 
L 952.032338 197.356643 
L 957.092705 195.236607 
L 957.372073 197.356643 
L 962.486777 195.236607 
L 962.766145 197.356643 
L 967.64881 195.236607 
L 967.880849 193.11657 
L 968.160217 195.236607 
L 970.16405 193.11657 
L 972.581068 190.996534 
L 972.713836 188.876497 
L 973.27492 186.75646 
L 973.554288 188.876497 
L 975.7036 186.75646 
L 978.668992 184.636424 
L 978.94836 186.75646 
L 982.036619 184.636424 
L 984.063064 182.516387 
L 984.342432 184.636424 
L 988.983591 182.516387 
L 989.457136 180.396351 
L 989.736504 182.516387 
L 993.776379 180.396351 
L 993.868162 178.276314 
L 994.851207 176.156277 
L 995.130575 178.276314 
L 999.804168 176.156277 
L 1000.245279 174.036241 
L 1000.524647 176.156277 
L 1005.639351 174.036241 
L 1005.918719 176.156277 
L 1006.036882 174.036241 
L 1011.033423 171.916204 
L 1011.312791 174.036241 
L 1016.427495 171.916204 
L 1016.706863 174.036241 
L 1019.629343 171.916204 
L 1021.821566 169.796168 
L 1022.100934 171.916204 
L 1027.215638 169.796168 
L 1027.495006 171.916204 
L 1031.388529 169.796168 
L 1032.60971 167.676131 
L 1032.889078 169.796168 
L 1033.96149 167.676131 
L 1034.65667 165.556095 
L 1038.003782 163.436058 
L 1038.28315 165.556095 
L 1040.814626 163.436058 
L 1041.480306 161.316021 
L 1041.678263 159.195985 
L 1042.285258 157.075948 
L 1043.321435 154.955912 
L 1043.397854 152.835875 
L 1043.677222 154.955912 
L 1045.373939 152.835875 
L 1046.900852 150.715838 
L 1048.791925 148.595802 
L 1049.071293 150.715838 
L 1051.363507 148.595802 
L 1054.185997 146.475765 
L 1054.465365 148.595802 
L 1056.278293 146.475765 
L 1059.580069 144.355729 
L 1059.859437 146.475765 
L 1060.969061 144.355729 
L 1063.387381 142.235692 
L 1064.974141 140.115655 
L 1065.253509 142.235692 
L 1070.368212 140.115655 
L 1070.647581 142.235692 
L 1074.7569 140.115655 
L 1075.762284 137.995619 
L 1076.041652 140.115655 
L 1078.817393 137.995619 
L 1081.156356 135.875582 
L 1081.435724 137.995619 
L 1083.723683 135.875582 
L 1085.595042 133.755546 
L 1085.94724 131.635509 
L 1086.550428 129.515473 
L 1086.829796 131.635509 
L 1091.9445 129.515473 
L 1092.223868 131.635509 
L 1097.338571 129.515473 
L 1097.617939 131.635509 
L 1099.970065 129.515473 
L 1102.732643 127.395436 
L 1103.012011 129.515473 
L 1108.126715 127.395436 
L 1108.406083 129.515473 
L 1113.520787 127.395436 
L 1113.800155 129.515473 
L 1114.178758 127.395436 
L 1118.914859 125.275399 
L 1119.194227 127.395436 
L 1124.30893 125.275399 
L 1124.588298 127.395436 
L 1129.703002 125.275399 
L 1129.98237 127.395436 
L 1135.097074 125.275399 
L 1135.376442 127.395436 
L 1136.701401 125.275399 
L 1138.415472 123.155363 
L 1138.877316 121.035326 
L 1140.491146 116.795253 
L 1140.770514 118.91529 
L 1142.793031 116.795253 
L 1145.885218 114.675216 
L 1146.164586 116.795253 
L 1150.793375 114.675216 
L 1151.279289 112.55518 
L 1151.558657 114.675216 
L 1156.673361 112.55518 
L 1156.952729 114.675216 
L 1158.172757 112.55518 
L 1162.067433 110.435143 
L 1162.346801 112.55518 
L 1167.461505 110.435143 
L 1167.740873 112.55518 
L 1170.168001 110.435143 
L 1172.855576 108.315107 
L 1173.134945 110.435143 
L 1178.249648 108.315107 
L 1178.529016 110.435143 
L 1180.853416 108.315107 
L 1181.517483 106.19507 
L 1183.64372 104.075034 
L 1183.923088 106.19507 
L 1184.811934 104.075034 
L 1187.784812 101.954997 
L 1189.037792 99.83496 
L 1189.31716 101.954997 
L 1194.431864 99.83496 
L 1194.711232 101.954997 
L 1198.280514 99.83496 
L 1199.825935 97.714924 
L 1200.105303 99.83496 
L 1201.032954 97.714924 
L 1203.780848 95.594887 
L 1205.220007 93.474851 
L 1205.499375 95.594887 
L 1208.922941 93.474851 
L 1210.614079 91.354814 
L 1210.893447 93.474851 
L 1215.912999 91.354814 
L 1216.008151 89.234777 
L 1216.287519 91.354814 
L 1221.402223 89.234777 
L 1221.681591 91.354814 
L 1222.663728 89.234777 
L 1222.825997 87.114741 
L 1226.796294 84.994704 
L 1227.075662 87.114741 
L 1232.190366 84.994704 
L 1232.469734 87.114741 
L 1237.584438 84.994704 
L 1237.863806 87.114741 
L 1237.863806 87.114741 
" clip-path="url(#pe3ee58bf90)" style="fill: none; stroke: #1f77b4; stroke-width: 1.5; stroke-linecap: square"/>
   </g>
   <g id="line2d_30">
    <path d="M 159.596621 498.401838 
L 159.596621 500.521875 
L 159.600397 500.521875 
L 169.627459 498.401838 
L 169.627459 500.521875 
L 178.647487 498.401838 
L 178.647487 500.521875 
L 195.639729 498.401838 
L 195.639729 500.521875 
L 196.318705 498.401838 
L 197.153328 496.281802 
L 201.033801 498.401838 
L 201.311265 496.281802 
L 201.915111 494.161765 
L 205.376458 492.041729 
L 206.427873 494.161765 
L 209.909284 492.041729 
L 211.821945 494.161765 
L 215.085155 492.041729 
L 217.216017 494.161765 
L 220.206797 492.041729 
L 222.610088 494.161765 
L 225.918224 492.041729 
L 228.00416 494.161765 
L 228.309977 492.041729 
L 230.748648 489.921692 
L 233.398232 492.041729 
L 236.174389 489.921692 
L 238.792304 492.041729 
L 241.885323 489.921692 
L 244.186375 492.041729 
L 245.357924 489.921692 
L 249.580447 492.041729 
L 251.416374 489.921692 
L 254.974519 492.041729 
L 260.368591 494.161765 
L 260.695967 492.041729 
L 265.762663 494.161765 
L 271.156734 496.281802 
L 272.052221 494.161765 
L 276.550806 496.281802 
L 287.33895 500.521875 
L 293.043629 498.401838 
L 293.043629 500.521875 
L 295.112581 498.401838 
L 298.437701 500.521875 
L 305.077199 498.401838 
L 305.077199 500.521875 
L 307.567808 498.401838 
L 310.471271 500.521875 
L 314.129743 498.401838 
L 315.865342 500.521875 
L 326.340485 498.401838 
L 326.340485 500.521875 
L 327.006796 498.401838 
L 328.911012 496.281802 
L 331.734557 498.401838 
L 337.128628 500.521875 
L 337.978027 498.401838 
L 342.5227 500.521875 
L 344.339704 498.401838 
L 347.916772 500.521875 
L 348.092896 498.401838 
L 350.802396 496.281802 
L 353.310844 498.401838 
L 354.276743 496.281802 
L 358.704916 498.401838 
L 360.098674 496.281802 
L 361.206993 492.041729 
L 364.098987 494.161765 
L 366.027832 492.041729 
L 368.116039 489.921692 
L 369.493059 492.041729 
L 380.281203 496.281802 
L 380.353214 494.161765 
L 382.696106 492.041729 
L 383.569245 489.921692 
L 385.675274 492.041729 
L 391.069346 494.161765 
L 396.24627 492.041729 
L 396.463418 494.161765 
L 399.105143 492.041729 
L 399.918521 489.921692 
L 401.85749 492.041729 
L 402.738919 489.921692 
L 405.259421 487.801655 
L 405.539441 485.681619 
L 407.251562 487.801655 
L 412.645633 489.921692 
L 416.396482 487.801655 
L 418.039705 489.921692 
L 423.433777 492.041729 
L 423.458931 489.921692 
L 425.691963 487.801655 
L 427.059391 485.681619 
L 428.827849 487.801655 
L 439.615992 492.041729 
L 441.257769 489.921692 
L 445.010064 492.041729 
L 446.392006 489.921692 
L 450.404136 492.041729 
L 453.457083 489.921692 
L 454.727519 487.801655 
L 455.798208 489.921692 
L 466.586351 494.161765 
L 470.3114 492.041729 
L 471.980423 494.161765 
L 474.529433 492.041729 
L 477.374495 494.161765 
L 478.042219 492.041729 
L 482.190906 489.921692 
L 482.768567 492.041729 
L 485.61037 489.921692 
L 488.162638 492.041729 
L 493.55671 494.161765 
L 498.388485 492.041729 
L 498.950782 494.161765 
L 503.73673 492.041729 
L 504.344854 494.161765 
L 515.132997 498.401838 
L 515.419015 496.281802 
L 516.71318 494.161765 
L 520.527069 496.281802 
L 531.315213 500.521875 
L 533.74278 498.401838 
L 534.779852 496.281802 
L 536.709285 498.401838 
L 537.499974 496.281802 
L 538.592051 494.161765 
L 539.828611 492.041729 
L 542.103356 494.161765 
L 543.440161 492.041729 
L 543.964291 489.921692 
L 547.497428 492.041729 
L 552.8915 494.161765 
L 556.589072 492.041729 
L 558.285572 494.161765 
L 563.679644 496.281802 
L 566.244405 494.161765 
L 566.60091 492.041729 
L 569.073715 494.161765 
L 570.186931 492.041729 
L 574.467787 494.161765 
L 579.861859 496.281802 
L 581.468937 494.161765 
L 585.255931 496.281802 
L 588.250564 494.161765 
L 590.650002 496.281802 
L 593.620166 494.161765 
L 594.785804 492.041729 
L 596.044074 494.161765 
L 599.974966 492.041729 
L 600.839819 489.921692 
L 601.438146 492.041729 
L 606.832218 494.161765 
L 609.017604 492.041729 
L 609.039484 489.921692 
L 612.22629 492.041729 
L 614.542446 489.921692 
L 615.678078 487.801655 
L 617.048234 485.681619 
L 617.603653 483.561582 
L 617.620361 485.681619 
L 620.414389 483.561582 
L 623.014433 485.681619 
L 639.196649 492.041729 
L 639.881276 489.921692 
L 644.59072 492.041729 
L 647.822451 489.921692 
L 649.341012 487.801655 
L 649.984792 489.921692 
L 652.393487 487.801655 
L 655.378864 489.921692 
L 660.772936 492.041729 
L 661.938944 489.921692 
L 666.167008 492.041729 
L 668.140731 489.921692 
L 668.456435 487.801655 
L 671.561079 489.921692 
L 674.897029 487.801655 
L 676.517004 485.681619 
L 676.955151 487.801655 
L 681.29486 485.681619 
L 682.349223 487.801655 
L 687.743295 489.921692 
L 688.06924 487.801655 
L 690.045905 485.681619 
L 692.933914 483.561582 
L 693.128116 481.441546 
L 693.137366 483.561582 
L 698.531438 485.681619 
L 701.385622 483.561582 
L 703.511197 481.441546 
L 703.92551 483.561582 
L 704.450838 481.441546 
L 709.319582 483.561582 
L 714.713654 485.681619 
L 717.090442 483.561582 
L 717.619706 481.441546 
L 720.107725 483.561582 
L 725.501797 485.681619 
L 730.262707 483.561582 
L 730.895869 485.681619 
L 731.692638 483.561582 
L 736.289941 485.681619 
L 747.078084 489.921692 
L 748.269026 487.801655 
L 748.748195 485.681619 
L 749.684911 483.561582 
L 752.472156 485.681619 
L 755.100835 483.561582 
L 757.866228 485.681619 
L 758.299959 483.561582 
L 758.482667 481.441546 
L 760.460701 479.321509 
L 763.2603 481.441546 
L 774.048443 485.681619 
L 777.688081 483.561582 
L 779.442515 485.681619 
L 779.821791 483.561582 
L 784.836587 485.681619 
L 789.690472 483.561582 
L 790.230659 485.681619 
L 806.412874 492.041729 
L 811.253617 489.921692 
L 811.806946 492.041729 
L 813.838524 489.921692 
L 817.201018 492.041729 
L 819.259207 489.921692 
L 822.595089 492.041729 
L 822.9731 489.921692 
L 827.989161 492.041729 
L 829.586945 489.921692 
L 833.383233 492.041729 
L 838.777305 494.161765 
L 843.556653 492.041729 
L 844.171377 494.161765 
L 854.95952 498.401838 
L 856.25071 496.281802 
L 857.684544 494.161765 
L 860.308863 492.041729 
L 860.353592 494.161765 
L 860.960636 492.041729 
L 865.747664 494.161765 
L 871.141735 496.281802 
L 872.475374 494.161765 
L 875.693207 492.041729 
L 876.535807 494.161765 
L 881.929879 496.281802 
L 885.551015 494.161765 
L 887.323951 496.281802 
L 887.864596 494.161765 
L 892.718023 496.281802 
L 903.506166 500.521875 
L 906.425295 498.401838 
L 908.900238 500.521875 
L 924.957295 498.401838 
L 924.957295 500.521875 
L 928.759842 498.401838 
L 930.351366 500.521875 
L 940.90995 498.401838 
L 940.90995 500.521875 
L 943.069637 498.401838 
L 943.665767 496.281802 
L 946.304022 498.401838 
L 947.540684 496.281802 
L 951.698094 498.401838 
L 954.80892 496.281802 
L 956.045873 494.161765 
L 957.092166 496.281802 
L 962.143641 494.161765 
L 962.486237 496.281802 
L 966.375596 494.161765 
L 967.880309 496.281802 
L 968.29678 494.161765 
L 968.430732 492.041729 
L 972.509547 489.921692 
L 973.274381 492.041729 
L 973.409255 489.921692 
L 975.671957 487.801655 
L 976.941753 485.681619 
L 977.506578 483.561582 
L 978.668453 485.681619 
L 979.352293 483.561582 
L 983.530092 481.441546 
L 984.062524 483.561582 
L 994.850668 487.801655 
L 999.567791 485.681619 
L 1000.24474 487.801655 
L 1005.638812 489.921692 
L 1008.631355 487.801655 
L 1011.032883 489.921692 
L 1012.589903 487.801655 
L 1015.923722 485.681619 
L 1016.426955 487.801655 
L 1020.102044 485.681619 
L 1021.821027 487.801655 
L 1027.215099 489.921692 
L 1031.543703 487.801655 
L 1032.609171 489.921692 
L 1043.397314 494.161765 
L 1045.328349 492.041729 
L 1047.986973 489.921692 
L 1048.791386 492.041729 
L 1048.930451 489.921692 
L 1053.611185 487.801655 
L 1054.185458 489.921692 
L 1056.800714 487.801655 
L 1057.651209 485.681619 
L 1059.57953 487.801655 
L 1059.856939 485.681619 
L 1062.987063 483.561582 
L 1064.520164 481.441546 
L 1064.853605 479.321509 
L 1064.973601 481.441546 
L 1068.78592 479.321509 
L 1070.367673 481.441546 
L 1075.761745 483.561582 
L 1081.102711 481.441546 
L 1081.155817 483.561582 
L 1097.338032 489.921692 
L 1100.057365 487.801655 
L 1102.732104 489.921692 
L 1103.346466 487.801655 
L 1108.126176 489.921692 
L 1118.914319 494.161765 
L 1122.350597 492.041729 
L 1124.308391 494.161765 
L 1129.702463 496.281802 
L 1131.396104 494.161765 
L 1135.096535 496.281802 
L 1139.197591 494.161765 
L 1140.490606 496.281802 
L 1145.884678 498.401838 
L 1147.015337 496.281802 
L 1149.136379 494.161765 
L 1151.27875 496.281802 
L 1162.066894 500.521875 
L 1164.00359 498.401838 
L 1166.585067 496.281802 
L 1167.460965 498.401838 
L 1172.855037 500.521875 
L 1174.396471 498.401838 
L 1176.996301 496.281802 
L 1177.544063 494.161765 
L 1178.249109 496.281802 
L 1178.868167 492.041729 
L 1180.573973 489.921692 
L 1183.643181 492.041729 
L 1184.031117 489.921692 
L 1189.037252 492.041729 
L 1199.825396 496.281802 
L 1205.122697 494.161765 
L 1205.219468 496.281802 
L 1205.514393 494.161765 
L 1210.61354 496.281802 
L 1214.836748 494.161765 
L 1216.007611 496.281802 
L 1217.640705 494.161765 
L 1220.39308 492.041729 
L 1221.401683 494.161765 
L 1225.421362 492.041729 
L 1226.795755 494.161765 
L 1231.603389 492.041729 
L 1232.189827 494.161765 
L 1234.397105 492.041729 
L 1237.583899 494.161765 
L 1238.403411 492.041729 
L 1238.403411 492.041729 
" clip-path="url(#pe3ee58bf90)" style="fill: none; stroke: #ff7f0e; stroke-width: 1.5; stroke-linecap: square"/>
   </g>
   <g id="line2d_31">
    <path d="M 159.596621 498.401838 
L 159.596621 500.521875 
L 159.59716 498.401838 
L 159.59716 500.521875 
L 159.5977 498.401838 
L 159.5977 500.521875 
L 159.598239 498.401838 
L 159.598239 500.521875 
L 159.598778 498.401838 
L 159.598778 500.521875 
L 159.599318 498.401838 
L 159.599318 500.521875 
L 159.599857 498.401838 
L 159.599857 500.521875 
L 159.600397 498.401838 
L 159.600397 500.521875 
" clip-path="url(#pe3ee58bf90)" style="fill: none; stroke: #2ca02c; stroke-width: 1.5; stroke-linecap: square"/>
   </g>
   <g id="line2d_32">
    <path d="M 159.596621 498.401838 
L 159.596621 500.521875 
L 159.59716 498.401838 
L 159.59716 500.521875 
L 159.5977 498.401838 
L 159.5977 500.521875 
L 159.598239 498.401838 
L 159.598239 500.521875 
L 159.598778 498.401838 
L 159.598778 500.521875 
L 159.599318 498.401838 
L 159.599318 500.521875 
L 159.599857 498.401838 
L 159.599857 500.521875 
L 159.600397 498.401838 
L 159.600397 500.521875 
" clip-path="url(#pe3ee58bf90)" style="fill: none; stroke: #d62728; stroke-width: 1.5; stroke-linecap: square"/>
   </g>
   <g id="line2d_33">
    <path d="M 159.596621 498.401838 
L 159.596621 500.521875 
L 159.59716 498.401838 
L 159.59716 500.521875 
L 159.5977 498.401838 
L 159.5977 500.521875 
L 159.598239 498.401838 
L 159.598239 500.521875 
L 159.598778 498.401838 
L 159.598778 500.521875 
L 159.599318 498.401838 
L 159.599318 500.521875 
L 159.599857 498.401838 
L 159.599857 500.521875 
L 159.600397 498.401838 
L 159.600397 500.521875 
" clip-path="url(#pe3ee58bf90)" style="fill: none; stroke: #9467bd; stroke-width: 1.5; stroke-linecap: square"/>
   </g>
   <g id="line2d_34">
    <path d="M 159.596621 498.401838 
L 159.596621 500.521875 
L 159.600397 500.521875 
L 162.213437 498.401838 
L 162.213437 500.521875 
L 162.528368 498.401838 
L 166.896198 496.281802 
L 167.607509 498.401838 
L 173.00158 500.521875 
L 175.232742 498.401838 
L 178.395652 500.521875 
L 180.409243 498.401838 
L 180.626814 496.281802 
L 181.224993 494.161765 
L 183.789724 496.281802 
L 186.020886 494.161765 
L 189.183796 496.281802 
L 191.414958 494.161765 
L 192.230594 492.041729 
L 194.577868 494.161765 
L 196.195045 492.041729 
L 196.80903 489.921692 
L 199.971939 492.041729 
L 201.704722 489.921692 
L 202.203101 487.801655 
L 204.593602 485.681619 
L 205.366011 487.801655 
L 207.597173 485.681619 
L 210.760083 487.801655 
L 211.796253 485.681619 
L 212.991245 483.561582 
L 216.154155 485.681619 
L 218.385317 483.561582 
L 221.548227 485.681619 
L 223.779388 483.561582 
L 226.942298 485.681619 
L 227.319933 483.561582 
L 229.17346 481.441546 
L 232.33637 483.561582 
L 232.369117 481.441546 
L 234.567532 479.321509 
L 237.730442 481.441546 
L 239.961604 479.321509 
L 243.124514 481.441546 
L 245.355676 479.321509 
L 248.518586 481.441546 
L 250.749747 477.201473 
L 253.912657 479.321509 
L 256.143819 477.201473 
L 259.306729 479.321509 
L 261.537891 477.201473 
L 264.700801 479.321509 
L 265.705217 477.201473 
L 266.014442 475.081436 
L 266.931963 472.961399 
L 269.250599 470.841363 
L 269.575141 466.60129 
L 270.094873 468.721326 
L 272.326035 466.60129 
L 272.719229 464.481253 
L 275.121853 462.361216 
L 275.488944 464.481253 
L 277.720106 462.361216 
L 278.658457 460.24118 
L 280.883016 462.361216 
L 283.114178 460.24118 
L 286.277088 462.361216 
L 288.50825 460.24118 
L 291.67116 462.361216 
L 292.164736 460.24118 
L 293.902322 458.121143 
L 293.970354 453.88107 
L 297.065232 456.001107 
L 299.296394 453.88107 
L 299.908396 451.761034 
L 302.459303 453.88107 
L 304.690465 451.761034 
L 307.853375 453.88107 
L 309.840406 451.761034 
L 310.084537 449.640997 
L 313.247447 451.761034 
L 315.478609 449.640997 
L 318.641519 451.761034 
L 320.872681 449.640997 
L 324.035591 451.761034 
L 326.266752 449.640997 
L 327.506763 447.52096 
L 329.429662 449.640997 
L 331.660824 447.52096 
L 334.823734 449.640997 
L 335.364947 447.52096 
L 337.054896 445.400924 
L 337.39171 443.280887 
L 340.217806 445.400924 
L 342.448968 443.280887 
L 345.611878 445.400924 
L 347.84304 443.280887 
L 351.005949 445.400924 
L 355.539365 441.160851 
L 356.400021 443.280887 
L 360.730486 439.040814 
L 361.794093 441.160851 
L 364.025255 439.040814 
L 365.282481 436.920777 
L 367.188165 439.040814 
L 369.419327 436.920777 
L 370.977809 434.800741 
L 372.582237 436.920777 
L 372.604477 434.800741 
L 374.813399 432.680704 
L 376.758327 430.560668 
L 377.976308 432.680704 
L 379.962802 430.560668 
L 380.20747 428.440631 
L 383.37038 430.560668 
L 385.601542 428.440631 
L 388.764452 430.560668 
L 390.995614 428.440631 
L 393.551991 426.320595 
L 394.158524 428.440631 
L 396.389686 426.320595 
L 399.552596 428.440631 
L 401.783758 426.320595 
L 404.35085 424.200558 
L 404.946667 426.320595 
L 407.177829 424.200558 
L 410.340739 426.320595 
L 411.257064 424.200558 
L 412.571901 422.080521 
L 413.664184 419.960485 
L 415.734811 422.080521 
L 417.965973 419.960485 
L 421.128883 422.080521 
L 423.360045 419.960485 
L 426.522955 422.080521 
L 428.754116 419.960485 
L 429.223987 417.840448 
L 431.917026 419.960485 
L 434.12161 417.840448 
L 434.148188 415.720412 
L 437.311098 417.840448 
L 437.860779 415.720412 
L 439.326177 413.600375 
L 439.54226 411.480338 
L 442.70517 413.600375 
L 444.936332 411.480338 
L 448.099242 413.600375 
L 450.330404 411.480338 
L 453.493313 413.600375 
L 455.724475 411.480338 
L 458.887385 413.600375 
L 461.118547 411.480338 
L 464.281457 413.600375 
L 465.64457 411.480338 
L 466.512619 409.360302 
L 469.675529 411.480338 
L 471.906691 409.360302 
L 475.069601 411.480338 
L 477.126769 409.360302 
L 477.300763 407.240265 
L 480.387923 405.120229 
L 480.463672 407.240265 
L 482.694834 405.120229 
L 485.857744 407.240265 
L 487.153186 405.120229 
L 487.94933 403.000192 
L 488.088906 400.880155 
L 491.251816 403.000192 
L 495.61098 398.760119 
L 496.645888 400.880155 
L 498.87705 396.640082 
L 502.03996 398.760119 
L 504.271121 396.640082 
L 507.31998 394.520046 
L 507.434031 396.640082 
L 509.665193 394.520046 
L 512.828103 396.640082 
L 513.593896 394.520046 
L 515.059265 392.400009 
L 515.174097 390.279973 
L 517.204584 388.159936 
L 518.222175 390.279973 
L 520.453337 388.159936 
L 521.143485 386.039899 
L 522.397742 383.919863 
L 523.616247 386.039899 
L 525.847409 383.919863 
L 529.010319 386.039899 
L 529.469221 383.919863 
L 530.143655 381.799826 
L 531.24148 379.67979 
L 534.40439 381.799826 
L 536.203682 379.67979 
L 536.635552 377.559753 
L 539.798462 379.67979 
L 540.698984 377.559753 
L 542.029624 375.439716 
L 545.192534 377.559753 
L 547.423696 375.439716 
L 547.605685 373.31968 
L 548.075555 371.199643 
L 550.586606 373.31968 
L 552.817768 371.199643 
L 555.537263 369.079607 
L 555.980677 371.199643 
L 558.211839 369.079607 
L 561.374749 371.199643 
L 561.637519 369.079607 
L 563.42247 366.95957 
L 563.605911 364.839534 
L 566.768821 366.95957 
L 568.184791 364.839534 
L 568.999983 362.719497 
L 572.162893 364.839534 
L 574.394055 362.719497 
L 577.556965 364.839534 
L 579.788127 362.719497 
L 582.951036 364.839534 
L 585.182198 362.719497 
L 588.345108 364.839534 
L 588.650028 362.719497 
L 590.57627 360.59946 
L 593.73918 362.719497 
L 595.300274 360.59946 
L 595.372151 358.479424 
L 595.970342 356.359387 
L 599.133252 358.479424 
L 601.364414 356.359387 
L 604.527324 358.479424 
L 606.758485 356.359387 
L 609.921395 358.479424 
L 612.152557 356.359387 
L 615.112605 354.239351 
L 615.315467 356.359387 
L 617.546629 354.239351 
L 617.878225 352.119314 
L 620.709539 354.239351 
L 622.940701 352.119314 
L 626.103611 354.239351 
L 628.334773 352.119314 
L 628.568684 349.999277 
L 631.497683 352.119314 
L 633.728844 349.999277 
L 636.591987 347.879241 
L 636.891754 349.999277 
L 638.01748 347.879241 
L 638.313655 345.759204 
L 639.122916 343.639168 
L 642.285826 345.759204 
L 644.516988 343.639168 
L 645.288987 341.519131 
L 647.679898 343.639168 
L 649.91106 341.519131 
L 651.30277 339.399095 
L 653.07397 341.519131 
L 655.305132 339.399095 
L 658.468041 341.519131 
L 658.826794 339.399095 
L 662.437062 335.159021 
L 663.862113 337.279058 
L 666.093275 335.159021 
L 668.85329 333.038985 
L 669.256185 335.159021 
L 670.101591 333.038985 
L 671.487347 330.918948 
L 674.650257 333.038985 
L 676.881419 330.918948 
L 678.237012 328.798912 
L 680.044329 330.918948 
L 682.275491 328.798912 
L 685.4384 330.918948 
L 687.669562 328.798912 
L 690.244669 326.678875 
L 690.832472 328.798912 
L 691.276534 326.678875 
L 693.063634 324.558838 
L 696.226544 326.678875 
L 696.871508 324.558838 
L 697.81113 322.438802 
L 698.457706 320.318765 
L 698.648751 318.198729 
L 701.620616 320.318765 
L 703.851778 318.198729 
L 704.818466 316.078692 
L 707.014688 318.198729 
L 709.245849 316.078692 
L 709.484004 313.958655 
L 712.408759 316.078692 
L 714.639921 313.958655 
L 716.431363 311.838619 
L 717.802831 313.958655 
L 719.178038 311.838619 
L 720.033993 309.718582 
L 723.196903 311.838619 
L 725.428065 309.718582 
L 725.665562 307.598546 
L 728.590975 309.718582 
L 730.822137 307.598546 
L 733.522353 305.478509 
L 733.985047 307.598546 
L 736.216208 305.478509 
L 739.379118 307.598546 
L 741.61028 305.478509 
L 744.040668 303.358473 
L 744.77319 305.478509 
L 747.004352 303.358473 
L 750.167262 305.478509 
L 752.398424 303.358473 
L 755.561334 305.478509 
L 757.792496 303.358473 
L 760.955405 305.478509 
L 763.186567 303.358473 
L 766.349477 305.478509 
L 768.580639 303.358473 
L 770.382612 301.238436 
L 771.743549 303.358473 
L 773.974711 301.238436 
L 776.533359 299.118399 
L 777.054109 296.998363 
L 777.137621 299.118399 
L 779.368783 296.998363 
L 780.319862 294.878326 
L 780.58613 290.638253 
L 782.531693 292.75829 
L 784.467946 290.638253 
L 784.762855 288.518216 
L 784.848239 286.39818 
L 786.413995 284.278143 
L 787.925764 286.39818 
L 790.156926 284.278143 
L 791.095304 282.158107 
L 793.319836 284.278143 
L 795.550998 282.158107 
L 798.713908 284.278143 
L 800.94507 282.158107 
L 804.10798 284.278143 
L 806.339142 282.158107 
L 809.502052 284.278143 
L 810.835245 282.158107 
L 811.733213 280.03807 
L 814.896123 282.158107 
L 817.042001 280.03807 
L 817.127285 277.918034 
L 820.018462 275.797997 
L 820.290195 277.918034 
L 822.521357 275.797997 
L 824.382156 273.67796 
L 825.684267 275.797997 
L 827.272833 273.67796 
L 827.915429 271.557924 
L 831.078339 273.67796 
L 833.309501 271.557924 
L 836.47241 273.67796 
L 838.703572 271.557924 
L 841.866482 273.67796 
L 844.097644 271.557924 
L 845.993741 269.437887 
L 847.260554 271.557924 
L 847.8912 269.437887 
L 849.491716 267.317851 
L 852.654626 269.437887 
L 854.885788 267.317851 
L 858.048698 269.437887 
L 860.27986 267.317851 
L 863.442769 269.437887 
L 865.673931 267.317851 
L 868.836841 269.437887 
L 871.068003 267.317851 
L 873.943058 265.197814 
L 874.230913 267.317851 
L 875.901531 265.197814 
L 876.462075 263.077777 
L 878.24075 260.957741 
L 879.624985 263.077777 
L 881.856147 260.957741 
L 885.019057 263.077777 
L 887.250219 260.957741 
L 890.413128 263.077777 
L 892.64429 260.957741 
L 893.653908 258.837704 
L 895.8072 260.957741 
L 900.31386 256.717668 
L 901.201272 258.837704 
L 903.432434 256.717668 
L 906.595344 258.837704 
L 906.738099 256.717668 
L 908.826506 254.597631 
L 911.989416 256.717668 
L 914.220577 254.597631 
L 917.383487 256.717668 
L 919.614649 254.597631 
L 922.777559 256.717668 
L 925.008721 254.597631 
L 927.725948 252.477595 
L 928.171631 254.597631 
L 929.481269 252.477595 
L 930.402793 250.357558 
L 933.496498 248.237521 
L 933.565703 250.357558 
L 935.685015 248.237521 
L 935.796865 246.117485 
L 937.84154 243.997448 
L 938.959774 246.117485 
L 941.190936 243.997448 
L 944.353846 246.117485 
L 946.585008 243.997448 
L 948.536973 241.877412 
L 949.747918 243.997448 
L 951.175259 241.877412 
L 951.97908 239.757375 
L 955.14199 241.877412 
L 956.42843 239.757375 
L 957.373152 237.637338 
L 960.536062 239.757375 
L 961.924737 237.637338 
L 963.642172 233.397265 
L 963.807779 231.277229 
L 965.930133 233.397265 
L 968.161295 231.277229 
L 969.245077 229.157192 
L 971.324205 231.277229 
L 973.555367 229.157192 
L 973.649836 227.037155 
L 976.718277 229.157192 
L 978.949439 227.037155 
L 982.112349 229.157192 
L 986.413776 224.917119 
L 987.506421 227.037155 
L 992.03356 222.797082 
L 992.900492 224.917119 
L 995.131654 222.797082 
L 998.294564 224.917119 
L 1000.525726 222.797082 
L 1003.688636 224.917119 
L 1005.317239 222.797082 
L 1005.476536 220.677046 
L 1005.919798 218.557009 
L 1009.082708 220.677046 
L 1011.31387 218.557009 
L 1013.916406 216.436973 
L 1014.47678 218.557009 
L 1016.707941 216.436973 
L 1019.870851 218.557009 
L 1022.102013 216.436973 
L 1023.374631 214.316936 
L 1024.147325 212.196899 
L 1025.264923 214.316936 
L 1027.496085 212.196899 
L 1030.658995 214.316936 
L 1032.890157 212.196899 
L 1036.053067 214.316936 
L 1038.284229 212.196899 
L 1041.447138 214.316936 
L 1043.6783 212.196899 
L 1045.407836 210.076863 
L 1046.84121 212.196899 
L 1049.072372 210.076863 
L 1052.235282 212.196899 
L 1054.466444 210.076863 
L 1057.629354 212.196899 
L 1059.860516 210.076863 
L 1061.803287 207.956826 
L 1063.023426 210.076863 
L 1065.254588 207.956826 
L 1068.417497 210.076863 
L 1070.648659 207.956826 
L 1073.811569 210.076863 
L 1074.851824 207.956826 
L 1076.042731 205.83679 
L 1078.844798 203.716753 
L 1079.205641 205.83679 
L 1081.436803 203.716753 
L 1082.275986 201.596716 
L 1084.599713 203.716753 
L 1086.830875 201.596716 
L 1088.156848 199.47668 
L 1089.993785 201.596716 
L 1090.152543 199.47668 
L 1092.224946 197.356643 
L 1093.655511 195.236607 
L 1095.387856 197.356643 
L 1097.619018 195.236607 
L 1100.781928 197.356643 
L 1103.01309 195.236607 
L 1105.593817 193.11657 
L 1106.176 195.236607 
L 1107.955015 193.11657 
L 1108.407162 190.996534 
L 1111.570072 193.11657 
L 1113.653534 190.996534 
L 1113.860067 186.75646 
L 1116.964144 188.876497 
L 1119.195305 186.75646 
L 1122.358215 188.876497 
L 1124.589377 186.75646 
L 1127.752287 188.876497 
L 1129.983449 186.75646 
L 1133.146359 188.876497 
L 1135.377521 186.75646 
L 1138.540431 188.876497 
L 1140.771593 186.75646 
L 1143.934502 188.876497 
L 1146.165664 186.75646 
L 1149.328574 188.876497 
L 1151.559736 186.75646 
L 1152.877915 184.636424 
L 1154.722646 186.75646 
L 1156.953808 184.636424 
L 1160.116718 186.75646 
L 1162.34788 184.636424 
L 1163.04501 182.516387 
L 1165.51079 184.636424 
L 1167.741952 182.516387 
L 1170.904861 184.636424 
L 1171.235202 182.516387 
L 1171.283594 180.396351 
L 1172.345607 176.156277 
L 1173.136023 174.036241 
L 1176.060563 171.916204 
L 1176.298933 174.036241 
L 1177.551957 171.916204 
L 1178.530095 169.796168 
L 1181.693005 171.916204 
L 1183.924167 169.796168 
L 1187.087077 171.916204 
L 1189.318239 169.796168 
L 1192.481149 171.916204 
L 1194.71231 169.796168 
L 1197.87522 171.916204 
L 1200.106382 169.796168 
L 1200.181537 167.676131 
L 1202.772266 165.556095 
L 1202.892115 163.436058 
L 1203.269292 165.556095 
L 1205.500454 163.436058 
L 1205.940907 161.316021 
L 1208.663364 163.436058 
L 1210.894526 161.316021 
L 1211.656708 159.195985 
L 1213.707097 157.075948 
L 1214.057436 159.195985 
L 1216.288598 157.075948 
L 1219.451508 159.195985 
L 1221.682669 157.075948 
L 1221.772481 154.955912 
L 1224.845579 157.075948 
L 1227.076741 154.955912 
L 1228.324961 152.835875 
L 1230.239651 154.955912 
L 1232.470813 152.835875 
L 1235.633723 154.955912 
L 1237.864885 152.835875 
L 1237.864885 152.835875 
" clip-path="url(#pe3ee58bf90)" style="fill: none; stroke: #8c564b; stroke-width: 1.5; stroke-linecap: square"/>
   </g>
   <g id="line2d_35">
    <path d="M 159.596621 498.401838 
L 159.596621 500.521875 
L 159.600397 500.521875 
L 161.501586 498.401838 
L 161.501586 500.521875 
L 169.838131 498.401838 
L 169.838131 500.521875 
L 173.495437 498.401838 
L 175.232203 500.521875 
L 175.232203 498.401838 
L 180.626275 500.521875 
L 180.626275 498.401838 
L 186.020347 500.521875 
L 186.020347 498.401838 
L 187.510606 496.281802 
L 191.414418 498.401838 
L 191.414418 496.281802 
L 196.216649 494.161765 
L 196.80849 496.281802 
L 196.80849 494.161765 
L 200.922012 492.041729 
L 202.202562 494.161765 
L 202.202562 492.041729 
L 204.901905 489.921692 
L 207.596634 492.041729 
L 207.596634 489.921692 
L 208.18734 487.801655 
L 212.990705 489.921692 
L 212.990705 487.801655 
L 213.373098 485.681619 
L 218.384777 487.801655 
L 218.384777 485.681619 
L 219.550059 483.561582 
L 223.778849 485.681619 
L 223.778849 483.561582 
L 225.477672 481.441546 
L 226.751788 479.321509 
L 228.795936 477.201473 
L 229.172921 479.321509 
L 229.172921 477.201473 
L 230.916413 475.081436 
L 234.566993 477.201473 
L 234.566993 475.081436 
L 239.961064 477.201473 
L 239.961064 475.081436 
L 245.355136 477.201473 
L 245.355136 475.081436 
L 250.749208 477.201473 
L 250.749208 475.081436 
L 254.944289 472.961399 
L 256.14328 475.081436 
L 256.14328 472.961399 
L 261.537352 475.081436 
L 261.537352 472.961399 
L 264.760523 470.841363 
L 266.931423 472.961399 
L 266.931423 470.841363 
L 268.60425 468.721326 
L 272.325495 470.841363 
L 272.325495 468.721326 
L 275.855206 466.60129 
L 277.719567 468.721326 
L 277.719567 466.60129 
L 282.149405 464.481253 
L 283.113639 466.60129 
L 283.113639 464.481253 
L 286.659375 462.361216 
L 288.507711 464.481253 
L 288.507711 462.361216 
L 290.495898 460.24118 
L 293.901782 462.361216 
L 293.901782 460.24118 
L 295.123448 458.121143 
L 295.885796 456.001107 
L 299.295854 458.121143 
L 299.295854 456.001107 
L 301.505236 453.88107 
L 303.164009 451.761034 
L 304.689926 453.88107 
L 304.689926 451.761034 
L 307.505144 449.640997 
L 309.202775 447.52096 
L 310.083998 449.640997 
L 310.083998 447.52096 
L 311.03863 445.400924 
L 312.581447 443.280887 
L 315.478069 445.400924 
L 315.478069 443.280887 
L 317.211681 441.160851 
L 318.573252 439.040814 
L 320.872141 441.160851 
L 320.872141 439.040814 
L 326.266213 441.160851 
L 326.266213 439.040814 
L 330.55622 436.920777 
L 331.660285 439.040814 
L 331.660285 436.920777 
L 333.418975 434.800741 
L 337.054357 436.920777 
L 337.054357 434.800741 
L 342.448428 436.920777 
L 342.448428 434.800741 
L 344.905648 432.680704 
L 347.8425 434.800741 
L 347.8425 432.680704 
L 349.015217 430.560668 
L 353.236572 432.680704 
L 353.236572 430.560668 
L 354.217549 428.440631 
L 358.630644 430.560668 
L 358.630644 428.440631 
L 363.366281 424.200558 
L 363.550776 422.080521 
L 364.024716 424.200558 
L 364.024716 422.080521 
L 369.263149 419.960485 
L 369.418787 422.080521 
L 369.418787 419.960485 
L 371.734566 417.840448 
L 374.812859 419.960485 
L 374.812859 417.840448 
L 380.206931 419.960485 
L 380.206931 417.840448 
L 380.585686 415.720412 
L 384.002629 413.600375 
L 385.601003 415.720412 
L 385.601003 413.600375 
L 390.995075 415.720412 
L 390.995075 413.600375 
L 394.930526 411.480338 
L 396.389146 413.600375 
L 396.389146 411.480338 
L 401.783218 413.600375 
L 401.783218 411.480338 
L 403.813047 409.360302 
L 406.752046 407.240265 
L 407.17729 409.360302 
L 407.17729 407.240265 
L 412.571362 409.360302 
L 412.571362 407.240265 
L 417.965433 409.360302 
L 417.965433 407.240265 
L 423.359505 409.360302 
L 423.359505 407.240265 
L 426.763839 405.120229 
L 428.753577 407.240265 
L 428.753577 405.120229 
L 434.147649 407.240265 
L 434.147649 405.120229 
L 439.541721 407.240265 
L 439.541721 405.120229 
L 442.323278 403.000192 
L 444.935792 405.120229 
L 444.935792 403.000192 
L 450.329864 405.120229 
L 450.329864 403.000192 
L 453.096167 400.880155 
L 455.723936 403.000192 
L 455.723936 400.880155 
L 455.835628 398.760119 
L 459.081128 396.640082 
L 461.118008 398.760119 
L 461.118008 396.640082 
L 466.51208 398.760119 
L 466.51208 396.640082 
L 471.906151 398.760119 
L 471.906151 396.640082 
L 477.300223 398.760119 
L 477.300223 396.640082 
L 478.038478 394.520046 
L 482.694295 396.640082 
L 482.694295 394.520046 
L 485.454499 390.279973 
L 488.088367 392.400009 
L 488.088367 390.279973 
L 491.322734 388.159936 
L 493.482439 390.279973 
L 493.482439 388.159936 
L 493.931514 386.039899 
L 498.718763 383.919863 
L 498.719062 381.799826 
L 498.87651 383.919863 
L 498.87651 381.799826 
L 504.270582 383.919863 
L 504.270582 381.799826 
L 509.664654 383.919863 
L 509.664654 381.799826 
L 509.835279 379.67979 
L 511.14452 377.559753 
L 515.058726 379.67979 
L 515.058726 377.559753 
L 520.452797 379.67979 
L 520.452797 377.559753 
L 525.846869 379.67979 
L 525.846869 377.559753 
L 527.027258 375.439716 
L 531.240941 377.559753 
L 531.240941 375.439716 
L 531.794462 373.31968 
L 533.543215 371.199643 
L 534.307242 369.079607 
L 536.635013 371.199643 
L 536.635013 369.079607 
L 541.11355 366.95957 
L 542.029085 369.079607 
L 542.029085 366.95957 
L 547.423156 369.079607 
L 547.423156 366.95957 
L 548.932553 364.839534 
L 552.817228 366.95957 
L 552.817228 364.839534 
L 553.669708 362.719497 
L 555.533466 360.59946 
L 557.019683 358.479424 
L 558.2113 360.59946 
L 558.2113 358.479424 
L 563.605372 360.59946 
L 563.605372 358.479424 
L 565.314842 356.359387 
L 566.396041 354.239351 
L 568.999444 356.359387 
L 568.999444 354.239351 
L 570.270314 352.119314 
L 574.393515 354.239351 
L 574.393515 352.119314 
L 575.30089 349.999277 
L 576.722643 347.879241 
L 579.787587 349.999277 
L 579.787587 347.879241 
L 585.181659 349.999277 
L 585.181659 347.879241 
L 588.108929 345.759204 
L 590.575731 347.879241 
L 590.575731 345.759204 
L 591.700531 343.639168 
L 593.570943 341.519131 
L 595.969802 343.639168 
L 595.969802 341.519131 
L 601.363874 343.639168 
L 601.363874 341.519131 
L 603.766288 339.399095 
L 606.757946 341.519131 
L 606.757946 339.399095 
L 611.321633 337.279058 
L 612.115775 335.159021 
L 612.152018 337.279058 
L 612.152018 335.159021 
L 615.131103 333.038985 
L 617.54609 335.159021 
L 617.54609 333.038985 
L 618.993503 330.918948 
L 622.940161 333.038985 
L 622.940161 330.918948 
L 623.536046 328.798912 
L 628.334233 330.918948 
L 628.334233 328.798912 
L 631.925416 326.678875 
L 633.728305 328.798912 
L 633.728305 326.678875 
L 634.676343 324.558838 
L 637.497268 322.438802 
L 638.263903 320.318765 
L 639.122377 322.438802 
L 639.122377 320.318765 
L 644.516449 322.438802 
L 644.516449 320.318765 
L 649.91052 322.438802 
L 649.91052 320.318765 
L 654.742036 318.198729 
L 655.304592 320.318765 
L 655.304592 318.198729 
L 660.698664 320.318765 
L 660.698664 318.198729 
L 661.745945 316.078692 
L 665.756886 313.958655 
L 666.092736 316.078692 
L 666.092736 313.958655 
L 671.486808 316.078692 
L 671.486808 313.958655 
L 675.216549 311.838619 
L 676.276278 309.718582 
L 676.666912 307.598546 
L 676.719426 305.478509 
L 676.880879 307.598546 
L 676.880879 305.478509 
L 678.43789 303.358473 
L 680.937449 301.238436 
L 682.274951 303.358473 
L 682.274951 301.238436 
L 687.669023 303.358473 
L 687.669023 301.238436 
L 693.063095 303.358473 
L 693.063095 301.238436 
L 694.921303 299.118399 
L 698.457166 301.238436 
L 698.457166 299.118399 
L 699.306135 296.998363 
L 703.851238 299.118399 
L 703.851238 296.998363 
L 704.960682 294.878326 
L 705.482814 292.75829 
L 709.24531 294.878326 
L 709.24531 292.75829 
L 714.639382 294.878326 
L 714.639382 292.75829 
L 718.504192 290.638253 
L 720.033454 292.75829 
L 720.033454 290.638253 
L 724.822073 288.518216 
L 725.427525 290.638253 
L 725.427525 288.518216 
L 727.246484 284.278143 
L 727.299424 282.158107 
L 730.821597 284.278143 
L 730.821597 282.158107 
L 735.884392 280.03807 
L 736.215669 282.158107 
L 736.215669 280.03807 
L 736.437564 277.918034 
L 741.609741 280.03807 
L 741.609741 277.918034 
L 747.003813 280.03807 
L 747.003813 277.918034 
L 752.397884 280.03807 
L 752.397884 277.918034 
L 752.802869 275.797997 
L 757.791956 277.918034 
L 757.791956 275.797997 
L 763.186028 277.918034 
L 763.186028 275.797997 
L 768.5801 277.918034 
L 768.5801 275.797997 
L 768.886802 273.67796 
L 769.99179 271.557924 
L 773.974172 273.67796 
L 773.974172 271.557924 
L 774.136932 269.437887 
L 774.69614 267.317851 
L 779.368243 269.437887 
L 779.368243 267.317851 
L 784.762315 269.437887 
L 784.762315 267.317851 
L 785.680057 265.197814 
L 785.858083 263.077777 
L 787.206336 260.957741 
L 788.781114 258.837704 
L 790.156387 260.957741 
L 790.156387 258.837704 
L 791.326944 256.717668 
L 793.856339 254.597631 
L 795.550459 256.717668 
L 795.550459 254.597631 
L 795.858412 252.477595 
L 800.94453 254.597631 
L 800.94453 252.477595 
L 804.732649 250.357558 
L 806.338602 252.477595 
L 806.338602 250.357558 
L 807.208679 248.237521 
L 809.043943 246.117485 
L 809.437989 243.997448 
L 810.928399 241.877412 
L 811.732674 243.997448 
L 811.732674 241.877412 
L 816.787457 239.757375 
L 817.126746 241.877412 
L 817.126746 239.757375 
L 822.520818 241.877412 
L 822.520818 239.757375 
L 827.164241 237.637338 
L 827.914889 239.757375 
L 827.914889 237.637338 
L 829.576146 235.517302 
L 832.010161 233.397265 
L 833.308961 235.517302 
L 833.308961 233.397265 
L 833.438415 231.277229 
L 838.703033 233.397265 
L 838.703033 231.277229 
L 844.097105 233.397265 
L 844.097105 231.277229 
L 848.375379 229.157192 
L 849.491177 231.277229 
L 849.491177 229.157192 
L 849.922988 227.037155 
L 850.526824 224.917119 
L 854.153706 222.797082 
L 854.885248 224.917119 
L 854.885248 222.797082 
L 860.27932 224.917119 
L 860.27932 222.797082 
L 865.673392 224.917119 
L 865.673392 222.797082 
L 866.135095 220.677046 
L 867.850704 218.557009 
L 870.379866 216.436973 
L 871.067464 218.557009 
L 871.067464 216.436973 
L 871.844658 214.316936 
L 872.861789 212.196899 
L 874.756842 210.076863 
L 876.461536 212.196899 
L 876.461536 210.076863 
L 881.855607 212.196899 
L 881.855607 210.076863 
L 886.46859 207.956826 
L 886.603054 205.83679 
L 887.249679 207.956826 
L 887.249679 205.83679 
L 892.643751 207.956826 
L 892.643751 205.83679 
L 893.089735 203.716753 
L 896.332406 201.596716 
L 898.037823 203.716753 
L 898.037823 201.596716 
L 898.201092 199.47668 
L 903.431894 201.596716 
L 903.431894 199.47668 
L 904.21256 197.356643 
L 908.825966 199.47668 
L 908.825966 197.356643 
L 914.220038 199.47668 
L 914.220038 197.356643 
L 916.389552 195.236607 
L 919.205858 193.11657 
L 919.61411 195.236607 
L 919.61411 193.11657 
L 925.008182 195.236607 
L 925.008182 193.11657 
L 930.402253 195.236607 
L 930.402253 193.11657 
L 935.796325 195.236607 
L 935.796325 193.11657 
L 939.268613 190.996534 
L 939.537861 188.876497 
L 941.1159 186.75646 
L 941.190397 188.876497 
L 941.190397 186.75646 
L 944.302908 184.636424 
L 946.584469 186.75646 
L 946.61395 182.516387 
L 950.468738 180.396351 
L 951.978541 182.516387 
L 951.978541 180.396351 
L 956.623607 178.276314 
L 957.372612 180.396351 
L 957.372612 178.276314 
L 962.706828 176.156277 
L 962.766684 178.276314 
L 962.766684 176.156277 
L 964.499066 174.036241 
L 968.160756 176.156277 
L 968.160756 174.036241 
L 971.182518 171.916204 
L 971.688241 169.796168 
L 973.554828 171.916204 
L 973.554828 169.796168 
L 975.456437 167.676131 
L 978.9489 169.796168 
L 978.9489 167.676131 
L 984.342971 169.796168 
L 984.342971 167.676131 
L 989.737043 169.796168 
L 989.737043 167.676131 
L 994.170596 165.556095 
L 995.131115 167.676131 
L 995.131115 165.556095 
L 1000.525187 167.676131 
L 1000.602033 163.436058 
L 1004.447772 161.316021 
L 1005.919258 163.436058 
L 1005.919258 161.316021 
L 1006.639992 159.195985 
L 1007.191815 157.075948 
L 1010.339041 154.955912 
L 1011.31333 157.075948 
L 1011.31333 154.955912 
L 1016.707402 157.075948 
L 1016.725772 152.835875 
L 1021.991961 150.715838 
L 1022.101474 152.835875 
L 1022.101474 150.715838 
L 1024.138523 148.595802 
L 1026.933881 146.475765 
L 1027.495546 148.595802 
L 1027.495546 146.475765 
L 1032.889617 148.595802 
L 1032.889617 146.475765 
L 1038.013588 144.355729 
L 1038.283689 146.475765 
L 1038.283689 144.355729 
L 1043.677761 146.475765 
L 1043.677761 144.355729 
L 1049.071833 146.475765 
L 1049.071833 144.355729 
L 1054.465905 146.475765 
L 1054.465905 144.355729 
L 1056.628584 142.235692 
L 1057.570539 140.115655 
L 1059.859976 142.235692 
L 1059.859976 140.115655 
L 1063.407474 137.995619 
L 1063.625511 135.875582 
L 1065.254048 137.995619 
L 1065.254048 135.875582 
L 1066.697091 133.755546 
L 1070.64812 135.875582 
L 1070.64812 133.755546 
L 1076.042192 135.875582 
L 1076.042192 133.755546 
L 1079.551532 131.635509 
L 1081.436264 133.755546 
L 1081.436264 131.635509 
L 1082.114846 129.515473 
L 1083.15028 127.395436 
L 1085.294311 125.275399 
L 1086.500421 123.155363 
L 1086.830335 125.275399 
L 1086.830335 123.155363 
L 1091.541614 121.035326 
L 1092.224407 123.155363 
L 1092.224407 121.035326 
L 1093.343639 118.91529 
L 1097.618479 121.035326 
L 1097.618479 118.91529 
L 1098.751533 116.795253 
L 1101.808364 114.675216 
L 1103.012551 116.795253 
L 1103.012551 114.675216 
L 1104.029106 112.55518 
L 1108.406622 114.675216 
L 1108.406622 112.55518 
L 1108.875153 110.435143 
L 1113.800694 112.55518 
L 1113.800694 110.435143 
L 1118.176647 108.315107 
L 1119.194766 110.435143 
L 1119.194766 108.315107 
L 1123.651408 106.19507 
L 1124.588838 108.315107 
L 1124.588838 106.19507 
L 1129.98291 108.315107 
L 1129.98291 106.19507 
L 1135.376981 108.315107 
L 1135.376981 106.19507 
L 1140.771053 108.315107 
L 1140.771053 106.19507 
L 1143.820644 104.075034 
L 1144.887223 101.954997 
L 1146.165125 104.075034 
L 1146.165125 101.954997 
L 1151.559197 104.075034 
L 1151.559197 101.954997 
L 1156.953269 104.075034 
L 1156.953269 101.954997 
L 1162.082899 99.83496 
L 1162.34734 101.954997 
L 1162.34734 99.83496 
L 1164.836547 97.714924 
L 1166.118534 95.594887 
L 1166.981284 93.474851 
L 1167.741412 95.594887 
L 1167.741412 93.474851 
L 1173.135484 95.594887 
L 1173.2113 91.354814 
L 1178.41893 89.234777 
L 1178.529556 91.354814 
L 1178.529556 89.234777 
L 1183.923627 91.354814 
L 1183.923627 89.234777 
L 1189.317699 91.354814 
L 1189.317699 89.234777 
L 1190.657912 87.114741 
L 1193.964301 84.994704 
L 1194.291583 82.874668 
L 1194.711771 84.994704 
L 1194.711771 82.874668 
L 1195.004742 80.754631 
L 1197.284761 78.634595 
L 1200.105843 80.754631 
L 1200.105843 78.634595 
L 1204.032468 76.514558 
L 1205.499915 78.634595 
L 1205.499915 76.514558 
L 1209.877204 74.394521 
L 1210.893986 76.514558 
L 1210.893986 74.394521 
L 1211.989979 72.274485 
L 1212.621463 70.154448 
L 1216.288058 72.274485 
L 1216.288058 70.154448 
L 1221.68213 72.274485 
L 1221.68213 70.154448 
L 1222.285775 68.034412 
L 1227.076202 70.154448 
L 1227.076202 68.034412 
L 1227.719076 65.914375 
L 1232.470274 68.034412 
L 1232.470274 65.914375 
L 1237.864345 68.034412 
L 1237.864345 65.914375 
L 1237.864345 65.914375 
" clip-path="url(#pe3ee58bf90)" style="fill: none; stroke: #e377c2; stroke-width: 1.5; stroke-linecap: square"/>
   </g>
   <g id="patch_3">
    <path d="M 105.656281 522.25225 
L 105.656281 44.184 
" style="fill: none; stroke: #000000; stroke-width: 0.8; stroke-linejoin: miter; stroke-linecap: square"/>
   </g>
   <g id="patch_4">
    <path d="M 1292.34375 522.25225 
L 1292.34375 44.184 
" style="fill: none; stroke: #000000; stroke-width: 0.8; stroke-linejoin: miter; stroke-linecap: square"/>
   </g>
   <g id="patch_5">
    <path d="M 105.656281 522.25225 
L 1292.34375 522.25225 
" style="fill: none; stroke: #000000; stroke-width: 0.8; stroke-linejoin: miter; stroke-linecap: square"/>
   </g>
   <g id="patch_6">
    <path d="M 105.656281 44.184 
L 1292.34375 44.184 
" style="fill: none; stroke: #000000; stroke-width: 0.8; stroke-linejoin: miter; stroke-linecap: square"/>
   </g>
   <g id="text_15">
    <!-- Buffer Size -->
    <g transform="translate(666.474391 38.184)scale(0.12 -0.12)">
     <defs>
      <path id="DejaVuSans-42" d="M 1259 2228 
L 1259 519 
L 2272 519 
Q 2781 519 3026 730 
Q 3272 941 3272 1375 
Q 3272 1813 3026 2020 
Q 2781 2228 2272 2228 
L 1259 2228 
z
M 1259 4147 
L 1259 2741 
L 2194 2741 
Q 2656 2741 2882 2914 
Q 3109 3088 3109 3444 
Q 3109 3797 2882 3972 
Q 2656 4147 2194 4147 
L 1259 4147 
z
M 628 4666 
L 2241 4666 
Q 2963 4666 3353 4366 
Q 3744 4066 3744 3513 
Q 3744 3084 3544 2831 
Q 3344 2578 2956 2516 
Q 3422 2416 3680 2098 
Q 3938 1781 3938 1306 
Q 3938 681 3513 340 
Q 3088 0 2303 0 
L 628 0 
L 628 4666 
z
" transform="scale(0.015625)"/>
      <path id="DejaVuSans-75" d="M 544 1381 
L 544 3500 
L 1119 3500 
L 1119 1403 
Q 1119 906 1312 657 
Q 1506 409 1894 409 
Q 2359 409 2629 706 
Q 2900 1003 2900 1516 
L 2900 3500 
L 3475 3500 
L 3475 0 
L 2900 0 
L 2900 538 
Q 2691 219 2414 64 
Q 2138 -91 1772 -91 
Q 1169 -91 856 284 
Q 544 659 544 1381 
z
M 1991 3584 
L 1991 3584 
z
" transform="scale(0.015625)"/>
      <path id="DejaVuSans-66" d="M 2375 4863 
L 2375 4384 
L 1825 4384 
Q 1516 4384 1395 4259 
Q 1275 4134 1275 3809 
L 1275 3500 
L 2222 3500 
L 2222 3053 
L 1275 3053 
L 1275 0 
L 697 0 
L 697 3053 
L 147 3053 
L 147 3500 
L 697 3500 
L 697 3744 
Q 697 4328 969 4595 
Q 1241 4863 1831 4863 
L 2375 4863 
z
" transform="scale(0.015625)"/>
      <path id="DejaVuSans-65" d="M 3597 1894 
L 3597 1613 
L 953 1613 
Q 991 1019 1311 708 
Q 1631 397 2203 397 
Q 2534 397 2845 478 
Q 3156 559 3463 722 
L 3463 178 
Q 3153 47 2828 -22 
Q 2503 -91 2169 -91 
Q 1331 -91 842 396 
Q 353 884 353 1716 
Q 353 2575 817 3079 
Q 1281 3584 2069 3584 
Q 2775 3584 3186 3129 
Q 3597 2675 3597 1894 
z
M 3022 2063 
Q 3016 2534 2758 2815 
Q 2500 3097 2075 3097 
Q 1594 3097 1305 2825 
Q 1016 2553 972 2059 
L 3022 2063 
z
" transform="scale(0.015625)"/>
      <path id="DejaVuSans-72" d="M 2631 2963 
Q 2534 3019 2420 3045 
Q 2306 3072 2169 3072 
Q 1681 3072 1420 2755 
Q 1159 2438 1159 1844 
L 1159 0 
L 581 0 
L 581 3500 
L 1159 3500 
L 1159 2956 
Q 1341 3275 1631 3429 
Q 1922 3584 2338 3584 
Q 2397 3584 2469 3576 
Q 2541 3569 2628 3553 
L 2631 2963 
z
" transform="scale(0.015625)"/>
      <path id="DejaVuSans-20" transform="scale(0.015625)"/>
      <path id="DejaVuSans-53" d="M 3425 4513 
L 3425 3897 
Q 3066 4069 2747 4153 
Q 2428 4238 2131 4238 
Q 1616 4238 1336 4038 
Q 1056 3838 1056 3469 
Q 1056 3159 1242 3001 
Q 1428 2844 1947 2747 
L 2328 2669 
Q 3034 2534 3370 2195 
Q 3706 1856 3706 1288 
Q 3706 609 3251 259 
Q 2797 -91 1919 -91 
Q 1588 -91 1214 -16 
Q 841 59 441 206 
L 441 856 
Q 825 641 1194 531 
Q 1563 422 1919 422 
Q 2459 422 2753 634 
Q 3047 847 3047 1241 
Q 3047 1584 2836 1778 
Q 2625 1972 2144 2069 
L 1759 2144 
Q 1053 2284 737 2584 
Q 422 2884 422 3419 
Q 422 4038 858 4394 
Q 1294 4750 2059 4750 
Q 2388 4750 2728 4690 
Q 3069 4631 3425 4513 
z
" transform="scale(0.015625)"/>
      <path id="DejaVuSans-69" d="M 603 3500 
L 1178 3500 
L 1178 0 
L 603 0 
L 603 3500 
z
M 603 4863 
L 1178 4863 
L 1178 4134 
L 603 4134 
L 603 4863 
z
" transform="scale(0.015625)"/>
      <path id="DejaVuSans-7a" d="M 353 3500 
L 3084 3500 
L 3084 2975 
L 922 459 
L 3084 459 
L 3084 0 
L 275 0 
L 275 525 
L 2438 3041 
L 353 3041 
L 353 3500 
z
" transform="scale(0.015625)"/>
     </defs>
     <use xlink:href="#DejaVuSans-42"/>
     <use xlink:href="#DejaVuSans-75" x="68.603516"/>
     <use xlink:href="#DejaVuSans-66" x="131.982422"/>
     <use xlink:href="#DejaVuSans-66" x="167.1875"/>
     <use xlink:href="#DejaVuSans-65" x="202.392578"/>
     <use xlink:href="#DejaVuSans-72" x="263.916016"/>
     <use xlink:href="#DejaVuSans-20" x="305.029297"/>
     <use xlink:href="#DejaVuSans-53" x="336.816406"/>
     <use xlink:href="#DejaVuSans-69" x="400.292969"/>
     <use xlink:href="#DejaVuSans-7a" x="428.076172"/>
     <use xlink:href="#DejaVuSans-65" x="480.566406"/>
    </g>
   </g>
   <g id="legend_1">
    <g id="patch_7">
     <path d="M 1135.039062 154.930875 
L 1287.34375 154.930875 
L 1287.34375 49.184 
L 1135.039062 49.184 
z
" style="fill: #ffffff; opacity: 0.8; stroke: #cccccc; stroke-linejoin: miter"/>
    </g>
    <g id="line2d_36">
     <path d="M 1139.039062 57.282438 
L 1149.039062 57.282438 
L 1159.039062 57.282438 
" style="fill: none; stroke: #1f77b4; stroke-width: 1.5; stroke-linecap: square"/>
    </g>
    <g id="text_16">
     <!-- Network.node[0].lnk[0] -->
     <g transform="translate(1167.039062 60.782438)scale(0.1 -0.1)">
      <defs>
       <path id="DejaVuSans-4e" d="M 628 4666 
L 1478 4666 
L 3547 763 
L 3547 4666 
L 4159 4666 
L 4159 0 
L 3309 0 
L 1241 3903 
L 1241 0 
L 628 0 
L 628 4666 
z
" transform="scale(0.015625)"/>
       <path id="DejaVuSans-74" d="M 1172 4494 
L 1172 3500 
L 2356 3500 
L 2356 3053 
L 1172 3053 
L 1172 1153 
Q 1172 725 1289 603 
Q 1406 481 1766 481 
L 2356 481 
L 2356 0 
L 1766 0 
Q 1100 0 847 248 
Q 594 497 594 1153 
L 594 3053 
L 172 3053 
L 172 3500 
L 594 3500 
L 594 4494 
L 1172 4494 
z
" transform="scale(0.015625)"/>
       <path id="DejaVuSans-77" d="M 269 3500 
L 844 3500 
L 1563 769 
L 2278 3500 
L 2956 3500 
L 3675 769 
L 4391 3500 
L 4966 3500 
L 4050 0 
L 3372 0 
L 2619 2869 
L 1863 0 
L 1184 0 
L 269 3500 
z
" transform="scale(0.015625)"/>
       <path id="DejaVuSans-6f" d="M 1959 3097 
Q 1497 3097 1228 2736 
Q 959 2375 959 1747 
Q 959 1119 1226 758 
Q 1494 397 1959 397 
Q 2419 397 2687 759 
Q 2956 1122 2956 1747 
Q 2956 2369 2687 2733 
Q 2419 3097 1959 3097 
z
M 1959 3584 
Q 2709 3584 3137 3096 
Q 3566 2609 3566 1747 
Q 3566 888 3137 398 
Q 2709 -91 1959 -91 
Q 1206 -91 779 398 
Q 353 888 353 1747 
Q 353 2609 779 3096 
Q 1206 3584 1959 3584 
z
" transform="scale(0.015625)"/>
       <path id="DejaVuSans-6b" d="M 581 4863 
L 1159 4863 
L 1159 1991 
L 2875 3500 
L 3609 3500 
L 1753 1863 
L 3688 0 
L 2938 0 
L 1159 1709 
L 1159 0 
L 581 0 
L 581 4863 
z
" transform="scale(0.015625)"/>
       <path id="DejaVuSans-2e" d="M 684 794 
L 1344 794 
L 1344 0 
L 684 0 
L 684 794 
z
" transform="scale(0.015625)"/>
       <path id="DejaVuSans-6e" d="M 3513 2113 
L 3513 0 
L 2938 0 
L 2938 2094 
Q 2938 2591 2744 2837 
Q 2550 3084 2163 3084 
Q 1697 3084 1428 2787 
Q 1159 2491 1159 1978 
L 1159 0 
L 581 0 
L 581 3500 
L 1159 3500 
L 1159 2956 
Q 1366 3272 1645 3428 
Q 1925 3584 2291 3584 
Q 2894 3584 3203 3211 
Q 3513 2838 3513 2113 
z
" transform="scale(0.015625)"/>
       <path id="DejaVuSans-64" d="M 2906 2969 
L 2906 4863 
L 3481 4863 
L 3481 0 
L 2906 0 
L 2906 525 
Q 2725 213 2448 61 
Q 2172 -91 1784 -91 
Q 1150 -91 751 415 
Q 353 922 353 1747 
Q 353 2572 751 3078 
Q 1150 3584 1784 3584 
Q 2172 3584 2448 3432 
Q 2725 3281 2906 2969 
z
M 947 1747 
Q 947 1113 1208 752 
Q 1469 391 1925 391 
Q 2381 391 2643 752 
Q 2906 1113 2906 1747 
Q 2906 2381 2643 2742 
Q 2381 3103 1925 3103 
Q 1469 3103 1208 2742 
Q 947 2381 947 1747 
z
" transform="scale(0.015625)"/>
       <path id="DejaVuSans-5b" d="M 550 4863 
L 1875 4863 
L 1875 4416 
L 1125 4416 
L 1125 -397 
L 1875 -397 
L 1875 -844 
L 550 -844 
L 550 4863 
z
" transform="scale(0.015625)"/>
       <path id="DejaVuSans-5d" d="M 1947 4863 
L 1947 -844 
L 622 -844 
L 622 -397 
L 1369 -397 
L 1369 4416 
L 622 4416 
L 622 4863 
L 1947 4863 
z
" transform="scale(0.015625)"/>
       <path id="DejaVuSans-6c" d="M 603 4863 
L 1178 4863 
L 1178 0 
L 603 0 
L 603 4863 
z
" transform="scale(0.015625)"/>
      </defs>
      <use xlink:href="#DejaVuSans-4e"/>
      <use xlink:href="#DejaVuSans-65" x="74.804688"/>
      <use xlink:href="#DejaVuSans-74" x="136.328125"/>
      <use xlink:href="#DejaVuSans-77" x="175.537109"/>
      <use xlink:href="#DejaVuSans-6f" x="257.324219"/>
      <use xlink:href="#DejaVuSans-72" x="318.505859"/>
      <use xlink:href="#DejaVuSans-6b" x="359.619141"/>
      <use xlink:href="#DejaVuSans-2e" x="417.529297"/>
      <use xlink:href="#DejaVuSans-6e" x="449.316406"/>
      <use xlink:href="#DejaVuSans-6f" x="512.695312"/>
      <use xlink:href="#DejaVuSans-64" x="573.876953"/>
      <use xlink:href="#DejaVuSans-65" x="637.353516"/>
      <use xlink:href="#DejaVuSans-5b" x="698.876953"/>
      <use xlink:href="#DejaVuSans-30" x="737.890625"/>
      <use xlink:href="#DejaVuSans-5d" x="801.513672"/>
      <use xlink:href="#DejaVuSans-2e" x="840.527344"/>
      <use xlink:href="#DejaVuSans-6c" x="872.314453"/>
      <use xlink:href="#DejaVuSans-6e" x="900.097656"/>
      <use xlink:href="#DejaVuSans-6b" x="963.476562"/>
      <use xlink:href="#DejaVuSans-5b" x="1021.386719"/>
      <use xlink:href="#DejaVuSans-30" x="1060.400391"/>
      <use xlink:href="#DejaVuSans-5d" x="1124.023438"/>
     </g>
    </g>
    <g id="line2d_37">
     <path d="M 1139.039062 71.960563 
L 1149.039062 71.960563 
L 1159.039062 71.960563 
" style="fill: none; stroke: #ff7f0e; stroke-width: 1.5; stroke-linecap: square"/>
    </g>
    <g id="text_17">
     <!-- Network.node[1].lnk[0] -->
     <g transform="translate(1167.039062 75.460563)scale(0.1 -0.1)">
      <use xlink:href="#DejaVuSans-4e"/>
      <use xlink:href="#DejaVuSans-65" x="74.804688"/>
      <use xlink:href="#DejaVuSans-74" x="136.328125"/>
      <use xlink:href="#DejaVuSans-77" x="175.537109"/>
      <use xlink:href="#DejaVuSans-6f" x="257.324219"/>
      <use xlink:href="#DejaVuSans-72" x="318.505859"/>
      <use xlink:href="#DejaVuSans-6b" x="359.619141"/>
      <use xlink:href="#DejaVuSans-2e" x="417.529297"/>
      <use xlink:href="#DejaVuSans-6e" x="449.316406"/>
      <use xlink:href="#DejaVuSans-6f" x="512.695312"/>
      <use xlink:href="#DejaVuSans-64" x="573.876953"/>
      <use xlink:href="#DejaVuSans-65" x="637.353516"/>
      <use xlink:href="#DejaVuSans-5b" x="698.876953"/>
      <use xlink:href="#DejaVuSans-31" x="737.890625"/>
      <use xlink:href="#DejaVuSans-5d" x="801.513672"/>
      <use xlink:href="#DejaVuSans-2e" x="840.527344"/>
      <use xlink:href="#DejaVuSans-6c" x="872.314453"/>
      <use xlink:href="#DejaVuSans-6e" x="900.097656"/>
      <use xlink:href="#DejaVuSans-6b" x="963.476562"/>
      <use xlink:href="#DejaVuSans-5b" x="1021.386719"/>
      <use xlink:href="#DejaVuSans-30" x="1060.400391"/>
      <use xlink:href="#DejaVuSans-5d" x="1124.023438"/>
     </g>
    </g>
    <g id="line2d_38">
     <path d="M 1139.039062 86.638688 
L 1149.039062 86.638688 
L 1159.039062 86.638688 
" style="fill: none; stroke: #2ca02c; stroke-width: 1.5; stroke-linecap: square"/>
    </g>
    <g id="text_18">
     <!-- Network.node[2].lnk[0] -->
     <g transform="translate(1167.039062 90.138688)scale(0.1 -0.1)">
      <use xlink:href="#DejaVuSans-4e"/>
      <use xlink:href="#DejaVuSans-65" x="74.804688"/>
      <use xlink:href="#DejaVuSans-74" x="136.328125"/>
      <use xlink:href="#DejaVuSans-77" x="175.537109"/>
      <use xlink:href="#DejaVuSans-6f" x="257.324219"/>
      <use xlink:href="#DejaVuSans-72" x="318.505859"/>
      <use xlink:href="#DejaVuSans-6b" x="359.619141"/>
      <use xlink:href="#DejaVuSans-2e" x="417.529297"/>
      <use xlink:href="#DejaVuSans-6e" x="449.316406"/>
      <use xlink:href="#DejaVuSans-6f" x="512.695312"/>
      <use xlink:href="#DejaVuSans-64" x="573.876953"/>
      <use xlink:href="#DejaVuSans-65" x="637.353516"/>
      <use xlink:href="#DejaVuSans-5b" x="698.876953"/>
      <use xlink:href="#DejaVuSans-32" x="737.890625"/>
      <use xlink:href="#DejaVuSans-5d" x="801.513672"/>
      <use xlink:href="#DejaVuSans-2e" x="840.527344"/>
      <use xlink:href="#DejaVuSans-6c" x="872.314453"/>
      <use xlink:href="#DejaVuSans-6e" x="900.097656"/>
      <use xlink:href="#DejaVuSans-6b" x="963.476562"/>
      <use xlink:href="#DejaVuSans-5b" x="1021.386719"/>
      <use xlink:href="#DejaVuSans-30" x="1060.400391"/>
      <use xlink:href="#DejaVuSans-5d" x="1124.023438"/>
     </g>
    </g>
    <g id="line2d_39">
     <path d="M 1139.039062 101.316813 
L 1149.039062 101.316813 
L 1159.039062 101.316813 
" style="fill: none; stroke: #d62728; stroke-width: 1.5; stroke-linecap: square"/>
    </g>
    <g id="text_19">
     <!-- Network.node[3].lnk[0] -->
     <g transform="translate(1167.039062 104.816813)scale(0.1 -0.1)">
      <defs>
       <path id="DejaVuSans-33" d="M 2597 2516 
Q 3050 2419 3304 2112 
Q 3559 1806 3559 1356 
Q 3559 666 3084 287 
Q 2609 -91 1734 -91 
Q 1441 -91 1130 -33 
Q 819 25 488 141 
L 488 750 
Q 750 597 1062 519 
Q 1375 441 1716 441 
Q 2309 441 2620 675 
Q 2931 909 2931 1356 
Q 2931 1769 2642 2001 
Q 2353 2234 1838 2234 
L 1294 2234 
L 1294 2753 
L 1863 2753 
Q 2328 2753 2575 2939 
Q 2822 3125 2822 3475 
Q 2822 3834 2567 4026 
Q 2313 4219 1838 4219 
Q 1578 4219 1281 4162 
Q 984 4106 628 3988 
L 628 4550 
Q 988 4650 1302 4700 
Q 1616 4750 1894 4750 
Q 2613 4750 3031 4423 
Q 3450 4097 3450 3541 
Q 3450 3153 3228 2886 
Q 3006 2619 2597 2516 
z
" transform="scale(0.015625)"/>
      </defs>
      <use xlink:href="#DejaVuSans-4e"/>
      <use xlink:href="#DejaVuSans-65" x="74.804688"/>
      <use xlink:href="#DejaVuSans-74" x="136.328125"/>
      <use xlink:href="#DejaVuSans-77" x="175.537109"/>
      <use xlink:href="#DejaVuSans-6f" x="257.324219"/>
      <use xlink:href="#DejaVuSans-72" x="318.505859"/>
      <use xlink:href="#DejaVuSans-6b" x="359.619141"/>
      <use xlink:href="#DejaVuSans-2e" x="417.529297"/>
      <use xlink:href="#DejaVuSans-6e" x="449.316406"/>
      <use xlink:href="#DejaVuSans-6f" x="512.695312"/>
      <use xlink:href="#DejaVuSans-64" x="573.876953"/>
      <use xlink:href="#DejaVuSans-65" x="637.353516"/>
      <use xlink:href="#DejaVuSans-5b" x="698.876953"/>
      <use xlink:href="#DejaVuSans-33" x="737.890625"/>
      <use xlink:href="#DejaVuSans-5d" x="801.513672"/>
      <use xlink:href="#DejaVuSans-2e" x="840.527344"/>
      <use xlink:href="#DejaVuSans-6c" x="872.314453"/>
      <use xlink:href="#DejaVuSans-6e" x="900.097656"/>
      <use xlink:href="#DejaVuSans-6b" x="963.476562"/>
      <use xlink:href="#DejaVuSans-5b" x="1021.386719"/>
      <use xlink:href="#DejaVuSans-30" x="1060.400391"/>
      <use xlink:href="#DejaVuSans-5d" x="1124.023438"/>
     </g>
    </g>
    <g id="line2d_40">
     <path d="M 1139.039062 115.994937 
L 1149.039062 115.994937 
L 1159.039062 115.994937 
" style="fill: none; stroke: #9467bd; stroke-width: 1.5; stroke-linecap: square"/>
    </g>
    <g id="text_20">
     <!-- Network.node[4].lnk[0] -->
     <g transform="translate(1167.039062 119.494937)scale(0.1 -0.1)">
      <defs>
       <path id="DejaVuSans-34" d="M 2419 4116 
L 825 1625 
L 2419 1625 
L 2419 4116 
z
M 2253 4666 
L 3047 4666 
L 3047 1625 
L 3713 1625 
L 3713 1100 
L 3047 1100 
L 3047 0 
L 2419 0 
L 2419 1100 
L 313 1100 
L 313 1709 
L 2253 4666 
z
" transform="scale(0.015625)"/>
      </defs>
      <use xlink:href="#DejaVuSans-4e"/>
      <use xlink:href="#DejaVuSans-65" x="74.804688"/>
      <use xlink:href="#DejaVuSans-74" x="136.328125"/>
      <use xlink:href="#DejaVuSans-77" x="175.537109"/>
      <use xlink:href="#DejaVuSans-6f" x="257.324219"/>
      <use xlink:href="#DejaVuSans-72" x="318.505859"/>
      <use xlink:href="#DejaVuSans-6b" x="359.619141"/>
      <use xlink:href="#DejaVuSans-2e" x="417.529297"/>
      <use xlink:href="#DejaVuSans-6e" x="449.316406"/>
      <use xlink:href="#DejaVuSans-6f" x="512.695312"/>
      <use xlink:href="#DejaVuSans-64" x="573.876953"/>
      <use xlink:href="#DejaVuSans-65" x="637.353516"/>
      <use xlink:href="#DejaVuSans-5b" x="698.876953"/>
      <use xlink:href="#DejaVuSans-34" x="737.890625"/>
      <use xlink:href="#DejaVuSans-5d" x="801.513672"/>
      <use xlink:href="#DejaVuSans-2e" x="840.527344"/>
      <use xlink:href="#DejaVuSans-6c" x="872.314453"/>
      <use xlink:href="#DejaVuSans-6e" x="900.097656"/>
      <use xlink:href="#DejaVuSans-6b" x="963.476562"/>
      <use xlink:href="#DejaVuSans-5b" x="1021.386719"/>
      <use xlink:href="#DejaVuSans-30" x="1060.400391"/>
      <use xlink:href="#DejaVuSans-5d" x="1124.023438"/>
     </g>
    </g>
    <g id="line2d_41">
     <path d="M 1139.039062 130.673063 
L 1149.039062 130.673063 
L 1159.039062 130.673063 
" style="fill: none; stroke: #8c564b; stroke-width: 1.5; stroke-linecap: square"/>
    </g>
    <g id="text_21">
     <!-- Network.node[6].lnk[0] -->
     <g transform="translate(1167.039062 134.173063)scale(0.1 -0.1)">
      <defs>
       <path id="DejaVuSans-36" d="M 2113 2584 
Q 1688 2584 1439 2293 
Q 1191 2003 1191 1497 
Q 1191 994 1439 701 
Q 1688 409 2113 409 
Q 2538 409 2786 701 
Q 3034 994 3034 1497 
Q 3034 2003 2786 2293 
Q 2538 2584 2113 2584 
z
M 3366 4563 
L 3366 3988 
Q 3128 4100 2886 4159 
Q 2644 4219 2406 4219 
Q 1781 4219 1451 3797 
Q 1122 3375 1075 2522 
Q 1259 2794 1537 2939 
Q 1816 3084 2150 3084 
Q 2853 3084 3261 2657 
Q 3669 2231 3669 1497 
Q 3669 778 3244 343 
Q 2819 -91 2113 -91 
Q 1303 -91 875 529 
Q 447 1150 447 2328 
Q 447 3434 972 4092 
Q 1497 4750 2381 4750 
Q 2619 4750 2861 4703 
Q 3103 4656 3366 4563 
z
" transform="scale(0.015625)"/>
      </defs>
      <use xlink:href="#DejaVuSans-4e"/>
      <use xlink:href="#DejaVuSans-65" x="74.804688"/>
      <use xlink:href="#DejaVuSans-74" x="136.328125"/>
      <use xlink:href="#DejaVuSans-77" x="175.537109"/>
      <use xlink:href="#DejaVuSans-6f" x="257.324219"/>
      <use xlink:href="#DejaVuSans-72" x="318.505859"/>
      <use xlink:href="#DejaVuSans-6b" x="359.619141"/>
      <use xlink:href="#DejaVuSans-2e" x="417.529297"/>
      <use xlink:href="#DejaVuSans-6e" x="449.316406"/>
      <use xlink:href="#DejaVuSans-6f" x="512.695312"/>
      <use xlink:href="#DejaVuSans-64" x="573.876953"/>
      <use xlink:href="#DejaVuSans-65" x="637.353516"/>
      <use xlink:href="#DejaVuSans-5b" x="698.876953"/>
      <use xlink:href="#DejaVuSans-36" x="737.890625"/>
      <use xlink:href="#DejaVuSans-5d" x="801.513672"/>
      <use xlink:href="#DejaVuSans-2e" x="840.527344"/>
      <use xlink:href="#DejaVuSans-6c" x="872.314453"/>
      <use xlink:href="#DejaVuSans-6e" x="900.097656"/>
      <use xlink:href="#DejaVuSans-6b" x="963.476562"/>
      <use xlink:href="#DejaVuSans-5b" x="1021.386719"/>
      <use xlink:href="#DejaVuSans-30" x="1060.400391"/>
      <use xlink:href="#DejaVuSans-5d" x="1124.023438"/>
     </g>
    </g>
    <g id="line2d_42">
     <path d="M 1139.039062 145.351188 
L 1149.039062 145.351188 
L 1159.039062 145.351188 
" style="fill: none; stroke: #e377c2; stroke-width: 1.5; stroke-linecap: square"/>
    </g>
    <g id="text_22">
     <!-- Network.node[7].lnk[0] -->
     <g transform="translate(1167.039062 148.851188)scale(0.1 -0.1)">
      <use xlink:href="#DejaVuSans-4e"/>
      <use xlink:href="#DejaVuSans-65" x="74.804688"/>
      <use xlink:href="#DejaVuSans-74" x="136.328125"/>
      <use xlink:href="#DejaVuSans-77" x="175.537109"/>
      <use xlink:href="#DejaVuSans-6f" x="257.324219"/>
      <use xlink:href="#DejaVuSans-72" x="318.505859"/>
      <use xlink:href="#DejaVuSans-6b" x="359.619141"/>
      <use xlink:href="#DejaVuSans-2e" x="417.529297"/>
      <use xlink:href="#DejaVuSans-6e" x="449.316406"/>
      <use xlink:href="#DejaVuSans-6f" x="512.695312"/>
      <use xlink:href="#DejaVuSans-64" x="573.876953"/>
      <use xlink:href="#DejaVuSans-65" x="637.353516"/>
      <use xlink:href="#DejaVuSans-5b" x="698.876953"/>
      <use xlink:href="#DejaVuSans-37" x="737.890625"/>
      <use xlink:href="#DejaVuSans-5d" x="801.513672"/>
      <use xlink:href="#DejaVuSans-2e" x="840.527344"/>
      <use xlink:href="#DejaVuSans-6c" x="872.314453"/>
      <use xlink:href="#DejaVuSans-6e" x="900.097656"/>
      <use xlink:href="#DejaVuSans-6b" x="963.476562"/>
      <use xlink:href="#DejaVuSans-5b" x="1021.386719"/>
      <use xlink:href="#DejaVuSans-30" x="1060.400391"/>
      <use xlink:href="#DejaVuSans-5d" x="1124.023438"/>
     </g>
    </g>
   </g>
  </g>
 </g>
 <defs>
  <clipPath id="pe3ee58bf90">
   <rect x="105.656281" y="44.184" width="1186.687469" height="478.06825"/>
  </clipPath>
 </defs>
</svg>
