<?xml version="1.0" encoding="utf-8" standalone="no"?>
<!DOCTYPE svg PUBLIC "-//W3C//DTD SVG 1.1//EN"
  "http://www.w3.org/Graphics/SVG/1.1/DTD/svg11.dtd">
<svg xmlns:xlink="http://www.w3.org/1999/xlink" width="1323.36pt" height="568.08pt" viewBox="0 0 1323.36 568.08" xmlns="http://www.w3.org/2000/svg" version="1.1">
 <metadata>
  <rdf:RDF xmlns:dc="http://purl.org/dc/elements/1.1/" xmlns:cc="http://creativecommons.org/ns#" xmlns:rdf="http://www.w3.org/1999/02/22-rdf-syntax-ns#">
   <cc:Work>
    <dc:type rdf:resource="http://purl.org/dc/dcmitype/StillImage"/>
    <dc:date>2023-05-28T18:44:25.561380</dc:date>
    <dc:format>image/svg+xml</dc:format>
    <dc:creator>
     <cc:Agent>
      <dc:title>Matplotlib v3.5.2, https://matplotlib.org/</dc:title>
     </cc:Agent>
    </dc:creator>
   </cc:Work>
  </rdf:RDF>
 </metadata>
 <defs>
  <style type="text/css">*{stroke-linejoin: round; stroke-linecap: butt}</style>
 </defs>
 <g id="figure_1">
  <g id="patch_1">
   <path d="M 0 568.08 
L 1323.36 568.08 
L 1323.36 0 
L 0 0 
z
" style="fill: #ffffff"/>
  </g>
  <g id="axes_1">
   <g id="patch_2">
    <path d="M 105.656281 522.25225 
L 1292.34375 522.25225 
L 1292.34375 44.184 
L 105.656281 44.184 
z
" style="fill: #ffffff"/>
   </g>
   <g id="matplotlib.axis_1">
    <g id="xtick_1">
     <g id="line2d_1">
      <path d="M 151.52438 522.25225 
L 151.52438 44.184 
" clip-path="url(#p72cec3b217)" style="fill: none; stroke: #b0b0b0; stroke-width: 0.8; stroke-linecap: square"/>
     </g>
     <g id="line2d_2">
      <defs>
       <path id="mac6734e407" d="M 0 0 
L 0 3.5 
" style="stroke: #000000; stroke-width: 0.8"/>
      </defs>
      <g>
       <use xlink:href="#mac6734e407" x="151.52438" y="522.25225" style="stroke: #000000; stroke-width: 0.8"/>
      </g>
     </g>
     <g id="text_1">
      <!-- 0 -->
      <g transform="translate(148.34313 536.850687)scale(0.1 -0.1)">
       <defs>
        <path id="DejaVuSans-30" d="M 2034 4250 
Q 1547 4250 1301 3770 
Q 1056 3291 1056 2328 
Q 1056 1369 1301 889 
Q 1547 409 2034 409 
Q 2525 409 2770 889 
Q 3016 1369 3016 2328 
Q 3016 3291 2770 3770 
Q 2525 4250 2034 4250 
z
M 2034 4750 
Q 2819 4750 3233 4129 
Q 3647 3509 3647 2328 
Q 3647 1150 3233 529 
Q 2819 -91 2034 -91 
Q 1250 -91 836 529 
Q 422 1150 422 2328 
Q 422 3509 836 4129 
Q 1250 4750 2034 4750 
z
" transform="scale(0.015625)"/>
       </defs>
       <use xlink:href="#DejaVuSans-30"/>
      </g>
     </g>
    </g>
    <g id="xtick_2">
     <g id="line2d_3">
      <path d="M 287.399812 522.25225 
L 287.399812 44.184 
" clip-path="url(#p72cec3b217)" style="fill: none; stroke: #b0b0b0; stroke-width: 0.8; stroke-linecap: square"/>
     </g>
     <g id="line2d_4">
      <g>
       <use xlink:href="#mac6734e407" x="287.399812" y="522.25225" style="stroke: #000000; stroke-width: 0.8"/>
      </g>
     </g>
     <g id="text_2">
      <!-- 25 -->
      <g transform="translate(281.037312 536.850687)scale(0.1 -0.1)">
       <defs>
        <path id="DejaVuSans-32" d="M 1228 531 
L 3431 531 
L 3431 0 
L 469 0 
L 469 531 
Q 828 903 1448 1529 
Q 2069 2156 2228 2338 
Q 2531 2678 2651 2914 
Q 2772 3150 2772 3378 
Q 2772 3750 2511 3984 
Q 2250 4219 1831 4219 
Q 1534 4219 1204 4116 
Q 875 4013 500 3803 
L 500 4441 
Q 881 4594 1212 4672 
Q 1544 4750 1819 4750 
Q 2544 4750 2975 4387 
Q 3406 4025 3406 3419 
Q 3406 3131 3298 2873 
Q 3191 2616 2906 2266 
Q 2828 2175 2409 1742 
Q 1991 1309 1228 531 
z
" transform="scale(0.015625)"/>
        <path id="DejaVuSans-35" d="M 691 4666 
L 3169 4666 
L 3169 4134 
L 1269 4134 
L 1269 2991 
Q 1406 3038 1543 3061 
Q 1681 3084 1819 3084 
Q 2600 3084 3056 2656 
Q 3513 2228 3513 1497 
Q 3513 744 3044 326 
Q 2575 -91 1722 -91 
Q 1428 -91 1123 -41 
Q 819 9 494 109 
L 494 744 
Q 775 591 1075 516 
Q 1375 441 1709 441 
Q 2250 441 2565 725 
Q 2881 1009 2881 1497 
Q 2881 1984 2565 2268 
Q 2250 2553 1709 2553 
Q 1456 2553 1204 2497 
Q 953 2441 691 2322 
L 691 4666 
z
" transform="scale(0.015625)"/>
       </defs>
       <use xlink:href="#DejaVuSans-32"/>
       <use xlink:href="#DejaVuSans-35" x="63.623047"/>
      </g>
     </g>
    </g>
    <g id="xtick_3">
     <g id="line2d_5">
      <path d="M 423.275244 522.25225 
L 423.275244 44.184 
" clip-path="url(#p72cec3b217)" style="fill: none; stroke: #b0b0b0; stroke-width: 0.8; stroke-linecap: square"/>
     </g>
     <g id="line2d_6">
      <g>
       <use xlink:href="#mac6734e407" x="423.275244" y="522.25225" style="stroke: #000000; stroke-width: 0.8"/>
      </g>
     </g>
     <g id="text_3">
      <!-- 50 -->
      <g transform="translate(416.912744 536.850687)scale(0.1 -0.1)">
       <use xlink:href="#DejaVuSans-35"/>
       <use xlink:href="#DejaVuSans-30" x="63.623047"/>
      </g>
     </g>
    </g>
    <g id="xtick_4">
     <g id="line2d_7">
      <path d="M 559.150677 522.25225 
L 559.150677 44.184 
" clip-path="url(#p72cec3b217)" style="fill: none; stroke: #b0b0b0; stroke-width: 0.8; stroke-linecap: square"/>
     </g>
     <g id="line2d_8">
      <g>
       <use xlink:href="#mac6734e407" x="559.150677" y="522.25225" style="stroke: #000000; stroke-width: 0.8"/>
      </g>
     </g>
     <g id="text_4">
      <!-- 75 -->
      <g transform="translate(552.788177 536.850687)scale(0.1 -0.1)">
       <defs>
        <path id="DejaVuSans-37" d="M 525 4666 
L 3525 4666 
L 3525 4397 
L 1831 0 
L 1172 0 
L 2766 4134 
L 525 4134 
L 525 4666 
z
" transform="scale(0.015625)"/>
       </defs>
       <use xlink:href="#DejaVuSans-37"/>
       <use xlink:href="#DejaVuSans-35" x="63.623047"/>
      </g>
     </g>
    </g>
    <g id="xtick_5">
     <g id="line2d_9">
      <path d="M 695.026109 522.25225 
L 695.026109 44.184 
" clip-path="url(#p72cec3b217)" style="fill: none; stroke: #b0b0b0; stroke-width: 0.8; stroke-linecap: square"/>
     </g>
     <g id="line2d_10">
      <g>
       <use xlink:href="#mac6734e407" x="695.026109" y="522.25225" style="stroke: #000000; stroke-width: 0.8"/>
      </g>
     </g>
     <g id="text_5">
      <!-- 100 -->
      <g transform="translate(685.482359 536.850687)scale(0.1 -0.1)">
       <defs>
        <path id="DejaVuSans-31" d="M 794 531 
L 1825 531 
L 1825 4091 
L 703 3866 
L 703 4441 
L 1819 4666 
L 2450 4666 
L 2450 531 
L 3481 531 
L 3481 0 
L 794 0 
L 794 531 
z
" transform="scale(0.015625)"/>
       </defs>
       <use xlink:href="#DejaVuSans-31"/>
       <use xlink:href="#DejaVuSans-30" x="63.623047"/>
       <use xlink:href="#DejaVuSans-30" x="127.246094"/>
      </g>
     </g>
    </g>
    <g id="xtick_6">
     <g id="line2d_11">
      <path d="M 830.901541 522.25225 
L 830.901541 44.184 
" clip-path="url(#p72cec3b217)" style="fill: none; stroke: #b0b0b0; stroke-width: 0.8; stroke-linecap: square"/>
     </g>
     <g id="line2d_12">
      <g>
       <use xlink:href="#mac6734e407" x="830.901541" y="522.25225" style="stroke: #000000; stroke-width: 0.8"/>
      </g>
     </g>
     <g id="text_6">
      <!-- 125 -->
      <g transform="translate(821.357791 536.850687)scale(0.1 -0.1)">
       <use xlink:href="#DejaVuSans-31"/>
       <use xlink:href="#DejaVuSans-32" x="63.623047"/>
       <use xlink:href="#DejaVuSans-35" x="127.246094"/>
      </g>
     </g>
    </g>
    <g id="xtick_7">
     <g id="line2d_13">
      <path d="M 966.776973 522.25225 
L 966.776973 44.184 
" clip-path="url(#p72cec3b217)" style="fill: none; stroke: #b0b0b0; stroke-width: 0.8; stroke-linecap: square"/>
     </g>
     <g id="line2d_14">
      <g>
       <use xlink:href="#mac6734e407" x="966.776973" y="522.25225" style="stroke: #000000; stroke-width: 0.8"/>
      </g>
     </g>
     <g id="text_7">
      <!-- 150 -->
      <g transform="translate(957.233223 536.850687)scale(0.1 -0.1)">
       <use xlink:href="#DejaVuSans-31"/>
       <use xlink:href="#DejaVuSans-35" x="63.623047"/>
       <use xlink:href="#DejaVuSans-30" x="127.246094"/>
      </g>
     </g>
    </g>
    <g id="xtick_8">
     <g id="line2d_15">
      <path d="M 1102.652405 522.25225 
L 1102.652405 44.184 
" clip-path="url(#p72cec3b217)" style="fill: none; stroke: #b0b0b0; stroke-width: 0.8; stroke-linecap: square"/>
     </g>
     <g id="line2d_16">
      <g>
       <use xlink:href="#mac6734e407" x="1102.652405" y="522.25225" style="stroke: #000000; stroke-width: 0.8"/>
      </g>
     </g>
     <g id="text_8">
      <!-- 175 -->
      <g transform="translate(1093.108655 536.850687)scale(0.1 -0.1)">
       <use xlink:href="#DejaVuSans-31"/>
       <use xlink:href="#DejaVuSans-37" x="63.623047"/>
       <use xlink:href="#DejaVuSans-35" x="127.246094"/>
      </g>
     </g>
    </g>
    <g id="xtick_9">
     <g id="line2d_17">
      <path d="M 1238.527837 522.25225 
L 1238.527837 44.184 
" clip-path="url(#p72cec3b217)" style="fill: none; stroke: #b0b0b0; stroke-width: 0.8; stroke-linecap: square"/>
     </g>
     <g id="line2d_18">
      <g>
       <use xlink:href="#mac6734e407" x="1238.527837" y="522.25225" style="stroke: #000000; stroke-width: 0.8"/>
      </g>
     </g>
     <g id="text_9">
      <!-- 200 -->
      <g transform="translate(1228.984087 536.850687)scale(0.1 -0.1)">
       <use xlink:href="#DejaVuSans-32"/>
       <use xlink:href="#DejaVuSans-30" x="63.623047"/>
       <use xlink:href="#DejaVuSans-30" x="127.246094"/>
      </g>
     </g>
    </g>
   </g>
   <g id="matplotlib.axis_2">
    <g id="ytick_1">
     <g id="line2d_19">
      <path d="M 105.656281 503.148972 
L 1292.34375 503.148972 
" clip-path="url(#p72cec3b217)" style="fill: none; stroke: #b0b0b0; stroke-width: 0.8; stroke-linecap: square"/>
     </g>
     <g id="line2d_20">
      <defs>
       <path id="md2a47a457e" d="M 0 0 
L -3.5 0 
" style="stroke: #000000; stroke-width: 0.8"/>
      </defs>
      <g>
       <use xlink:href="#md2a47a457e" x="105.656281" y="503.148972" style="stroke: #000000; stroke-width: 0.8"/>
      </g>
     </g>
     <g id="text_10">
      <!-- 0 -->
      <g transform="translate(92.293781 506.94819)scale(0.1 -0.1)">
       <use xlink:href="#DejaVuSans-30"/>
      </g>
     </g>
    </g>
    <g id="ytick_2">
     <g id="line2d_21">
      <path d="M 105.656281 437.478123 
L 1292.34375 437.478123 
" clip-path="url(#p72cec3b217)" style="fill: none; stroke: #b0b0b0; stroke-width: 0.8; stroke-linecap: square"/>
     </g>
     <g id="line2d_22">
      <g>
       <use xlink:href="#md2a47a457e" x="105.656281" y="437.478123" style="stroke: #000000; stroke-width: 0.8"/>
      </g>
     </g>
     <g id="text_11">
      <!-- 25 -->
      <g transform="translate(85.931281 441.277342)scale(0.1 -0.1)">
       <use xlink:href="#DejaVuSans-32"/>
       <use xlink:href="#DejaVuSans-35" x="63.623047"/>
      </g>
     </g>
    </g>
    <g id="ytick_3">
     <g id="line2d_23">
      <path d="M 105.656281 371.807275 
L 1292.34375 371.807275 
" clip-path="url(#p72cec3b217)" style="fill: none; stroke: #b0b0b0; stroke-width: 0.8; stroke-linecap: square"/>
     </g>
     <g id="line2d_24">
      <g>
       <use xlink:href="#md2a47a457e" x="105.656281" y="371.807275" style="stroke: #000000; stroke-width: 0.8"/>
      </g>
     </g>
     <g id="text_12">
      <!-- 50 -->
      <g transform="translate(85.931281 375.606493)scale(0.1 -0.1)">
       <use xlink:href="#DejaVuSans-35"/>
       <use xlink:href="#DejaVuSans-30" x="63.623047"/>
      </g>
     </g>
    </g>
    <g id="ytick_4">
     <g id="line2d_25">
      <path d="M 105.656281 306.136426 
L 1292.34375 306.136426 
" clip-path="url(#p72cec3b217)" style="fill: none; stroke: #b0b0b0; stroke-width: 0.8; stroke-linecap: square"/>
     </g>
     <g id="line2d_26">
      <g>
       <use xlink:href="#md2a47a457e" x="105.656281" y="306.136426" style="stroke: #000000; stroke-width: 0.8"/>
      </g>
     </g>
     <g id="text_13">
      <!-- 75 -->
      <g transform="translate(85.931281 309.935645)scale(0.1 -0.1)">
       <use xlink:href="#DejaVuSans-37"/>
       <use xlink:href="#DejaVuSans-35" x="63.623047"/>
      </g>
     </g>
    </g>
    <g id="ytick_5">
     <g id="line2d_27">
      <path d="M 105.656281 240.465578 
L 1292.34375 240.465578 
" clip-path="url(#p72cec3b217)" style="fill: none; stroke: #b0b0b0; stroke-width: 0.8; stroke-linecap: square"/>
     </g>
     <g id="line2d_28">
      <g>
       <use xlink:href="#md2a47a457e" x="105.656281" y="240.465578" style="stroke: #000000; stroke-width: 0.8"/>
      </g>
     </g>
     <g id="text_14">
      <!-- 100 -->
      <g transform="translate(79.568781 244.264797)scale(0.1 -0.1)">
       <use xlink:href="#DejaVuSans-31"/>
       <use xlink:href="#DejaVuSans-30" x="63.623047"/>
       <use xlink:href="#DejaVuSans-30" x="127.246094"/>
      </g>
     </g>
    </g>
    <g id="ytick_6">
     <g id="line2d_29">
      <path d="M 105.656281 174.794729 
L 1292.34375 174.794729 
" clip-path="url(#p72cec3b217)" style="fill: none; stroke: #b0b0b0; stroke-width: 0.8; stroke-linecap: square"/>
     </g>
     <g id="line2d_30">
      <g>
       <use xlink:href="#md2a47a457e" x="105.656281" y="174.794729" style="stroke: #000000; stroke-width: 0.8"/>
      </g>
     </g>
     <g id="text_15">
      <!-- 125 -->
      <g transform="translate(79.568781 178.593948)scale(0.1 -0.1)">
       <use xlink:href="#DejaVuSans-31"/>
       <use xlink:href="#DejaVuSans-32" x="63.623047"/>
       <use xlink:href="#DejaVuSans-35" x="127.246094"/>
      </g>
     </g>
    </g>
    <g id="ytick_7">
     <g id="line2d_31">
      <path d="M 105.656281 109.123881 
L 1292.34375 109.123881 
" clip-path="url(#p72cec3b217)" style="fill: none; stroke: #b0b0b0; stroke-width: 0.8; stroke-linecap: square"/>
     </g>
     <g id="line2d_32">
      <g>
       <use xlink:href="#md2a47a457e" x="105.656281" y="109.123881" style="stroke: #000000; stroke-width: 0.8"/>
      </g>
     </g>
     <g id="text_16">
      <!-- 150 -->
      <g transform="translate(79.568781 112.9231)scale(0.1 -0.1)">
       <use xlink:href="#DejaVuSans-31"/>
       <use xlink:href="#DejaVuSans-35" x="63.623047"/>
       <use xlink:href="#DejaVuSans-30" x="127.246094"/>
      </g>
     </g>
    </g>
   </g>
   <g id="line2d_33">
    <path d="M 159.596621 500.521875 
L 162.269988 500.521875 
L 165.031638 498.048408 
L 167.705005 499.165383 
L 170.466655 494.921546 
L 173.140022 497.6375 
L 175.901673 493.727391 
L 178.575039 498.032945 
L 181.33669 498.87563 
L 184.010057 495.645576 
L 186.771707 492.881874 
L 189.445074 493.072397 
L 192.206724 494.019221 
L 194.880091 491.651931 
L 197.641742 484.056324 
L 200.315109 486.220971 
L 203.076759 483.135478 
L 205.750126 482.067155 
L 208.511776 491.498286 
L 211.185143 487.726875 
L 213.946794 490.802081 
L 216.62016 479.650923 
L 219.381811 477.232126 
L 222.055178 486.689905 
L 224.816828 488.231545 
L 227.490195 473.76487 
L 230.251845 478.692385 
L 232.925212 474.514445 
L 235.686863 484.384719 
L 238.36023 482.159214 
L 241.12188 464.729886 
L 243.795247 480.339555 
L 246.556897 482.638637 
L 249.230264 463.451094 
L 251.991915 472.424764 
L 254.665281 478.995285 
L 257.426932 463.594574 
L 260.100299 459.278573 
L 262.861949 469.462539 
L 265.535316 464.114526 
L 268.296966 479.691106 
L 270.970333 458.720338 
L 273.731984 453.361504 
L 276.405351 474.605618 
L 279.167001 476.896317 
L 281.840368 472.471121 
L 284.602018 460.893353 
L 287.275385 470.206866 
L 290.037036 453.755975 
L 292.710402 454.964045 
L 295.472053 457.239644 
L 298.14542 468.601982 
L 300.90707 474.776322 
L 303.580437 444.644998 
L 306.342087 450.053828 
L 309.015454 465.996214 
L 311.777105 451.88453 
L 314.450472 441.017155 
L 317.212122 445.341822 
L 319.885489 462.148072 
L 322.647139 472.115838 
L 325.320506 460.257479 
L 328.082157 469.639592 
L 330.755524 440.309896 
L 333.517174 444.385284 
L 336.190541 456.087384 
L 338.952191 465.961885 
L 341.625558 454.462833 
L 344.387209 463.388087 
L 347.060575 452.226642 
L 349.822226 460.866264 
L 352.495593 450.174771 
L 355.257243 422.564619 
L 357.93061 427.601632 
L 360.69226 457.143721 
L 363.365627 446.129483 
L 366.127278 455.68693 
L 368.800645 443.538544 
L 371.562295 428.884107 
L 374.235662 441.180028 
L 376.997312 452.155536 
L 379.670679 412.479071 
L 382.43233 424.250915 
L 385.105696 438.487791 
L 387.867347 422.619551 
L 390.540714 414.328232 
L 393.302364 450.852395 
L 395.975731 412.871701 
L 398.737381 406.580388 
L 401.410748 409.574897 
L 404.172399 446.453342 
L 406.845766 408.457264 
L 409.607416 443.851202 
L 412.280783 435.201704 
L 415.042433 410.518023 
L 417.7158 432.749022 
L 420.477451 441.489274 
L 423.150817 430.764175 
L 425.912468 393.827839 
L 428.585835 403.221635 
L 431.347485 441.072349 
L 434.020852 428.608042 
L 436.782502 388.623999 
L 439.455869 398.070895 
L 442.21752 387.026281 
L 444.890887 425.300225 
L 447.652537 385.059944 
L 450.325904 422.901322 
L 455.760921 385.090424 
L 458.522572 436.541437 
L 461.195938 389.080094 
L 463.957589 370.43439 
L 466.630956 386.736 
L 469.392606 435.114589 
L 472.065973 419.353142 
L 474.827623 373.209132 
L 477.50099 374.746255 
L 480.262641 430.847925 
L 482.936008 417.074716 
L 485.697658 392.850767 
L 488.371025 379.007398 
L 491.132675 366.89881 
L 493.806042 415.527575 
L 496.567693 389.468938 
L 499.241059 374.520978 
L 502.00271 429.178232 
L 504.676077 413.267468 
L 507.437727 351.444573 
L 510.111094 368.179731 
L 512.872744 426.452563 
L 515.546111 368.289974 
L 518.307762 382.492712 
L 520.981129 408.545047 
L 523.742779 423.41565 
L 526.416146 407.244814 
L 529.177796 341.231301 
L 531.851163 405.372959 
L 534.612814 420.935524 
L 537.28618 358.237415 
L 540.047831 419.100854 
L 542.721198 355.917804 
L 545.482848 372.423725 
L 548.156215 352.082272 
L 550.917865 415.87005 
L 553.591232 400.473469 
L 556.352883 414.803748 
L 559.02625 350.84295 
L 561.7879 335.891945 
L 564.461267 397.932787 
L 567.222917 364.112679 
L 569.896284 396.248795 
L 572.657935 321.902255 
L 575.331301 394.892392 
L 578.092952 410.914148 
L 580.766319 338.887328 
L 583.527969 358.100507 
L 586.201336 340.56223 
L 588.962986 325.675131 
L 591.636353 392.547805 
L 594.398004 408.292533 
L 597.071371 335.573964 
L 599.833021 352.473555 
L 602.506388 387.562916 
L 605.268038 406.40209 
L 607.941405 329.710839 
L 610.703056 347.591139 
L 613.376422 330.025571 
L 616.138073 402.320654 
L 618.81144 385.526896 
L 621.57309 300.468169 
L 624.246457 326.432947 
L 627.008107 342.447222 
L 629.681474 329.200183 
L 632.443125 340.628186 
L 635.116492 323.618238 
L 637.878142 399.390715 
L 640.551509 321.86459 
L 643.313159 399.148951 
L 645.986526 326.8997 
L 648.748177 298.998129 
L 651.421543 324.532004 
L 654.183194 395.716204 
L 656.856561 314.320472 
L 659.618211 393.802997 
L 662.291578 382.283782 
L 665.053228 326.981251 
L 667.726595 309.989286 
L 670.488246 325.181139 
L 673.161613 380.671671 
L 675.923263 286.479431 
L 678.59663 379.157714 
L 681.35828 320.821506 
L 684.031647 302.440786 
L 686.793298 318.946001 
L 689.466664 376.365754 
L 692.228315 390.858665 
L 694.901682 373.823916 
L 697.663332 276.434191 
L 700.336699 307.563456 
L 703.098349 313.320355 
L 705.771716 369.042966 
L 708.533367 388.569826 
L 711.206734 303.642119 
L 713.968384 308.729753 
L 716.641751 366.341221 
L 719.403401 384.904293 
L 722.076768 298.400815 
L 724.838419 253.078897 
L 727.511785 282.431406 
L 730.273436 382.945209 
L 732.946803 365.609249 
L 735.708453 380.706085 
L 738.38182 363.643323 
L 741.14347 247.69256 
L 743.816837 288.309416 
L 746.578488 298.804279 
L 749.251855 360.60402 
L 752.013505 376.556695 
L 754.686872 285.270387 
L 757.448522 374.961085 
L 760.121889 358.347932 
L 762.88354 239.966606 
L 765.556907 265.448621 
L 768.318557 289.691063 
L 770.991924 278.881675 
L 773.753574 371.751471 
L 776.426941 262.382695 
L 779.188592 233.250853 
L 781.861958 274.952834 
L 784.623609 369.553108 
L 787.296976 355.055707 
L 790.058626 229.184782 
L 792.731993 255.312348 
L 795.493643 365.068975 
L 798.16701 350.604812 
L 800.928661 363.430959 
L 803.602028 267.121346 
L 806.363678 276.897067 
L 809.037045 266.061102 
L 811.798695 360.095477 
L 814.472062 348.328827 
L 817.233713 358.079448 
L 819.907079 346.683807 
L 822.66873 230.097103 
L 825.342097 344.896443 
L 828.103747 356.269487 
L 830.777114 243.453722 
L 833.538764 353.971093 
L 836.212131 241.724357 
L 838.973782 263.137363 
L 841.647149 341.218138 
L 844.408799 351.668569 
L 847.082166 339.275963 
L 849.843816 202.931865 
L 852.517183 234.375396 
L 855.278834 348.604048 
L 857.9522 231.80192 
L 860.713851 255.163487 
L 863.387218 336.971564 
L 866.148868 197.832504 
L 868.822235 247.260869 
L 871.583885 344.087008 
L 874.257252 334.447716 
L 877.018903 341.688994 
L 879.69227 221.768077 
L 882.45392 247.963449 
L 885.127287 331.10776 
L 887.888937 340.069069 
L 890.562304 221.152717 
L 893.323955 243.857781 
L 895.997321 329.056201 
L 898.758972 337.786136 
L 901.432339 326.510605 
L 904.193989 336.028547 
L 906.867356 215.627411 
L 909.629006 236.067126 
L 912.302373 234.456283 
L 915.064024 333.09406 
L 917.737391 322.240274 
L 920.499041 173.255271 
L 923.172408 215.764746 
L 925.934058 230.968466 
L 928.607425 320.442538 
L 931.369076 170.951979 
L 934.042442 317.986745 
L 936.804093 226.918342 
L 939.47746 223.565639 
L 942.23911 329.92616 
L 944.912477 314.863809 
L 947.674127 179.561881 
L 950.347494 218.968894 
L 953.109145 327.911065 
L 955.782512 216.74211 
L 958.544162 325.319234 
L 961.217529 199.663661 
L 963.979179 159.710001 
L 966.652546 212.992204 
L 969.414197 215.467704 
L 972.087563 312.646686 
L 974.849214 214.504871 
L 977.522581 195.176791 
L 980.284231 157.359829 
L 982.957598 208.30861 
L 985.719248 321.798377 
L 988.392615 308.983457 
L 991.154266 163.80939 
L 993.827633 308.167654 
L 996.589283 317.891525 
L 999.26265 200.705535 
L 1002.0243 206.692428 
L 1004.697667 198.354208 
L 1007.459318 154.448168 
L 1010.132684 304.18601 
L 1012.894335 315.21712 
L 1015.567702 177.477334 
L 1018.329352 153.984857 
L 1021.002719 176.298926 
L 1023.764369 313.870683 
L 1026.437736 191.137264 
L 1029.199387 311.938044 
L 1031.872754 188.610993 
L 1034.634404 309.455442 
L 1037.307771 302.089428 
L 1040.069421 192.630248 
L 1042.742788 183.82313 
L 1045.504439 191.434663 
L 1048.177805 298.227881 
L 1050.939456 304.971825 
L 1053.612823 296.77038 
L 1056.374473 131.814211 
L 1059.04784 295.207894 
L 1061.80949 302.646781 
L 1064.482857 155.335162 
L 1067.244508 132.663185 
L 1069.917875 290.176403 
L 1072.679525 301.057203 
L 1075.352892 288.493374 
L 1078.114542 126.159499 
L 1080.787909 167.300129 
L 1083.54956 297.561683 
L 1086.222926 287.160603 
L 1088.984577 125.646275 
L 1091.657944 284.751435 
L 1094.419594 295.432624 
L 1097.092961 159.899126 
L 1099.854611 293.413694 
L 1102.527978 279.74436 
L 1105.289629 172.28494 
L 1107.962996 135.988865 
L 1110.724646 111.611385 
L 1113.398013 277.462636 
L 1116.159663 289.495023 
L 1118.83303 276.269154 
L 1121.594681 112.116034 
L 1124.268047 129.008316 
L 1127.029698 106.92645 
L 1129.703065 149.086891 
L 1132.464715 287.462075 
L 1135.138082 273.563666 
L 1137.899732 285.337744 
L 1140.573099 145.420616 
L 1143.33475 161.474321 
L 1146.008117 119.971905 
L 1148.769767 282.808746 
L 1151.443134 270.713137 
L 1154.204784 280.639494 
L 1156.878151 138.735092 
L 1159.639802 95.284921 
L 1162.313168 268.463755 
L 1165.074819 275.793736 
L 1167.748186 134.17052 
L 1170.509836 91.85823 
L 1173.183203 264.828005 
L 1175.944853 273.544628 
L 1178.61822 262.411524 
L 1181.379871 148.332723 
L 1184.053238 126.320971 
L 1186.814888 270.563009 
L 1189.488255 258.823091 
L 1192.249905 84.445186 
L 1194.923272 96.712798 
L 1197.684923 268.692604 
L 1200.358289 122.243584 
L 1203.11994 267.40336 
L 1205.793307 256.572156 
L 1208.554957 136.532631 
L 1211.228324 254.799492 
L 1213.989975 135.486307 
L 1216.663341 252.535038 
L 1219.424992 262.682188 
L 1222.098359 250.325903 
L 1224.860009 65.914375 
L 1227.533376 81.882282 
L 1230.295026 261.254662 
L 1232.968393 106.9772 
L 1235.730044 66.386443 
L 1238.403411 106.28406 
L 1238.403411 106.28406 
" clip-path="url(#p72cec3b217)" style="fill: none; stroke: #1f77b4; stroke-width: 1.5; stroke-linecap: square"/>
   </g>
   <g id="patch_3">
    <path d="M 105.656281 522.25225 
L 105.656281 44.184 
" style="fill: none; stroke: #000000; stroke-width: 0.8; stroke-linejoin: miter; stroke-linecap: square"/>
   </g>
   <g id="patch_4">
    <path d="M 1292.34375 522.25225 
L 1292.34375 44.184 
" style="fill: none; stroke: #000000; stroke-width: 0.8; stroke-linejoin: miter; stroke-linecap: square"/>
   </g>
   <g id="patch_5">
    <path d="M 105.656281 522.25225 
L 1292.34375 522.25225 
" style="fill: none; stroke: #000000; stroke-width: 0.8; stroke-linejoin: miter; stroke-linecap: square"/>
   </g>
   <g id="patch_6">
    <path d="M 105.656281 44.184 
L 1292.34375 44.184 
" style="fill: none; stroke: #000000; stroke-width: 0.8; stroke-linejoin: miter; stroke-linecap: square"/>
   </g>
   <g id="text_17">
    <!-- Delay in Network.node[5].app -->
    <g transform="translate(608.875328 38.184)scale(0.12 -0.12)">
     <defs>
      <path id="DejaVuSans-44" d="M 1259 4147 
L 1259 519 
L 2022 519 
Q 2988 519 3436 956 
Q 3884 1394 3884 2338 
Q 3884 3275 3436 3711 
Q 2988 4147 2022 4147 
L 1259 4147 
z
M 628 4666 
L 1925 4666 
Q 3281 4666 3915 4102 
Q 4550 3538 4550 2338 
Q 4550 1131 3912 565 
Q 3275 0 1925 0 
L 628 0 
L 628 4666 
z
" transform="scale(0.015625)"/>
      <path id="DejaVuSans-65" d="M 3597 1894 
L 3597 1613 
L 953 1613 
Q 991 1019 1311 708 
Q 1631 397 2203 397 
Q 2534 397 2845 478 
Q 3156 559 3463 722 
L 3463 178 
Q 3153 47 2828 -22 
Q 2503 -91 2169 -91 
Q 1331 -91 842 396 
Q 353 884 353 1716 
Q 353 2575 817 3079 
Q 1281 3584 2069 3584 
Q 2775 3584 3186 3129 
Q 3597 2675 3597 1894 
z
M 3022 2063 
Q 3016 2534 2758 2815 
Q 2500 3097 2075 3097 
Q 1594 3097 1305 2825 
Q 1016 2553 972 2059 
L 3022 2063 
z
" transform="scale(0.015625)"/>
      <path id="DejaVuSans-6c" d="M 603 4863 
L 1178 4863 
L 1178 0 
L 603 0 
L 603 4863 
z
" transform="scale(0.015625)"/>
      <path id="DejaVuSans-61" d="M 2194 1759 
Q 1497 1759 1228 1600 
Q 959 1441 959 1056 
Q 959 750 1161 570 
Q 1363 391 1709 391 
Q 2188 391 2477 730 
Q 2766 1069 2766 1631 
L 2766 1759 
L 2194 1759 
z
M 3341 1997 
L 3341 0 
L 2766 0 
L 2766 531 
Q 2569 213 2275 61 
Q 1981 -91 1556 -91 
Q 1019 -91 701 211 
Q 384 513 384 1019 
Q 384 1609 779 1909 
Q 1175 2209 1959 2209 
L 2766 2209 
L 2766 2266 
Q 2766 2663 2505 2880 
Q 2244 3097 1772 3097 
Q 1472 3097 1187 3025 
Q 903 2953 641 2809 
L 641 3341 
Q 956 3463 1253 3523 
Q 1550 3584 1831 3584 
Q 2591 3584 2966 3190 
Q 3341 2797 3341 1997 
z
" transform="scale(0.015625)"/>
      <path id="DejaVuSans-79" d="M 2059 -325 
Q 1816 -950 1584 -1140 
Q 1353 -1331 966 -1331 
L 506 -1331 
L 506 -850 
L 844 -850 
Q 1081 -850 1212 -737 
Q 1344 -625 1503 -206 
L 1606 56 
L 191 3500 
L 800 3500 
L 1894 763 
L 2988 3500 
L 3597 3500 
L 2059 -325 
z
" transform="scale(0.015625)"/>
      <path id="DejaVuSans-20" transform="scale(0.015625)"/>
      <path id="DejaVuSans-69" d="M 603 3500 
L 1178 3500 
L 1178 0 
L 603 0 
L 603 3500 
z
M 603 4863 
L 1178 4863 
L 1178 4134 
L 603 4134 
L 603 4863 
z
" transform="scale(0.015625)"/>
      <path id="DejaVuSans-6e" d="M 3513 2113 
L 3513 0 
L 2938 0 
L 2938 2094 
Q 2938 2591 2744 2837 
Q 2550 3084 2163 3084 
Q 1697 3084 1428 2787 
Q 1159 2491 1159 1978 
L 1159 0 
L 581 0 
L 581 3500 
L 1159 3500 
L 1159 2956 
Q 1366 3272 1645 3428 
Q 1925 3584 2291 3584 
Q 2894 3584 3203 3211 
Q 3513 2838 3513 2113 
z
" transform="scale(0.015625)"/>
      <path id="DejaVuSans-4e" d="M 628 4666 
L 1478 4666 
L 3547 763 
L 3547 4666 
L 4159 4666 
L 4159 0 
L 3309 0 
L 1241 3903 
L 1241 0 
L 628 0 
L 628 4666 
z
" transform="scale(0.015625)"/>
      <path id="DejaVuSans-74" d="M 1172 4494 
L 1172 3500 
L 2356 3500 
L 2356 3053 
L 1172 3053 
L 1172 1153 
Q 1172 725 1289 603 
Q 1406 481 1766 481 
L 2356 481 
L 2356 0 
L 1766 0 
Q 1100 0 847 248 
Q 594 497 594 1153 
L 594 3053 
L 172 3053 
L 172 3500 
L 594 3500 
L 594 4494 
L 1172 4494 
z
" transform="scale(0.015625)"/>
      <path id="DejaVuSans-77" d="M 269 3500 
L 844 3500 
L 1563 769 
L 2278 3500 
L 2956 3500 
L 3675 769 
L 4391 3500 
L 4966 3500 
L 4050 0 
L 3372 0 
L 2619 2869 
L 1863 0 
L 1184 0 
L 269 3500 
z
" transform="scale(0.015625)"/>
      <path id="DejaVuSans-6f" d="M 1959 3097 
Q 1497 3097 1228 2736 
Q 959 2375 959 1747 
Q 959 1119 1226 758 
Q 1494 397 1959 397 
Q 2419 397 2687 759 
Q 2956 1122 2956 1747 
Q 2956 2369 2687 2733 
Q 2419 3097 1959 3097 
z
M 1959 3584 
Q 2709 3584 3137 3096 
Q 3566 2609 3566 1747 
Q 3566 888 3137 398 
Q 2709 -91 1959 -91 
Q 1206 -91 779 398 
Q 353 888 353 1747 
Q 353 2609 779 3096 
Q 1206 3584 1959 3584 
z
" transform="scale(0.015625)"/>
      <path id="DejaVuSans-72" d="M 2631 2963 
Q 2534 3019 2420 3045 
Q 2306 3072 2169 3072 
Q 1681 3072 1420 2755 
Q 1159 2438 1159 1844 
L 1159 0 
L 581 0 
L 581 3500 
L 1159 3500 
L 1159 2956 
Q 1341 3275 1631 3429 
Q 1922 3584 2338 3584 
Q 2397 3584 2469 3576 
Q 2541 3569 2628 3553 
L 2631 2963 
z
" transform="scale(0.015625)"/>
      <path id="DejaVuSans-6b" d="M 581 4863 
L 1159 4863 
L 1159 1991 
L 2875 3500 
L 3609 3500 
L 1753 1863 
L 3688 0 
L 2938 0 
L 1159 1709 
L 1159 0 
L 581 0 
L 581 4863 
z
" transform="scale(0.015625)"/>
      <path id="DejaVuSans-2e" d="M 684 794 
L 1344 794 
L 1344 0 
L 684 0 
L 684 794 
z
" transform="scale(0.015625)"/>
      <path id="DejaVuSans-64" d="M 2906 2969 
L 2906 4863 
L 3481 4863 
L 3481 0 
L 2906 0 
L 2906 525 
Q 2725 213 2448 61 
Q 2172 -91 1784 -91 
Q 1150 -91 751 415 
Q 353 922 353 1747 
Q 353 2572 751 3078 
Q 1150 3584 1784 3584 
Q 2172 3584 2448 3432 
Q 2725 3281 2906 2969 
z
M 947 1747 
Q 947 1113 1208 752 
Q 1469 391 1925 391 
Q 2381 391 2643 752 
Q 2906 1113 2906 1747 
Q 2906 2381 2643 2742 
Q 2381 3103 1925 3103 
Q 1469 3103 1208 2742 
Q 947 2381 947 1747 
z
" transform="scale(0.015625)"/>
      <path id="DejaVuSans-5b" d="M 550 4863 
L 1875 4863 
L 1875 4416 
L 1125 4416 
L 1125 -397 
L 1875 -397 
L 1875 -844 
L 550 -844 
L 550 4863 
z
" transform="scale(0.015625)"/>
      <path id="DejaVuSans-5d" d="M 1947 4863 
L 1947 -844 
L 622 -844 
L 622 -397 
L 1369 -397 
L 1369 4416 
L 622 4416 
L 622 4863 
L 1947 4863 
z
" transform="scale(0.015625)"/>
      <path id="DejaVuSans-70" d="M 1159 525 
L 1159 -1331 
L 581 -1331 
L 581 3500 
L 1159 3500 
L 1159 2969 
Q 1341 3281 1617 3432 
Q 1894 3584 2278 3584 
Q 2916 3584 3314 3078 
Q 3713 2572 3713 1747 
Q 3713 922 3314 415 
Q 2916 -91 2278 -91 
Q 1894 -91 1617 61 
Q 1341 213 1159 525 
z
M 3116 1747 
Q 3116 2381 2855 2742 
Q 2594 3103 2138 3103 
Q 1681 3103 1420 2742 
Q 1159 2381 1159 1747 
Q 1159 1113 1420 752 
Q 1681 391 2138 391 
Q 2594 391 2855 752 
Q 3116 1113 3116 1747 
z
" transform="scale(0.015625)"/>
     </defs>
     <use xlink:href="#DejaVuSans-44"/>
     <use xlink:href="#DejaVuSans-65" x="77.001953"/>
     <use xlink:href="#DejaVuSans-6c" x="138.525391"/>
     <use xlink:href="#DejaVuSans-61" x="166.308594"/>
     <use xlink:href="#DejaVuSans-79" x="227.587891"/>
     <use xlink:href="#DejaVuSans-20" x="286.767578"/>
     <use xlink:href="#DejaVuSans-69" x="318.554688"/>
     <use xlink:href="#DejaVuSans-6e" x="346.337891"/>
     <use xlink:href="#DejaVuSans-20" x="409.716797"/>
     <use xlink:href="#DejaVuSans-4e" x="441.503906"/>
     <use xlink:href="#DejaVuSans-65" x="516.308594"/>
     <use xlink:href="#DejaVuSans-74" x="577.832031"/>
     <use xlink:href="#DejaVuSans-77" x="617.041016"/>
     <use xlink:href="#DejaVuSans-6f" x="698.828125"/>
     <use xlink:href="#DejaVuSans-72" x="760.009766"/>
     <use xlink:href="#DejaVuSans-6b" x="801.123047"/>
     <use xlink:href="#DejaVuSans-2e" x="859.033203"/>
     <use xlink:href="#DejaVuSans-6e" x="890.820312"/>
     <use xlink:href="#DejaVuSans-6f" x="954.199219"/>
     <use xlink:href="#DejaVuSans-64" x="1015.380859"/>
     <use xlink:href="#DejaVuSans-65" x="1078.857422"/>
     <use xlink:href="#DejaVuSans-5b" x="1140.380859"/>
     <use xlink:href="#DejaVuSans-35" x="1179.394531"/>
     <use xlink:href="#DejaVuSans-5d" x="1243.017578"/>
     <use xlink:href="#DejaVuSans-2e" x="1282.03125"/>
     <use xlink:href="#DejaVuSans-61" x="1313.818359"/>
     <use xlink:href="#DejaVuSans-70" x="1375.097656"/>
     <use xlink:href="#DejaVuSans-70" x="1438.574219"/>
    </g>
   </g>
   <g id="legend_1">
    <g id="patch_7">
     <path d="M 1101.135937 66.862125 
L 1287.34375 66.862125 
L 1287.34375 49.184 
L 1101.135937 49.184 
z
" style="fill: #ffffff; opacity: 0.8; stroke: #cccccc; stroke-linejoin: miter"/>
    </g>
    <g id="line2d_34">
     <path d="M 1105.135937 57.282438 
L 1115.135937 57.282438 
L 1125.135937 57.282438 
" style="fill: none; stroke: #1f77b4; stroke-width: 1.5; stroke-linecap: square"/>
    </g>
    <g id="text_18">
     <!-- Delay in Network.node[5].app -->
     <g transform="translate(1133.135937 60.782438)scale(0.1 -0.1)">
      <use xlink:href="#DejaVuSans-44"/>
      <use xlink:href="#DejaVuSans-65" x="77.001953"/>
      <use xlink:href="#DejaVuSans-6c" x="138.525391"/>
      <use xlink:href="#DejaVuSans-61" x="166.308594"/>
      <use xlink:href="#DejaVuSans-79" x="227.587891"/>
      <use xlink:href="#DejaVuSans-20" x="286.767578"/>
      <use xlink:href="#DejaVuSans-69" x="318.554688"/>
      <use xlink:href="#DejaVuSans-6e" x="346.337891"/>
      <use xlink:href="#DejaVuSans-20" x="409.716797"/>
      <use xlink:href="#DejaVuSans-4e" x="441.503906"/>
      <use xlink:href="#DejaVuSans-65" x="516.308594"/>
      <use xlink:href="#DejaVuSans-74" x="577.832031"/>
      <use xlink:href="#DejaVuSans-77" x="617.041016"/>
      <use xlink:href="#DejaVuSans-6f" x="698.828125"/>
      <use xlink:href="#DejaVuSans-72" x="760.009766"/>
      <use xlink:href="#DejaVuSans-6b" x="801.123047"/>
      <use xlink:href="#DejaVuSans-2e" x="859.033203"/>
      <use xlink:href="#DejaVuSans-6e" x="890.820312"/>
      <use xlink:href="#DejaVuSans-6f" x="954.199219"/>
      <use xlink:href="#DejaVuSans-64" x="1015.380859"/>
      <use xlink:href="#DejaVuSans-65" x="1078.857422"/>
      <use xlink:href="#DejaVuSans-5b" x="1140.380859"/>
      <use xlink:href="#DejaVuSans-35" x="1179.394531"/>
      <use xlink:href="#DejaVuSans-5d" x="1243.017578"/>
      <use xlink:href="#DejaVuSans-2e" x="1282.03125"/>
      <use xlink:href="#DejaVuSans-61" x="1313.818359"/>
      <use xlink:href="#DejaVuSans-70" x="1375.097656"/>
      <use xlink:href="#DejaVuSans-70" x="1438.574219"/>
     </g>
    </g>
   </g>
  </g>
 </g>
 <defs>
  <clipPath id="p72cec3b217">
   <rect x="105.656281" y="44.184" width="1186.687469" height="478.06825"/>
  </clipPath>
 </defs>
</svg>
