<?xml version="1.0" encoding="utf-8" standalone="no"?>
<!DOCTYPE svg PUBLIC "-//W3C//DTD SVG 1.1//EN"
  "http://www.w3.org/Graphics/SVG/1.1/DTD/svg11.dtd">
<svg xmlns:xlink="http://www.w3.org/1999/xlink" width="1323.36pt" height="568.08pt" viewBox="0 0 1323.36 568.08" xmlns="http://www.w3.org/2000/svg" version="1.1">
 <metadata>
  <rdf:RDF xmlns:dc="http://purl.org/dc/elements/1.1/" xmlns:cc="http://creativecommons.org/ns#" xmlns:rdf="http://www.w3.org/1999/02/22-rdf-syntax-ns#">
   <cc:Work>
    <dc:type rdf:resource="http://purl.org/dc/dcmitype/StillImage"/>
    <dc:date>2023-05-28T18:45:38.697500</dc:date>
    <dc:format>image/svg+xml</dc:format>
    <dc:creator>
     <cc:Agent>
      <dc:title>Matplotlib v3.5.2, https://matplotlib.org/</dc:title>
     </cc:Agent>
    </dc:creator>
   </cc:Work>
  </rdf:RDF>
 </metadata>
 <defs>
  <style type="text/css">*{stroke-linejoin: round; stroke-linecap: butt}</style>
 </defs>
 <g id="figure_1">
  <g id="patch_1">
   <path d="M 0 568.08 
L 1323.36 568.08 
L 1323.36 0 
L 0 0 
z
" style="fill: #ffffff"/>
  </g>
  <g id="axes_1">
   <g id="patch_2">
    <path d="M 96.609875 522.25225 
L 1292.34375 522.25225 
L 1292.34375 44.184 
L 96.609875 44.184 
z
" style="fill: #ffffff"/>
   </g>
   <g id="matplotlib.axis_1">
    <g id="xtick_1">
     <g id="line2d_1">
      <path d="M 142.827637 522.25225 
L 142.827637 44.184 
" clip-path="url(#p0c81a22ba3)" style="fill: none; stroke: #b0b0b0; stroke-width: 0.8; stroke-linecap: square"/>
     </g>
     <g id="line2d_2">
      <defs>
       <path id="m30b162b788" d="M 0 0 
L 0 3.5 
" style="stroke: #000000; stroke-width: 0.8"/>
      </defs>
      <g>
       <use xlink:href="#m30b162b788" x="142.827637" y="522.25225" style="stroke: #000000; stroke-width: 0.8"/>
      </g>
     </g>
     <g id="text_1">
      <!-- 0 -->
      <g transform="translate(139.646387 536.850687)scale(0.1 -0.1)">
       <defs>
        <path id="DejaVuSans-30" d="M 2034 4250 
Q 1547 4250 1301 3770 
Q 1056 3291 1056 2328 
Q 1056 1369 1301 889 
Q 1547 409 2034 409 
Q 2525 409 2770 889 
Q 3016 1369 3016 2328 
Q 3016 3291 2770 3770 
Q 2525 4250 2034 4250 
z
M 2034 4750 
Q 2819 4750 3233 4129 
Q 3647 3509 3647 2328 
Q 3647 1150 3233 529 
Q 2819 -91 2034 -91 
Q 1250 -91 836 529 
Q 422 1150 422 2328 
Q 422 3509 836 4129 
Q 1250 4750 2034 4750 
z
" transform="scale(0.015625)"/>
       </defs>
       <use xlink:href="#DejaVuSans-30"/>
      </g>
     </g>
    </g>
    <g id="xtick_2">
     <g id="line2d_3">
      <path d="M 279.738881 522.25225 
L 279.738881 44.184 
" clip-path="url(#p0c81a22ba3)" style="fill: none; stroke: #b0b0b0; stroke-width: 0.8; stroke-linecap: square"/>
     </g>
     <g id="line2d_4">
      <g>
       <use xlink:href="#m30b162b788" x="279.738881" y="522.25225" style="stroke: #000000; stroke-width: 0.8"/>
      </g>
     </g>
     <g id="text_2">
      <!-- 25 -->
      <g transform="translate(273.376381 536.850687)scale(0.1 -0.1)">
       <defs>
        <path id="DejaVuSans-32" d="M 1228 531 
L 3431 531 
L 3431 0 
L 469 0 
L 469 531 
Q 828 903 1448 1529 
Q 2069 2156 2228 2338 
Q 2531 2678 2651 2914 
Q 2772 3150 2772 3378 
Q 2772 3750 2511 3984 
Q 2250 4219 1831 4219 
Q 1534 4219 1204 4116 
Q 875 4013 500 3803 
L 500 4441 
Q 881 4594 1212 4672 
Q 1544 4750 1819 4750 
Q 2544 4750 2975 4387 
Q 3406 4025 3406 3419 
Q 3406 3131 3298 2873 
Q 3191 2616 2906 2266 
Q 2828 2175 2409 1742 
Q 1991 1309 1228 531 
z
" transform="scale(0.015625)"/>
        <path id="DejaVuSans-35" d="M 691 4666 
L 3169 4666 
L 3169 4134 
L 1269 4134 
L 1269 2991 
Q 1406 3038 1543 3061 
Q 1681 3084 1819 3084 
Q 2600 3084 3056 2656 
Q 3513 2228 3513 1497 
Q 3513 744 3044 326 
Q 2575 -91 1722 -91 
Q 1428 -91 1123 -41 
Q 819 9 494 109 
L 494 744 
Q 775 591 1075 516 
Q 1375 441 1709 441 
Q 2250 441 2565 725 
Q 2881 1009 2881 1497 
Q 2881 1984 2565 2268 
Q 2250 2553 1709 2553 
Q 1456 2553 1204 2497 
Q 953 2441 691 2322 
L 691 4666 
z
" transform="scale(0.015625)"/>
       </defs>
       <use xlink:href="#DejaVuSans-32"/>
       <use xlink:href="#DejaVuSans-35" x="63.623047"/>
      </g>
     </g>
    </g>
    <g id="xtick_3">
     <g id="line2d_5">
      <path d="M 416.650124 522.25225 
L 416.650124 44.184 
" clip-path="url(#p0c81a22ba3)" style="fill: none; stroke: #b0b0b0; stroke-width: 0.8; stroke-linecap: square"/>
     </g>
     <g id="line2d_6">
      <g>
       <use xlink:href="#m30b162b788" x="416.650124" y="522.25225" style="stroke: #000000; stroke-width: 0.8"/>
      </g>
     </g>
     <g id="text_3">
      <!-- 50 -->
      <g transform="translate(410.287624 536.850687)scale(0.1 -0.1)">
       <use xlink:href="#DejaVuSans-35"/>
       <use xlink:href="#DejaVuSans-30" x="63.623047"/>
      </g>
     </g>
    </g>
    <g id="xtick_4">
     <g id="line2d_7">
      <path d="M 553.561368 522.25225 
L 553.561368 44.184 
" clip-path="url(#p0c81a22ba3)" style="fill: none; stroke: #b0b0b0; stroke-width: 0.8; stroke-linecap: square"/>
     </g>
     <g id="line2d_8">
      <g>
       <use xlink:href="#m30b162b788" x="553.561368" y="522.25225" style="stroke: #000000; stroke-width: 0.8"/>
      </g>
     </g>
     <g id="text_4">
      <!-- 75 -->
      <g transform="translate(547.198868 536.850687)scale(0.1 -0.1)">
       <defs>
        <path id="DejaVuSans-37" d="M 525 4666 
L 3525 4666 
L 3525 4397 
L 1831 0 
L 1172 0 
L 2766 4134 
L 525 4134 
L 525 4666 
z
" transform="scale(0.015625)"/>
       </defs>
       <use xlink:href="#DejaVuSans-37"/>
       <use xlink:href="#DejaVuSans-35" x="63.623047"/>
      </g>
     </g>
    </g>
    <g id="xtick_5">
     <g id="line2d_9">
      <path d="M 690.472612 522.25225 
L 690.472612 44.184 
" clip-path="url(#p0c81a22ba3)" style="fill: none; stroke: #b0b0b0; stroke-width: 0.8; stroke-linecap: square"/>
     </g>
     <g id="line2d_10">
      <g>
       <use xlink:href="#m30b162b788" x="690.472612" y="522.25225" style="stroke: #000000; stroke-width: 0.8"/>
      </g>
     </g>
     <g id="text_5">
      <!-- 100 -->
      <g transform="translate(680.928862 536.850687)scale(0.1 -0.1)">
       <defs>
        <path id="DejaVuSans-31" d="M 794 531 
L 1825 531 
L 1825 4091 
L 703 3866 
L 703 4441 
L 1819 4666 
L 2450 4666 
L 2450 531 
L 3481 531 
L 3481 0 
L 794 0 
L 794 531 
z
" transform="scale(0.015625)"/>
       </defs>
       <use xlink:href="#DejaVuSans-31"/>
       <use xlink:href="#DejaVuSans-30" x="63.623047"/>
       <use xlink:href="#DejaVuSans-30" x="127.246094"/>
      </g>
     </g>
    </g>
    <g id="xtick_6">
     <g id="line2d_11">
      <path d="M 827.383855 522.25225 
L 827.383855 44.184 
" clip-path="url(#p0c81a22ba3)" style="fill: none; stroke: #b0b0b0; stroke-width: 0.8; stroke-linecap: square"/>
     </g>
     <g id="line2d_12">
      <g>
       <use xlink:href="#m30b162b788" x="827.383855" y="522.25225" style="stroke: #000000; stroke-width: 0.8"/>
      </g>
     </g>
     <g id="text_6">
      <!-- 125 -->
      <g transform="translate(817.840105 536.850687)scale(0.1 -0.1)">
       <use xlink:href="#DejaVuSans-31"/>
       <use xlink:href="#DejaVuSans-32" x="63.623047"/>
       <use xlink:href="#DejaVuSans-35" x="127.246094"/>
      </g>
     </g>
    </g>
    <g id="xtick_7">
     <g id="line2d_13">
      <path d="M 964.295099 522.25225 
L 964.295099 44.184 
" clip-path="url(#p0c81a22ba3)" style="fill: none; stroke: #b0b0b0; stroke-width: 0.8; stroke-linecap: square"/>
     </g>
     <g id="line2d_14">
      <g>
       <use xlink:href="#m30b162b788" x="964.295099" y="522.25225" style="stroke: #000000; stroke-width: 0.8"/>
      </g>
     </g>
     <g id="text_7">
      <!-- 150 -->
      <g transform="translate(954.751349 536.850687)scale(0.1 -0.1)">
       <use xlink:href="#DejaVuSans-31"/>
       <use xlink:href="#DejaVuSans-35" x="63.623047"/>
       <use xlink:href="#DejaVuSans-30" x="127.246094"/>
      </g>
     </g>
    </g>
    <g id="xtick_8">
     <g id="line2d_15">
      <path d="M 1101.206342 522.25225 
L 1101.206342 44.184 
" clip-path="url(#p0c81a22ba3)" style="fill: none; stroke: #b0b0b0; stroke-width: 0.8; stroke-linecap: square"/>
     </g>
     <g id="line2d_16">
      <g>
       <use xlink:href="#m30b162b788" x="1101.206342" y="522.25225" style="stroke: #000000; stroke-width: 0.8"/>
      </g>
     </g>
     <g id="text_8">
      <!-- 175 -->
      <g transform="translate(1091.662592 536.850687)scale(0.1 -0.1)">
       <use xlink:href="#DejaVuSans-31"/>
       <use xlink:href="#DejaVuSans-37" x="63.623047"/>
       <use xlink:href="#DejaVuSans-35" x="127.246094"/>
      </g>
     </g>
    </g>
    <g id="xtick_9">
     <g id="line2d_17">
      <path d="M 1238.117586 522.25225 
L 1238.117586 44.184 
" clip-path="url(#p0c81a22ba3)" style="fill: none; stroke: #b0b0b0; stroke-width: 0.8; stroke-linecap: square"/>
     </g>
     <g id="line2d_18">
      <g>
       <use xlink:href="#m30b162b788" x="1238.117586" y="522.25225" style="stroke: #000000; stroke-width: 0.8"/>
      </g>
     </g>
     <g id="text_9">
      <!-- 200 -->
      <g transform="translate(1228.573836 536.850687)scale(0.1 -0.1)">
       <use xlink:href="#DejaVuSans-32"/>
       <use xlink:href="#DejaVuSans-30" x="63.623047"/>
       <use xlink:href="#DejaVuSans-30" x="127.246094"/>
      </g>
     </g>
    </g>
   </g>
   <g id="matplotlib.axis_2">
    <g id="ytick_1">
     <g id="line2d_19">
      <path d="M 96.609875 500.521875 
L 1292.34375 500.521875 
" clip-path="url(#p0c81a22ba3)" style="fill: none; stroke: #b0b0b0; stroke-width: 0.8; stroke-linecap: square"/>
     </g>
     <g id="line2d_20">
      <defs>
       <path id="m6a82cdcf3f" d="M 0 0 
L -3.5 0 
" style="stroke: #000000; stroke-width: 0.8"/>
      </defs>
      <g>
       <use xlink:href="#m6a82cdcf3f" x="96.609875" y="500.521875" style="stroke: #000000; stroke-width: 0.8"/>
      </g>
     </g>
     <g id="text_10">
      <!-- 1.0 -->
      <g transform="translate(73.70675 504.321094)scale(0.1 -0.1)">
       <defs>
        <path id="DejaVuSans-2e" d="M 684 794 
L 1344 794 
L 1344 0 
L 684 0 
L 684 794 
z
" transform="scale(0.015625)"/>
       </defs>
       <use xlink:href="#DejaVuSans-31"/>
       <use xlink:href="#DejaVuSans-2e" x="63.623047"/>
       <use xlink:href="#DejaVuSans-30" x="95.410156"/>
      </g>
     </g>
    </g>
    <g id="ytick_2">
     <g id="line2d_21">
      <path d="M 96.609875 428.087292 
L 1292.34375 428.087292 
" clip-path="url(#p0c81a22ba3)" style="fill: none; stroke: #b0b0b0; stroke-width: 0.8; stroke-linecap: square"/>
     </g>
     <g id="line2d_22">
      <g>
       <use xlink:href="#m6a82cdcf3f" x="96.609875" y="428.087292" style="stroke: #000000; stroke-width: 0.8"/>
      </g>
     </g>
     <g id="text_11">
      <!-- 1.5 -->
      <g transform="translate(73.70675 431.88651)scale(0.1 -0.1)">
       <use xlink:href="#DejaVuSans-31"/>
       <use xlink:href="#DejaVuSans-2e" x="63.623047"/>
       <use xlink:href="#DejaVuSans-35" x="95.410156"/>
      </g>
     </g>
    </g>
    <g id="ytick_3">
     <g id="line2d_23">
      <path d="M 96.609875 355.652708 
L 1292.34375 355.652708 
" clip-path="url(#p0c81a22ba3)" style="fill: none; stroke: #b0b0b0; stroke-width: 0.8; stroke-linecap: square"/>
     </g>
     <g id="line2d_24">
      <g>
       <use xlink:href="#m6a82cdcf3f" x="96.609875" y="355.652708" style="stroke: #000000; stroke-width: 0.8"/>
      </g>
     </g>
     <g id="text_12">
      <!-- 2.0 -->
      <g transform="translate(73.70675 359.451927)scale(0.1 -0.1)">
       <use xlink:href="#DejaVuSans-32"/>
       <use xlink:href="#DejaVuSans-2e" x="63.623047"/>
       <use xlink:href="#DejaVuSans-30" x="95.410156"/>
      </g>
     </g>
    </g>
    <g id="ytick_4">
     <g id="line2d_25">
      <path d="M 96.609875 283.218125 
L 1292.34375 283.218125 
" clip-path="url(#p0c81a22ba3)" style="fill: none; stroke: #b0b0b0; stroke-width: 0.8; stroke-linecap: square"/>
     </g>
     <g id="line2d_26">
      <g>
       <use xlink:href="#m6a82cdcf3f" x="96.609875" y="283.218125" style="stroke: #000000; stroke-width: 0.8"/>
      </g>
     </g>
     <g id="text_13">
      <!-- 2.5 -->
      <g transform="translate(73.70675 287.017344)scale(0.1 -0.1)">
       <use xlink:href="#DejaVuSans-32"/>
       <use xlink:href="#DejaVuSans-2e" x="63.623047"/>
       <use xlink:href="#DejaVuSans-35" x="95.410156"/>
      </g>
     </g>
    </g>
    <g id="ytick_5">
     <g id="line2d_27">
      <path d="M 96.609875 210.783542 
L 1292.34375 210.783542 
" clip-path="url(#p0c81a22ba3)" style="fill: none; stroke: #b0b0b0; stroke-width: 0.8; stroke-linecap: square"/>
     </g>
     <g id="line2d_28">
      <g>
       <use xlink:href="#m6a82cdcf3f" x="96.609875" y="210.783542" style="stroke: #000000; stroke-width: 0.8"/>
      </g>
     </g>
     <g id="text_14">
      <!-- 3.0 -->
      <g transform="translate(73.70675 214.58276)scale(0.1 -0.1)">
       <defs>
        <path id="DejaVuSans-33" d="M 2597 2516 
Q 3050 2419 3304 2112 
Q 3559 1806 3559 1356 
Q 3559 666 3084 287 
Q 2609 -91 1734 -91 
Q 1441 -91 1130 -33 
Q 819 25 488 141 
L 488 750 
Q 750 597 1062 519 
Q 1375 441 1716 441 
Q 2309 441 2620 675 
Q 2931 909 2931 1356 
Q 2931 1769 2642 2001 
Q 2353 2234 1838 2234 
L 1294 2234 
L 1294 2753 
L 1863 2753 
Q 2328 2753 2575 2939 
Q 2822 3125 2822 3475 
Q 2822 3834 2567 4026 
Q 2313 4219 1838 4219 
Q 1578 4219 1281 4162 
Q 984 4106 628 3988 
L 628 4550 
Q 988 4650 1302 4700 
Q 1616 4750 1894 4750 
Q 2613 4750 3031 4423 
Q 3450 4097 3450 3541 
Q 3450 3153 3228 2886 
Q 3006 2619 2597 2516 
z
" transform="scale(0.015625)"/>
       </defs>
       <use xlink:href="#DejaVuSans-33"/>
       <use xlink:href="#DejaVuSans-2e" x="63.623047"/>
       <use xlink:href="#DejaVuSans-30" x="95.410156"/>
      </g>
     </g>
    </g>
    <g id="ytick_6">
     <g id="line2d_29">
      <path d="M 96.609875 138.348958 
L 1292.34375 138.348958 
" clip-path="url(#p0c81a22ba3)" style="fill: none; stroke: #b0b0b0; stroke-width: 0.8; stroke-linecap: square"/>
     </g>
     <g id="line2d_30">
      <g>
       <use xlink:href="#m6a82cdcf3f" x="96.609875" y="138.348958" style="stroke: #000000; stroke-width: 0.8"/>
      </g>
     </g>
     <g id="text_15">
      <!-- 3.5 -->
      <g transform="translate(73.70675 142.148177)scale(0.1 -0.1)">
       <use xlink:href="#DejaVuSans-33"/>
       <use xlink:href="#DejaVuSans-2e" x="63.623047"/>
       <use xlink:href="#DejaVuSans-35" x="95.410156"/>
      </g>
     </g>
    </g>
    <g id="ytick_7">
     <g id="line2d_31">
      <path d="M 96.609875 65.914375 
L 1292.34375 65.914375 
" clip-path="url(#p0c81a22ba3)" style="fill: none; stroke: #b0b0b0; stroke-width: 0.8; stroke-linecap: square"/>
     </g>
     <g id="line2d_32">
      <g>
       <use xlink:href="#m6a82cdcf3f" x="96.609875" y="65.914375" style="stroke: #000000; stroke-width: 0.8"/>
      </g>
     </g>
     <g id="text_16">
      <!-- 4.0 -->
      <g transform="translate(73.70675 69.713594)scale(0.1 -0.1)">
       <defs>
        <path id="DejaVuSans-34" d="M 2419 4116 
L 825 1625 
L 2419 1625 
L 2419 4116 
z
M 2253 4666 
L 3047 4666 
L 3047 1625 
L 3713 1625 
L 3713 1100 
L 3047 1100 
L 3047 0 
L 2419 0 
L 2419 1100 
L 313 1100 
L 313 1709 
L 2253 4666 
z
" transform="scale(0.015625)"/>
       </defs>
       <use xlink:href="#DejaVuSans-34"/>
       <use xlink:href="#DejaVuSans-2e" x="63.623047"/>
       <use xlink:href="#DejaVuSans-30" x="95.410156"/>
      </g>
     </g>
    </g>
   </g>
   <g id="line2d_33">
    <path d="M 167.390764 210.783542 
L 189.296563 210.783542 
L 194.773013 210.783542 
L 211.202362 210.783542 
L 249.53751 210.783542 
L 298.825558 210.783542 
L 309.778457 210.783542 
L 391.925203 210.783542 
L 419.307452 210.783542 
L 430.260352 210.783542 
L 435.736801 210.783542 
L 441.213251 210.783542 
L 468.5955 210.783542 
L 485.024849 210.783542 
L 556.218696 210.783542 
L 583.600944 210.783542 
L 643.841892 210.783542 
L 671.22414 210.783542 
L 693.129939 210.783542 
L 819.088283 210.783542 
L 945.046627 210.783542 
L 988.858225 210.783542 
L 1016.240474 210.783542 
L 1065.528522 210.783542 
L 1087.434321 210.783542 
L 1120.293019 210.783542 
L 1158.628167 210.783542 
L 1191.486866 210.783542 
L 1235.298464 210.783542 
" clip-path="url(#p0c81a22ba3)" style="fill: none; stroke: #1f77b4; stroke-width: 1.5; stroke-linecap: square"/>
   </g>
   <g id="line2d_34">
    <path d="M 233.108161 65.914375 
L 265.966859 65.914375 
L 282.396209 65.914375 
L 348.113605 65.914375 
L 457.6426 65.914375 
L 501.454198 65.914375 
L 523.359997 65.914375 
L 567.171595 65.914375 
L 616.459643 65.914375 
L 720.512188 65.914375 
L 736.941537 65.914375 
L 758.847336 65.914375 
L 775.276685 65.914375 
L 786.229585 65.914375 
L 846.470532 65.914375 
L 862.899881 65.914375 
L 917.664379 65.914375 
L 928.617278 65.914375 
L 961.475977 65.914375 
L 977.905326 65.914375 
L 1005.287574 65.914375 
L 1054.575622 65.914375 
L 1076.481421 65.914375 
L 1109.34012 65.914375 
L 1125.769469 65.914375 
L 1169.581067 65.914375 
L 1224.345564 65.914375 
" clip-path="url(#p0c81a22ba3)" style="fill: none; stroke: #ff7f0e; stroke-width: 1.5; stroke-linecap: square"/>
   </g>
   <g id="line2d_35">
    <path d="M 197.466759 210.783542 
L 219.372558 210.783542 
L 241.278357 210.783542 
L 252.231257 210.783542 
L 263.184156 210.783542 
L 296.042855 210.783542 
L 306.995754 210.783542 
L 372.713151 210.783542 
L 394.61895 210.783542 
L 400.0954 210.783542 
L 449.383447 210.783542 
L 471.289246 210.783542 
L 504.147945 210.783542 
L 542.483093 210.783542 
L 575.341791 210.783542 
L 602.72404 210.783542 
L 608.20049 210.783542 
L 619.153389 210.783542 
L 630.106289 210.783542 
L 635.582739 210.783542 
L 652.012088 210.783542 
L 662.964987 210.783542 
L 679.394337 210.783542 
L 723.205935 210.783542 
L 761.541083 210.783542 
L 772.493982 210.783542 
L 788.923331 210.783542 
L 827.25848 210.783542 
L 832.734929 210.783542 
L 849.164279 210.783542 
L 854.640728 210.783542 
L 876.546527 210.783542 
L 887.499427 210.783542 
L 903.928776 210.783542 
L 920.358125 210.783542 
L 958.693273 210.783542 
L 975.122623 210.783542 
L 1013.457771 210.783542 
L 1018.934221 210.783542 
L 1062.745818 210.783542 
L 1106.557416 210.783542 
L 1122.986766 210.783542 
L 1144.892565 210.783542 
L 1194.180612 210.783542 
L 1227.039311 210.783542 
" clip-path="url(#p0c81a22ba3)" style="fill: none; stroke: #2ca02c; stroke-width: 1.5; stroke-linecap: square"/>
   </g>
   <g id="line2d_36">
    <path d="M 164.608061 355.652708 
L 191.99031 355.652708 
L 208.419659 355.652708 
L 224.849008 355.652708 
L 257.707706 355.652708 
L 285.089955 355.652708 
L 323.425103 355.652708 
L 350.807352 355.652708 
L 383.666051 355.652708 
L 389.1425 355.652708 
L 422.001199 355.652708 
L 432.954098 355.652708 
L 454.859897 355.652708 
L 460.336347 355.652708 
L 482.242146 355.652708 
L 493.195045 355.652708 
L 509.624395 355.652708 
L 531.530194 355.652708 
L 537.006643 355.652708 
L 553.435993 355.652708 
L 580.818241 355.652708 
L 591.771141 355.652708 
L 624.629839 355.652708 
L 641.059188 355.652708 
L 646.535638 355.652708 
L 695.823686 355.652708 
L 706.776585 355.652708 
L 717.729485 355.652708 
L 739.635284 355.652708 
L 750.588183 355.652708 
L 767.017532 355.652708 
L 777.970432 355.652708 
L 799.876231 355.652708 
L 805.352681 355.652708 
L 865.593628 355.652708 
L 909.405226 355.652708 
L 936.787474 355.652708 
L 947.740374 355.652708 
L 953.216824 355.652708 
L 964.169723 355.652708 
L 980.599072 355.652708 
L 997.028422 355.652708 
L 1002.504871 355.652708 
L 1024.41067 355.652708 
L 1029.88712 355.652708 
L 1040.84002 355.652708 
L 1079.175168 355.652708 
L 1095.604517 355.652708 
L 1128.463215 355.652708 
L 1139.416115 355.652708 
L 1155.845464 355.652708 
L 1166.798364 355.652708 
L 1183.227713 355.652708 
L 1199.657062 355.652708 
L 1232.51576 355.652708 
L 1237.99221 355.652708 
" clip-path="url(#p0c81a22ba3)" style="fill: none; stroke: #d62728; stroke-width: 1.5; stroke-linecap: square"/>
   </g>
   <g id="line2d_37">
    <path d="M 153.655161 500.521875 
L 159.131611 500.521875 
L 170.084511 500.521875 
L 175.56096 500.521875 
L 181.03741 500.521875 
L 186.51386 500.521875 
L 202.943209 500.521875 
L 213.896109 500.521875 
L 230.325458 500.521875 
L 235.801907 500.521875 
L 246.754807 500.521875 
L 268.660606 500.521875 
L 274.137056 500.521875 
L 279.613505 500.521875 
L 290.566405 500.521875 
L 301.519304 500.521875 
L 312.472204 500.521875 
L 317.948654 500.521875 
L 328.901553 500.521875 
L 334.378003 500.521875 
L 339.854453 500.521875 
L 345.330902 500.521875 
L 356.283802 500.521875 
L 361.760252 500.521875 
L 367.236701 500.521875 
L 378.189601 500.521875 
L 405.571849 500.521875 
L 411.048299 500.521875 
L 416.524749 500.521875 
L 427.477648 500.521875 
L 438.430548 500.521875 
L 443.906998 500.521875 
L 465.812797 500.521875 
L 476.765696 500.521875 
L 487.718596 500.521875 
L 498.671495 500.521875 
L 515.100844 500.521875 
L 520.577294 500.521875 
L 526.053744 500.521875 
L 547.959543 500.521875 
L 558.912442 500.521875 
L 564.388892 500.521875 
L 569.865342 500.521875 
L 586.294691 500.521875 
L 597.24759 500.521875 
L 613.67694 500.521875 
L 657.488538 500.521875 
L 668.441437 500.521875 
L 673.917887 500.521875 
L 684.870786 500.521875 
L 690.347236 500.521875 
L 701.300136 500.521875 
L 712.253035 500.521875 
L 728.682384 500.521875 
L 734.158834 500.521875 
L 745.111733 500.521875 
L 756.064633 500.521875 
L 783.446882 500.521875 
L 794.399781 500.521875 
L 810.82913 500.521875 
L 816.30558 500.521875 
L 821.78203 500.521875 
L 838.211379 500.521875 
L 843.687829 500.521875 
L 860.117178 500.521875 
L 871.070078 500.521875 
L 882.022977 500.521875 
L 892.975876 500.521875 
L 898.452326 500.521875 
L 914.881675 500.521875 
L 925.834575 500.521875 
L 931.311025 500.521875 
L 942.263924 500.521875 
L 969.646173 500.521875 
L 986.075522 500.521875 
L 991.551972 500.521875 
L 1007.981321 500.521875 
L 1035.36357 500.521875 
L 1046.316469 500.521875 
L 1051.792919 500.521875 
L 1057.269369 500.521875 
L 1068.222268 500.521875 
L 1073.698718 500.521875 
L 1084.651617 500.521875 
L 1090.128067 500.521875 
L 1101.080967 500.521875 
L 1112.033866 500.521875 
L 1117.510316 500.521875 
L 1133.939665 500.521875 
L 1150.369014 500.521875 
L 1161.321914 500.521875 
L 1172.274813 500.521875 
L 1177.751263 500.521875 
L 1188.704163 500.521875 
L 1205.133512 500.521875 
L 1210.609962 500.521875 
L 1216.086411 500.521875 
L 1221.562861 500.521875 
" clip-path="url(#p0c81a22ba3)" style="fill: none; stroke: #9467bd; stroke-width: 1.5; stroke-linecap: square"/>
   </g>
   <g id="line2d_38">
    <path d="M 150.961415 500.521875 
L 156.437865 500.521875 
L 172.867214 500.521875 
L 183.820113 500.521875 
L 200.249462 500.521875 
L 205.725912 500.521875 
L 216.678812 500.521875 
L 227.631711 500.521875 
L 238.584611 500.521875 
L 260.49041 500.521875 
L 271.443309 500.521875 
L 293.349108 500.521875 
L 315.254907 500.521875 
L 320.731357 500.521875 
L 331.684256 500.521875 
L 337.160706 500.521875 
L 342.637156 500.521875 
L 353.590055 500.521875 
L 359.066505 500.521875 
L 370.019404 500.521875 
L 386.448754 500.521875 
L 397.401653 500.521875 
L 402.878103 500.521875 
L 413.831002 500.521875 
L 424.783902 500.521875 
L 452.166151 500.521875 
L 463.11905 500.521875 
L 474.07195 500.521875 
L 495.977749 500.521875 
L 506.930648 500.521875 
L 517.883547 500.521875 
L 528.836447 500.521875 
L 534.312897 500.521875 
L 545.265796 500.521875 
L 550.742246 500.521875 
L 572.648045 500.521875 
L 589.077394 500.521875 
L 600.030294 500.521875 
L 610.983193 500.521875 
L 632.888992 500.521875 
L 638.365442 500.521875 
L 649.318341 500.521875 
L 654.794791 500.521875 
L 687.653489 500.521875 
L 704.082839 500.521875 
L 715.035738 500.521875 
L 725.988638 500.521875 
L 731.465087 500.521875 
L 747.894437 500.521875 
L 753.370886 500.521875 
L 769.800236 500.521875 
L 780.753135 500.521875 
L 791.706035 500.521875 
L 797.182484 500.521875 
L 808.135384 500.521875 
L 813.611834 500.521875 
L 824.564733 500.521875 
L 830.041183 500.521875 
L 840.994082 500.521875 
L 851.946982 500.521875 
L 868.376331 500.521875 
L 873.852781 500.521875 
L 884.80568 500.521875 
L 895.75858 500.521875 
L 901.235029 500.521875 
L 912.187929 500.521875 
L 939.570178 500.521875 
L 950.523077 500.521875 
L 955.999527 500.521875 
L 983.381776 500.521875 
L 994.334675 500.521875 
L 1010.764024 500.521875 
L 1021.716924 500.521875 
L 1027.193373 500.521875 
L 1032.669823 500.521875 
L 1049.099172 500.521875 
L 1060.052072 500.521875 
L 1071.004971 500.521875 
L 1081.957871 500.521875 
L 1092.91077 500.521875 
L 1098.38722 500.521875 
L 1114.816569 500.521875 
L 1131.245919 500.521875 
L 1136.722368 500.521875 
L 1147.675268 500.521875 
L 1153.151718 500.521875 
L 1164.104617 500.521875 
L 1175.057516 500.521875 
L 1186.010416 500.521875 
L 1196.963315 500.521875 
L 1202.439765 500.521875 
L 1218.869114 500.521875 
L 1229.822014 500.521875 
" clip-path="url(#p0c81a22ba3)" style="fill: none; stroke: #8c564b; stroke-width: 1.5; stroke-linecap: square"/>
   </g>
   <g id="line2d_39">
    <path d="M 161.914314 355.652708 
L 178.343663 355.652708 
L 222.155261 355.652708 
L 244.06106 355.652708 
L 255.01396 355.652708 
L 276.919759 355.652708 
L 287.872658 355.652708 
L 304.302008 355.652708 
L 326.207807 355.652708 
L 364.542955 355.652708 
L 375.495854 355.652708 
L 380.972304 355.652708 
L 408.354553 355.652708 
L 446.689701 355.652708 
L 479.548399 355.652708 
L 490.501299 355.652708 
L 512.407098 355.652708 
L 539.789346 355.652708 
L 561.695145 355.652708 
L 578.124495 355.652708 
L 594.553844 355.652708 
L 605.506743 355.652708 
L 621.936093 355.652708 
L 627.412542 355.652708 
L 660.271241 355.652708 
L 665.74769 355.652708 
L 676.70059 355.652708 
L 682.17704 355.652708 
L 698.606389 355.652708 
L 709.559288 355.652708 
L 742.417987 355.652708 
L 764.323786 355.652708 
L 802.658934 355.652708 
L 835.517632 355.652708 
L 857.423431 355.652708 
L 879.32923 355.652708 
L 890.28213 355.652708 
L 906.711479 355.652708 
L 923.140828 355.652708 
L 934.093728 355.652708 
L 966.952426 355.652708 
L 972.428876 355.652708 
L 999.811125 355.652708 
L 1038.146273 355.652708 
L 1043.622723 355.652708 
L 1103.86367 355.652708 
L 1142.198818 355.652708 
L 1180.533966 355.652708 
L 1207.916215 355.652708 
L 1213.392665 355.652708 
" clip-path="url(#p0c81a22ba3)" style="fill: none; stroke: #e377c2; stroke-width: 1.5; stroke-linecap: square"/>
   </g>
   <g id="patch_3">
    <path d="M 96.609875 522.25225 
L 96.609875 44.184 
" style="fill: none; stroke: #000000; stroke-width: 0.8; stroke-linejoin: miter; stroke-linecap: square"/>
   </g>
   <g id="patch_4">
    <path d="M 1292.34375 522.25225 
L 1292.34375 44.184 
" style="fill: none; stroke: #000000; stroke-width: 0.8; stroke-linejoin: miter; stroke-linecap: square"/>
   </g>
   <g id="patch_5">
    <path d="M 96.609875 522.25225 
L 1292.34375 522.25225 
" style="fill: none; stroke: #000000; stroke-width: 0.8; stroke-linejoin: miter; stroke-linecap: square"/>
   </g>
   <g id="patch_6">
    <path d="M 96.609875 44.184 
L 1292.34375 44.184 
" style="fill: none; stroke: #000000; stroke-width: 0.8; stroke-linejoin: miter; stroke-linecap: square"/>
   </g>
   <g id="text_17">
    <!-- Network.node[5].app -->
    <g transform="translate(630.842125 38.184)scale(0.12 -0.12)">
     <defs>
      <path id="DejaVuSans-4e" d="M 628 4666 
L 1478 4666 
L 3547 763 
L 3547 4666 
L 4159 4666 
L 4159 0 
L 3309 0 
L 1241 3903 
L 1241 0 
L 628 0 
L 628 4666 
z
" transform="scale(0.015625)"/>
      <path id="DejaVuSans-65" d="M 3597 1894 
L 3597 1613 
L 953 1613 
Q 991 1019 1311 708 
Q 1631 397 2203 397 
Q 2534 397 2845 478 
Q 3156 559 3463 722 
L 3463 178 
Q 3153 47 2828 -22 
Q 2503 -91 2169 -91 
Q 1331 -91 842 396 
Q 353 884 353 1716 
Q 353 2575 817 3079 
Q 1281 3584 2069 3584 
Q 2775 3584 3186 3129 
Q 3597 2675 3597 1894 
z
M 3022 2063 
Q 3016 2534 2758 2815 
Q 2500 3097 2075 3097 
Q 1594 3097 1305 2825 
Q 1016 2553 972 2059 
L 3022 2063 
z
" transform="scale(0.015625)"/>
      <path id="DejaVuSans-74" d="M 1172 4494 
L 1172 3500 
L 2356 3500 
L 2356 3053 
L 1172 3053 
L 1172 1153 
Q 1172 725 1289 603 
Q 1406 481 1766 481 
L 2356 481 
L 2356 0 
L 1766 0 
Q 1100 0 847 248 
Q 594 497 594 1153 
L 594 3053 
L 172 3053 
L 172 3500 
L 594 3500 
L 594 4494 
L 1172 4494 
z
" transform="scale(0.015625)"/>
      <path id="DejaVuSans-77" d="M 269 3500 
L 844 3500 
L 1563 769 
L 2278 3500 
L 2956 3500 
L 3675 769 
L 4391 3500 
L 4966 3500 
L 4050 0 
L 3372 0 
L 2619 2869 
L 1863 0 
L 1184 0 
L 269 3500 
z
" transform="scale(0.015625)"/>
      <path id="DejaVuSans-6f" d="M 1959 3097 
Q 1497 3097 1228 2736 
Q 959 2375 959 1747 
Q 959 1119 1226 758 
Q 1494 397 1959 397 
Q 2419 397 2687 759 
Q 2956 1122 2956 1747 
Q 2956 2369 2687 2733 
Q 2419 3097 1959 3097 
z
M 1959 3584 
Q 2709 3584 3137 3096 
Q 3566 2609 3566 1747 
Q 3566 888 3137 398 
Q 2709 -91 1959 -91 
Q 1206 -91 779 398 
Q 353 888 353 1747 
Q 353 2609 779 3096 
Q 1206 3584 1959 3584 
z
" transform="scale(0.015625)"/>
      <path id="DejaVuSans-72" d="M 2631 2963 
Q 2534 3019 2420 3045 
Q 2306 3072 2169 3072 
Q 1681 3072 1420 2755 
Q 1159 2438 1159 1844 
L 1159 0 
L 581 0 
L 581 3500 
L 1159 3500 
L 1159 2956 
Q 1341 3275 1631 3429 
Q 1922 3584 2338 3584 
Q 2397 3584 2469 3576 
Q 2541 3569 2628 3553 
L 2631 2963 
z
" transform="scale(0.015625)"/>
      <path id="DejaVuSans-6b" d="M 581 4863 
L 1159 4863 
L 1159 1991 
L 2875 3500 
L 3609 3500 
L 1753 1863 
L 3688 0 
L 2938 0 
L 1159 1709 
L 1159 0 
L 581 0 
L 581 4863 
z
" transform="scale(0.015625)"/>
      <path id="DejaVuSans-6e" d="M 3513 2113 
L 3513 0 
L 2938 0 
L 2938 2094 
Q 2938 2591 2744 2837 
Q 2550 3084 2163 3084 
Q 1697 3084 1428 2787 
Q 1159 2491 1159 1978 
L 1159 0 
L 581 0 
L 581 3500 
L 1159 3500 
L 1159 2956 
Q 1366 3272 1645 3428 
Q 1925 3584 2291 3584 
Q 2894 3584 3203 3211 
Q 3513 2838 3513 2113 
z
" transform="scale(0.015625)"/>
      <path id="DejaVuSans-64" d="M 2906 2969 
L 2906 4863 
L 3481 4863 
L 3481 0 
L 2906 0 
L 2906 525 
Q 2725 213 2448 61 
Q 2172 -91 1784 -91 
Q 1150 -91 751 415 
Q 353 922 353 1747 
Q 353 2572 751 3078 
Q 1150 3584 1784 3584 
Q 2172 3584 2448 3432 
Q 2725 3281 2906 2969 
z
M 947 1747 
Q 947 1113 1208 752 
Q 1469 391 1925 391 
Q 2381 391 2643 752 
Q 2906 1113 2906 1747 
Q 2906 2381 2643 2742 
Q 2381 3103 1925 3103 
Q 1469 3103 1208 2742 
Q 947 2381 947 1747 
z
" transform="scale(0.015625)"/>
      <path id="DejaVuSans-5b" d="M 550 4863 
L 1875 4863 
L 1875 4416 
L 1125 4416 
L 1125 -397 
L 1875 -397 
L 1875 -844 
L 550 -844 
L 550 4863 
z
" transform="scale(0.015625)"/>
      <path id="DejaVuSans-5d" d="M 1947 4863 
L 1947 -844 
L 622 -844 
L 622 -397 
L 1369 -397 
L 1369 4416 
L 622 4416 
L 622 4863 
L 1947 4863 
z
" transform="scale(0.015625)"/>
      <path id="DejaVuSans-61" d="M 2194 1759 
Q 1497 1759 1228 1600 
Q 959 1441 959 1056 
Q 959 750 1161 570 
Q 1363 391 1709 391 
Q 2188 391 2477 730 
Q 2766 1069 2766 1631 
L 2766 1759 
L 2194 1759 
z
M 3341 1997 
L 3341 0 
L 2766 0 
L 2766 531 
Q 2569 213 2275 61 
Q 1981 -91 1556 -91 
Q 1019 -91 701 211 
Q 384 513 384 1019 
Q 384 1609 779 1909 
Q 1175 2209 1959 2209 
L 2766 2209 
L 2766 2266 
Q 2766 2663 2505 2880 
Q 2244 3097 1772 3097 
Q 1472 3097 1187 3025 
Q 903 2953 641 2809 
L 641 3341 
Q 956 3463 1253 3523 
Q 1550 3584 1831 3584 
Q 2591 3584 2966 3190 
Q 3341 2797 3341 1997 
z
" transform="scale(0.015625)"/>
      <path id="DejaVuSans-70" d="M 1159 525 
L 1159 -1331 
L 581 -1331 
L 581 3500 
L 1159 3500 
L 1159 2969 
Q 1341 3281 1617 3432 
Q 1894 3584 2278 3584 
Q 2916 3584 3314 3078 
Q 3713 2572 3713 1747 
Q 3713 922 3314 415 
Q 2916 -91 2278 -91 
Q 1894 -91 1617 61 
Q 1341 213 1159 525 
z
M 3116 1747 
Q 3116 2381 2855 2742 
Q 2594 3103 2138 3103 
Q 1681 3103 1420 2742 
Q 1159 2381 1159 1747 
Q 1159 1113 1420 752 
Q 1681 391 2138 391 
Q 2594 391 2855 752 
Q 3116 1113 3116 1747 
z
" transform="scale(0.015625)"/>
     </defs>
     <use xlink:href="#DejaVuSans-4e"/>
     <use xlink:href="#DejaVuSans-65" x="74.804688"/>
     <use xlink:href="#DejaVuSans-74" x="136.328125"/>
     <use xlink:href="#DejaVuSans-77" x="175.537109"/>
     <use xlink:href="#DejaVuSans-6f" x="257.324219"/>
     <use xlink:href="#DejaVuSans-72" x="318.505859"/>
     <use xlink:href="#DejaVuSans-6b" x="359.619141"/>
     <use xlink:href="#DejaVuSans-2e" x="417.529297"/>
     <use xlink:href="#DejaVuSans-6e" x="449.316406"/>
     <use xlink:href="#DejaVuSans-6f" x="512.695312"/>
     <use xlink:href="#DejaVuSans-64" x="573.876953"/>
     <use xlink:href="#DejaVuSans-65" x="637.353516"/>
     <use xlink:href="#DejaVuSans-5b" x="698.876953"/>
     <use xlink:href="#DejaVuSans-35" x="737.890625"/>
     <use xlink:href="#DejaVuSans-5d" x="801.513672"/>
     <use xlink:href="#DejaVuSans-2e" x="840.527344"/>
     <use xlink:href="#DejaVuSans-61" x="872.314453"/>
     <use xlink:href="#DejaVuSans-70" x="933.59375"/>
     <use xlink:href="#DejaVuSans-70" x="997.070312"/>
    </g>
   </g>
   <g id="legend_1">
    <g id="patch_7">
     <path d="M 1170.525 154.930875 
L 1287.34375 154.930875 
L 1287.34375 49.184 
L 1170.525 49.184 
z
" style="fill: #ffffff; opacity: 0.8; stroke: #cccccc; stroke-linejoin: miter"/>
    </g>
    <g id="line2d_40">
     <path d="M 1174.525 57.282438 
L 1184.525 57.282438 
L 1194.525 57.282438 
" style="fill: none; stroke: #1f77b4; stroke-width: 1.5; stroke-linecap: square"/>
    </g>
    <g id="text_18">
     <!-- HopCountFrom0 -->
     <g transform="translate(1202.525 60.782438)scale(0.1 -0.1)">
      <defs>
       <path id="DejaVuSans-48" d="M 628 4666 
L 1259 4666 
L 1259 2753 
L 3553 2753 
L 3553 4666 
L 4184 4666 
L 4184 0 
L 3553 0 
L 3553 2222 
L 1259 2222 
L 1259 0 
L 628 0 
L 628 4666 
z
" transform="scale(0.015625)"/>
       <path id="DejaVuSans-43" d="M 4122 4306 
L 4122 3641 
Q 3803 3938 3442 4084 
Q 3081 4231 2675 4231 
Q 1875 4231 1450 3742 
Q 1025 3253 1025 2328 
Q 1025 1406 1450 917 
Q 1875 428 2675 428 
Q 3081 428 3442 575 
Q 3803 722 4122 1019 
L 4122 359 
Q 3791 134 3420 21 
Q 3050 -91 2638 -91 
Q 1578 -91 968 557 
Q 359 1206 359 2328 
Q 359 3453 968 4101 
Q 1578 4750 2638 4750 
Q 3056 4750 3426 4639 
Q 3797 4528 4122 4306 
z
" transform="scale(0.015625)"/>
       <path id="DejaVuSans-75" d="M 544 1381 
L 544 3500 
L 1119 3500 
L 1119 1403 
Q 1119 906 1312 657 
Q 1506 409 1894 409 
Q 2359 409 2629 706 
Q 2900 1003 2900 1516 
L 2900 3500 
L 3475 3500 
L 3475 0 
L 2900 0 
L 2900 538 
Q 2691 219 2414 64 
Q 2138 -91 1772 -91 
Q 1169 -91 856 284 
Q 544 659 544 1381 
z
M 1991 3584 
L 1991 3584 
z
" transform="scale(0.015625)"/>
       <path id="DejaVuSans-46" d="M 628 4666 
L 3309 4666 
L 3309 4134 
L 1259 4134 
L 1259 2759 
L 3109 2759 
L 3109 2228 
L 1259 2228 
L 1259 0 
L 628 0 
L 628 4666 
z
" transform="scale(0.015625)"/>
       <path id="DejaVuSans-6d" d="M 3328 2828 
Q 3544 3216 3844 3400 
Q 4144 3584 4550 3584 
Q 5097 3584 5394 3201 
Q 5691 2819 5691 2113 
L 5691 0 
L 5113 0 
L 5113 2094 
Q 5113 2597 4934 2840 
Q 4756 3084 4391 3084 
Q 3944 3084 3684 2787 
Q 3425 2491 3425 1978 
L 3425 0 
L 2847 0 
L 2847 2094 
Q 2847 2600 2669 2842 
Q 2491 3084 2119 3084 
Q 1678 3084 1418 2786 
Q 1159 2488 1159 1978 
L 1159 0 
L 581 0 
L 581 3500 
L 1159 3500 
L 1159 2956 
Q 1356 3278 1631 3431 
Q 1906 3584 2284 3584 
Q 2666 3584 2933 3390 
Q 3200 3197 3328 2828 
z
" transform="scale(0.015625)"/>
      </defs>
      <use xlink:href="#DejaVuSans-48"/>
      <use xlink:href="#DejaVuSans-6f" x="75.195312"/>
      <use xlink:href="#DejaVuSans-70" x="136.376953"/>
      <use xlink:href="#DejaVuSans-43" x="199.853516"/>
      <use xlink:href="#DejaVuSans-6f" x="269.677734"/>
      <use xlink:href="#DejaVuSans-75" x="330.859375"/>
      <use xlink:href="#DejaVuSans-6e" x="394.238281"/>
      <use xlink:href="#DejaVuSans-74" x="457.617188"/>
      <use xlink:href="#DejaVuSans-46" x="496.826172"/>
      <use xlink:href="#DejaVuSans-72" x="547.095703"/>
      <use xlink:href="#DejaVuSans-6f" x="585.958984"/>
      <use xlink:href="#DejaVuSans-6d" x="647.140625"/>
      <use xlink:href="#DejaVuSans-30" x="744.552734"/>
     </g>
    </g>
    <g id="line2d_41">
     <path d="M 1174.525 71.960563 
L 1184.525 71.960563 
L 1194.525 71.960563 
" style="fill: none; stroke: #ff7f0e; stroke-width: 1.5; stroke-linecap: square"/>
    </g>
    <g id="text_19">
     <!-- HopCountFrom1 -->
     <g transform="translate(1202.525 75.460563)scale(0.1 -0.1)">
      <use xlink:href="#DejaVuSans-48"/>
      <use xlink:href="#DejaVuSans-6f" x="75.195312"/>
      <use xlink:href="#DejaVuSans-70" x="136.376953"/>
      <use xlink:href="#DejaVuSans-43" x="199.853516"/>
      <use xlink:href="#DejaVuSans-6f" x="269.677734"/>
      <use xlink:href="#DejaVuSans-75" x="330.859375"/>
      <use xlink:href="#DejaVuSans-6e" x="394.238281"/>
      <use xlink:href="#DejaVuSans-74" x="457.617188"/>
      <use xlink:href="#DejaVuSans-46" x="496.826172"/>
      <use xlink:href="#DejaVuSans-72" x="547.095703"/>
      <use xlink:href="#DejaVuSans-6f" x="585.958984"/>
      <use xlink:href="#DejaVuSans-6d" x="647.140625"/>
      <use xlink:href="#DejaVuSans-31" x="744.552734"/>
     </g>
    </g>
    <g id="line2d_42">
     <path d="M 1174.525 86.638688 
L 1184.525 86.638688 
L 1194.525 86.638688 
" style="fill: none; stroke: #2ca02c; stroke-width: 1.5; stroke-linecap: square"/>
    </g>
    <g id="text_20">
     <!-- HopCountFrom2 -->
     <g transform="translate(1202.525 90.138688)scale(0.1 -0.1)">
      <use xlink:href="#DejaVuSans-48"/>
      <use xlink:href="#DejaVuSans-6f" x="75.195312"/>
      <use xlink:href="#DejaVuSans-70" x="136.376953"/>
      <use xlink:href="#DejaVuSans-43" x="199.853516"/>
      <use xlink:href="#DejaVuSans-6f" x="269.677734"/>
      <use xlink:href="#DejaVuSans-75" x="330.859375"/>
      <use xlink:href="#DejaVuSans-6e" x="394.238281"/>
      <use xlink:href="#DejaVuSans-74" x="457.617188"/>
      <use xlink:href="#DejaVuSans-46" x="496.826172"/>
      <use xlink:href="#DejaVuSans-72" x="547.095703"/>
      <use xlink:href="#DejaVuSans-6f" x="585.958984"/>
      <use xlink:href="#DejaVuSans-6d" x="647.140625"/>
      <use xlink:href="#DejaVuSans-32" x="744.552734"/>
     </g>
    </g>
    <g id="line2d_43">
     <path d="M 1174.525 101.316813 
L 1184.525 101.316813 
L 1194.525 101.316813 
" style="fill: none; stroke: #d62728; stroke-width: 1.5; stroke-linecap: square"/>
    </g>
    <g id="text_21">
     <!-- HopCountFrom3 -->
     <g transform="translate(1202.525 104.816813)scale(0.1 -0.1)">
      <use xlink:href="#DejaVuSans-48"/>
      <use xlink:href="#DejaVuSans-6f" x="75.195312"/>
      <use xlink:href="#DejaVuSans-70" x="136.376953"/>
      <use xlink:href="#DejaVuSans-43" x="199.853516"/>
      <use xlink:href="#DejaVuSans-6f" x="269.677734"/>
      <use xlink:href="#DejaVuSans-75" x="330.859375"/>
      <use xlink:href="#DejaVuSans-6e" x="394.238281"/>
      <use xlink:href="#DejaVuSans-74" x="457.617188"/>
      <use xlink:href="#DejaVuSans-46" x="496.826172"/>
      <use xlink:href="#DejaVuSans-72" x="547.095703"/>
      <use xlink:href="#DejaVuSans-6f" x="585.958984"/>
      <use xlink:href="#DejaVuSans-6d" x="647.140625"/>
      <use xlink:href="#DejaVuSans-33" x="744.552734"/>
     </g>
    </g>
    <g id="line2d_44">
     <path d="M 1174.525 115.994937 
L 1184.525 115.994937 
L 1194.525 115.994937 
" style="fill: none; stroke: #9467bd; stroke-width: 1.5; stroke-linecap: square"/>
    </g>
    <g id="text_22">
     <!-- HopCountFrom4 -->
     <g transform="translate(1202.525 119.494937)scale(0.1 -0.1)">
      <use xlink:href="#DejaVuSans-48"/>
      <use xlink:href="#DejaVuSans-6f" x="75.195312"/>
      <use xlink:href="#DejaVuSans-70" x="136.376953"/>
      <use xlink:href="#DejaVuSans-43" x="199.853516"/>
      <use xlink:href="#DejaVuSans-6f" x="269.677734"/>
      <use xlink:href="#DejaVuSans-75" x="330.859375"/>
      <use xlink:href="#DejaVuSans-6e" x="394.238281"/>
      <use xlink:href="#DejaVuSans-74" x="457.617188"/>
      <use xlink:href="#DejaVuSans-46" x="496.826172"/>
      <use xlink:href="#DejaVuSans-72" x="547.095703"/>
      <use xlink:href="#DejaVuSans-6f" x="585.958984"/>
      <use xlink:href="#DejaVuSans-6d" x="647.140625"/>
      <use xlink:href="#DejaVuSans-34" x="744.552734"/>
     </g>
    </g>
    <g id="line2d_45">
     <path d="M 1174.525 130.673063 
L 1184.525 130.673063 
L 1194.525 130.673063 
" style="fill: none; stroke: #8c564b; stroke-width: 1.5; stroke-linecap: square"/>
    </g>
    <g id="text_23">
     <!-- HopCountFrom6 -->
     <g transform="translate(1202.525 134.173063)scale(0.1 -0.1)">
      <defs>
       <path id="DejaVuSans-36" d="M 2113 2584 
Q 1688 2584 1439 2293 
Q 1191 2003 1191 1497 
Q 1191 994 1439 701 
Q 1688 409 2113 409 
Q 2538 409 2786 701 
Q 3034 994 3034 1497 
Q 3034 2003 2786 2293 
Q 2538 2584 2113 2584 
z
M 3366 4563 
L 3366 3988 
Q 3128 4100 2886 4159 
Q 2644 4219 2406 4219 
Q 1781 4219 1451 3797 
Q 1122 3375 1075 2522 
Q 1259 2794 1537 2939 
Q 1816 3084 2150 3084 
Q 2853 3084 3261 2657 
Q 3669 2231 3669 1497 
Q 3669 778 3244 343 
Q 2819 -91 2113 -91 
Q 1303 -91 875 529 
Q 447 1150 447 2328 
Q 447 3434 972 4092 
Q 1497 4750 2381 4750 
Q 2619 4750 2861 4703 
Q 3103 4656 3366 4563 
z
" transform="scale(0.015625)"/>
      </defs>
      <use xlink:href="#DejaVuSans-48"/>
      <use xlink:href="#DejaVuSans-6f" x="75.195312"/>
      <use xlink:href="#DejaVuSans-70" x="136.376953"/>
      <use xlink:href="#DejaVuSans-43" x="199.853516"/>
      <use xlink:href="#DejaVuSans-6f" x="269.677734"/>
      <use xlink:href="#DejaVuSans-75" x="330.859375"/>
      <use xlink:href="#DejaVuSans-6e" x="394.238281"/>
      <use xlink:href="#DejaVuSans-74" x="457.617188"/>
      <use xlink:href="#DejaVuSans-46" x="496.826172"/>
      <use xlink:href="#DejaVuSans-72" x="547.095703"/>
      <use xlink:href="#DejaVuSans-6f" x="585.958984"/>
      <use xlink:href="#DejaVuSans-6d" x="647.140625"/>
      <use xlink:href="#DejaVuSans-36" x="744.552734"/>
     </g>
    </g>
    <g id="line2d_46">
     <path d="M 1174.525 145.351188 
L 1184.525 145.351188 
L 1194.525 145.351188 
" style="fill: none; stroke: #e377c2; stroke-width: 1.5; stroke-linecap: square"/>
    </g>
    <g id="text_24">
     <!-- HopCountFrom7 -->
     <g transform="translate(1202.525 148.851188)scale(0.1 -0.1)">
      <use xlink:href="#DejaVuSans-48"/>
      <use xlink:href="#DejaVuSans-6f" x="75.195312"/>
      <use xlink:href="#DejaVuSans-70" x="136.376953"/>
      <use xlink:href="#DejaVuSans-43" x="199.853516"/>
      <use xlink:href="#DejaVuSans-6f" x="269.677734"/>
      <use xlink:href="#DejaVuSans-75" x="330.859375"/>
      <use xlink:href="#DejaVuSans-6e" x="394.238281"/>
      <use xlink:href="#DejaVuSans-74" x="457.617188"/>
      <use xlink:href="#DejaVuSans-46" x="496.826172"/>
      <use xlink:href="#DejaVuSans-72" x="547.095703"/>
      <use xlink:href="#DejaVuSans-6f" x="585.958984"/>
      <use xlink:href="#DejaVuSans-6d" x="647.140625"/>
      <use xlink:href="#DejaVuSans-37" x="744.552734"/>
     </g>
    </g>
   </g>
  </g>
 </g>
 <defs>
  <clipPath id="p0c81a22ba3">
   <rect x="96.609875" y="44.184" width="1195.733875" height="478.06825"/>
  </clipPath>
 </defs>
</svg>
