<?xml version="1.0" encoding="UTF-8"?><svg xmlns="http://www.w3.org/2000/svg" xmlns:xlink="http://www.w3.org/1999/xlink" stroke-dasharray="none" shape-rendering="auto" font-family="'Dialog'" width="1022" text-rendering="auto" fill-opacity="1" contentScriptType="text/ecmascript" color-interpolation="auto" color-rendering="auto" preserveAspectRatio="xMidYMid meet" font-size="12" fill="black" stroke="black" image-rendering="auto" stroke-miterlimit="10" zoomAndPan="magnify" version="1.0" stroke-linecap="square" stroke-linejoin="miter" contentStyleType="text/css" font-style="normal" height="580" stroke-width="1" stroke-dashoffset="0" font-weight="normal" stroke-opacity="1">
    <!--Generated by the Batik Graphics2D SVG Generator-->
    <defs id="genericDefs"/>
    <g>
        <defs id="defs1">
            <clipPath clipPathUnits="userSpaceOnUse" id="clipPath1">
                <path d="M28 38 L994 38 L994 558 L28 558 L28 38 Z"/>
            </clipPath>
            <clipPath clipPathUnits="userSpaceOnUse" id="clipPath2">
                <path d="M-1 -1 L1023 -1 L1023 581 L-1 581 L-1 -1 Z"/>
            </clipPath>
            <clipPath clipPathUnits="userSpaceOnUse" id="clipPath3">
                <path d="M847 43 L990 43 L990 69 L847 69 L847 43 Z"/>
            </clipPath>
        </defs>
        <g font-size="14" fill="white" text-rendering="optimizeLegibility" font-family="'Ubuntu'" stroke-linejoin="round" stroke="white" stroke-width="0" stroke-miterlimit="0">
            <rect x="29" y="39" clip-path="url(#clipPath1)" width="964" height="518" stroke="none"/>
        </g>
        <g stroke-linecap="butt" font-size="14" fill="rgb(204,204,204)" text-rendering="optimizeLegibility" font-family="'Ubuntu'" stroke-dasharray="3,3" stroke="rgb(204,204,204)">
            <line clip-path="url(#clipPath1)" fill="none" x1="29" x2="29" y1="39" y2="557"/>
            <line clip-path="url(#clipPath1)" fill="none" x1="124" x2="124" y1="39" y2="557"/>
            <line clip-path="url(#clipPath1)" fill="none" x1="219" x2="219" y1="39" y2="557"/>
            <line clip-path="url(#clipPath1)" fill="none" x1="314" x2="314" y1="39" y2="557"/>
            <line clip-path="url(#clipPath1)" fill="none" x1="409" x2="409" y1="39" y2="557"/>
            <line clip-path="url(#clipPath1)" fill="none" x1="505" x2="505" y1="39" y2="557"/>
            <line clip-path="url(#clipPath1)" fill="none" x1="600" x2="600" y1="39" y2="557"/>
            <line clip-path="url(#clipPath1)" fill="none" x1="695" x2="695" y1="39" y2="557"/>
            <line clip-path="url(#clipPath1)" fill="none" x1="790" x2="790" y1="39" y2="557"/>
            <line clip-path="url(#clipPath1)" fill="none" x1="886" x2="886" y1="39" y2="557"/>
            <line clip-path="url(#clipPath1)" fill="none" x1="981" x2="981" y1="39" y2="557"/>
            <line clip-path="url(#clipPath1)" fill="none" x1="29" x2="993" y1="557" y2="557"/>
            <line clip-path="url(#clipPath1)" fill="none" x1="29" x2="993" y1="474" y2="474"/>
            <line clip-path="url(#clipPath1)" fill="none" x1="29" x2="993" y1="391" y2="391"/>
            <line clip-path="url(#clipPath1)" fill="none" x1="29" x2="993" y1="308" y2="308"/>
            <line clip-path="url(#clipPath1)" fill="none" x1="29" x2="993" y1="225" y2="225"/>
            <line clip-path="url(#clipPath1)" fill="none" x1="29" x2="993" y1="142" y2="142"/>
            <line clip-path="url(#clipPath1)" fill="none" x1="29" x2="993" y1="59" y2="59"/>
        </g>
        <g stroke-linecap="butt" font-size="14" fill="rgb(31,119,180)" text-rendering="optimizeLegibility" font-family="'Ubuntu'" stroke="rgb(31,119,180)" stroke-width="1.5">
            <line clip-path="url(#clipPath1)" fill="none" x1="32" x2="35" y1="142" y2="142"/>
            <line clip-path="url(#clipPath1)" fill="none" x1="35" x2="38" y1="142" y2="142"/>
            <line clip-path="url(#clipPath1)" fill="none" x1="38" x2="44" y1="142" y2="142"/>
            <line clip-path="url(#clipPath1)" fill="none" x1="44" x2="46" y1="142" y2="142"/>
            <line clip-path="url(#clipPath1)" fill="none" x1="46" x2="52" y1="142" y2="142"/>
            <line clip-path="url(#clipPath1)" fill="none" x1="52" x2="54" y1="142" y2="142"/>
            <line clip-path="url(#clipPath1)" fill="none" x1="54" x2="60" y1="142" y2="142"/>
            <line clip-path="url(#clipPath1)" fill="none" x1="60" x2="61" y1="142" y2="142"/>
            <line clip-path="url(#clipPath1)" fill="none" x1="61" x2="64" y1="142" y2="142"/>
            <line clip-path="url(#clipPath1)" fill="none" x1="64" x2="67" y1="142" y2="142"/>
            <line clip-path="url(#clipPath1)" fill="none" x1="67" x2="68" y1="142" y2="142"/>
            <line clip-path="url(#clipPath1)" fill="none" x1="68" x2="70" y1="142" y2="142"/>
            <line clip-path="url(#clipPath1)" fill="none" x1="70" x2="71" y1="142" y2="142"/>
            <line clip-path="url(#clipPath1)" fill="none" x1="71" x2="77" y1="142" y2="142"/>
            <line clip-path="url(#clipPath1)" fill="none" x1="77" x2="78" y1="142" y2="142"/>
            <line clip-path="url(#clipPath1)" fill="none" x1="78" x2="87" y1="142" y2="142"/>
            <line clip-path="url(#clipPath1)" fill="none" x1="87" x2="88" y1="142" y2="142"/>
            <line clip-path="url(#clipPath1)" fill="none" x1="88" x2="89" y1="142" y2="142"/>
            <line clip-path="url(#clipPath1)" fill="none" x1="89" x2="91" y1="142" y2="142"/>
            <line clip-path="url(#clipPath1)" fill="none" x1="91" x2="95" y1="142" y2="142"/>
            <line clip-path="url(#clipPath1)" fill="none" x1="95" x2="100" y1="142" y2="142"/>
            <line clip-path="url(#clipPath1)" fill="none" x1="100" x2="102" y1="142" y2="142"/>
            <line clip-path="url(#clipPath1)" fill="none" x1="102" x2="104" y1="142" y2="142"/>
            <line clip-path="url(#clipPath1)" fill="none" x1="104" x2="107" y1="142" y2="142"/>
            <line clip-path="url(#clipPath1)" fill="none" x1="107" x2="108" y1="142" y2="142"/>
            <line clip-path="url(#clipPath1)" fill="none" x1="108" x2="116" y1="142" y2="142"/>
            <line clip-path="url(#clipPath1)" fill="none" x1="116" x2="121" y1="142" y2="142"/>
            <line clip-path="url(#clipPath1)" fill="none" x1="121" x2="122" y1="142" y2="142"/>
            <line clip-path="url(#clipPath1)" fill="none" x1="122" x2="123" y1="142" y2="142"/>
            <line clip-path="url(#clipPath1)" fill="none" x1="123" x2="124" y1="142" y2="142"/>
            <line clip-path="url(#clipPath1)" fill="none" x1="124" x2="125" y1="142" y2="142"/>
            <line clip-path="url(#clipPath1)" fill="none" x1="125" x2="126" y1="142" y2="142"/>
            <line clip-path="url(#clipPath1)" fill="none" x1="126" x2="127" y1="142" y2="142"/>
            <line clip-path="url(#clipPath1)" fill="none" x1="127" x2="132" y1="142" y2="142"/>
            <line clip-path="url(#clipPath1)" fill="none" x1="132" x2="141" y1="142" y2="142"/>
            <line clip-path="url(#clipPath1)" fill="none" x1="141" x2="145" y1="142" y2="142"/>
            <line clip-path="url(#clipPath1)" fill="none" x1="145" x2="146" y1="142" y2="142"/>
            <line clip-path="url(#clipPath1)" fill="none" x1="146" x2="151" y1="142" y2="142"/>
            <line clip-path="url(#clipPath1)" fill="none" x1="151" x2="157" y1="142" y2="142"/>
            <line clip-path="url(#clipPath1)" fill="none" x1="157" x2="168" y1="142" y2="142"/>
            <line clip-path="url(#clipPath1)" fill="none" x1="168" x2="170" y1="142" y2="142"/>
            <line clip-path="url(#clipPath1)" fill="none" x1="170" x2="175" y1="142" y2="142"/>
            <line clip-path="url(#clipPath1)" fill="none" x1="175" x2="179" y1="142" y2="142"/>
            <line clip-path="url(#clipPath1)" fill="none" x1="179" x2="181" y1="142" y2="142"/>
            <line clip-path="url(#clipPath1)" fill="none" x1="181" x2="183" y1="142" y2="142"/>
            <line clip-path="url(#clipPath1)" fill="none" x1="183" x2="187" y1="142" y2="142"/>
            <line clip-path="url(#clipPath1)" fill="none" x1="187" x2="191" y1="142" y2="142"/>
            <line clip-path="url(#clipPath1)" fill="none" x1="191" x2="192" y1="142" y2="142"/>
            <line clip-path="url(#clipPath1)" fill="none" x1="192" x2="195" y1="142" y2="142"/>
            <line clip-path="url(#clipPath1)" fill="none" x1="195" x2="198" y1="142" y2="142"/>
            <line clip-path="url(#clipPath1)" fill="none" x1="198" x2="200" y1="142" y2="142"/>
            <line clip-path="url(#clipPath1)" fill="none" x1="200" x2="201" y1="142" y2="142"/>
            <line clip-path="url(#clipPath1)" fill="none" x1="201" x2="203" y1="142" y2="142"/>
            <line clip-path="url(#clipPath1)" fill="none" x1="203" x2="211" y1="142" y2="142"/>
            <line clip-path="url(#clipPath1)" fill="none" x1="211" x2="215" y1="142" y2="142"/>
            <line clip-path="url(#clipPath1)" fill="none" x1="215" x2="217" y1="142" y2="142"/>
            <line clip-path="url(#clipPath1)" fill="none" x1="217" x2="218" y1="142" y2="142"/>
            <line clip-path="url(#clipPath1)" fill="none" x1="218" x2="219" y1="142" y2="142"/>
            <line clip-path="url(#clipPath1)" fill="none" x1="219" x2="221" y1="142" y2="142"/>
            <line clip-path="url(#clipPath1)" fill="none" x1="221" x2="222" y1="142" y2="142"/>
            <line clip-path="url(#clipPath1)" fill="none" x1="222" x2="223" y1="142" y2="142"/>
            <line clip-path="url(#clipPath1)" fill="none" x1="223" x2="227" y1="142" y2="142"/>
            <line clip-path="url(#clipPath1)" fill="none" x1="227" x2="230" y1="142" y2="142"/>
            <line clip-path="url(#clipPath1)" fill="none" x1="230" x2="232" y1="142" y2="142"/>
            <line clip-path="url(#clipPath1)" fill="none" x1="232" x2="233" y1="142" y2="142"/>
            <line clip-path="url(#clipPath1)" fill="none" x1="233" x2="235" y1="142" y2="142"/>
            <line clip-path="url(#clipPath1)" fill="none" x1="235" x2="236" y1="142" y2="142"/>
            <line clip-path="url(#clipPath1)" fill="none" x1="236" x2="237" y1="142" y2="142"/>
            <line clip-path="url(#clipPath1)" fill="none" x1="237" x2="238" y1="142" y2="142"/>
            <line clip-path="url(#clipPath1)" fill="none" x1="238" x2="240" y1="142" y2="142"/>
            <line clip-path="url(#clipPath1)" fill="none" x1="240" x2="241" y1="142" y2="142"/>
            <line clip-path="url(#clipPath1)" fill="none" x1="241" x2="243" y1="142" y2="142"/>
            <line clip-path="url(#clipPath1)" fill="none" x1="243" x2="244" y1="142" y2="142"/>
            <line clip-path="url(#clipPath1)" fill="none" x1="244" x2="246" y1="142" y2="142"/>
            <line clip-path="url(#clipPath1)" fill="none" x1="246" x2="248" y1="142" y2="142"/>
            <line clip-path="url(#clipPath1)" fill="none" x1="248" x2="256" y1="142" y2="142"/>
            <line clip-path="url(#clipPath1)" fill="none" x1="256" x2="262" y1="142" y2="142"/>
            <line clip-path="url(#clipPath1)" fill="none" x1="262" x2="266" y1="142" y2="142"/>
            <line clip-path="url(#clipPath1)" fill="none" x1="266" x2="267" y1="142" y2="142"/>
            <line clip-path="url(#clipPath1)" fill="none" x1="267" x2="269" y1="142" y2="142"/>
            <line clip-path="url(#clipPath1)" fill="none" x1="269" x2="271" y1="142" y2="142"/>
            <line clip-path="url(#clipPath1)" fill="none" x1="271" x2="273" y1="142" y2="142"/>
            <line clip-path="url(#clipPath1)" fill="none" x1="273" x2="280" y1="142" y2="142"/>
            <line clip-path="url(#clipPath1)" fill="none" x1="280" x2="283" y1="142" y2="142"/>
            <line clip-path="url(#clipPath1)" fill="none" x1="283" x2="284" y1="142" y2="142"/>
            <line clip-path="url(#clipPath1)" fill="none" x1="284" x2="285" y1="142" y2="142"/>
            <line clip-path="url(#clipPath1)" fill="none" x1="285" x2="294" y1="142" y2="142"/>
            <line clip-path="url(#clipPath1)" fill="none" x1="294" x2="297" y1="142" y2="142"/>
            <line clip-path="url(#clipPath1)" fill="none" x1="297" x2="300" y1="142" y2="142"/>
            <line clip-path="url(#clipPath1)" fill="none" x1="300" x2="303" y1="142" y2="142"/>
            <line clip-path="url(#clipPath1)" fill="none" x1="303" x2="304" y1="142" y2="142"/>
            <line clip-path="url(#clipPath1)" fill="none" x1="304" x2="305" y1="142" y2="142"/>
            <line clip-path="url(#clipPath1)" fill="none" x1="305" x2="306" y1="142" y2="142"/>
            <line clip-path="url(#clipPath1)" fill="none" x1="306" x2="307" y1="142" y2="142"/>
            <line clip-path="url(#clipPath1)" fill="none" x1="307" x2="310" y1="142" y2="142"/>
            <line clip-path="url(#clipPath1)" fill="none" x1="310" x2="311" y1="142" y2="142"/>
            <line clip-path="url(#clipPath1)" fill="none" x1="311" x2="314" y1="142" y2="142"/>
            <line clip-path="url(#clipPath1)" fill="none" x1="314" x2="315" y1="142" y2="142"/>
            <line clip-path="url(#clipPath1)" fill="none" x1="315" x2="316" y1="142" y2="142"/>
            <line clip-path="url(#clipPath1)" fill="none" x1="316" x2="318" y1="142" y2="142"/>
            <line clip-path="url(#clipPath1)" fill="none" x1="318" x2="319" y1="142" y2="142"/>
            <line clip-path="url(#clipPath1)" fill="none" x1="319" x2="320" y1="142" y2="142"/>
            <line clip-path="url(#clipPath1)" fill="none" x1="320" x2="323" y1="142" y2="142"/>
            <line clip-path="url(#clipPath1)" fill="none" x1="323" x2="336" y1="142" y2="142"/>
            <line clip-path="url(#clipPath1)" fill="none" x1="336" x2="345" y1="142" y2="142"/>
            <line clip-path="url(#clipPath1)" fill="none" x1="345" x2="346" y1="142" y2="142"/>
            <line clip-path="url(#clipPath1)" fill="none" x1="346" x2="348" y1="142" y2="142"/>
            <line clip-path="url(#clipPath1)" fill="none" x1="348" x2="349" y1="142" y2="142"/>
            <line clip-path="url(#clipPath1)" fill="none" x1="349" x2="352" y1="142" y2="142"/>
            <line clip-path="url(#clipPath1)" fill="none" x1="352" x2="353" y1="142" y2="142"/>
            <line clip-path="url(#clipPath1)" fill="none" x1="353" x2="368" y1="142" y2="142"/>
            <line clip-path="url(#clipPath1)" fill="none" x1="368" x2="371" y1="142" y2="142"/>
            <line clip-path="url(#clipPath1)" fill="none" x1="371" x2="373" y1="142" y2="142"/>
            <line clip-path="url(#clipPath1)" fill="none" x1="373" x2="374" y1="142" y2="142"/>
            <line clip-path="url(#clipPath1)" fill="none" x1="374" x2="375" y1="142" y2="142"/>
            <line clip-path="url(#clipPath1)" fill="none" x1="375" x2="377" y1="142" y2="142"/>
            <line clip-path="url(#clipPath1)" fill="none" x1="377" x2="379" y1="142" y2="142"/>
            <line clip-path="url(#clipPath1)" fill="none" x1="379" x2="380" y1="142" y2="142"/>
            <line clip-path="url(#clipPath1)" fill="none" x1="380" x2="383" y1="142" y2="142"/>
            <line clip-path="url(#clipPath1)" fill="none" x1="383" x2="384" y1="142" y2="142"/>
            <line clip-path="url(#clipPath1)" fill="none" x1="384" x2="385" y1="142" y2="142"/>
            <line clip-path="url(#clipPath1)" fill="none" x1="385" x2="386" y1="142" y2="142"/>
            <line clip-path="url(#clipPath1)" fill="none" x1="386" x2="388" y1="142" y2="142"/>
            <line clip-path="url(#clipPath1)" fill="none" x1="388" x2="391" y1="142" y2="142"/>
            <line clip-path="url(#clipPath1)" fill="none" x1="391" x2="392" y1="142" y2="142"/>
            <line clip-path="url(#clipPath1)" fill="none" x1="392" x2="393" y1="142" y2="142"/>
            <line clip-path="url(#clipPath1)" fill="none" x1="393" x2="397" y1="142" y2="142"/>
            <line clip-path="url(#clipPath1)" fill="none" x1="397" x2="398" y1="142" y2="142"/>
            <line clip-path="url(#clipPath1)" fill="none" x1="398" x2="406" y1="142" y2="142"/>
            <line clip-path="url(#clipPath1)" fill="none" x1="406" x2="407" y1="142" y2="142"/>
            <line clip-path="url(#clipPath1)" fill="none" x1="407" x2="410" y1="142" y2="142"/>
            <line clip-path="url(#clipPath1)" fill="none" x1="410" x2="415" y1="142" y2="142"/>
            <line clip-path="url(#clipPath1)" fill="none" x1="415" x2="416" y1="142" y2="142"/>
            <line clip-path="url(#clipPath1)" fill="none" x1="416" x2="417" y1="142" y2="142"/>
            <line clip-path="url(#clipPath1)" fill="none" x1="417" x2="418" y1="142" y2="142"/>
            <line clip-path="url(#clipPath1)" fill="none" x1="418" x2="424" y1="142" y2="142"/>
            <line clip-path="url(#clipPath1)" fill="none" x1="424" x2="427" y1="142" y2="142"/>
            <line clip-path="url(#clipPath1)" fill="none" x1="427" x2="428" y1="142" y2="142"/>
            <line clip-path="url(#clipPath1)" fill="none" x1="428" x2="437" y1="142" y2="142"/>
            <line clip-path="url(#clipPath1)" fill="none" x1="437" x2="448" y1="142" y2="142"/>
            <line clip-path="url(#clipPath1)" fill="none" x1="448" x2="454" y1="142" y2="142"/>
            <line clip-path="url(#clipPath1)" fill="none" x1="454" x2="456" y1="142" y2="142"/>
            <line clip-path="url(#clipPath1)" fill="none" x1="456" x2="458" y1="142" y2="142"/>
            <line clip-path="url(#clipPath1)" fill="none" x1="458" x2="469" y1="142" y2="142"/>
            <line clip-path="url(#clipPath1)" fill="none" x1="469" x2="470" y1="142" y2="142"/>
            <line clip-path="url(#clipPath1)" fill="none" x1="470" x2="471" y1="142" y2="142"/>
            <line clip-path="url(#clipPath1)" fill="none" x1="471" x2="473" y1="142" y2="142"/>
            <line clip-path="url(#clipPath1)" fill="none" x1="473" x2="477" y1="142" y2="142"/>
            <line clip-path="url(#clipPath1)" fill="none" x1="477" x2="478" y1="142" y2="142"/>
            <line clip-path="url(#clipPath1)" fill="none" x1="478" x2="479" y1="142" y2="142"/>
            <line clip-path="url(#clipPath1)" fill="none" x1="479" x2="480" y1="142" y2="142"/>
            <line clip-path="url(#clipPath1)" fill="none" x1="480" x2="481" y1="142" y2="142"/>
            <line clip-path="url(#clipPath1)" fill="none" x1="481" x2="491" y1="142" y2="142"/>
            <line clip-path="url(#clipPath1)" fill="none" x1="491" x2="492" y1="142" y2="142"/>
            <line clip-path="url(#clipPath1)" fill="none" x1="492" x2="493" y1="142" y2="142"/>
            <line clip-path="url(#clipPath1)" fill="none" x1="493" x2="494" y1="142" y2="142"/>
            <line clip-path="url(#clipPath1)" fill="none" x1="494" x2="495" y1="142" y2="142"/>
            <line clip-path="url(#clipPath1)" fill="none" x1="495" x2="496" y1="142" y2="142"/>
            <line clip-path="url(#clipPath1)" fill="none" x1="496" x2="499" y1="142" y2="142"/>
            <line clip-path="url(#clipPath1)" fill="none" x1="499" x2="500" y1="142" y2="142"/>
            <line clip-path="url(#clipPath1)" fill="none" x1="500" x2="506" y1="142" y2="142"/>
            <line clip-path="url(#clipPath1)" fill="none" x1="506" x2="508" y1="142" y2="142"/>
            <line clip-path="url(#clipPath1)" fill="none" x1="508" x2="515" y1="142" y2="142"/>
            <line clip-path="url(#clipPath1)" fill="none" x1="515" x2="516" y1="142" y2="142"/>
            <line clip-path="url(#clipPath1)" fill="none" x1="516" x2="517" y1="142" y2="142"/>
            <line clip-path="url(#clipPath1)" fill="none" x1="517" x2="519" y1="142" y2="142"/>
            <line clip-path="url(#clipPath1)" fill="none" x1="519" x2="522" y1="142" y2="142"/>
            <line clip-path="url(#clipPath1)" fill="none" x1="522" x2="524" y1="142" y2="142"/>
            <line clip-path="url(#clipPath1)" fill="none" x1="524" x2="530" y1="142" y2="142"/>
            <line clip-path="url(#clipPath1)" fill="none" x1="530" x2="531" y1="142" y2="142"/>
            <line clip-path="url(#clipPath1)" fill="none" x1="531" x2="533" y1="142" y2="142"/>
            <line clip-path="url(#clipPath1)" fill="none" x1="533" x2="535" y1="142" y2="142"/>
            <line clip-path="url(#clipPath1)" fill="none" x1="535" x2="542" y1="142" y2="142"/>
            <line clip-path="url(#clipPath1)" fill="none" x1="542" x2="543" y1="142" y2="142"/>
            <line clip-path="url(#clipPath1)" fill="none" x1="543" x2="549" y1="142" y2="142"/>
            <line clip-path="url(#clipPath1)" fill="none" x1="549" x2="552" y1="142" y2="142"/>
            <line clip-path="url(#clipPath1)" fill="none" x1="552" x2="553" y1="142" y2="142"/>
            <line clip-path="url(#clipPath1)" fill="none" x1="553" x2="560" y1="142" y2="142"/>
            <line clip-path="url(#clipPath1)" fill="none" x1="560" x2="561" y1="142" y2="142"/>
            <line clip-path="url(#clipPath1)" fill="none" x1="561" x2="562" y1="142" y2="142"/>
            <line clip-path="url(#clipPath1)" fill="none" x1="562" x2="563" y1="142" y2="142"/>
            <line clip-path="url(#clipPath1)" fill="none" x1="563" x2="565" y1="142" y2="142"/>
            <line clip-path="url(#clipPath1)" fill="none" x1="565" x2="570" y1="142" y2="142"/>
            <line clip-path="url(#clipPath1)" fill="none" x1="570" x2="571" y1="142" y2="142"/>
            <line clip-path="url(#clipPath1)" fill="none" x1="571" x2="573" y1="142" y2="142"/>
            <line clip-path="url(#clipPath1)" fill="none" x1="573" x2="577" y1="142" y2="142"/>
            <line clip-path="url(#clipPath1)" fill="none" x1="577" x2="582" y1="142" y2="142"/>
            <line clip-path="url(#clipPath1)" fill="none" x1="582" x2="583" y1="142" y2="142"/>
            <line clip-path="url(#clipPath1)" fill="none" x1="583" x2="584" y1="142" y2="142"/>
            <line clip-path="url(#clipPath1)" fill="none" x1="584" x2="585" y1="142" y2="142"/>
            <line clip-path="url(#clipPath1)" fill="none" x1="585" x2="586" y1="142" y2="142"/>
            <line clip-path="url(#clipPath1)" fill="none" x1="586" x2="589" y1="142" y2="142"/>
            <line clip-path="url(#clipPath1)" fill="none" x1="589" x2="591" y1="142" y2="142"/>
            <line clip-path="url(#clipPath1)" fill="none" x1="591" x2="592" y1="142" y2="142"/>
            <line clip-path="url(#clipPath1)" fill="none" x1="592" x2="593" y1="142" y2="142"/>
            <line clip-path="url(#clipPath1)" fill="none" x1="593" x2="597" y1="142" y2="142"/>
            <line clip-path="url(#clipPath1)" fill="none" x1="597" x2="598" y1="142" y2="142"/>
            <line clip-path="url(#clipPath1)" fill="none" x1="598" x2="599" y1="142" y2="142"/>
            <line clip-path="url(#clipPath1)" fill="none" x1="599" x2="600" y1="142" y2="142"/>
            <line clip-path="url(#clipPath1)" fill="none" x1="600" x2="602" y1="142" y2="142"/>
            <line clip-path="url(#clipPath1)" fill="none" x1="602" x2="604" y1="142" y2="142"/>
            <line clip-path="url(#clipPath1)" fill="none" x1="604" x2="605" y1="142" y2="142"/>
            <line clip-path="url(#clipPath1)" fill="none" x1="605" x2="608" y1="142" y2="142"/>
            <line clip-path="url(#clipPath1)" fill="none" x1="608" x2="612" y1="142" y2="142"/>
            <line clip-path="url(#clipPath1)" fill="none" x1="612" x2="613" y1="142" y2="142"/>
            <line clip-path="url(#clipPath1)" fill="none" x1="613" x2="623" y1="142" y2="142"/>
            <line clip-path="url(#clipPath1)" fill="none" x1="623" x2="624" y1="142" y2="142"/>
            <line clip-path="url(#clipPath1)" fill="none" x1="624" x2="625" y1="142" y2="142"/>
            <line clip-path="url(#clipPath1)" fill="none" x1="625" x2="629" y1="142" y2="142"/>
            <line clip-path="url(#clipPath1)" fill="none" x1="629" x2="631" y1="142" y2="142"/>
            <line clip-path="url(#clipPath1)" fill="none" x1="631" x2="633" y1="142" y2="142"/>
            <line clip-path="url(#clipPath1)" fill="none" x1="633" x2="635" y1="142" y2="142"/>
            <line clip-path="url(#clipPath1)" fill="none" x1="635" x2="642" y1="142" y2="142"/>
            <line clip-path="url(#clipPath1)" fill="none" x1="642" x2="644" y1="142" y2="142"/>
            <line clip-path="url(#clipPath1)" fill="none" x1="644" x2="647" y1="142" y2="142"/>
            <line clip-path="url(#clipPath1)" fill="none" x1="647" x2="648" y1="142" y2="142"/>
            <line clip-path="url(#clipPath1)" fill="none" x1="648" x2="654" y1="142" y2="142"/>
            <line clip-path="url(#clipPath1)" fill="none" x1="654" x2="663" y1="142" y2="142"/>
            <line clip-path="url(#clipPath1)" fill="none" x1="663" x2="666" y1="142" y2="142"/>
            <line clip-path="url(#clipPath1)" fill="none" x1="666" x2="668" y1="142" y2="142"/>
            <line clip-path="url(#clipPath1)" fill="none" x1="668" x2="670" y1="142" y2="142"/>
            <line clip-path="url(#clipPath1)" fill="none" x1="670" x2="675" y1="142" y2="142"/>
            <line clip-path="url(#clipPath1)" fill="none" x1="675" x2="686" y1="142" y2="142"/>
            <line clip-path="url(#clipPath1)" fill="none" x1="686" x2="689" y1="142" y2="142"/>
            <line clip-path="url(#clipPath1)" fill="none" x1="689" x2="690" y1="142" y2="142"/>
            <line clip-path="url(#clipPath1)" fill="none" x1="690" x2="691" y1="142" y2="142"/>
            <line clip-path="url(#clipPath1)" fill="none" x1="691" x2="695" y1="142" y2="142"/>
            <line clip-path="url(#clipPath1)" fill="none" x1="695" x2="700" y1="142" y2="142"/>
            <line clip-path="url(#clipPath1)" fill="none" x1="700" x2="701" y1="142" y2="142"/>
            <line clip-path="url(#clipPath1)" fill="none" x1="701" x2="703" y1="142" y2="142"/>
            <line clip-path="url(#clipPath1)" fill="none" x1="703" x2="706" y1="142" y2="142"/>
            <line clip-path="url(#clipPath1)" fill="none" x1="706" x2="712" y1="142" y2="142"/>
            <line clip-path="url(#clipPath1)" fill="none" x1="712" x2="713" y1="142" y2="142"/>
            <line clip-path="url(#clipPath1)" fill="none" x1="713" x2="715" y1="142" y2="142"/>
            <line clip-path="url(#clipPath1)" fill="none" x1="715" x2="716" y1="142" y2="142"/>
            <line clip-path="url(#clipPath1)" fill="none" x1="716" x2="723" y1="142" y2="142"/>
            <line clip-path="url(#clipPath1)" fill="none" x1="723" x2="732" y1="142" y2="142"/>
            <line clip-path="url(#clipPath1)" fill="none" x1="732" x2="736" y1="142" y2="142"/>
            <line clip-path="url(#clipPath1)" fill="none" x1="736" x2="738" y1="142" y2="142"/>
            <line clip-path="url(#clipPath1)" fill="none" x1="738" x2="742" y1="142" y2="142"/>
            <line clip-path="url(#clipPath1)" fill="none" x1="742" x2="745" y1="142" y2="142"/>
            <line clip-path="url(#clipPath1)" fill="none" x1="745" x2="747" y1="142" y2="142"/>
            <line clip-path="url(#clipPath1)" fill="none" x1="747" x2="749" y1="142" y2="142"/>
            <line clip-path="url(#clipPath1)" fill="none" x1="749" x2="758" y1="142" y2="142"/>
            <line clip-path="url(#clipPath1)" fill="none" x1="758" x2="759" y1="142" y2="142"/>
            <line clip-path="url(#clipPath1)" fill="none" x1="759" x2="762" y1="142" y2="142"/>
            <line clip-path="url(#clipPath1)" fill="none" x1="762" x2="763" y1="142" y2="142"/>
            <line clip-path="url(#clipPath1)" fill="none" x1="763" x2="765" y1="142" y2="142"/>
            <line clip-path="url(#clipPath1)" fill="none" x1="765" x2="767" y1="142" y2="142"/>
            <line clip-path="url(#clipPath1)" fill="none" x1="767" x2="770" y1="142" y2="142"/>
            <line clip-path="url(#clipPath1)" fill="none" x1="770" x2="772" y1="142" y2="142"/>
            <line clip-path="url(#clipPath1)" fill="none" x1="772" x2="773" y1="142" y2="142"/>
            <line clip-path="url(#clipPath1)" fill="none" x1="773" x2="774" y1="142" y2="142"/>
            <line clip-path="url(#clipPath1)" fill="none" x1="774" x2="775" y1="142" y2="142"/>
            <line clip-path="url(#clipPath1)" fill="none" x1="775" x2="778" y1="142" y2="142"/>
            <line clip-path="url(#clipPath1)" fill="none" x1="778" x2="781" y1="142" y2="142"/>
            <line clip-path="url(#clipPath1)" fill="none" x1="781" x2="782" y1="142" y2="142"/>
            <line clip-path="url(#clipPath1)" fill="none" x1="782" x2="783" y1="142" y2="142"/>
            <line clip-path="url(#clipPath1)" fill="none" x1="783" x2="785" y1="142" y2="142"/>
            <line clip-path="url(#clipPath1)" fill="none" x1="785" x2="788" y1="142" y2="142"/>
            <line clip-path="url(#clipPath1)" fill="none" x1="788" x2="792" y1="142" y2="142"/>
            <line clip-path="url(#clipPath1)" fill="none" x1="792" x2="793" y1="142" y2="142"/>
            <line clip-path="url(#clipPath1)" fill="none" x1="793" x2="799" y1="142" y2="142"/>
            <line clip-path="url(#clipPath1)" fill="none" x1="799" x2="800" y1="142" y2="142"/>
            <line clip-path="url(#clipPath1)" fill="none" x1="800" x2="801" y1="142" y2="142"/>
            <line clip-path="url(#clipPath1)" fill="none" x1="801" x2="802" y1="142" y2="142"/>
            <line clip-path="url(#clipPath1)" fill="none" x1="802" x2="803" y1="142" y2="142"/>
            <line clip-path="url(#clipPath1)" fill="none" x1="803" x2="804" y1="142" y2="142"/>
            <line clip-path="url(#clipPath1)" fill="none" x1="804" x2="805" y1="142" y2="142"/>
            <line clip-path="url(#clipPath1)" fill="none" x1="805" x2="807" y1="142" y2="142"/>
            <line clip-path="url(#clipPath1)" fill="none" x1="807" x2="810" y1="142" y2="142"/>
            <line clip-path="url(#clipPath1)" fill="none" x1="810" x2="812" y1="142" y2="142"/>
            <line clip-path="url(#clipPath1)" fill="none" x1="812" x2="813" y1="142" y2="142"/>
            <line clip-path="url(#clipPath1)" fill="none" x1="813" x2="815" y1="142" y2="142"/>
            <line clip-path="url(#clipPath1)" fill="none" x1="815" x2="825" y1="142" y2="142"/>
            <line clip-path="url(#clipPath1)" fill="none" x1="825" x2="828" y1="142" y2="142"/>
            <line clip-path="url(#clipPath1)" fill="none" x1="828" x2="829" y1="142" y2="142"/>
            <line clip-path="url(#clipPath1)" fill="none" x1="829" x2="831" y1="142" y2="142"/>
            <line clip-path="url(#clipPath1)" fill="none" x1="831" x2="832" y1="142" y2="142"/>
            <line clip-path="url(#clipPath1)" fill="none" x1="832" x2="838" y1="142" y2="142"/>
            <line clip-path="url(#clipPath1)" fill="none" x1="838" x2="839" y1="142" y2="142"/>
            <line clip-path="url(#clipPath1)" fill="none" x1="839" x2="840" y1="142" y2="142"/>
            <line clip-path="url(#clipPath1)" fill="none" x1="840" x2="841" y1="142" y2="142"/>
            <line clip-path="url(#clipPath1)" fill="none" x1="841" x2="842" y1="142" y2="142"/>
            <line clip-path="url(#clipPath1)" fill="none" x1="842" x2="854" y1="142" y2="142"/>
            <line clip-path="url(#clipPath1)" fill="none" x1="854" x2="860" y1="142" y2="142"/>
            <line clip-path="url(#clipPath1)" fill="none" x1="860" x2="861" y1="142" y2="142"/>
            <line clip-path="url(#clipPath1)" fill="none" x1="861" x2="865" y1="142" y2="142"/>
            <line clip-path="url(#clipPath1)" fill="none" x1="865" x2="868" y1="142" y2="142"/>
            <line clip-path="url(#clipPath1)" fill="none" x1="868" x2="871" y1="142" y2="142"/>
            <line clip-path="url(#clipPath1)" fill="none" x1="871" x2="873" y1="142" y2="142"/>
            <line clip-path="url(#clipPath1)" fill="none" x1="873" x2="874" y1="142" y2="142"/>
            <line clip-path="url(#clipPath1)" fill="none" x1="874" x2="875" y1="142" y2="142"/>
            <line clip-path="url(#clipPath1)" fill="none" x1="875" x2="881" y1="142" y2="142"/>
            <line clip-path="url(#clipPath1)" fill="none" x1="881" x2="882" y1="142" y2="142"/>
            <line clip-path="url(#clipPath1)" fill="none" x1="882" x2="885" y1="142" y2="142"/>
            <line clip-path="url(#clipPath1)" fill="none" x1="885" x2="887" y1="142" y2="142"/>
            <line clip-path="url(#clipPath1)" fill="none" x1="887" x2="907" y1="142" y2="142"/>
            <line clip-path="url(#clipPath1)" fill="none" x1="907" x2="912" y1="142" y2="142"/>
            <line clip-path="url(#clipPath1)" fill="none" x1="912" x2="913" y1="142" y2="142"/>
            <line clip-path="url(#clipPath1)" fill="none" x1="913" x2="919" y1="142" y2="142"/>
            <line clip-path="url(#clipPath1)" fill="none" x1="919" x2="925" y1="142" y2="142"/>
            <line clip-path="url(#clipPath1)" fill="none" x1="925" x2="926" y1="142" y2="142"/>
            <line clip-path="url(#clipPath1)" fill="none" x1="926" x2="927" y1="142" y2="142"/>
            <line clip-path="url(#clipPath1)" fill="none" x1="927" x2="928" y1="142" y2="142"/>
            <line clip-path="url(#clipPath1)" fill="none" x1="928" x2="930" y1="142" y2="142"/>
            <line clip-path="url(#clipPath1)" fill="none" x1="930" x2="931" y1="142" y2="142"/>
            <line clip-path="url(#clipPath1)" fill="none" x1="931" x2="932" y1="142" y2="142"/>
            <line clip-path="url(#clipPath1)" fill="none" x1="932" x2="935" y1="142" y2="142"/>
            <line clip-path="url(#clipPath1)" fill="none" x1="935" x2="941" y1="142" y2="142"/>
            <line clip-path="url(#clipPath1)" fill="none" x1="941" x2="947" y1="142" y2="142"/>
            <line clip-path="url(#clipPath1)" fill="none" x1="947" x2="951" y1="142" y2="142"/>
            <line clip-path="url(#clipPath1)" fill="none" x1="951" x2="953" y1="142" y2="142"/>
            <line clip-path="url(#clipPath1)" fill="none" x1="953" x2="955" y1="142" y2="142"/>
            <line clip-path="url(#clipPath1)" fill="none" x1="955" x2="956" y1="142" y2="142"/>
            <line clip-path="url(#clipPath1)" fill="none" x1="956" x2="957" y1="142" y2="142"/>
            <line clip-path="url(#clipPath1)" fill="none" x1="957" x2="958" y1="142" y2="142"/>
            <line clip-path="url(#clipPath1)" fill="none" x1="958" x2="959" y1="142" y2="142"/>
            <line clip-path="url(#clipPath1)" fill="none" x1="959" x2="969" y1="142" y2="142"/>
            <line clip-path="url(#clipPath1)" fill="none" x1="969" x2="972" y1="142" y2="142"/>
            <line clip-path="url(#clipPath1)" fill="none" x1="972" x2="974" y1="142" y2="142"/>
            <line clip-path="url(#clipPath1)" fill="none" x1="974" x2="975" y1="142" y2="142"/>
            <line clip-path="url(#clipPath1)" fill="none" x1="975" x2="977" y1="142" y2="142"/>
            <line clip-path="url(#clipPath1)" fill="none" x1="977" x2="981" y1="142" y2="142"/>
            <rect x="29" y="39" clip-path="url(#clipPath2)" fill="none" width="964" height="518" stroke="black" stroke-width="1"/>
        </g>
        <g text-rendering="optimizeLegibility" font-size="13" font-family="'Arial'" stroke-linecap="butt">
            <text xml:space="preserve" x="443" y="12" clip-path="url(#clipPath2)" stroke="none">Network.nodeRx.queue</text>
            <rect x="848" y="44" clip-path="url(#clipPath3)" fill="white" width="140" opacity="0.7529" height="23" stroke="none"/>
            <line clip-path="url(#clipPath3)" fill="none" x1="854" x2="868" y1="55" y2="55" stroke="rgb(31,119,180)" stroke-width="2"/>
            <text x="870" font-size="10" y="59" clip-path="url(#clipPath3)" stroke="none" stroke-width="2" xml:space="preserve">Network.nodeRx.queue</text>
            <line clip-path="url(#clipPath2)" fill="none" x1="29" x2="993" y1="37" y2="37"/>
            <line clip-path="url(#clipPath2)" fill="none" x1="29" x2="993" y1="559" y2="559"/>
            <line clip-path="url(#clipPath2)" fill="none" x1="29" x2="29" y1="33" y2="37"/>
            <line clip-path="url(#clipPath2)" fill="none" x1="29" x2="29" y1="563" y2="559"/>
            <text x="27" font-size="10" y="30" clip-path="url(#clipPath2)" stroke="none" xml:space="preserve">0</text>
            <text x="27" font-size="10" y="574" clip-path="url(#clipPath2)" stroke="none" xml:space="preserve">0</text>
            <line clip-path="url(#clipPath2)" fill="none" x1="76" x2="76" y1="35" y2="37"/>
            <line clip-path="url(#clipPath2)" fill="none" x1="76" x2="76" y1="561" y2="559"/>
            <line clip-path="url(#clipPath2)" fill="none" x1="124" x2="124" y1="33" y2="37"/>
            <line clip-path="url(#clipPath2)" fill="none" x1="124" x2="124" y1="563" y2="559"/>
            <text x="119" font-size="10" y="30" clip-path="url(#clipPath2)" stroke="none" xml:space="preserve">20</text>
            <text x="119" font-size="10" y="574" clip-path="url(#clipPath2)" stroke="none" xml:space="preserve">20</text>
            <line clip-path="url(#clipPath2)" fill="none" x1="171" x2="171" y1="35" y2="37"/>
            <line clip-path="url(#clipPath2)" fill="none" x1="171" x2="171" y1="561" y2="559"/>
            <line clip-path="url(#clipPath2)" fill="none" x1="219" x2="219" y1="33" y2="37"/>
            <line clip-path="url(#clipPath2)" fill="none" x1="219" x2="219" y1="563" y2="559"/>
            <text x="214" font-size="10" y="30" clip-path="url(#clipPath2)" stroke="none" xml:space="preserve">40</text>
            <text x="214" font-size="10" y="574" clip-path="url(#clipPath2)" stroke="none" xml:space="preserve">40</text>
            <line clip-path="url(#clipPath2)" fill="none" x1="267" x2="267" y1="35" y2="37"/>
            <line clip-path="url(#clipPath2)" fill="none" x1="267" x2="267" y1="561" y2="559"/>
            <line clip-path="url(#clipPath2)" fill="none" x1="314" x2="314" y1="33" y2="37"/>
            <line clip-path="url(#clipPath2)" fill="none" x1="314" x2="314" y1="563" y2="559"/>
            <text x="309" font-size="10" y="30" clip-path="url(#clipPath2)" stroke="none" xml:space="preserve">60</text>
            <text x="309" font-size="10" y="574" clip-path="url(#clipPath2)" stroke="none" xml:space="preserve">60</text>
            <line clip-path="url(#clipPath2)" fill="none" x1="362" x2="362" y1="35" y2="37"/>
            <line clip-path="url(#clipPath2)" fill="none" x1="362" x2="362" y1="561" y2="559"/>
            <line clip-path="url(#clipPath2)" fill="none" x1="409" x2="409" y1="33" y2="37"/>
            <line clip-path="url(#clipPath2)" fill="none" x1="409" x2="409" y1="563" y2="559"/>
            <text x="404" font-size="10" y="30" clip-path="url(#clipPath2)" stroke="none" xml:space="preserve">80</text>
            <text x="404" font-size="10" y="574" clip-path="url(#clipPath2)" stroke="none" xml:space="preserve">80</text>
            <line clip-path="url(#clipPath2)" fill="none" x1="457" x2="457" y1="35" y2="37"/>
            <line clip-path="url(#clipPath2)" fill="none" x1="457" x2="457" y1="561" y2="559"/>
            <line clip-path="url(#clipPath2)" fill="none" x1="505" x2="505" y1="33" y2="37"/>
            <line clip-path="url(#clipPath2)" fill="none" x1="505" x2="505" y1="563" y2="559"/>
            <text x="498" font-size="10" y="30" clip-path="url(#clipPath2)" stroke="none" xml:space="preserve">100</text>
            <text x="498" font-size="10" y="574" clip-path="url(#clipPath2)" stroke="none" xml:space="preserve">100</text>
            <line clip-path="url(#clipPath2)" fill="none" x1="552" x2="552" y1="35" y2="37"/>
            <line clip-path="url(#clipPath2)" fill="none" x1="552" x2="552" y1="561" y2="559"/>
            <line clip-path="url(#clipPath2)" fill="none" x1="600" x2="600" y1="33" y2="37"/>
            <line clip-path="url(#clipPath2)" fill="none" x1="600" x2="600" y1="563" y2="559"/>
            <text x="593" font-size="10" y="30" clip-path="url(#clipPath2)" stroke="none" xml:space="preserve">120</text>
            <text x="593" font-size="10" y="574" clip-path="url(#clipPath2)" stroke="none" xml:space="preserve">120</text>
            <line clip-path="url(#clipPath2)" fill="none" x1="648" x2="648" y1="35" y2="37"/>
            <line clip-path="url(#clipPath2)" fill="none" x1="648" x2="648" y1="561" y2="559"/>
            <line clip-path="url(#clipPath2)" fill="none" x1="695" x2="695" y1="33" y2="37"/>
            <line clip-path="url(#clipPath2)" fill="none" x1="695" x2="695" y1="563" y2="559"/>
            <text x="688" font-size="10" y="30" clip-path="url(#clipPath2)" stroke="none" xml:space="preserve">140</text>
            <text x="688" font-size="10" y="574" clip-path="url(#clipPath2)" stroke="none" xml:space="preserve">140</text>
            <line clip-path="url(#clipPath2)" fill="none" x1="743" x2="743" y1="35" y2="37"/>
            <line clip-path="url(#clipPath2)" fill="none" x1="743" x2="743" y1="561" y2="559"/>
            <line clip-path="url(#clipPath2)" fill="none" x1="790" x2="790" y1="33" y2="37"/>
            <line clip-path="url(#clipPath2)" fill="none" x1="790" x2="790" y1="563" y2="559"/>
            <text x="783" font-size="10" y="30" clip-path="url(#clipPath2)" stroke="none" xml:space="preserve">160</text>
            <text x="783" font-size="10" y="574" clip-path="url(#clipPath2)" stroke="none" xml:space="preserve">160</text>
            <line clip-path="url(#clipPath2)" fill="none" x1="838" x2="838" y1="35" y2="37"/>
            <line clip-path="url(#clipPath2)" fill="none" x1="838" x2="838" y1="561" y2="559"/>
            <line clip-path="url(#clipPath2)" fill="none" x1="886" x2="886" y1="33" y2="37"/>
            <line clip-path="url(#clipPath2)" fill="none" x1="886" x2="886" y1="563" y2="559"/>
            <text x="879" font-size="10" y="30" clip-path="url(#clipPath2)" stroke="none" xml:space="preserve">180</text>
            <text x="879" font-size="10" y="574" clip-path="url(#clipPath2)" stroke="none" xml:space="preserve">180</text>
            <line clip-path="url(#clipPath2)" fill="none" x1="933" x2="933" y1="35" y2="37"/>
            <line clip-path="url(#clipPath2)" fill="none" x1="933" x2="933" y1="561" y2="559"/>
            <line clip-path="url(#clipPath2)" fill="none" x1="981" x2="981" y1="33" y2="37"/>
            <line clip-path="url(#clipPath2)" fill="none" x1="981" x2="981" y1="563" y2="559"/>
            <text x="974" font-size="10" y="30" clip-path="url(#clipPath2)" stroke="none" xml:space="preserve">200</text>
            <text x="974" font-size="10" y="574" clip-path="url(#clipPath2)" stroke="none" xml:space="preserve">200</text>
            <line clip-path="url(#clipPath2)" fill="none" x1="27" x2="27" y1="39" y2="557"/>
            <line clip-path="url(#clipPath2)" fill="none" x1="995" x2="995" y1="39" y2="557"/>
            <line clip-path="url(#clipPath2)" fill="none" x1="23" x2="27" y1="557" y2="557"/>
            <line clip-path="url(#clipPath2)" fill="none" x1="999" x2="995" y1="557" y2="557"/>
            <text x="16" font-size="10" y="561" clip-path="url(#clipPath2)" stroke="none" xml:space="preserve">0</text>
            <text x="1002" font-size="10" y="561" clip-path="url(#clipPath2)" stroke="none" xml:space="preserve">0</text>
            <line clip-path="url(#clipPath2)" fill="none" x1="25" x2="27" y1="515" y2="515"/>
            <line clip-path="url(#clipPath2)" fill="none" x1="997" x2="995" y1="515" y2="515"/>
            <line clip-path="url(#clipPath2)" fill="none" x1="23" x2="27" y1="474" y2="474"/>
            <line clip-path="url(#clipPath2)" fill="none" x1="999" x2="995" y1="474" y2="474"/>
            <text x="8" font-size="10" y="478" clip-path="url(#clipPath2)" stroke="none" xml:space="preserve">0.2</text>
            <text x="1002" font-size="10" y="478" clip-path="url(#clipPath2)" stroke="none" xml:space="preserve">0.2</text>
            <line clip-path="url(#clipPath2)" fill="none" x1="25" x2="27" y1="432" y2="432"/>
            <line clip-path="url(#clipPath2)" fill="none" x1="997" x2="995" y1="432" y2="432"/>
            <line clip-path="url(#clipPath2)" fill="none" x1="23" x2="27" y1="391" y2="391"/>
            <line clip-path="url(#clipPath2)" fill="none" x1="999" x2="995" y1="391" y2="391"/>
            <text x="8" font-size="10" y="395" clip-path="url(#clipPath2)" stroke="none" xml:space="preserve">0.4</text>
            <text x="1002" font-size="10" y="395" clip-path="url(#clipPath2)" stroke="none" xml:space="preserve">0.4</text>
            <line clip-path="url(#clipPath2)" fill="none" x1="25" x2="27" y1="349" y2="349"/>
            <line clip-path="url(#clipPath2)" fill="none" x1="997" x2="995" y1="349" y2="349"/>
            <line clip-path="url(#clipPath2)" fill="none" x1="23" x2="27" y1="308" y2="308"/>
            <line clip-path="url(#clipPath2)" fill="none" x1="999" x2="995" y1="308" y2="308"/>
            <text x="8" font-size="10" y="312" clip-path="url(#clipPath2)" stroke="none" xml:space="preserve">0.6</text>
            <text x="1002" font-size="10" y="312" clip-path="url(#clipPath2)" stroke="none" xml:space="preserve">0.6</text>
            <line clip-path="url(#clipPath2)" fill="none" x1="25" x2="27" y1="266" y2="266"/>
            <line clip-path="url(#clipPath2)" fill="none" x1="997" x2="995" y1="266" y2="266"/>
            <line clip-path="url(#clipPath2)" fill="none" x1="23" x2="27" y1="225" y2="225"/>
            <line clip-path="url(#clipPath2)" fill="none" x1="999" x2="995" y1="225" y2="225"/>
            <text x="8" font-size="10" y="229" clip-path="url(#clipPath2)" stroke="none" xml:space="preserve">0.8</text>
            <text x="1002" font-size="10" y="229" clip-path="url(#clipPath2)" stroke="none" xml:space="preserve">0.8</text>
            <line clip-path="url(#clipPath2)" fill="none" x1="25" x2="27" y1="184" y2="184"/>
            <line clip-path="url(#clipPath2)" fill="none" x1="997" x2="995" y1="184" y2="184"/>
            <line clip-path="url(#clipPath2)" fill="none" x1="23" x2="27" y1="142" y2="142"/>
            <line clip-path="url(#clipPath2)" fill="none" x1="999" x2="995" y1="142" y2="142"/>
            <text x="16" font-size="10" y="146" clip-path="url(#clipPath2)" stroke="none" xml:space="preserve">1</text>
            <text x="1002" font-size="10" y="146" clip-path="url(#clipPath2)" stroke="none" xml:space="preserve">1</text>
            <line clip-path="url(#clipPath2)" fill="none" x1="25" x2="27" y1="101" y2="101"/>
            <line clip-path="url(#clipPath2)" fill="none" x1="997" x2="995" y1="101" y2="101"/>
            <line clip-path="url(#clipPath2)" fill="none" x1="23" x2="27" y1="59" y2="59"/>
            <line clip-path="url(#clipPath2)" fill="none" x1="999" x2="995" y1="59" y2="59"/>
            <text x="8" font-size="10" y="63" clip-path="url(#clipPath2)" stroke="none" xml:space="preserve">1.2</text>
            <text x="1002" font-size="10" y="63" clip-path="url(#clipPath2)" stroke="none" xml:space="preserve">1.2</text>
        </g>
    </g>
</svg>
