<?xml version="1.0" encoding="utf-8" standalone="no"?>
<!DOCTYPE svg PUBLIC "-//W3C//DTD SVG 1.1//EN"
  "http://www.w3.org/Graphics/SVG/1.1/DTD/svg11.dtd">
<svg xmlns:xlink="http://www.w3.org/1999/xlink" width="1101.6pt" height="568.08pt" viewBox="0 0 1101.6 568.08" xmlns="http://www.w3.org/2000/svg" version="1.1">
 <metadata>
  <rdf:RDF xmlns:dc="http://purl.org/dc/elements/1.1/" xmlns:cc="http://creativecommons.org/ns#" xmlns:rdf="http://www.w3.org/1999/02/22-rdf-syntax-ns#">
   <cc:Work>
    <dc:type rdf:resource="http://purl.org/dc/dcmitype/StillImage"/>
    <dc:date>2023-05-23T19:35:35.469229</dc:date>
    <dc:format>image/svg+xml</dc:format>
    <dc:creator>
     <cc:Agent>
      <dc:title>Matplotlib v3.5.2, https://matplotlib.org/</dc:title>
     </cc:Agent>
    </dc:creator>
   </cc:Work>
  </rdf:RDF>
 </metadata>
 <defs>
  <style type="text/css">*{stroke-linejoin: round; stroke-linecap: butt}</style>
 </defs>
 <g id="figure_1">
  <g id="patch_1">
   <path d="M 0 568.08 
L 1101.6 568.08 
L 1101.6 0 
L 0 0 
z
" style="fill: #ffffff"/>
  </g>
  <g id="axes_1">
   <g id="patch_2">
    <path d="M 87.951094 522.25225 
L 1075.78125 522.25225 
L 1075.78125 44.184 
L 87.951094 44.184 
z
" style="fill: #ffffff"/>
   </g>
   <g id="matplotlib.axis_1">
    <g id="xtick_1">
     <g id="line2d_1">
      <path d="M 124.001246 522.25225 
L 124.001246 44.184 
" clip-path="url(#pcaf77a7094)" style="fill: none; stroke: #b0b0b0; stroke-width: 0.8; stroke-linecap: square"/>
     </g>
     <g id="line2d_2">
      <defs>
       <path id="mab524139f7" d="M 0 0 
L 0 3.5 
" style="stroke: #000000; stroke-width: 0.8"/>
      </defs>
      <g>
       <use xlink:href="#mab524139f7" x="124.001246" y="522.25225" style="stroke: #000000; stroke-width: 0.8"/>
      </g>
     </g>
     <g id="text_1">
      <!-- 0 -->
      <g transform="translate(120.819996 536.850687)scale(0.1 -0.1)">
       <defs>
        <path id="DejaVuSans-30" d="M 2034 4250 
Q 1547 4250 1301 3770 
Q 1056 3291 1056 2328 
Q 1056 1369 1301 889 
Q 1547 409 2034 409 
Q 2525 409 2770 889 
Q 3016 1369 3016 2328 
Q 3016 3291 2770 3770 
Q 2525 4250 2034 4250 
z
M 2034 4750 
Q 2819 4750 3233 4129 
Q 3647 3509 3647 2328 
Q 3647 1150 3233 529 
Q 2819 -91 2034 -91 
Q 1250 -91 836 529 
Q 422 1150 422 2328 
Q 422 3509 836 4129 
Q 1250 4750 2034 4750 
z
" transform="scale(0.015625)"/>
       </defs>
       <use xlink:href="#DejaVuSans-30"/>
      </g>
     </g>
    </g>
    <g id="xtick_2">
     <g id="line2d_3">
      <path d="M 237.388546 522.25225 
L 237.388546 44.184 
" clip-path="url(#pcaf77a7094)" style="fill: none; stroke: #b0b0b0; stroke-width: 0.8; stroke-linecap: square"/>
     </g>
     <g id="line2d_4">
      <g>
       <use xlink:href="#mab524139f7" x="237.388546" y="522.25225" style="stroke: #000000; stroke-width: 0.8"/>
      </g>
     </g>
     <g id="text_2">
      <!-- 25 -->
      <g transform="translate(231.026046 536.850687)scale(0.1 -0.1)">
       <defs>
        <path id="DejaVuSans-32" d="M 1228 531 
L 3431 531 
L 3431 0 
L 469 0 
L 469 531 
Q 828 903 1448 1529 
Q 2069 2156 2228 2338 
Q 2531 2678 2651 2914 
Q 2772 3150 2772 3378 
Q 2772 3750 2511 3984 
Q 2250 4219 1831 4219 
Q 1534 4219 1204 4116 
Q 875 4013 500 3803 
L 500 4441 
Q 881 4594 1212 4672 
Q 1544 4750 1819 4750 
Q 2544 4750 2975 4387 
Q 3406 4025 3406 3419 
Q 3406 3131 3298 2873 
Q 3191 2616 2906 2266 
Q 2828 2175 2409 1742 
Q 1991 1309 1228 531 
z
" transform="scale(0.015625)"/>
        <path id="DejaVuSans-35" d="M 691 4666 
L 3169 4666 
L 3169 4134 
L 1269 4134 
L 1269 2991 
Q 1406 3038 1543 3061 
Q 1681 3084 1819 3084 
Q 2600 3084 3056 2656 
Q 3513 2228 3513 1497 
Q 3513 744 3044 326 
Q 2575 -91 1722 -91 
Q 1428 -91 1123 -41 
Q 819 9 494 109 
L 494 744 
Q 775 591 1075 516 
Q 1375 441 1709 441 
Q 2250 441 2565 725 
Q 2881 1009 2881 1497 
Q 2881 1984 2565 2268 
Q 2250 2553 1709 2553 
Q 1456 2553 1204 2497 
Q 953 2441 691 2322 
L 691 4666 
z
" transform="scale(0.015625)"/>
       </defs>
       <use xlink:href="#DejaVuSans-32"/>
       <use xlink:href="#DejaVuSans-35" x="63.623047"/>
      </g>
     </g>
    </g>
    <g id="xtick_3">
     <g id="line2d_5">
      <path d="M 350.775846 522.25225 
L 350.775846 44.184 
" clip-path="url(#pcaf77a7094)" style="fill: none; stroke: #b0b0b0; stroke-width: 0.8; stroke-linecap: square"/>
     </g>
     <g id="line2d_6">
      <g>
       <use xlink:href="#mab524139f7" x="350.775846" y="522.25225" style="stroke: #000000; stroke-width: 0.8"/>
      </g>
     </g>
     <g id="text_3">
      <!-- 50 -->
      <g transform="translate(344.413346 536.850687)scale(0.1 -0.1)">
       <use xlink:href="#DejaVuSans-35"/>
       <use xlink:href="#DejaVuSans-30" x="63.623047"/>
      </g>
     </g>
    </g>
    <g id="xtick_4">
     <g id="line2d_7">
      <path d="M 464.163146 522.25225 
L 464.163146 44.184 
" clip-path="url(#pcaf77a7094)" style="fill: none; stroke: #b0b0b0; stroke-width: 0.8; stroke-linecap: square"/>
     </g>
     <g id="line2d_8">
      <g>
       <use xlink:href="#mab524139f7" x="464.163146" y="522.25225" style="stroke: #000000; stroke-width: 0.8"/>
      </g>
     </g>
     <g id="text_4">
      <!-- 75 -->
      <g transform="translate(457.800646 536.850687)scale(0.1 -0.1)">
       <defs>
        <path id="DejaVuSans-37" d="M 525 4666 
L 3525 4666 
L 3525 4397 
L 1831 0 
L 1172 0 
L 2766 4134 
L 525 4134 
L 525 4666 
z
" transform="scale(0.015625)"/>
       </defs>
       <use xlink:href="#DejaVuSans-37"/>
       <use xlink:href="#DejaVuSans-35" x="63.623047"/>
      </g>
     </g>
    </g>
    <g id="xtick_5">
     <g id="line2d_9">
      <path d="M 577.550446 522.25225 
L 577.550446 44.184 
" clip-path="url(#pcaf77a7094)" style="fill: none; stroke: #b0b0b0; stroke-width: 0.8; stroke-linecap: square"/>
     </g>
     <g id="line2d_10">
      <g>
       <use xlink:href="#mab524139f7" x="577.550446" y="522.25225" style="stroke: #000000; stroke-width: 0.8"/>
      </g>
     </g>
     <g id="text_5">
      <!-- 100 -->
      <g transform="translate(568.006696 536.850687)scale(0.1 -0.1)">
       <defs>
        <path id="DejaVuSans-31" d="M 794 531 
L 1825 531 
L 1825 4091 
L 703 3866 
L 703 4441 
L 1819 4666 
L 2450 4666 
L 2450 531 
L 3481 531 
L 3481 0 
L 794 0 
L 794 531 
z
" transform="scale(0.015625)"/>
       </defs>
       <use xlink:href="#DejaVuSans-31"/>
       <use xlink:href="#DejaVuSans-30" x="63.623047"/>
       <use xlink:href="#DejaVuSans-30" x="127.246094"/>
      </g>
     </g>
    </g>
    <g id="xtick_6">
     <g id="line2d_11">
      <path d="M 690.937745 522.25225 
L 690.937745 44.184 
" clip-path="url(#pcaf77a7094)" style="fill: none; stroke: #b0b0b0; stroke-width: 0.8; stroke-linecap: square"/>
     </g>
     <g id="line2d_12">
      <g>
       <use xlink:href="#mab524139f7" x="690.937745" y="522.25225" style="stroke: #000000; stroke-width: 0.8"/>
      </g>
     </g>
     <g id="text_6">
      <!-- 125 -->
      <g transform="translate(681.393995 536.850687)scale(0.1 -0.1)">
       <use xlink:href="#DejaVuSans-31"/>
       <use xlink:href="#DejaVuSans-32" x="63.623047"/>
       <use xlink:href="#DejaVuSans-35" x="127.246094"/>
      </g>
     </g>
    </g>
    <g id="xtick_7">
     <g id="line2d_13">
      <path d="M 804.325045 522.25225 
L 804.325045 44.184 
" clip-path="url(#pcaf77a7094)" style="fill: none; stroke: #b0b0b0; stroke-width: 0.8; stroke-linecap: square"/>
     </g>
     <g id="line2d_14">
      <g>
       <use xlink:href="#mab524139f7" x="804.325045" y="522.25225" style="stroke: #000000; stroke-width: 0.8"/>
      </g>
     </g>
     <g id="text_7">
      <!-- 150 -->
      <g transform="translate(794.781295 536.850687)scale(0.1 -0.1)">
       <use xlink:href="#DejaVuSans-31"/>
       <use xlink:href="#DejaVuSans-35" x="63.623047"/>
       <use xlink:href="#DejaVuSans-30" x="127.246094"/>
      </g>
     </g>
    </g>
    <g id="xtick_8">
     <g id="line2d_15">
      <path d="M 917.712345 522.25225 
L 917.712345 44.184 
" clip-path="url(#pcaf77a7094)" style="fill: none; stroke: #b0b0b0; stroke-width: 0.8; stroke-linecap: square"/>
     </g>
     <g id="line2d_16">
      <g>
       <use xlink:href="#mab524139f7" x="917.712345" y="522.25225" style="stroke: #000000; stroke-width: 0.8"/>
      </g>
     </g>
     <g id="text_8">
      <!-- 175 -->
      <g transform="translate(908.168595 536.850687)scale(0.1 -0.1)">
       <use xlink:href="#DejaVuSans-31"/>
       <use xlink:href="#DejaVuSans-37" x="63.623047"/>
       <use xlink:href="#DejaVuSans-35" x="127.246094"/>
      </g>
     </g>
    </g>
    <g id="xtick_9">
     <g id="line2d_17">
      <path d="M 1031.099645 522.25225 
L 1031.099645 44.184 
" clip-path="url(#pcaf77a7094)" style="fill: none; stroke: #b0b0b0; stroke-width: 0.8; stroke-linecap: square"/>
     </g>
     <g id="line2d_18">
      <g>
       <use xlink:href="#mab524139f7" x="1031.099645" y="522.25225" style="stroke: #000000; stroke-width: 0.8"/>
      </g>
     </g>
     <g id="text_9">
      <!-- 200 -->
      <g transform="translate(1021.555895 536.850687)scale(0.1 -0.1)">
       <use xlink:href="#DejaVuSans-32"/>
       <use xlink:href="#DejaVuSans-30" x="63.623047"/>
       <use xlink:href="#DejaVuSans-30" x="127.246094"/>
      </g>
     </g>
    </g>
   </g>
   <g id="matplotlib.axis_2">
    <g id="ytick_1">
     <g id="line2d_19">
      <path d="M 87.951094 500.521875 
L 1075.78125 500.521875 
" clip-path="url(#pcaf77a7094)" style="fill: none; stroke: #b0b0b0; stroke-width: 0.8; stroke-linecap: square"/>
     </g>
     <g id="line2d_20">
      <defs>
       <path id="m68da88af68" d="M 0 0 
L -3.5 0 
" style="stroke: #000000; stroke-width: 0.8"/>
      </defs>
      <g>
       <use xlink:href="#m68da88af68" x="87.951094" y="500.521875" style="stroke: #000000; stroke-width: 0.8"/>
      </g>
     </g>
     <g id="text_10">
      <!-- 0 -->
      <g transform="translate(74.588594 504.321094)scale(0.1 -0.1)">
       <use xlink:href="#DejaVuSans-30"/>
      </g>
     </g>
    </g>
    <g id="ytick_2">
     <g id="line2d_21">
      <path d="M 87.951094 403.942431 
L 1075.78125 403.942431 
" clip-path="url(#pcaf77a7094)" style="fill: none; stroke: #b0b0b0; stroke-width: 0.8; stroke-linecap: square"/>
     </g>
     <g id="line2d_22">
      <g>
       <use xlink:href="#m68da88af68" x="87.951094" y="403.942431" style="stroke: #000000; stroke-width: 0.8"/>
      </g>
     </g>
     <g id="text_11">
      <!-- 50 -->
      <g transform="translate(68.226094 407.741649)scale(0.1 -0.1)">
       <use xlink:href="#DejaVuSans-35"/>
       <use xlink:href="#DejaVuSans-30" x="63.623047"/>
      </g>
     </g>
    </g>
    <g id="ytick_3">
     <g id="line2d_23">
      <path d="M 87.951094 307.362986 
L 1075.78125 307.362986 
" clip-path="url(#pcaf77a7094)" style="fill: none; stroke: #b0b0b0; stroke-width: 0.8; stroke-linecap: square"/>
     </g>
     <g id="line2d_24">
      <g>
       <use xlink:href="#m68da88af68" x="87.951094" y="307.362986" style="stroke: #000000; stroke-width: 0.8"/>
      </g>
     </g>
     <g id="text_12">
      <!-- 100 -->
      <g transform="translate(61.863594 311.162205)scale(0.1 -0.1)">
       <use xlink:href="#DejaVuSans-31"/>
       <use xlink:href="#DejaVuSans-30" x="63.623047"/>
       <use xlink:href="#DejaVuSans-30" x="127.246094"/>
      </g>
     </g>
    </g>
    <g id="ytick_4">
     <g id="line2d_25">
      <path d="M 87.951094 210.783542 
L 1075.78125 210.783542 
" clip-path="url(#pcaf77a7094)" style="fill: none; stroke: #b0b0b0; stroke-width: 0.8; stroke-linecap: square"/>
     </g>
     <g id="line2d_26">
      <g>
       <use xlink:href="#m68da88af68" x="87.951094" y="210.783542" style="stroke: #000000; stroke-width: 0.8"/>
      </g>
     </g>
     <g id="text_13">
      <!-- 150 -->
      <g transform="translate(61.863594 214.58276)scale(0.1 -0.1)">
       <use xlink:href="#DejaVuSans-31"/>
       <use xlink:href="#DejaVuSans-35" x="63.623047"/>
       <use xlink:href="#DejaVuSans-30" x="127.246094"/>
      </g>
     </g>
    </g>
    <g id="ytick_5">
     <g id="line2d_27">
      <path d="M 87.951094 114.204097 
L 1075.78125 114.204097 
" clip-path="url(#pcaf77a7094)" style="fill: none; stroke: #b0b0b0; stroke-width: 0.8; stroke-linecap: square"/>
     </g>
     <g id="line2d_28">
      <g>
       <use xlink:href="#m68da88af68" x="87.951094" y="114.204097" style="stroke: #000000; stroke-width: 0.8"/>
      </g>
     </g>
     <g id="text_14">
      <!-- 200 -->
      <g transform="translate(61.863594 118.003316)scale(0.1 -0.1)">
       <use xlink:href="#DejaVuSans-32"/>
       <use xlink:href="#DejaVuSans-30" x="63.623047"/>
       <use xlink:href="#DejaVuSans-30" x="127.246094"/>
      </g>
     </g>
    </g>
   </g>
   <g id="line2d_29">
    <path d="M 132.852464 498.590286 
L 132.852464 500.521875 
L 136.659705 498.590286 
L 136.993905 496.658697 
L 137.059218 494.727108 
L 137.387956 496.658697 
L 138.860614 494.727108 
L 141.59471 492.795519 
L 141.923448 494.727108 
L 146.130202 492.795519 
L 146.45894 494.727108 
L 146.96775 492.795519 
L 149.878216 490.863931 
L 150.665694 488.932342 
L 150.994432 490.863931 
L 152.685366 488.932342 
L 155.201186 487.000753 
L 155.529924 488.932342 
L 157.837408 487.000753 
L 159.736678 485.069164 
L 160.065416 487.000753 
L 164.27217 485.069164 
L 164.600908 487.000753 
L 168.807662 485.069164 
L 169.1364 487.000753 
L 170.965029 485.069164 
L 173.343154 483.137575 
L 173.570816 481.205986 
L 173.671892 483.137575 
L 174.326776 479.274397 
L 177.878646 477.342808 
L 178.207384 479.274397 
L 182.414138 477.342808 
L 182.742876 479.274397 
L 186.94963 477.342808 
L 187.278368 479.274397 
L 190.201967 477.342808 
L 191.485122 475.411219 
L 191.81386 477.342808 
L 194.156534 475.411219 
L 196.020614 473.479631 
L 196.349352 475.411219 
L 198.587094 473.479631 
L 200.556106 471.548042 
L 200.884844 473.479631 
L 205.091598 471.548042 
L 205.420336 473.479631 
L 205.420426 471.548042 
L 209.62709 469.616453 
L 209.955828 471.548042 
L 210.499335 469.616453 
L 213.367293 467.684864 
L 214.162582 465.753275 
L 214.49132 467.684864 
L 217.5784 465.753275 
L 218.698074 463.821686 
L 219.026812 465.753275 
L 219.086044 463.821686 
L 219.666844 461.890097 
L 221.2596 459.958508 
L 221.832835 458.026919 
L 223.233566 456.095331 
L 223.562304 458.026919 
L 223.568572 456.095331 
L 225.994536 454.163742 
L 227.769058 452.232153 
L 228.097796 454.163742 
L 229.771891 452.232153 
L 231.170704 450.300564 
L 232.30455 448.368975 
L 232.633288 450.300564 
L 236.840042 448.368975 
L 237.16878 450.300564 
L 241.375534 448.368975 
L 241.704272 450.300564 
L 242.444043 448.368975 
L 243.993613 446.437386 
L 244.911371 444.505797 
L 245.003498 442.574208 
L 245.821031 440.642619 
L 245.911026 438.711031 
L 246.239764 440.642619 
L 250.446518 438.711031 
L 250.775256 440.642619 
L 253.829536 438.711031 
L 254.98201 436.779442 
L 255.310748 438.711031 
L 257.896016 436.779442 
L 259.517502 434.847853 
L 259.84624 436.779442 
L 264.052994 434.847853 
L 264.381732 436.779442 
L 268.588486 434.847853 
L 268.917224 436.779442 
L 271.739615 434.847853 
L 273.123978 432.916264 
L 273.452716 434.847853 
L 275.687924 432.916264 
L 277.65947 430.984675 
L 277.988208 432.916264 
L 281.547368 430.984675 
L 282.194962 429.053086 
L 282.5237 430.984675 
L 282.735926 429.053086 
L 285.236778 427.121497 
L 285.324675 425.189908 
L 286.730454 423.258319 
L 287.059192 425.189908 
L 288.205292 423.258319 
L 291.265946 419.395142 
L 291.594684 421.326731 
L 292.959098 417.463553 
L 294.565679 415.531964 
L 295.801438 413.600375 
L 296.130176 415.531964 
L 300.33693 411.668786 
L 300.665668 413.600375 
L 300.766434 411.668786 
L 304.872422 409.737197 
L 305.20116 411.668786 
L 309.407914 409.737197 
L 309.736652 411.668786 
L 313.943406 409.737197 
L 314.272144 411.668786 
L 318.478898 409.737197 
L 318.807636 411.668786 
L 319.533437 409.737197 
L 323.01439 407.805608 
L 323.343128 409.737197 
L 323.869215 407.805608 
L 327.549882 405.874019 
L 327.687559 403.942431 
L 327.87862 405.874019 
L 332.085374 403.942431 
L 332.414112 405.874019 
L 333.109461 403.942431 
L 333.185511 402.010842 
L 336.620866 400.079253 
L 336.949604 402.010842 
L 341.156358 400.079253 
L 341.485096 402.010842 
L 341.968842 400.079253 
L 345.69185 396.216075 
L 346.020588 398.147664 
L 346.899253 396.216075 
L 346.984046 394.284486 
L 350.227342 392.352897 
L 350.55608 394.284486 
L 354.142924 392.352897 
L 354.762834 390.421308 
L 355.091572 392.352897 
L 359.298326 390.421308 
L 359.627064 392.352897 
L 361.085997 390.421308 
L 363.833818 388.489719 
L 364.162556 390.421308 
L 364.565081 388.489719 
L 368.36931 386.558131 
L 368.698048 388.489719 
L 370.86795 386.558131 
L 371.950812 384.626542 
L 372.885268 382.694953 
L 372.904802 380.763364 
L 373.23354 382.694953 
L 377.440294 380.763364 
L 377.769032 382.694953 
L 378.987081 380.763364 
L 379.258217 378.831775 
L 381.842983 376.900186 
L 381.975786 374.968597 
L 382.304524 376.900186 
L 386.511278 374.968597 
L 386.840016 376.900186 
L 387.564396 373.037008 
L 391.04677 371.105419 
L 391.375508 373.037008 
L 392.723693 371.105419 
L 395.582262 369.173831 
L 395.911 371.105419 
L 396.960116 369.173831 
L 399.721473 367.242242 
L 399.816116 365.310653 
L 400.117754 363.379064 
L 400.446492 365.310653 
L 400.996938 363.379064 
L 402.746221 361.447475 
L 404.653246 359.515886 
L 404.981984 361.447475 
L 409.188738 359.515886 
L 409.517476 361.447475 
L 413.394848 359.515886 
L 413.72423 357.584297 
L 414.052968 359.515886 
L 414.326201 357.584297 
L 418.259722 355.652708 
L 418.58846 357.584297 
L 422.795214 355.652708 
L 423.123952 357.584297 
L 427.330706 355.652708 
L 427.659444 357.584297 
L 428.173895 355.652708 
L 428.930754 353.721119 
L 431.438148 351.789531 
L 431.866198 349.857942 
L 432.194936 351.789531 
L 436.40169 347.926353 
L 436.730428 349.857942 
L 440.497835 347.926353 
L 440.937182 345.994764 
L 441.26592 347.926353 
L 443.319079 345.994764 
L 444.136711 344.063175 
L 445.472674 342.131586 
L 445.801412 344.063175 
L 446.129858 342.131586 
L 450.008166 340.199997 
L 450.336904 342.131586 
L 452.393205 340.199997 
L 452.604957 338.268408 
L 454.543658 336.336819 
L 454.872396 338.268408 
L 459.07915 336.336819 
L 459.407888 338.268408 
L 463.614642 336.336819 
L 463.94338 338.268408 
L 467.429196 336.336819 
L 468.150134 334.405231 
L 468.478872 336.336819 
L 471.368569 334.405231 
L 472.685626 332.473642 
L 473.014364 334.405231 
L 477.221118 332.473642 
L 477.549856 334.405231 
L 481.75661 332.473642 
L 482.085348 334.405231 
L 486.149379 332.473642 
L 486.292102 330.542053 
L 486.62084 332.473642 
L 490.827594 330.542053 
L 491.156332 332.473642 
L 495.363086 330.542053 
L 495.554907 328.610464 
L 495.691824 330.542053 
L 499.898578 328.610464 
L 500.227316 330.542053 
L 504.43407 328.610464 
L 504.762808 330.542053 
L 508.969562 328.610464 
L 509.2983 330.542053 
L 513.505054 328.610464 
L 513.732931 326.678875 
L 513.833792 328.610464 
L 518.040546 326.678875 
L 518.369284 328.610464 
L 522.576038 326.678875 
L 522.904776 328.610464 
L 527.11153 326.678875 
L 527.440268 328.610464 
L 528.427757 326.678875 
L 530.075239 324.747286 
L 530.796079 322.815697 
L 531.647022 320.884108 
L 531.97576 322.815697 
L 536.182514 320.884108 
L 536.511252 322.815697 
L 540.521923 320.884108 
L 540.98243 317.020931 
L 541.046744 318.952519 
L 542.411835 317.020931 
L 545.253498 315.089342 
L 545.582236 317.020931 
L 546.477129 315.089342 
L 549.123243 313.157753 
L 549.78899 311.226164 
L 550.117728 313.157753 
L 551.290836 311.226164 
L 551.70056 309.294575 
L 554.324482 307.362986 
L 554.65322 309.294575 
L 556.594025 307.362986 
L 558.859974 305.431397 
L 559.188712 307.362986 
L 563.395466 305.431397 
L 563.408206 303.499808 
L 563.724204 305.431397 
L 566.46944 303.499808 
L 567.930958 301.568219 
L 568.259696 303.499808 
L 569.787359 301.568219 
L 572.46645 299.636631 
L 572.795188 301.568219 
L 573.695445 299.636631 
L 576.248134 297.705042 
L 577.001942 295.773453 
L 577.33068 297.705042 
L 579.732541 295.773453 
L 581.537434 293.841864 
L 581.866172 295.773453 
L 581.994356 293.841864 
L 582.622915 291.910275 
L 585.391755 289.978686 
L 586.072926 286.115508 
L 586.401664 288.047097 
L 590.608418 284.183919 
L 590.937156 286.115508 
L 595.14391 284.183919 
L 595.472648 286.115508 
L 598.07688 284.183919 
L 598.201343 282.252331 
L 599.679402 280.320742 
L 600.00814 282.252331 
L 602.785679 280.320742 
L 604.214894 278.389153 
L 604.457384 276.457564 
L 604.543632 278.389153 
L 607.632344 276.457564 
L 608.750386 274.525975 
L 609.079124 276.457564 
L 610.403791 274.525975 
L 613.285878 272.594386 
L 613.614616 274.525975 
L 615.070693 270.662797 
L 617.82137 268.731208 
L 618.150108 270.662797 
L 622.356862 268.731208 
L 622.6856 270.662797 
L 625.934012 268.731208 
L 626.892354 266.799619 
L 627.221092 268.731208 
L 631.427846 266.799619 
L 631.756584 268.731208 
L 631.83395 266.799619 
L 632.412559 264.868031 
L 634.403989 262.936442 
L 635.963338 261.004853 
L 636.292076 262.936442 
L 636.404843 261.004853 
L 638.731219 259.073264 
L 639.207141 257.141675 
L 640.49883 255.210086 
L 640.827568 257.141675 
L 643.468244 255.210086 
L 643.729457 253.278497 
L 644.139953 251.346908 
L 645.034322 249.415319 
L 645.341563 247.483731 
L 645.36306 249.415319 
L 649.569814 247.483731 
L 649.664443 245.552142 
L 649.898552 247.483731 
L 653.231875 245.552142 
L 653.286796 243.620553 
L 653.843369 241.688964 
L 654.105306 239.757375 
L 654.434044 241.688964 
L 658.213736 239.757375 
L 658.640797 237.825786 
L 658.969536 239.757375 
L 659.020495 237.825786 
L 662.07716 235.894197 
L 663.176289 233.962608 
L 663.505028 235.894197 
L 666.711155 233.962608 
L 667.711781 232.031019 
L 668.04052 233.962608 
L 668.412246 232.031019 
L 672.247273 230.099431 
L 672.576012 232.031019 
L 675.75367 230.099431 
L 676.782765 228.167842 
L 677.111504 230.099431 
L 681.318257 228.167842 
L 681.646996 230.099431 
L 685.853749 228.167842 
L 686.182488 230.099431 
L 687.616889 228.167842 
L 689.915128 226.236253 
L 690.389241 224.304664 
L 690.71798 226.236253 
L 691.85862 224.304664 
L 694.924733 222.373075 
L 695.253472 224.304664 
L 699.460225 222.373075 
L 699.510986 220.441486 
L 699.788964 222.373075 
L 703.995717 220.441486 
L 704.324456 222.373075 
L 708.531209 220.441486 
L 708.859948 222.373075 
L 709.823366 220.441486 
L 711.834106 218.509897 
L 712.106818 216.578308 
L 713.066701 214.646719 
L 713.39544 216.578308 
L 717.602193 214.646719 
L 717.930932 216.578308 
L 722.137685 214.646719 
L 722.466424 216.578308 
L 723.380377 214.646719 
L 726.559964 212.715131 
L 726.673177 210.783542 
L 727.001916 212.715131 
L 727.791214 210.783542 
L 731.208669 208.851953 
L 731.467199 206.920364 
L 731.537408 208.851953 
L 735.744161 206.920364 
L 736.0729 208.851953 
L 740.279653 206.920364 
L 740.608392 208.851953 
L 740.627008 206.920364 
L 744.815145 204.988775 
L 745.143884 206.920364 
L 746.208924 204.988775 
L 748.89997 203.057186 
L 749.350637 201.125597 
L 749.679376 203.057186 
L 753.102732 201.125597 
L 753.886129 199.194008 
L 754.214868 201.125597 
L 754.560168 199.194008 
L 755.289158 197.262419 
L 758.421621 195.330831 
L 758.75036 197.262419 
L 759.357735 195.330831 
L 760.458705 193.399242 
L 762.957113 191.467653 
L 763.285852 193.399242 
L 764.392301 191.467653 
L 765.838402 189.536064 
L 767.492605 187.604475 
L 767.821344 189.536064 
L 768.168219 187.604475 
L 772.028097 185.672886 
L 772.356836 187.604475 
L 773.760883 185.672886 
L 776.563589 183.741297 
L 776.892328 185.672886 
L 778.217132 183.741297 
L 781.099081 181.809708 
L 781.42782 183.741297 
L 785.634573 181.809708 
L 785.963312 183.741297 
L 790.170065 181.809708 
L 790.498804 183.741297 
L 793.705497 181.809708 
L 794.705557 179.878119 
L 795.034296 181.809708 
L 795.601748 179.878119 
L 799.206887 177.946531 
L 799.241049 176.014942 
L 799.569788 177.946531 
L 799.934762 176.014942 
L 803.776541 174.083353 
L 804.10528 176.014942 
L 808.312033 174.083353 
L 808.640772 176.014942 
L 808.733835 174.083353 
L 812.847525 172.151764 
L 813.149012 170.220175 
L 813.176264 172.151764 
L 817.383017 170.220175 
L 817.711756 172.151764 
L 818.538669 170.220175 
L 818.550946 168.288586 
L 819.71922 166.356997 
L 821.918509 164.425408 
L 822.247248 166.356997 
L 823.879499 164.425408 
L 826.454001 162.493819 
L 826.78274 164.425408 
L 830.989493 162.493819 
L 831.318232 164.425408 
L 835.524985 162.493819 
L 835.853724 164.425408 
L 838.804211 162.493819 
L 840.060477 160.562231 
L 840.389216 162.493819 
L 840.995094 160.562231 
L 841.427256 158.630642 
L 842.599496 156.699053 
L 844.595969 154.767464 
L 844.924708 156.699053 
L 844.994888 154.767464 
L 849.131461 152.835875 
L 849.4602 154.767464 
L 853.666953 152.835875 
L 853.995692 154.767464 
L 854.89457 152.835875 
L 858.202445 150.904286 
L 858.531183 152.835875 
L 859.30329 150.904286 
L 862.737937 148.972697 
L 863.066675 150.904286 
L 867.273429 148.972697 
L 867.602167 150.904286 
L 870.950128 148.972697 
L 871.808921 147.041108 
L 872.137659 148.972697 
L 876.344413 147.041108 
L 876.673151 148.972697 
L 880.879905 147.041108 
L 881.208643 148.972697 
L 881.691244 147.041108 
L 885.415397 145.109519 
L 885.744135 147.041108 
L 886.146177 145.109519 
L 886.432019 143.177931 
L 889.351628 141.246342 
L 889.950889 139.314753 
L 890.279627 141.246342 
L 890.293665 139.314753 
L 894.486381 137.383164 
L 894.815119 139.314753 
L 895.357626 137.383164 
L 897.110567 135.451575 
L 899.021873 133.519986 
L 899.350611 135.451575 
L 901.860099 133.519986 
L 903.557365 131.588397 
L 903.886103 133.519986 
L 907.032939 131.588397 
L 908.092857 129.656808 
L 908.421595 131.588397 
L 909.374175 129.656808 
L 910.609422 127.725219 
L 912.628349 125.793631 
L 912.957087 127.725219 
L 913.886779 125.793631 
L 915.967442 123.862042 
L 917.163841 121.930453 
L 917.492579 123.862042 
L 920.034353 121.930453 
L 921.699333 119.998864 
L 922.028071 121.930453 
L 924.887704 119.998864 
L 926.234825 118.067275 
L 926.563563 119.998864 
L 927.225512 118.067275 
L 929.192552 116.135686 
L 930.770317 114.204097 
L 931.099055 116.135686 
L 935.305809 114.204097 
L 935.634547 116.135686 
L 939.841301 114.204097 
L 940.170039 116.135686 
L 941.77743 114.204097 
L 942.323767 112.272508 
L 944.376793 110.340919 
L 944.705531 112.272508 
L 947.757973 110.340919 
L 948.051345 108.409331 
L 948.720928 106.477742 
L 948.912285 104.546153 
L 949.241023 106.477742 
L 950.090443 104.546153 
L 953.447777 102.614564 
L 953.776515 104.546153 
L 957.983269 102.614564 
L 958.312007 104.546153 
L 959.381775 102.614564 
L 962.518761 100.682975 
L 962.847499 102.614564 
L 967.054253 100.682975 
L 967.382991 102.614564 
L 971.589745 100.682975 
L 971.837379 98.751386 
L 971.918483 100.682975 
L 976.125237 98.751386 
L 976.453975 100.682975 
L 976.687321 98.751386 
L 980.633562 96.819797 
L 980.660729 94.888208 
L 980.989467 96.819797 
L 985.196221 94.888208 
L 985.524959 96.819797 
L 989.537292 94.888208 
L 989.731713 92.956619 
L 990.060451 94.888208 
L 992.535614 92.956619 
L 993.752138 91.025031 
L 994.267205 89.093442 
L 994.595943 91.025031 
L 998.799522 89.093442 
L 998.802697 87.161853 
L 999.131435 89.093442 
L 1003.338189 87.161853 
L 1003.422981 85.230264 
L 1003.666927 87.161853 
L 1007.873681 85.230264 
L 1007.875859 83.298675 
L 1008.202419 85.230264 
L 1011.367561 83.298675 
L 1012.409173 81.367086 
L 1012.737911 83.298675 
L 1013.002673 79.435497 
L 1016.742511 77.503908 
L 1017.14656 73.640731 
L 1017.273403 75.572319 
L 1021.480157 73.640731 
L 1021.808895 75.572319 
L 1022.115871 73.640731 
L 1022.250234 71.709142 
L 1022.255714 69.777553 
L 1025.727811 67.845964 
L 1026.015649 65.914375 
L 1026.344387 67.845964 
L 1030.551141 65.914375 
L 1030.879879 67.845964 
L 1030.879879 67.845964 
" clip-path="url(#pcaf77a7094)" style="fill: none; stroke: #1f77b4; stroke-width: 1.5; stroke-linecap: square"/>
   </g>
   <g id="patch_3">
    <path d="M 87.951094 522.25225 
L 87.951094 44.184 
" style="fill: none; stroke: #000000; stroke-width: 0.8; stroke-linejoin: miter; stroke-linecap: square"/>
   </g>
   <g id="patch_4">
    <path d="M 1075.78125 522.25225 
L 1075.78125 44.184 
" style="fill: none; stroke: #000000; stroke-width: 0.8; stroke-linejoin: miter; stroke-linecap: square"/>
   </g>
   <g id="patch_5">
    <path d="M 87.951094 522.25225 
L 1075.78125 522.25225 
" style="fill: none; stroke: #000000; stroke-width: 0.8; stroke-linejoin: miter; stroke-linecap: square"/>
   </g>
   <g id="patch_6">
    <path d="M 87.951094 44.184 
L 1075.78125 44.184 
" style="fill: none; stroke: #000000; stroke-width: 0.8; stroke-linejoin: miter; stroke-linecap: square"/>
   </g>
   <g id="text_15">
    <!-- Buffer Size in Network.node[2].lnk[0] -->
    <g transform="translate(470.274609 38.184)scale(0.12 -0.12)">
     <defs>
      <path id="DejaVuSans-42" d="M 1259 2228 
L 1259 519 
L 2272 519 
Q 2781 519 3026 730 
Q 3272 941 3272 1375 
Q 3272 1813 3026 2020 
Q 2781 2228 2272 2228 
L 1259 2228 
z
M 1259 4147 
L 1259 2741 
L 2194 2741 
Q 2656 2741 2882 2914 
Q 3109 3088 3109 3444 
Q 3109 3797 2882 3972 
Q 2656 4147 2194 4147 
L 1259 4147 
z
M 628 4666 
L 2241 4666 
Q 2963 4666 3353 4366 
Q 3744 4066 3744 3513 
Q 3744 3084 3544 2831 
Q 3344 2578 2956 2516 
Q 3422 2416 3680 2098 
Q 3938 1781 3938 1306 
Q 3938 681 3513 340 
Q 3088 0 2303 0 
L 628 0 
L 628 4666 
z
" transform="scale(0.015625)"/>
      <path id="DejaVuSans-75" d="M 544 1381 
L 544 3500 
L 1119 3500 
L 1119 1403 
Q 1119 906 1312 657 
Q 1506 409 1894 409 
Q 2359 409 2629 706 
Q 2900 1003 2900 1516 
L 2900 3500 
L 3475 3500 
L 3475 0 
L 2900 0 
L 2900 538 
Q 2691 219 2414 64 
Q 2138 -91 1772 -91 
Q 1169 -91 856 284 
Q 544 659 544 1381 
z
M 1991 3584 
L 1991 3584 
z
" transform="scale(0.015625)"/>
      <path id="DejaVuSans-66" d="M 2375 4863 
L 2375 4384 
L 1825 4384 
Q 1516 4384 1395 4259 
Q 1275 4134 1275 3809 
L 1275 3500 
L 2222 3500 
L 2222 3053 
L 1275 3053 
L 1275 0 
L 697 0 
L 697 3053 
L 147 3053 
L 147 3500 
L 697 3500 
L 697 3744 
Q 697 4328 969 4595 
Q 1241 4863 1831 4863 
L 2375 4863 
z
" transform="scale(0.015625)"/>
      <path id="DejaVuSans-65" d="M 3597 1894 
L 3597 1613 
L 953 1613 
Q 991 1019 1311 708 
Q 1631 397 2203 397 
Q 2534 397 2845 478 
Q 3156 559 3463 722 
L 3463 178 
Q 3153 47 2828 -22 
Q 2503 -91 2169 -91 
Q 1331 -91 842 396 
Q 353 884 353 1716 
Q 353 2575 817 3079 
Q 1281 3584 2069 3584 
Q 2775 3584 3186 3129 
Q 3597 2675 3597 1894 
z
M 3022 2063 
Q 3016 2534 2758 2815 
Q 2500 3097 2075 3097 
Q 1594 3097 1305 2825 
Q 1016 2553 972 2059 
L 3022 2063 
z
" transform="scale(0.015625)"/>
      <path id="DejaVuSans-72" d="M 2631 2963 
Q 2534 3019 2420 3045 
Q 2306 3072 2169 3072 
Q 1681 3072 1420 2755 
Q 1159 2438 1159 1844 
L 1159 0 
L 581 0 
L 581 3500 
L 1159 3500 
L 1159 2956 
Q 1341 3275 1631 3429 
Q 1922 3584 2338 3584 
Q 2397 3584 2469 3576 
Q 2541 3569 2628 3553 
L 2631 2963 
z
" transform="scale(0.015625)"/>
      <path id="DejaVuSans-20" transform="scale(0.015625)"/>
      <path id="DejaVuSans-53" d="M 3425 4513 
L 3425 3897 
Q 3066 4069 2747 4153 
Q 2428 4238 2131 4238 
Q 1616 4238 1336 4038 
Q 1056 3838 1056 3469 
Q 1056 3159 1242 3001 
Q 1428 2844 1947 2747 
L 2328 2669 
Q 3034 2534 3370 2195 
Q 3706 1856 3706 1288 
Q 3706 609 3251 259 
Q 2797 -91 1919 -91 
Q 1588 -91 1214 -16 
Q 841 59 441 206 
L 441 856 
Q 825 641 1194 531 
Q 1563 422 1919 422 
Q 2459 422 2753 634 
Q 3047 847 3047 1241 
Q 3047 1584 2836 1778 
Q 2625 1972 2144 2069 
L 1759 2144 
Q 1053 2284 737 2584 
Q 422 2884 422 3419 
Q 422 4038 858 4394 
Q 1294 4750 2059 4750 
Q 2388 4750 2728 4690 
Q 3069 4631 3425 4513 
z
" transform="scale(0.015625)"/>
      <path id="DejaVuSans-69" d="M 603 3500 
L 1178 3500 
L 1178 0 
L 603 0 
L 603 3500 
z
M 603 4863 
L 1178 4863 
L 1178 4134 
L 603 4134 
L 603 4863 
z
" transform="scale(0.015625)"/>
      <path id="DejaVuSans-7a" d="M 353 3500 
L 3084 3500 
L 3084 2975 
L 922 459 
L 3084 459 
L 3084 0 
L 275 0 
L 275 525 
L 2438 3041 
L 353 3041 
L 353 3500 
z
" transform="scale(0.015625)"/>
      <path id="DejaVuSans-6e" d="M 3513 2113 
L 3513 0 
L 2938 0 
L 2938 2094 
Q 2938 2591 2744 2837 
Q 2550 3084 2163 3084 
Q 1697 3084 1428 2787 
Q 1159 2491 1159 1978 
L 1159 0 
L 581 0 
L 581 3500 
L 1159 3500 
L 1159 2956 
Q 1366 3272 1645 3428 
Q 1925 3584 2291 3584 
Q 2894 3584 3203 3211 
Q 3513 2838 3513 2113 
z
" transform="scale(0.015625)"/>
      <path id="DejaVuSans-4e" d="M 628 4666 
L 1478 4666 
L 3547 763 
L 3547 4666 
L 4159 4666 
L 4159 0 
L 3309 0 
L 1241 3903 
L 1241 0 
L 628 0 
L 628 4666 
z
" transform="scale(0.015625)"/>
      <path id="DejaVuSans-74" d="M 1172 4494 
L 1172 3500 
L 2356 3500 
L 2356 3053 
L 1172 3053 
L 1172 1153 
Q 1172 725 1289 603 
Q 1406 481 1766 481 
L 2356 481 
L 2356 0 
L 1766 0 
Q 1100 0 847 248 
Q 594 497 594 1153 
L 594 3053 
L 172 3053 
L 172 3500 
L 594 3500 
L 594 4494 
L 1172 4494 
z
" transform="scale(0.015625)"/>
      <path id="DejaVuSans-77" d="M 269 3500 
L 844 3500 
L 1563 769 
L 2278 3500 
L 2956 3500 
L 3675 769 
L 4391 3500 
L 4966 3500 
L 4050 0 
L 3372 0 
L 2619 2869 
L 1863 0 
L 1184 0 
L 269 3500 
z
" transform="scale(0.015625)"/>
      <path id="DejaVuSans-6f" d="M 1959 3097 
Q 1497 3097 1228 2736 
Q 959 2375 959 1747 
Q 959 1119 1226 758 
Q 1494 397 1959 397 
Q 2419 397 2687 759 
Q 2956 1122 2956 1747 
Q 2956 2369 2687 2733 
Q 2419 3097 1959 3097 
z
M 1959 3584 
Q 2709 3584 3137 3096 
Q 3566 2609 3566 1747 
Q 3566 888 3137 398 
Q 2709 -91 1959 -91 
Q 1206 -91 779 398 
Q 353 888 353 1747 
Q 353 2609 779 3096 
Q 1206 3584 1959 3584 
z
" transform="scale(0.015625)"/>
      <path id="DejaVuSans-6b" d="M 581 4863 
L 1159 4863 
L 1159 1991 
L 2875 3500 
L 3609 3500 
L 1753 1863 
L 3688 0 
L 2938 0 
L 1159 1709 
L 1159 0 
L 581 0 
L 581 4863 
z
" transform="scale(0.015625)"/>
      <path id="DejaVuSans-2e" d="M 684 794 
L 1344 794 
L 1344 0 
L 684 0 
L 684 794 
z
" transform="scale(0.015625)"/>
      <path id="DejaVuSans-64" d="M 2906 2969 
L 2906 4863 
L 3481 4863 
L 3481 0 
L 2906 0 
L 2906 525 
Q 2725 213 2448 61 
Q 2172 -91 1784 -91 
Q 1150 -91 751 415 
Q 353 922 353 1747 
Q 353 2572 751 3078 
Q 1150 3584 1784 3584 
Q 2172 3584 2448 3432 
Q 2725 3281 2906 2969 
z
M 947 1747 
Q 947 1113 1208 752 
Q 1469 391 1925 391 
Q 2381 391 2643 752 
Q 2906 1113 2906 1747 
Q 2906 2381 2643 2742 
Q 2381 3103 1925 3103 
Q 1469 3103 1208 2742 
Q 947 2381 947 1747 
z
" transform="scale(0.015625)"/>
      <path id="DejaVuSans-5b" d="M 550 4863 
L 1875 4863 
L 1875 4416 
L 1125 4416 
L 1125 -397 
L 1875 -397 
L 1875 -844 
L 550 -844 
L 550 4863 
z
" transform="scale(0.015625)"/>
      <path id="DejaVuSans-5d" d="M 1947 4863 
L 1947 -844 
L 622 -844 
L 622 -397 
L 1369 -397 
L 1369 4416 
L 622 4416 
L 622 4863 
L 1947 4863 
z
" transform="scale(0.015625)"/>
      <path id="DejaVuSans-6c" d="M 603 4863 
L 1178 4863 
L 1178 0 
L 603 0 
L 603 4863 
z
" transform="scale(0.015625)"/>
     </defs>
     <use xlink:href="#DejaVuSans-42"/>
     <use xlink:href="#DejaVuSans-75" x="68.603516"/>
     <use xlink:href="#DejaVuSans-66" x="131.982422"/>
     <use xlink:href="#DejaVuSans-66" x="167.1875"/>
     <use xlink:href="#DejaVuSans-65" x="202.392578"/>
     <use xlink:href="#DejaVuSans-72" x="263.916016"/>
     <use xlink:href="#DejaVuSans-20" x="305.029297"/>
     <use xlink:href="#DejaVuSans-53" x="336.816406"/>
     <use xlink:href="#DejaVuSans-69" x="400.292969"/>
     <use xlink:href="#DejaVuSans-7a" x="428.076172"/>
     <use xlink:href="#DejaVuSans-65" x="480.566406"/>
     <use xlink:href="#DejaVuSans-20" x="542.089844"/>
     <use xlink:href="#DejaVuSans-69" x="573.876953"/>
     <use xlink:href="#DejaVuSans-6e" x="601.660156"/>
     <use xlink:href="#DejaVuSans-20" x="665.039062"/>
     <use xlink:href="#DejaVuSans-4e" x="696.826172"/>
     <use xlink:href="#DejaVuSans-65" x="771.630859"/>
     <use xlink:href="#DejaVuSans-74" x="833.154297"/>
     <use xlink:href="#DejaVuSans-77" x="872.363281"/>
     <use xlink:href="#DejaVuSans-6f" x="954.150391"/>
     <use xlink:href="#DejaVuSans-72" x="1015.332031"/>
     <use xlink:href="#DejaVuSans-6b" x="1056.445312"/>
     <use xlink:href="#DejaVuSans-2e" x="1114.355469"/>
     <use xlink:href="#DejaVuSans-6e" x="1146.142578"/>
     <use xlink:href="#DejaVuSans-6f" x="1209.521484"/>
     <use xlink:href="#DejaVuSans-64" x="1270.703125"/>
     <use xlink:href="#DejaVuSans-65" x="1334.179688"/>
     <use xlink:href="#DejaVuSans-5b" x="1395.703125"/>
     <use xlink:href="#DejaVuSans-32" x="1434.716797"/>
     <use xlink:href="#DejaVuSans-5d" x="1498.339844"/>
     <use xlink:href="#DejaVuSans-2e" x="1537.353516"/>
     <use xlink:href="#DejaVuSans-6c" x="1569.140625"/>
     <use xlink:href="#DejaVuSans-6e" x="1596.923828"/>
     <use xlink:href="#DejaVuSans-6b" x="1660.302734"/>
     <use xlink:href="#DejaVuSans-5b" x="1718.212891"/>
     <use xlink:href="#DejaVuSans-30" x="1757.226562"/>
     <use xlink:href="#DejaVuSans-5d" x="1820.849609"/>
    </g>
   </g>
   <g id="legend_1">
    <g id="patch_7">
     <path d="M 848.795313 66.862125 
L 1070.78125 66.862125 
L 1070.78125 49.184 
L 848.795313 49.184 
z
" style="fill: #ffffff; opacity: 0.8; stroke: #cccccc; stroke-linejoin: miter"/>
    </g>
    <g id="line2d_30">
     <path d="M 852.795313 57.282438 
L 862.795313 57.282438 
L 872.795313 57.282438 
" style="fill: none; stroke: #1f77b4; stroke-width: 1.5; stroke-linecap: square"/>
    </g>
    <g id="text_16">
     <!-- Buffer Size in Network.node[2].lnk[0] -->
     <g transform="translate(880.795313 60.782438)scale(0.1 -0.1)">
      <use xlink:href="#DejaVuSans-42"/>
      <use xlink:href="#DejaVuSans-75" x="68.603516"/>
      <use xlink:href="#DejaVuSans-66" x="131.982422"/>
      <use xlink:href="#DejaVuSans-66" x="167.1875"/>
      <use xlink:href="#DejaVuSans-65" x="202.392578"/>
      <use xlink:href="#DejaVuSans-72" x="263.916016"/>
      <use xlink:href="#DejaVuSans-20" x="305.029297"/>
      <use xlink:href="#DejaVuSans-53" x="336.816406"/>
      <use xlink:href="#DejaVuSans-69" x="400.292969"/>
      <use xlink:href="#DejaVuSans-7a" x="428.076172"/>
      <use xlink:href="#DejaVuSans-65" x="480.566406"/>
      <use xlink:href="#DejaVuSans-20" x="542.089844"/>
      <use xlink:href="#DejaVuSans-69" x="573.876953"/>
      <use xlink:href="#DejaVuSans-6e" x="601.660156"/>
      <use xlink:href="#DejaVuSans-20" x="665.039062"/>
      <use xlink:href="#DejaVuSans-4e" x="696.826172"/>
      <use xlink:href="#DejaVuSans-65" x="771.630859"/>
      <use xlink:href="#DejaVuSans-74" x="833.154297"/>
      <use xlink:href="#DejaVuSans-77" x="872.363281"/>
      <use xlink:href="#DejaVuSans-6f" x="954.150391"/>
      <use xlink:href="#DejaVuSans-72" x="1015.332031"/>
      <use xlink:href="#DejaVuSans-6b" x="1056.445312"/>
      <use xlink:href="#DejaVuSans-2e" x="1114.355469"/>
      <use xlink:href="#DejaVuSans-6e" x="1146.142578"/>
      <use xlink:href="#DejaVuSans-6f" x="1209.521484"/>
      <use xlink:href="#DejaVuSans-64" x="1270.703125"/>
      <use xlink:href="#DejaVuSans-65" x="1334.179688"/>
      <use xlink:href="#DejaVuSans-5b" x="1395.703125"/>
      <use xlink:href="#DejaVuSans-32" x="1434.716797"/>
      <use xlink:href="#DejaVuSans-5d" x="1498.339844"/>
      <use xlink:href="#DejaVuSans-2e" x="1537.353516"/>
      <use xlink:href="#DejaVuSans-6c" x="1569.140625"/>
      <use xlink:href="#DejaVuSans-6e" x="1596.923828"/>
      <use xlink:href="#DejaVuSans-6b" x="1660.302734"/>
      <use xlink:href="#DejaVuSans-5b" x="1718.212891"/>
      <use xlink:href="#DejaVuSans-30" x="1757.226562"/>
      <use xlink:href="#DejaVuSans-5d" x="1820.849609"/>
     </g>
    </g>
   </g>
  </g>
 </g>
 <defs>
  <clipPath id="pcaf77a7094">
   <rect x="87.951094" y="44.184" width="987.830156" height="478.06825"/>
  </clipPath>
 </defs>
</svg>
