<?xml version="1.0" encoding="utf-8" standalone="no"?>
<!DOCTYPE svg PUBLIC "-//W3C//DTD SVG 1.1//EN"
  "http://www.w3.org/Graphics/SVG/1.1/DTD/svg11.dtd">
<svg xmlns:xlink="http://www.w3.org/1999/xlink" width="1101.6pt" height="568.08pt" viewBox="0 0 1101.6 568.08" xmlns="http://www.w3.org/2000/svg" version="1.1">
 <metadata>
  <rdf:RDF xmlns:dc="http://purl.org/dc/elements/1.1/" xmlns:cc="http://creativecommons.org/ns#" xmlns:rdf="http://www.w3.org/1999/02/22-rdf-syntax-ns#">
   <cc:Work>
    <dc:type rdf:resource="http://purl.org/dc/dcmitype/StillImage"/>
    <dc:date>2023-05-23T19:36:29.247123</dc:date>
    <dc:format>image/svg+xml</dc:format>
    <dc:creator>
     <cc:Agent>
      <dc:title>Matplotlib v3.5.2, https://matplotlib.org/</dc:title>
     </cc:Agent>
    </dc:creator>
   </cc:Work>
  </rdf:RDF>
 </metadata>
 <defs>
  <style type="text/css">*{stroke-linejoin: round; stroke-linecap: butt}</style>
 </defs>
 <g id="figure_1">
  <g id="patch_1">
   <path d="M 0 568.08 
L 1101.6 568.08 
L 1101.6 0 
L 0 0 
z
" style="fill: #ffffff"/>
  </g>
  <g id="axes_1">
   <g id="patch_2">
    <path d="M 87.951094 522.25225 
L 1075.78125 522.25225 
L 1075.78125 44.184 
L 87.951094 44.184 
z
" style="fill: #ffffff"/>
   </g>
   <g id="matplotlib.axis_1">
    <g id="xtick_1">
     <g id="line2d_1">
      <path d="M 124.330438 522.25225 
L 124.330438 44.184 
" clip-path="url(#p9c69598d74)" style="fill: none; stroke: #b0b0b0; stroke-width: 0.8; stroke-linecap: square"/>
     </g>
     <g id="line2d_2">
      <defs>
       <path id="m54b6ac74d6" d="M 0 0 
L 0 3.5 
" style="stroke: #000000; stroke-width: 0.8"/>
      </defs>
      <g>
       <use xlink:href="#m54b6ac74d6" x="124.330438" y="522.25225" style="stroke: #000000; stroke-width: 0.8"/>
      </g>
     </g>
     <g id="text_1">
      <!-- 0 -->
      <g transform="translate(121.149188 536.850687)scale(0.1 -0.1)">
       <defs>
        <path id="DejaVuSans-30" d="M 2034 4250 
Q 1547 4250 1301 3770 
Q 1056 3291 1056 2328 
Q 1056 1369 1301 889 
Q 1547 409 2034 409 
Q 2525 409 2770 889 
Q 3016 1369 3016 2328 
Q 3016 3291 2770 3770 
Q 2525 4250 2034 4250 
z
M 2034 4750 
Q 2819 4750 3233 4129 
Q 3647 3509 3647 2328 
Q 3647 1150 3233 529 
Q 2819 -91 2034 -91 
Q 1250 -91 836 529 
Q 422 1150 422 2328 
Q 422 3509 836 4129 
Q 1250 4750 2034 4750 
z
" transform="scale(0.015625)"/>
       </defs>
       <use xlink:href="#DejaVuSans-30"/>
      </g>
     </g>
    </g>
    <g id="xtick_2">
     <g id="line2d_3">
      <path d="M 237.717738 522.25225 
L 237.717738 44.184 
" clip-path="url(#p9c69598d74)" style="fill: none; stroke: #b0b0b0; stroke-width: 0.8; stroke-linecap: square"/>
     </g>
     <g id="line2d_4">
      <g>
       <use xlink:href="#m54b6ac74d6" x="237.717738" y="522.25225" style="stroke: #000000; stroke-width: 0.8"/>
      </g>
     </g>
     <g id="text_2">
      <!-- 25 -->
      <g transform="translate(231.355238 536.850687)scale(0.1 -0.1)">
       <defs>
        <path id="DejaVuSans-32" d="M 1228 531 
L 3431 531 
L 3431 0 
L 469 0 
L 469 531 
Q 828 903 1448 1529 
Q 2069 2156 2228 2338 
Q 2531 2678 2651 2914 
Q 2772 3150 2772 3378 
Q 2772 3750 2511 3984 
Q 2250 4219 1831 4219 
Q 1534 4219 1204 4116 
Q 875 4013 500 3803 
L 500 4441 
Q 881 4594 1212 4672 
Q 1544 4750 1819 4750 
Q 2544 4750 2975 4387 
Q 3406 4025 3406 3419 
Q 3406 3131 3298 2873 
Q 3191 2616 2906 2266 
Q 2828 2175 2409 1742 
Q 1991 1309 1228 531 
z
" transform="scale(0.015625)"/>
        <path id="DejaVuSans-35" d="M 691 4666 
L 3169 4666 
L 3169 4134 
L 1269 4134 
L 1269 2991 
Q 1406 3038 1543 3061 
Q 1681 3084 1819 3084 
Q 2600 3084 3056 2656 
Q 3513 2228 3513 1497 
Q 3513 744 3044 326 
Q 2575 -91 1722 -91 
Q 1428 -91 1123 -41 
Q 819 9 494 109 
L 494 744 
Q 775 591 1075 516 
Q 1375 441 1709 441 
Q 2250 441 2565 725 
Q 2881 1009 2881 1497 
Q 2881 1984 2565 2268 
Q 2250 2553 1709 2553 
Q 1456 2553 1204 2497 
Q 953 2441 691 2322 
L 691 4666 
z
" transform="scale(0.015625)"/>
       </defs>
       <use xlink:href="#DejaVuSans-32"/>
       <use xlink:href="#DejaVuSans-35" x="63.623047"/>
      </g>
     </g>
    </g>
    <g id="xtick_3">
     <g id="line2d_5">
      <path d="M 351.105038 522.25225 
L 351.105038 44.184 
" clip-path="url(#p9c69598d74)" style="fill: none; stroke: #b0b0b0; stroke-width: 0.8; stroke-linecap: square"/>
     </g>
     <g id="line2d_6">
      <g>
       <use xlink:href="#m54b6ac74d6" x="351.105038" y="522.25225" style="stroke: #000000; stroke-width: 0.8"/>
      </g>
     </g>
     <g id="text_3">
      <!-- 50 -->
      <g transform="translate(344.742538 536.850687)scale(0.1 -0.1)">
       <use xlink:href="#DejaVuSans-35"/>
       <use xlink:href="#DejaVuSans-30" x="63.623047"/>
      </g>
     </g>
    </g>
    <g id="xtick_4">
     <g id="line2d_7">
      <path d="M 464.492338 522.25225 
L 464.492338 44.184 
" clip-path="url(#p9c69598d74)" style="fill: none; stroke: #b0b0b0; stroke-width: 0.8; stroke-linecap: square"/>
     </g>
     <g id="line2d_8">
      <g>
       <use xlink:href="#m54b6ac74d6" x="464.492338" y="522.25225" style="stroke: #000000; stroke-width: 0.8"/>
      </g>
     </g>
     <g id="text_4">
      <!-- 75 -->
      <g transform="translate(458.129838 536.850687)scale(0.1 -0.1)">
       <defs>
        <path id="DejaVuSans-37" d="M 525 4666 
L 3525 4666 
L 3525 4397 
L 1831 0 
L 1172 0 
L 2766 4134 
L 525 4134 
L 525 4666 
z
" transform="scale(0.015625)"/>
       </defs>
       <use xlink:href="#DejaVuSans-37"/>
       <use xlink:href="#DejaVuSans-35" x="63.623047"/>
      </g>
     </g>
    </g>
    <g id="xtick_5">
     <g id="line2d_9">
      <path d="M 577.879637 522.25225 
L 577.879637 44.184 
" clip-path="url(#p9c69598d74)" style="fill: none; stroke: #b0b0b0; stroke-width: 0.8; stroke-linecap: square"/>
     </g>
     <g id="line2d_10">
      <g>
       <use xlink:href="#m54b6ac74d6" x="577.879637" y="522.25225" style="stroke: #000000; stroke-width: 0.8"/>
      </g>
     </g>
     <g id="text_5">
      <!-- 100 -->
      <g transform="translate(568.335887 536.850687)scale(0.1 -0.1)">
       <defs>
        <path id="DejaVuSans-31" d="M 794 531 
L 1825 531 
L 1825 4091 
L 703 3866 
L 703 4441 
L 1819 4666 
L 2450 4666 
L 2450 531 
L 3481 531 
L 3481 0 
L 794 0 
L 794 531 
z
" transform="scale(0.015625)"/>
       </defs>
       <use xlink:href="#DejaVuSans-31"/>
       <use xlink:href="#DejaVuSans-30" x="63.623047"/>
       <use xlink:href="#DejaVuSans-30" x="127.246094"/>
      </g>
     </g>
    </g>
    <g id="xtick_6">
     <g id="line2d_11">
      <path d="M 691.266937 522.25225 
L 691.266937 44.184 
" clip-path="url(#p9c69598d74)" style="fill: none; stroke: #b0b0b0; stroke-width: 0.8; stroke-linecap: square"/>
     </g>
     <g id="line2d_12">
      <g>
       <use xlink:href="#m54b6ac74d6" x="691.266937" y="522.25225" style="stroke: #000000; stroke-width: 0.8"/>
      </g>
     </g>
     <g id="text_6">
      <!-- 125 -->
      <g transform="translate(681.723187 536.850687)scale(0.1 -0.1)">
       <use xlink:href="#DejaVuSans-31"/>
       <use xlink:href="#DejaVuSans-32" x="63.623047"/>
       <use xlink:href="#DejaVuSans-35" x="127.246094"/>
      </g>
     </g>
    </g>
    <g id="xtick_7">
     <g id="line2d_13">
      <path d="M 804.654237 522.25225 
L 804.654237 44.184 
" clip-path="url(#p9c69598d74)" style="fill: none; stroke: #b0b0b0; stroke-width: 0.8; stroke-linecap: square"/>
     </g>
     <g id="line2d_14">
      <g>
       <use xlink:href="#m54b6ac74d6" x="804.654237" y="522.25225" style="stroke: #000000; stroke-width: 0.8"/>
      </g>
     </g>
     <g id="text_7">
      <!-- 150 -->
      <g transform="translate(795.110487 536.850687)scale(0.1 -0.1)">
       <use xlink:href="#DejaVuSans-31"/>
       <use xlink:href="#DejaVuSans-35" x="63.623047"/>
       <use xlink:href="#DejaVuSans-30" x="127.246094"/>
      </g>
     </g>
    </g>
    <g id="xtick_8">
     <g id="line2d_15">
      <path d="M 918.041537 522.25225 
L 918.041537 44.184 
" clip-path="url(#p9c69598d74)" style="fill: none; stroke: #b0b0b0; stroke-width: 0.8; stroke-linecap: square"/>
     </g>
     <g id="line2d_16">
      <g>
       <use xlink:href="#m54b6ac74d6" x="918.041537" y="522.25225" style="stroke: #000000; stroke-width: 0.8"/>
      </g>
     </g>
     <g id="text_8">
      <!-- 175 -->
      <g transform="translate(908.497787 536.850687)scale(0.1 -0.1)">
       <use xlink:href="#DejaVuSans-31"/>
       <use xlink:href="#DejaVuSans-37" x="63.623047"/>
       <use xlink:href="#DejaVuSans-35" x="127.246094"/>
      </g>
     </g>
    </g>
    <g id="xtick_9">
     <g id="line2d_17">
      <path d="M 1031.428837 522.25225 
L 1031.428837 44.184 
" clip-path="url(#p9c69598d74)" style="fill: none; stroke: #b0b0b0; stroke-width: 0.8; stroke-linecap: square"/>
     </g>
     <g id="line2d_18">
      <g>
       <use xlink:href="#m54b6ac74d6" x="1031.428837" y="522.25225" style="stroke: #000000; stroke-width: 0.8"/>
      </g>
     </g>
     <g id="text_9">
      <!-- 200 -->
      <g transform="translate(1021.885087 536.850687)scale(0.1 -0.1)">
       <use xlink:href="#DejaVuSans-32"/>
       <use xlink:href="#DejaVuSans-30" x="63.623047"/>
       <use xlink:href="#DejaVuSans-30" x="127.246094"/>
      </g>
     </g>
    </g>
   </g>
   <g id="matplotlib.axis_2">
    <g id="ytick_1">
     <g id="line2d_19">
      <path d="M 87.951094 500.521875 
L 1075.78125 500.521875 
" clip-path="url(#p9c69598d74)" style="fill: none; stroke: #b0b0b0; stroke-width: 0.8; stroke-linecap: square"/>
     </g>
     <g id="line2d_20">
      <defs>
       <path id="m6be282c238" d="M 0 0 
L -3.5 0 
" style="stroke: #000000; stroke-width: 0.8"/>
      </defs>
      <g>
       <use xlink:href="#m6be282c238" x="87.951094" y="500.521875" style="stroke: #000000; stroke-width: 0.8"/>
      </g>
     </g>
     <g id="text_10">
      <!-- 0 -->
      <g transform="translate(74.588594 504.321094)scale(0.1 -0.1)">
       <use xlink:href="#DejaVuSans-30"/>
      </g>
     </g>
    </g>
    <g id="ytick_2">
     <g id="line2d_21">
      <path d="M 87.951094 437.717323 
L 1075.78125 437.717323 
" clip-path="url(#p9c69598d74)" style="fill: none; stroke: #b0b0b0; stroke-width: 0.8; stroke-linecap: square"/>
     </g>
     <g id="line2d_22">
      <g>
       <use xlink:href="#m6be282c238" x="87.951094" y="437.717323" style="stroke: #000000; stroke-width: 0.8"/>
      </g>
     </g>
     <g id="text_11">
      <!-- 25 -->
      <g transform="translate(68.226094 441.516542)scale(0.1 -0.1)">
       <use xlink:href="#DejaVuSans-32"/>
       <use xlink:href="#DejaVuSans-35" x="63.623047"/>
      </g>
     </g>
    </g>
    <g id="ytick_3">
     <g id="line2d_23">
      <path d="M 87.951094 374.912771 
L 1075.78125 374.912771 
" clip-path="url(#p9c69598d74)" style="fill: none; stroke: #b0b0b0; stroke-width: 0.8; stroke-linecap: square"/>
     </g>
     <g id="line2d_24">
      <g>
       <use xlink:href="#m6be282c238" x="87.951094" y="374.912771" style="stroke: #000000; stroke-width: 0.8"/>
      </g>
     </g>
     <g id="text_12">
      <!-- 50 -->
      <g transform="translate(68.226094 378.71199)scale(0.1 -0.1)">
       <use xlink:href="#DejaVuSans-35"/>
       <use xlink:href="#DejaVuSans-30" x="63.623047"/>
      </g>
     </g>
    </g>
    <g id="ytick_4">
     <g id="line2d_25">
      <path d="M 87.951094 312.108219 
L 1075.78125 312.108219 
" clip-path="url(#p9c69598d74)" style="fill: none; stroke: #b0b0b0; stroke-width: 0.8; stroke-linecap: square"/>
     </g>
     <g id="line2d_26">
      <g>
       <use xlink:href="#m6be282c238" x="87.951094" y="312.108219" style="stroke: #000000; stroke-width: 0.8"/>
      </g>
     </g>
     <g id="text_13">
      <!-- 75 -->
      <g transform="translate(68.226094 315.907438)scale(0.1 -0.1)">
       <use xlink:href="#DejaVuSans-37"/>
       <use xlink:href="#DejaVuSans-35" x="63.623047"/>
      </g>
     </g>
    </g>
    <g id="ytick_5">
     <g id="line2d_27">
      <path d="M 87.951094 249.303667 
L 1075.78125 249.303667 
" clip-path="url(#p9c69598d74)" style="fill: none; stroke: #b0b0b0; stroke-width: 0.8; stroke-linecap: square"/>
     </g>
     <g id="line2d_28">
      <g>
       <use xlink:href="#m6be282c238" x="87.951094" y="249.303667" style="stroke: #000000; stroke-width: 0.8"/>
      </g>
     </g>
     <g id="text_14">
      <!-- 100 -->
      <g transform="translate(61.863594 253.102886)scale(0.1 -0.1)">
       <use xlink:href="#DejaVuSans-31"/>
       <use xlink:href="#DejaVuSans-30" x="63.623047"/>
       <use xlink:href="#DejaVuSans-30" x="127.246094"/>
      </g>
     </g>
    </g>
    <g id="ytick_6">
     <g id="line2d_29">
      <path d="M 87.951094 186.499115 
L 1075.78125 186.499115 
" clip-path="url(#p9c69598d74)" style="fill: none; stroke: #b0b0b0; stroke-width: 0.8; stroke-linecap: square"/>
     </g>
     <g id="line2d_30">
      <g>
       <use xlink:href="#m6be282c238" x="87.951094" y="186.499115" style="stroke: #000000; stroke-width: 0.8"/>
      </g>
     </g>
     <g id="text_15">
      <!-- 125 -->
      <g transform="translate(61.863594 190.298334)scale(0.1 -0.1)">
       <use xlink:href="#DejaVuSans-31"/>
       <use xlink:href="#DejaVuSans-32" x="63.623047"/>
       <use xlink:href="#DejaVuSans-35" x="127.246094"/>
      </g>
     </g>
    </g>
    <g id="ytick_7">
     <g id="line2d_31">
      <path d="M 87.951094 123.694563 
L 1075.78125 123.694563 
" clip-path="url(#p9c69598d74)" style="fill: none; stroke: #b0b0b0; stroke-width: 0.8; stroke-linecap: square"/>
     </g>
     <g id="line2d_32">
      <g>
       <use xlink:href="#m6be282c238" x="87.951094" y="123.694563" style="stroke: #000000; stroke-width: 0.8"/>
      </g>
     </g>
     <g id="text_16">
      <!-- 150 -->
      <g transform="translate(61.863594 127.493782)scale(0.1 -0.1)">
       <use xlink:href="#DejaVuSans-31"/>
       <use xlink:href="#DejaVuSans-35" x="63.623047"/>
       <use xlink:href="#DejaVuSans-30" x="127.246094"/>
      </g>
     </g>
    </g>
    <g id="ytick_8">
     <g id="line2d_33">
      <path d="M 87.951094 60.890011 
L 1075.78125 60.890011 
" clip-path="url(#p9c69598d74)" style="fill: none; stroke: #b0b0b0; stroke-width: 0.8; stroke-linecap: square"/>
     </g>
     <g id="line2d_34">
      <g>
       <use xlink:href="#m6be282c238" x="87.951094" y="60.890011" style="stroke: #000000; stroke-width: 0.8"/>
      </g>
     </g>
     <g id="text_17">
      <!-- 175 -->
      <g transform="translate(61.863594 64.68923)scale(0.1 -0.1)">
       <use xlink:href="#DejaVuSans-31"/>
       <use xlink:href="#DejaVuSans-37" x="63.623047"/>
       <use xlink:href="#DejaVuSans-35" x="127.246094"/>
      </g>
     </g>
    </g>
   </g>
   <g id="line2d_35">
    <path d="M 132.852464 498.009693 
L 132.852464 500.521875 
L 133.297588 498.009693 
L 135.818144 495.497511 
L 137.387956 498.009693 
L 137.83308 495.497511 
L 138.080774 492.985329 
L 141.923448 495.497511 
L 142.606678 492.985329 
L 142.818605 490.473147 
L 146.45894 492.985329 
L 147.14217 490.473147 
L 150.994432 492.985329 
L 151.677662 490.473147 
L 152.075056 487.960965 
L 155.529924 490.473147 
L 156.213154 487.960965 
L 158.953292 485.448783 
L 160.065416 487.960965 
L 160.748646 485.448783 
L 164.600908 487.960965 
L 165.284138 485.448783 
L 165.399881 482.9366 
L 166.135249 480.424418 
L 169.1364 482.9366 
L 170.430345 477.912236 
L 172.450991 475.400054 
L 173.671892 477.912236 
L 174.355122 475.400054 
L 178.207384 477.912236 
L 178.890614 475.400054 
L 182.742876 477.912236 
L 183.179852 472.887872 
L 183.795906 470.37569 
L 185.798302 467.863508 
L 186.28648 465.351326 
L 187.278368 467.863508 
L 188.331398 465.351326 
L 191.084243 462.839144 
L 191.81386 465.351326 
L 192.408972 462.839144 
L 192.86689 460.326962 
L 195.256996 457.81478 
L 196.042214 455.302598 
L 196.349352 457.81478 
L 196.572665 455.302598 
L 197.402382 452.790415 
L 200.884844 455.302598 
L 201.937874 450.278233 
L 205.420336 452.790415 
L 206.343664 450.278233 
L 206.473366 447.766051 
L 206.801906 445.253869 
L 209.955828 447.766051 
L 211.008858 445.253869 
L 214.49132 447.766051 
L 215.54435 445.253869 
L 219.026812 447.766051 
L 220.079842 445.253869 
L 223.009888 442.741687 
L 223.562304 445.253869 
L 224.615334 442.741687 
L 228.097796 445.253869 
L 229.150826 442.741687 
L 232.633288 445.253869 
L 232.644348 442.741687 
L 233.091776 440.229505 
L 233.686318 437.717323 
L 237.16878 440.229505 
L 238.22181 437.717323 
L 241.704272 440.229505 
L 242.757302 437.717323 
L 244.613307 435.205141 
L 246.239764 437.717323 
L 246.913709 435.205141 
L 246.935055 432.692959 
L 247.653212 427.668595 
L 250.775256 430.180777 
L 251.477008 427.668595 
L 251.828286 425.156413 
L 254.052733 422.64423 
L 255.310748 425.156413 
L 256.34018 422.64423 
L 256.363778 420.132048 
L 259.84624 422.64423 
L 260.89927 420.132048 
L 260.960299 417.619866 
L 263.665173 415.107684 
L 264.381732 417.619866 
L 265.434762 415.107684 
L 268.917224 417.619866 
L 269.970254 415.107684 
L 273.452716 417.619866 
L 274.505746 415.107684 
L 277.988208 417.619866 
L 279.041238 415.107684 
L 281.095099 412.595502 
L 282.5237 415.107684 
L 283.57673 412.595502 
L 287.059192 415.107684 
L 288.112222 412.595502 
L 291.594684 415.107684 
L 292.647714 412.595502 
L 295.270635 410.08332 
L 296.130176 412.595502 
L 297.183206 410.08332 
L 299.144307 407.571138 
L 300.27855 405.058956 
L 300.665668 407.571138 
L 300.969276 405.058956 
L 301.718698 402.546774 
L 303.565671 400.034592 
L 305.20116 402.546774 
L 306.25419 400.034592 
L 309.085453 397.52241 
L 309.564458 395.010228 
L 309.736652 397.52241 
L 310.040149 395.010228 
L 310.789682 392.498046 
L 314.272144 395.010228 
L 315.325174 392.498046 
L 315.721341 389.985863 
L 315.894972 387.473681 
L 316.699231 384.961499 
L 318.807636 387.473681 
L 319.860666 384.961499 
L 319.919058 382.449317 
L 320.746961 379.937135 
L 323.343128 382.449317 
L 324.396158 379.937135 
L 327.87862 382.449317 
L 328.93165 379.937135 
L 329.291505 377.424953 
L 332.032299 374.912771 
L 332.414112 377.424953 
L 333.467142 374.912771 
L 334.095548 372.400589 
L 335.28534 369.888407 
L 335.338783 367.376225 
L 336.949604 369.888407 
L 338.002634 367.376225 
L 341.485096 369.888407 
L 341.905241 367.376225 
L 342.759252 364.864043 
L 346.020588 367.376225 
L 346.097968 364.864043 
L 346.351367 362.351861 
L 346.412937 359.839678 
L 348.099111 354.815314 
L 350.55608 357.327496 
L 352.70045 354.815314 
L 355.091572 357.327496 
L 357.235942 354.815314 
L 357.514934 352.303132 
L 359.627064 354.815314 
L 361.771434 352.303132 
L 362.961928 349.79095 
L 364.162556 352.303132 
L 366.306926 349.79095 
L 367.004768 347.278768 
L 368.698048 349.79095 
L 368.700527 347.278768 
L 370.842418 344.766586 
L 372.365114 342.254404 
L 373.23354 344.766586 
L 373.484743 342.254404 
L 375.37791 339.742222 
L 377.712988 334.717858 
L 377.769032 337.23004 
L 379.04419 334.717858 
L 379.448548 332.205676 
L 379.913402 327.181311 
L 382.304524 329.693493 
L 382.746695 327.181311 
L 384.448894 324.669129 
L 384.898406 322.156947 
L 385.796287 319.644765 
L 385.909622 317.132583 
L 386.840016 319.644765 
L 388.984386 317.132583 
L 391.375508 319.644765 
L 393.519878 317.132583 
L 394.655684 314.620401 
L 395.911 317.132583 
L 400.446492 319.644765 
L 403.717253 317.132583 
L 404.981984 319.644765 
L 408.252745 317.132583 
L 409.517476 319.644765 
L 414.052968 322.156947 
L 414.780081 319.644765 
L 415.698791 317.132583 
L 418.461108 314.620401 
L 418.58846 317.132583 
L 419.315573 314.620401 
L 421.456814 312.108219 
L 423.123952 314.620401 
L 423.851065 312.108219 
L 427.409684 309.596037 
L 427.527596 307.083855 
L 427.659444 309.596037 
L 428.386557 307.083855 
L 432.194936 309.596037 
L 432.922049 307.083855 
L 433.166804 304.571673 
L 434.102739 302.059491 
L 436.730428 304.571673 
L 437.457541 302.059491 
L 441.26592 304.571673 
L 441.993033 299.547309 
L 445.801412 302.059491 
L 446.528525 299.547309 
L 449.901397 297.035126 
L 450.336904 299.547309 
L 451.013491 297.035126 
L 451.064017 294.522944 
L 454.657268 292.010762 
L 454.872396 294.522944 
L 455.599509 292.010762 
L 455.721548 289.49858 
L 457.255246 286.986398 
L 457.734589 284.474216 
L 457.776693 281.962034 
L 459.407888 284.474216 
L 460.135001 281.962034 
L 462.803876 279.449852 
L 463.94338 281.962034 
L 464.670493 279.449852 
L 468.31763 276.93767 
L 468.478872 279.449852 
L 469.205985 276.93767 
L 473.014364 279.449852 
L 473.741477 276.93767 
L 475.343161 274.425488 
L 477.549856 276.93767 
L 482.085348 279.449852 
L 484.700557 276.93767 
L 486.62084 279.449852 
L 488.868908 276.93767 
L 491.156332 279.449852 
L 491.982102 276.93767 
L 495.691824 279.449852 
L 497.311416 274.425488 
L 500.227316 276.93767 
L 500.263102 274.425488 
L 503.383264 269.401124 
L 504.762808 271.913306 
L 505.468644 269.401124 
L 509.2983 271.913306 
L 513.299776 269.401124 
L 513.833792 271.913306 
L 515.209188 269.401124 
L 518.369284 271.913306 
L 520.898297 269.401124 
L 522.904776 271.913306 
L 525.433789 269.401124 
L 525.960062 266.888941 
L 527.440268 269.401124 
L 529.969281 266.888941 
L 531.97576 269.401124 
L 534.504773 266.888941 
L 536.511252 269.401124 
L 539.040265 264.376759 
L 541.046744 266.888941 
L 541.478656 264.376759 
L 542.820717 261.864577 
L 543.079088 259.352395 
L 543.575757 256.840213 
L 545.582236 259.352395 
L 546.014344 256.840213 
L 548.111249 254.328031 
L 548.796592 251.815849 
L 550.117728 254.328031 
L 550.30874 251.815849 
L 551.215183 249.303667 
L 552.646741 246.791485 
L 554.44449 244.279303 
L 554.65322 246.791485 
L 557.182233 244.279303 
L 559.188712 246.791485 
L 561.717725 244.279303 
L 562.967217 241.767121 
L 563.174208 239.254939 
L 563.724204 241.767121 
L 566.253217 239.254939 
L 568.259696 241.767121 
L 570.469174 239.254939 
L 570.788709 236.742757 
L 572.795188 239.254939 
L 575.324201 236.742757 
L 577.33068 239.254939 
L 579.859693 236.742757 
L 581.866172 239.254939 
L 584.395185 236.742757 
L 585.004559 234.230574 
L 586.401664 236.742757 
L 588.930677 234.230574 
L 590.937156 236.742757 
L 593.466169 234.230574 
L 594.698818 231.718392 
L 595.472648 234.230574 
L 597.605948 231.718392 
L 598.001661 229.20621 
L 600.00814 231.718392 
L 602.537153 229.20621 
L 603.319041 226.694028 
L 604.543632 229.20621 
L 607.072645 226.694028 
L 609.079124 229.20621 
L 611.608137 226.694028 
L 613.614616 229.20621 
L 616.143629 226.694028 
L 617.824701 224.181846 
L 618.150108 226.694028 
L 620.679121 224.181846 
L 622.6856 226.694028 
L 625.214613 224.181846 
L 625.490748 221.669664 
L 626.848349 219.157482 
L 627.221092 221.669664 
L 629.750104 219.157482 
L 631.756584 221.669664 
L 634.285596 219.157482 
L 635.423736 216.6453 
L 636.292076 219.157482 
L 637.678825 216.6453 
L 638.821088 214.133118 
L 640.827568 216.6453 
L 643.35658 214.133118 
L 645.36306 216.6453 
L 647.892072 214.133118 
L 649.694197 211.620936 
L 649.898552 214.133118 
L 652.23411 211.620936 
L 652.427564 209.108754 
L 654.434044 211.620936 
L 656.963056 209.108754 
L 658.921341 206.596572 
L 658.969536 209.108754 
L 661.498548 206.596572 
L 663.505028 209.108754 
L 666.03404 206.596572 
L 666.998756 204.084389 
L 667.305056 201.572207 
L 668.04052 204.084389 
L 670.569532 201.572207 
L 672.576012 204.084389 
L 674.239546 201.572207 
L 675.105024 199.060025 
L 675.520581 196.547843 
L 677.111504 199.060025 
L 680.492354 196.547843 
L 681.340441 194.035661 
L 681.646996 196.547843 
L 682.02692 194.035661 
L 685.875933 191.523479 
L 686.182488 194.035661 
L 689.869328 191.523479 
L 690.411425 189.011297 
L 690.71798 191.523479 
L 692.573261 189.011297 
L 693.921996 186.499115 
L 694.946917 183.986933 
L 695.253472 186.499115 
L 699.482409 183.986933 
L 699.788964 186.499115 
L 704.017901 183.986933 
L 704.324456 186.499115 
L 708.553393 183.986933 
L 708.859948 186.499115 
L 713.088885 183.986933 
L 713.120805 181.474751 
L 713.39544 183.986933 
L 717.624377 181.474751 
L 717.930932 183.986933 
L 719.071203 181.474751 
L 719.717524 178.962569 
L 721.843744 176.450387 
L 722.159869 173.938204 
L 722.466424 176.450387 
L 726.695361 173.938204 
L 727.001916 176.450387 
L 727.013276 173.938204 
L 731.230853 171.426022 
L 731.537408 173.938204 
L 733.094926 171.426022 
L 735.766345 168.91384 
L 736.0729 171.426022 
L 736.420463 168.91384 
L 737.792611 163.889476 
L 740.301837 161.377294 
L 740.608392 163.889476 
L 744.837329 161.377294 
L 745.143884 163.889476 
L 749.372821 161.377294 
L 749.679376 163.889476 
L 753.908313 161.377294 
L 754.214868 163.889476 
L 758.443805 161.377294 
L 758.75036 163.889476 
L 761.309724 161.377294 
L 762.979297 158.865112 
L 763.285852 161.377294 
L 764.952345 158.865112 
L 767.708948 156.35293 
L 767.821344 158.865112 
L 767.826091 156.35293 
L 769.240573 153.840748 
L 772.356836 156.35293 
L 773.776065 153.840748 
L 776.892328 156.35293 
L 777.757216 153.840748 
L 781.42782 156.35293 
L 785.963312 158.865112 
L 786.593552 156.35293 
L 789.454763 153.840748 
L 790.498804 156.35293 
L 792.88002 153.840748 
L 795.034296 156.35293 
L 796.573128 153.840748 
L 799.569788 156.35293 
L 802.195768 153.840748 
L 803.010675 151.328566 
L 803.046575 148.816384 
L 804.10528 151.328566 
L 805.843128 148.816384 
L 808.640772 151.328566 
L 811.783376 148.816384 
L 813.176264 151.328566 
L 816.318868 148.816384 
L 817.419865 146.304202 
L 817.711756 148.816384 
L 819.653329 146.304202 
L 820.85436 143.79202 
L 822.247248 146.304202 
L 822.405068 143.79202 
L 825.389852 141.279837 
L 826.78274 143.79202 
L 829.925344 141.279837 
L 830.544794 138.767655 
L 831.318232 141.279837 
L 833.179954 138.767655 
L 834.460836 136.255473 
L 835.853724 138.767655 
L 837.923286 136.255473 
L 838.996328 133.743291 
L 840.389216 136.255473 
L 843.53182 133.743291 
L 844.924708 136.255473 
L 848.067312 133.743291 
L 849.4602 136.255473 
L 852.602804 133.743291 
L 853.995692 136.255473 
L 857.138296 133.743291 
L 858.531183 136.255473 
L 859.359814 133.743291 
L 861.673788 131.231109 
L 862.895389 128.718927 
L 863.066675 131.231109 
L 864.430386 128.718927 
L 864.629617 126.206745 
L 866.20928 123.694563 
L 867.602167 126.206745 
L 870.744772 123.694563 
L 872.137659 126.206745 
L 875.280264 123.694563 
L 876.072743 121.182381 
L 876.673151 123.694563 
L 877.305788 121.182381 
L 879.815756 118.670199 
L 881.208643 121.182381 
L 885.744135 123.694563 
L 886.581905 121.182381 
L 888.121192 118.670199 
L 890.279627 121.182381 
L 891.117397 118.670199 
L 894.228809 116.158017 
L 894.815119 118.670199 
L 895.652889 116.158017 
L 895.875407 113.645835 
L 899.350611 116.158017 
L 900.188381 113.645835 
L 903.886103 116.158017 
L 904.723873 113.645835 
L 908.421595 116.158017 
L 909.259365 113.645835 
L 912.957087 116.158017 
L 913.794857 113.645835 
L 917.492579 116.158017 
L 918.330349 113.645835 
L 922.028071 116.158017 
L 922.865841 113.645835 
L 923.976908 111.133652 
L 926.563563 113.645835 
L 927.401333 111.133652 
L 928.858868 108.62147 
L 931.099055 111.133652 
L 931.936825 108.62147 
L 934.655236 106.109288 
L 935.634547 108.62147 
L 936.472317 103.597106 
L 939.827769 101.084924 
L 940.170039 103.597106 
L 941.007809 101.084924 
L 944.705531 103.597106 
L 945.543301 101.084924 
L 949.241023 103.597106 
L 950.078793 101.084924 
L 953.776515 103.597106 
L 954.09188 101.084924 
L 954.614285 98.572742 
L 954.657878 96.06056 
L 955.171175 93.548378 
L 958.312007 96.06056 
L 959.142628 93.548378 
L 959.149777 91.036196 
L 962.847499 93.548378 
L 963.685269 91.036196 
L 967.382991 93.548378 
L 968.220761 91.036196 
L 971.918483 93.548378 
L 971.962304 91.036196 
L 972.756253 88.524014 
L 972.912782 86.011832 
L 976.453975 88.524014 
L 977.291745 86.011832 
L 980.989467 88.524014 
L 981.827237 86.011832 
L 983.300226 83.49965 
L 985.524959 86.011832 
L 986.263958 83.49965 
L 986.362729 80.987467 
L 990.060451 83.49965 
L 990.898221 80.987467 
L 994.595943 83.49965 
L 995.433713 80.987467 
L 999.131435 83.49965 
L 999.969205 80.987467 
L 1001.771424 78.475285 
L 1003.666927 80.987467 
L 1003.901327 78.475285 
L 1004.504697 75.963103 
L 1008.202419 78.475285 
L 1009.040189 75.963103 
L 1012.737911 78.475285 
L 1013.575681 75.963103 
L 1015.028276 73.450921 
L 1015.555716 70.938739 
L 1017.273403 73.450921 
L 1018.988423 68.426557 
L 1021.808895 70.938739 
L 1022.646665 68.426557 
L 1026.344387 70.938739 
L 1027.182157 68.426557 
L 1028.97021 65.914375 
L 1030.879879 68.426557 
L 1030.879879 68.426557 
" clip-path="url(#p9c69598d74)" style="fill: none; stroke: #1f77b4; stroke-width: 1.5; stroke-linecap: square"/>
   </g>
   <g id="patch_3">
    <path d="M 87.951094 522.25225 
L 87.951094 44.184 
" style="fill: none; stroke: #000000; stroke-width: 0.8; stroke-linejoin: miter; stroke-linecap: square"/>
   </g>
   <g id="patch_4">
    <path d="M 1075.78125 522.25225 
L 1075.78125 44.184 
" style="fill: none; stroke: #000000; stroke-width: 0.8; stroke-linejoin: miter; stroke-linecap: square"/>
   </g>
   <g id="patch_5">
    <path d="M 87.951094 522.25225 
L 1075.78125 522.25225 
" style="fill: none; stroke: #000000; stroke-width: 0.8; stroke-linejoin: miter; stroke-linecap: square"/>
   </g>
   <g id="patch_6">
    <path d="M 87.951094 44.184 
L 1075.78125 44.184 
" style="fill: none; stroke: #000000; stroke-width: 0.8; stroke-linejoin: miter; stroke-linecap: square"/>
   </g>
   <g id="text_18">
    <!-- Buffer Size in Network.node[3].lnk[0] -->
    <g transform="translate(470.274609 38.184)scale(0.12 -0.12)">
     <defs>
      <path id="DejaVuSans-42" d="M 1259 2228 
L 1259 519 
L 2272 519 
Q 2781 519 3026 730 
Q 3272 941 3272 1375 
Q 3272 1813 3026 2020 
Q 2781 2228 2272 2228 
L 1259 2228 
z
M 1259 4147 
L 1259 2741 
L 2194 2741 
Q 2656 2741 2882 2914 
Q 3109 3088 3109 3444 
Q 3109 3797 2882 3972 
Q 2656 4147 2194 4147 
L 1259 4147 
z
M 628 4666 
L 2241 4666 
Q 2963 4666 3353 4366 
Q 3744 4066 3744 3513 
Q 3744 3084 3544 2831 
Q 3344 2578 2956 2516 
Q 3422 2416 3680 2098 
Q 3938 1781 3938 1306 
Q 3938 681 3513 340 
Q 3088 0 2303 0 
L 628 0 
L 628 4666 
z
" transform="scale(0.015625)"/>
      <path id="DejaVuSans-75" d="M 544 1381 
L 544 3500 
L 1119 3500 
L 1119 1403 
Q 1119 906 1312 657 
Q 1506 409 1894 409 
Q 2359 409 2629 706 
Q 2900 1003 2900 1516 
L 2900 3500 
L 3475 3500 
L 3475 0 
L 2900 0 
L 2900 538 
Q 2691 219 2414 64 
Q 2138 -91 1772 -91 
Q 1169 -91 856 284 
Q 544 659 544 1381 
z
M 1991 3584 
L 1991 3584 
z
" transform="scale(0.015625)"/>
      <path id="DejaVuSans-66" d="M 2375 4863 
L 2375 4384 
L 1825 4384 
Q 1516 4384 1395 4259 
Q 1275 4134 1275 3809 
L 1275 3500 
L 2222 3500 
L 2222 3053 
L 1275 3053 
L 1275 0 
L 697 0 
L 697 3053 
L 147 3053 
L 147 3500 
L 697 3500 
L 697 3744 
Q 697 4328 969 4595 
Q 1241 4863 1831 4863 
L 2375 4863 
z
" transform="scale(0.015625)"/>
      <path id="DejaVuSans-65" d="M 3597 1894 
L 3597 1613 
L 953 1613 
Q 991 1019 1311 708 
Q 1631 397 2203 397 
Q 2534 397 2845 478 
Q 3156 559 3463 722 
L 3463 178 
Q 3153 47 2828 -22 
Q 2503 -91 2169 -91 
Q 1331 -91 842 396 
Q 353 884 353 1716 
Q 353 2575 817 3079 
Q 1281 3584 2069 3584 
Q 2775 3584 3186 3129 
Q 3597 2675 3597 1894 
z
M 3022 2063 
Q 3016 2534 2758 2815 
Q 2500 3097 2075 3097 
Q 1594 3097 1305 2825 
Q 1016 2553 972 2059 
L 3022 2063 
z
" transform="scale(0.015625)"/>
      <path id="DejaVuSans-72" d="M 2631 2963 
Q 2534 3019 2420 3045 
Q 2306 3072 2169 3072 
Q 1681 3072 1420 2755 
Q 1159 2438 1159 1844 
L 1159 0 
L 581 0 
L 581 3500 
L 1159 3500 
L 1159 2956 
Q 1341 3275 1631 3429 
Q 1922 3584 2338 3584 
Q 2397 3584 2469 3576 
Q 2541 3569 2628 3553 
L 2631 2963 
z
" transform="scale(0.015625)"/>
      <path id="DejaVuSans-20" transform="scale(0.015625)"/>
      <path id="DejaVuSans-53" d="M 3425 4513 
L 3425 3897 
Q 3066 4069 2747 4153 
Q 2428 4238 2131 4238 
Q 1616 4238 1336 4038 
Q 1056 3838 1056 3469 
Q 1056 3159 1242 3001 
Q 1428 2844 1947 2747 
L 2328 2669 
Q 3034 2534 3370 2195 
Q 3706 1856 3706 1288 
Q 3706 609 3251 259 
Q 2797 -91 1919 -91 
Q 1588 -91 1214 -16 
Q 841 59 441 206 
L 441 856 
Q 825 641 1194 531 
Q 1563 422 1919 422 
Q 2459 422 2753 634 
Q 3047 847 3047 1241 
Q 3047 1584 2836 1778 
Q 2625 1972 2144 2069 
L 1759 2144 
Q 1053 2284 737 2584 
Q 422 2884 422 3419 
Q 422 4038 858 4394 
Q 1294 4750 2059 4750 
Q 2388 4750 2728 4690 
Q 3069 4631 3425 4513 
z
" transform="scale(0.015625)"/>
      <path id="DejaVuSans-69" d="M 603 3500 
L 1178 3500 
L 1178 0 
L 603 0 
L 603 3500 
z
M 603 4863 
L 1178 4863 
L 1178 4134 
L 603 4134 
L 603 4863 
z
" transform="scale(0.015625)"/>
      <path id="DejaVuSans-7a" d="M 353 3500 
L 3084 3500 
L 3084 2975 
L 922 459 
L 3084 459 
L 3084 0 
L 275 0 
L 275 525 
L 2438 3041 
L 353 3041 
L 353 3500 
z
" transform="scale(0.015625)"/>
      <path id="DejaVuSans-6e" d="M 3513 2113 
L 3513 0 
L 2938 0 
L 2938 2094 
Q 2938 2591 2744 2837 
Q 2550 3084 2163 3084 
Q 1697 3084 1428 2787 
Q 1159 2491 1159 1978 
L 1159 0 
L 581 0 
L 581 3500 
L 1159 3500 
L 1159 2956 
Q 1366 3272 1645 3428 
Q 1925 3584 2291 3584 
Q 2894 3584 3203 3211 
Q 3513 2838 3513 2113 
z
" transform="scale(0.015625)"/>
      <path id="DejaVuSans-4e" d="M 628 4666 
L 1478 4666 
L 3547 763 
L 3547 4666 
L 4159 4666 
L 4159 0 
L 3309 0 
L 1241 3903 
L 1241 0 
L 628 0 
L 628 4666 
z
" transform="scale(0.015625)"/>
      <path id="DejaVuSans-74" d="M 1172 4494 
L 1172 3500 
L 2356 3500 
L 2356 3053 
L 1172 3053 
L 1172 1153 
Q 1172 725 1289 603 
Q 1406 481 1766 481 
L 2356 481 
L 2356 0 
L 1766 0 
Q 1100 0 847 248 
Q 594 497 594 1153 
L 594 3053 
L 172 3053 
L 172 3500 
L 594 3500 
L 594 4494 
L 1172 4494 
z
" transform="scale(0.015625)"/>
      <path id="DejaVuSans-77" d="M 269 3500 
L 844 3500 
L 1563 769 
L 2278 3500 
L 2956 3500 
L 3675 769 
L 4391 3500 
L 4966 3500 
L 4050 0 
L 3372 0 
L 2619 2869 
L 1863 0 
L 1184 0 
L 269 3500 
z
" transform="scale(0.015625)"/>
      <path id="DejaVuSans-6f" d="M 1959 3097 
Q 1497 3097 1228 2736 
Q 959 2375 959 1747 
Q 959 1119 1226 758 
Q 1494 397 1959 397 
Q 2419 397 2687 759 
Q 2956 1122 2956 1747 
Q 2956 2369 2687 2733 
Q 2419 3097 1959 3097 
z
M 1959 3584 
Q 2709 3584 3137 3096 
Q 3566 2609 3566 1747 
Q 3566 888 3137 398 
Q 2709 -91 1959 -91 
Q 1206 -91 779 398 
Q 353 888 353 1747 
Q 353 2609 779 3096 
Q 1206 3584 1959 3584 
z
" transform="scale(0.015625)"/>
      <path id="DejaVuSans-6b" d="M 581 4863 
L 1159 4863 
L 1159 1991 
L 2875 3500 
L 3609 3500 
L 1753 1863 
L 3688 0 
L 2938 0 
L 1159 1709 
L 1159 0 
L 581 0 
L 581 4863 
z
" transform="scale(0.015625)"/>
      <path id="DejaVuSans-2e" d="M 684 794 
L 1344 794 
L 1344 0 
L 684 0 
L 684 794 
z
" transform="scale(0.015625)"/>
      <path id="DejaVuSans-64" d="M 2906 2969 
L 2906 4863 
L 3481 4863 
L 3481 0 
L 2906 0 
L 2906 525 
Q 2725 213 2448 61 
Q 2172 -91 1784 -91 
Q 1150 -91 751 415 
Q 353 922 353 1747 
Q 353 2572 751 3078 
Q 1150 3584 1784 3584 
Q 2172 3584 2448 3432 
Q 2725 3281 2906 2969 
z
M 947 1747 
Q 947 1113 1208 752 
Q 1469 391 1925 391 
Q 2381 391 2643 752 
Q 2906 1113 2906 1747 
Q 2906 2381 2643 2742 
Q 2381 3103 1925 3103 
Q 1469 3103 1208 2742 
Q 947 2381 947 1747 
z
" transform="scale(0.015625)"/>
      <path id="DejaVuSans-5b" d="M 550 4863 
L 1875 4863 
L 1875 4416 
L 1125 4416 
L 1125 -397 
L 1875 -397 
L 1875 -844 
L 550 -844 
L 550 4863 
z
" transform="scale(0.015625)"/>
      <path id="DejaVuSans-33" d="M 2597 2516 
Q 3050 2419 3304 2112 
Q 3559 1806 3559 1356 
Q 3559 666 3084 287 
Q 2609 -91 1734 -91 
Q 1441 -91 1130 -33 
Q 819 25 488 141 
L 488 750 
Q 750 597 1062 519 
Q 1375 441 1716 441 
Q 2309 441 2620 675 
Q 2931 909 2931 1356 
Q 2931 1769 2642 2001 
Q 2353 2234 1838 2234 
L 1294 2234 
L 1294 2753 
L 1863 2753 
Q 2328 2753 2575 2939 
Q 2822 3125 2822 3475 
Q 2822 3834 2567 4026 
Q 2313 4219 1838 4219 
Q 1578 4219 1281 4162 
Q 984 4106 628 3988 
L 628 4550 
Q 988 4650 1302 4700 
Q 1616 4750 1894 4750 
Q 2613 4750 3031 4423 
Q 3450 4097 3450 3541 
Q 3450 3153 3228 2886 
Q 3006 2619 2597 2516 
z
" transform="scale(0.015625)"/>
      <path id="DejaVuSans-5d" d="M 1947 4863 
L 1947 -844 
L 622 -844 
L 622 -397 
L 1369 -397 
L 1369 4416 
L 622 4416 
L 622 4863 
L 1947 4863 
z
" transform="scale(0.015625)"/>
      <path id="DejaVuSans-6c" d="M 603 4863 
L 1178 4863 
L 1178 0 
L 603 0 
L 603 4863 
z
" transform="scale(0.015625)"/>
     </defs>
     <use xlink:href="#DejaVuSans-42"/>
     <use xlink:href="#DejaVuSans-75" x="68.603516"/>
     <use xlink:href="#DejaVuSans-66" x="131.982422"/>
     <use xlink:href="#DejaVuSans-66" x="167.1875"/>
     <use xlink:href="#DejaVuSans-65" x="202.392578"/>
     <use xlink:href="#DejaVuSans-72" x="263.916016"/>
     <use xlink:href="#DejaVuSans-20" x="305.029297"/>
     <use xlink:href="#DejaVuSans-53" x="336.816406"/>
     <use xlink:href="#DejaVuSans-69" x="400.292969"/>
     <use xlink:href="#DejaVuSans-7a" x="428.076172"/>
     <use xlink:href="#DejaVuSans-65" x="480.566406"/>
     <use xlink:href="#DejaVuSans-20" x="542.089844"/>
     <use xlink:href="#DejaVuSans-69" x="573.876953"/>
     <use xlink:href="#DejaVuSans-6e" x="601.660156"/>
     <use xlink:href="#DejaVuSans-20" x="665.039062"/>
     <use xlink:href="#DejaVuSans-4e" x="696.826172"/>
     <use xlink:href="#DejaVuSans-65" x="771.630859"/>
     <use xlink:href="#DejaVuSans-74" x="833.154297"/>
     <use xlink:href="#DejaVuSans-77" x="872.363281"/>
     <use xlink:href="#DejaVuSans-6f" x="954.150391"/>
     <use xlink:href="#DejaVuSans-72" x="1015.332031"/>
     <use xlink:href="#DejaVuSans-6b" x="1056.445312"/>
     <use xlink:href="#DejaVuSans-2e" x="1114.355469"/>
     <use xlink:href="#DejaVuSans-6e" x="1146.142578"/>
     <use xlink:href="#DejaVuSans-6f" x="1209.521484"/>
     <use xlink:href="#DejaVuSans-64" x="1270.703125"/>
     <use xlink:href="#DejaVuSans-65" x="1334.179688"/>
     <use xlink:href="#DejaVuSans-5b" x="1395.703125"/>
     <use xlink:href="#DejaVuSans-33" x="1434.716797"/>
     <use xlink:href="#DejaVuSans-5d" x="1498.339844"/>
     <use xlink:href="#DejaVuSans-2e" x="1537.353516"/>
     <use xlink:href="#DejaVuSans-6c" x="1569.140625"/>
     <use xlink:href="#DejaVuSans-6e" x="1596.923828"/>
     <use xlink:href="#DejaVuSans-6b" x="1660.302734"/>
     <use xlink:href="#DejaVuSans-5b" x="1718.212891"/>
     <use xlink:href="#DejaVuSans-30" x="1757.226562"/>
     <use xlink:href="#DejaVuSans-5d" x="1820.849609"/>
    </g>
   </g>
   <g id="legend_1">
    <g id="patch_7">
     <path d="M 848.795313 66.862125 
L 1070.78125 66.862125 
L 1070.78125 49.184 
L 848.795313 49.184 
z
" style="fill: #ffffff; opacity: 0.8; stroke: #cccccc; stroke-linejoin: miter"/>
    </g>
    <g id="line2d_36">
     <path d="M 852.795313 57.282438 
L 862.795313 57.282438 
L 872.795313 57.282438 
" style="fill: none; stroke: #1f77b4; stroke-width: 1.5; stroke-linecap: square"/>
    </g>
    <g id="text_19">
     <!-- Buffer Size in Network.node[3].lnk[0] -->
     <g transform="translate(880.795313 60.782438)scale(0.1 -0.1)">
      <use xlink:href="#DejaVuSans-42"/>
      <use xlink:href="#DejaVuSans-75" x="68.603516"/>
      <use xlink:href="#DejaVuSans-66" x="131.982422"/>
      <use xlink:href="#DejaVuSans-66" x="167.1875"/>
      <use xlink:href="#DejaVuSans-65" x="202.392578"/>
      <use xlink:href="#DejaVuSans-72" x="263.916016"/>
      <use xlink:href="#DejaVuSans-20" x="305.029297"/>
      <use xlink:href="#DejaVuSans-53" x="336.816406"/>
      <use xlink:href="#DejaVuSans-69" x="400.292969"/>
      <use xlink:href="#DejaVuSans-7a" x="428.076172"/>
      <use xlink:href="#DejaVuSans-65" x="480.566406"/>
      <use xlink:href="#DejaVuSans-20" x="542.089844"/>
      <use xlink:href="#DejaVuSans-69" x="573.876953"/>
      <use xlink:href="#DejaVuSans-6e" x="601.660156"/>
      <use xlink:href="#DejaVuSans-20" x="665.039062"/>
      <use xlink:href="#DejaVuSans-4e" x="696.826172"/>
      <use xlink:href="#DejaVuSans-65" x="771.630859"/>
      <use xlink:href="#DejaVuSans-74" x="833.154297"/>
      <use xlink:href="#DejaVuSans-77" x="872.363281"/>
      <use xlink:href="#DejaVuSans-6f" x="954.150391"/>
      <use xlink:href="#DejaVuSans-72" x="1015.332031"/>
      <use xlink:href="#DejaVuSans-6b" x="1056.445312"/>
      <use xlink:href="#DejaVuSans-2e" x="1114.355469"/>
      <use xlink:href="#DejaVuSans-6e" x="1146.142578"/>
      <use xlink:href="#DejaVuSans-6f" x="1209.521484"/>
      <use xlink:href="#DejaVuSans-64" x="1270.703125"/>
      <use xlink:href="#DejaVuSans-65" x="1334.179688"/>
      <use xlink:href="#DejaVuSans-5b" x="1395.703125"/>
      <use xlink:href="#DejaVuSans-33" x="1434.716797"/>
      <use xlink:href="#DejaVuSans-5d" x="1498.339844"/>
      <use xlink:href="#DejaVuSans-2e" x="1537.353516"/>
      <use xlink:href="#DejaVuSans-6c" x="1569.140625"/>
      <use xlink:href="#DejaVuSans-6e" x="1596.923828"/>
      <use xlink:href="#DejaVuSans-6b" x="1660.302734"/>
      <use xlink:href="#DejaVuSans-5b" x="1718.212891"/>
      <use xlink:href="#DejaVuSans-30" x="1757.226562"/>
      <use xlink:href="#DejaVuSans-5d" x="1820.849609"/>
     </g>
    </g>
   </g>
  </g>
 </g>
 <defs>
  <clipPath id="p9c69598d74">
   <rect x="87.951094" y="44.184" width="987.830156" height="478.06825"/>
  </clipPath>
 </defs>
</svg>
